<svg xmlns="http://www.w3.org/2000/svg" viewBox="0 0 64 64"><linearGradient id="a" gradientUnits="userSpaceOnUse" x1="5" y1="32" x2="59" y2="32" gradientTransform="rotate(90 32 32)"><stop offset="0" stop-color="#514e4f"/><stop offset=".507" stop-color="#a1a1a1"/><stop offset=".558" stop-color="#615e5f"/><stop offset="1" stop-color="#231f20"/></linearGradient><circle fill="url(#a)" cx="32" cy="32" r="27"/><radialGradient id="b" cx="32" cy="32" r="25" gradientUnits="userSpaceOnUse"><stop offset="0" stop-color="#a3d07f"/><stop offset="1" stop-color="#31742e"/></radialGradient><circle fill="url(#b)" cx="32" cy="32" r="25"/><g opacity=".4"><path fill="#FFF" d="M32 37.5c-3 0-5.5-2.5-5.5-5.5s2.5-5.5 5.5-5.5 5.5 2.5 5.5 5.5-2.5 5.5-5.5 5.5zm0-10c-2.5 0-4.5 2-4.5 4.5s2 4.5 4.5 4.5 4.5-2 4.5-4.5-2-4.5-4.5-4.5z" opacity=".4"/><path fill="#FFF" d="M32 45.2c-7.3 0-13.2-5.9-13.2-13.2 0-7.3 5.9-13.2 13.2-13.2 7.3 0 13.2 5.9 13.2 13.2 0 7.3-5.9 13.2-13.2 13.2zm0-25.4c-6.8 0-12.2 5.5-12.2 12.2S25.2 44.2 32 44.2 44.2 38.8 44.2 32 38.8 19.8 32 19.8z" opacity=".4"/><path fill="#FFF" d="M32 53c-11.6 0-21-9.4-21-21s9.4-21 21-21 21 9.4 21 21-9.4 21-21 21zm0-41c-11 0-20 9-20 20s9 20 20 20 20-9 20-20-9-20-20-20z" opacity=".4"/></g></svg>