<svg xmlns="http://www.w3.org/2000/svg" viewBox="0 0 420.777 420.777"><path d="M278.82 315.657c0 19.26 35.409 19.26 35.409 0v-26.204H278.82v26.204zm-171.89 0c0 19.26 35.426 19.26 35.426 0v-26.204h-35.427v26.204zm198.733-121.904v-49.327c0-32.673-32.673-53.751-72.986-53.751H188.1c-40.313 0-72.995 21.078-72.995 53.751v49.327c-15.199 12.281-24.43 29.046-24.43 49.1v37.368h239.427v-37.368c0-20.054-9.24-36.819-24.44-49.1zm-168.388-49.327c0-20.741 25.574-31.582 50.825-31.582h44.582c25.25 0 50.816 10.84 50.816 31.582v49.327H137.275v-49.327zm-12.663 109.849c-8.97 0-16.237-7.285-16.237-16.246 0-8.96 7.267-16.246 16.237-16.246 8.96 0 16.236 7.285 16.236 16.246 0 8.96-7.271 16.246-16.236 16.246zm172.081 0c-8.97 0-16.237-7.285-16.237-16.246 0-8.96 7.267-16.246 16.237-16.246 8.96 0 16.237 7.285 16.237 16.246 0 8.96-7.276 16.246-16.237 16.246z" fill="#3f51b5"/></svg>