<svg xmlns="http://www.w3.org/2000/svg" viewBox="0 0 420.777 420.777"><path d="M411.227 226.777H308.235a8.003 8.003 0 0 0-7.643 5.635l-7.616 24.612-16.987-121.102a8.001 8.001 0 0 0-7.546-6.88c-3.836-.166-7.269 2.397-8.159 6.139l-22.761 95.632-13.331-57.833a7.999 7.999 0 0 0-7.619-6.201 7.974 7.974 0 0 0-7.886 5.859l-23.939 86.291-12.784-149.365a8 8 0 0 0-6.938-7.251 7.994 7.994 0 0 0-8.563 5.231l-43.097 120.114H8a8 8 0 0 0 0 16h110.995a8 8 0 0 0 7.53-5.298l32.622-90.92 13.452 157.159a8 8 0 0 0 15.679 1.457l27.402-98.771 13.923 60.401a8 8 0 0 0 7.768 6.203h.028a8 8 0 0 0 7.782-6.148l20.852-87.612 16.073 114.589a8.001 8.001 0 0 0 15.565 1.254l16.462-53.195h97.094a8 8 0 0 0 0-16z" fill="#4caf50"/></svg>