<svg xmlns="http://www.w3.org/2000/svg" viewBox="0 0 354.59 69.01"><path d="M113.87 34.14c0-6.298 4.353-11.005 10.848-11.005 2.348 0 5.183.464 7.667 3.049l-18.39 9.741a13.302 13.302 0 0 1-.125-1.785m23.416 4.295c-1.343 0-2.475.828-2.902 1.975-.872 1.41-2.036 2.57-3.378 3.344-1.868 1.058-4.079 1.39-6.288 1.39-2.074 0-4.146-.528-5.872-1.524a9.848 9.848 0 0 1-2.939-2.747l21.674-11.515c1.007-.489 2.043-1.577 2.043-2.732 0-.876-.24-1.887-.87-2.43-3.483-4.5-8.613-6.632-13.9-6.632-9.74 0-17.203 7.164-17.203 16.576 0 6.895 3.87 12.199 9.466 14.85a18.275 18.275 0 0 0 7.738 1.724c3.108 0 6.219-.665 8.91-2.123 1.487-.808 3.823-2.393 5.667-5.072a2.885 2.885 0 0 0 .945-2.127c0-1.637-1.383-2.966-3.091-2.966m177.008-20.155c-1.35 0-2.485.837-2.903 1.994l-.021-.003-8.867 22.49-8.936-22.653c-.45-1.104-1.564-1.887-2.87-1.887-1.705 0-3.09 1.329-3.09 2.965 0 .24.037.469.092.692l9.896 24.794c.83 1.99 1.383 4.044 4.908 4.044 3.455 0 4.146-2.123 4.906-4.044l9.922-24.757s.053-.444.053-.67c0-1.636-1.381-2.965-3.09-2.965M246.27 33.006c0-4.51-.76-10.077-6.563-13.52-2.28-1.326-4.903-1.924-7.6-1.924-2.694 0-5.32.598-7.6 1.924-5.802 3.446-6.564 9.016-6.564 13.52v13.87c-.005.062-.02.125-.02.19 0 1.64 1.384 2.966 3.094 2.966 1.703 0 3.086-1.327 3.086-2.966 0-.223-.03-.44-.077-.652V33.006c0-2.653.208-6.829 4.42-9.017 1.105-.598 2.42-.86 3.66-.86 1.245 0 2.56.262 3.664.86 4.213 2.188 4.422 6.364 4.422 9.017v13.88c-.004.06-.02.12-.02.18 0 1.64 1.383 2.966 3.091 2.966 1.703 0 3.09-1.327 3.09-2.966 0-.23-.032-.448-.083-.662V33.006zM92.786 23.792h8.786l.19.002c1.604 0 2.908-1.25 2.908-2.792 0-1.48-1.207-2.68-2.727-2.773v-.023h-9.162V10.25h-6.083v29.104c0 10.543 7.808 10.672 10.502 10.672h4.542v-.013c.007 0 .012.003.02.003 1.604 0 2.908-1.25 2.908-2.791 0-1.542-1.304-2.792-2.909-2.792-.094 0-.183.002-.274.025h-3.18c-6.011 0-5.526-2.186-5.526-5.567V23.777m-49.667 7.756c0-5.038-.345-9.281-5.598-12.335-3.177-1.854-7.054-2.052-10.155-1.125-2.487.73-4.353 2.056-5.804 3.977-1.45-1.921-3.315-3.246-5.804-3.977-1.243-.398-2.556-.53-3.868-.53a12.7 12.7 0 0 0-6.357 1.723C.417 22.316.002 26.693.002 31.597V47c0 .018-.007.035-.007.052 0 1.64 1.384 2.966 3.09 2.966 1.707 0 3.092-1.327 3.092-2.966 0-.24-.039-.472-.098-.699V31.135c0-2.52.07-5.571 3.18-7.293.968-.532 2.003-.729 3.109-.729 1.036 0 2.142.263 3.04.795 3.385 1.854 3.109 5.37 3.109 8.482v14.328c-.013.108-.035.217-.035.328 0 1.64 1.382 2.966 3.089 2.966 1.708 0 3.091-1.327 3.091-2.966 0-.207-.023-.41-.065-.603V32.39c0-3.117-.276-6.633 3.109-8.482 1.797-.996 4.284-1.127 6.149-.066 2.972 1.657 3.178 4.64 3.178 7.293V46.95c0 .034-.01.067-.01.101 0 1.64 1.384 2.966 3.09 2.966 1.707 0 3.09-1.327 3.09-2.966 0-.233-.037-.46-.09-.682V31.533m305.395 13.571c-5.155 0-11.733-.008-11.811-.01-4.822-.235-10.85-3.226-10.85-10.917 0-6.893 5.114-11.07 11.335-11.07 4.557 0 11.326 1.988 11.326 12.662v9.335m-11.122-27.568c-9.602 0-17.755 6.696-17.755 17.037 0 9.814 7.46 16.113 16.786 16.113.122 0 .241-.005.358-.01.105-.004 17.712-.01 17.81-.014v-.641h.003V35.967c0-13.325-8.564-18.431-17.202-18.431M268.1 45.116c-6.496 0-11.055-4.508-11.055-11.005 0-6.496 4.56-11.004 11.055-11.004 6.561 0 11.055 4.573 11.055 11.004 0 6.43-4.494 11.005-11.055 11.005m0-27.58c-9.606 0-17.274 7.36-17.274 16.575 0 9.216 7.668 16.575 17.274 16.575 9.602 0 17.27-7.359 17.27-16.575 0-9.215-7.668-16.575-17.27-16.575M177.047 50.84c-9.602 0-17.273-7.358-17.273-16.572 0-9.218 7.671-16.576 17.273-16.576 9.604 0 17.27 7.358 17.27 16.576 0 9.214-7.666 16.572-17.27 16.572m22.548-25.328c-1.624-5.017 4.25-13.877 3.07-15.25-1.3-1.516-10.938 4.663-16.28 2.574-5.343-2.09-7.172-12.652-9.002-12.86-2.054-.234-4.15 10.932-9.677 12.862-5.524 1.931-14.59-4.092-15.996-2.859-1.469 1.285 4.95 11.421 2.792 15.533-2.157 4.11-13.268 6.952-13.415 8.746-.157 1.933 11.549 4.575 13.418 9.175 1.87 4.599-4.264 14.122-2.89 15.44 1.374 1.32 11.633-4.909 16.098-2.769 4.465 2.14 7.367 12.856 9.298 12.88 1.957.023 3.595-10.691 9.376-12.882 5.781-2.192 15.163 4.083 16.397 2.43 1.052-1.41-4.959-11.04-3.19-15.102 1.767-4.061 13.35-7.028 13.42-8.858.076-1.898-11.798-4.041-13.42-9.06m-22.547-2.254c-6.497 0-11.055 4.508-11.055 11.006 0 6.495 4.558 11.003 11.055 11.003 6.562 0 11.054-4.573 11.054-11.003 0-6.433-4.492-11.006-11.054-11.006M54.053 34.108c0-6.298 4.353-11.005 10.849-11.005 2.348 0 5.18.464 7.668 3.049l-18.393 9.741a13.597 13.597 0 0 1-.124-1.785m23.418 4.295c-1.343 0-2.474.828-2.902 1.975-.872 1.41-2.038 2.57-3.38 3.344-1.866 1.058-4.077 1.39-6.287 1.39-2.073 0-4.147-.528-5.874-1.524a9.878 9.878 0 0 1-2.936-2.746l21.674-11.516c1.005-.488 2.043-1.577 2.043-2.732 0-.875-.242-1.887-.872-2.43-3.483-4.5-8.613-6.632-13.897-6.632-9.74 0-17.204 7.164-17.204 16.576 0 6.895 3.868 12.199 9.466 14.851a18.275 18.275 0 0 0 7.738 1.723c3.108 0 6.219-.665 8.912-2.123 1.483-.808 3.821-2.393 5.664-5.072a2.891 2.891 0 0 0 .946-2.126c0-1.638-1.385-2.967-3.091-2.967" fill="#9C4E4E"/></svg>