<svg xmlns="http://www.w3.org/2000/svg" viewBox="0 0 256 256"><path d="M161.3 20.2L97.7 94.3l28.5 5.8-32.7 68.8L164 90.5l-28.5-5.9z"/><path d="M160.4 21.6l-22.7 56.7-1.5 3.8-.8 2.8h.1l28 5.7-69 76.8 28.7-60.3 1.8-3.8 1.3-3.4-28.1-5.8z"/><path d="M159.6 22.9l-22.4 55.9-1.4 3.7-.5 2.6h.1l27.6 5.7-67.4 75.1 28.1-59.4 1.8-3.7.8-3.2-27.6-5.7z"/><path d="M158.8 24.3l-22.1 55.1-1.4 3.6-.1 2.3.1.1 27.2 5.6-65.9 73.4 27.7-58.4 1.8-3.8.3-2.8-27.2-5.6z"/><path d="M157.9 25.7l-21.7 54.2-1.4 3.6.4 2.1h.1l26.7 5.5-64.4 71.7 27.3-57.4 1.7-3.7-.2-2.6-26.7-5.5z"/><path d="M157.1 27.1l-21.3 53.3-1.5 3.5.8 1.9.1.1 26.3 5.4-62.9 70 26.8-56.5 1.7-3.6-.6-2.3-26.4-5.5z"/><path d="M156.3 28.4l-21 52.5-1.4 3.5 1.1 1.7h.2l25.8 5.3-61.4 68.4 26.4-55.6 1.7-3.5-1.2-2.1-25.9-5.3z"/><path d="M155.4 29.8l-20.6 51.7-1.4 3.4 1.5 1.4.2.1 25.4 5.2-59.9 66.7 26-54.7 1.6-3.4-1.6-1.8-25.5-5.3z"/><path d="M154.6 31.2L134.3 82l-1.4 3.3 1.9 1.3h.3l24.9 5.2-58.4 65 25.5-53.7 1.7-3.5-2.2-1.5-25-5.1z"/><path d="M153.8 32.5l-20 50-1.3 3.3 2.2 1 .3.1 24.5 5-56.9 63.3 25.1-52.7 1.6-3.4-2.6-1.2-24.6-5.1z"/><path d="M152.9 33.9L133.3 83l-1.3 3.2 2.6.9h.4l24 5-55.3 61.6 24.6-51.8 1.5-3.3-3.1-1-24.1-5z"/><path fill="#1D1D1B" d="M211.9 21.5V161c0 37.6-27.8 68.8-63.9 74.2V230c33.3-5.4 58.8-34.3 58.8-69V21.5h5.1m11-11h-27.1V161c0 32.4-26.3 58.8-58.8 58.9V247c47.4-.1 85.9-38.6 85.9-86V10.5zM119.3 219.9c-32.5 0-58.9-26.4-58.9-58.9V10.5H33.3V161c0 47.4 38.6 86 86 86h.1v-27.1h-.1z"/></svg>