<svg xmlns="http://www.w3.org/2000/svg" width="16" height="16" viewBox="0 0 16 16">
  <path fill="#B0C6FF" fill-rule="evenodd" d="M10.9232539,6.84601952 C9.40332873,6.84601952 8.16718118,5.60960712 8.16718118,4.0900792 C8.16718118,2.57028644 9.40332873,1.33413889 10.9232539,1.33413889 C12.4429142,1.33413889 13.6790618,2.57028644 13.6790618,4.0900792 C13.6790618,5.60960712 12.4429142,6.84601952 10.9232539,6.84601952 Z M10.9232539,-7.10542736e-15 C8.66442103,-7.10542736e-15 6.83290986,1.83124633 6.83290986,4.0900792 C6.83290986,4.28910757 6.84707888,4.48495783 6.87475481,4.67630579 C7.32551499,7.65669925 9.61824758,11.3354797 10.9232539,13.1839407 C12.1151729,11.3775894 14.493052,7.70688671 14.957584,4.75787696 C14.9597027,4.74503215 14.970164,4.67630579 14.970164,4.67630579 C14.997575,4.48469299 15.0132007,4.28937241 15.0132007,4.0900792 C15.0132007,1.83124633 13.1818219,-7.10542736e-15 10.9232539,-7.10542736e-15 Z M12.2117076,12.7285458 L14.3710926,12.231968 L15.2887682,14.640966 L12.4152383,15.2436128 L12.2117076,12.7285458 Z M7.48150662,14.121347 L3.7349268,14.9006431 L5.99150852,12.770788 L8.58761701,12.2993702 L7.48150662,14.121347 Z M1.01579945,13.8951724 L3.95196438,11.9549438 L5.56352471,12.6922625 L3.0815629,15.0350501 L1.01579945,13.8951724 Z M14.699496,11.616344 L12.5025036,12.1215291 C12.2976487,12.4505947 12.0918669,12.7726419 11.8887335,13.0855521 L12.0624695,15.2340785 L7.85281435,14.1857035 L9.04076076,12.2289223 L9.41776259,12.2963245 C9.29553825,12.1059035 9.16881161,11.904624 9.03930413,11.6942074 L9.00699347,11.6882485 L5.87669974,12.2567307 L3.90535228,11.3548131 L0,13.9355608 L3.00025657,15.5910848 L7.53235618,14.6481167 L12.2342192,15.8191133 L16,15.0297533 L14.699496,11.616344 L14.699496,11.616344 Z"/>
</svg>
