<svg xmlns="http://www.w3.org/2000/svg" width="177" height="172" viewBox="0 0 177 172">
  <g fill="none" fill-rule="evenodd" transform="translate(.696 .827)">
    <path fill="#DB2C6F" d="M174.264218,62.635 C167.872218,42.963 146.743218,32.197 127.071218,38.589 C126.516218,38.77 125.962218,38.985 125.410218,39.226 C125.467218,38.628 125.506218,38.035 125.506218,37.452 C125.506218,16.768 108.738218,0 88.0542184,0 C67.3692184,0 50.6012184,16.768 50.6012184,37.452 C50.6012184,38.035 50.6402184,38.628 50.6982184,39.226 C50.1452184,38.985 49.5912184,38.77 49.0362184,38.589 C29.3642184,32.197 8.23521837,42.963 1.84321837,62.635 C-4.54878163,82.307 6.21721837,103.437 25.8892184,109.828 C26.4432184,110.008 27.0192184,110.154 27.6062184,110.284 C27.2062184,110.736 26.8302184,111.196 26.4872184,111.668 C14.3292184,128.402 18.0392184,151.824 34.7732184,163.982 C51.5072184,176.14 74.9292184,172.43 87.0872184,155.696 C87.4292184,155.226 87.7492184,154.727 88.0542184,154.21 C88.3592184,154.727 88.6792184,155.226 89.0212184,155.696 C101.179218,172.43 124.601218,176.14 141.335218,163.982 C158.069218,151.824 161.778218,128.402 149.620218,111.668 C149.277218,111.196 148.901218,110.736 148.502218,110.284 C149.088218,110.154 149.665218,110.008 150.218218,109.828 C169.890218,103.437 180.656218,82.307 174.264218,62.635"/>
    <path fill="#F3F4F1" d="M117.724218,82.768 C114.638218,82.768 111.992218,84.649 110.866218,87.327 L97.0232184,87.327 L106.811218,77.539 C109.501218,78.636 112.702218,78.095 114.885218,75.913 C117.789218,73.008 117.789218,68.298 114.885218,65.394 C111.980218,62.489 107.270218,62.489 104.366218,65.394 C102.183218,67.576 101.642218,70.777 102.740218,73.467 L92.9512184,83.255 L92.9512184,69.412 C95.6292184,68.287 97.5102184,65.641 97.5102184,62.554 C97.5102184,58.446 94.1802184,55.116 90.0722184,55.116 C85.9642184,55.116 82.6342184,58.446 82.6342184,62.554 C82.6342184,65.641 84.5152184,68.287 87.1932184,69.412 L87.1932184,83.255 L77.4042184,73.467 C78.5022184,70.777 77.9612184,67.576 75.7782184,65.394 C72.8732184,62.489 68.1642184,62.489 65.2592184,65.394 C62.3552184,68.298 62.3552184,73.008 65.2592184,75.912 C67.4422184,78.095 70.6432184,78.636 73.3332184,77.539 L83.1212184,87.327 L69.2782184,87.327 C68.1522184,84.649 65.5062184,82.768 62.4192184,82.768 C58.3122184,82.768 54.9822184,86.098 54.9822184,90.206 C54.9822184,94.314 58.3122184,97.644 62.4192184,97.644 C65.5062184,97.644 68.1522184,95.763 69.2782184,93.085 L83.1212184,93.085 L73.3322184,102.874 C70.6432184,101.777 67.4422184,102.318 65.2592184,104.5 C62.3552184,107.405 62.3552184,112.114 65.2592184,115.019 C68.1642184,117.924 72.8732184,117.924 75.7782184,115.019 C77.9612184,112.836 78.5022184,109.635 77.4042184,106.946 L87.1932184,97.157 L87.1932184,111 C84.5152184,112.126 82.6342184,114.772 82.6342184,117.859 C82.6342184,121.967 85.9642184,125.297 90.0722184,125.297 C94.1802184,125.297 97.5102184,121.967 97.5102184,117.859 C97.5102184,114.772 95.6292184,112.126 92.9512184,111 L92.9512184,97.157 L102.740218,106.946 C101.642218,109.635 102.183218,112.836 104.366218,115.019 C107.270218,117.924 111.980218,117.924 114.885218,115.019 C117.789218,112.114 117.789218,107.405 114.885218,104.5 C112.702218,102.318 109.501218,101.777 106.812218,102.874 L97.0232184,93.085 L110.866218,93.085 C111.991218,95.763 114.638218,97.644 117.724218,97.644 C121.832218,97.644 125.162218,94.314 125.162218,90.206 C125.162218,86.098 121.832218,82.768 117.724218,82.768"/>
  </g>
</svg>
