<svg xmlns="http://www.w3.org/2000/svg" width="55" height="92" viewBox="0 0 55 92">
  <path fill="#0A0B09" fill-rule="evenodd" d="M5.15625,79.4285714 L50.4166667,79.4285714 L50.4166667,8.57142857 L5.15625,8.57142857 L5.15625,79.4285714 Z M27.5001005,88 C25.6016431,88 24.0625,86.4648549 24.0625,84.5715286 C24.0625,82.6778023 25.6016431,81.1428571 27.5001005,81.1428571 C29.3985578,81.1428571 30.9375,82.6778023 30.9375,84.5715286 C30.9375,86.4648549 29.3985578,88 27.5001005,88 Z M49.8076306,0 L5.17041045,0 C2.29337686,0 0,2.58683555 0,5.84445331 L0,86.0480091 C0,89.3050131 2.29337686,92 5.17041045,92 L49.8076306,92 C52.6848694,92 55,89.3050131 55,86.0480091 L55,5.84445331 C55,2.58683555 52.6848694,0 49.8076306,0 L49.8076306,0 Z"/>
</svg>
