<?xml version="1.0" encoding="UTF-8" standalone="no"?>
<svg
   xmlns:dc="http://purl.org/dc/elements/1.1/"
   xmlns:cc="http://creativecommons.org/ns#"
   xmlns:rdf="http://www.w3.org/1999/02/22-rdf-syntax-ns#"
   xmlns:svg="http://www.w3.org/2000/svg"
   xmlns="http://www.w3.org/2000/svg"
   xmlns:sodipodi="http://sodipodi.sourceforge.net/DTD/sodipodi-0.dtd"
   xmlns:inkscape="http://www.inkscape.org/namespaces/inkscape"
   id="svg2"
   viewBox="0 0 240 240"
   width="2500"
   height="2500"
   version="1.1"
   inkscape:version="0.91 r13725"
   sodipodi:docname="telegram.svg">
  <metadata
     id="metadata4157">
    <rdf:RDF>
      <cc:Work
         rdf:about="">
        <dc:format>image/svg+xml</dc:format>
        <dc:type
           rdf:resource="http://purl.org/dc/dcmitype/StillImage" />
      </cc:Work>
    </rdf:RDF>
  </metadata>
  <defs
     id="defs4155" />
  <sodipodi:namedview
     pagecolor="#ffffff"
     bordercolor="#666666"
     borderopacity="1"
     objecttolerance="10"
     gridtolerance="10"
     guidetolerance="10"
     inkscape:pageopacity="0"
     inkscape:pageshadow="2"
     inkscape:window-width="1920"
     inkscape:window-height="1017"
     id="namedview4153"
     showgrid="false"
     inkscape:zoom="0.3368"
     inkscape:cx="1250"
     inkscape:cy="1250"
     inkscape:window-x="-8"
     inkscape:window-y="-8"
     inkscape:window-maximized="1"
     inkscape:current-layer="svg2" />
  <style
     id="style4137">.st0{fill:url(#path2995-1-0_1_)}.st1{fill:#c8daea}.st2{fill:#a9c9dd}.st3{fill:url(#path2991_1_)}</style>
  <linearGradient
     id="path2995-1-0_1_"
     gradientUnits="userSpaceOnUse"
     x1="-683.305"
     y1="534.845"
     x2="-693.305"
     y2="511.512"
     gradientTransform="matrix(6 0 0 -6 4255 3247)">
    <stop
       offset="0"
       stop-color="#37aee2"
       id="stop4140" />
    <stop
       offset="1"
       stop-color="#1e96c8"
       id="stop4142" />
  </linearGradient>
  <path
     id="path2993"
     class="st1"
     d="M98 175c-3.9 0-3.2-1.5-4.6-5.2L82 132.2 152.8 88l8.3 2.2-6.9 18.8L98 175z" />
  <path
     id="path2989"
     class="st2"
     d="M98 175c3 0 4.3-1.4 6-3 2.6-2.5 36-35 36-35l-20.5-5-19 12-2.5 30v1z" />
  <linearGradient
     id="path2991_1_"
     gradientUnits="userSpaceOnUse"
     x1="128.991"
     y1="118.245"
     x2="153.991"
     y2="78.245"
     gradientTransform="matrix(1 0 0 -1 0 242)">
    <stop
       offset="0"
       stop-color="#eff7fc"
       id="stop4148" />
    <stop
       offset="1"
       stop-color="#fff"
       id="stop4150" />
  </linearGradient>
  <path
     id="path2991"
     class="st3"
     d="M100 144.4l48.4 35.7c5.5 3 9.5 1.5 10.9-5.1L179 82.2c2-8.1-3.1-11.7-8.4-9.3L55 117.5c-7.9 3.2-7.8 7.6-1.4 9.5l29.7 9.3L152 93c3.2-2 6.2-.9 3.8 1.3L100 144.4z" />
</svg>
