<?xml version="1.0" encoding="UTF-8" standalone="no"?>
<!-- Created with Inkscape (http://www.inkscape.org/) -->

<svg
   xmlns:dc="http://purl.org/dc/elements/1.1/"
   xmlns:cc="http://creativecommons.org/ns#"
   xmlns:rdf="http://www.w3.org/1999/02/22-rdf-syntax-ns#"
   xmlns:svg="http://www.w3.org/2000/svg"
   xmlns="http://www.w3.org/2000/svg"
   xmlns:sodipodi="http://sodipodi.sourceforge.net/DTD/sodipodi-0.dtd"
   xmlns:inkscape="http://www.inkscape.org/namespaces/inkscape"
   width="63.333221mm"
   height="55.300301mm"
   viewBox="0 0 63.333221 55.300301"
   version="1.1"
   id="svg6801"
   inkscape:version="0.92.3 (2405546, 2018-03-11)"
   sodipodi:docname="types_winter.svg">
  <defs
     id="defs6795" />
  <sodipodi:namedview
     id="base"
     pagecolor="#ffffff"
     bordercolor="#666666"
     borderopacity="1.0"
     inkscape:pageopacity="0.0"
     inkscape:pageshadow="2"
     inkscape:zoom="0.35"
     inkscape:cx="-374.60089"
     inkscape:cy="65.93307"
     inkscape:document-units="mm"
     inkscape:current-layer="layer1"
     showgrid="false"
     inkscape:window-width="1400"
     inkscape:window-height="772"
     inkscape:window-x="-8"
     inkscape:window-y="-8"
     inkscape:window-maximized="1"
     fit-margin-top="0"
     fit-margin-left="0"
     fit-margin-right="0"
     fit-margin-bottom="0" />
  <metadata
     id="metadata6798">
    <rdf:RDF>
      <cc:Work
         rdf:about="">
        <dc:format>image/svg+xml</dc:format>
        <dc:type
           rdf:resource="http://purl.org/dc/dcmitype/StillImage" />
        <dc:title></dc:title>
      </cc:Work>
    </rdf:RDF>
  </metadata>
  <g
     inkscape:label="Layer 1"
     inkscape:groupmode="layer"
     id="layer1"
     transform="translate(-89.28577,-110.59985)">
    <path
       id="path64"
       style="fill:#4d4d4d;fill-opacity:1;fill-rule:nonzero;stroke:none;stroke-width:0.03527778"
       d="m 127.36362,152.81851 c 2.46604,-3.7396 4.0019,-8.97734 4.0019,-14.78348 0,-5.80511 -1.53586,-11.04308 -4.0019,-14.78353 -2.46668,3.74045 -4.00254,8.97842 -4.00254,14.78353 0,5.80614 1.53586,11.04388 4.00254,14.78348 z m 7.0219,4.84462 c 6.98285,0 12.66411,-8.84551 12.66411,-19.71542 0,-10.87223 -5.68126,-19.71836 -12.66411,-19.71836 -1.33606,0 -2.65803,0.32732 -3.92602,0.9669 l 0.22312,0.55327 c 0.74054,-0.22992 1.49672,-0.34544 2.2491,-0.34544 6.45058,0 11.69851,8.3167 11.69851,18.54369 0,10.22438 -5.24793,18.54091 -11.69851,18.54091 -0.74779,0 -1.5047,-0.11779 -2.2491,-0.34827 l -0.22369,0.5544 c 1.268,0.64292 2.58855,0.96832 3.92682,0.96832 z m -30.76781,-22.16749 c 0.98887,-14.03992 9.51814,-24.89579 19.89639,-24.89579 h 9.1086 c 11.04387,0 19.99629,12.2647 19.99629,27.607 0,15.34145 -8.95242,27.6933 -19.99629,27.6933 -1.56785,0 -7.54155,-0.034 -9.1086,-0.034 -3.60998,0 -6.9876,-1.3321 -9.91157,-3.63597 2.47223,-2.85459 3.97836,-6.56843 3.97836,-10.64186 0,-8.20344 -6.07302,-14.96775 -13.96318,-16.09468"
       inkscape:connector-curvature="0" />
    <path
       id="path66"
       style="fill:#3b55c5;fill-opacity:1;fill-rule:nonzero;stroke:none;stroke-width:0.03527778"
       d="m 101.30427,147.03916 4.31921,-5.05856 c 0.46606,-0.54308 0.40263,-1.36246 -0.14384,-1.82994 -0.54535,-0.46493 -1.36648,-0.3998 -1.82999,0.14441 l -2.34538,2.7445 -2.345379,-2.7445 c -0.46549,-0.54421 -1.28453,-0.60951 -1.83197,-0.14441 -0.545337,0.4672 -0.609277,1.28674 -0.14214,1.82994 l 4.319149,5.05856"
       inkscape:connector-curvature="0" />
    <path
       id="path68"
       style="fill:#3b55c5;fill-opacity:1;fill-rule:nonzero;stroke:none;stroke-width:0.03527778"
       d="m 97.970021,163.3428 c 0.36753,0 0.73115,-0.15743 0.98887,-0.457 l 2.345379,-2.74456 2.34538,2.74456 c 0.46549,0.54308 1.28459,0.60951 1.82999,0.14384 0.54647,-0.46549 0.61013,-1.28459 0.14384,-1.83016 l -4.31921,-5.05834 -4.319149,5.05834 c -0.467187,0.54535 -0.403767,1.36489 0.14214,1.83016 0.24577,0.20953 0.54535,0.31373 0.8431,0.31373"
       inkscape:connector-curvature="0" />
    <path
       id="path70"
       style="fill:#3b55c5;fill-opacity:1;fill-rule:nonzero;stroke:none;stroke-width:0.03527778"
       d="m 101.30427,165.17274 c 0.71722,0 1.29858,-0.58136 1.29858,-1.30016 v -24.56479 c 0,-0.71716 -0.58136,-1.29852 -1.29858,-1.29852 -0.71716,0 -1.29852,0.58136 -1.29852,1.29852 v 24.56479 c 0,0.7188 0.58136,1.30016 1.29852,1.30016"
       inkscape:connector-curvature="0" />
    <path
       id="path72"
       style="fill:#3b55c5;fill-opacity:1;fill-rule:nonzero;stroke:none;stroke-width:0.03527778"
       d="m 112.0245,150.54924 c 0.61414,0 1.15892,-0.43775 1.27518,-1.06277 0.13081,-0.70561 -0.33582,-1.3821 -1.04102,-1.51252 l -3.54984,-0.65946 1.20565,-3.40401 c 0.23898,-0.67508 -0.11552,-1.41784 -0.79135,-1.65597 -0.6774,-0.23784 -1.41959,0.11383 -1.65748,0.78914 l -2.21977,6.27339 6.54152,1.20802 c 0.0787,0.017 0.15855,0.0226 0.23727,0.0226"
       inkscape:connector-curvature="0" />
    <path
       id="path74"
       style="fill:#3b55c5;fill-opacity:1;fill-rule:nonzero;stroke:none;stroke-width:0.03527778"
       d="m 93.916524,161.0032 c 0.53516,0 1.03486,-0.33298 1.22462,-0.86705 l 2.221527,-6.2726 -6.540674,-1.20887 c -0.68726,-0.14214 -1.38244,0.33411 -1.51433,1.03864 -0.12968,0.70544 0.33581,1.38528 1.04085,1.51236 l 3.552047,0.65945 -1.20667,3.40401 c -0.23954,0.67582 0.11382,1.41881 0.79112,1.65835 0.14214,0.051 0.28994,0.0759 0.43151,0.0759"
       inkscape:connector-curvature="0" />
    <path
       id="path76"
       style="fill:#3b55c5;fill-opacity:1;fill-rule:nonzero;stroke:none;stroke-width:0.03527778"
       d="m 90.668137,159.0296 c 0.21972,0 0.44341,-0.0566 0.64932,-0.17555 l 21.272023,-12.2801 c 0.6205,-0.3579 0.83348,-1.15095 0.47513,-1.77444 -0.35959,-0.61726 -1.15247,-0.83506 -1.77461,-0.47286 l -21.273223,12.2801 c -0.6193,0.35734 -0.83308,1.15276 -0.47568,1.77387 0.2418,0.41623 0.67723,0.64926 1.1267,0.64926"
       inkscape:connector-curvature="0" />
    <path
       id="path78"
       style="fill:#3b55c5;fill-opacity:1;fill-rule:nonzero;stroke:none;stroke-width:0.03527778"
       d="m 90.582227,150.54924 c 0.0798,0 0.1597,-0.006 0.23955,-0.0226 l 6.540724,-1.20803 -2.221527,-6.27338 c -0.23954,-0.67746 -0.98688,-1.02709 -1.65613,-0.78914 -0.67724,0.23785 -1.03083,0.98089 -0.79112,1.65591 l 1.20667,3.40402 -3.552047,0.65945 c -0.70521,0.13025 -1.1707,0.80692 -1.04085,1.51252 0.11609,0.62491 0.66126,1.06283 1.27456,1.06283"
       inkscape:connector-curvature="0" />
    <path
       id="path80"
       style="fill:#3b55c5;fill-opacity:1;fill-rule:nonzero;stroke:none;stroke-width:0.03527778"
       d="m 108.69002,161.0032 c 0.14385,0 0.28938,-0.0283 0.43322,-0.0759 0.67588,-0.23954 1.03009,-0.98253 0.79134,-1.65835 l -1.20565,-3.40401 3.54984,-0.65945 c 0.70538,-0.12685 1.17206,-0.80692 1.04102,-1.51236 -0.13081,-0.70458 -0.8123,-1.17206 -1.51229,-1.03864 l -6.54152,1.20887 2.21977,6.2726 c 0.188,0.53401 0.6898,0.86705 1.22438,0.86705"
       inkscape:connector-curvature="0" />
    <path
       id="path82"
       style="fill:#3b55c5;fill-opacity:1;fill-rule:nonzero;stroke:none;stroke-width:0.03527778"
       d="m 111.93938,159.0296 c 0.44907,0 0.88427,-0.23331 1.12534,-0.64926 0.35847,-0.62111 0.14497,-1.41642 -0.47511,-1.77381 L 91.317567,144.32637 c -0.62134,-0.36186 -1.41642,-0.14441 -1.77602,0.47286 -0.3579,0.62355 -0.14384,1.41625 0.47569,1.77443 l 21.273223,12.28011 c 0.20557,0.12005 0.42868,0.17555 0.64926,0.17555"
       inkscape:connector-curvature="0" />
  </g>
</svg>
