<svg xmlns="http://www.w3.org/2000/svg" viewBox="0 0 191 220">
  <path fill="#5E5E5E" d="M98.5597515,52.5 C89.1296175,67.3613682 83.2564103,88.1763345 83.2564103,111.25 C83.2564103,134.319696 89.1296175,155.135456 98.5597515,170 C107.992177,155.135456 113.865385,134.319696 113.865385,111.25 C113.865385,88.1763345 107.992177,67.3613682 98.5597515,52.5 Z M71.5707385,32.5 C44.2592641,32.5 22.0384615,67.8293623 22.0384615,111.244016 C22.0384615,154.668244 44.2592641,190 71.5707385,190 C76.7965887,190 81.9669611,188.691416 86.9263617,186.138083 L86.0535634,183.927853 C83.1569984,184.845457 80.199486,185.308249 77.2568198,185.308249 C52.026934,185.308249 31.5009385,152.090973 31.5009385,111.244016 C31.5009385,70.4074315 52.026934,37.1909529 77.2568198,37.1909529 C80.1815144,37.1909529 83.1421523,37.6617238 86.0535634,38.580924 L86.9294872,36.3675027 C81.9700866,33.7998065 76.8051838,32.5 71.5707385,32.5 L71.5707385,32.5 Z M191,120.95748 C187.145426,176.812254 153.899527,220 113.446742,220 L77.9426084,220 C34.8951892,220 -1.13686838e-13,171.207543 -1.13686838e-13,110.17167 C-1.13686838e-13,49.1389762 34.8951892,1.13686838e-13 77.9426084,1.13686838e-13 C84.0538609,1.13686838e-13 107.338605,0.127163036 113.446742,0.127163036 C127.517886,0.127163036 140.683399,5.42668256 152.080479,14.5919584 C142.444044,25.9484123 136.57341,40.7231675 136.57341,56.9285069 C136.57341,89.5641053 160.245169,116.474188 191,120.95748 L191,120.95748 Z" transform="rotate(-180 95.5 110)"/>
</svg>
