<svg width="582" height="513" xmlns="http://www.w3.org/2000/svg">

 <g>
  <title>background</title>
  <rect fill="none" id="canvas_background" height="515" width="584" y="-1" x="-1"/>
 </g>
 <g>
  <title>Layer 1</title>
  <path id="svg_1" fill="#DD2E44" d="m346.724074,74.134387c-9.796,0 -19.304,0.943 -28.429,2.527c-11.708,-1.499 -39.123,-3.299 -51.275,-3.299c-120.982,0.002 -226.843,45.365 -226.843,204.157c0,129.022 100.649,233.612 242.394,233.612s256.643,-104.592 256.643,-233.612c0,-160.62 -134.005,-203.385 -192.49,-203.385"/>
  <path id="svg_2" fill="#77B255" d="m161.159579,-0.868613c23.374,23.36 39.552,32.356 46.748,70.108c4.255,22.331 32.356,21.561 32.356,21.561s-55.73,25.187 -79.103,48.547c0,0 70.108,-23.36 93.482,-23.36c0,0 46.734,23.36 46.734,46.734c0,0 0,-46.734 -23.36,-46.734c0,0 70.093,0 70.093,46.734c0,0 0,-70.123 -23.36,-70.123c0,0 70.123,-23.36 93.482,0c0,0 -24.059,-24.559 -70.123,-23.36c0,0 23.389,-23.374 70.123,-23.374c0,0 -75.505,-21.575 -98.865,25.173c0,0 -19.791,-19.776 19.761,-59.328c0,0 -61.112,10.78 -61.112,57.528c0,0 -22.16,-0.556 -37.752,-17.976c-30.571,-34.154 -79.104,-52.13 -79.104,-52.13"/>
  <g id="svg_16"/>
  <g id="svg_17"/>
 </g>
</svg>