<svg viewBox="0 0 905 752" xmlns="http://www.w3.org/2000/svg">
  <g fill-rule="evenodd">
    <path d="m251.73 257.17c-48.039 49.726-77.742 117.27-78.232 191.76h-171.34c0.49-121.81 49.373-232.18 128.41-312.92l121.16 121.16" fill="#95C120"/>
    <path d="m768.73 130.89l-121.16 121.16c-49.5-48.667-117.09-78.977-191.77-79.928v-171.35c122 0.961 232.42 50.442 312.93 130.12" fill="#F7A53B"/>
    <path d="m448.58 0.771v171.35c-74.672 0.951-142.26 31.261-191.76 79.928l-121.16-121.16c80.507-79.674 190.93-129.16 312.93-130.12" fill="#ECE755"/>
    <path d="m902.23 448.92h-171.34c-0.491-74.486-30.193-142.03-78.233-191.76l121.16-121.16c79.037 80.743 127.92 191.11 128.41 312.92" fill="#EB2D10"/>
    <path d="m173.5 448.92h-86.44c0.491-98.344 39.862-187.51 103.55-252.88l61.121 61.121c-48.039 49.726-77.742 117.27-78.232 191.76" fill="#8DB71E"/>
    <path d="m256.82 252.05l-61.121-61.12c65.141-64.328 154.35-104.32 252.89-105.27v86.46c-74.672 0.951-142.26 31.261-191.76 79.928" fill="#DFDB51"/>
    <path d="m647.57 252.05c-49.5-48.667-117.09-78.977-191.77-79.928 74.673 0.951 142.27 31.261 191.77 79.928l61.121-61.12-61.121 61.12" fill="#F1F2F2"/>
    <path d="m647.57 252.05c-49.5-48.667-117.09-78.977-191.77-79.928v-86.46c98.541 0.951 187.75 40.94 252.89 105.27l-61.121 61.12" fill="#E99D38"/>
    <path d="m817.33 448.92h-86.439c-0.491-74.486-30.193-142.03-78.233-191.76l61.121-61.121c63.69 65.367 103.06 154.53 103.55 252.88" fill="#DE2B0F"/>
    <path d="m452.19 479.18c-15.673 0-28.387-12.714-28.387-28.387s12.714-28.372 28.387-28.372c15.672 0 28.387 12.699 28.387 28.372s-12.715 28.387-28.387 28.387zm47.595-48.591c-8.067-19.006-26.179-30.681-45.531-31.475l-148.11-292.38 107.44 309.66c-12.887 14.461-17.072 35.603-8.99 54.609 11.155 26.294 41.505 38.561 67.799 27.406 26.294-11.17 38.561-41.52 27.391-67.814z" fill="#58595B"/>
    <path d="m471.99 450.79c0 10.934-8.864 19.799-19.798 19.799-10.935 0-19.799-8.865-19.799-19.799s8.864-19.798 19.799-19.798c10.934 0 19.798 8.864 19.798 19.798" fill="#58595B"/>
    <path d="m199.14 652.42c0 54.99-44.578 99.569-99.569 99.569-54.99 0-99.568-44.579-99.568-99.569s44.578-99.568 99.568-99.568c54.991 0 99.569 44.578 99.569 99.568" fill="#95C120"/>
    <path d="m80.6 625.75c0 11.951-8.404 21.64-18.772 21.64s-18.773-9.689-18.773-21.64c0-11.952 8.405-21.641 18.773-21.641s18.772 9.689 18.772 21.641" fill="#FFF"/>
    <path d="m72.909 625.75c0 6.119-4.961 11.081-11.081 11.081s-11.081-4.962-11.081-11.081c0-6.12 4.961-11.081 11.081-11.081s11.081 4.961 11.081 11.081" fill="#414042"/>
    <path d="m156.08 625.75c0 11.951-8.404 21.64-18.772 21.64s-18.773-9.689-18.773-21.64c0-11.952 8.405-21.641 18.773-21.641s18.772 9.689 18.772 21.641" fill="#FFF"/>
    <path d="m148.39 625.75c0 6.119-4.961 11.081-11.081 11.081s-11.081-4.962-11.081-11.081c0-6.12 4.961-11.081 11.081-11.081s11.081 4.961 11.081 11.081" fill="#414042"/>
    <path d="m99.572 721.35c-28.237 0-51.552-16.511-55.271-37.944 12.519 10.796 32.614 17.804 55.271 17.804 22.635 0 42.729-7.008 55.271-17.804-3.719 21.433-27.034 37.944-55.271 37.944" fill="#628016"/>
    <path d="m99.572 752c-20.464 0-39.47-6.165-55.262-16.736 15.81 10.567 34.815 16.729 55.258 16.729 54.991 0 99.569-44.579 99.569-99.569 0-4.974-0.365-9.865-1.069-14.643 0.705 4.781 1.069 9.673 1.069 14.653 0 54.977-44.589 99.566-99.565 99.566" fill="#D1D3D4"/>
    <path d="m99.568 751.99c-20.443 0-39.448-6.162-55.258-16.729-1.045-0.7-2.077-1.419-3.094-2.157 14.742 7.712 31.503 12.089 49.284 12.089 58.741 0 106.37-47.628 106.37-106.37 0-3.197-0.136-6.373-0.43-9.503 0.662 2.777 1.206 5.597 1.629 8.458 0.704 4.778 1.069 9.669 1.069 14.643 0 54.99-44.578 99.569-99.569 99.569" fill="#7AA01B"/>
    <path d="m434.22 652.42c0 54.99-44.578 99.569-99.568 99.569s-99.569-44.579-99.569-99.569 44.579-99.568 99.569-99.568 99.568 44.578 99.568 99.568" fill="#ECE755"/>
    <path d="m315.68 625.75c0 11.951-8.405 21.64-18.773 21.64s-18.772-9.689-18.772-21.64c0-11.952 8.404-21.641 18.772-21.641s18.773 9.689 18.773 21.641" fill="#FFF"/>
    <path d="m307.99 625.75c0 6.119-4.961 11.081-11.081 11.081s-11.081-4.962-11.081-11.081c0-6.12 4.961-11.081 11.081-11.081s11.081 4.961 11.081 11.081" fill="#414042"/>
    <path d="m391.16 625.75c0 11.951-8.405 21.64-18.773 21.64-10.367 0-18.772-9.689-18.772-21.64 0-11.952 8.405-21.641 18.772-21.641 10.368 0 18.773 9.689 18.773 21.641" fill="#FFF"/>
    <path d="m383.47 625.75c0 6.119-4.961 11.081-11.081 11.081s-11.081-4.962-11.081-11.081c0-6.12 4.961-11.081 11.081-11.081s11.081 4.961 11.081 11.081" fill="#414042"/>
    <path d="m334.66 752c-20.464 0-39.471-6.166-55.263-16.737 15.81 10.567 34.816 16.73 55.26 16.73 54.99 0 99.568-44.579 99.568-99.569 0-4.974-0.365-9.865-1.069-14.643 0.706 4.781 1.07 9.673 1.07 14.653 0 54.977-44.589 99.566-99.566 99.566" fill="#D1D3D4"/>
    <path d="m334.65 751.99c-20.444 0-39.45-6.163-55.26-16.73-1.045-0.699-2.076-1.418-3.092-2.156 14.742 7.712 31.502 12.089 49.283 12.089 58.742 0 106.37-47.628 106.37-106.37 0-3.197-0.136-6.373-0.431-9.503 0.662 2.777 1.207 5.597 1.629 8.458 0.704 4.778 1.069 9.669 1.069 14.643 0 54.99-44.578 99.569-99.568 99.569" fill="#C1BF47"/>
    <path d="m334.65 721.38c-18.915 0-36.016-7.598-48.467-19.913 14.606 1.088 31.071 3.47 48.467 3.47 17.418 0 33.861-2.382 48.467-3.47-12.451 12.315-29.552 19.913-48.467 19.913" fill="#9B9939"/>
    <path d="m669.3 652.42c0 54.99-44.579 99.569-99.569 99.569s-99.568-44.579-99.568-99.569 44.578-99.568 99.568-99.568 99.569 44.578 99.569 99.568" fill="#F7A53B"/>
    <path d="m550.77 625.75c0 11.951-8.405 21.64-18.772 21.64-10.368 0-18.773-9.689-18.773-21.64 0-11.952 8.405-21.641 18.773-21.641 10.367 0 18.772 9.689 18.772 21.641" fill="#FFF"/>
    <path d="m543.08 625.75c0 6.119-4.961 11.081-11.081 11.081s-11.081-4.962-11.081-11.081c0-6.12 4.961-11.081 11.081-11.081s11.081 4.961 11.081 11.081" fill="#414042"/>
    <path d="m626.25 625.75c0 11.951-8.404 21.64-18.772 21.64s-18.773-9.689-18.773-21.64c0-11.952 8.405-21.641 18.773-21.641s18.772 9.689 18.772 21.641" fill="#FFF"/>
    <path d="m618.56 625.75c0 6.119-4.961 11.081-11.081 11.081s-11.081-4.962-11.081-11.081c0-6.12 4.961-11.081 11.081-11.081s11.081 4.961 11.081 11.081" fill="#414042"/>
    <path d="m569.74 752c-20.464 0-39.472-6.166-55.264-16.737 15.81 10.567 34.817 16.73 55.26 16.73 54.99 0 99.569-44.579 99.569-99.569 0-4.883-0.352-9.687-1.032-14.382 0.681 4.698 1.032 9.502 1.032 14.392 0 54.977-44.589 99.566-99.565 99.566" fill="#D1D3D4"/>
    <path d="m569.74 751.99c-20.443 0-39.45-6.163-55.26-16.73-1.045-0.699-2.075-1.418-3.092-2.156 14.742 7.712 31.503 12.089 49.284 12.089 58.741 0 106.37-47.628 106.37-106.37 0-3.197-0.136-6.373-0.431-9.503 0.682 2.861 1.24 5.769 1.667 8.719 0.68 4.695 1.032 9.499 1.032 14.382 0 54.99-44.579 99.569-99.569 99.569" fill="#CA8931"/>
    <path d="m618.2 714.58c-14.606-1.089-31.071-3.47-48.467-3.47-17.418 0-33.861 2.381-48.467 3.47 12.451-12.316 29.552-19.913 48.467-19.913s36.016 7.597 48.467 19.913" fill="#A26D28"/>
    <path d="m904.39 652.42c0 54.99-44.578 99.569-99.568 99.569-54.991 0-99.569-44.579-99.569-99.569s44.578-99.568 99.569-99.568c54.99 0 99.568 44.578 99.568 99.568" fill="#EB2D10"/>
    <path d="m785.85 625.75c0 11.951-8.405 21.64-18.773 21.64s-18.773-9.689-18.773-21.64c0-11.952 8.405-21.641 18.773-21.641s18.773 9.689 18.773 21.641" fill="#FFF"/>
    <path d="m778.16 625.75c0 6.119-4.961 11.081-11.081 11.081s-11.081-4.962-11.081-11.081c0-6.12 4.961-11.081 11.081-11.081s11.081 4.961 11.081 11.081" fill="#414042"/>
    <path d="m861.33 625.75c0 11.951-8.405 21.64-18.773 21.64s-18.772-9.689-18.772-21.64c0-11.952 8.404-21.641 18.772-21.641s18.773 9.689 18.773 21.641" fill="#FFF"/>
    <path d="m853.64 625.75c0 6.119-4.961 11.081-11.081 11.081s-11.081-4.962-11.081-11.081c0-6.12 4.961-11.081 11.081-11.081s11.081 4.961 11.081 11.081" fill="#414042"/>
    <path d="m804.82 752c-20.514 0-39.565-6.196-55.381-16.815 15.833 10.614 34.884 16.808 55.378 16.808 54.99 0 99.568-44.579 99.568-99.569 0-4.856-0.347-9.63-1.019-14.3 0.673 4.672 1.019 9.449 1.019 14.31 0 54.977-44.588 99.566-99.565 99.566" fill="#D1D3D4"/>
    <path d="m804.82 751.99c-20.494 0-39.545-6.194-55.378-16.808-1.005-0.675-1.996-1.368-2.975-2.078 14.742 7.712 31.503 12.089 49.284 12.089 58.741 0 106.37-47.628 106.37-106.37 0-3.197-0.136-6.373-0.431-9.503 0.688 2.888 1.25 5.823 1.679 8.801 0.672 4.67 1.019 9.444 1.019 14.3 0 54.99-44.578 99.569-99.568 99.569" fill="#C1250D"/>
    <path d="m852.53 718.35c-10.807-9.319-28.153-18.091-47.711-18.091-19.539 0-36.885 8.772-47.712 18.091 3.211-18.501 23.337-32.754 47.712-32.754 24.374 0 44.5 14.253 47.711 32.754" fill="#9A1E0B"/>
  </g>
</svg>