<svg xmlns="http://www.w3.org/2000/svg" viewBox="0 -4246.5 841.9 841.90004" width="841.9" height="841.9"><defs><linearGradient id="h" gradientUnits="userSpaceOnUse" y1="-3825.19" x2="0" y2="-4226.6" gradientTransform="matrix(1.44763 0 0 1.44763 -201.22 1996.61)"><stop stop-color="#e39600"/><stop offset="1" stop-color="#ffda0b"/></linearGradient><linearGradient id="l" gradientUnits="userSpaceOnUse" y1="-3835.44" x2="0" y2="-4216.35" gradientTransform="matrix(1.44763 0 0 1.44763 -201.206 1996.63)"><stop stop-color="#e69e00"/><stop offset="1" stop-color="#fff200"/></linearGradient><linearGradient id="i" gradientUnits="userSpaceOnUse" y1="-3827.75" x2="0" y2="-4224.03" gradientTransform="matrix(1.44763 0 0 1.44763 -201.214 1996.617)"><stop stop-color="#e49800"/><stop offset="1" stop-color="#ffe008"/></linearGradient><linearGradient id="k" gradientUnits="userSpaceOnUse" y1="-3832.87" x2="0" y2="-4218.91" gradientTransform="matrix(1.44763 0 0 1.44763 -201.226 1996.608)"><stop stop-color="#e59c00"/><stop offset="1" stop-color="#ffec03"/></linearGradient><linearGradient id="j" gradientUnits="userSpaceOnUse" y1="-3830.31" x2="0" y2="-4221.47" gradientTransform="matrix(1.44763 0 0 1.44763 -201.213 1996.607)"><stop stop-color="#e59a00"/><stop offset="1" stop-color="#ffe606"/></linearGradient><linearGradient id="g" gradientUnits="userSpaceOnUse" y1="-3822.62" x2="0" y2="-4229.16" gradientTransform="matrix(1.44763 0 0 1.44763 -201.206 1996.624)"><stop stop-color="#e39400"/><stop offset="1" stop-color="#ffd40e"/></linearGradient><linearGradient id="a" gradientUnits="userSpaceOnUse" y1="-3807.25" x2="0" y2="-4244.53" gradientTransform="matrix(1.44763 0 0 1.44763 -201.217 1996.633)"><stop stop-color="#df8800"/><stop offset="1" stop-color="#ffb11f"/></linearGradient><linearGradient id="f" gradientUnits="userSpaceOnUse" y1="-3820.06" x2="0" y2="-4231.72" gradientTransform="matrix(1.44763 0 0 1.44763 -201.198 1996.614)"><stop stop-color="#e29200"/><stop offset="1" stop-color="#ffcf11"/></linearGradient><linearGradient id="b" gradientUnits="userSpaceOnUse" y1="-3809.81" x2="0" y2="-4241.97" gradientTransform="matrix(1.44763 0 0 1.44763 -201.214 1996.61)"><stop stop-color="#e08a00"/><stop offset="1" stop-color="#ffb71c"/></linearGradient><linearGradient id="d" gradientUnits="userSpaceOnUse" y1="-3814.93" x2="0" y2="-4236.84" gradientTransform="matrix(1.44763 0 0 1.44763 -201.206 1996.633)"><stop stop-color="#e18e00"/><stop offset="1" stop-color="#ffc317"/></linearGradient><linearGradient id="e" gradientUnits="userSpaceOnUse" y1="-3817.5" x2="0" y2="-4234.28" gradientTransform="matrix(1.44763 0 0 1.44763 -201.198 1996.61)"><stop stop-color="#e29000"/><stop offset="1" stop-color="#ffc914"/></linearGradient><linearGradient id="c" gradientUnits="userSpaceOnUse" y1="-3812.37" x2="0" y2="-4239.4" gradientTransform="matrix(1.44763 0 0 1.44763 -201.217 1996.611)"><stop stop-color="#e08c00"/><stop offset="1" stop-color="#ffbd19"/></linearGradient></defs><path d="M387.668-4092.646c25.478 33.585 67.025 33.585 92.358 0 25.479-33.44 50.667-26.781 55.879 14.91 5.356 41.692 41.257 62.538 80.054 46.18 38.796-16.359 57.18 2.171 40.823 40.822-16.214 38.797 4.487 74.843 46.179 80.054 41.692 5.212 48.495 30.4 14.91 55.879-33.584 25.333-33.584 67.025 0 92.358 33.44 25.479 26.782 50.522-14.91 55.879-41.692 5.211-62.537 41.257-46.18 80.053 16.359 38.797-2.026 57.182-40.822 40.823-38.797-16.213-74.698 4.488-80.054 46.18-5.212 41.836-30.4 48.35-55.879 15.055-25.333-33.585-67.025-33.585-92.358 0-25.478 33.44-50.522 26.781-55.879-15.055-5.211-41.692-41.257-62.538-80.053-46.18-38.797 16.359-57.182-2.026-40.823-40.823 16.358-38.796-4.488-74.697-46.18-80.053-41.691-5.357-48.495-30.4-14.91-55.879 33.585-25.478 33.585-67.025 0-92.358-33.44-25.479-26.781-50.522 14.91-55.879 41.692-5.211 62.538-41.257 46.18-80.054-16.214-38.796 2.171-57.18 40.823-40.822 38.796 16.358 74.842-4.488 80.053-46.18 5.357-41.547 30.4-48.35 55.879-14.91" fill="#9cb1bf"/><path d="M371.319-4125.815c26.347 34.743 69.486 34.743 95.833 0 26.347-34.743 52.404-27.795 57.905 15.49 5.501 43.283 42.705 64.853 82.949 47.916 40.244-16.937 59.208 2.171 42.415 42.27-16.937 40.245 4.633 77.449 47.917 82.95 43.284 5.5 50.088 31.558 15.49 57.76-34.744 26.347-34.744 69.486 0 95.833 34.598 26.347 27.65 52.404-15.49 57.76-43.284 5.501-64.854 42.85-47.917 82.95 16.938 40.243-2.171 59.207-42.415 42.27-40.1-16.793-77.448 4.777-82.949 47.916-5.501 43.14-31.414 50.233-57.905 15.49-26.347-34.743-69.486-34.743-95.833 0-26.347 34.743-52.404 27.65-57.905-15.49-5.501-43.284-42.85-64.853-82.95-47.916-40.098 16.937-59.207-2.172-42.27-42.27 16.937-40.1-4.632-77.449-47.916-82.95-43.14-5.356-50.233-31.413-15.49-57.76 34.743-26.347 34.743-69.486 0-95.833-34.743-26.347-27.794-52.404 15.49-57.76 43.284-5.501 64.853-42.705 47.916-82.95-16.937-40.099 2.172-59.207 42.27-42.27 40.245 16.937 77.449-4.633 82.95-47.917 5.5-43.139 31.558-50.088 57.905-15.49" fill="url(#a)"/><path d="M371.902-4122.363c26.057 34.309 68.617 34.309 94.675 0 26.057-34.308 51.825-27.36 57.18 15.345 5.357 42.705 42.272 63.985 81.937 47.338 39.81-16.648 58.628 2.171 41.836 41.836-16.648 39.665 4.632 76.58 47.337 81.936 42.705 5.356 49.51 31.124 15.345 57.18-34.308 26.058-34.308 68.618 0 94.676 34.309 26.057 27.36 51.825-15.345 57.18-42.705 5.357-63.985 42.272-47.337 82.081 16.648 39.665-2.171 58.485-41.836 41.837-39.665-16.648-76.58 4.632-81.936 47.337-5.356 42.705-31.124 49.654-57.181 15.345-26.058-34.309-68.618-34.309-94.675 0-26.057 34.309-51.825 27.36-57.181-15.345-5.357-42.705-42.271-63.985-81.936-47.337-39.665 16.648-58.484-2.172-41.836-41.837 16.647-39.665-4.633-76.58-47.338-82.08-42.705-5.356-49.653-31.124-15.345-57.181 34.31-26.058 34.31-68.618 0-94.675-34.308-26.057-27.36-51.68 15.345-57.181 42.705-5.357 63.985-42.271 47.338-81.936-16.648-39.665 2.171-58.484 41.836-41.836 39.665 16.647 76.58-4.633 81.936-47.338 5.356-42.705 31.124-49.653 57.18-15.345" fill="url(#b)"/><path d="M372.478-4118.888c25.767 33.875 67.893 33.875 93.516 0 25.768-33.874 51.102-27.07 56.458 15.056 5.356 42.27 41.836 63.26 80.922 46.758 39.23-16.503 57.905 2.171 41.402 41.402-16.503 39.23 4.633 75.71 46.759 81.067 42.27 5.356 48.93 30.69 15.2 56.458-33.875 25.767-33.875 67.748 0 93.516 33.874 25.768 27.07 51.246-15.2 56.458-42.271 5.356-63.262 41.836-46.759 81.067 16.503 39.23-2.171 57.905-41.402 41.402-39.23-16.503-75.566 4.632-80.922 46.758-5.356 42.126-30.69 48.93-56.458 15.2-25.767-33.874-67.749-33.874-93.516 0-25.768 33.875-51.102 27.07-56.458-15.2-5.356-42.27-41.836-63.261-81.067-46.758-39.23 16.503-57.76-2.027-41.257-41.402 16.503-39.231-4.633-75.711-46.759-81.067-42.126-5.212-49.074-30.69-15.055-56.458 33.875-25.768 33.875-67.894 0-93.516-33.874-25.768-27.07-51.102 15.055-56.458 42.271-5.356 63.262-41.836 46.759-81.067-16.503-39.23 2.171-57.76 41.257-41.402 39.23 16.503 75.711-4.633 81.067-46.758 5.212-42.126 30.69-48.93 56.458-15.056" fill="url(#c)"/><path d="M372.922-4115.392c25.479 33.44 67.025 33.44 92.359 0 25.478-33.44 50.522-26.78 55.878 14.91 5.212 41.693 41.258 62.538 80.054 46.18 38.796-16.358 57.181 2.172 40.823 40.823-16.358 38.797 4.488 74.843 46.18 80.054 41.691 5.356 48.35 30.4 15.055 55.734-33.585 25.333-33.585 67.025 0 92.358 33.44 25.479 26.78 50.522-15.056 55.734-41.691 5.211-62.537 41.402-46.179 80.054 16.358 38.796-2.027 57.181-40.823 40.823-38.652-16.214-74.697 4.487-80.054 46.18-5.211 41.69-30.4 48.35-55.878 14.91-25.334-33.44-67.025-33.44-92.359 0-25.478 33.44-50.522 26.78-55.733-14.91-5.212-41.693-41.258-62.538-80.054-46.18-38.652 16.358-57.181-2.027-40.823-40.823 16.213-38.797-4.488-74.843-46.324-80.054-41.692-5.212-48.35-30.255-14.91-55.734 33.44-25.478 33.44-67.025 0-92.358-33.44-25.479-26.782-50.523 14.91-55.734 41.691-5.211 62.537-41.257 46.324-80.054-16.358-38.796 2.171-57.181 40.823-40.823 38.796 16.214 74.842-4.487 80.054-46.18 5.211-41.69 30.4-48.495 55.733-14.91" fill="url(#d)"/><path d="M373.51-4111.942c25.044 33.151 66.157 33.151 91.345 0 25.19-33.005 49.944-26.346 55.155 14.766 5.211 41.258 40.823 61.814 79.04 45.6 38.363-16.068 56.458 2.027 40.39 40.39-16.07 38.361 4.487 73.828 45.6 79.04 41.257 5.211 47.771 29.966 14.765 55.154-33.15 25.044-33.15 66.157 0 91.346 33.006 25.188 26.492 49.943-14.766 55.154-41.257 5.212-61.668 40.823-45.6 79.04 16.069 38.363-2.026 56.458-40.389 40.39-38.217-16.07-73.829 4.487-79.04 45.744-5.211 41.113-29.966 47.772-55.155 14.766-25.043-33.006-66.156-33.006-91.345 0-25.044 33.006-49.943 26.347-55.154-14.766-5.212-41.257-40.823-61.813-79.04-45.745-38.218 16.069-56.458-2.026-40.39-40.388 16.07-38.218-4.487-73.83-45.745-79.04-41.112-5.212-47.771-29.967-14.765-55.155 33.006-25.044 33.006-66.157 0-91.346-33.151-25.188-26.492-49.943 14.765-55.154 41.258-5.212 61.814-40.823 45.745-79.04-16.068-38.218 2.027-56.458 40.39-40.39 38.217 16.07 73.828-4.487 79.04-45.6 5.356-41.257 30.11-47.916 55.154-14.766" fill="url(#e)"/><path d="M374.09-4108.608c24.754 32.717 65.432 32.717 90.186 0 24.9-32.716 49.364-26.057 54.431 14.622 5.067 40.678 40.244 60.945 78.027 45.165 37.928-15.923 55.734 2.027 39.955 39.81-15.924 37.783 4.343 72.96 45.02 78.172 40.68 5.212 47.194 29.676 14.622 54.43-32.716 24.755-32.716 65.289 0 90.188 32.572 24.9 26.057 49.364-14.621 54.43-40.678 5.212-60.945 40.39-45.021 78.173s-2.027 55.733-39.955 39.81c-37.783-15.925-72.96 4.487-78.027 45.165-5.211 40.679-29.676 47.193-54.43 14.621-24.755-32.716-65.433-32.716-90.188 0-24.754 32.572-49.364 26.058-54.43-14.62-5.067-40.679-40.245-60.946-78.172-45.167-37.783 15.924-55.734-2.026-39.81-39.81 15.924-37.783-4.343-72.96-45.166-78.171-40.678-5.067-47.193-29.532-14.621-54.431 32.716-24.754 32.716-65.433 0-90.187-32.716-24.755-26.057-49.364 14.621-54.43 40.678-5.068 60.945-40.245 45.166-78.173-15.924-37.783 2.027-55.733 39.81-39.81 37.783 15.924 72.96-4.342 78.171-45.165 5.212-40.679 29.677-47.193 54.431-14.622" fill="url(#f)"/><path d="M374.66-4105.123c24.464 32.282 64.564 32.282 89.029 0 24.61-32.282 48.64-25.768 53.851 14.332 5.067 40.244 39.81 60.221 77.014 44.587 37.349-15.635 55.155 2.026 39.375 39.375-15.634 37.349 4.343 72.092 44.443 77.159 40.244 5.066 46.613 29.242 14.476 53.707-32.282 24.464-32.282 64.564 0 89.029 32.282 24.61 25.768 48.785-14.476 53.707-40.244 5.066-60.222 39.81-44.443 77.158 15.635 37.349-2.026 55.01-39.375 39.376-37.349-15.635-71.947 4.342-77.014 44.586-5.066 40.1-29.242 46.614-53.851 14.332-24.465-32.282-64.565-32.282-89.03 0-24.464 32.282-48.64 25.768-53.706-14.332-5.067-40.244-39.81-60.22-77.159-44.586-37.349 15.634-55.01-2.027-39.375-39.376 15.634-37.349-4.343-72.092-44.587-77.158-40.1-5.067-46.614-29.242-14.332-53.707s32.282-64.565 0-89.03c-32.282-24.464-25.768-48.64 14.332-53.706 40.244-5.067 60.22-39.81 44.587-77.159-15.635-37.349 2.026-55.01 39.375-39.375 37.349 15.634 72.092-4.343 77.159-44.587 5.066-40.1 29.242-46.614 53.706-14.332" fill="url(#g)"/><path d="M375.225-4101.662c24.176 31.848 63.84 31.848 87.871 0 24.32-31.847 48.062-25.478 53.128 14.187 5.067 39.665 39.23 59.498 76.145 44.008 36.915-15.49 54.431 2.027 38.942 38.941-15.49 36.915 4.342 71.223 44.007 76.145 39.665 5.067 46.035 28.953 14.332 53.128-31.848 24.176-31.848 63.696 0 87.871 31.848 24.32 25.478 48.206-14.332 53.128-39.665 5.067-59.497 39.376-44.007 76.145 15.49 36.915-2.027 54.431-38.942 38.941-36.914-15.49-71.078 4.343-76.145 44.008-5.066 39.665-28.808 46.035-53.128 14.187-24.175-31.848-63.695-31.848-87.87 0-24.176 31.848-48.062 25.478-53.129-14.187-5.066-39.665-39.23-59.497-76.145-44.008-36.914 15.49-54.286-2.026-38.796-38.94 15.49-36.77-4.343-71.224-44.008-76.146-39.665-4.922-46.034-28.808-14.187-53.128 31.848-24.175 31.848-63.695 0-87.87-31.847-24.176-25.478-48.062 14.187-53.129 39.665-4.922 59.498-39.23 44.008-76.145-15.49-36.914 2.027-54.43 38.796-38.941 36.915 15.49 71.224-4.343 76.145-44.008 5.067-39.665 28.953-46.034 53.128-14.187" fill="url(#h)"/><path d="M375.81-4098.18c23.886 31.413 62.972 31.413 86.858 0 23.886-31.414 47.482-25.045 52.404 14.041 4.922 39.23 38.797 58.63 75.132 43.429 36.48-15.345 53.707 2.027 38.362 38.362-15.345 36.336 4.198 70.21 43.429 75.132 39.23 4.922 45.455 28.518 14.042 52.404-31.558 23.886-31.558 62.972 0 86.713 31.413 23.886 25.189 47.482-14.042 52.404-39.086 4.922-58.629 38.796-43.429 75.277 15.345 36.335-2.027 53.707-38.362 38.362-36.335-15.345-70.21 4.198-75.132 43.429-4.922 39.086-28.518 45.455-52.404 14.041-23.886-31.413-62.972-31.413-86.858 0-23.885 31.414-47.482 25.19-52.404-14.041-4.922-39.231-38.796-58.774-75.131-43.43-36.336 15.346-53.707-2.026-38.363-38.361 15.345-36.336-4.198-70.21-43.428-75.277-39.086-4.922-45.456-28.518-14.042-52.404 31.413-23.886 31.413-62.972 0-86.713-31.414-23.886-25.189-47.482 14.042-52.404 39.23-4.922 58.773-38.796 43.428-75.132-15.344-36.335 2.027-53.707 38.363-38.362 36.335 15.345 70.21-4.198 75.131-43.429 4.922-39.23 28.519-45.455 52.404-14.042" fill="url(#i)"/><path d="M376.39-4094.717c23.597 30.98 62.103 30.98 85.7 0 23.596-31.124 46.903-24.754 51.825 13.897 4.922 38.652 38.217 57.905 74.118 42.85 35.901-15.055 52.983 2.027 37.928 37.928-15.055 35.901 4.198 69.341 42.85 74.263 38.796 4.922 44.876 28.229 13.897 51.68-31.124 23.597-31.124 62.104 0 85.7 30.98 23.596 24.9 46.903-13.897 51.68-38.652 4.922-57.905 38.362-42.85 74.264 15.055 35.9-2.027 52.983-37.928 37.927-35.9-15.055-69.341 4.198-74.118 42.85-4.922 38.652-28.084 44.876-51.825 13.897-23.452-30.979-62.103-30.979-85.7 0-23.596 30.98-46.903 24.755-51.68-13.897-4.922-38.652-38.362-57.905-74.263-42.85-35.901 15.056-52.983-1.882-37.928-37.928 15.055-35.9-4.198-69.34-42.85-74.263-38.652-4.777-44.876-28.084-13.897-51.68 30.98-23.596 30.98-62.103 0-85.7-31.124-23.596-24.755-46.903 13.897-51.68 38.652-4.922 58.05-38.217 42.85-74.263-15.055-35.901 2.027-52.983 37.928-37.928 35.9 15.055 69.341-4.198 74.263-42.85 4.777-38.651 28.084-45.02 51.68-13.897" fill="url(#j)"/><path d="M376.956-4091.241c23.307 30.69 61.38 30.69 84.541 0 23.307-30.69 46.324-24.465 51.102 13.752 4.777 38.073 37.783 57.181 73.25 42.27 35.466-14.91 52.404 1.883 37.493 37.35-14.91 35.466 4.053 68.472 42.27 73.25 38.218 4.777 44.298 27.794 13.753 51.1-30.69 23.163-30.69 61.235 0 84.542 30.69 23.307 24.465 46.324-13.752 51.101-38.073 4.777-57.182 37.928-42.271 73.25 14.91 35.467-1.882 52.26-37.494 37.35-35.466-14.912-68.327 4.052-73.25 42.27-4.777 38.217-27.794 44.297-51.1 13.607-23.163-30.545-61.235-30.545-84.542 0-23.307 30.545-46.18 24.465-51.101-13.607-4.777-38.218-37.783-57.182-73.25-42.27-35.467 14.91-52.26-1.883-37.349-37.35 14.91-35.467-4.198-68.473-42.27-73.25-38.073-4.777-44.298-27.65-13.608-51.1 30.69-23.163 30.69-61.236 0-84.542-30.69-23.307-24.465-46.324 13.607-51.102 38.218-4.777 57.182-37.783 42.271-73.25-14.91-35.466 1.882-52.259 37.349-37.348 35.467 14.91 68.473-4.054 73.25-42.27 4.777-38.218 27.794-44.443 51.1-13.753" fill="url(#k)"/><path d="M377.41-4087.89c23.017 30.256 60.51 30.256 83.383 0 23.018-30.255 45.6-24.175 50.378 13.463 4.777 37.639 37.204 56.458 72.236 41.692 35.033-14.62 51.68 1.882 36.915 36.915-14.621 35.032 4.053 67.459 41.691 72.236 37.783 4.777 43.719 27.36 13.608 50.378-30.255 22.872-30.255 60.51 0 83.383 30.255 23.017 24.175 45.745-13.608 50.377-37.638 4.778-56.312 37.35-41.691 72.237 14.766 35.033-1.882 51.535-36.915 36.914-35.032-14.765-67.46 4.054-72.236 41.692-4.777 37.638-27.36 43.718-50.378 13.463-22.872-30.255-60.51-30.255-83.383 0-22.873 30.255-45.6 24.175-50.377-13.463-4.778-37.638-37.35-56.457-72.237-41.692-35.033 14.621-51.536-1.881-36.915-36.914 14.766-34.888-4.053-67.46-41.691-72.237-37.638-4.632-43.718-27.36-13.463-50.377 30.255-22.873 30.255-60.51 0-83.383-30.255-23.018-24.175-45.6 13.463-50.378 37.638-4.777 56.457-37.349 41.691-72.236-14.62-35.033 1.882-51.68 36.915-36.915 35.033 14.766 67.46-4.053 72.237-41.692 4.777-37.493 27.504-43.718 50.377-13.462" fill="url(#l)"/></svg>