<svg xmlns="http://www.w3.org/2000/svg" viewBox="1095.9 -4246.5 841.9 841.90004" width="841.9" height="841.9"><defs><linearGradient id="l" gradientUnits="userSpaceOnUse" y1="-3835.44" x2="0" y2="-4216.35" gradientTransform="matrix(1.2472 0 0 1.2472 -387.365 1190.55)"><stop stop-color="#e69e00"/><stop offset="1" stop-color="#fff200"/></linearGradient><linearGradient id="e" gradientUnits="userSpaceOnUse" y1="-3817.5" x2="0" y2="-4234.28" gradientTransform="matrix(1.2472 0 0 1.2472 -387.358 1190.531)"><stop stop-color="#e29000"/><stop offset="1" stop-color="#ffc914"/></linearGradient><linearGradient id="c" gradientUnits="userSpaceOnUse" y1="-3812.37" x2="0" y2="-4239.4" gradientTransform="matrix(1.2472 0 0 1.2472 -387.363 1190.533)"><stop stop-color="#e08c00"/><stop offset="1" stop-color="#ffbd19"/></linearGradient><linearGradient id="d" gradientUnits="userSpaceOnUse" y1="-3814.93" x2="0" y2="-4236.84" gradientTransform="matrix(1.2472 0 0 1.2472 -387.365 1190.552)"><stop stop-color="#e18e00"/><stop offset="1" stop-color="#ffc317"/></linearGradient><linearGradient id="f" gradientUnits="userSpaceOnUse" y1="-3820.06" x2="0" y2="-4231.72" gradientTransform="matrix(1.2472 0 0 1.2472 -387.358 1190.535)"><stop stop-color="#e29200"/><stop offset="1" stop-color="#ffcf11"/></linearGradient><linearGradient id="k" gradientUnits="userSpaceOnUse" y1="-3832.87" x2="0" y2="-4218.91" gradientTransform="matrix(1.2472 0 0 1.2472 -387.37 1190.53)"><stop stop-color="#e59c00"/><stop offset="1" stop-color="#ffec03"/></linearGradient><linearGradient id="g" gradientUnits="userSpaceOnUse" y1="-3822.62" x2="0" y2="-4229.16" gradientTransform="matrix(1.2472 0 0 1.2472 -387.365 1190.544)"><stop stop-color="#e39400"/><stop offset="1" stop-color="#ffd40e"/></linearGradient><linearGradient id="j" gradientUnits="userSpaceOnUse" y1="-3830.31" x2="0" y2="-4221.47" gradientTransform="matrix(1.2472 0 0 1.2472 -387.37 1190.53)"><stop stop-color="#e59a00"/><stop offset="1" stop-color="#ffe606"/></linearGradient><linearGradient id="h" gradientUnits="userSpaceOnUse" y1="-3825.19" x2="0" y2="-4226.6" gradientTransform="matrix(1.2472 0 0 1.2472 -387.377 1190.533)"><stop stop-color="#e39600"/><stop offset="1" stop-color="#ffda0b"/></linearGradient><linearGradient id="i" gradientUnits="userSpaceOnUse" y1="-3827.75" x2="0" y2="-4224.03" gradientTransform="matrix(1.2472 0 0 1.2472 -387.371 1190.539)"><stop stop-color="#e49800"/><stop offset="1" stop-color="#ffe008"/></linearGradient><linearGradient id="b" gradientUnits="userSpaceOnUse" y1="-3809.81" x2="0" y2="-4241.97" gradientTransform="matrix(1.2472 0 0 1.2472 -387.371 1190.533)"><stop stop-color="#e08a00"/><stop offset="1" stop-color="#ffb71c"/></linearGradient><linearGradient id="p" gradientUnits="userSpaceOnUse" y1="-3865.86" x2="0" y2="-4031.64" gradientTransform="matrix(1.2472 0 0 1.2472 -409.734 1182.916)"><stop stop-color="#9bbccf"/><stop offset="1" stop-color="#d7e6f0"/></linearGradient><linearGradient id="a" gradientUnits="userSpaceOnUse" y1="-3807.25" x2="0" y2="-4244.53" gradientTransform="matrix(1.2472 0 0 1.2472 -387.375 1190.552)"><stop stop-color="#df8800"/><stop offset="1" stop-color="#ffb11f"/></linearGradient><linearGradient id="o" gradientUnits="userSpaceOnUse" y1="-3864.86" x2="0" y2="-4032.53" gradientTransform="matrix(1.2472 0 0 1.2472 -409.745 1182.93)"><stop stop-color="#99bbce"/><stop offset="1" stop-color="#d3e4ed"/></linearGradient><linearGradient id="m" gradientUnits="userSpaceOnUse" y1="-3862.88" x2="0" y2="-4034.46" gradientTransform="matrix(1.2472 0 0 1.2472 -409.64 1182.942)"><stop stop-color="#95b9cc"/><stop offset="1" stop-color="#cddee8"/></linearGradient><linearGradient id="n" gradientUnits="userSpaceOnUse" y1="-3863.87" x2="0" y2="-4033.47" gradientTransform="matrix(1.2472 0 0 1.2472 -409.74 1182.932)"><stop stop-color="#97bacd"/><stop offset="1" stop-color="#d0e1eb"/></linearGradient><linearGradient id="q" gradientUnits="userSpaceOnUse" y1="-3866.85" x2="0" y2="-4030.8" gradientTransform="matrix(1.2472 0 0 1.2472 -409.743 1182.906)"><stop stop-color="#9dbdd0"/><stop offset="1" stop-color="#dae9f2"/></linearGradient><linearGradient id="v" gradientUnits="userSpaceOnUse" y1="-3871.82" x2="0" y2="-4027.42" gradientTransform="matrix(1.2472 0 0 1.2472 -409.657 1182.936)"><stop stop-color="#a7c2d4"/><stop offset="1" stop-color="#eaf7ff"/></linearGradient><linearGradient id="r" gradientUnits="userSpaceOnUse" y1="-3867.84" x2="0" y2="-4030.02" gradientTransform="matrix(1.2472 0 0 1.2472 -409.746 1182.912)"><stop stop-color="#9fbed0"/><stop offset="1" stop-color="#ddecf5"/></linearGradient><linearGradient id="u" gradientUnits="userSpaceOnUse" y1="-3870.82" x2="0" y2="-4027.99" gradientTransform="matrix(1.2472 0 0 1.2472 -409.668 1182.921)"><stop stop-color="#a5c1d3"/><stop offset="1" stop-color="#e7f4fc"/></linearGradient><linearGradient id="s" gradientUnits="userSpaceOnUse" y1="-3868.84" x2="0" y2="-4029.29" gradientTransform="matrix(1.2472 0 0 1.2472 -409.73 1182.903)"><stop stop-color="#a1bfd1"/><stop offset="1" stop-color="#e0eff7"/></linearGradient><linearGradient id="t" gradientUnits="userSpaceOnUse" y1="-3869.83" x2="0" y2="-4028.61" gradientTransform="matrix(1.2472 0 0 1.2472 -409.7 1182.936)"><stop stop-color="#a3c0d2"/><stop offset="1" stop-color="#e4f1fa"/></linearGradient></defs><path d="M1378.033-4055.667c21.95 28.935 57.746 28.935 79.572 0 21.95-28.81 43.652-23.073 48.142 12.846 4.614 35.92 35.545 53.88 68.97 39.786 33.425-14.093 49.265 1.87 35.171 35.171-13.968 33.425 3.866 64.48 39.786 68.97 35.92 4.49 41.781 26.192 12.846 48.143-28.935 21.826-28.935 57.745 0 79.571 28.81 21.95 23.074 43.527-12.846 48.142-35.92 4.49-53.88 35.545-39.786 68.97 14.094 33.425-1.746 49.265-35.17 35.172-33.426-13.97-64.357 3.866-68.971 39.785-4.49 36.045-26.191 41.657-48.142 12.971-21.826-28.935-57.746-28.935-79.572 0-21.95 28.81-43.527 23.074-48.142-12.97-4.49-35.92-35.545-53.88-68.97-39.786-33.425 14.093-49.264-1.747-35.171-35.172 14.093-33.425-3.866-64.355-39.786-68.97-35.92-4.615-41.781-26.191-12.846-48.142 28.935-21.95 28.935-57.745 0-79.571-28.81-21.951-23.073-43.528 12.846-48.143 35.92-4.49 53.88-35.545 39.786-68.97-13.969-33.425 1.87-49.264 35.17-35.171 33.426 14.094 64.481-3.866 68.971-39.786 4.615-35.794 26.191-41.656 48.142-12.846" fill="#9cb1bf"/><path d="M1363.948-4084.244c22.699 29.933 59.866 29.933 82.565 0 22.699-29.932 45.149-23.946 49.888 13.346 4.74 37.29 36.792 55.874 71.464 41.282 34.673-14.592 51.011 1.87 36.543 36.418-14.592 34.672 3.991 66.726 41.283 71.465 37.291 4.74 43.153 27.189 13.345 49.763-29.933 22.7-29.933 59.866 0 82.565 29.808 22.7 23.822 45.149-13.345 49.764-37.292 4.739-55.875 36.917-41.283 71.464 14.593 34.672-1.87 51.01-36.543 36.419-34.547-14.468-66.725 4.115-71.464 41.282-4.74 37.167-27.065 43.278-49.888 13.345-22.7-29.933-59.866-29.933-82.565 0-22.7 29.933-45.149 23.822-49.888-13.345-4.74-37.291-36.917-55.875-71.465-41.282-34.548 14.592-51.01-1.871-36.418-36.419 14.592-34.547-3.991-66.725-41.283-71.464-37.166-4.615-43.278-27.065-13.345-49.764s29.933-59.866 0-82.565c-29.933-22.699-23.946-45.148 13.345-49.763 37.292-4.74 55.875-36.792 41.283-71.465-14.593-34.547 1.87-51.01 36.418-36.418 34.672 14.592 66.725-3.991 71.465-41.283 4.739-37.166 27.189-43.153 49.888-13.345" fill="url(#a)"/><path d="M1364.45-4081.27c22.45 29.56 59.117 29.56 81.567 0 22.45-29.558 44.65-23.571 49.265 13.221 4.614 36.793 36.418 55.127 70.591 40.784 34.298-14.343 50.512 1.87 36.044 36.044-14.342 34.173 3.992 65.977 40.784 70.592 36.792 4.614 42.654 26.815 13.22 49.264-29.558 22.45-29.558 59.118 0 81.567 29.559 22.45 23.572 44.65-13.22 49.265-36.792 4.614-55.126 36.418-40.784 70.716 14.343 34.174-1.87 50.387-36.044 36.044-34.173-14.342-65.977 3.991-70.591 40.784-4.615 36.792-26.815 42.779-49.265 13.22-22.45-29.558-59.117-29.558-81.567 0-22.45 29.559-44.65 23.572-49.264-13.22-4.615-36.793-36.419-55.126-70.592-40.784-34.174 14.343-50.387-1.87-36.044-36.044 14.342-34.173-3.991-65.977-40.784-70.716-36.792-4.615-42.779-26.815-13.22-49.265 29.559-22.45 29.559-59.117 0-81.567-29.559-22.45-23.572-44.525 13.22-49.264 36.793-4.615 55.126-36.419 40.784-70.592-14.343-34.173 1.87-50.387 36.044-36.044 34.173 14.343 65.977-3.991 70.592-40.784 4.614-36.792 26.814-42.779 49.264-13.22" fill="url(#b)"/><path d="M1364.833-4078.275c22.2 29.184 58.493 29.184 80.569 0 22.2-29.185 44.026-23.323 48.64 12.97 4.616 36.419 36.045 54.503 69.72 40.285 33.799-14.218 49.888 1.871 35.67 35.67-14.219 33.8 3.99 65.229 40.284 69.844 36.419 4.614 42.156 26.44 13.096 48.64-29.185 22.2-29.185 58.37 0 80.57 29.184 22.2 23.323 44.15-13.096 48.64-36.418 4.615-54.503 36.045-40.284 69.844 14.218 33.8-1.871 49.888-35.67 35.67-33.8-14.218-65.104 3.991-69.72 40.285-4.614 36.293-26.44 42.155-48.64 13.095-22.2-29.184-58.37-29.184-80.57 0-22.2 29.185-44.026 23.323-48.64-13.095-4.615-36.419-36.044-54.503-69.844-40.285-33.799 14.218-49.763-1.746-35.545-35.67 14.218-33.799-3.991-65.229-40.285-69.843-36.293-4.49-42.28-26.441-12.97-48.641 29.184-22.2 29.184-58.494 0-80.57-29.185-22.2-23.323-44.026 12.97-48.64 36.419-4.615 54.503-36.045 40.285-69.844-14.218-33.799 1.87-49.763 35.545-35.67 33.8 14.218 65.23-3.99 69.844-40.284 4.614-36.294 26.565-42.156 48.64-12.971" fill="url(#c)"/><path d="M1365.33-4075.263c21.95 28.81 57.745 28.81 79.57 0 21.952-28.81 43.528-23.073 48.143 12.846 4.49 35.92 35.545 53.88 68.97 39.786 33.425-14.094 49.264 1.87 35.171 35.171-14.093 33.425 3.866 64.48 39.786 68.97 35.92 4.615 41.657 26.192 12.97 48.018-28.934 21.826-28.934 57.745 0 79.571 28.811 21.95 23.074 43.528-12.97 48.018-35.92 4.49-53.88 35.67-39.786 68.97 14.093 33.425-1.746 49.264-35.171 35.17-33.3-13.968-64.356 3.867-68.97 39.787-4.49 35.92-26.191 41.656-48.142 12.846-21.826-28.81-57.746-28.81-79.572 0-21.95 28.81-43.527 23.073-48.017-12.846-4.49-35.92-35.545-53.88-68.97-39.786-33.3 14.093-49.265-1.746-35.172-35.171 13.97-33.425-3.866-64.48-39.91-68.97-35.92-4.49-41.657-26.067-12.846-48.018 28.81-21.95 28.81-57.745 0-79.571-28.81-21.951-23.074-43.528 12.846-48.018 35.92-4.49 53.88-35.545 39.91-68.97-14.093-33.425 1.871-49.264 35.171-35.171 33.426 13.969 64.48-3.866 68.97-39.786 4.49-35.92 26.192-41.781 48.018-12.846" fill="url(#d)"/><path d="M1365.836-4072.29c21.576 28.56 56.997 28.56 78.698 0 21.701-28.437 43.029-22.7 47.518 12.72 4.49 35.546 35.172 53.256 68.098 39.288 33.05-13.844 48.64 1.746 34.797 34.797-13.844 33.05 3.866 63.607 39.287 68.097 35.545 4.49 41.157 25.817 12.721 47.518-28.56 21.577-28.56 56.998 0 78.699 28.436 21.701 22.824 43.028-12.721 47.518-35.546 4.49-53.131 35.171-39.287 68.098 13.844 33.05-1.746 48.64-34.797 34.797-32.926-13.844-63.607 3.866-68.098 39.411-4.49 35.42-25.816 41.158-47.518 12.722-21.577-28.437-56.997-28.437-78.698 0-21.577 28.436-43.029 22.699-47.519-12.722-4.49-35.545-35.171-53.255-68.097-39.411-32.926 13.843-48.641-1.747-34.797-34.797 13.844-32.927-3.866-63.608-39.412-68.098-35.42-4.49-41.157-25.817-12.721-47.518 28.436-21.577 28.436-56.997 0-78.699-28.561-21.701-22.824-43.028 12.721-47.518 35.546-4.49 53.256-35.171 39.412-68.097-13.844-32.926 1.746-48.641 34.797-34.797 32.926 13.844 63.607-3.867 68.097-39.287 4.49-35.545 25.942-41.283 47.519-12.722" fill="url(#e)"/><path d="M1366.335-4069.418c21.327 28.187 56.373 28.187 77.7 0 21.452-28.187 42.53-22.45 46.895 12.597 4.365 35.046 34.672 52.507 67.224 38.912 32.677-13.719 48.018 1.746 34.423 34.298-13.72 32.552 3.742 62.86 38.788 67.35 35.047 4.49 40.659 25.567 12.597 46.894-28.187 21.327-28.187 56.249 0 77.7 28.062 21.453 22.45 42.53-12.597 46.896-35.046 4.49-52.507 34.797-38.788 67.349 13.72 32.552-1.746 48.017-34.423 34.298-32.552-13.72-62.859 3.866-67.224 38.912-4.49 35.047-25.568 40.66-46.895 12.597-21.327-28.187-56.373-28.187-77.7 0-21.328 28.062-42.53 22.45-46.895-12.597-4.365-35.046-34.673-52.507-67.35-38.912-32.551 13.719-48.017-1.746-34.297-34.298 13.719-32.552-3.742-62.86-38.913-67.35-35.047-4.364-40.659-25.442-12.597-46.894 28.187-21.327 28.187-56.374 0-77.7-28.187-21.328-22.45-42.53 12.597-46.896 35.046-4.365 52.507-34.672 38.913-67.349-13.72-32.552 1.746-48.017 34.298-34.298 32.552 13.72 62.859-3.741 67.349-38.912 4.365-35.047 25.567-40.66 46.895-12.597" fill="url(#f)"/><path d="M1366.826-4066.416c21.078 27.813 55.625 27.813 76.703 0 21.202-27.813 41.906-22.2 46.396 12.347 4.365 34.672 34.298 51.884 66.351 38.414 32.178-13.47 47.518 1.746 33.924 33.924-13.47 32.178 3.742 62.11 38.289 66.476 34.672 4.365 40.16 25.193 12.472 46.271-27.813 21.078-27.813 55.625 0 76.703 27.813 21.203 22.2 42.031-12.472 46.271-34.672 4.365-51.884 34.298-38.29 66.476 13.47 32.178-1.745 47.394-33.923 33.924-32.178-13.47-61.986 3.742-66.351 38.414-4.365 34.548-25.194 40.16-46.396 12.347-21.078-27.812-55.625-27.812-76.703 0-21.078 27.813-41.906 22.2-46.271-12.347-4.366-34.672-34.298-51.884-66.476-38.414-32.178 13.47-47.394-1.746-33.924-33.924 13.47-32.178-3.742-62.11-38.414-66.476-34.547-4.365-40.16-25.193-12.347-46.27 27.812-21.079 27.812-55.626 0-76.704-27.813-21.078-22.2-41.906 12.347-46.271 34.672-4.365 51.884-34.298 38.414-66.476-13.47-32.178 1.746-47.394 33.924-33.924 32.178 13.47 62.11-3.742 66.476-38.414 4.365-34.547 25.193-40.16 46.27-12.347" fill="url(#g)"/><path d="M1367.313-4063.434c20.829 27.439 55.002 27.439 75.706 0 20.953-27.438 41.407-21.95 45.772 12.223 4.365 34.173 33.8 51.26 65.603 37.915 31.803-13.346 46.895 1.746 33.55 33.55-13.345 31.803 3.741 61.362 37.915 65.602 34.173 4.365 39.66 24.944 12.347 45.772-27.439 20.829-27.439 54.877 0 75.706 27.438 20.953 21.95 41.532-12.347 45.772-34.174 4.365-51.26 33.924-37.915 65.603 13.345 31.804-1.747 46.895-33.55 33.55-31.804-13.345-61.238 3.741-65.603 37.914-4.365 34.174-24.82 39.662-45.772 12.223-20.829-27.438-54.877-27.438-75.706 0-20.828 27.439-41.407 21.951-45.772-12.223-4.365-34.173-33.8-51.26-65.603-37.914-31.804 13.345-46.77-1.746-33.425-33.55 13.345-31.679-3.741-61.362-37.915-65.603-34.173-4.24-39.661-24.82-12.223-45.772 27.439-20.829 27.439-54.877 0-75.706-27.438-20.828-21.95-41.407 12.223-45.772 34.174-4.24 51.26-33.8 37.915-65.603-13.345-31.803 1.746-46.895 33.425-33.55 31.804 13.345 61.362-3.741 65.603-37.915 4.365-34.173 24.944-39.66 45.772-12.222" fill="url(#h)"/><path d="M1367.817-4060.435c20.58 27.064 54.254 27.064 74.833 0 20.578-27.064 40.908-21.577 45.148 12.098 4.24 33.799 33.425 50.512 64.73 37.416 31.43-13.22 46.271 1.746 33.051 33.05-13.22 31.306 3.617 60.49 37.416 64.73 33.8 4.241 39.162 24.57 12.098 45.15-27.189 20.578-27.189 54.253 0 74.707 27.064 20.579 21.701 40.908-12.098 45.148-33.674 4.24-50.512 33.425-37.416 64.855 13.22 31.305-1.746 46.271-33.05 33.05-31.306-13.22-60.49 3.618-64.73 37.417-4.241 33.674-24.57 39.162-45.15 12.098-20.578-27.064-54.253-27.064-74.832 0-20.578 27.064-40.908 21.701-45.148-12.098-4.24-33.8-33.425-50.636-64.73-37.416-31.305 13.22-46.271-1.746-33.05-33.05 13.22-31.306-3.618-60.49-37.417-64.856-33.674-4.24-39.162-24.57-12.098-45.148 27.064-20.58 27.064-54.253 0-74.708-27.064-20.579-21.701-40.908 12.098-45.148 33.8-4.24 50.636-33.425 37.416-64.73-13.22-31.305 1.746-46.272 33.05-33.051 31.306 13.22 60.49-3.617 64.73-37.416 4.241-33.8 24.57-39.162 45.15-12.098" fill="url(#i)"/><path d="M1368.317-4057.45c20.33 26.69 53.505 26.69 73.834 0 20.33-26.816 40.41-21.328 44.65 11.972 4.24 33.3 32.926 49.888 63.857 36.917 30.93-12.97 45.648 1.747 32.677 32.677-12.971 30.93 3.617 59.741 36.917 63.982 33.425 4.24 38.663 24.32 11.973 44.525-26.815 20.33-26.815 53.505 0 73.834 26.69 20.33 21.452 40.41-11.973 44.526-33.3 4.24-49.888 33.05-36.917 63.981 12.97 30.93-1.746 45.648-32.677 32.677-30.93-12.971-59.74 3.616-63.857 36.917-4.24 33.3-24.196 38.663-44.65 11.973-20.204-26.69-53.505-26.69-73.834 0-20.33 26.69-40.41 21.327-44.525-11.973-4.24-33.3-33.051-49.888-63.982-36.917-30.93 12.97-45.647-1.622-32.676-32.677 12.97-30.93-3.617-59.741-36.918-63.981-33.3-4.116-38.663-24.196-11.973-44.526 26.69-20.329 26.69-53.505 0-73.834-26.815-20.33-21.327-40.41 11.973-44.525 33.3-4.24 50.013-32.926 36.918-63.982-12.971-30.93 1.746-45.647 32.676-32.676 30.93 12.97 59.741-3.617 63.982-36.918 4.116-33.3 24.196-38.788 44.525-11.973" fill="url(#j)"/><path d="M1368.691-4054.456c20.08 26.44 52.881 26.44 72.837 0 20.08-26.441 39.91-21.078 44.026 11.848 4.116 32.801 32.552 49.265 63.108 36.418 30.557-12.846 45.149 1.622 32.303 32.178-12.846 30.557 3.492 58.993 36.418 63.109 32.926 4.115 38.165 23.946 11.849 44.026-26.441 19.955-26.441 52.756 0 72.836 26.44 20.08 21.077 39.911-11.849 44.027-32.801 4.116-49.264 32.677-36.418 63.108 12.846 30.557-1.621 45.024-32.303 32.178-30.556-12.846-58.868 3.492-63.108 36.418-4.116 32.927-23.946 38.165-44.026 11.724-19.956-26.316-52.757-26.316-72.837 0-20.08 26.316-39.786 21.078-44.026-11.724-4.116-32.926-32.552-49.264-63.109-36.418-30.556 12.846-45.024-1.621-32.178-32.178 12.847-30.556-3.616-58.992-36.418-63.108-32.801-4.116-38.164-23.822-11.724-44.026 26.441-19.956 26.441-52.757 0-72.837-26.44-20.08-21.077-39.91 11.724-44.026 32.926-4.116 49.264-32.552 36.418-63.109-12.846-30.556 1.622-45.024 32.178-32.178 30.557 12.847 58.993-3.492 63.109-36.418 4.24-32.926 24.07-38.29 44.026-11.848" fill="url(#k)"/><path d="M1369.196-4051.569c19.83 26.067 52.133 26.067 71.838 0 19.83-26.066 39.287-20.828 43.403 11.6 4.116 32.427 32.053 48.64 62.235 35.919 30.183-12.597 44.526 1.621 31.804 31.804-12.597 30.182 3.492 58.12 35.92 62.235 32.552 4.116 37.665 23.572 11.723 43.403-26.066 19.705-26.066 52.133 0 71.838 26.067 19.83 20.829 39.412-11.723 43.403-32.428 4.116-48.517 32.178-35.92 62.236 12.722 30.182-1.621 44.4-31.804 31.803-30.182-12.721-58.12 3.492-62.235 35.92-4.116 32.427-23.572 37.665-43.403 11.599-19.706-26.067-52.133-26.067-71.838 0-19.706 26.066-39.287 20.828-43.403-11.6-4.116-32.427-32.178-48.64-62.236-35.919-30.182 12.597-44.4-1.621-31.803-31.803 12.721-30.058-3.492-58.12-35.92-62.236-32.427-3.99-37.665-23.572-11.599-43.403 26.067-19.705 26.067-52.133 0-71.838-26.066-19.831-20.828-39.287 11.6-43.403 32.427-4.116 48.64-32.178 35.919-62.235-12.597-30.183 1.621-44.526 31.803-31.804 30.183 12.721 58.12-3.492 62.236-35.92 4.116-32.302 23.697-37.665 43.403-11.599" fill="url(#l)"/><path d="M1842.089-3738.515c-3.991 0-7.857.499-11.599 1.247-2.245-24.82-22.824-44.4-48.267-44.4-5.488 0-10.726 1.122-15.59 2.744-10.352-46.147-51.26-80.57-100.525-80.57-41.032 0-76.328 24.196-92.916 59.118-9.354-8.232-21.452-13.345-34.922-13.345-28.56 0-51.634 22.574-52.881 50.76-11.1-6.235-23.697-10.102-37.291-10.102-42.28 0-76.579 34.299-76.579 76.579 0 42.28 34.298 76.578 76.579 76.578h393.866c32.802 0 59.242-26.565 59.242-59.242.125-32.802-26.44-59.367-59.117-59.367" fill="#9cb1bf"/><path d="M1833.455-3753.362c-3.991 0-7.733.374-11.599 1.247-2.245-24.944-22.824-44.4-48.267-44.4-5.612 0-10.726 1.122-15.59 2.743-10.352-46.146-51.26-80.57-100.524-80.57-41.033 0-76.33 24.321-92.792 59.118-9.354-8.231-21.452-13.47-34.922-13.47-28.56 0-51.634 22.575-52.881 50.886-11.1-6.236-23.697-10.102-37.292-10.102-42.28 0-76.578 34.298-76.578 76.578s34.298 76.454 76.578 76.454h393.867c32.677 0 59.367-26.566 59.367-59.242-.125-32.677-26.69-59.242-59.367-59.242" fill="url(#m)"/><path d="M1529.91-3827.456c13.345 0 25.069 5.239 34.049 13.096 1.995-4.116 5.487-7.11 7.982-10.85 2.619-3.867 6.111-8.98 9.23-12.348 17.959-21.078 44.275-34.547 73.709-35.296 8.48-.25 16.712.624 24.694 2.37 37.541 8.356 67.35 37.665 76.454 75.33 4.615-.997 9.354-1.371 14.468-.872 2.618 0 5.487 1.621 7.981 1.995 2.37.375 6.112.624 8.357 1.497 2.744.624 5.238 1.621 7.732 2.744 11.475 5.363 20.33 15.59 23.947 28.062.748 2.37 1.496 6.111 1.746 8.606.125.873.623 1.62.623 2.37 1.622-.375 4.24-.75 5.987-.998 2.12-.25 4.116-.375 6.36-.375 17.461 0 32.927 8.357 42.53 20.829 9.48 12.472 13.096 28.062 10.227 42.53 0 29.059-30.182 52.631-59.242 52.631h-377.902c-37.541 0-76.578-30.432-76.578-67.972-3.867-18.833.498-39.038 12.846-55.376 12.347-16.338 32.552-27.19 55.25-27.19 10.353 0 20.205 2.246 29.31 6.362 2.495 1.122 5.987 2.868 8.356 4.24.125-1.995.998-3.617 1.372-5.612.873-4.99 2.62-11.724 4.864-16.09 7.484-17.46 25.07-29.683 45.648-29.683" fill="url(#n)"/><path d="M1530.03-3826.21c13.22 0 24.694 5.362 33.175 12.846 1.746-3.617 6.111-4.99 8.356-8.232 2.245-3.367 6.112-9.479 8.856-12.472 17.21-21.577 42.903-35.67 71.838-37.167 8.232-.374 16.463.125 24.32 1.746 37.417 7.234 67.6 35.92 77.203 72.962 4.24-.25 8.606 0 13.22 1.122 2.245 0 5.113 2.869 7.359 3.243 2.12.374 6.734 0 8.73.748 2.869.374 5.612 1.123 8.232 2.12 12.347 4.74 22.075 15.466 25.442 28.811.624 1.995 1.372 6.86 1.747 8.98.124.748.873 1.247.997 1.995 1.497-.25 4.864-.873 6.361-1.122 2.245-.25 4.365-.5 6.61-.5 18.459 0 34.797 9.979 43.153 24.197 8.357 14.218 8.856 30.556 2.994 43.278 0 25.442-33.8 46.021-59.243 46.021h-362.062c-32.927 0-76.454-26.565-76.454-59.491-7.857-16.463-7.608-37.79 3.243-56.623 10.726-18.833 32.053-31.929 56.373-31.929 10.352 0 20.33 2.37 29.559 6.61 2.245.874 6.36 3.119 8.481 4.366.125-1.746 1.621-2.744 1.995-4.49.749-4.365 2.37-12.597 4.366-16.339 6.86-17.834 24.57-30.68 45.148-30.68" fill="url(#o)"/><path d="M1530.29-3824.978c13.095 0 24.196 5.363 32.303 12.472 1.496-3.118 6.86-2.869 8.73-5.737 1.87-2.869 6.111-9.978 8.48-12.597 16.464-22.076 41.533-36.668 69.969-38.913 8.107-.623 16.214-.25 24.071 1.123 37.291 6.236 67.848 34.048 78.075 70.716 3.866.499 7.857 1.372 11.973 3.118 1.996 0 4.74 4.24 6.61 4.615 1.871.374 7.483-.5 9.105 0 3.118.124 5.986.623 8.73 1.496 13.345 3.992 23.947 15.341 27.064 29.56.624 1.745 1.372 7.607 1.622 9.478.125.623 1.247.998 1.247 1.621 1.247-.25 5.363-.998 6.61-1.122 2.245-.374 4.615-.5 6.985-.5 19.58 0 36.543 11.6 43.652 27.689 7.109 15.964 4.49 33.05-4.116 43.901 0 21.826-37.416 39.412-59.242 39.412h-346.099c-28.187 0-76.454-22.824-76.454-51.01-11.723-14.094-15.59-36.668-6.36-57.87 9.23-21.203 31.554-36.794 57.496-36.794 10.476 0 20.454 2.495 29.683 6.86 1.871.748 6.86 3.492 8.606 4.49.125-1.497 2.37-1.87 2.619-3.367.624-3.742 2.12-13.345 3.866-16.588 6.237-18.583 23.947-32.053 44.775-32.053" fill="url(#p)"/><path d="M1530.53-3823.741c13.096 0 23.822 5.488 31.43 12.223 1.247-2.62 7.483-.749 9.104-3.118 1.622-2.37 6.112-10.602 8.107-12.722 15.715-22.699 40.16-37.79 68.097-40.784a95.106 95.106 0 0 1 23.822.375c37.167 5.238 68.097 32.302 78.948 68.471 3.617 1.123 7.109 2.744 10.726 4.989 1.621 0 4.49 5.612 5.987 5.862 1.496.25 8.106-1.123 9.478-.624 3.243-.125 6.236.125 9.23.873 14.218 3.368 25.692 15.216 28.56 30.432.5 1.497 1.248 8.48 1.497 9.978.125.499 1.497.748 1.622 1.247.997-.25 5.986-1.123 6.984-1.247 2.37-.374 4.864-.624 7.358-.624 20.704 0 38.29 13.345 44.276 31.055 5.987 17.71.25 35.546-11.35 44.65 0 18.21-41.033 32.927-59.117 32.927h-330.135c-23.447 0-76.453-18.958-76.453-42.53-15.715-11.724-23.697-35.42-15.964-59.118 7.732-23.696 31.055-41.531 58.493-41.531 10.477 0 20.58 2.494 29.933 7.233 1.622.624 7.234 3.742 8.73 4.615 0-1.247 2.994-.998 3.244-2.12.498-3.118 1.87-14.218 3.367-16.838 5.238-19.456 23.073-33.674 44.026-33.674" fill="url(#q)"/><path d="M1530.777-3822.488c12.971 0 23.323 5.488 30.557 11.849.998-2.12 8.231 1.372 9.479-.624 1.247-1.87 6.236-11.1 7.732-12.846 14.842-23.198 38.664-38.913 66.227-42.53 7.857-.997 15.715-1.122 23.572-.249 37.042 4.116 68.347 30.432 79.696 66.226 3.243 1.871 6.361 4.116 9.479 6.985 1.247 0 4.116 6.86 5.363 7.109 1.247.25 8.73-1.746 9.978-1.372 3.492-.374 6.61-.25 9.728.25 15.216 2.743 27.438 15.09 30.182 31.18.374 1.122 1.247 9.229 1.372 10.476 0 .374 1.87.499 1.87.873.874-.125 6.486-1.247 7.36-1.372 2.494-.374 5.113-.624 7.732-.624 21.701 0 40.035 14.967 44.9 34.423 4.739 19.457-3.992 38.04-18.46 45.274 0 14.467-44.65 26.316-59.117 26.316h-314.17c-18.833 0-76.329-15.216-76.329-34.049-19.581-9.354-31.804-34.173-25.692-60.365 6.111-26.19 30.68-46.27 59.616-46.27 10.476 0 20.704 2.618 30.182 7.482 1.247.5 7.608 4.116 8.855 4.74 0-.998 3.617 0 3.867-.998.374-2.494 1.621-14.966 2.744-17.211 4.365-19.83 22.075-34.673 43.277-34.673" fill="url(#r)"/><path d="M1531.043-3821.25c12.846 0 22.824 5.613 29.683 11.6.748-1.497 8.855 3.367 9.853 1.995.998-1.372 6.236-11.724 7.359-12.97 14.093-23.698 37.291-39.911 64.23-44.401 7.733-1.247 15.466-1.622 23.323-.873 36.918 3.118 68.596 28.685 80.57 63.981 2.868 2.62 5.612 5.488 8.231 8.98.998 0 3.742 8.232 4.74 8.356.873.125 9.478-2.37 10.351-1.995 3.617-.624 6.985-.749 10.227-.374 16.214 2.12 29.31 14.966 31.804 31.928.25.873 1.247 9.978 1.372 10.975 0 .25 2.245.125 2.245.5.623-.125 7.109-1.373 7.733-1.497 2.619-.375 5.363-.749 8.106-.749 22.824 0 41.906 16.588 45.399 37.915 3.616 21.203-8.357 40.534-25.693 46.022 0 10.85-48.142 19.706-59.117 19.706h-298.331c-14.094 0-76.33-11.35-76.33-25.443-23.571-7.11-39.91-32.926-35.295-61.612 4.615-28.686 30.183-51.01 60.739-51.01 10.476 0 20.828 2.743 30.432 7.857.998.374 8.106 4.365 8.98 4.864 0-.748 4.365.873 4.49.124.374-1.87 1.371-15.839 2.245-17.46 3.492-20.829 21.327-36.419 42.654-36.419" fill="url(#s)"/><path d="M1531.322-3819.969c12.722 0 22.45 5.613 28.81 11.225.5-.998 9.48 5.488 10.227 4.615.624-.998 6.237-12.223 6.985-13.096 13.345-24.196 35.92-41.033 62.36-46.271 7.483-1.497 15.216-1.996 23.073-1.622 36.793 2.12 68.846 26.94 81.443 61.612 2.619 3.368 4.864 6.86 6.984 10.85.624 0 3.367 9.48 3.99 9.604.625.125 10.103-2.868 10.727-2.744 3.866-.873 7.358-1.247 10.726-.997 17.211 1.372 31.055 14.841 33.3 32.676.25.624 1.123 10.851 1.247 11.475 0 .25 2.495-.125 2.62.124.374-.124 7.607-1.496 7.982-1.621a47.662 47.662 0 0 1 8.48-.749c23.822 0 43.653 18.334 46.022 41.283 2.37 22.949-12.596 43.028-32.801 46.645 0 7.234-51.76 13.096-59.117 13.096h-282.367c-9.354 0-76.329-7.608-76.329-16.962-27.438-4.74-47.893-31.804-44.9-62.859 3.119-31.055 29.684-55.875 61.862-55.875 10.601 0 20.828 2.744 30.681 8.107.624.25 8.481 4.74 9.105 4.989 0-.499 4.989 1.746 5.113 1.247.25-1.247 1.247-16.587 1.746-17.71 2.62-20.828 20.455-37.042 42.031-37.042" fill="url(#t)"/><path d="M1531.604-3818.737c12.596 0 21.95 5.738 27.937 10.976.25-.5 10.227 7.608 10.476 7.109.375-.499 6.237-12.846 6.61-13.22 12.598-24.82 34.548-42.156 60.49-48.018 7.359-1.621 14.966-2.494 22.824-2.245 36.668.998 69.22 25.07 82.19 59.367 2.245 3.991 4.241 8.356 5.738 12.846.374 0 3.118 10.85 3.367 10.976.25 0 10.85-3.493 11.1-3.368 3.991-1.122 7.733-1.746 11.225-1.496 18.085.748 32.926 14.841 34.922 33.424.124.25 1.122 11.6 1.122 11.85 0 .124 2.869-.375 2.869-.25.25 0 8.107-1.622 8.356-1.622 2.869-.499 5.737-.873 8.855-.873 24.944 0 45.398 19.955 46.645 44.65 1.248 24.695-16.837 45.523-40.035 47.394 0 3.617-55.376 6.61-58.992 6.61H1510.9c-4.74 0-76.329-3.742-76.329-8.481-31.43-2.37-55.999-30.557-54.503-64.106 1.497-33.55 29.185-60.614 62.984-60.614 10.602 0 20.953 2.868 30.931 8.356.374.125 8.855 4.989 9.23 5.238 0-.25 5.612 2.744 5.736 2.495.125-.624.998-17.461 1.248-17.96 1.746-22.076 19.705-39.038 41.407-39.038" fill="url(#u)"/><path d="M1829.447-3645.984h-385.76c-35.296 0-64.106-29.31-64.106-65.353 0-36.045 28.81-65.354 64.106-65.354 10.601 0 21.078 2.993 31.055 8.73l15.59 8.98.749-18.333c.873-22.45 18.833-40.16 40.783-40.16 12.472 0 21.577 5.737 27.065 10.725l10.85 9.729 6.236-13.345c15.091-32.552 46.147-52.757 81.068-52.757 41.657 0 78.574 30.307 87.679 71.964l2.744 12.222 11.474-4.116c4.24-1.371 7.982-2.12 11.724-2.12 19.082 0 34.672 14.717 36.543 34.173l.997 12.348 11.974-2.37c2.993-.499 5.986-.998 9.229-.998 26.066 0 47.144 21.577 47.144 48.142 0 26.316-21.202 47.893-47.144 47.893" fill="url(#v)"/></svg>