<svg xmlns="http://www.w3.org/2000/svg" xmlns:xlink="http://www.w3.org/1999/xlink" viewBox="2239.7 -4246.5 841.99998 842.00002" width="842" height="842"><defs><linearGradient id="m" gradientUnits="userSpaceOnUse" y1="-3812.37" x2="0" y2="-4239.4" gradientTransform="matrix(1.22587 0 0 1.17389 -630.897 827.12)"><stop stop-color="#e08c00"/><stop offset="1" stop-color="#ffbd19"/></linearGradient><linearGradient id="l" gradientUnits="userSpaceOnUse" y1="-3809.81" x2="0" y2="-4241.97" gradientTransform="matrix(1.22587 0 0 1.17389 -630.895 827.12)"><stop stop-color="#e08a00"/><stop offset="1" stop-color="#ffb71c"/></linearGradient><linearGradient id="v" gradientUnits="userSpaceOnUse" y1="-3835.44" x2="0" y2="-4216.35" gradientTransform="matrix(1.22587 0 0 1.17389 -630.899 827.129)"><stop stop-color="#e69e00"/><stop offset="1" stop-color="#fff200"/></linearGradient><linearGradient id="k" gradientUnits="userSpaceOnUse" y1="-3807.25" x2="0" y2="-4244.53" gradientTransform="matrix(1.22587 0 0 1.17389 -630.898 827.13)"><stop stop-color="#df8800"/><stop offset="1" stop-color="#ffb11f"/></linearGradient><linearGradient id="O" gradientUnits="userSpaceOnUse" y1="-3695.65" x2="0" y2="-3910.89" xlink:href="#a" gradientTransform="matrix(1.22587 0 0 1.17389 -632.894 815.4)"/><linearGradient id="N" gradientUnits="userSpaceOnUse" y1="-3694.28" x2="0" y2="-3911.75" xlink:href="#b" gradientTransform="matrix(1.22587 0 0 1.17389 -632.842 815.38)"/><linearGradient id="P" gradientUnits="userSpaceOnUse" y1="-3697.02" x2="0" y2="-3910.12" xlink:href="#c" gradientTransform="matrix(1.22587 0 0 1.17389 -632.954 815.401)"/><linearGradient id="n" gradientUnits="userSpaceOnUse" y1="-3814.93" x2="0" y2="-4236.84" gradientTransform="matrix(1.22587 0 0 1.17389 -630.899 827.13)"><stop stop-color="#e18e00"/><stop offset="1" stop-color="#ffc317"/></linearGradient><linearGradient id="u" gradientUnits="userSpaceOnUse" y1="-3832.87" x2="0" y2="-4218.91" gradientTransform="matrix(1.22587 0 0 1.17389 -630.902 827.12)"><stop stop-color="#e59c00"/><stop offset="1" stop-color="#ffec03"/></linearGradient><linearGradient id="t" gradientUnits="userSpaceOnUse" y1="-3830.31" x2="0" y2="-4221.47" gradientTransform="matrix(1.22587 0 0 1.17389 -630.896 827.119)"><stop stop-color="#e59a00"/><stop offset="1" stop-color="#ffe606"/></linearGradient><linearGradient id="o" gradientUnits="userSpaceOnUse" y1="-3817.5" x2="0" y2="-4234.28" gradientTransform="matrix(1.22587 0 0 1.17389 -630.895 827.12)"><stop stop-color="#e29000"/><stop offset="1" stop-color="#ffc914"/></linearGradient><linearGradient id="s" gradientUnits="userSpaceOnUse" y1="-3827.75" x2="0" y2="-4224.03" gradientTransform="matrix(1.22587 0 0 1.17389 -630.896 827.123)"><stop stop-color="#e49800"/><stop offset="1" stop-color="#ffe008"/></linearGradient><linearGradient id="q" gradientUnits="userSpaceOnUse" y1="-3822.62" x2="0" y2="-4229.16" gradientTransform="matrix(1.22587 0 0 1.17389 -630.899 827.126)"><stop stop-color="#e39400"/><stop offset="1" stop-color="#ffd40e"/></linearGradient><linearGradient id="p" gradientUnits="userSpaceOnUse" y1="-3820.06" x2="0" y2="-4231.72" gradientTransform="matrix(1.22587 0 0 1.17389 -630.895 827.121)"><stop stop-color="#e29200"/><stop offset="1" stop-color="#ffcf11"/></linearGradient><linearGradient id="r" gradientUnits="userSpaceOnUse" y1="-3825.19" x2="0" y2="-4226.6" gradientTransform="matrix(1.22587 0 0 1.17389 -630.899 827.12)"><stop stop-color="#e39600"/><stop offset="1" stop-color="#ffda0b"/></linearGradient><linearGradient id="M" gradientUnits="userSpaceOnUse" y1="-3692.9" x2="0" y2="-3912.67" xlink:href="#d" gradientTransform="matrix(1.22587 0 0 1.17389 -632.807 815.383)"/><linearGradient id="e" gradientUnits="userSpaceOnUse" y1="-3867.84" x2="0" y2="-4030.02"><stop stop-color="#9fbed0"/><stop offset="1" stop-color="#ddecf5"/></linearGradient><linearGradient id="f" gradientUnits="userSpaceOnUse" y1="-3866.85" x2="0" y2="-4030.8"><stop stop-color="#9dbdd0"/><stop offset="1" stop-color="#dae9f2"/></linearGradient><linearGradient id="L" gradientUnits="userSpaceOnUse" y1="-3691.53" x2="0" y2="-3913.68" xlink:href="#e" gradientTransform="matrix(1.22587 0 0 1.17389 -632.747 815.379)"/><linearGradient id="g" gradientUnits="userSpaceOnUse" y1="-3865.86" x2="0" y2="-4031.64"><stop stop-color="#9bbccf"/><stop offset="1" stop-color="#d7e6f0"/></linearGradient><linearGradient id="i" gradientUnits="userSpaceOnUse" y1="-3863.87" x2="0" y2="-4033.47"><stop stop-color="#97bacd"/><stop offset="1" stop-color="#d0e1eb"/></linearGradient><linearGradient id="j" gradientUnits="userSpaceOnUse" y1="-3862.88" x2="0" y2="-4034.46"><stop stop-color="#95b9cc"/><stop offset="1" stop-color="#cddee8"/></linearGradient><linearGradient id="h" gradientUnits="userSpaceOnUse" y1="-3864.86" x2="0" y2="-4032.53"><stop stop-color="#99bbce"/><stop offset="1" stop-color="#d3e4ed"/></linearGradient><linearGradient id="d" gradientUnits="userSpaceOnUse" y1="-3868.84" x2="0" y2="-4029.29"><stop stop-color="#a1bfd1"/><stop offset="1" stop-color="#e0eff7"/></linearGradient><linearGradient id="K" gradientUnits="userSpaceOnUse" y1="-3690.16" x2="0" y2="-3914.75" xlink:href="#f" gradientTransform="matrix(1.22587 0 0 1.17389 -632.73 815.376)"/><linearGradient id="J" gradientUnits="userSpaceOnUse" y1="-3688.79" x2="0" y2="-3915.9" xlink:href="#g" gradientTransform="matrix(1.22587 0 0 1.17389 -632.716 815.382)"/><linearGradient id="b" gradientUnits="userSpaceOnUse" y1="-3869.83" x2="0" y2="-4028.61"><stop stop-color="#a3c0d2"/><stop offset="1" stop-color="#e4f1fa"/></linearGradient><linearGradient id="I" gradientUnits="userSpaceOnUse" y1="-3687.42" x2="0" y2="-3917.12" xlink:href="#h" gradientTransform="matrix(1.22587 0 0 1.17389 -632.723 815.391)"/><linearGradient id="H" gradientUnits="userSpaceOnUse" y1="-3686.05" x2="0" y2="-3918.41" xlink:href="#i" gradientTransform="matrix(1.22587 0 0 1.17389 -632.816 815.382)"/><linearGradient id="a" gradientUnits="userSpaceOnUse" y1="-3870.82" x2="0" y2="-4027.99"><stop stop-color="#a5c1d3"/><stop offset="1" stop-color="#e7f4fc"/></linearGradient><linearGradient id="G" gradientUnits="userSpaceOnUse" y1="-3684.68" x2="0" y2="-3919.76" xlink:href="#j" gradientTransform="matrix(1.22587 0 0 1.17389 -632.945 815.401)"/><linearGradient id="c" gradientUnits="userSpaceOnUse" y1="-3871.82" x2="0" y2="-4027.42"><stop stop-color="#a7c2d4"/><stop offset="1" stop-color="#eaf7ff"/></linearGradient><linearGradient xlink:href="#j" id="w" gradientUnits="userSpaceOnUse" y1="-3862.88" x2="0" y2="-4034.46" gradientTransform="matrix(1.22587 0 0 1.17389 -640.055 823.378)"/><linearGradient xlink:href="#i" id="x" gradientUnits="userSpaceOnUse" y1="-3863.87" x2="0" y2="-4033.47" gradientTransform="matrix(1.22587 0 0 1.17389 -640.107 823.373)"/><linearGradient xlink:href="#h" id="y" gradientUnits="userSpaceOnUse" y1="-3864.86" x2="0" y2="-4032.53" gradientTransform="matrix(1.22587 0 0 1.17389 -640.115 823.372)"/><linearGradient xlink:href="#g" id="z" gradientUnits="userSpaceOnUse" y1="-3865.86" x2="0" y2="-4031.64" gradientTransform="matrix(1.22587 0 0 1.17389 -640.11 823.365)"/><linearGradient xlink:href="#f" id="A" gradientUnits="userSpaceOnUse" y1="-3866.85" x2="0" y2="-4030.8" gradientTransform="matrix(1.22587 0 0 1.17389 -640.114 823.36)"/><linearGradient xlink:href="#e" id="B" gradientUnits="userSpaceOnUse" y1="-3867.84" x2="0" y2="-4030.02" gradientTransform="matrix(1.22587 0 0 1.17389 -640.115 823.363)"/><linearGradient xlink:href="#d" id="C" gradientUnits="userSpaceOnUse" y1="-3868.84" x2="0" y2="-4029.29" gradientTransform="matrix(1.22587 0 0 1.17389 -640.107 823.358)"/><linearGradient xlink:href="#b" id="D" gradientUnits="userSpaceOnUse" y1="-3869.83" x2="0" y2="-4028.61" gradientTransform="matrix(1.22587 0 0 1.17389 -640.092 823.375)"/><linearGradient xlink:href="#a" id="E" gradientUnits="userSpaceOnUse" y1="-3870.82" x2="0" y2="-4027.99" gradientTransform="matrix(1.22587 0 0 1.17389 -640.075 823.368)"/><linearGradient xlink:href="#c" id="F" gradientUnits="userSpaceOnUse" y1="-3871.82" x2="0" y2="-4027.42" gradientTransform="matrix(1.22587 0 0 1.17389 -640.07 823.375)"/></defs><path d="M2566.27-4109.801c21.576 27.234 56.758 27.234 78.211 0 21.575-27.117 42.906-21.717 47.319 12.09 4.536 33.809 34.937 50.713 67.79 37.448 32.854-13.265 48.423 1.76 34.57 33.103-13.73 31.46 3.8 60.69 39.106 64.916 35.305 4.226 41.067 24.652 12.626 45.312-28.44 20.543-28.44 54.351 0 74.894 28.318 20.66 22.679 40.969-12.626 45.312-35.306 4.226-52.958 33.456-39.106 64.916 13.853 31.46-1.716 46.369-34.57 33.104-32.853-13.148-63.254 3.639-67.79 37.447-4.413 33.925-25.744 39.207-47.319 12.208-21.453-27.234-56.758-27.234-78.21 0-21.576 27.117-42.784 21.717-47.32-12.208-4.413-33.808-34.937-50.712-67.79-37.447-32.853 13.265-48.422-1.644-34.57-33.104 13.853-31.46-3.8-60.572-39.105-64.916-35.305-4.343-41.067-24.651-12.627-45.312 28.44-20.66 28.44-54.35 0-74.894-28.317-20.66-22.678-40.968 12.627-45.312 35.305-4.226 52.958-33.455 39.105-64.916-13.73-31.46 1.839-46.368 34.57-33.103 32.853 13.265 63.377-3.64 67.79-37.447 4.537-33.69 25.867-39.208 47.32-12.091" fill="#9cb1bf"/><path d="M2551.838-4137.585c22.311 28.173 58.842 28.173 81.153 0 22.311-28.173 44.377-22.539 49.035 12.56 4.659 35.1 36.164 52.59 70.243 38.856 34.079-13.735 50.138 1.76 35.918 34.277-14.343 32.634 3.923 62.803 40.576 67.264 36.654 4.46 42.415 25.59 13.117 46.838-29.42 21.365-29.42 56.347 0 77.711 29.298 21.365 23.414 42.495-13.117 46.838-36.653 4.461-54.919 34.747-40.576 67.264 14.343 32.634-1.839 48.012-35.918 34.277-33.957-13.617-65.584 3.874-70.243 38.856-4.658 34.982-26.601 40.734-49.035 12.56-22.31-28.172-58.842-28.172-81.153 0-22.31 28.174-44.376 22.422-49.035-12.56-4.658-35.1-36.285-52.59-70.242-38.856-33.957 13.735-50.138-1.76-35.796-34.277 14.343-32.517-3.922-62.803-40.576-67.264-36.531-4.343-42.538-25.473-13.117-46.838 29.421-21.364 29.421-56.346 0-77.71-29.42-21.366-23.537-42.495 13.117-46.839 36.654-4.46 54.92-34.63 40.576-67.264-14.342-32.516 1.84-48.012 35.796-34.277 34.08 13.734 65.584-3.757 70.242-38.856 4.781-34.981 26.725-40.616 49.035-12.56" fill="url(#k)"/><path d="M2552.332-4134.777c22.065 27.82 58.106 27.82 80.172 0 22.066-27.821 43.886-22.187 48.422 12.443 4.536 34.63 35.795 51.886 69.384 38.386 33.712-13.5 49.648 1.76 35.428 33.925-14.098 32.165 3.923 62.099 40.086 66.442 36.163 4.344 41.925 25.239 12.994 46.369-29.053 21.13-29.053 55.642 0 76.772 28.93 21.13 23.17 42.025-12.994 46.368-36.163 4.344-54.184 34.278-40.086 66.56 14.098 32.164-1.839 47.425-35.428 33.925s-64.848 3.756-69.384 38.386c-4.536 34.63-26.356 40.264-48.422 12.443-22.066-27.82-58.107-27.82-80.172 0-22.066 27.821-43.887 22.187-48.422-12.443-4.536-34.63-35.796-51.886-69.385-38.386-33.589 13.5-49.525-1.76-35.427-33.925 14.097-32.165-3.923-62.099-40.087-66.56-36.163-4.343-42.047-25.238-12.994-46.368 29.053-21.13 29.053-55.642 0-76.772-29.053-21.13-23.169-41.908 12.994-46.369 36.164-4.343 54.184-34.277 40.087-66.442-14.098-32.164 1.838-47.425 35.427-33.925 33.59 13.5 64.849-3.756 69.385-38.386 4.658-34.63 26.356-40.264 48.422-12.443" fill="url(#l)"/><path d="M2552.82-4131.96c21.82 27.47 57.493 27.47 79.19 0 21.821-27.469 43.274-21.951 47.81 12.209 4.536 34.277 35.428 51.299 68.526 37.916 33.221-13.382 49.035 1.761 35.06 33.573-13.975 31.813 3.923 61.395 39.596 65.738 35.795 4.343 41.434 24.886 12.872 45.782-28.686 20.895-28.686 54.937 0 75.833 28.685 20.895 22.923 41.555-12.872 45.781-35.796 4.343-53.57 33.925-39.596 65.738 13.975 31.812-1.839 46.955-35.06 33.573-33.221-13.382-63.99 3.756-68.526 37.916-4.536 34.16-25.989 39.678-47.81 12.326-21.82-27.469-57.37-27.469-79.19 0-21.821 27.47-43.274 21.952-47.81-12.326-4.536-34.277-35.427-51.298-68.649-37.916-33.22 13.382-48.912-1.644-34.937-33.573 13.975-31.813-3.923-61.395-39.596-65.738-35.673-4.226-41.557-24.886-12.749-45.781 28.686-20.896 28.686-55.056 0-75.833-28.685-20.896-22.924-41.439 12.75-45.782 35.795-4.343 53.57-33.925 39.595-65.738-13.975-31.812 1.839-46.838 34.937-33.573 33.222 13.383 64.114-3.756 68.65-37.916 4.535-34.16 25.988-39.677 47.808-12.209" fill="url(#m)"/><path d="M2553.308-4129.133c21.576 27.117 56.758 27.117 78.211 0 21.576-27.117 42.783-21.717 47.319 12.091 4.413 33.808 34.937 50.712 67.79 37.447 32.854-13.265 48.423 1.76 34.57 33.104-13.852 31.46 3.8 60.69 39.106 64.916 35.305 4.343 40.944 24.651 12.749 45.194-28.44 20.543-28.44 54.351 0 74.894 28.318 20.66 22.678 40.968-12.75 45.195-35.304 4.226-52.957 33.573-39.105 64.915 13.853 31.46-1.716 46.369-34.57 33.104-32.73-13.147-63.254 3.639-67.79 37.447-4.413 33.808-25.743 39.208-47.319 12.09-21.453-27.116-56.758-27.116-78.21 0-21.576 27.118-42.784 21.718-47.197-12.09-4.413-33.808-34.937-50.712-67.79-37.447-32.731 13.265-48.423-1.643-34.57-33.104 13.73-31.46-3.8-60.69-39.228-64.915-35.305-4.227-40.944-24.535-12.627-45.195 28.318-20.66 28.318-54.351 0-74.894-28.317-20.66-22.678-40.968 12.627-45.194 35.305-4.226 52.958-33.456 39.228-64.916-13.853-31.46 1.839-46.369 34.57-33.104 32.853 13.147 63.377-3.639 67.79-37.447 4.413-33.808 25.621-39.325 47.196-12.091" fill="url(#n)"/><path d="M2553.803-4126.326c21.207 26.882 56.022 26.882 77.352 0 21.33-26.765 42.293-21.365 46.706 11.974 4.413 33.455 34.57 50.125 66.933 36.977 32.486-13.03 47.809 1.644 34.202 32.752-13.607 31.108 3.8 59.868 38.615 64.094 34.937 4.226 40.454 24.3 12.504 44.725-28.073 20.308-28.073 53.646 0 74.072 27.95 20.426 22.433 40.499-12.504 44.725-34.938 4.226-52.222 33.104-38.615 64.094 13.607 31.108-1.716 45.782-34.202 32.751-32.363-13.03-62.52 3.64-66.933 37.095-4.413 33.339-25.375 38.739-46.706 11.974-21.207-26.765-56.022-26.765-77.352 0-21.208 26.765-42.293 21.365-46.706-11.974-4.413-33.455-34.57-50.124-66.933-37.095-32.363 13.03-47.809-1.643-34.202-32.751 13.608-30.99-3.8-59.868-38.737-64.094-34.815-4.226-40.454-24.3-12.504-44.725 27.95-20.308 27.95-53.647 0-74.072-28.073-20.426-22.434-40.5 12.504-44.725 34.937-4.226 52.345-33.104 38.737-64.094-13.607-30.991 1.716-45.782 34.202-32.752 32.363 13.03 62.52-3.639 66.933-36.977 4.413-33.456 25.375-38.856 46.706-11.974" fill="url(#o)"/><path d="M2554.293-4123.624c20.963 26.53 55.41 26.53 76.372 0 21.085-26.53 41.802-21.13 46.093 11.856 4.29 32.986 34.08 49.42 66.074 36.625 32.118-12.912 47.197 1.644 33.835 32.282-13.485 30.639 3.677 59.164 38.124 63.39 34.447 4.226 39.964 24.065 12.382 44.138-27.705 20.074-27.705 52.943 0 73.133 27.582 20.191 22.065 40.03-12.382 44.138-34.447 4.226-51.61 32.752-38.124 63.39 13.484 30.639-1.717 45.195-33.835 32.282-31.995-12.913-61.784 3.64-66.074 36.625-4.413 32.987-25.13 38.269-46.093 11.856-20.962-26.53-55.41-26.53-76.372 0-20.962 26.413-41.802 21.13-46.093-11.856-4.29-32.986-34.08-49.42-66.197-36.625-31.995 12.913-47.196-1.643-33.712-32.282 13.485-30.638-3.677-59.164-38.247-63.39-34.447-4.108-39.963-23.947-12.381-44.138 27.705-20.073 27.705-53.06 0-73.133-27.705-20.073-22.066-40.03 12.381-44.138 34.447-4.109 51.61-32.634 38.248-63.39-13.485-30.638 1.716-45.194 33.711-32.282 31.995 12.913 61.784-3.521 66.197-36.625 4.29-32.986 25.008-38.268 46.093-11.856" fill="url(#p)"/><path d="M2554.78-4120.802c20.717 26.177 54.673 26.177 75.39 0 20.84-26.178 41.19-20.895 45.603 11.621 4.29 32.634 33.712 48.834 65.217 36.156 31.627-12.678 46.705 1.643 33.344 31.93-13.24 30.286 3.677 58.459 37.634 62.568 34.08 4.108 39.473 23.712 12.259 43.55-27.337 19.84-27.337 52.356 0 72.195 27.336 19.956 21.82 39.56-12.26 43.55-34.079 4.11-50.996 32.283-37.633 62.569 13.239 30.286-1.717 44.608-33.344 31.93-31.628-12.678-60.926 3.521-65.217 36.155-4.29 32.517-24.762 37.8-45.602 11.622-20.717-26.178-54.674-26.178-75.391 0-20.718 26.177-41.19 20.895-45.48-11.622-4.29-32.634-33.712-48.833-65.34-36.155-31.627 12.678-46.583-1.644-33.343-31.93 13.24-30.286-3.678-58.46-37.757-62.568-33.957-4.109-39.473-23.713-12.136-43.551 27.337-19.839 27.337-52.356 0-72.194-27.337-19.839-21.82-39.443 12.136-43.551 34.08-4.109 50.996-32.282 37.757-62.568-13.24-30.287 1.716-44.608 33.343-31.93 31.628 12.678 61.05-3.522 65.34-36.156 4.168-32.516 24.64-37.799 45.48-11.621" fill="url(#q)"/><path d="M2555.147-4117.99c20.472 25.825 54.061 25.825 74.41 0 20.595-25.826 40.7-20.661 44.99 11.503 4.29 32.165 33.221 48.247 64.481 35.687 31.26-12.561 46.093 1.643 32.976 31.577-13.116 29.934 3.678 57.755 37.267 61.747 33.589 4.108 38.983 23.477 12.136 43.081-26.97 19.604-26.97 51.651 0 71.255 26.97 19.721 21.575 39.09-12.136 43.081-33.589 4.11-50.384 31.93-37.267 61.747 13.117 29.934-1.716 44.138-32.976 31.577-31.26-12.56-60.19 3.522-64.48 35.687-4.291 32.164-24.396 37.33-44.99 11.504-20.472-25.826-53.939-25.826-74.41 0-20.473 25.825-40.7 20.66-44.99-11.504-4.29-32.165-33.221-48.247-64.481-35.687-31.26 12.561-45.97-1.643-32.854-31.577 13.117-29.817-3.677-57.755-37.266-61.746-33.59-3.992-38.983-23.36-12.014-43.082 26.97-19.604 26.97-51.651 0-71.255-26.969-19.604-21.575-38.973 12.014-43.081 33.589-3.992 50.383-31.813 37.266-61.747-13.116-29.934 1.717-44.138 32.854-31.577 31.26 12.56 60.313-3.522 64.48-35.687 4.291-32.164 24.518-37.33 44.99-11.504" fill="url(#r)"/><path d="M2555.64-4115.17c20.227 25.473 53.326 25.473 73.553 0 20.227-25.474 40.208-20.309 44.376 11.386 4.168 31.813 32.854 47.543 63.623 35.217 30.892-12.443 45.48 1.643 32.486 31.108-12.994 29.464 3.555 56.933 36.776 60.924 33.221 3.991 38.492 23.126 11.891 42.495-26.724 19.37-26.724 51.064 0 70.316 26.601 19.369 21.33 38.503-11.89 42.494-33.1 3.992-49.649 31.46-36.777 61.042 12.994 29.465-1.716 43.552-32.486 31.109-30.77-12.444-59.455 3.404-63.623 35.216-4.168 31.695-24.15 36.86-44.376 11.387-20.227-25.474-53.326-25.474-73.553 0-20.227 25.473-40.208 20.425-44.376-11.387-4.168-31.812-32.854-47.66-63.623-35.216-30.77 12.443-45.48-1.644-32.486-31.108 12.994-29.465-3.555-56.934-36.776-61.043-33.099-3.99-38.492-23.125-11.89-42.494 26.6-19.37 26.6-51.064 0-70.316-26.603-19.369-21.331-38.503 11.89-42.495 33.221-3.99 49.77-31.46 36.776-60.924-12.994-29.465 1.716-43.551 32.486-31.108 30.77 12.443 59.455-3.404 63.623-35.217 4.29-31.812 24.15-36.86 44.376-11.386" fill="url(#s)"/><path d="M2556.13-4112.358c19.983 25.121 52.59 25.121 72.573 0 19.981-25.238 39.718-20.073 43.886 11.27 4.168 31.342 32.363 46.955 62.765 34.747 30.401-12.209 44.867 1.643 32.118 30.755-12.75 29.113 3.555 56.23 36.285 60.22 32.854 3.992 38.003 22.892 11.769 41.909-26.356 19.134-26.356 50.36 0 69.494 26.234 19.134 21.085 38.033-11.769 41.907-32.73 3.992-49.035 31.108-36.285 60.22 12.749 29.113-1.717 42.965-32.118 30.756-30.402-12.208-58.72 3.405-62.765 34.748-4.168 31.342-23.782 36.39-43.886 11.269-19.86-25.121-52.59-25.121-72.572 0s-39.718 20.073-43.764-11.27c-4.168-31.342-32.485-46.955-62.887-34.747-30.402 12.209-44.867-1.526-32.118-30.755 12.75-29.113-3.555-56.23-36.286-60.22-32.73-3.875-38.002-22.774-11.768-41.908 26.234-19.135 26.234-50.36 0-69.494-26.356-19.135-20.963-38.034 11.768-41.908 32.731-3.991 49.158-30.99 36.286-60.22-12.749-29.113 1.716-42.965 32.118-30.756 30.402 12.208 58.72-3.405 62.887-34.747 4.168-31.343 23.782-36.508 43.764-11.27" fill="url(#t)"/><path d="M2556.615-4109.54c19.737 24.887 51.977 24.887 71.591 0 19.737-24.886 39.228-19.839 43.274 11.152 4.045 30.873 31.995 46.369 62.029 34.278 30.034-12.092 44.377 1.526 31.75 30.286-12.626 28.76 3.433 55.525 35.796 59.398 32.363 3.874 37.511 22.54 11.645 41.439-25.988 18.782-25.988 49.655 0 68.555 25.989 18.9 20.718 37.564-11.645 41.438-32.24 3.873-48.422 30.756-35.796 59.398 12.627 28.76-1.593 42.378-31.75 30.287-30.034-12.092-57.861 3.286-62.03 34.277-4.045 30.99-23.536 35.921-43.273 11.034-19.614-24.768-51.854-24.768-71.59 0-19.737 24.77-39.106 19.84-43.274-11.034-4.045-30.99-31.995-46.369-62.03-34.277-30.033 12.09-44.253-1.527-31.627-30.287 12.627-28.76-3.555-55.525-35.795-59.398-32.24-3.874-37.512-22.422-11.523-41.438 25.988-18.783 25.988-49.656 0-68.555-25.989-18.9-20.718-37.565 11.523-41.439 32.363-3.873 48.422-30.638 35.795-59.398-12.626-28.76 1.594-42.378 31.628-30.286 30.034 12.09 57.984-3.287 62.029-34.278 4.168-30.99 23.66-36.038 43.273-11.152" fill="url(#u)"/><path d="M2557.109-4106.83c19.491 24.534 51.241 24.534 70.61 0 19.491-24.534 38.615-19.604 42.66 10.917 4.046 30.52 31.505 45.781 61.172 33.808 29.666-11.856 43.763 1.526 31.26 29.934-12.382 28.408 3.432 54.703 35.304 58.577 31.996 3.874 37.022 22.186 11.524 40.85-25.621 18.548-25.621 49.07 0 67.617 25.62 18.665 20.472 37.095-11.524 40.851-31.872 3.874-47.686 30.286-35.305 58.577 12.504 28.408-1.593 41.79-31.26 29.934-29.666-11.974-57.125 3.287-61.17 33.808-4.046 30.52-23.17 35.451-42.661 10.917-19.369-24.534-51.242-24.534-70.61 0-19.37 24.534-38.615 19.604-42.66-10.917-4.046-30.521-31.628-45.782-61.172-33.808-29.666 11.856-43.64-1.526-31.26-29.934 12.504-28.29-3.432-54.703-35.305-58.577-31.873-3.756-37.021-22.186-11.4-40.851 25.62-18.548 25.62-49.069 0-67.616-25.621-18.665-20.473-36.977 11.4-40.851 31.873-3.874 47.81-30.287 35.305-58.577-12.38-28.408 1.594-41.908 31.26-29.934 29.666 11.973 57.126-3.287 61.171-33.808 4.046-30.404 23.292-35.451 42.66-10.917" fill="url(#v)"/><path d="M2986.503-3808.102c-3.923 0-7.723.47-11.4 1.174-2.208-23.36-22.434-41.79-47.442-41.79-5.394 0-10.543 1.056-15.324 2.583-10.174-43.434-50.383-75.833-98.805-75.833-40.331 0-75.023 22.773-91.328 55.642-9.194-7.748-21.085-12.56-34.324-12.56-28.073 0-50.751 21.246-51.977 47.776-10.91-5.869-23.292-9.508-36.654-9.508-41.557 0-75.269 32.282-75.269 72.076 0 39.795 33.712 72.077 75.27 72.077h387.13c32.24 0 58.23-25.004 58.23-55.76.244-30.873-25.867-55.877-58.107-55.877" fill="#9cb1bf"/><path d="M2977.621-3822.744c-3.923 0-7.6.352-11.4 1.174-2.207-23.478-22.434-41.79-47.442-41.79-5.516 0-10.542 1.056-15.323 2.582-10.175-43.434-50.384-75.833-98.806-75.833-40.331 0-75.023 22.89-91.205 55.642-9.194-7.748-21.085-12.678-34.324-12.678-28.073 0-50.751 21.247-51.977 47.894-10.91-5.869-23.292-9.508-36.654-9.508-41.557 0-75.269 32.282-75.269 72.077 0 39.794 33.712 71.959 75.27 71.959h387.13c32.118 0 58.352-25.004 58.352-55.76 0-30.756-26.111-55.76-58.352-55.76" fill="url(#w)"/><path d="M2679.314-3892.478c13.117 0 24.64 4.93 33.467 12.326 1.96-3.874 5.393-6.691 7.845-10.213 2.574-3.639 6.007-8.452 9.071-11.621 17.653-19.84 43.52-32.517 72.45-33.221 8.336-.235 16.426.587 24.272 2.23 36.899 7.865 66.197 35.451 75.146 70.903 4.536-.94 9.194-1.291 14.22-.822 2.574 0 5.394 1.526 7.846 1.878 2.329.353 6.007.587 8.213 1.409 2.697.587 5.149 1.526 7.6 2.583 11.279 5.047 19.982 14.673 23.537 26.412.736 2.23 1.471 5.752 1.717 8.1.122.821.613 1.526.613 2.23 1.593-.352 4.167-.704 5.884-.939a54.196 54.196 0 0 1 6.252-.352c17.162 0 32.363 7.865 41.802 19.604 9.317 11.739 12.872 26.412 10.052 40.03 0 27.35-29.666 49.537-58.229 49.537h-371.44c-36.898 0-75.268-28.643-75.268-63.976-3.8-17.726.49-36.743 12.626-52.121s31.995-25.59 54.306-25.59c10.175 0 19.86 2.112 28.808 5.986 2.452 1.057 5.885 2.7 8.214 3.991.122-1.878.98-3.404 1.348-5.282.858-4.696 2.575-11.035 4.781-15.143 7.478-16.435 24.763-27.939 44.867-27.939" fill="url(#x)"/><path d="M2679.55-3891.305c12.995 0 24.273 5.048 32.61 12.09 1.715-3.403 6.006-4.695 8.213-7.747 2.206-3.17 6.006-8.921 8.703-11.739 16.917-20.308 42.17-33.573 70.61-34.981 8.091-.353 16.182.117 23.905 1.643 36.776 6.809 66.442 33.808 75.882 68.672 4.168-.234 8.458 0 12.994 1.057 2.206 0 5.026 2.7 7.233 3.052 2.084.352 6.62 0 8.58.704 2.82.352 5.517 1.057 8.091 1.996 12.137 4.46 21.698 14.556 25.008 27.117.613 1.878 1.349 6.456 1.717 8.452.122.704.858 1.174.98 1.878 1.471-.235 4.781-.822 6.252-1.057 2.207-.234 4.29-.47 6.497-.47 18.143 0 34.202 9.392 42.415 22.774 8.214 13.383 8.704 28.76 2.943 40.734 0 23.947-33.221 43.316-58.23 43.316h-355.87c-32.364 0-75.147-25.003-75.147-55.994-7.722-15.495-7.477-35.569 3.188-53.294 10.542-17.726 31.505-30.052 55.41-30.052 10.174 0 19.98 2.23 29.052 6.222 2.207.822 6.252 2.935 8.336 4.108.123-1.643 1.594-2.582 1.962-4.226.735-4.108 2.329-11.856 4.29-15.378 6.743-16.786 24.027-28.877 44.377-28.877" fill="url(#y)"/><path d="M2679.802-3890.138c12.871 0 23.782 5.047 31.75 11.739 1.47-2.935 6.742-2.7 8.581-5.4 1.839-2.7 6.007-9.392 8.336-11.857 16.181-20.777 40.821-34.512 68.771-36.625 7.969-.587 15.937-.235 23.66 1.056 36.653 5.87 66.687 32.048 76.74 66.56 3.8.47 7.723 1.291 11.768 2.935 1.961 0 4.658 3.99 6.497 4.343 1.839.352 7.355-.47 8.949 0 3.065.117 5.884.587 8.581 1.409 13.117 3.756 23.537 14.438 26.601 27.82.613 1.644 1.349 7.161 1.594 8.922.123.587 1.226.94 1.226 1.526 1.226-.234 5.271-.939 6.497-1.056 2.207-.352 4.536-.47 6.865-.47 19.246 0 35.918 10.917 42.906 26.06 6.987 15.026 4.413 31.108-4.046 41.321 0 20.543-36.776 37.095-58.229 37.095h-340.18c-27.705 0-75.146-21.482-75.146-48.012-11.523-13.265-15.323-34.512-6.252-54.468 9.072-19.956 31.015-34.63 56.513-34.63 10.297 0 20.104 2.348 29.176 6.457 1.839.704 6.742 3.286 8.458 4.226.123-1.41 2.33-1.761 2.575-3.17.613-3.522 2.084-12.56 3.8-15.613 6.13-17.49 23.537-30.168 44.009-30.168" fill="url(#z)"/><path d="M2680.042-3888.97c12.872 0 23.414 5.166 30.892 11.505 1.226-2.466 7.356-.705 8.95-2.935 1.593-2.23 6.006-9.978 7.967-11.974 15.446-21.364 39.473-35.569 66.933-38.386a97.58 97.58 0 0 1 23.414.352c36.531 4.93 66.933 30.404 77.598 64.447 3.555 1.056 6.987 2.582 10.543 4.695 1.593 0 4.413 5.283 5.884 5.517 1.47.235 7.968-1.056 9.316-.586 3.188-.118 6.13.117 9.072.821 13.975 3.17 25.253 14.322 28.072 28.643.49 1.409 1.226 7.982 1.471 9.391.123.47 1.471.705 1.594 1.174.98-.235 5.884-1.057 6.865-1.174 2.33-.352 4.78-.587 7.232-.587 20.35 0 37.635 12.56 43.52 29.23 5.883 16.67.244 33.456-11.156 42.025 0 17.139-40.332 30.99-58.107 30.99h-324.489c-23.046 0-75.146-17.842-75.146-40.029-15.446-11.034-23.291-33.338-15.69-55.642 7.6-22.304 30.523-39.09 57.493-39.09 10.297 0 20.227 2.347 29.42 6.808 1.594.587 7.11 3.522 8.582 4.343 0-1.173 2.942-.939 3.187-1.995.49-2.935 1.839-13.382 3.31-15.848 5.148-18.312 22.556-31.695 43.273-31.695" fill="url(#A)"/><path d="M2680.286-3887.793c12.75 0 22.924 5.166 30.034 11.152.98-1.995 8.09 1.292 9.317-.587 1.226-1.76 6.13-10.447 7.6-12.09 14.588-21.835 38.002-36.626 65.094-40.03 7.723-.94 15.446-1.057 23.17-.235 36.408 3.874 67.177 28.643 78.332 62.333a51.83 51.83 0 0 1 9.317 6.574c1.226 0 4.045 6.456 5.271 6.691 1.226.235 8.581-1.643 9.807-1.29a36.834 36.834 0 0 1 9.562.234c14.956 2.582 26.97 14.204 29.666 29.347.368 1.056 1.226 8.687 1.349 9.86 0 .353 1.839.47 1.839.822.858-.117 6.374-1.173 7.232-1.29 2.452-.353 5.026-.588 7.6-.588 21.33 0 39.351 14.087 44.132 32.4 4.658 18.312-3.923 35.803-18.143 42.611 0 13.618-43.886 24.77-58.106 24.77H2634.56c-18.51 0-75.023-14.322-75.023-32.048-19.247-8.804-31.26-32.164-25.253-56.816 6.006-24.651 30.156-43.55 58.596-43.55 10.298 0 20.35 2.464 29.667 7.043 1.225.469 7.477 3.873 8.703 4.46 0-.939 3.555 0 3.8-.939.368-2.348 1.594-14.087 2.697-16.2 4.168-18.664 21.698-32.633 42.538-32.633" fill="url(#B)"/><path d="M2680.54-3886.623c12.626 0 22.433 5.282 29.175 10.917.736-1.409 8.704 3.17 9.685 1.878.98-1.291 6.13-11.034 7.233-12.208 13.852-22.304 36.653-37.565 63.132-41.79 7.6-1.174 15.2-1.527 22.924-.822 36.286 2.934 67.423 27 79.191 60.22 2.82 2.465 5.517 5.165 8.091 8.452.98 0 3.678 7.748 4.658 7.865.858.117 9.317-2.23 10.175-1.878 3.555-.587 6.865-.704 10.052-.352 15.937 1.995 28.808 14.086 31.26 30.051.245.822 1.226 9.391 1.349 10.33 0 .235 2.206.118 2.206.47.613-.117 6.988-1.291 7.6-1.409 2.575-.352 5.272-.704 7.969-.704 22.433 0 41.189 15.613 44.622 35.686 3.555 19.956-8.214 38.151-25.254 43.317 0 10.212-47.318 18.547-58.106 18.547h-293.229c-13.852 0-75.023-10.682-75.023-23.947-23.17-6.692-39.228-30.991-34.693-57.99 4.536-27 29.667-48.012 59.7-48.012 10.298 0 20.472 2.582 29.912 7.395.98.353 7.968 4.109 8.826 4.578 0-.704 4.29.822 4.413.118.368-1.761 1.349-14.908 2.207-16.435 3.31-19.604 20.962-34.277 41.924-34.277" fill="url(#C)"/><path d="M2680.8-3885.433c12.504 0 22.066 5.283 28.318 10.565.49-.939 9.316 5.165 10.052 4.343.613-.938 6.13-11.503 6.865-12.325 13.117-22.774 35.305-38.621 61.294-43.551 7.355-1.41 14.955-1.879 22.678-1.527 36.164 1.996 67.668 25.356 80.05 57.99 2.574 3.17 4.78 6.457 6.865 10.213.613 0 3.31 8.922 3.922 9.04.613.117 9.93-2.7 10.543-2.583 3.8-.822 7.233-1.174 10.543-.94 16.916 1.292 30.524 13.97 32.73 30.756.246.587 1.104 10.213 1.226 10.8 0 .235 2.452-.117 2.575.117.367-.117 7.477-1.408 7.845-1.526a48.876 48.876 0 0 1 8.336-.704c23.414 0 42.906 17.256 45.235 38.856 2.329 21.6-12.382 40.499-32.24 43.903 0 6.808-50.874 12.326-58.107 12.326h-277.538c-9.194 0-75.023-7.16-75.023-15.965-26.97-4.46-47.074-29.934-44.132-59.164 3.065-29.23 29.176-52.59 60.803-52.59 10.42 0 20.473 2.583 30.157 7.63.613.235 8.336 4.461 8.949 4.696 0-.47 4.903 1.643 5.026 1.174.245-1.174 1.226-15.613 1.716-16.67 2.452-19.603 20.105-34.864 41.312-34.864" fill="url(#D)"/><path d="M2681.062-3884.266c12.381 0 21.575 5.4 27.46 10.33.245-.47 10.052 7.16 10.297 6.691.368-.47 6.13-12.09 6.497-12.443 12.381-23.36 33.957-39.677 59.455-45.195 7.233-1.526 14.71-2.347 22.433-2.113 36.041.94 68.036 23.595 80.785 55.877 2.207 3.757 4.168 7.865 5.64 12.091.367 0 3.064 10.213 3.31 10.33.244 0 10.664-3.286 10.91-3.169 3.922-1.056 7.6-1.643 11.032-1.409 17.776.705 32.364 13.97 34.325 31.46.122.235 1.103 10.918 1.103 11.152 0 .118 2.82-.352 2.82-.234.245 0 7.968-1.526 8.213-1.526 2.82-.47 5.639-.822 8.704-.822 24.517 0 44.622 18.782 45.848 42.025 1.225 23.243-16.55 42.847-39.351 44.608 0 3.404-54.429 6.221-57.984 6.221h-261.847c-4.658 0-75.023-3.522-75.023-7.982-30.892-2.23-55.042-28.76-53.57-60.338 1.47-31.578 28.685-57.05 61.906-57.05 10.42 0 20.595 2.7 30.402 7.864.367.118 8.703 4.696 9.071 4.93 0-.234 5.516 2.583 5.639 2.348.123-.587.98-16.434 1.226-16.904 1.716-20.777 19.369-36.742 40.699-36.742" fill="url(#E)"/><path d="M2973.806-3721.676h-379.162c-34.693 0-63.01-27.586-63.01-61.511 0-33.925 28.317-61.512 63.01-61.512 10.42 0 20.717 2.817 30.524 8.217l15.323 8.452.736-17.256c.858-21.13 18.51-37.799 40.086-37.799 12.258 0 21.207 5.4 26.601 10.096l10.665 9.156 6.13-12.56c14.833-30.64 45.357-49.656 79.681-49.656 40.945 0 77.23 28.525 86.18 67.733l2.696 11.504 11.278-3.874c4.168-1.291 7.846-1.995 11.524-1.995 18.755 0 34.079 13.852 35.918 32.164l.98 11.622 11.769-2.23c2.942-.47 5.884-.94 9.071-.94 25.621 0 46.338 20.308 46.338 45.312 0 24.77-20.84 45.077-46.338 45.077" fill="url(#F)"/><path d="M2921.164-3648.319c-5.272 0-10.543.587-15.569 1.526-3.065-32.047-30.77-57.168-65.094-57.168-7.478 0-14.342 1.408-20.962 3.521-13.853-59.398-69.017-103.889-135.214-103.889-55.41 0-102.728 31.226-125.04 76.186-12.626-10.565-28.93-17.256-46.95-17.256-38.37 0-69.507 29.112-71.223 65.503-14.956-7.983-31.873-12.913-50.139-12.913-56.88 0-102.973 44.138-102.973 98.724 0 54.468 46.215 98.606 102.973 98.606h530.313c44.132 0 79.805-34.278 79.805-76.42-.123-42.143-35.918-76.42-79.927-76.42" fill="#9cb1bf"/><path d="M2910.198-3662.856c-5.271 0-10.543.587-15.569 1.526-3.064-31.93-30.77-57.168-65.093-57.168-7.356 0-14.343 1.409-20.963 3.522-13.852-59.399-69.017-103.89-135.214-103.89-55.287 0-102.728 31.226-125.039 76.186-12.626-10.565-28.93-17.256-47.073-17.256-38.37 0-69.507 29.113-71.224 65.62-14.833-8.1-31.872-13.03-50.138-13.03-56.88 0-103.096 44.256-103.096 98.724s46.093 98.724 103.096 98.724h530.313c44.009 0 79.804-34.278 79.804-76.42 0-42.377-35.795-76.538-79.804-76.538" fill="url(#G)"/><path d="M2501.743-3758.311c17.898 0 33.834 6.69 45.848 16.904 2.697-5.4 7.355-9.157 10.787-13.97 3.433-4.93 8.214-11.504 12.382-15.847 24.272-27.117 59.577-44.49 99.296-45.43 11.278-.234 22.31.822 32.976 3.053 50.628 10.682 90.837 48.598 102.973 97.08 6.13-1.291 12.627-1.76 19.369-1.056 3.555 0 7.355 1.995 10.665 2.582 3.31.587 8.213.822 11.278 1.878a51.502 51.502 0 0 1 10.42 3.522c15.323 6.809 27.337 20.073 32.24 36.156.981 2.934 1.962 7.865 2.452 11.034.123 1.057.736 1.996.858 3.052 2.207-.47 5.762-.939 7.968-1.174 2.82-.352 5.64-.47 8.581-.47 23.415 0 44.377 10.683 57.249 26.765 12.871 16.083 17.652 36.156 13.73 54.938 0 37.447-42.783 67.968-82.011 67.968h-518.055c-55.9 0-101.257-43.434-101.257-97.08 0-53.647 45.358-97.08 101.257-97.08 13.975 0 27.215 2.934 39.474 8.217 3.31 1.408 7.968 3.639 11.155 5.4.122-2.7 1.348-4.813 1.839-7.396 1.103-6.339 3.432-15.026 6.497-20.66 10.665-22.774 34.447-38.386 62.03-38.386" fill="url(#H)"/><path d="M2502.082-3756.776c17.775 0 33.22 6.809 44.621 16.434 2.33-4.695 8.337-6.456 11.279-10.682 3.064-4.343 8.213-12.208 11.89-16.082 23.17-27.821 57.74-45.9 96.722-47.777 11.155-.587 22.066.234 32.608 2.23 50.384 9.391 91.083 46.251 104.077 94.146 5.761-.352 11.646 0 17.652 1.408 3.065 0 6.865 3.757 9.807 4.226 2.82.47 9.072.118 11.769.94 3.923.469 7.6 1.408 11.033 2.7 16.672 5.986 29.789 19.956 34.324 37.212.858 2.582 1.839 8.804 2.33 11.621.122.94 1.225 1.644 1.348 2.583 1.961-.353 6.497-1.174 8.458-1.292 2.942-.352 6.007-.587 8.95-.587 24.884 0 46.705 12.796 57.983 31.226 11.278 18.312 11.891 39.325 4.045 55.76 0 32.75-49.893 59.398-84.217 59.398h-505.796c-54.796 0-99.295-42.73-99.295-95.437s44.499-95.437 99.295-95.437c14.098 0 27.46 3.052 39.719 8.57 2.942 1.173 8.58 4.108 11.4 5.517.123-2.348 2.33-3.64 2.697-5.87.98-5.634 3.188-16.082 5.884-21.012 9.808-23.243 33.59-39.795 61.417-39.795" fill="url(#I)"/><path d="M2502.456-3755.142c17.652 0 32.608 6.926 43.518 16.083 1.962-3.992 9.194-3.757 11.769-7.396 2.574-3.639 8.213-12.913 11.4-16.2 22.189-28.525 55.9-47.307 94.27-50.124 10.91-.822 21.698-.353 32.24 1.408 50.261 7.983 91.45 43.904 105.303 91.211 5.271.587 10.665 1.761 16.06 3.991 2.573 0 6.374 5.4 8.948 5.87 2.452.47 10.052-.704 12.259.117 4.168.118 7.968.822 11.768 1.878 17.898 5.166 32.24 19.839 36.408 38.152.736 2.23 1.84 9.86 2.207 12.208.123.822 1.716 1.291 1.716 2.113 1.594-.352 7.233-1.291 8.95-1.526a62.643 62.643 0 0 1 9.438-.704c26.357 0 49.158 15.025 58.72 35.569 9.684 20.66 6.13 42.612-5.517 56.698 0 28.173-57.003 50.947-86.301 50.947h-493.537c-53.816 0-97.457-42.025-97.457-93.911 0-51.768 43.641-93.91 97.457-93.91 14.098 0 27.582 3.169 40.086 8.92 2.575 1.057 9.072 4.462 11.523 5.753.123-1.996 3.188-2.465 3.555-4.344.859-4.813 2.82-17.138 5.15-21.364 8.212-24.065 31.994-41.439 60.067-41.439" fill="url(#J)"/><path d="M2502.81-3753.505c17.53 0 31.996 7.044 42.293 15.73 1.717-3.404 10.053-.939 12.259-3.99 2.207-3.053 8.336-13.618 10.91-16.435 21.085-29.23 54.061-48.717 91.696-52.473 10.665-1.057 21.453-.94 31.995.47 50.138 6.69 91.818 41.673 106.406 88.276 4.78 1.526 9.562 3.521 14.343 6.456 2.206 0 5.884 7.16 7.968 7.513 2.084.352 10.91-1.409 12.871-.822 4.414-.234 8.459.235 12.504 1.057 19.247 4.343 34.57 19.721 38.493 39.208.613 1.878 1.716 10.8 2.084 12.795.122.704 2.084.94 2.206 1.643 1.349-.234 7.969-1.408 9.44-1.643 3.31-.47 6.62-.704 9.93-.704 27.826 0 51.486 17.138 59.577 40.03 7.968 22.89.367 45.78-15.201 57.52 0 23.477-64.113 42.494-88.508 42.494h-481.278c-52.713 0-95.619-41.32-95.619-92.267 0-50.947 42.906-92.268 95.619-92.268 14.097 0 27.704 3.287 40.33 9.274 2.085.822 9.685 4.813 11.647 5.87.122-1.644 4.045-1.292 4.413-2.818.735-3.991 2.574-18.195 4.413-21.717 6.987-25.003 30.892-43.199 59.21-43.199" fill="url(#K)"/><path d="M2503.16-3751.976c17.408 0 31.383 7.044 41.068 15.261 1.348-2.7 11.032 1.76 12.748-.705 1.717-2.465 8.336-14.438 10.42-16.551 20.105-29.934 52.223-50.125 89.121-54.82a142.5 142.5 0 0 1 31.628-.353c49.893 5.4 92.186 39.325 107.509 85.341 4.413 2.466 8.581 5.283 12.75 8.922 1.715 0 5.516 8.804 7.11 9.156 1.593.235 11.89-2.23 13.361-1.643 4.659-.587 8.95-.352 13.117.352 20.472 3.522 37.022 19.487 40.577 40.147.49 1.526 1.716 11.856 1.96 13.5.124.47 2.575.586 2.575 1.174 1.104-.235 8.827-1.644 9.93-1.761 3.432-.587 6.865-.822 10.42-.822 29.298 0 53.938 19.252 60.313 44.373 6.374 25.121-5.394 49.068-24.885 58.46 0 18.782-71.101 33.925-90.715 33.925h-469.02c-51.731 0-93.779-40.617-93.779-90.624 0-50.008 42.048-90.742 93.78-90.742 14.22 0 27.827 3.405 40.699 9.744 1.716.704 10.174 5.165 11.768 6.104 0-1.291 5.026-.118 5.271-1.409.613-3.17 2.207-19.251 3.8-22.069 5.885-25.708 29.79-44.96 58.475-44.96" fill="url(#L)"/><path d="M2503.345-3750.328c17.285 0 30.892 7.16 39.964 14.909.98-1.996 11.89 4.46 13.24 2.582 1.348-1.878 8.335-15.143 9.929-16.786 19-30.639 50.383-51.534 86.67-57.169 10.296-1.643 20.716-1.995 31.259-1.174 49.77 3.992 92.553 36.978 108.612 82.407a72.77 72.77 0 0 1 11.033 11.504c1.349 0 5.026 10.565 6.252 10.8 1.226.235 12.75-2.935 13.975-2.583 4.903-.821 9.44-1.056 13.852-.47 21.82 2.7 39.474 19.37 42.783 41.204.368 1.057 1.594 12.913 1.84 14.087 0 .352 2.941.235 3.064.587.858-.118 9.562-1.76 10.42-1.878 3.555-.587 7.233-.94 10.91-.94 30.647 0 56.268 21.365 61.048 48.834 4.782 27.352-11.155 52.238-34.446 59.281 0 14.087-78.211 25.474-92.922 25.474h-456.76c-50.629 0-91.818-39.912-91.818-89.098s41.19-89.098 91.818-89.098c14.22 0 28.072 3.522 40.944 10.095 1.226.47 10.788 5.635 12.014 6.222 0-1.057 5.884 1.174 6.129.117.49-2.348 1.961-20.308 3.065-22.42 4.29-26.413 28.317-46.487 57.125-46.487" fill="url(#M)"/><path d="M2503.679-3748.687c17.162 0 30.279 7.278 38.737 14.556.613-1.291 12.872 7.16 13.73 5.87.858-1.292 8.336-15.848 9.317-16.904 18.02-31.226 48.422-52.943 84.095-59.516a129.065 129.065 0 0 1 30.892-1.996c49.647 2.7 92.92 34.63 109.715 79.59 3.433 4.225 6.62 8.92 9.44 13.969.858 0 4.535 12.208 5.393 12.443.858.117 13.73-3.639 14.466-3.404 5.148-1.174 9.93-1.644 14.465-1.292 23.046 1.761 41.802 19.252 44.867 42.143.245.704 1.594 13.852 1.716 14.674 0 .234 3.433-.118 3.433.117.49-.117 10.297-1.996 10.787-1.996 3.678-.587 7.6-1.056 11.401-1.056 32.118 0 58.72 23.595 61.907 53.177 3.187 29.582-16.917 55.524-44.132 60.22 0 9.391-85.32 17.021-95.128 17.021H2384.28c-49.648 0-89.98-39.207-89.98-87.454 0-48.247 40.332-87.454 89.98-87.454 14.22 0 28.195 3.521 41.311 10.447.859.352 11.279 5.987 12.137 6.456 0-.704 6.865 2.348 6.987 1.644.245-1.644 1.594-21.365 2.33-22.773 3.554-27.587 27.581-48.482 56.635-48.482" fill="url(#N)"/><path d="M2503.994-3747.142c16.917 0 29.666 7.278 37.512 14.087.368-.705 13.73 9.86 14.22 9.273.49-.586 8.336-16.551 8.826-17.138 16.917-31.93 46.583-54.351 81.52-61.864 9.93-2.113 20.105-3.17 30.525-2.817 49.403 1.291 93.29 32.399 110.82 76.654 3.064 5.166 5.638 10.683 7.722 16.435.49 0 4.046 13.97 4.536 14.087.368.117 14.588-4.461 14.956-4.344 5.394-1.526 10.297-2.23 15.2-2.113 24.395.94 44.254 19.134 46.951 43.082.123.352 1.471 14.908 1.594 15.26 0 .118 3.923-.47 3.923-.352.245 0 11.033-2.113 11.278-2.113 3.8-.704 7.845-1.174 11.89-1.174 33.59 0 61.05 25.708 62.643 57.638 1.594 31.93-22.679 58.694-53.816 61.042 0 4.696-92.43 8.452-97.334 8.452h-432.243c-48.545 0-88.14-38.503-88.14-85.811 0-47.308 39.595-85.928 88.14-85.928 14.342 0 28.317 3.639 41.557 10.8.368.117 11.89 6.338 12.259 6.573 0-.352 7.722 3.522 7.722 3.17.123-.822 1.349-22.422 1.717-23.126 2.574-27.939 26.601-49.773 56.022-49.773" fill="url(#O)"/><path d="M2904.796-3524.454H2385.27c-47.564 0-86.301-37.8-86.301-84.168 0-46.486 38.737-84.285 86.301-84.285 14.343 0 28.44 3.756 41.925 11.27l21.085 11.386.98-23.478c1.227-28.995 25.376-51.65 54.92-51.65 16.794 0 29.053 7.395 36.408 13.734l14.71 12.56 8.337-17.256c20.35-41.907 62.151-67.968 109.102-67.968 56.145 0 105.793 38.973 118.052 92.737l3.555 15.613 15.569-5.165c5.639-1.878 10.787-2.818 15.813-2.818 25.621 0 46.706 19.017 49.036 44.139l1.47 15.964 16.06-3.052c4.045-.704 8.213-1.174 12.38-1.174 35.06 0 63.501 27.821 63.501 61.982.123 33.807-28.318 61.629-63.378 61.629" fill="url(#P)"/></svg>