<svg xmlns="http://www.w3.org/2000/svg" xmlns:xlink="http://www.w3.org/1999/xlink" viewBox="3264.2 -4246.5 841.9 841.90004" width="841.9" height="841.9"><defs><linearGradient id="D" gradientUnits="userSpaceOnUse" y1="-3822.69" x2="0" y2="-4068.11" xlink:href="#a" gradientTransform="translate(-552.407 799.826) scale(1.155)"/><linearGradient id="x" gradientUnits="userSpaceOnUse" y1="-3813.21" x2="0" y2="-4074.79" xlink:href="#b" gradientTransform="translate(-551.64 799.741) scale(1.155)"/><linearGradient id="v" gradientUnits="userSpaceOnUse" y1="-3810.05" x2="0" y2="-4077.66" xlink:href="#c" gradientTransform="translate(-551.954 799.776) scale(1.155)"/><linearGradient id="w" gradientUnits="userSpaceOnUse" y1="-3811.63" x2="0" y2="-4076.19" xlink:href="#d" gradientTransform="translate(-551.713 799.777) scale(1.155)"/><linearGradient id="y" gradientUnits="userSpaceOnUse" y1="-3814.79" x2="0" y2="-4073.48" xlink:href="#e" gradientTransform="translate(-551.616 799.758) scale(1.155)"/><linearGradient id="z" gradientUnits="userSpaceOnUse" y1="-3816.37" x2="0" y2="-4072.24" xlink:href="#f" gradientTransform="translate(-551.75 799.75) scale(1.155)"/><linearGradient id="C" gradientUnits="userSpaceOnUse" y1="-3821.11" x2="0" y2="-4069.03" xlink:href="#g" gradientTransform="translate(-552.218 799.792) scale(1.155)"/><linearGradient id="A" gradientUnits="userSpaceOnUse" y1="-3817.95" x2="0" y2="-4071.09" xlink:href="#h" gradientTransform="translate(-551.903 799.757) scale(1.155)"/><linearGradient id="B" gradientUnits="userSpaceOnUse" y1="-3819.53" x2="0" y2="-4070.02" xlink:href="#i" gradientTransform="translate(-552.036 799.777) scale(1.155)"/><linearGradient id="u" gradientUnits="userSpaceOnUse" y1="-3808.48" x2="0" y2="-4079.22" xlink:href="#j" gradientTransform="translate(-552.352 799.819) scale(1.155)"/><linearGradient id="a" gradientUnits="userSpaceOnUse" y1="-4024" x2="0" y2="-4203.22"><stop stop-color="#a7c2d4"/><stop offset="1" stop-color="#eaf7ff"/></linearGradient><linearGradient id="d" gradientUnits="userSpaceOnUse" y1="-4015.99" x2="0" y2="-4209.1"><stop stop-color="#99bbce"/><stop offset="1" stop-color="#d3e4ed"/></linearGradient><linearGradient id="j" gradientUnits="userSpaceOnUse" y1="-4013.71" x2="0" y2="-4211.32"><stop stop-color="#95b9cc"/><stop offset="1" stop-color="#cddee8"/></linearGradient><linearGradient id="c" gradientUnits="userSpaceOnUse" y1="-4014.85" x2="0" y2="-4210.18"><stop stop-color="#97bacd"/><stop offset="1" stop-color="#d0e1eb"/></linearGradient><linearGradient id="b" gradientUnits="userSpaceOnUse" y1="-4017.14" x2="0" y2="-4208.07"><stop stop-color="#9bbccf"/><stop offset="1" stop-color="#d7e6f0"/></linearGradient><linearGradient id="g" gradientUnits="userSpaceOnUse" y1="-4022.86" x2="0" y2="-4203.87"><stop stop-color="#a5c1d3"/><stop offset="1" stop-color="#e7f4fc"/></linearGradient><linearGradient id="e" gradientUnits="userSpaceOnUse" y1="-4018.28" x2="0" y2="-4207.11"><stop stop-color="#9dbdd0"/><stop offset="1" stop-color="#dae9f2"/></linearGradient><linearGradient id="i" gradientUnits="userSpaceOnUse" y1="-4021.71" x2="0" y2="-4204.59"><stop stop-color="#a3c0d2"/><stop offset="1" stop-color="#e4f1fa"/></linearGradient><linearGradient id="f" gradientUnits="userSpaceOnUse" y1="-4019.43" x2="0" y2="-4206.21"><stop stop-color="#9fbed0"/><stop offset="1" stop-color="#ddecf5"/></linearGradient><linearGradient id="h" gradientUnits="userSpaceOnUse" y1="-4020.57" x2="0" y2="-4205.36"><stop stop-color="#a1bfd1"/><stop offset="1" stop-color="#e0eff7"/></linearGradient><linearGradient xlink:href="#j" id="k" gradientUnits="userSpaceOnUse" y1="-4013.71" x2="0" y2="-4211.32" gradientTransform="translate(-574.13 825.285) scale(1.155)"/><linearGradient xlink:href="#c" id="l" gradientUnits="userSpaceOnUse" y1="-4014.85" x2="0" y2="-4210.18" gradientTransform="translate(-574.227 825.28) scale(1.155)"/><linearGradient xlink:href="#d" id="m" gradientUnits="userSpaceOnUse" y1="-4015.99" x2="0" y2="-4209.1" gradientTransform="translate(-574.28 825.264) scale(1.155)"/><linearGradient xlink:href="#b" id="n" gradientUnits="userSpaceOnUse" y1="-4017.14" x2="0" y2="-4208.07" gradientTransform="translate(-574.275 825.252) scale(1.155)"/><linearGradient xlink:href="#e" id="o" gradientUnits="userSpaceOnUse" y1="-4018.28" x2="0" y2="-4207.11" gradientTransform="translate(-574.283 825.223) scale(1.155)"/><linearGradient xlink:href="#f" id="p" gradientUnits="userSpaceOnUse" y1="-4019.43" x2="0" y2="-4206.21" gradientTransform="translate(-574.27 825.237) scale(1.155)"/><linearGradient xlink:href="#h" id="q" gradientUnits="userSpaceOnUse" y1="-4020.57" x2="0" y2="-4205.36" gradientTransform="translate(-574.211 825.252) scale(1.155)"/><linearGradient xlink:href="#i" id="r" gradientUnits="userSpaceOnUse" y1="-4021.71" x2="0" y2="-4204.59" gradientTransform="translate(-574.202 825.269) scale(1.155)"/><linearGradient xlink:href="#g" id="s" gradientUnits="userSpaceOnUse" y1="-4022.86" x2="0" y2="-4203.87" gradientTransform="translate(-574.16 825.264) scale(1.155)"/><linearGradient xlink:href="#a" id="t" gradientUnits="userSpaceOnUse" y1="-4024" x2="0" y2="-4203.22" gradientTransform="translate(-574.13 825.285) scale(1.155)"/></defs><path d="M4030.186-3925.795c-4.273 0-8.316.462-12.358 1.27-2.31-26.565-24.37-47.355-51.513-47.355-5.89 0-11.435 1.155-16.632 3.003-10.973-49.203-54.632-85.932-107.184-85.932-43.775 0-81.428 25.872-99.1 62.948-9.932-8.778-22.868-14.322-37.19-14.322-30.492 0-55.094 24.14-56.364 54.17-11.781-6.584-25.18-10.742-39.732-10.742-45.045 0-81.659 36.613-81.659 81.658s36.614 81.659 81.659 81.659h420.073c34.881 0 63.179-28.298 63.179-63.179.115-34.88-28.182-63.178-63.179-63.178" fill="#9cb1bf"/><path d="M4023.463-3936.895c-4.158 0-8.316.462-12.358 1.27-2.31-26.565-24.37-47.355-51.513-47.355-5.89 0-11.435 1.155-16.632 3.003-10.973-49.203-54.632-85.932-107.184-85.932-43.775 0-81.312 25.872-98.984 63.063-9.933-8.778-22.869-14.322-37.19-14.322-30.377 0-55.094 24.14-56.365 54.17-11.78-6.584-25.294-10.742-39.732-10.742-45.045 0-81.658 36.498-81.658 81.659 0 45.16 36.613 81.543 81.658 81.543h420.074c34.88 0 63.294-28.298 63.294-63.179-.231-34.88-28.529-63.178-63.41-63.178" fill="url(#k)"/><path d="M3699.62-4015.903c14.207 0 26.796 5.66 36.267 13.976 2.079-4.39 5.775-7.508 8.547-11.55 2.772-4.043 6.468-9.471 9.817-13.167 19.173-22.523 47.24-36.845 78.656-37.653 9.009-.231 17.787.693 26.334 2.54 40.078 8.894 71.841 40.195 81.543 80.273 4.851-1.04 9.933-1.501 15.361-.924 2.772 0 5.891 1.733 8.432 2.195 2.541.462 6.468.693 8.893 1.501 2.888.693 5.545 1.617 8.201 2.888 12.127 5.66 21.714 16.516 25.526 29.914.808 2.426 1.501 6.468 1.963 9.125.116.924.578 1.617.693 2.54 1.732-.346 4.62-.808 6.353-1.039 2.194-.23 4.504-.462 6.698-.462 18.596 0 35.228 8.894 45.392 22.176 10.164 13.283 13.976 29.915 10.857 45.392 0 30.954-32.224 56.133-63.178 56.133H3612.88c-40.079 0-81.659-32.456-81.659-72.534-4.158-20.097.578-41.696 13.629-59.02 13.167-17.441 34.65-28.991 58.905-28.991 11.088 0 21.599 2.425 31.185 6.699 2.656 1.155 6.353 3.003 8.893 4.504.116-2.194 1.04-3.927 1.387-6.006.924-5.313 2.772-12.474 5.197-17.094 8.547-18.48 27.374-31.416 49.203-31.416" fill="url(#l)"/><path d="M3699.913-4014.648c14.09 0 26.334 5.66 35.343 13.629 1.848-3.927 6.583-5.313 8.893-8.778 2.426-3.58 6.584-10.164 9.471-13.283 18.365-23.1 45.738-38 76.577-39.616 8.893-.462 17.556.23 25.987 1.848 39.963 7.738 72.072 38.23 82.352 77.847 4.504-.231 9.24 0 14.09 1.155 2.426 0 5.43 3.118 7.74 3.465 2.31.462 7.16 0 9.355.808 3.118.462 6.006 1.155 8.778 2.195 13.167 4.966 23.562 16.516 27.142 30.723.693 2.194 1.502 7.392 1.848 9.586.116.809.924 1.386 1.04 2.195 1.501-.347 5.197-.924 6.699-1.155 2.31-.347 4.735-.462 7.16-.462 19.751 0 37.076 10.626 45.97 25.872 8.893 15.13 9.355 32.57 3.234 46.2 0 27.142-36.036 49.087-63.179 49.087h-386.116c-35.112 0-81.543-28.413-81.543-63.41-8.316-17.555-8.085-40.309 3.465-60.406 11.55-19.981 34.188-34.072 60.06-34.072 11.088 0 21.714 2.54 31.531 7.045 2.31 1.04 6.815 3.35 9.01 4.62.115-1.963 1.732-3.003 2.078-4.85.809-4.62 2.541-13.399 4.62-17.441 7.508-19.058 26.334-32.802 48.395-32.802" fill="url(#m)"/><path d="M3700.149-4013.274c13.976 0 25.872 5.775 34.419 13.283 1.617-3.35 7.276-3.003 9.355-6.122 2.08-3.003 6.584-10.741 9.01-13.398 17.555-23.562 44.236-39.154 74.612-41.58 8.663-.693 17.325-.23 25.757 1.155 39.732 6.7 72.418 36.383 83.275 75.422a44.117 44.117 0 0 1 12.705 3.35c2.08 0 5.082 4.504 7.046 4.85 1.964.347 7.97-.577 9.702.116 3.234.115 6.353.693 9.24 1.617 14.207 4.273 25.526 16.4 28.875 31.531.578 1.848 1.386 8.2 1.732 10.164.116.693 1.271 1.04 1.387 1.733 1.27-.231 5.774-1.155 7.045-1.27 2.425-.347 4.966-.578 7.508-.578 20.905 0 38.923 12.358 46.546 29.452 7.623 17.094 4.851 35.228-4.389 46.893 0 23.216-39.847 42.042-63.178 42.042h-369.138c-30.03 0-81.543-24.37-81.543-54.4-12.59-15.015-16.632-39.04-6.815-61.677 9.818-22.638 33.726-39.155 61.215-39.155 11.088 0 21.83 2.657 31.763 7.392 1.963.809 7.276 3.696 9.124 4.736.116-1.617 2.541-1.964 2.772-3.58.693-3.928 2.31-14.207 4.043-17.672 6.814-19.982 25.64-34.304 47.932-34.304" fill="url(#n)"/><path d="M3700.372-4012.033c13.86 0 25.41 5.775 33.495 13.052 1.27-2.772 7.97-.809 9.702-3.35 1.733-2.54 6.584-11.319 8.663-13.513 16.747-24.14 42.735-40.31 72.534-43.428 8.547-.924 17.094-.693 25.41.462 39.616 5.544 72.65 34.419 84.2 72.996a51.337 51.337 0 0 1 11.434 5.428c1.732 0 4.735 5.89 6.352 6.237 1.617.347 8.663-1.27 10.164-.693a38.846 38.846 0 0 1 9.818.924c15.246 3.58 27.373 16.286 30.492 32.34.462 1.502 1.386 9.01 1.617 10.626.115.578 1.617.809 1.732 1.386 1.155-.23 6.353-1.27 7.508-1.386 2.54-.346 5.197-.693 7.854-.693 22.06 0 40.887 14.207 47.24 33.149 6.352 18.942.23 37.884-12.013 47.586 0 19.404-43.774 35.112-63.063 35.112h-352.16c-25.063 0-81.542-20.213-81.542-45.276-16.748-12.474-25.295-37.769-17.094-63.063 8.2-25.295 33.148-44.237 62.485-44.237 11.204 0 21.945 2.657 31.994 7.739 1.732.693 7.738 4.042 9.24 4.966.115-1.386 3.234-1.04 3.465-2.31.577-3.35 1.963-15.13 3.58-18.018 5.544-20.905 24.486-36.036 46.893-36.036" fill="url(#o)"/><path d="M3700.615-4010.748c13.86 0 24.833 5.89 32.571 12.705 1.04-2.195 8.663 1.386 10.049-.578 1.386-2.079 6.583-11.896 8.2-13.744 15.824-24.717 41.35-41.465 70.57-45.392 8.317-1.155 16.748-1.155 25.18-.23 39.5 4.388 72.88 32.57 85.008 70.57 3.465 1.963 6.814 4.389 10.164 7.507 1.386 0 4.389 7.392 5.66 7.623 1.27.231 9.355-1.848 10.625-1.386 3.696-.462 7.046-.346 10.395.347 16.286 2.887 29.337 16.17 32.225 33.148.346 1.27 1.386 9.818 1.501 11.204.116.462 1.964.462 2.08.924.923-.231 6.93-1.386 7.853-1.502a48.476 48.476 0 0 1 8.316-.693c23.216 0 42.735 15.94 47.817 36.73 5.082 20.79-4.273 40.54-19.75 48.278 0 15.477-47.586 28.067-63.063 28.067h-335.181c-19.982 0-81.428-16.17-81.428-36.267-20.905-10.049-33.957-36.498-27.373-64.334 6.583-27.95 32.686-49.434 63.64-49.434 11.204 0 22.06 2.772 32.225 7.97 1.386.577 8.2 4.389 9.355 5.082 0-1.04 3.927 0 4.043-1.04.462-2.656 1.732-16.054 3.003-18.249 4.735-21.367 23.793-37.306 46.315-37.306" fill="url(#p)"/><path d="M3701.021-4009.347c13.745 0 24.37 6.006 31.647 12.358.808-1.617 9.471 3.696 10.51 2.08 1.04-1.502 6.584-12.475 7.855-13.86 15.014-25.295 39.847-42.62 68.491-47.356 8.2-1.386 16.517-1.732 24.832-.924 39.386 3.35 73.227 30.608 85.932 68.145 3.119 2.772 6.006 5.891 8.778 9.587 1.04 0 4.043 8.778 4.967 8.893.924.231 10.048-2.425 10.972-2.194 3.927-.693 7.508-.809 10.857-.347 17.325 2.195 31.301 16.055 33.842 34.073.346.924 1.27 10.741 1.386 11.665 0 .347 2.31.231 2.425.578.693-.116 7.508-1.502 8.201-1.617 2.772-.462 5.66-.809 8.662-.809 24.371 0 44.583 17.787 48.395 40.425 3.811 22.638-8.894 43.197-27.374 49.088 0 11.665-51.397 21.021-63.063 21.021h-318.202c-15.015 0-81.428-12.127-81.428-27.258-25.063-7.508-42.504-35.112-37.537-65.72 4.966-30.607 32.224-54.516 64.795-54.516 11.204 0 22.176 2.888 32.456 8.316 1.04.462 8.547 4.736 9.586 5.198 0-.808 4.62.924 4.736.116.346-1.964 1.501-16.864 2.425-18.596 3.927-21.714 22.985-38.346 45.854-38.346" fill="url(#q)"/><path d="M3701.261-4008.06c13.63 0 23.909 6.006 30.723 12.012.578-1.155 10.164 5.89 10.857 4.851.693-1.04 6.584-13.051 7.392-13.975 14.207-25.872 38.346-43.775 66.528-49.319 7.97-1.617 16.286-2.194 24.602-1.617 39.27 2.195 73.458 28.644 86.856 65.72 2.772 3.58 5.197 7.392 7.507 11.665.693 0 3.696 10.164 4.274 10.28.693.115 10.857-3.119 11.434-2.888 4.043-.924 7.854-1.27 11.435-1.04 18.249 1.502 33.148 15.94 35.574 34.882.23.577 1.27 11.55 1.27 12.127 0 .231 2.772-.115 2.772.116.462-.116 8.085-1.617 8.547-1.617 2.888-.462 5.89-.809 9.01-.809 25.41 0 46.546 19.52 49.087 44.006 2.54 24.486-13.398 45.969-34.997 49.78 0 7.739-55.209 13.976-63.063 13.976h-301.224c-10.048 0-81.427-8.085-81.427-18.134-29.337-4.966-51.167-33.841-47.817-67.105 3.234-33.149 31.647-59.598 65.95-59.598 11.32 0 22.292 3.003 32.687 8.662.693.231 9.009 4.967 9.702 5.429 0-.578 5.313 1.963 5.428 1.386.231-1.27 1.27-17.787 1.848-18.942 2.888-22.407 22.06-39.848 45.045-39.848" fill="url(#r)"/><path d="M3701.535-4006.678c13.513 0 23.446 6.122 29.799 11.665.23-.577 10.857 8.086 11.203 7.624.347-.462 6.584-13.63 7.046-14.091 13.398-26.45 36.844-44.93 64.564-51.282 7.854-1.848 16.055-2.657 24.255-2.426 39.155 1.155 73.805 26.796 87.665 63.294a77.69 77.69 0 0 1 6.121 13.745c.347 0 3.234 11.55 3.58 11.665.347.116 11.55-3.696 11.897-3.58 4.274-1.271 8.2-1.849 12.012-1.618 19.289.693 35.112 15.824 37.191 35.69.116.346 1.155 12.358 1.27 12.705 0 .115 3.119-.347 3.119-.231.231 0 8.663-1.733 8.894-1.733 3.003-.577 6.237-.924 9.355-.924 26.565 0 48.395 21.252 49.665 47.702 1.27 26.334-18.018 48.625-42.62 50.473 0 3.927-59.135 7.046-62.947 7.046h-284.13c-4.966 0-81.427-4.043-81.427-9.124-33.495-2.542-59.714-32.572-58.097-68.377 1.617-35.805 31.185-64.68 67.221-64.68 11.319 0 22.407 3.004 32.918 9.01.346.115 9.47 5.312 9.817 5.543 0-.23 6.006 2.888 6.122 2.657.115-.693 1.039-18.596 1.386-19.173 1.848-23.562 20.905-41.58 44.12-41.58" fill="url(#s)"/><path d="M4019.19-3822.435h-411.527c-37.653 0-68.376-31.3-68.376-69.762 0-38.461 30.723-69.762 68.376-69.762 11.32 0 22.523 3.119 33.149 9.24l16.632 9.587.808-19.52c.924-23.908 20.097-42.735 43.544-42.735 13.398 0 22.984 6.122 28.76 11.435l11.665 10.395 6.699-14.207c16.054-34.65 49.203-56.248 86.51-56.248 44.467 0 83.737 32.224 93.439 76.692l2.887 13.051 12.243-4.389c4.505-1.501 8.547-2.31 12.474-2.31 20.328 0 36.96 15.708 38.924 36.498l1.155 13.167 12.705-2.54c3.234-.578 6.468-1.04 9.817-1.04 27.72 0 50.358 23.1 50.358 51.282 0 28.182-22.522 51.166-50.242 51.166" fill="url(#t)"/><path d="M3975.275-3758.441c-5.775 0-11.434.577-16.863 1.732-3.234-36.382-33.495-64.795-70.57-64.795-8.085 0-15.593 1.617-22.754 4.042-15.015-67.336-74.96-117.694-146.8-117.694-60.06 0-111.458 35.458-135.713 86.278-13.629-12.012-31.416-19.635-51.05-19.635-41.696 0-75.422 33.033-77.27 74.267-16.17-9.01-34.65-14.669-54.516-14.669-61.677 0-111.804 50.012-111.804 111.92 0 61.792 50.127 111.804 111.804 111.804h575.42c47.818 0 86.626-38.808 86.626-86.51 0-47.932-38.693-86.74-86.51-86.74" fill="#9cb1bf"/><path d="M3964.275-3772.133c-5.775 0-11.434.577-16.863 1.732-3.234-36.267-33.495-64.795-70.57-64.795-7.97 0-15.593 1.617-22.754 4.042-15.015-67.336-74.96-117.694-146.8-117.694-60.06 0-111.458 35.458-135.713 86.278-13.629-12.012-31.416-19.52-51.05-19.52-41.696 0-75.422 33.034-77.27 74.267-16.17-9.124-34.535-14.784-54.516-14.784-61.793 0-111.804 50.127-111.804 111.804 0 61.793 50.011 111.804 111.804 111.804h575.42c47.818 0 86.626-38.808 86.626-86.625.115-47.817-38.693-86.51-86.51-86.51" fill="url(#u)"/><path d="M3521.27-3880.4c19.519 0 36.728 7.624 49.78 19.174 2.887-6.122 7.97-10.28 11.665-15.824 3.812-5.544 8.894-13.051 13.398-18.018 26.334-30.723 64.68-50.473 107.762-51.513a144.4 144.4 0 0 1 34.765 3.234c55.44 11.781 99.446 54.978 112.844 110.303 6.699-1.386 13.629-2.08 20.905-1.27 3.812 0 7.97 2.31 11.55 3.002 3.58.578 8.894.924 12.243 2.08 3.927.923 7.739 2.31 11.32 3.926 16.747 7.739 29.683 22.754 34.996 41.003 1.155 3.35 2.079 8.893 2.656 12.474.231 1.155 1.04 2.194 1.155 3.465 2.195-.462 5.775-1.04 8.085-1.27 3.234-.347 6.468-.578 9.702-.578 25.41 0 48.164 12.127 62.024 30.376 13.975 18.25 19.173 41.003 14.9 62.255 0 42.504-46.432 76.923-88.936 76.923h-562.138c-60.638 0-109.84-49.203-109.84-110.072 0-60.753 49.202-110.071 109.84-110.071 15.246 0 29.568 3.35 42.85 9.24 3.696 1.501 8.663 4.158 12.128 6.121.115-3.003 1.501-5.428 1.963-8.316 1.27-7.276 3.812-17.094 7.046-23.33 11.665-25.642 37.422-43.313 67.336-43.313" fill="url(#v)"/><path d="M3521.856-3878.666c19.289 0 36.036 7.738 48.395 18.71 2.54-5.312 9.009-7.276 12.243-12.127 3.234-4.85 8.893-13.86 12.936-18.249 25.179-31.531 62.6-51.975 104.99-54.17a149.42 149.42 0 0 1 34.534 2.31c55.209 10.396 99.792 52.322 113.883 106.954 6.237-.347 12.59 0 19.173 1.617 3.35 0 7.507 4.273 10.626 4.85 3.118.578 9.817.116 12.82 1.156 4.274.577 8.2 1.617 12.012 3.003 18.018 6.814 32.34 22.638 37.191 42.157.924 3.003 2.08 10.049 2.541 13.167.116 1.04 1.617 1.848 1.733 2.888 1.963-.347 6.468-1.155 8.431-1.386a73.884 73.884 0 0 1 10.164-.693c27.027 0 50.705 14.553 62.948 35.343 12.243 20.79 12.936 44.583 4.389 63.178 0 37.191-54.17 67.337-91.36 67.337h-548.857c-59.482 0-107.761-48.395-107.761-108.224 0-59.713 48.279-108.223 107.761-108.223 15.246 0 29.8 3.465 43.197 9.702 3.234 1.386 9.356 4.62 12.359 6.352.115-2.656 2.425-4.042 2.887-6.699 1.155-6.352 3.465-18.249 6.353-23.793 10.395-26.334 36.151-45.16 66.412-45.16" fill="url(#w)"/><path d="M3522.277-3876.854c19.173 0 35.343 7.854 47.124 18.25 2.194-4.505 9.933-4.159 12.82-8.317 2.772-4.158 9.01-14.668 12.359-18.364 24.024-32.34 60.637-53.592 102.217-56.826 11.55-.924 22.985-.462 34.304 1.386 54.978 8.893 100.023 49.78 115.038 103.603 5.66.693 11.55 1.964 17.325 4.39 2.887 0 6.93 6.12 9.702 6.698 2.656.462 10.857-.808 13.398.116 4.504.115 8.662.924 12.82 2.194 19.52 5.89 34.997 22.407 39.501 43.313.809 2.54 1.964 11.203 2.31 13.86.116.924 2.31 1.386 2.426 2.31 1.617-.347 7.16-1.386 8.778-1.502 3.465-.462 7.045-.808 10.626-.808 28.644 0 53.36 16.978 63.756 40.31 10.395 23.33 6.583 48.278-6.006 64.217 0 31.878-61.793 57.75-93.67 57.75H3391.53c-58.328 0-105.798-47.586-105.798-106.375 0-58.674 47.355-106.376 105.798-106.376 15.246 0 29.914 3.58 43.543 10.164 2.772 1.155 9.933 5.082 12.474 6.468.116-2.31 3.465-2.772 3.812-4.966.924-5.429 3.118-19.404 5.544-24.14 9.009-27.604 34.88-47.355 65.373-47.355" fill="url(#x)"/><path d="M3522.646-3874.99c19.058 0 34.766 7.97 45.854 17.788 1.848-3.812 10.972-1.155 13.282-4.62 2.31-3.465 9.01-15.477 11.781-18.596 22.87-33.148 58.674-55.209 99.446-59.482 11.319-1.27 22.753-1.04 33.957.462 54.747 7.392 100.254 47.124 116.077 100.254 5.198 1.732 10.395 3.927 15.593 7.276 2.425 0 6.468 8.085 8.662 8.547 2.195.347 11.897-1.617 13.976-.924 4.735-.23 9.24.231 13.513 1.27 20.906 4.967 37.538 22.292 41.811 44.353.693 2.079 1.848 12.358 2.195 14.553.115.693 3.003.924 3.003 1.732 1.386-.23 7.738-1.501 9.24-1.617 3.58-.577 7.392-.924 11.088-.924 30.145 0 55.902 19.404 64.564 45.276 8.663 25.872.347 51.975-16.516 65.258 0 26.565-69.531 48.048-96.096 48.048h-522.291c-57.288 0-103.72-46.778-103.72-104.528 0-57.75 46.547-104.527 103.72-104.527 15.361 0 30.03 3.696 43.774 10.51 2.31.924 10.51 5.429 12.705 6.7.116-1.849 4.39-1.387 4.736-3.235.808-4.504 2.772-20.674 4.85-24.601 8.201-28.298 34.073-48.972 64.796-48.972" fill="url(#y)"/><path d="M3522.858-3873.149c18.827 0 34.073 7.97 44.583 17.325 1.386-3.003 12.012 1.964 13.86-.808 1.848-2.773 9.01-16.286 11.32-18.827 21.713-33.842 56.594-56.826 96.788-62.139 11.204-1.502 22.523-1.733 33.726-.462 54.516 5.89 100.6 44.583 117.233 96.904 4.735 2.772 9.355 6.006 13.744 10.049 1.848 0 5.89 10.048 7.739 10.395 1.732.346 12.82-2.426 14.553-1.848 5.082-.578 9.702-.462 14.206.346 22.292 4.043 40.194 22.176 44.121 45.507.578 1.733 1.848 13.398 2.08 15.246.115.578 3.695.462 3.695 1.155 1.155-.23 8.432-1.616 9.587-1.732 3.811-.578 7.623-1.04 11.55-1.04 31.762 0 58.443 21.83 65.488 50.359 6.93 28.413-5.89 55.555-27.027 66.181 0 21.252-77.154 38.462-98.406 38.462H3392.69c-56.133 0-101.756-45.97-101.756-102.68 0-56.71 45.623-102.795 101.756-102.795 15.361 0 30.26 3.812 44.12 10.973 1.849.808 11.089 5.89 12.821 6.93.116-1.502 5.429-.116 5.66-1.502.577-3.58 2.425-21.83 4.042-24.948 6.584-29.337 32.571-51.051 63.525-51.051" fill="url(#z)"/><path d="M3523.168-3871.41c18.711 0 33.495 8.085 43.313 16.863 1.04-2.31 12.936 4.967 14.322 2.888 1.386-2.08 9.009-17.094 10.741-18.942 20.675-34.65 54.632-58.328 94.017-64.796 10.973-1.848 22.292-2.31 33.495-1.386 54.285 4.39 100.832 41.927 118.272 93.67 4.274 3.697 8.2 7.97 12.012 12.937 1.386 0 5.429 12.012 6.815 12.243 1.386.23 13.86-3.35 15.13-2.888 5.313-1.04 10.28-1.155 15.015-.577 23.678 3.003 42.85 21.945 46.316 46.662.462 1.27 1.732 14.553 1.963 15.939.116.462 4.274.115 4.39.462.808-.116 9.124-1.733 10.048-1.848a69.316 69.316 0 0 1 12.012-1.04c33.264 0 61.1 24.255 66.297 55.325 5.197 31.07-12.128 59.251-37.422 67.22 0 15.94-84.893 28.876-100.832 28.876h-495.726c-54.978 0-99.676-45.16-99.676-100.947 0-55.671 44.698-100.947 99.676-100.947 15.477 0 30.377 3.927 44.468 11.434 1.386.578 11.665 6.353 12.936 7.046 0-1.155 6.352 1.27 6.583.115.462-2.772 2.08-22.984 3.35-25.41 5.082-30.145 31.185-52.899 62.485-52.899" fill="url(#A)"/><path d="M3523.382-3869.541c18.595 0 32.802 8.2 42.042 16.4.693-1.5 13.975 8.086 14.9 6.7.923-1.386 9.008-17.903 10.163-19.173 19.52-35.459 52.553-59.945 91.245-67.452 10.857-2.195 21.945-2.888 33.264-2.31 53.939 3.003 101.063 39.27 119.312 90.32a107.838 107.838 0 0 1 10.164 15.709c.924 0 4.966 13.86 5.89 14.09.924.116 14.9-4.157 15.708-3.81 5.66-1.387 10.742-1.849 15.708-1.502 25.064 2.079 45.392 21.83 48.626 47.701.23.809 1.732 15.708 1.848 16.632 0 .347 4.966-.346 4.966-.115.578-.116 9.818-1.964 10.395-1.964 4.043-.693 8.316-1.155 12.474-1.155 34.881 0 63.64 26.68 67.106 60.291 3.465 33.61-18.365 62.832-47.933 68.145 0 10.626-92.515 19.289-103.141 19.289H3393.79c-53.823 0-97.713-44.352-97.713-99.1 0-54.63 43.774-99.098 97.713-99.098 15.477 0 30.607 4.042 44.814 11.896.924.347 12.358 6.815 13.167 7.277 0-.809 7.392 2.656 7.507 1.848.347-1.848 1.733-24.255 2.541-25.757 3.927-31.07 30.03-54.862 61.562-54.862" fill="url(#B)"/><path d="M3523.546-3867.679c18.48 0 32.224 8.316 40.771 16.055.347-.809 14.9 11.088 15.362 10.395.462-.693 9.009-18.711 9.586-19.404 18.365-36.267 50.59-61.562 88.473-70.109 10.626-2.425 21.714-3.58 32.918-3.234 53.707 1.502 101.409 36.73 120.466 86.972 3.234 5.775 6.006 12.012 8.432 18.595.462 0 4.389 15.824 4.85 15.94.463.115 15.824-4.967 16.286-4.852 5.89-1.732 11.204-2.54 16.401-2.31 26.45 1.04 48.048 21.714 50.936 48.857.115.462 1.617 16.863 1.732 17.325 0 .115 5.66-.809 5.66-.693.23 0 10.51-2.08 10.857-2.08 4.158-.808 8.547-1.27 12.936-1.27 36.498 0 66.297 29.106 68.03 65.258 1.732 36.151-24.602 66.528-58.328 69.184 0 5.313-100.254 9.587-105.567 9.587H3394.3c-52.668 0-95.634-43.544-95.634-97.251 0-53.708 42.966-97.367 95.634-97.367 15.477 0 30.723 4.158 45.16 12.243.463.231 12.937 7.161 13.283 7.392 0-.346 8.432 3.927 8.432 3.58.115-.923 1.386-25.41 1.848-26.218 2.54-31.878 28.644-56.595 60.522-56.595" fill="url(#C)"/><path d="M3958.446-3615.392h-563.64c-51.629 0-93.67-42.735-93.67-95.403 0-52.668 42.041-95.519 93.67-95.519 15.592 0 30.838 4.274 45.507 12.705l22.869 12.936 1.04-26.565c1.27-32.802 27.488-58.558 59.597-58.558 18.25 0 31.532 8.431 39.502 15.592l15.939 14.207 9.124-19.52c22.176-47.47 67.452-77.038 118.388-77.038 60.868 0 114.807 44.236 128.089 104.99l3.927 17.786 16.863-5.89c6.121-2.195 11.78-3.234 17.21-3.234 27.835 0 50.704 21.598 53.245 50.011l1.501 18.018 17.44-3.465c4.39-.808 8.894-1.386 13.399-1.386 38 0 68.838 31.532 68.838 70.224 0 38.693-30.839 70.109-68.838 70.109" fill="url(#D)"/></svg>