<svg xmlns="http://www.w3.org/2000/svg" xmlns:xlink="http://www.w3.org/1999/xlink" viewBox="4360.2 -4246.5 841.9 841.90004" width="841.9" height="841.9"><defs><linearGradient id="E" gradientUnits="userSpaceOnUse" y1="-3636.33" x2="0" y2="-3951.42" xlink:href="#a" gradientTransform="translate(464.963 -267.12) scale(.9025)"/><linearGradient id="N" gradientUnits="userSpaceOnUse" y1="-3652.75" x2="0" y2="-3938.5" xlink:href="#b" gradientTransform="translate(464.993 -267.12) scale(.9025)"/><linearGradient id="D" gradientUnits="userSpaceOnUse" y1="-3842.69" x2="0" y2="-4088.11" xlink:href="#a" gradientTransform="translate(471.106 -283.442) scale(.9025)"/><linearGradient id="B" gradientUnits="userSpaceOnUse" y1="-3839.53" x2="0" y2="-4090.02" gradientTransform="translate(470.873 -283.411) scale(.9025)"><stop stop-color="#8eb3c8"/><stop offset="1" stop-color="#cddee8"/></linearGradient><linearGradient id="A" gradientUnits="userSpaceOnUse" y1="-3837.95" x2="0" y2="-4091.09" gradientTransform="translate(470.789 -283.398) scale(.9025)"><stop stop-color="#8bb1c5"/><stop offset="1" stop-color="#cddee8"/></linearGradient><linearGradient id="C" gradientUnits="userSpaceOnUse" y1="-3841.11" x2="0" y2="-4089.03" gradientTransform="translate(470.987 -283.42) scale(.9025)"><stop stop-color="#92b6ca"/><stop offset="1" stop-color="#cddee8"/></linearGradient><linearGradient id="F" gradientUnits="userSpaceOnUse" y1="-3638.15" x2="0" y2="-3949.61" xlink:href="#c" gradientTransform="translate(465.051 -267.104) scale(.9025)"/><linearGradient id="M" gradientUnits="userSpaceOnUse" y1="-3650.92" x2="0" y2="-3939.57" xlink:href="#d" gradientTransform="translate(465.055 -267.108) scale(.9025)"/><linearGradient id="L" gradientUnits="userSpaceOnUse" y1="-3649.1" x2="0" y2="-3940.72" xlink:href="#e" gradientTransform="translate(465.066 -267.1) scale(.9025)"/><linearGradient id="G" gradientUnits="userSpaceOnUse" y1="-3639.98" x2="0" y2="-3947.89" xlink:href="#f" gradientTransform="translate(465.145 -267.091) scale(.9025)"/><linearGradient id="K" gradientUnits="userSpaceOnUse" y1="-3647.27" x2="0" y2="-3941.96" xlink:href="#g" gradientTransform="translate(465.09 -267.075) scale(.9025)"/><linearGradient id="I" gradientUnits="userSpaceOnUse" y1="-3643.63" x2="0" y2="-3944.73" xlink:href="#h" gradientTransform="translate(465.134 -267.068) scale(.9025)"/><linearGradient id="H" gradientUnits="userSpaceOnUse" y1="-3641.8" x2="0" y2="-3946.26" xlink:href="#i" gradientTransform="translate(465.135 -267.07) scale(.9025)"/><linearGradient id="J" gradientUnits="userSpaceOnUse" y1="-3645.45" x2="0" y2="-3943.3" xlink:href="#j" gradientTransform="translate(465.111 -267.076) scale(.9025)"/><linearGradient id="z" gradientUnits="userSpaceOnUse" y1="-3836.37" x2="0" y2="-4092.24" gradientTransform="translate(470.703 -283.394) scale(.9025)"><stop stop-color="#87aec3"/><stop offset="1" stop-color="#cddee8"/></linearGradient><linearGradient id="j" gradientUnits="userSpaceOnUse" y1="-4019.43" x2="0" y2="-4206.21"><stop stop-color="#9fbed0"/><stop offset="1" stop-color="#ddecf5"/></linearGradient><linearGradient id="h" gradientUnits="userSpaceOnUse" y1="-4018.28" x2="0" y2="-4207.11"><stop stop-color="#9dbdd0"/><stop offset="1" stop-color="#dae9f2"/></linearGradient><linearGradient id="y" gradientUnits="userSpaceOnUse" y1="-3834.79" x2="0" y2="-4093.48" gradientTransform="translate(470.619 -283.399) scale(.9025)"><stop stop-color="#84abc1"/><stop offset="1" stop-color="#cddee8"/></linearGradient><linearGradient id="i" gradientUnits="userSpaceOnUse" y1="-4017.14" x2="0" y2="-4208.07"><stop stop-color="#9bbccf"/><stop offset="1" stop-color="#d7e6f0"/></linearGradient><linearGradient id="c" gradientUnits="userSpaceOnUse" y1="-4014.85" x2="0" y2="-4210.18"><stop stop-color="#97bacd"/><stop offset="1" stop-color="#d0e1eb"/></linearGradient><linearGradient id="a" gradientUnits="userSpaceOnUse" y1="-4013.71" x2="0" y2="-4211.32"><stop stop-color="#95b9cc"/><stop offset="1" stop-color="#cddee8"/></linearGradient><linearGradient id="f" gradientUnits="userSpaceOnUse" y1="-4015.99" x2="0" y2="-4209.1"><stop stop-color="#99bbce"/><stop offset="1" stop-color="#d3e4ed"/></linearGradient><linearGradient id="g" gradientUnits="userSpaceOnUse" y1="-4020.57" x2="0" y2="-4205.36"><stop stop-color="#a1bfd1"/><stop offset="1" stop-color="#e0eff7"/></linearGradient><linearGradient id="x" gradientUnits="userSpaceOnUse" y1="-3833.21" x2="0" y2="-4094.79" gradientTransform="translate(470.623 -283.389) scale(.9025)"><stop stop-color="#80a8bf"/><stop offset="1" stop-color="#cddee8"/></linearGradient><linearGradient id="w" gradientUnits="userSpaceOnUse" y1="-3831.63" x2="0" y2="-4096.19" gradientTransform="translate(470.668 -283.41) scale(.9025)"><stop stop-color="#7da6bc"/><stop offset="1" stop-color="#cddee8"/></linearGradient><linearGradient id="e" gradientUnits="userSpaceOnUse" y1="-4021.71" x2="0" y2="-4204.59"><stop stop-color="#a3c0d2"/><stop offset="1" stop-color="#e4f1fa"/></linearGradient><linearGradient id="v" gradientUnits="userSpaceOnUse" y1="-3830.05" x2="0" y2="-4097.66" gradientTransform="translate(470.821 -283.41) scale(.9025)"><stop stop-color="#79a3ba"/><stop offset="1" stop-color="#cddee8"/></linearGradient><linearGradient id="b" gradientUnits="userSpaceOnUse" y1="-4024" x2="0" y2="-4203.22"><stop stop-color="#a7c2d4"/><stop offset="1" stop-color="#eaf7ff"/></linearGradient><linearGradient id="d" gradientUnits="userSpaceOnUse" y1="-4022.86" x2="0" y2="-4203.87"><stop stop-color="#a5c1d3"/><stop offset="1" stop-color="#e7f4fc"/></linearGradient><linearGradient id="u" gradientUnits="userSpaceOnUse" y1="-3828.48" x2="0" y2="-4099.22" gradientTransform="translate(471.072 -283.437) scale(.9025)"><stop stop-color="#76a0b8"/><stop offset="1" stop-color="#cddee8"/></linearGradient><linearGradient xlink:href="#a" id="k" gradientUnits="userSpaceOnUse" y1="-4013.71" x2="0" y2="-4211.32" gradientTransform="translate(456.388 -297.507) scale(.9025)"/><linearGradient xlink:href="#c" id="l" gradientUnits="userSpaceOnUse" y1="-4014.85" x2="0" y2="-4210.18" gradientTransform="translate(456.459 -297.503) scale(.9025)"/><linearGradient xlink:href="#f" id="m" gradientUnits="userSpaceOnUse" y1="-4015.99" x2="0" y2="-4209.1" gradientTransform="translate(456.483 -297.493) scale(.9025)"/><linearGradient xlink:href="#i" id="n" gradientUnits="userSpaceOnUse" y1="-4017.14" x2="0" y2="-4208.07" gradientTransform="translate(456.48 -297.486) scale(.9025)"/><linearGradient xlink:href="#h" id="o" gradientUnits="userSpaceOnUse" y1="-4018.28" x2="0" y2="-4207.11" gradientTransform="translate(456.494 -297.467) scale(.9025)"/><linearGradient xlink:href="#j" id="p" gradientUnits="userSpaceOnUse" y1="-4019.43" x2="0" y2="-4206.21" gradientTransform="translate(456.487 -297.476) scale(.9025)"/><linearGradient xlink:href="#g" id="q" gradientUnits="userSpaceOnUse" y1="-4020.57" x2="0" y2="-4205.36" gradientTransform="translate(456.45 -297.486) scale(.9025)"/><linearGradient xlink:href="#e" id="r" gradientUnits="userSpaceOnUse" y1="-4021.71" x2="0" y2="-4204.59" gradientTransform="translate(456.434 -297.496) scale(.9025)"/><linearGradient xlink:href="#d" id="s" gradientUnits="userSpaceOnUse" y1="-4022.86" x2="0" y2="-4203.87" gradientTransform="translate(456.417 -297.494) scale(.9025)"/><linearGradient xlink:href="#b" id="t" gradientUnits="userSpaceOnUse" y1="-4024" x2="0" y2="-4203.22" gradientTransform="translate(456.398 -297.507) scale(.9025)"/></defs><path d="M4861.16-4003.504c-3.338 0-6.497.36-9.656.992-1.805-20.757-19.043-37.002-40.251-37.002-4.603 0-8.935.902-12.996 2.346-8.574-38.446-42.689-67.146-83.752-67.146-34.205 0-63.627 20.216-77.435 49.187-7.761-6.86-17.87-11.191-29.06-11.191-23.826 0-43.05 18.862-44.042 42.327-9.206-5.144-19.675-8.393-31.046-8.393-35.198 0-63.807 28.609-63.807 63.806 0 35.198 28.61 63.807 63.807 63.807h328.239c27.255 0 49.367-22.111 49.367-49.367 0-27.255-22.112-49.366-49.367-49.366" fill="#9cb1bf"/><path d="M4852.376-4018.604c-3.25 0-6.499.36-9.657.992-1.805-20.757-19.043-37.002-40.252-37.002-4.602 0-8.934.902-12.996 2.346-8.573-38.446-42.688-67.146-83.752-67.146-34.205 0-63.536 20.216-77.344 49.277-7.761-6.86-17.87-11.191-29.06-11.191-23.736 0-43.05 18.862-44.042 42.327-9.206-5.144-19.765-8.393-31.047-8.393-35.197 0-63.806 28.519-63.806 63.807 0 35.287 28.609 63.716 63.806 63.716h328.24c27.255 0 49.457-22.111 49.457-49.367-.09-27.255-22.292-49.366-49.547-49.366" fill="url(#k)"/><path d="M4599.566-4080.332c11.1 0 20.938 4.422 28.338 10.92 1.625-3.43 4.513-5.866 6.679-9.025 2.166-3.158 5.054-7.4 7.67-10.288 14.982-17.599 36.913-28.79 61.461-29.422 7.04-.18 13.899.542 20.577 1.986 31.317 6.949 56.136 31.407 63.717 62.723 3.79-.812 7.761-1.173 12.003-.722 2.166 0 4.603 1.354 6.588 1.715 1.986.361 5.054.542 6.95 1.173a31.768 31.768 0 0 1 6.407 2.257c9.476 4.422 16.967 12.905 19.945 23.374.632 1.896 1.174 5.054 1.535 7.13.09.722.45 1.264.541 1.986 1.354-.271 3.61-.632 4.964-.813 1.715-.18 3.52-.36 5.234-.36 14.53 0 27.527 6.949 35.469 17.327 7.942 10.38 10.92 23.375 8.483 35.469 0 24.187-25.18 43.861-49.367 43.861h-314.972c-31.317 0-63.807-25.36-63.807-56.677-3.249-15.703.451-32.58 10.65-46.118 10.288-13.627 27.075-22.652 46.027-22.652 8.664 0 16.877 1.895 24.368 5.234 2.075.903 4.963 2.347 6.949 3.52.09-1.715.812-3.069 1.083-4.693.722-4.152 2.166-9.747 4.061-13.357 6.679-14.44 21.3-24.548 38.447-24.548" fill="url(#l)"/><path d="M4599.77-4079.329c11.01 0 20.577 4.422 27.617 10.65 1.444-3.069 5.144-4.152 6.95-6.86 1.894-2.797 5.143-7.941 7.4-10.378 14.35-18.05 35.739-29.693 59.835-30.956 6.95-.361 13.718.18 20.307 1.444 31.226 6.047 56.316 29.873 64.348 60.828 3.52-.18 7.22 0 11.01.903 1.896 0 4.242 2.437 6.047 2.708 1.805.36 5.596 0 7.31.631 2.437.361 4.693.903 6.86 1.715 10.288 3.88 18.41 12.906 21.208 24.006.542 1.715 1.173 5.777 1.444 7.491.09.632.722 1.083.812 1.715 1.174-.27 4.062-.722 5.235-.902 1.805-.271 3.7-.362 5.595-.362 15.433 0 28.97 8.304 35.92 20.217 6.95 11.822 7.31 25.45 2.527 36.1 0 21.208-28.158 38.356-49.367 38.356h-301.706c-27.436 0-63.716-22.202-63.716-49.547-6.498-13.719-6.318-31.498 2.707-47.201 9.025-15.613 26.714-26.624 46.93-26.624 8.664 0 16.967 1.986 24.639 5.505 1.805.812 5.324 2.617 7.04 3.61.09-1.534 1.353-2.346 1.624-3.79.631-3.61 1.985-10.47 3.61-13.628 5.866-14.891 20.577-25.631 37.814-25.631" fill="url(#m)"/><path d="M4599.947-4078.239c10.92 0 20.216 4.513 26.895 10.379 1.263-2.617 5.686-2.347 7.31-4.783 1.625-2.347 5.144-8.394 7.04-10.47 13.718-18.41 34.565-30.594 58.301-32.49 6.769-.54 13.538-.18 20.126.903 31.046 5.235 56.587 28.429 65.07 58.933a34.472 34.472 0 0 1 9.928 2.618c1.624 0 3.97 3.52 5.505 3.79 1.534.27 6.227-.451 7.58.09a26.88 26.88 0 0 1 7.22 1.264c11.102 3.339 19.946 12.815 22.563 24.638.452 1.444 1.083 6.408 1.354 7.942.09.541.993.812 1.083 1.354.993-.18 4.513-.903 5.505-.993 1.896-.27 3.881-.451 5.867-.451 16.335 0 30.414 9.656 36.37 23.013 5.957 13.357 3.79 27.527-3.43 36.642 0 18.14-31.135 32.85-49.366 32.85H4546.43c-23.465 0-63.716-19.042-63.716-42.507-9.838-11.732-12.996-30.504-5.325-48.193 7.671-17.69 26.353-30.595 47.832-30.595 8.664 0 17.058 2.076 24.82 5.776 1.533.632 5.685 2.888 7.129 3.7.09-1.263 1.985-1.534 2.166-2.798.541-3.068 1.805-11.1 3.159-13.808 5.324-15.613 20.125-26.804 37.453-26.804" fill="url(#n)"/><path d="M4600.233-4077.227c10.83 0 19.855 4.512 26.172 10.198.993-2.166 6.228-.632 7.581-2.617 1.354-1.986 5.145-8.845 6.77-10.56 13.085-18.862 33.392-31.497 56.676-33.934 6.679-.722 13.357-.541 19.855.361 30.956 4.332 56.767 26.895 65.792 57.038a40.114 40.114 0 0 1 8.935 4.242c1.354 0 3.7 4.603 4.964 4.873 1.263.271 6.769-.992 7.942-.541 2.707-.09 5.234.18 7.671.722 11.913 2.798 21.39 12.725 23.826 25.27.361 1.173 1.083 7.04 1.264 8.303.09.451 1.263.632 1.353 1.083.903-.18 4.964-.993 5.867-1.083 1.985-.27 4.06-.541 6.137-.541 17.237 0 31.948 11.1 36.912 25.901 4.964 14.801.18 29.602-9.386 37.183 0 15.162-34.205 27.436-49.277 27.436h-275.172c-19.584 0-63.716-15.793-63.716-35.378-13.087-9.747-19.765-29.511-13.357-49.276 6.407-19.765 25.901-34.566 48.825-34.566 8.754 0 17.147 2.076 25 6.047 1.353.541 6.046 3.159 7.22 3.88.09-1.082 2.526-.812 2.707-1.804.45-2.618 1.534-11.823 2.797-14.08 4.242-16.335 19.043-28.157 36.642-28.157" fill="url(#o)"/><path d="M4600.406-4076.244c10.83 0 19.404 4.603 25.45 9.928.813-1.715 6.769 1.083 7.852-.451 1.083-1.625 5.144-9.296 6.408-10.74 12.364-19.314 32.31-32.4 55.143-35.468 6.497-.903 13.086-.903 19.674-.18 30.866 3.429 56.948 25.45 66.424 55.142 2.708 1.534 5.325 3.43 7.942 5.866 1.083 0 3.43 5.776 4.422 5.957.993.18 7.31-1.444 8.303-1.083 2.888-.361 5.505-.271 8.123.27 12.725 2.257 22.923 12.635 25.18 25.902.27.993 1.082 7.671 1.173 8.754.09.361 1.534.361 1.624.722.722-.18 5.415-1.083 6.137-1.173a37.879 37.879 0 0 1 6.498-.541c18.14 0 33.393 12.454 37.364 28.7 3.97 16.244-3.34 31.677-15.433 37.724 0 12.093-37.183 21.93-49.276 21.93h-261.906c-15.613 0-63.626-12.635-63.626-28.338-16.335-7.852-26.534-28.52-21.39-50.27 5.145-21.84 25.541-38.626 49.728-38.626 8.755 0 17.238 2.166 25.18 6.227 1.083.451 6.408 3.43 7.31 3.97 0-.811 3.069 0 3.159-.811.361-2.076 1.354-12.545 2.347-14.26 3.61-16.696 18.5-29.15 36.19-29.15" fill="url(#p)"/><path d="M4600.549-4075.17c10.74 0 19.043 4.693 24.728 9.657.632-1.264 7.4 2.887 8.213 1.624.812-1.173 5.144-9.747 6.137-10.83 11.733-19.765 31.136-33.302 53.609-37.002 6.407-1.084 12.905-1.354 19.403-.723 30.776 2.618 57.219 23.917 67.146 53.248 2.437 2.166 4.693 4.603 6.86 7.49.812 0 3.158 6.86 3.88 6.95.722.18 7.852-1.895 8.574-1.715 3.068-.541 5.866-.631 8.483-.27 13.538 1.714 24.458 12.544 26.444 26.623.27.722.992 8.394 1.083 9.116 0 .27 1.805.18 1.895.45.541-.09 5.866-1.172 6.408-1.263 2.166-.36 4.422-.631 6.768-.631 19.043 0 34.837 13.898 37.815 31.587 2.978 17.689-6.95 33.754-21.39 38.356 0 9.116-40.16 16.426-49.276 16.426h-248.638c-11.733 0-63.627-9.476-63.627-21.3-19.584-5.865-33.212-27.435-29.33-51.351 3.88-23.917 25.179-42.598 50.63-42.598 8.754 0 17.327 2.256 25.36 6.498.812.36 6.678 3.7 7.49 4.06 0-.631 3.61.723 3.7.09.271-1.533 1.174-13.176 1.896-14.53 3.068-16.966 17.87-29.962 35.739-29.962" fill="url(#q)"/><path d="M4600.714-4074.188c10.65 0 18.682 4.693 24.006 9.386.452-.902 7.942 4.603 8.484 3.79.541-.812 5.144-10.198 5.776-10.92 11.1-20.216 29.963-34.205 51.984-38.537 6.227-1.263 12.725-1.714 19.223-1.263 30.685 1.715 57.4 22.382 67.868 51.352 2.166 2.798 4.061 5.776 5.866 9.115.542 0 2.888 7.942 3.34 8.033.541.09 8.483-2.437 8.934-2.257 3.16-.721 6.137-.992 8.935-.812 14.26 1.173 25.902 12.455 27.797 27.256.18.451.993 9.025.993 9.476 0 .18 2.166-.09 2.166.09.36-.09 6.317-1.264 6.678-1.264 2.257-.36 4.603-.631 7.04-.631 19.855 0 36.37 15.252 38.356 34.385 1.986 19.133-10.469 35.92-27.346 38.898 0 6.047-43.14 10.92-49.276 10.92h-235.372c-7.852 0-63.626-6.317-63.626-14.17-22.924-3.88-39.981-26.442-37.364-52.434 2.527-25.902 24.729-46.57 51.533-46.57 8.844 0 17.418 2.347 25.54 6.77.542.18 7.04 3.88 7.582 4.241 0-.451 4.151 1.534 4.241 1.083.18-.993.993-13.898 1.444-14.801 2.347-17.508 17.238-31.136 35.198-31.136" fill="url(#r)"/><path d="M4600.968-4073.102c10.559 0 18.32 4.783 23.284 9.115.18-.451 8.484 6.317 8.754 5.957.271-.362 5.235-10.65 5.506-11.011 10.469-20.667 28.79-35.107 50.45-40.071 6.136-1.444 12.544-2.076 18.952-1.895 30.595.902 57.67 20.938 68.5 49.457a60.71 60.71 0 0 1 4.783 10.74c.27 0 2.527 9.024 2.798 9.115.27.09 9.025-2.888 9.296-2.798 3.339-.993 6.407-1.444 9.385-1.264 15.072.542 27.437 12.365 29.061 27.888.09.27.902 9.656.993 9.927 0 .09 2.437-.27 2.437-.18.18 0 6.768-1.354 6.949-1.354 2.346-.451 4.873-.722 7.31-.722 20.758 0 37.815 16.606 38.807 37.273.993 20.577-14.078 37.995-33.302 39.44 0 3.068-46.208 5.505-49.186 5.505H4583.73c-3.88 0-63.626-3.159-63.626-7.13-26.173-1.986-46.66-25.45-45.396-53.428 1.264-27.978 24.367-50.54 52.526-50.54 8.844 0 17.508 2.346 25.72 7.04.271.09 7.401 4.151 7.672 4.331 0-.18 4.693 2.257 4.783 2.076.09-.541.812-14.53 1.083-14.981 1.354-18.411 16.335-32.49 34.476-32.49" fill="url(#s)"/><path d="M4849.046-3929.167h-321.47c-29.422 0-53.429-24.457-53.429-54.51 0-30.054 24.007-54.512 53.429-54.512 8.844 0 17.598 2.437 25.901 7.22l12.996 7.491.632-15.252c.722-18.682 15.704-33.393 34.024-33.393 10.47 0 17.96 4.784 22.472 8.935l9.116 8.123 5.234-11.101c12.545-27.075 38.447-43.952 67.597-43.952 34.747 0 65.432 25.18 73.013 59.926l2.256 10.198 9.566-3.43c3.52-1.172 6.679-1.804 9.748-1.804 15.883 0 28.88 12.274 30.414 28.519l.902 10.288 9.928-1.985c2.527-.451 5.054-.812 7.671-.812 21.66 0 39.349 18.05 39.349 40.07 0 22.022-17.599 39.981-39.349 39.981" fill="url(#t)"/><path d="M5077.512-3858.238c-4.513 0-8.935.45-13.177 1.353-2.527-28.428-26.172-50.63-55.143-50.63-6.317 0-12.183 1.264-17.779 3.159-11.732-52.616-58.572-91.965-114.708-91.965-46.93 0-87.09 27.707-106.043 67.417-10.65-9.386-24.548-15.343-39.89-15.343-32.581 0-58.934 25.812-60.378 58.031-12.635-7.04-27.075-11.462-42.598-11.462-48.194 0-87.362 39.079-87.362 87.452 0 48.284 39.168 87.363 87.362 87.363h449.625c37.364 0 67.688-30.325 67.688-67.598.09-37.454-30.234-67.778-67.597-67.778" fill="#9cb1bf"/><path d="M5066.512-3873.943c-4.513 0-8.935.45-13.177 1.353-2.527-28.338-26.172-50.63-55.143-50.63-6.227 0-12.183 1.264-17.779 3.159-11.732-52.616-58.572-91.965-114.708-91.965-46.93 0-87.09 27.707-106.043 67.417-10.65-9.386-24.548-15.252-39.89-15.252-32.581 0-58.934 25.811-60.378 58.03-12.635-7.13-26.985-11.552-42.598-11.552-48.284 0-87.362 39.169-87.362 87.362 0 48.284 39.078 87.362 87.362 87.362h449.625c37.364 0 67.688-30.324 67.688-67.687.09-37.364-30.234-67.597-67.597-67.597" fill="url(#u)"/><path d="M4719.791-3958.48c15.252 0 28.7 5.956 38.898 14.98 2.256-4.783 6.227-8.032 9.115-12.364 2.978-4.332 6.95-10.198 10.47-14.079 20.576-24.006 50.54-39.439 84.202-40.251 9.296-.27 18.412.632 27.166 2.527 43.32 9.205 77.705 42.959 88.174 86.189 5.234-1.083 10.65-1.625 16.335-.993 2.979 0 6.228 1.805 9.025 2.346 2.798.452 6.95.722 9.567 1.625 3.068.722 6.046 1.805 8.844 3.068 13.086 6.047 23.194 17.78 27.346 32.04.902 2.616 1.625 6.948 2.076 9.746.18.903.812 1.715.902 2.708 1.715-.361 4.513-.813 6.318-.993 2.527-.27 5.054-.451 7.58-.451 19.856 0 37.635 9.476 48.465 23.735 10.92 14.26 14.982 32.04 11.642 48.645 0 33.212-36.28 60.107-69.492 60.107h-439.247c-47.381 0-85.828-38.447-85.828-86.009 0-47.471 38.447-86.008 85.828-86.008 11.913 0 23.104 2.617 33.483 7.22 2.888 1.173 6.769 3.25 9.476 4.783.09-2.346 1.173-4.241 1.534-6.498.993-5.685 2.979-13.357 5.506-18.23 9.115-20.036 29.24-33.844 52.615-33.844" fill="url(#v)"/><path d="M4719.908-3957.127c15.072 0 28.158 6.046 37.815 14.62 1.986-4.151 7.04-5.686 9.567-9.476 2.527-3.79 6.949-10.83 10.108-14.26 19.674-24.638 48.915-40.612 82.037-42.327 9.115-.451 18.23.18 26.985 1.805 43.14 8.123 77.976 40.883 88.986 83.572 4.874-.271 9.837 0 14.982 1.263 2.617 0 5.866 3.34 8.303 3.79 2.436.452 7.67.09 10.017.903 3.34.451 6.408 1.264 9.386 2.347 14.08 5.324 25.27 17.689 29.06 32.94.723 2.347 1.625 7.853 1.986 10.29.09.812 1.264 1.443 1.354 2.256 1.534-.271 5.054-.903 6.588-1.083a57.731 57.731 0 0 1 7.942-.542c21.119 0 39.62 11.372 49.187 27.617 9.566 16.245 10.017 34.836 3.43 49.366 0 29.06-42.328 52.616-71.389 52.616h-428.868c-46.478 0-84.203-37.815-84.203-84.564 0-46.66 37.725-84.564 84.203-84.564 11.913 0 23.285 2.707 33.754 7.58 2.527 1.084 7.31 3.61 9.657 4.964.09-2.075 1.895-3.158 2.256-5.234.902-4.964 2.707-14.26 4.964-18.592 8.122-20.577 28.338-35.287 51.893-35.287" fill="url(#w)"/><path d="M4720.135-3955.661c14.981 0 27.616 6.137 36.822 14.26 1.714-3.52 7.761-3.25 10.017-6.499 2.166-3.249 7.04-11.461 9.657-14.35 18.772-25.27 47.381-41.875 79.871-44.402 9.025-.722 17.96-.361 26.805 1.083 42.959 6.949 78.156 38.897 89.889 80.954 4.422.541 9.025 1.534 13.537 3.43 2.256 0 5.415 4.783 7.581 5.234 2.076.36 8.484-.632 10.47.09 3.519.09 6.768.722 10.017 1.715 15.252 4.602 27.346 17.508 30.865 33.843.632 1.986 1.535 8.755 1.805 10.83.09.722 1.805 1.083 1.896 1.805 1.263-.27 5.595-1.083 6.859-1.173 2.707-.36 5.505-.632 8.303-.632 22.382 0 41.695 13.267 49.818 31.498 8.122 18.23 5.144 37.724-4.693 50.179 0 24.909-48.284 45.125-73.193 45.125h-418.49c-45.576 0-82.668-37.183-82.668-83.12 0-45.848 37.002-83.12 82.669-83.12 11.913 0 23.374 2.797 34.024 7.941 2.166.903 7.761 3.971 9.747 5.054.09-1.805 2.707-2.166 2.978-3.88.722-4.242 2.437-15.163 4.332-18.863 7.13-21.57 27.256-37.002 51.082-37.002" fill="url(#x)"/><path d="M4720.491-3954.228c14.891 0 27.165 6.228 35.83 13.899 1.443-2.978 8.573-.903 10.378-3.61 1.805-2.708 7.04-12.094 9.206-14.53 17.87-25.902 45.847-43.14 77.705-46.48 8.844-.992 17.78-.811 26.533.362 42.779 5.776 78.337 36.822 90.702 78.337 4.06 1.354 8.122 3.068 12.183 5.686 1.896 0 5.054 6.317 6.77 6.678 1.714.27 9.295-1.263 10.92-.722 3.7-.18 7.22.18 10.559.993 16.335 3.88 29.33 17.418 32.67 34.656.542 1.624 1.444 9.657 1.715 11.371.09.542 2.346.722 2.346 1.354 1.083-.18 6.047-1.173 7.22-1.263 2.798-.452 5.776-.722 8.664-.722 23.556 0 43.681 15.162 50.45 35.378 6.769 20.216.27 40.612-12.906 50.99 0 20.758-54.33 37.545-75.088 37.545h-408.11c-44.764 0-81.045-36.551-81.045-81.676s36.371-81.677 81.045-81.677c12.003 0 23.465 2.888 34.205 8.213 1.805.722 8.212 4.242 9.927 5.235.09-1.444 3.43-1.083 3.7-2.527.632-3.52 2.166-16.155 3.79-19.224 6.318-22.11 26.534-38.266 50.631-38.266" fill="url(#y)"/><path d="M4720.846-3952.779c14.711 0 26.624 6.228 34.837 13.538 1.083-2.347 9.386 1.534 10.83-.632 1.444-2.166 7.04-12.725 8.844-14.71 16.967-26.444 44.223-44.404 75.63-48.555 8.754-1.173 17.599-1.354 26.353-.361 42.598 4.603 78.608 34.836 91.604 75.72 3.7 2.166 7.31 4.693 10.74 7.851 1.443 0 4.602 7.852 6.046 8.123 1.354.27 10.018-1.895 11.372-1.444 3.97-.451 7.58-.361 11.1.27 17.419 3.16 31.407 17.329 34.476 35.56.451 1.353 1.444 10.468 1.624 11.912.09.451 2.888.361 2.888.903.903-.18 6.589-1.264 7.491-1.354 2.978-.451 5.957-.812 9.025-.812 24.819 0 45.667 17.057 51.172 39.349 5.415 22.201-4.603 43.41-21.119 51.713 0 16.606-60.287 30.053-76.893 30.053h-397.731c-43.862 0-79.51-35.92-79.51-80.232 0-44.313 35.648-80.323 79.51-80.323 12.003 0 23.645 2.979 34.475 8.574 1.444.632 8.664 4.603 10.018 5.415.09-1.173 4.242-.09 4.422-1.173.451-2.798 1.895-17.057 3.159-19.494 5.054-22.924 25.36-39.89 49.637-39.89" fill="url(#z)"/><path d="M4721.203-3951.43c14.62 0 26.172 6.318 33.844 13.177.812-1.805 10.108 3.881 11.19 2.257 1.084-1.625 7.04-13.357 8.394-14.801 16.155-27.075 42.688-45.577 73.463-50.63 8.574-1.445 17.419-1.806 26.173-1.084 42.417 3.43 78.788 32.761 92.416 73.193 3.34 2.888 6.408 6.227 9.386 10.108 1.083 0 4.242 9.386 5.325 9.567 1.083.18 10.83-2.618 11.823-2.257 4.151-.812 8.032-.902 11.732-.45 18.501 2.346 33.483 17.147 36.19 36.46.361.993 1.354 11.372 1.535 12.455.09.36 3.339.09 3.429.36.632-.09 7.13-1.353 7.852-1.443a54.162 54.162 0 0 1 9.386-.813c25.992 0 47.742 18.953 51.803 43.23 4.062 24.277-9.476 46.298-29.24 52.526 0 12.454-66.334 22.562-78.789 22.562h-387.353c-42.959 0-77.886-35.288-77.886-78.878 0-43.5 34.927-78.879 77.886-78.879 12.094 0 23.736 3.069 34.746 8.935 1.083.451 9.116 4.964 10.108 5.505 0-.902 4.964.993 5.145.09.36-2.166 1.624-17.96 2.617-19.855 3.97-23.555 24.367-41.334 48.825-41.334" fill="url(#A)"/><path d="M4721.557-3949.998c14.53 0 25.631 6.408 32.851 12.815.542-1.173 10.92 6.318 11.642 5.235.723-1.083 7.04-13.989 7.943-14.982 15.252-27.706 41.063-46.84 71.297-52.706 8.483-1.714 17.148-2.256 25.992-1.805 42.147 2.347 78.969 30.685 93.228 70.576a84.258 84.258 0 0 1 7.942 12.274c.722 0 3.881 10.83 4.603 11.01.722.09 11.642-3.249 12.274-2.978 4.422-1.083 8.393-1.444 12.274-1.173 19.584 1.624 35.468 17.057 37.995 37.273.18.632 1.354 12.274 1.444 12.996 0 .27 3.881-.27 3.881-.09.451-.09 7.671-1.534 8.123-1.534 3.158-.542 6.498-.903 9.747-.903 27.255 0 49.727 20.848 52.435 47.11 2.707 26.264-14.35 49.097-37.454 53.248 0 8.303-72.29 15.072-80.593 15.072h-376.884c-42.057 0-76.352-34.656-76.352-77.434 0-42.689 34.205-77.435 76.352-77.435 12.093 0 23.916 3.159 35.017 9.296.722.27 9.657 5.325 10.288 5.686 0-.632 5.776 2.075 5.867 1.444.27-1.444 1.353-18.953 1.985-20.126 3.069-24.277 23.465-42.869 48.103-42.869" fill="url(#B)"/><path d="M4721.943-3948.563c14.44 0 25.18 6.498 31.858 12.545.27-.632 11.642 8.664 12.003 8.122.361-.541 7.04-14.62 7.491-15.162 14.35-28.338 39.53-48.103 69.132-54.782 8.303-1.895 16.967-2.797 25.72-2.527 41.967 1.174 79.24 28.7 94.132 67.959 2.527 4.512 4.693 9.386 6.588 14.53.36 0 3.43 12.364 3.79 12.454.361.09 12.365-3.88 12.726-3.79 4.602-1.354 8.754-1.986 12.815-1.805 20.667.812 37.544 16.967 39.8 38.176.09.36 1.264 13.176 1.354 13.537 0 .09 4.422-.632 4.422-.541.18 0 8.213-1.625 8.484-1.625a53.32 53.32 0 0 1 10.108-.993c28.519 0 51.803 22.743 53.157 50.992 1.354 28.248-19.223 51.984-45.576 54.06 0 4.15-78.337 7.49-82.489 7.49h-366.505c-41.154 0-74.727-34.024-74.727-75.99 0-41.967 33.573-76.081 74.727-76.081 12.094 0 24.007 3.249 35.288 9.566.36.18 10.108 5.596 10.379 5.776 0-.27 6.588 3.069 6.588 2.798.09-.722 1.083-19.855 1.444-20.487 1.985-24.909 22.472-44.222 47.29-44.222" fill="url(#C)"/><path d="M5062.033-3751.479h-440.42c-40.342 0-73.193-33.393-73.193-74.546 0-41.154 32.851-74.637 73.193-74.637 12.184 0 24.097 3.34 35.559 9.927l17.87 10.108.811-20.757c.993-25.631 21.48-45.757 46.57-45.757 14.259 0 24.638 6.588 30.865 12.184l12.454 11.1 7.13-15.252c17.328-37.093 52.706-60.197 92.506-60.197 47.562 0 89.709 34.566 100.088 82.038l3.068 13.898 13.177-4.602c4.783-1.715 9.205-2.527 13.447-2.527 21.75 0 39.62 16.876 41.605 39.078l1.173 14.079 13.628-2.708c3.43-.631 6.95-1.083 10.47-1.083 29.691 0 53.788 24.639 53.788 54.872 0 30.234-24.097 54.782-53.789 54.782" fill="url(#D)"/><path d="M5053.158-3689.263c-5.325 0-10.379.632-15.342 1.625-2.888-33.032-30.415-59.024-64.168-59.024-7.31 0-14.17 1.534-20.758 3.7-13.718-61.28-68.139-107.036-133.57-107.036-54.601 0-101.44 32.22-123.371 78.517-12.455-11.01-28.52-17.779-46.389-17.779-37.995 0-68.68 30.053-70.214 67.507-14.711-8.303-31.407-13.357-49.548-13.357-56.225 0-101.802 45.576-101.802 101.712 0 56.135 45.577 101.712 101.802 101.712h523.36c43.5 0 78.788-35.288 78.788-78.698 0-43.591-35.197-78.879-78.788-78.879" fill="#9cb1bf"/><path d="M5042.263-3706.368c-5.235 0-10.379.542-15.343 1.625-2.888-33.032-30.414-58.933-64.167-58.933-7.4 0-14.26 1.444-20.758 3.7-13.718-61.28-68.139-107.127-133.57-107.127-54.51 0-101.35 32.22-123.372 78.518-12.454-10.92-28.519-17.87-46.388-17.87-37.905 0-68.59 30.053-70.215 67.597-14.71-8.303-31.497-13.357-49.547-13.357-56.135 0-101.712 45.486-101.712 101.712 0 56.226 45.577 101.622 101.712 101.622h523.36c43.5 0 78.788-35.198 78.788-78.698 0-43.5-35.288-78.789-78.788-78.789" fill="url(#E)"/><path d="M4639.023-3804.813c17.78 0 33.393 7.04 45.215 17.418 2.618-5.505 7.22-9.386 10.65-14.44 3.43-5.054 8.123-11.823 12.184-16.335 23.916-27.978 58.843-45.938 98.011-46.93 10.83-.271 21.48.722 31.768 2.888 50.36 10.74 90.34 49.998 102.524 100.267 6.137-1.263 12.455-1.804 19.133-1.082 3.43 0 7.31 2.075 10.56 2.707 3.248.541 8.032.812 11.1 1.895 3.61.903 6.95 2.076 10.198 3.61 15.162 7.04 26.985 20.667 31.768 37.364.993 3.068 1.896 8.122 2.347 11.371.18 1.083.902 2.076.993 3.159 2.075-.451 5.234-.993 7.31-1.173a71.607 71.607 0 0 1 8.844-.542c23.195 0 43.862 11.01 56.497 27.617 12.635 16.606 17.418 37.273 13.537 56.587 0 38.627-40.07 69.943-78.788 69.943h-502.241c-49.908 0-101.712-40.432-101.712-90.34-5.234-25 .632-51.894 17.057-73.554 16.336-21.66 43.23-36.1 73.374-36.1 13.808 0 26.894 3.069 38.897 8.394 3.34 1.444 7.942 3.79 11.101 5.595.09-2.707 1.354-4.873 1.805-7.49 1.173-6.589 3.43-15.614 6.408-21.3 10.83-23.374 34.295-39.53 61.46-39.53" fill="url(#F)"/><path d="M4639.478-3803.176c17.599 0 32.76 7.13 44.042 17.057 2.256-4.874 8.123-6.588 11.1-11.01 2.979-4.423 8.123-12.636 11.733-16.516 22.834-28.7 56.948-47.382 95.485-49.367a136.18 136.18 0 0 1 31.587 2.076c50.18 9.476 90.611 47.652 103.517 97.29 5.686-.362 11.462 0 17.509 1.443 3.068 0 6.858 3.88 9.746 4.422 2.798.542 8.935 0 11.643.993 3.79.542 7.4 1.444 10.92 2.798 16.425 6.227 29.422 20.487 33.844 38.356.902 2.708 1.805 9.115 2.256 12.003.18.903 1.534 1.625 1.625 2.618 1.804-.361 5.866-1.083 7.67-1.354 3.07-.361 6.138-.632 9.206-.632 24.638 0 46.208 13.267 57.309 32.13 11.1 18.861 11.732 40.612 4.061 57.488 0 33.754-44.854 61.19-78.698 61.19h-481.032c-43.681 0-101.622-35.378-101.622-79.06-10.469-21.84-10.108-50.268 4.242-75.268 14.35-24.999 42.598-42.507 74.907-42.507 13.809 0 26.985 3.158 39.26 8.754 2.887 1.263 8.483 4.242 11.28 5.776.09-2.347 2.257-3.7 2.618-5.957.992-5.776 3.158-16.696 5.776-21.66 9.115-24.006 32.58-41.063 60.016-41.063" fill="url(#G)"/><path d="M4639.829-3801.44c17.508 0 32.219 7.22 42.869 16.605 1.985-4.151 9.024-3.79 11.551-7.58 2.528-3.791 8.123-13.358 11.282-16.697 21.84-29.421 55.143-48.825 92.957-51.713 10.56-.812 21.029-.451 31.317 1.264 49.908 8.122 90.882 45.215 104.51 94.22 5.234.632 10.469 1.806 15.884 4.062 2.617 0 6.407 5.595 8.844 6.047 2.437.45 9.837-.723 12.094.09 4.06.18 7.942.902 11.552 1.985 17.688 5.415 31.767 20.396 35.919 39.349.722 2.346 1.805 10.198 2.166 12.635.09.812 2.076 1.264 2.166 2.076 1.534-.271 6.498-1.264 8.032-1.444 3.159-.451 6.408-.722 9.657-.722 25.992 0 48.554 15.432 58.03 36.731 9.477 21.21 6.048 43.952-5.504 58.392 0 28.97-49.728 52.435-78.698 52.435h-459.915c-37.453 0-101.621-30.323-101.621-67.777-15.613-18.772-20.758-48.645-8.483-76.893 12.273-28.248 41.966-48.825 76.351-48.825 13.899 0 27.165 3.248 39.53 9.205 2.526 1.083 9.024 4.603 11.371 5.957.09-2.076 3.068-2.437 3.43-4.423.812-4.964 2.797-17.779 5.053-22.02 8.394-25 31.949-42.96 59.656-42.96" fill="url(#H)"/><path d="M4640.099-3799.814c17.328 0 31.587 7.22 41.695 16.245 1.625-3.43 9.928-.993 12.094-4.152 2.166-3.158 8.213-14.079 10.74-16.876 20.757-30.144 53.247-50.27 90.43-54.15 10.379-1.083 20.848-.993 31.046.36 49.728 6.77 91.153 42.87 105.502 91.153 4.784 1.534 9.477 3.61 14.26 6.679 2.166 0 5.956 7.4 7.942 7.761 1.985.361 10.74-1.534 12.635-.812 4.332-.18 8.393.27 12.274 1.173 18.952 4.513 34.114 20.216 37.995 40.342.632 1.895 1.715 11.19 1.986 13.267.09.631 2.707.812 2.797 1.534 1.264-.27 7.04-1.354 8.394-1.534 3.339-.452 6.678-.813 10.108-.813 27.436 0 50.9 17.69 58.843 41.245 7.942 23.555.36 47.2-15.072 59.294 0 24.097-54.511 43.68-78.608 43.68h-438.705c-31.227 0-101.531-25.27-101.531-56.496-20.848-15.613-31.498-47.02-21.3-78.607 10.199-31.498 41.335-55.143 77.796-55.143 13.899 0 27.346 3.34 39.8 9.566 2.076.903 9.567 5.054 11.552 6.137.09-1.714 3.971-1.263 4.242-2.888.722-4.151 2.527-18.862 4.422-22.472 7.13-25.63 30.776-44.493 58.663-44.493" fill="url(#I)"/><path d="M4640.437-3798.197c17.238 0 30.956 7.31 40.523 15.793 1.353-2.797 10.83 1.715 12.544-.722 1.715-2.527 8.213-14.8 10.289-17.057 19.765-30.775 51.442-51.623 87.903-56.587 10.199-1.353 20.577-1.534 30.866-.45 49.457 5.414 91.333 40.521 106.495 88.173a73.138 73.138 0 0 1 12.545 9.206c1.714 0 5.414 9.115 7.13 9.476 1.624.27 11.642-2.346 13.176-1.715 4.602-.541 8.844-.36 12.905.361 20.217 3.61 36.552 20.126 40.162 41.335.541 1.534 1.624 12.274 1.895 13.898.09.542 3.34.452 3.34.993.992-.18 7.67-1.534 8.754-1.624 3.429-.542 6.949-.903 10.468-.903 28.88 0 53.248 19.855 59.566 45.757 6.317 25.902-5.325 50.54-24.549 60.197 0 19.313-59.294 34.926-78.607 34.926h-417.587c-25 0-101.531-20.216-101.531-45.215-26.082-12.454-42.237-45.396-34.024-80.232 8.212-34.746 40.702-61.55 79.239-61.55 13.989 0 27.436 3.52 40.161 10.017 1.715.722 10.108 5.415 11.733 6.318.09-1.354 4.873 0 5.054-1.354.541-3.34 2.166-19.945 3.7-22.833 5.957-26.353 29.692-46.208 57.85-46.208" fill="url(#J)"/><path d="M4640.777-3796.482c17.057 0 30.414 7.4 39.349 15.433.993-2.076 11.732 4.513 12.996 2.617 1.263-1.895 8.213-15.523 9.747-17.237 18.772-31.498 49.637-53.067 85.376-59.024 10.108-1.715 20.307-2.076 30.595-1.263 49.277 4.06 91.604 38.085 107.488 85.105 3.88 3.43 7.49 7.31 10.92 11.823 1.264 0 4.964 10.92 6.227 11.1 1.174.181 12.545-3.068 13.718-2.707 4.784-.902 9.296-.992 13.538-.45 21.57 2.707 38.898 19.944 42.237 42.417.36 1.173 1.624 13.357 1.805 14.53.09.36 3.88 0 3.97.451.723-.18 8.304-1.624 9.116-1.715 3.61-.541 7.22-.992 10.92-.992 30.324 0 55.594 22.11 60.378 50.36 4.783 28.157-11.01 53.878-34.115 61.098 0 14.44-64.077 26.263-78.517 26.263h-396.378c-18.682 0-101.441-15.162-101.441-33.844-31.317-9.386-52.977-43.77-46.84-81.856 6.137-38.086 40.07-67.868 80.774-67.868 13.988 0 27.616 3.61 40.432 10.378 1.263.542 10.74 5.867 11.913 6.498 0-.992 5.776 1.174 5.956.18.451-2.436 1.895-21.027 3.069-23.193 4.602-27.436 28.248-48.104 56.767-48.104" fill="url(#K)"/><path d="M4641.024-3794.883c16.967 0 29.782 7.49 38.266 14.981.631-1.353 12.635 7.31 13.537 6.047.812-1.263 8.213-16.245 9.296-17.418 17.689-32.22 47.742-54.511 82.85-61.46 9.927-1.986 20.125-2.708 30.323-2.166 49.006 2.707 91.875 35.739 108.48 82.127 3.43 4.332 6.499 9.115 9.297 14.35.902 0 4.512 12.635 5.415 12.815.812.18 13.447-3.88 14.26-3.61 5.053-1.173 9.746-1.624 14.259-1.263 22.833 1.805 41.334 19.765 44.312 43.41.271.812 1.535 14.35 1.625 15.162 0 .27 4.512-.36 4.512-.09.542-.09 8.935-1.805 9.477-1.805 3.7-.632 7.49-1.083 11.371-1.083 31.678 0 57.94 24.277 61.1 54.872 3.158 30.505-16.697 57.219-43.591 62.002 0 9.657-68.861 17.509-78.518 17.509h-375.26c-12.454 0-101.44-10.109-101.44-22.563-36.552-6.227-63.717-42.237-59.565-83.572 4.06-41.334 39.439-74.185 82.217-74.185 14.08 0 27.797 3.7 40.703 10.74.812.36 11.281 6.227 12.003 6.678 0-.722 6.589 2.347 6.77 1.715.27-1.625 1.624-22.111 2.346-23.555 3.52-28.068 27.255-49.638 55.955-49.638" fill="url(#L)"/><path d="M4641.374-3793.266c16.787 0 29.241 7.58 37.093 14.62.36-.722 13.537 10.108 13.989 9.477.45-.632 8.302-16.967 8.754-17.6 16.696-32.94 45.937-55.954 80.413-63.806 9.747-2.256 19.855-3.249 30.143-2.978 48.825 1.354 92.055 33.392 109.473 79.059 2.979 5.325 5.506 10.92 7.672 16.967.45 0 4.06 14.44 4.512 14.53.361.09 14.44-4.603 14.801-4.512 5.325-1.535 10.198-2.257 14.891-2.076 24.097.902 43.681 19.674 46.389 44.403.09.36 1.444 15.433 1.534 15.794 0 .09 5.054-.722 5.144-.632.271-.09 9.567-1.895 9.838-1.986 3.79-.631 7.761-1.173 11.822-1.173 33.122 0 60.287 26.534 61.912 59.385 1.624 32.85-22.382 60.557-53.157 62.904 0 4.783-73.644 8.754-78.428 8.754h-354.05c-6.228 0-101.351-5.054-101.351-11.281-41.696-3.159-74.456-40.613-72.38-85.196 2.075-44.584 38.807-80.593 83.661-80.593 14.079 0 27.887 3.79 41.064 11.19.451.181 11.823 6.68 12.184 6.86 0-.361 7.49 3.61 7.58 3.249.181-.813 1.264-23.195 1.625-23.917 2.076-28.88 25.902-51.442 54.872-51.442" fill="url(#M)"/><path d="M5036.967-3563.682h-512.62c-46.93 0-85.196-38.989-85.196-86.821 0-47.923 38.176-86.91 85.196-86.91 14.17 0 28.068 3.88 41.335 11.551l20.757 11.913.993-24.277c1.173-29.873 25.09-53.247 54.24-53.247 16.697 0 28.61 7.67 35.92 14.169l14.44 12.906 8.303-17.78c20.035-43.14 61.28-70.124 107.758-70.124 55.324 0 104.42 40.161 116.423 95.575l3.61 16.155 15.342-5.415c5.596-1.896 10.65-2.888 15.614-2.888 25.36 0 46.117 19.494 48.464 45.395l1.444 16.426 15.884-3.25c3.97-.721 8.032-1.263 12.184-1.263 34.565 0 62.633 28.7 62.633 63.897 0 35.288-28.158 63.988-62.724 63.988" fill="url(#N)"/></svg>