<svg xmlns="http://www.w3.org/2000/svg" viewBox="1095.9 -2648 841.9 841.90004" width="841.9" height="841.9"><defs><linearGradient id="b" gradientUnits="userSpaceOnUse" y1="-2209.81" x2="0" y2="-2641.97" gradientTransform="translate(-493.905 937.223) scale(1.331)"><stop stop-color="#e08a00"/><stop offset="1" stop-color="#ffb71c"/></linearGradient><linearGradient id="a" gradientUnits="userSpaceOnUse" y1="-2207.25" x2="0" y2="-2644.53" gradientTransform="translate(-493.914 937.278) scale(1.331)"><stop stop-color="#df8800"/><stop offset="1" stop-color="#ffb11f"/></linearGradient><linearGradient id="l" gradientUnits="userSpaceOnUse" y1="-2235.44" x2="0" y2="-2616.35" gradientTransform="translate(-493.887 937.272) scale(1.331)"><stop stop-color="#e69e00"/><stop offset="1" stop-color="#fff200"/></linearGradient><linearGradient id="G" gradientUnits="userSpaceOnUse" y1="-2277.2" x2="0" y2="-2432.81" gradientTransform="translate(-558.963 916.833) scale(1.331)"><stop stop-color="#a7c2d4"/><stop offset="1" stop-color="#eaf7ff"/></linearGradient><linearGradient id="E" gradientUnits="userSpaceOnUse" y1="-2275.22" x2="0" y2="-2434" gradientTransform="translate(-559.09 916.832) scale(1.331)"><stop stop-color="#a3c0d2"/><stop offset="1" stop-color="#e4f1fa"/></linearGradient><linearGradient id="D" gradientUnits="userSpaceOnUse" y1="-2274.22" x2="0" y2="-2434.67" gradientTransform="translate(-559.177 916.735) scale(1.331)"><stop stop-color="#a1bfd1"/><stop offset="1" stop-color="#e0eff7"/></linearGradient><linearGradient id="F" gradientUnits="userSpaceOnUse" y1="-2276.21" x2="0" y2="-2433.38" gradientTransform="translate(-558.995 916.789) scale(1.331)"><stop stop-color="#a5c1d3"/><stop offset="1" stop-color="#e7f4fc"/></linearGradient><linearGradient id="c" gradientUnits="userSpaceOnUse" y1="-2212.38" x2="0" y2="-2639.41" gradientTransform="translate(-493.88 937.224) scale(1.331)"><stop stop-color="#e08c00"/><stop offset="1" stop-color="#ffbd19"/></linearGradient><linearGradient id="k" gradientUnits="userSpaceOnUse" y1="-2232.88" x2="0" y2="-2618.92" gradientTransform="translate(-493.903 937.216) scale(1.331)"><stop stop-color="#e59c00"/><stop offset="1" stop-color="#ffec03"/></linearGradient><linearGradient id="j" gradientUnits="userSpaceOnUse" y1="-2230.32" x2="0" y2="-2621.48" gradientTransform="translate(-493.903 937.213) scale(1.331)"><stop stop-color="#e59a00"/><stop offset="1" stop-color="#ffe606"/></linearGradient><linearGradient id="d" gradientUnits="userSpaceOnUse" y1="-2214.94" x2="0" y2="-2636.85" gradientTransform="translate(-493.887 937.28) scale(1.331)"><stop stop-color="#e18e00"/><stop offset="1" stop-color="#ffc317"/></linearGradient><linearGradient id="i" gradientUnits="userSpaceOnUse" y1="-2227.75" x2="0" y2="-2624.04" gradientTransform="translate(-493.905 937.246) scale(1.331)"><stop stop-color="#e49800"/><stop offset="1" stop-color="#ffe008"/></linearGradient><linearGradient id="h" gradientUnits="userSpaceOnUse" y1="-2225.19" x2="0" y2="-2626.6" gradientTransform="translate(-493.92 937.223) scale(1.331)"><stop stop-color="#e39600"/><stop offset="1" stop-color="#ffda0b"/></linearGradient><linearGradient id="e" gradientUnits="userSpaceOnUse" y1="-2217.5" x2="0" y2="-2634.28" gradientTransform="translate(-493.865 937.24) scale(1.331)"><stop stop-color="#e29000"/><stop offset="1" stop-color="#ffc914"/></linearGradient><linearGradient id="g" gradientUnits="userSpaceOnUse" y1="-2222.63" x2="0" y2="-2629.16" gradientTransform="translate(-493.887 937.256) scale(1.331)"><stop stop-color="#e39400"/><stop offset="1" stop-color="#ffd40e"/></linearGradient><linearGradient id="f" gradientUnits="userSpaceOnUse" y1="-2220.06" x2="0" y2="-2631.72" gradientTransform="translate(-493.865 937.23) scale(1.331)"><stop stop-color="#e29200"/><stop offset="1" stop-color="#ffcf11"/></linearGradient><linearGradient id="C" gradientUnits="userSpaceOnUse" y1="-2273.23" x2="0" y2="-2435.4" gradientTransform="translate(-559.223 916.762) scale(1.331)"><stop stop-color="#9fbed0"/><stop offset="1" stop-color="#ddecf5"/></linearGradient><linearGradient id="r" gradientUnits="userSpaceOnUse" x1="1450.45" x2="1530.99" gradientTransform="matrix(.99732 .0798 -.09317 1.06294 -176.22 549.099)"><stop stop-color="#c2e5ff"/><stop offset="1" stop-color="#a3dbff"/></linearGradient><linearGradient id="q" gradientUnits="userSpaceOnUse" x1="1418.89" x2="1511.59" gradientTransform="matrix(.94168 .09309 -.1087 1.01835 -116.365 498.651)"><stop stop-color="#b8e1ff"/><stop offset="1" stop-color="#94d5ff"/></linearGradient><linearGradient id="B" gradientUnits="userSpaceOnUse" y1="-2272.24" x2="0" y2="-2436.19" gradientTransform="translate(-559.216 916.744) scale(1.331)"><stop stop-color="#9dbdd0"/><stop offset="1" stop-color="#dae9f2"/></linearGradient><linearGradient id="p" gradientUnits="userSpaceOnUse" x1="1380.11" x2="1486.36" gradientTransform="matrix(.88605 .10639 -.12424 .97363 -56.47 448.18)"><stop stop-color="#aeddff"/><stop offset="1" stop-color="#85cfff"/></linearGradient><linearGradient id="n" gradientUnits="userSpaceOnUse" x1="1273.12" x2="1411.89" gradientTransform="matrix(.7749 .133 -.15533 .88432 63.283 347.304)"><stop stop-color="#99d4ff"/><stop offset="1" stop-color="#66c3ff"/></linearGradient><linearGradient id="m" gradientUnits="userSpaceOnUse" x1="1199.58" x2="1358.1" gradientTransform="matrix(.71927 .14628 -.17077 .8396 123.139 296.873)"><stop stop-color="#8fd0ff"/><stop offset="1" stop-color="#57bdff"/></linearGradient><linearGradient id="o" gradientUnits="userSpaceOnUse" x1="1332.29" x2="1453.79" gradientTransform="matrix(.83054 .11968 -.13975 .92904 3.395 397.765)"><stop stop-color="#a3d9ff"/><stop offset="1" stop-color="#76c9ff"/></linearGradient><linearGradient id="s" gradientUnits="userSpaceOnUse" x1="1476.17" x2="1545.77" gradientTransform="matrix(1.05295 .0665 -.07764 1.10766 -236.12 599.53)"><stop stop-color="#cceaff"/><stop offset="1" stop-color="#b3e1ff"/></linearGradient><linearGradient id="A" gradientUnits="userSpaceOnUse" y1="-2271.24" x2="0" y2="-2437.03" gradientTransform="translate(-559.19 916.773) scale(1.331)"><stop stop-color="#9bbccf"/><stop offset="1" stop-color="#d7e6f0"/></linearGradient><linearGradient id="z" gradientUnits="userSpaceOnUse" y1="-2270.25" x2="0" y2="-2437.92" gradientTransform="translate(-559.222 916.816) scale(1.331)"><stop stop-color="#99bbce"/><stop offset="1" stop-color="#d3e4ed"/></linearGradient><linearGradient id="t" gradientUnits="userSpaceOnUse" x1="1497.18" x2="1556.85" gradientTransform="matrix(1.10859 .0532 -.06212 1.15238 -295.982 649.975)"><stop stop-color="#d6eeff"/><stop offset="1" stop-color="#c2e7ff"/></linearGradient><linearGradient id="y" gradientUnits="userSpaceOnUse" y1="-2269.26" x2="0" y2="-2438.86" gradientTransform="translate(-559.207 916.822) scale(1.331)"><stop stop-color="#97bacd"/><stop offset="1" stop-color="#d0e1eb"/></linearGradient><linearGradient id="x" gradientUnits="userSpaceOnUse" y1="-2268.26" x2="0" y2="-2439.85" gradientTransform="translate(-558.913 916.85) scale(1.331)"><stop stop-color="#95b9cc"/><stop offset="1" stop-color="#cddee8"/></linearGradient><linearGradient id="u" gradientUnits="userSpaceOnUse" x1="1514.34" x2="1564.98" gradientTransform="matrix(1.16423 .03989 -.04659 1.19697 -355.888 700.45)"><stop stop-color="#e0f2ff"/><stop offset="1" stop-color="#d1edff"/></linearGradient><linearGradient id="w" gradientUnits="userSpaceOnUse" x1="1539.78" x2="1574.54" gradientTransform="matrix(1.27536 .0133 -.01553 1.28628 -475.627 801.32)"><stop stop-color="#f5fbff"/><stop offset="1" stop-color="#f0f9ff"/></linearGradient><linearGradient id="v" gradientUnits="userSpaceOnUse" x1="1528.36" x2="1570.72" gradientTransform="matrix(1.21973 .0266 -.03105 1.24169 -415.736 750.88)"><stop stop-color="#ebf6ff"/><stop offset="1" stop-color="#e0f3ff"/></linearGradient></defs><path d="M1387.783-2535.491c23.425 30.88 61.625 30.88 84.918 0 23.425-30.746 46.584-24.624 51.376 13.71 4.925 38.332 37.934 57.498 73.604 42.458 35.671-15.04 52.575 1.997 37.535 37.534-14.908 35.671 4.126 68.813 42.459 73.605 38.332 4.791 44.588 27.95 13.709 51.376-30.88 23.293-30.88 61.625 0 84.918 30.746 23.426 24.623 46.452-13.71 51.377-38.332 4.791-57.499 37.933-42.458 73.604 15.04 35.67-1.864 52.574-37.535 37.534-35.67-14.907-68.68 4.126-73.604 42.459-4.792 38.466-27.95 44.455-51.377 13.842-23.292-30.879-61.625-30.879-84.917 0-23.426 30.747-46.452 24.624-51.377-13.842-4.792-38.333-37.933-57.5-73.604-42.459-35.671 15.04-52.575-1.863-37.534-37.534 15.04-35.67-4.127-68.68-42.46-73.604-38.332-4.925-44.588-27.951-13.709-51.377 30.88-23.426 30.88-61.625 0-84.918-30.746-23.425-24.623-46.452 13.71-51.376 38.332-4.792 57.499-37.934 42.459-73.605-14.908-35.67 1.996-52.574 37.534-37.534 35.67 15.04 68.813-4.126 73.604-42.459 4.925-38.333 27.951-44.455 51.377-13.71" fill="#9cb1bf"/><path d="M1375.076-2562.32c24.224 31.943 63.888 31.943 88.112 0 24.224-31.945 48.182-25.556 53.24 14.241s39.265 59.629 76.266 44.056c37.002-15.573 54.438 1.997 38.999 38.865-15.573 37.002 4.259 71.209 44.056 76.267 39.797 5.057 46.052 29.015 14.242 53.106-31.944 24.225-31.944 63.888 0 88.113 31.81 24.224 25.422 48.182-14.242 53.107-39.797 5.057-59.629 39.397-44.056 76.266 15.572 37.002-1.997 54.438-38.999 38.865-36.868-15.44-71.208 4.392-76.266 44.056-5.058 39.664-28.883 46.186-53.24 14.242-24.224-31.944-63.888-31.944-88.112 0-24.224 31.944-48.182 25.422-53.24-14.242-5.058-39.797-39.398-59.629-76.266-44.056-36.87 15.573-54.438-1.996-38.866-38.865 15.573-36.869-4.259-71.209-44.056-76.266-39.663-4.925-46.185-28.883-14.241-53.107 31.944-24.225 31.944-63.888 0-88.113-31.944-24.224-25.556-48.182 14.241-53.106 39.797-5.058 59.63-39.265 44.056-76.267-15.572-36.868 1.997-54.438 38.866-38.865 37.001 15.573 71.208-4.26 76.266-44.056 5.058-39.664 29.016-46.053 53.24-14.242" fill="url(#a)"/><path d="M1375.618-2559.181c23.958 31.545 63.09 31.545 87.047 0 23.958-31.545 47.65-25.156 52.575 14.108 4.924 39.265 38.865 58.83 75.334 43.524 36.603-15.306 53.906 1.997 38.466 38.466-15.306 36.47 4.26 70.41 43.524 75.335 39.264 4.924 45.52 28.616 14.109 52.574-31.545 23.958-31.545 63.09 0 87.048 31.544 23.958 25.155 47.65-14.109 52.574-39.265 4.925-58.83 38.865-43.524 75.468 15.307 36.47-1.996 53.772-38.466 38.466-36.469-15.307-70.41 4.259-75.334 43.523-4.925 39.265-28.617 45.654-52.575 14.109-23.958-31.545-63.09-31.545-87.047 0-23.958 31.545-47.65 25.156-52.575-14.109-4.924-39.264-38.865-58.83-75.334-43.523-36.47 15.306-53.773-1.997-38.466-38.466 15.306-36.47-4.26-70.41-43.524-75.468-39.264-4.925-45.653-28.616-14.108-52.574 31.544-23.958 31.544-63.09 0-87.048-31.545-23.958-25.156-47.517 14.108-52.574 39.265-4.925 58.83-38.866 43.524-75.335-15.307-36.47 1.996-53.772 38.466-38.466 36.47 15.307 70.41-4.259 75.334-43.524 4.925-39.264 28.617-45.653 52.575-14.108" fill="url(#b)"/><path d="M1376.042-2555.985c23.692 31.145 62.424 31.145 85.983 0 23.691-31.146 46.984-24.89 51.909 13.842 4.924 38.865 38.466 58.165 74.403 42.991 36.07-15.173 53.24 1.997 38.066 38.067-15.173 36.07 4.26 69.611 42.991 74.536 38.866 4.925 44.988 28.217 13.976 51.909-31.145 23.692-31.145 62.29 0 85.982s24.89 47.118-13.976 51.91c-38.865 4.924-58.164 38.465-42.99 74.535 15.173 36.07-1.997 53.24-38.067 38.067-36.07-15.173-69.479 4.26-74.403 42.991-4.925 38.732-28.218 44.988-51.91 13.976-23.691-31.146-62.29-31.146-85.982 0-23.692 31.145-46.984 24.89-51.909-13.976-4.925-38.865-38.466-58.164-74.536-42.991-36.07 15.173-53.107-1.863-37.934-38.067 15.174-36.07-4.259-69.61-42.99-74.536-38.733-4.791-45.122-28.217-13.843-51.909 31.145-23.691 31.145-62.423 0-85.982-31.146-23.692-24.89-46.984 13.842-51.91 38.865-4.924 58.165-38.465 42.991-74.535-15.173-36.07 1.997-53.107 37.934-38.067 36.07 15.174 69.611-4.259 74.536-42.991 4.925-38.732 28.35-44.988 51.909-13.842" fill="url(#c)"/><path d="M1376.567-2552.736c23.426 30.746 61.626 30.746 84.918 0 23.426-30.746 46.452-24.623 51.377 13.71 4.791 38.332 37.933 57.499 73.604 42.458 35.67-15.04 52.575 1.997 37.534 37.535-15.04 35.67 4.126 68.812 42.46 73.604 38.332 4.925 44.455 27.95 13.842 51.243-30.88 23.293-30.88 61.626 0 84.918 30.746 23.426 24.623 46.452-13.843 51.244-38.333 4.791-57.499 38.066-42.459 73.604 15.04 35.67-1.863 52.575-37.534 37.534-35.538-14.907-68.68 4.126-73.604 42.46-4.792 38.332-27.951 44.455-51.377 13.708-23.292-30.746-61.625-30.746-84.918 0-23.425 30.747-46.452 24.624-51.243-13.709-4.792-38.333-37.934-57.5-73.604-42.459-35.538 15.04-52.575-1.863-37.535-37.534 14.908-35.67-4.126-68.813-42.592-73.604-38.332-4.792-44.455-27.818-13.709-51.244 30.746-23.425 30.746-61.625 0-84.918-30.746-23.425-24.623-46.451 13.71-51.243 38.332-4.792 57.499-37.934 42.591-73.604-15.04-35.671 1.997-52.575 37.535-37.535 35.67 14.908 68.812-4.126 73.604-42.458 4.791-38.333 27.95-44.589 51.243-13.71" fill="url(#d)"/><path d="M1377.122-2549.715c23.026 30.48 60.827 30.48 83.986 0 23.16-30.346 45.92-24.224 50.711 13.577 4.792 37.933 37.534 56.833 72.673 41.926 35.271-14.774 51.909 1.864 37.135 37.135-14.774 35.272 4.126 67.881 41.926 72.673 37.934 4.791 43.923 27.551 13.576 50.71-30.48 23.027-30.48 60.827 0 83.987 30.347 23.16 24.358 45.92-13.576 50.711-37.933 4.792-56.7 37.534-41.926 72.673 14.774 35.271-1.864 51.909-37.135 37.134-35.139-14.774-67.881 4.127-72.673 42.06-4.791 37.8-27.551 43.923-50.71 13.576-23.027-30.347-60.828-30.347-83.987 0-23.026 30.347-45.92 24.224-50.711-13.576-4.792-37.933-37.534-56.834-72.673-42.06-35.138 14.775-51.909-1.863-37.135-37.134 14.774-35.139-4.126-67.881-42.06-72.673-37.8-4.792-43.922-27.552-13.575-50.711 30.346-23.026 30.346-60.827 0-83.986-30.48-23.16-24.358-45.92 13.576-50.711 37.933-4.792 56.833-37.535 42.06-72.673-14.775-35.138 1.863-51.909 37.134-37.135 35.139 14.774 67.881-4.126 72.673-41.926 4.792-37.8 27.685-43.923 50.711-13.577" fill="url(#e)"/><path d="M1377.654-2546.53c22.76 30.08 60.162 30.08 82.922 0 22.893-30.08 45.387-23.958 50.045 13.443 4.659 37.401 37.002 56.035 71.741 41.528 34.872-14.641 51.244 1.863 36.736 36.602-14.641 34.74 3.993 67.082 41.394 71.874 37.401 4.792 43.39 27.286 13.443 50.046-30.08 22.76-30.08 60.028 0 82.921 29.947 22.893 23.958 45.387-13.443 50.046-37.401 4.791-56.035 37.134-41.394 71.874 14.64 34.739-1.864 51.243-36.736 36.602-34.739-14.64-67.082 3.993-71.74 41.527-4.792 37.401-27.286 43.39-50.046 13.443-22.76-30.08-60.162-30.08-82.922 0-22.76 29.948-45.387 23.958-50.045-13.443-4.659-37.4-37.002-56.035-71.874-41.527-34.74 14.641-51.244-1.863-36.603-36.602 14.641-34.74-3.993-67.083-41.527-71.874-37.401-4.659-43.39-27.153-13.443-50.046 30.08-22.76 30.08-60.161 0-82.921-30.08-22.76-23.958-45.387 13.443-50.046 37.401-4.658 56.035-37.002 41.527-71.874-14.64-34.739 1.864-51.243 36.603-36.602 34.739 14.64 67.082-3.993 71.874-41.528 4.658-37.4 27.285-43.39 50.045-13.443" fill="url(#f)"/><path d="M1378.165-2543.31c22.494 29.682 59.362 29.682 81.856 0 22.627-29.68 44.722-23.691 49.513 13.178 4.659 37.001 36.603 55.37 70.81 40.994 34.34-14.374 50.71 1.864 36.203 36.204-14.375 34.34 3.993 66.283 40.861 70.942 37.002 4.659 42.859 26.886 13.31 49.38-29.68 22.494-29.68 59.363 0 81.857 29.682 22.627 23.692 44.854-13.31 49.38-37.001 4.658-55.37 36.602-40.861 70.942 14.375 34.34-1.864 50.578-36.203 36.203-34.34-14.375-66.151 3.993-70.81 40.995-4.658 36.869-26.886 42.858-49.513 13.177-22.494-29.681-59.362-29.681-81.856 0-22.494 29.681-44.722 23.692-49.38-13.177-4.659-37.002-36.603-55.37-70.943-40.995-34.34 14.375-50.578-1.863-36.203-36.203s-3.993-66.284-40.995-70.942c-36.868-4.659-42.858-26.887-13.177-49.38 29.682-22.494 29.682-59.363 0-81.857-29.681-22.494-23.691-44.722 13.177-49.38 37.002-4.659 55.37-36.602 40.995-70.942-14.375-34.34 1.863-50.578 36.203-36.204 34.34 14.375 66.284-3.993 70.942-40.994 4.659-36.869 26.887-42.859 49.38-13.177" fill="url(#g)"/><path d="M1378.664-2540.148c22.228 29.282 58.697 29.282 80.792 0 22.36-29.282 44.189-23.425 48.847 13.044 4.659 36.47 36.07 54.704 70.01 40.462 33.941-14.241 50.047 1.864 35.805 35.804-14.242 33.94 3.993 65.485 40.462 70.01 36.47 4.66 42.326 26.62 13.177 48.849-29.282 22.227-29.282 58.564 0 80.791 29.282 22.361 23.426 44.323-13.177 48.848-36.47 4.658-54.704 36.203-40.462 70.01 14.242 33.941-1.864 50.046-35.804 35.804-33.94-14.241-65.352 3.993-70.01 40.463-4.66 36.47-26.488 42.326-48.848 13.044-22.228-29.282-58.564-29.282-80.792 0s-44.19 23.425-48.848-13.044c-4.658-36.47-36.07-54.704-70.01-40.463-33.94 14.242-49.913-1.863-35.671-35.803 14.241-33.808-3.993-65.486-40.463-70.011-36.469-4.525-42.325-26.487-13.043-48.848 29.282-22.227 29.282-58.564 0-80.791-29.282-22.228-23.426-44.19 13.043-48.848 36.47-4.526 54.704-36.07 40.463-70.01-14.242-33.941 1.863-50.046 35.67-35.805 33.941 14.242 65.486-3.993 70.011-40.462 4.659-36.47 26.62-42.326 48.848-13.044" fill="url(#h)"/><path d="M1379.212-2536.93c21.961 28.883 57.898 28.883 79.86 0 21.961-28.883 43.656-23.026 48.182 12.91 4.525 36.07 35.67 53.906 69.079 39.93 33.54-14.108 49.38 1.864 35.271 35.272-14.108 33.408 3.86 64.554 39.93 69.08 36.07 4.524 41.794 26.22 12.91 48.181-29.015 21.962-29.015 57.899 0 79.727 28.884 21.962 23.16 43.657-12.91 48.182-35.937 4.526-53.905 35.671-39.93 69.212 14.109 33.409-1.863 49.38-35.271 35.272-33.408-14.109-64.554 3.86-69.08 39.93-4.525 35.937-26.22 41.793-48.181 12.91-21.962-28.882-57.899-28.882-79.86 0-21.962 28.883-43.657 23.16-48.183-12.91-4.525-36.07-35.67-54.039-69.078-39.93-33.409 14.109-49.38-1.863-35.272-35.272 14.109-33.408-3.86-64.553-39.93-69.212-35.937-4.525-41.793-26.22-12.91-48.182 28.882-21.961 28.882-57.898 0-79.727-28.883-21.961-23.16-43.657 12.91-48.182 36.07-4.525 54.039-35.67 39.93-69.079-14.109-33.408 1.863-49.38 35.272-35.271 33.408 14.108 64.553-3.86 69.078-39.93 4.526-36.07 26.221-41.927 48.183-12.911" fill="url(#i)"/><path d="M1379.746-2533.769c21.695 28.484 57.1 28.484 78.795 0 21.695-28.616 43.124-22.76 47.65 12.778 4.525 35.538 35.138 53.24 68.147 39.397 33.009-13.842 48.715 1.864 34.872 34.873-13.842 33.008 3.86 63.755 39.398 68.28 35.67 4.525 41.26 25.954 12.777 47.517-28.616 21.695-28.616 57.1 0 78.795 28.484 21.695 22.893 43.124-12.777 47.517-35.538 4.525-53.24 35.271-39.398 68.28 13.842 33.009-1.863 48.714-34.872 34.872-33.009-13.842-63.755 3.86-68.147 39.398-4.526 35.537-25.822 41.26-47.65 12.777-21.562-28.483-57.1-28.483-78.795 0-21.696 28.484-43.125 22.76-47.517-12.777-4.525-35.538-35.271-53.24-68.28-39.398-33.01 13.842-48.715-1.73-34.872-34.872 13.842-33.009-3.86-63.755-39.398-68.28-35.538-4.393-41.261-25.822-12.778-47.517 28.484-21.695 28.484-57.1 0-78.795-28.616-21.696-22.76-43.125 12.778-47.517 35.538-4.525 53.373-35.138 39.398-68.28-13.843-33.01 1.863-48.715 34.872-34.873 33.009 13.843 63.755-3.86 68.28-39.397 4.392-35.538 25.821-41.394 47.517-12.778" fill="url(#j)"/><path d="M1380.145-2530.571c21.429 28.217 56.434 28.217 77.73 0 21.43-28.217 42.592-22.494 46.984 12.644 4.393 35.006 34.74 52.575 67.349 38.866 32.61-13.71 48.182 1.73 34.473 34.34-13.71 32.609 3.727 62.956 38.865 67.348 35.138 4.392 40.729 25.555 12.645 46.984-28.218 21.296-28.218 56.302 0 77.73 28.217 21.43 22.493 42.593-12.645 46.985-35.005 4.392-52.575 34.872-38.865 67.349 13.71 32.609-1.73 48.049-34.473 34.34-32.61-13.71-62.823 3.726-67.349 38.865-4.392 35.138-25.555 40.728-46.984 12.51-21.296-28.083-56.301-28.083-77.73 0-21.43 28.085-42.46 22.495-46.985-12.51-4.392-35.139-34.739-52.575-67.348-38.866-32.61 13.71-48.05-1.73-34.34-34.34 13.71-32.609-3.86-62.956-38.865-67.348-35.006-4.392-40.729-25.422-12.512-46.984 28.217-21.296 28.217-56.302 0-77.73-28.217-21.43-22.494-42.593 12.512-46.985 35.138-4.392 52.574-34.74 38.865-67.349-13.71-32.61 1.73-48.049 34.34-34.34 32.61 13.71 62.956-3.726 67.348-38.865 4.526-35.138 25.689-40.861 46.985-12.644" fill="url(#k)"/><path d="M1380.694-2527.454c21.162 27.818 55.635 27.818 76.665 0 21.163-27.818 41.927-22.227 46.319 12.379 4.392 34.606 34.207 51.909 66.417 38.332 32.21-13.443 47.517 1.73 33.94 33.94-13.443 32.211 3.727 62.026 38.333 66.418 34.74 4.392 40.196 25.156 12.511 46.319-27.817 21.03-27.817 55.635 0 76.665 27.818 21.163 22.228 42.06-12.51 46.319-34.607 4.392-51.777 34.34-38.334 66.417 13.576 32.21-1.73 47.384-33.94 33.94-32.21-13.576-62.025 3.727-66.417 38.333-4.392 34.606-25.156 40.196-46.319 12.379-21.03-27.818-55.636-27.818-76.665 0-21.03 27.817-41.927 22.227-46.32-12.379-4.392-34.606-34.34-51.909-66.416-38.333-32.21 13.444-47.384-1.73-33.94-33.94 13.576-32.077-3.727-62.025-38.333-66.417-34.606-4.26-40.197-25.156-12.379-46.319 27.818-21.03 27.818-55.636 0-76.665-27.818-21.163-22.227-41.927 12.379-46.32 34.606-4.391 51.909-34.339 38.332-66.416-13.443-32.21 1.73-47.517 33.94-33.94 32.211 13.576 62.025-3.727 66.418-38.333 4.392-34.473 25.289-40.197 46.319-12.379" fill="url(#l)"/><path d="M1620.167-1949.727c-13.443 66.15-46.984 83.986-82.389 76.799-35.404-7.188-59.362-36.736-45.92-102.887 13.444-66.15 94.635-136.693 94.635-136.693s47.117 96.63 33.674 162.781" fill="#9cb1bf"/><path d="M1608.453-1967.527c-13.443 66.15-46.984 83.986-82.389 76.799-35.405-7.188-59.363-36.736-45.786-102.887 13.443-66.15 94.634-136.693 94.634-136.693s47.117 96.63 33.541 162.781" fill="#78b5db"/><path d="M1527.956-1899.996c-38.332-7.72-51.642-38.066-40.595-92.371 9.05-44.322 54.57-95.832 84.785-124.981 16.504 38.599 38.332 103.818 29.282 148.14-11.048 54.438-35.006 77.065-73.472 69.212" fill="url(#m)"/><path d="M1529.007-1909.087c-35.937-7.32-48.315-35.67-38.067-86.515 8.386-41.527 51.11-89.842 79.461-117.128 15.44 36.07 35.804 97.296 27.419 138.824-10.249 50.844-32.743 72.14-68.813 64.82" fill="url(#n)"/><path d="M1530.159-1918.161c-33.541-6.788-45.121-33.275-35.538-80.792 7.853-38.732 47.783-83.72 74.137-109.275 14.375 33.674 33.408 90.774 25.555 129.506-9.583 47.517-30.613 67.349-64.154 60.56" fill="url(#o)"/><path d="M1531.187-1927.27c-31.146-6.255-41.927-30.879-32.876-74.935 7.32-35.937 44.322-77.73 68.813-101.289 13.31 31.279 31.012 84.252 23.691 120.19-8.917 43.922-28.35 62.29-59.629 56.035" fill="url(#p)"/><path d="M1532.332-1936.466c-28.75-5.857-38.6-28.484-30.347-69.08 6.788-33.141 40.861-71.74 63.488-93.435 12.246 28.882 28.617 77.73 21.829 110.872-8.252 40.595-26.22 57.5-54.97 51.643" fill="url(#q)"/><path d="M1533.382-1945.541c-26.353-5.324-35.404-26.088-27.818-63.356 6.123-30.347 37.402-65.751 58.165-85.583 11.314 26.354 26.22 71.208 19.965 101.555-7.453 37.268-23.958 52.708-50.312 47.384" fill="url(#r)"/><path d="M1534.523-1954.632c-23.825-4.925-32.21-23.692-25.29-57.5 5.59-27.55 33.941-59.628 52.841-77.73 10.249 23.958 23.825 64.554 18.235 92.239-6.921 33.674-21.828 47.783-45.786 42.991" fill="url(#s)"/><path d="M1535.568-1963.723c-21.43-4.393-28.883-21.296-22.76-51.643 5.057-24.757 30.48-53.64 47.516-69.878 9.184 21.563 21.43 58.032 16.371 82.922-6.122 30.213-19.565 42.858-41.127 38.599" fill="url(#t)"/><path d="M1536.7-1972.904c-19.032-3.86-25.687-18.9-20.097-45.92 4.525-21.96 27.152-47.649 42.192-62.024 8.12 19.167 18.9 51.51 14.508 73.605-5.59 27.019-17.569 38.2-36.602 34.34" fill="url(#u)"/><path d="M1537.746-1981.995c-16.638-3.46-22.36-16.505-17.57-40.063 3.86-19.3 23.693-41.66 36.87-54.172 7.054 16.77 16.504 44.988 12.644 64.287-4.792 23.559-15.173 33.275-31.944 29.948" fill="url(#v)"/><path d="M1538.898-1991.09c-14.242-2.929-19.167-14.11-15.04-34.207 3.327-16.505 20.23-35.538 31.544-46.32 5.99 14.243 14.109 38.467 10.781 54.971-4.126 19.965-13.044 28.483-27.285 25.555" fill="url(#w)"/><path d="M1539.95-2000.166c-11.846-2.395-15.972-11.712-12.512-28.483 2.795-13.71 16.77-29.548 26.221-38.466 4.925 11.846 11.713 31.944 8.918 45.52-3.328 16.771-10.781 23.825-22.627 21.43" fill="#fff"/><path d="M1842.54-2215.62c-4.26 0-8.385.533-12.378 1.332-2.396-26.487-24.358-47.384-51.51-47.384-5.856 0-11.447 1.198-16.638 2.929-11.047-49.248-54.704-85.983-107.278-85.983-43.79 0-81.457 25.821-99.16 63.09-9.982-8.785-22.893-14.243-37.268-14.243-30.48 0-55.103 24.092-56.434 54.172-11.846-6.655-25.289-10.78-39.797-10.78-45.12 0-81.723 36.602-81.723 81.722 0 45.121 36.602 81.724 81.723 81.724h420.33c35.005 0 63.222-28.35 63.222-63.223.133-35.005-28.217-63.355-63.089-63.355" fill="#9cb1bf"/><path d="M1834.89-2228.703c-4.259 0-8.252.4-12.378 1.331-2.396-26.62-24.357-47.383-51.51-47.383-5.99 0-11.446 1.198-16.637 2.928-11.047-49.247-54.704-85.983-107.279-85.983-43.79 0-81.457 25.955-99.026 63.09-9.983-8.785-22.893-14.375-37.268-14.375-30.48 0-55.104 24.091-56.435 54.305-11.845-6.655-25.289-10.781-39.796-10.781-45.121 0-81.724 36.602-81.724 81.723s36.603 81.59 81.724 81.59h420.33c34.872 0 63.355-28.35 63.355-63.222-.133-34.872-28.483-63.223-63.356-63.223" fill="url(#x)"/><path d="M1510.764-2307.792c14.242 0 26.754 5.59 36.337 13.976 2.13-4.392 5.856-7.587 8.518-11.58 2.795-4.126 6.522-9.583 9.85-13.177 19.166-22.494 47.25-36.868 78.662-37.667 9.05-.266 17.835.665 26.353 2.529 40.064 8.918 71.875 40.196 81.59 80.392 4.926-1.064 9.983-1.464 15.44-.931 2.796 0 5.857 1.73 8.519 2.13 2.529.399 6.522.665 8.918 1.596 2.928.666 5.59 1.73 8.252 2.929 12.245 5.723 21.695 16.637 25.555 29.947.798 2.529 1.597 6.522 1.863 9.184.133.932.666 1.73.666 2.529 1.73-.4 4.525-.799 6.389-1.065 2.262-.266 4.392-.4 6.788-.4 18.634 0 35.138 8.919 45.387 22.229 10.115 13.31 13.975 29.947 10.914 45.387 0 31.012-32.21 56.168-63.223 56.168H1424.25c-40.063 0-81.723-32.477-81.723-72.54-4.126-20.098.532-41.66 13.71-59.096 13.176-17.436 34.738-29.016 58.963-29.016 11.047 0 21.562 2.396 31.278 6.788 2.662 1.198 6.389 3.062 8.918 4.526.133-2.13 1.065-3.86 1.464-5.99.932-5.324 2.795-12.511 5.19-17.17 7.987-18.634 26.754-31.678 48.715-31.678" fill="url(#y)"/><path d="M1510.882-2306.467c14.109 0 26.354 5.723 35.405 13.71 1.863-3.86 6.522-5.325 8.918-8.785 2.396-3.594 6.522-10.116 9.45-13.31 18.368-23.027 45.786-38.067 76.665-39.664 8.785-.4 17.57.133 25.955 1.863 39.93 7.72 72.14 38.333 82.389 77.864 4.525-.266 9.184 0 14.108 1.198 2.396 0 5.458 3.061 7.853 3.46 2.263.4 7.188 0 9.317.799 3.062.4 5.99 1.198 8.785 2.263 13.177 5.057 23.559 16.504 27.152 30.746.666 2.13 1.464 7.32 1.864 9.583.133.799.931 1.33 1.065 2.13 1.597-.267 5.19-.932 6.788-1.198 2.395-.267 4.658-.533 7.054-.533 19.699 0 37.135 10.648 46.053 25.822 8.917 15.173 9.45 32.61 3.194 46.185 0 27.153-36.07 49.114-63.223 49.114h-386.389c-35.138 0-81.59-28.35-81.59-63.489-8.385-17.569-8.12-40.329 3.46-60.427 11.447-20.098 34.207-34.073 60.162-34.073 11.047 0 21.695 2.528 31.544 7.054 2.396.932 6.788 3.327 9.051 4.658.133-1.863 1.73-2.928 2.13-4.791.798-4.659 2.529-13.443 4.658-17.436 7.32-19.034 26.22-32.743 48.182-32.743" fill="url(#z)"/><path d="M1511.18-2305.18c13.976 0 25.822 5.724 34.474 13.31 1.597-3.327 7.32-3.06 9.317-6.122 1.996-3.061 6.522-10.648 9.05-13.443 17.57-23.559 44.323-39.131 74.67-41.527 8.651-.665 17.303-.266 25.688 1.198 39.797 6.655 72.406 36.336 83.32 75.468 4.127.532 8.386 1.464 12.778 3.327 2.13 0 5.058 4.526 7.054 4.925 1.997.4 7.987-.533 9.717 0 3.327.133 6.389.665 9.317 1.597 14.242 4.26 25.555 16.371 28.883 31.545.665 1.863 1.464 8.119 1.73 10.115.133.666 1.33 1.065 1.33 1.73 1.332-.266 5.724-1.064 7.055-1.197 2.396-.4 4.925-.533 7.454-.533 20.896 0 38.998 12.379 46.585 29.549 7.586 17.036 4.791 35.271-4.393 46.85 0 23.293-39.93 42.06-63.222 42.06h-369.353c-30.08 0-81.59-24.357-81.59-54.438-12.511-15.04-16.637-39.131-6.788-61.758 9.85-22.627 33.674-39.264 61.36-39.264 11.18 0 21.827 2.662 31.677 7.32 1.996.799 7.32 3.727 9.184 4.792.133-1.598 2.529-1.997 2.795-3.594.665-3.993 2.263-14.242 4.126-17.702 6.655-19.7 25.555-34.207 47.783-34.207" fill="url(#A)"/><path d="M1511.42-2303.877c13.976 0 25.423 5.856 33.542 13.044 1.33-2.795 7.986-.799 9.716-3.328 1.73-2.529 6.522-11.313 8.651-13.576 16.771-24.224 42.859-40.33 72.673-43.524a101.496 101.496 0 0 1 25.422.4c39.664 5.59 72.673 34.473 84.252 73.072 3.86 1.198 7.587 2.928 11.447 5.324 1.73 0 4.792 5.99 6.389 6.255 1.597.267 8.651-1.198 10.116-.665 3.46-.133 6.655.133 9.849.932 15.173 3.593 27.419 16.238 30.48 32.476.532 1.597 1.33 9.05 1.597 10.648.133.532 1.597.799 1.73 1.33 1.065-.265 6.39-1.197 7.454-1.33 2.529-.4 5.19-.666 7.853-.666 22.094 0 40.862 14.242 47.25 33.142 6.39 18.9.267 37.934-12.112 47.65 0 19.433-43.79 35.139-63.09 35.139h-352.315c-25.023 0-81.59-20.232-81.59-45.388-16.77-12.511-25.29-37.8-17.037-63.089 8.252-25.289 33.142-44.322 62.424-44.322 11.18 0 21.961 2.662 31.944 7.72 1.73.665 7.72 3.993 9.317 4.924 0-1.33 3.194-1.065 3.46-2.262.533-3.328 1.997-15.174 3.594-17.969 5.59-20.764 24.624-35.937 46.985-35.937" fill="url(#B)"/><path d="M1511.68-2302.528c13.843 0 24.89 5.856 32.61 12.644 1.065-2.262 8.784 1.464 10.115-.665 1.331-1.997 6.655-11.846 8.253-13.71 15.838-24.756 41.26-41.527 70.676-45.387 8.385-1.064 16.77-1.197 25.155-.266 39.531 4.393 72.94 32.477 85.051 70.676 3.461 1.997 6.788 4.393 10.116 7.454 1.331 0 4.392 7.32 5.723 7.587 1.331.266 9.317-1.864 10.648-1.464 3.727-.4 7.055-.267 10.382.266 16.238 2.928 29.282 16.105 32.21 33.275.4 1.198 1.331 9.85 1.464 11.18 0 .4 1.997.533 1.997.932.932-.133 6.921-1.331 7.853-1.464 2.662-.4 5.457-.666 8.252-.666 23.16 0 42.725 15.972 47.916 36.736 5.058 20.763-4.26 40.595-19.699 48.315 0 15.44-47.65 28.084-63.09 28.084h-335.278c-20.098 0-81.457-16.238-81.457-36.336-20.897-9.982-33.94-36.47-27.419-64.42 6.522-27.951 32.743-49.38 63.622-49.38 11.18 0 22.094 2.795 32.21 7.986 1.331.532 8.12 4.392 9.45 5.057 0-1.064 3.86 0 4.126-1.064.4-2.663 1.73-15.973 2.928-18.368 4.659-21.03 23.56-37.002 46.186-37.002" fill="url(#C)"/><path d="M1511.993-2301.224c13.709 0 24.357 5.99 31.677 12.379.799-1.598 9.45 3.593 10.515 2.13 1.065-1.465 6.655-12.512 7.853-13.843 15.04-25.29 39.797-42.592 68.547-47.384 8.252-1.33 16.504-1.73 24.89-.931 39.397 3.327 73.204 30.613 85.982 68.28 3.061 2.795 5.99 5.856 8.785 9.583 1.064 0 3.993 8.785 5.057 8.918.932.133 10.116-2.53 11.048-2.13 3.86-.665 7.453-.798 10.914-.4 17.303 2.264 31.278 15.973 33.94 34.074.267.932 1.331 10.648 1.464 11.713 0 .266 2.396.133 2.396.533.666-.133 7.587-1.464 8.252-1.598 2.796-.399 5.724-.798 8.652-.798 24.357 0 44.722 17.702 48.448 40.462 3.86 22.627-8.917 43.258-27.418 49.114 0 11.58-51.377 21.03-63.09 21.03H1471.53c-15.04 0-81.457-12.112-81.457-27.152-25.156-7.587-42.592-35.139-37.667-65.752 4.924-30.613 32.21-54.438 64.82-54.438 11.18 0 22.227 2.928 32.476 8.386 1.065.399 8.651 4.658 9.583 5.19 0-.798 4.658.932 4.792.134.399-1.997 1.464-16.904 2.395-18.634 3.727-22.228 22.76-38.866 45.52-38.866" fill="url(#D)"/><path d="M1512.346-2299.795c13.576 0 23.958 5.99 30.746 11.979.532-1.065 10.116 5.856 10.914 4.924.666-1.064 6.655-13.043 7.454-13.975 14.242-25.821 38.333-43.79 66.55-49.38 7.986-1.597 16.238-2.13 24.623-1.73 39.265 2.262 73.472 28.75 86.915 65.751 2.795 3.594 5.19 7.32 7.453 11.58.666 0 3.594 10.115 4.26 10.248.665.133 10.78-3.06 11.446-2.928 4.126-.932 7.853-1.33 11.447-1.065 18.367 1.464 33.142 15.84 35.537 34.873.267.665 1.198 11.58 1.331 12.245 0 .266 2.662-.133 2.795.133.4-.133 8.12-1.597 8.519-1.73a50.867 50.867 0 0 1 9.05-.799c25.423 0 46.586 19.566 49.115 44.056 2.528 24.49-13.444 45.92-35.006 49.78 0 7.72-55.236 13.975-63.09 13.975h-301.338c-9.982 0-81.457-8.12-81.457-18.102-29.282-5.057-51.11-33.94-47.916-67.082 3.328-33.142 31.678-59.629 66.018-59.629 11.313 0 22.228 2.928 32.742 8.652.666.266 9.051 5.057 9.717 5.324 0-.533 5.324 1.863 5.457 1.33.266-1.33 1.33-17.702 1.863-18.9 2.795-22.227 21.829-39.53 44.855-39.53" fill="url(#E)"/><path d="M1512.706-2298.508c13.443 0 23.426 6.123 29.815 11.713.266-.532 10.914 8.12 11.18 7.587.4-.533 6.655-13.71 7.054-14.109 13.443-26.487 36.869-44.988 64.554-51.243 7.853-1.73 15.972-2.662 24.357-2.396 39.131 1.065 73.87 26.753 87.713 63.356 2.396 4.259 4.525 8.917 6.123 13.709.399 0 3.327 11.58 3.593 11.713.266 0 11.58-3.727 11.846-3.594 4.26-1.198 8.252-1.863 11.98-1.597 19.299.798 35.138 15.839 37.267 35.67.133.267 1.198 12.379 1.198 12.645 0 .133 3.061-.4 3.061-.266.267 0 8.652-1.73 8.918-1.73 3.061-.533 6.123-.932 9.45-.932 26.62 0 48.449 21.296 49.78 47.65 1.33 26.353-17.969 48.581-42.726 50.578 0 3.86-59.096 7.054-62.956 7.054h-284.301c-5.058 0-81.458-3.993-81.458-9.05-33.54-2.53-59.762-32.61-58.164-68.414 1.597-35.804 31.145-64.687 67.215-64.687 11.314 0 22.361 3.061 33.009 8.918.4.133 9.45 5.324 9.85 5.59 0-.266 5.989 2.928 6.122 2.662.133-.665 1.065-18.634 1.331-19.166 1.863-23.559 21.03-41.66 44.19-41.66" fill="url(#F)"/><path d="M1830.582-2114.12h-411.679c-37.667 0-68.413-31.279-68.413-69.745 0-38.465 30.746-69.744 68.413-69.744 11.314 0 22.494 3.194 33.142 9.317l16.638 9.583.798-19.565c.932-23.958 20.098-42.859 43.524-42.859 13.31 0 23.026 6.123 28.883 11.447l11.58 10.382 6.654-14.242c16.106-34.739 49.247-56.301 86.515-56.301 44.456 0 83.853 32.343 93.57 76.799l2.928 13.043 12.245-4.392c4.526-1.464 8.519-2.263 12.512-2.263 20.364 0 37.001 15.706 38.998 36.47l1.065 13.177 12.777-2.53c3.195-.532 6.389-1.064 9.85-1.064 27.818 0 50.311 23.026 50.311 51.377 0 28.084-22.627 51.11-50.311 51.11" fill="url(#G)"/></svg>