<svg xmlns="http://www.w3.org/2000/svg" xmlns:xlink="http://www.w3.org/1999/xlink" viewBox="2239.7 -2648 841.9 841.90004" width="841.9" height="841.9"><defs><linearGradient id="v" gradientUnits="userSpaceOnUse" y1="-2235.44" x2="0" y2="-2616.35" gradientTransform="translate(-886.548 875.272) scale(1.331)"><stop stop-color="#e69e00"/><stop offset="1" stop-color="#fff200"/></linearGradient><linearGradient id="Y" gradientUnits="userSpaceOnUse" y1="-2099.66" x2="0" y2="-2317.14" xlink:href="#a" gradientTransform="translate(-897.566 807.495) scale(1.331)"/><linearGradient id="aa" gradientUnits="userSpaceOnUse" y1="-2102.4" x2="0" y2="-2315.5" xlink:href="#b" gradientTransform="translate(-898.2 807.616) scale(1.331)"/><linearGradient id="Z" gradientUnits="userSpaceOnUse" y1="-2101.03" x2="0" y2="-2316.28" xlink:href="#c" gradientTransform="translate(-897.863 807.576) scale(1.331)"/><linearGradient id="X" gradientUnits="userSpaceOnUse" y1="-2098.29" x2="0" y2="-2318.06" xlink:href="#d" gradientTransform="translate(-897.371 807.51) scale(1.331)"/><linearGradient id="S" gradientUnits="userSpaceOnUse" y1="-2091.44" x2="0" y2="-2323.79" xlink:href="#e" gradientTransform="translate(-897.42 807.505) scale(1.331)"/><linearGradient id="W" gradientUnits="userSpaceOnUse" y1="-2096.92" x2="0" y2="-2319.06" xlink:href="#f" gradientTransform="translate(-897.028 807.485) scale(1.331)"/><linearGradient id="T" gradientUnits="userSpaceOnUse" y1="-2092.81" x2="0" y2="-2322.51" xlink:href="#g" gradientTransform="translate(-896.89 807.56) scale(1.331)"/><linearGradient id="V" gradientUnits="userSpaceOnUse" y1="-2095.55" x2="0" y2="-2320.14" xlink:href="#h" gradientTransform="translate(-896.927 807.467) scale(1.331)"/><linearGradient id="U" gradientUnits="userSpaceOnUse" y1="-2094.18" x2="0" y2="-2321.29" xlink:href="#i" gradientTransform="translate(-896.854 807.506) scale(1.331)"/><linearGradient id="k" gradientUnits="userSpaceOnUse" y1="-2207.25" x2="0" y2="-2644.53" gradientTransform="translate(-886.542 875.278) scale(1.331)"><stop stop-color="#df8800"/><stop offset="1" stop-color="#ffb11f"/></linearGradient><linearGradient id="l" gradientUnits="userSpaceOnUse" y1="-2209.81" x2="0" y2="-2641.97" gradientTransform="translate(-886.525 875.223) scale(1.331)"><stop stop-color="#e08a00"/><stop offset="1" stop-color="#ffb71c"/></linearGradient><linearGradient id="s" gradientUnits="userSpaceOnUse" y1="-2227.75" x2="0" y2="-2624.04" gradientTransform="translate(-886.532 875.246) scale(1.331)"><stop stop-color="#e49800"/><stop offset="1" stop-color="#ffe008"/></linearGradient><linearGradient id="u" gradientUnits="userSpaceOnUse" y1="-2232.88" x2="0" y2="-2618.92" gradientTransform="translate(-886.564 875.216) scale(1.331)"><stop stop-color="#e59c00"/><stop offset="1" stop-color="#ffec03"/></linearGradient><linearGradient id="t" gradientUnits="userSpaceOnUse" y1="-2230.32" x2="0" y2="-2621.48" gradientTransform="translate(-886.53 875.213) scale(1.331)"><stop stop-color="#e59a00"/><stop offset="1" stop-color="#ffe606"/></linearGradient><linearGradient id="r" gradientUnits="userSpaceOnUse" y1="-2225.19" x2="0" y2="-2626.6" gradientTransform="translate(-886.548 875.223) scale(1.331)"><stop stop-color="#e39600"/><stop offset="1" stop-color="#ffda0b"/></linearGradient><linearGradient id="m" gradientUnits="userSpaceOnUse" y1="-2212.38" x2="0" y2="-2639.41" gradientTransform="translate(-886.54 875.224) scale(1.331)"><stop stop-color="#e08c00"/><stop offset="1" stop-color="#ffbd19"/></linearGradient><linearGradient id="q" gradientUnits="userSpaceOnUse" y1="-2222.63" x2="0" y2="-2629.16" gradientTransform="translate(-886.548 875.256) scale(1.331)"><stop stop-color="#e39400"/><stop offset="1" stop-color="#ffd40e"/></linearGradient><linearGradient id="n" gradientUnits="userSpaceOnUse" y1="-2214.94" x2="0" y2="-2636.85" gradientTransform="translate(-886.548 875.28) scale(1.331)"><stop stop-color="#e18e00"/><stop offset="1" stop-color="#ffc317"/></linearGradient><linearGradient id="p" gradientUnits="userSpaceOnUse" y1="-2220.06" x2="0" y2="-2631.72" gradientTransform="translate(-886.525 875.23) scale(1.331)"><stop stop-color="#e29200"/><stop offset="1" stop-color="#ffcf11"/></linearGradient><linearGradient id="o" gradientUnits="userSpaceOnUse" y1="-2217.5" x2="0" y2="-2634.28" gradientTransform="translate(-886.525 875.24) scale(1.331)"><stop stop-color="#e29000"/><stop offset="1" stop-color="#ffc914"/></linearGradient><linearGradient id="R" gradientUnits="userSpaceOnUse" y1="-2090.07" x2="0" y2="-2325.15" xlink:href="#j" gradientTransform="translate(-898.15 807.616) scale(1.331)"/><linearGradient id="b" gradientUnits="userSpaceOnUse" y1="-2277.2" x2="0" y2="-2432.81"><stop stop-color="#a7c2d4"/><stop offset="1" stop-color="#eaf7ff"/></linearGradient><linearGradient id="C" gradientUnits="userSpaceOnUse" x1="2868.89" x2="2938.49" gradientTransform="matrix(1.05295 .0665 -.07764 1.10766 -597.568 496.486)"><stop stop-color="#cceaff"/><stop offset="1" stop-color="#b3e1ff"/></linearGradient><linearGradient id="E" gradientUnits="userSpaceOnUse" x1="2773.48" x2="2824.11" gradientTransform="matrix(1.16423 .03989 -.04659 1.19697 -717.335 597.406)"><stop stop-color="#e0f2ff"/><stop offset="1" stop-color="#d1edff"/></linearGradient><linearGradient id="D" gradientUnits="userSpaceOnUse" x1="2820.06" x2="2879.73" gradientTransform="matrix(1.10859 .0532 -.06212 1.15238 -657.462 546.93)"><stop stop-color="#d6eeff"/><stop offset="1" stop-color="#c2e7ff"/></linearGradient><linearGradient id="B" gradientUnits="userSpaceOnUse" x1="2919.93" x2="3000.48" gradientTransform="matrix(.99732 .0798 -.09317 1.06294 -537.701 446.055)"><stop stop-color="#c2e5ff"/><stop offset="1" stop-color="#a3dbff"/></linearGradient><linearGradient id="w" gradientUnits="userSpaceOnUse" x1="3195.42" x2="3353.94" gradientTransform="matrix(.71927 .14628 -.17077 .8396 -238.308 193.829)"><stop stop-color="#8fd0ff"/><stop offset="1" stop-color="#57bdff"/></linearGradient><linearGradient id="A" gradientUnits="userSpaceOnUse" x1="2973.02" x2="3065.71" gradientTransform="matrix(.94168 .09309 -.1087 1.01835 -477.812 395.607)"><stop stop-color="#b8e1ff"/><stop offset="1" stop-color="#94d5ff"/></linearGradient><linearGradient id="x" gradientUnits="userSpaceOnUse" x1="3140.18" x2="3278.95" gradientTransform="matrix(.7749 .133 -.15533 .88432 -298.197 244.26)"><stop stop-color="#99d4ff"/><stop offset="1" stop-color="#66c3ff"/></linearGradient><linearGradient id="z" gradientUnits="userSpaceOnUse" x1="3027.84" x2="3134.09" gradientTransform="matrix(.88605 .10639 -.12424 .97363 -417.95 345.136)"><stop stop-color="#aeddff"/><stop offset="1" stop-color="#85cfff"/></linearGradient><linearGradient id="y" gradientUnits="userSpaceOnUse" x1="3083.86" x2="3205.35" gradientTransform="matrix(.83054 .11968 -.13975 .92904 -358.052 294.721)"><stop stop-color="#a3d9ff"/><stop offset="1" stop-color="#76c9ff"/></linearGradient><linearGradient id="F" gradientUnits="userSpaceOnUse" x1="2729.15" x2="2771.51" gradientTransform="matrix(1.21973 .0266 -.03105 1.24169 -777.217 647.837)"><stop stop-color="#ebf6ff"/><stop offset="1" stop-color="#e0f3ff"/></linearGradient><linearGradient id="G" gradientUnits="userSpaceOnUse" x1="2687.02" x2="2721.78" gradientTransform="matrix(1.27536 .0133 -.01553 1.28628 -837.074 698.277)"><stop stop-color="#f5fbff"/><stop offset="1" stop-color="#f0f9ff"/></linearGradient><linearGradient id="d" gradientUnits="userSpaceOnUse" y1="-2274.22" x2="0" y2="-2434.67"><stop stop-color="#a1bfd1"/><stop offset="1" stop-color="#e0eff7"/></linearGradient><linearGradient id="c" gradientUnits="userSpaceOnUse" y1="-2276.21" x2="0" y2="-2433.38"><stop stop-color="#a5c1d3"/><stop offset="1" stop-color="#e7f4fc"/></linearGradient><linearGradient id="a" gradientUnits="userSpaceOnUse" y1="-2275.22" x2="0" y2="-2434"><stop stop-color="#a3c0d2"/><stop offset="1" stop-color="#e4f1fa"/></linearGradient><linearGradient id="f" gradientUnits="userSpaceOnUse" y1="-2273.23" x2="0" y2="-2435.4"><stop stop-color="#9fbed0"/><stop offset="1" stop-color="#ddecf5"/></linearGradient><linearGradient id="j" gradientUnits="userSpaceOnUse" y1="-2268.26" x2="0" y2="-2439.85"><stop stop-color="#95b9cc"/><stop offset="1" stop-color="#cddee8"/></linearGradient><linearGradient id="h" gradientUnits="userSpaceOnUse" y1="-2272.24" x2="0" y2="-2436.19"><stop stop-color="#9dbdd0"/><stop offset="1" stop-color="#dae9f2"/></linearGradient><linearGradient id="e" gradientUnits="userSpaceOnUse" y1="-2269.26" x2="0" y2="-2438.86"><stop stop-color="#97bacd"/><stop offset="1" stop-color="#d0e1eb"/></linearGradient><linearGradient id="i" gradientUnits="userSpaceOnUse" y1="-2271.24" x2="0" y2="-2437.03"><stop stop-color="#9bbccf"/><stop offset="1" stop-color="#d7e6f0"/></linearGradient><linearGradient id="g" gradientUnits="userSpaceOnUse" y1="-2270.25" x2="0" y2="-2437.92"><stop stop-color="#99bbce"/><stop offset="1" stop-color="#d3e4ed"/></linearGradient><linearGradient xlink:href="#b" id="Q" gradientUnits="userSpaceOnUse" y1="-2277.2" x2="0" y2="-2432.81" gradientTransform="translate(-938.549 854.833) scale(1.331)"/><linearGradient xlink:href="#c" id="P" gradientUnits="userSpaceOnUse" y1="-2276.21" x2="0" y2="-2433.38" gradientTransform="translate(-938.582 854.789) scale(1.331)"/><linearGradient xlink:href="#a" id="O" gradientUnits="userSpaceOnUse" y1="-2275.22" x2="0" y2="-2434" gradientTransform="translate(-938.676 854.832) scale(1.331)"/><linearGradient xlink:href="#d" id="N" gradientUnits="userSpaceOnUse" y1="-2274.22" x2="0" y2="-2434.67" gradientTransform="translate(-938.763 854.735) scale(1.331)"/><linearGradient xlink:href="#f" id="M" gradientUnits="userSpaceOnUse" y1="-2273.23" x2="0" y2="-2435.4" gradientTransform="translate(-938.809 854.762) scale(1.331)"/><linearGradient xlink:href="#h" id="L" gradientUnits="userSpaceOnUse" y1="-2272.24" x2="0" y2="-2436.19" gradientTransform="translate(-938.802 854.744) scale(1.331)"/><linearGradient xlink:href="#i" id="K" gradientUnits="userSpaceOnUse" y1="-2271.24" x2="0" y2="-2437.03" gradientTransform="translate(-938.776 854.773) scale(1.331)"/><linearGradient xlink:href="#g" id="J" gradientUnits="userSpaceOnUse" y1="-2270.25" x2="0" y2="-2437.92" gradientTransform="translate(-938.808 854.816) scale(1.331)"/><linearGradient xlink:href="#e" id="I" gradientUnits="userSpaceOnUse" y1="-2269.26" x2="0" y2="-2438.86" gradientTransform="translate(-938.76 854.822) scale(1.331)"/><linearGradient xlink:href="#j" id="H" gradientUnits="userSpaceOnUse" y1="-2268.26" x2="0" y2="-2439.85" gradientTransform="translate(-938.466 854.85) scale(1.331)"/></defs><path d="M2581.84-2597.491c23.426 30.88 61.626 30.88 84.918 0 23.426-30.746 46.585-24.624 51.377 13.71 4.924 38.332 37.933 57.498 73.604 42.458 35.67-15.04 52.575 1.997 37.534 37.534-14.907 35.671 4.126 68.813 42.46 73.605 38.332 4.791 44.588 27.95 13.708 51.376-30.879 23.293-30.879 61.625 0 84.918 30.747 23.426 24.624 46.452-13.709 51.377-38.333 4.791-57.5 37.933-42.459 73.604 15.04 35.67-1.863 52.574-37.534 37.534-35.67-14.907-68.68 4.126-73.604 42.459-4.792 38.466-27.951 44.455-51.377 13.842-23.292-30.879-61.625-30.879-84.918 0-23.425 30.747-46.452 24.624-51.376-13.842-4.792-38.333-37.934-57.5-73.605-42.459-35.67 15.04-52.574-1.863-37.534-37.534 15.04-35.67-4.126-68.68-42.459-73.604-38.333-4.925-44.588-27.951-13.709-51.377 30.88-23.426 30.88-61.625 0-84.918-30.746-23.425-24.624-46.452 13.71-51.376 38.332-4.792 57.498-37.934 42.458-73.605-14.907-35.67 1.997-52.574 37.534-37.534 35.671 15.04 68.813-4.126 73.605-42.459 4.924-38.333 28.084-44.455 51.376-13.71" fill="#9cb1bf"/><path d="M2569.133-2624.32c24.225 31.943 63.889 31.943 88.113 0 24.224-31.945 48.182-25.556 53.24 14.241 5.057 39.797 39.264 59.629 76.266 44.056s54.438 1.997 38.998 38.865c-15.572 37.002 4.26 71.209 44.056 76.267 39.797 5.057 46.053 29.015 14.242 53.106-31.944 24.225-31.944 63.888 0 88.113 31.811 24.224 25.422 48.182-14.242 53.107-39.797 5.057-59.628 39.397-44.056 76.266 15.573 37.002-1.996 54.438-38.998 38.865-36.869-15.44-71.209 4.392-76.266 44.056-5.058 39.664-28.883 46.186-53.24 14.242-24.225-31.944-63.888-31.944-88.113 0-24.224 31.944-48.182 25.422-53.24-14.242-5.057-39.797-39.397-59.629-76.266-44.056-36.869 15.573-54.438-1.996-38.865-38.865s-4.26-71.209-44.056-76.266c-39.664-4.925-46.186-28.883-14.242-53.107 31.944-24.225 31.944-63.888 0-88.113-31.944-24.224-25.555-48.182 14.242-53.106 39.797-5.058 59.629-39.265 44.056-76.267-15.573-36.868 1.996-54.438 38.865-38.865 37.002 15.573 71.209-4.26 76.266-44.056 5.191-39.664 29.016-46.053 53.24-14.242" fill="url(#k)"/><path d="M2569.682-2621.181c23.958 31.545 63.09 31.545 87.048 0s47.65-25.156 52.574 14.108c4.925 39.265 38.866 58.83 75.335 43.524 36.602-15.306 53.905 1.997 38.466 38.466-15.307 36.47 4.259 70.41 43.524 75.335 39.264 4.924 45.52 28.616 14.108 52.574-31.545 23.958-31.545 63.09 0 87.048 31.412 23.958 25.156 47.65-14.108 52.574-39.265 4.925-58.83 38.865-43.524 75.468 15.306 36.47-1.997 53.772-38.466 38.466-36.47-15.307-70.41 4.259-75.335 43.523-4.924 39.265-28.616 45.654-52.574 14.109s-63.09-31.545-87.048 0-47.65 25.156-52.574-14.109c-4.925-39.264-38.865-58.83-75.335-43.523-36.47 15.306-53.772-1.997-38.466-38.466 15.307-36.47-4.259-70.41-43.523-75.468-39.265-4.925-45.654-28.616-14.109-52.574s31.545-63.09 0-87.048-25.156-47.517 14.109-52.574c39.264-4.925 58.83-38.865 43.523-75.335-15.306-36.47 1.997-53.772 38.466-38.466 36.47 15.307 70.41-4.26 75.335-43.524 5.058-39.264 28.616-45.653 52.574-14.108" fill="url(#l)"/><path d="M2570.2-2617.985c23.691 31.145 62.424 31.145 85.982 0 23.692-31.146 46.984-24.89 51.91 13.842 4.924 38.865 38.465 58.165 74.402 42.991 36.07-15.173 53.24 1.997 38.067 38.067-15.174 36.07 4.259 69.611 42.991 74.536 38.865 4.925 44.988 28.217 13.976 51.909-31.146 23.692-31.146 62.29 0 85.982 31.145 23.692 24.89 47.118-13.976 51.91-38.865 4.924-58.165 38.465-42.991 74.535 15.173 36.07-1.997 53.24-38.067 38.067-36.07-15.173-69.478 4.26-74.403 42.991-4.925 38.732-28.217 44.988-51.909 13.976-23.692-31.146-62.29-31.146-85.982 0-23.692 31.145-46.985 24.89-51.91-13.976-4.924-38.865-38.465-58.164-74.535-42.991-36.07 15.173-53.107-1.863-37.934-38.067 15.173-36.07-4.26-69.61-42.991-74.536-38.732-4.791-45.121-28.217-13.843-51.909 31.146-23.691 31.146-62.423 0-85.982-31.145-23.692-24.89-46.984 13.843-51.91 38.865-4.924 58.164-38.465 42.991-74.535-15.173-36.07 1.997-53.107 37.934-38.067 36.07 15.174 69.61-4.259 74.536-42.991 4.924-38.732 28.217-44.988 51.909-13.842" fill="url(#m)"/><path d="M2570.725-2614.736c23.426 30.746 61.625 30.746 84.918 0 23.425-30.746 46.452-24.623 51.376 13.71 4.792 38.332 37.934 57.499 73.605 42.458 35.67-15.04 52.574 1.997 37.534 37.535-15.04 35.67 4.126 68.812 42.459 73.604 38.333 4.925 44.455 27.95 13.842 51.243-30.879 23.293-30.879 61.626 0 84.918 30.746 23.426 24.624 46.452-13.842 51.244-38.333 4.791-57.5 38.066-42.46 73.604 15.041 35.67-1.862 52.575-37.533 37.534-35.538-14.907-68.68 4.126-73.605 42.46-4.791 38.332-27.95 44.455-51.376 13.708-23.293-30.746-61.625-30.746-84.918 0-23.426 30.747-46.452 24.624-51.243-13.709-4.792-38.333-37.934-57.5-73.605-42.459-35.538 15.04-52.574-1.863-37.534-37.534 14.907-35.67-4.126-68.813-42.592-73.604-38.333-4.792-44.455-27.818-13.71-51.244 30.747-23.425 30.747-61.625 0-84.918-30.745-23.425-24.623-46.451 13.71-51.243 38.333-4.792 57.5-37.934 42.592-73.604-15.04-35.671 1.996-52.575 37.534-37.535 35.671 14.908 68.813-4.126 73.604-42.458 4.792-38.333 27.818-44.589 51.244-13.71" fill="url(#n)"/><path d="M2571.28-2611.715c23.026 30.48 60.826 30.48 83.986 0 23.16-30.346 45.92-24.224 50.71 13.577 4.792 37.933 37.535 56.833 72.673 41.926 35.272-14.774 51.91 1.864 37.135 37.135-14.774 35.272 4.126 67.881 41.927 72.673 37.933 4.791 43.923 27.551 13.576 50.71-30.48 23.027-30.48 60.827 0 83.987 30.347 23.16 24.357 45.92-13.576 50.711-37.934 4.792-56.7 37.534-41.927 72.673 14.774 35.271-1.863 51.909-37.135 37.134-35.138-14.774-67.88 4.127-72.672 42.06-4.792 37.8-27.552 43.923-50.711 13.576-23.027-30.347-60.827-30.347-83.986 0-23.027 30.347-45.92 24.224-50.712-13.576-4.791-37.933-37.534-56.834-72.672-42.06-35.139 14.775-51.91-1.863-37.135-37.134 14.774-35.139-4.126-67.881-42.06-72.673-37.8-4.792-43.923-27.552-13.576-50.711 30.347-23.026 30.347-60.827 0-83.986-30.48-23.16-24.357-45.92 13.576-50.711 37.934-4.792 56.834-37.535 42.06-72.673-14.774-35.138 1.863-51.909 37.135-37.135 35.138 14.774 67.88-4.126 72.672-41.926 4.792-37.8 27.552-43.923 50.712-13.577" fill="url(#o)"/><path d="M2571.812-2608.53c22.76 30.08 60.161 30.08 82.921 0 22.893-30.08 45.387-23.958 50.046 13.443 4.658 37.401 37.002 56.035 71.74 41.528 34.873-14.641 51.244 1.863 36.736 36.602-14.64 34.74 3.993 67.082 41.394 71.874 37.402 4.792 43.391 27.286 13.444 50.046-30.081 22.76-30.081 60.028 0 82.921 29.947 22.893 23.958 45.387-13.444 50.046-37.4 4.791-56.035 37.134-41.394 71.874 14.641 34.739-1.863 51.243-36.735 36.602-34.74-14.64-67.083 3.993-71.741 41.527-4.792 37.401-27.286 43.39-50.046 13.443-22.76-30.08-60.16-30.08-82.921 0-22.76 29.948-45.387 23.958-50.046-13.443-4.658-37.4-37.001-56.035-71.874-41.527-34.739 14.641-51.243-1.863-36.602-36.602 14.64-34.74-3.993-67.083-41.527-71.874-37.401-4.659-43.39-27.153-13.443-50.046 30.08-22.76 30.08-60.161 0-82.921-30.081-22.76-23.958-45.387 13.443-50.046 37.4-4.658 56.035-37.002 41.527-71.874-14.641-34.739 1.863-51.243 36.602-36.602 34.74 14.64 67.083-3.993 71.874-41.528 4.659-37.4 27.153-43.39 50.046-13.443" fill="url(#p)"/><path d="M2572.322-2605.31c22.494 29.682 59.363 29.682 81.857 0 22.627-29.68 44.721-23.69 49.513 13.178 4.658 37.002 36.602 55.37 70.81 40.995 34.339-14.375 50.71 1.863 36.202 36.203-14.375 34.34 3.993 66.284 40.862 70.942 37.002 4.659 42.858 26.886 13.31 49.38-29.681 22.494-29.681 59.363 0 81.857 29.681 22.627 23.692 44.854-13.31 49.38-37.002 4.658-55.37 36.602-40.862 70.942 14.375 34.34-1.863 50.578-36.203 36.203s-66.15 3.993-70.81 40.995c-4.658 36.869-26.885 42.858-49.512 13.177-22.494-29.681-59.363-29.681-81.857 0s-44.721 23.692-49.38-13.177c-4.658-37.002-36.602-55.37-70.942-40.995-34.34 14.375-50.578-1.863-36.203-36.203 14.374-34.34-3.993-66.284-40.995-70.942-36.869-4.659-42.858-26.886-13.177-49.38 29.681-22.494 29.681-59.363 0-81.857s-23.692-44.721 13.177-49.38c37.002-4.658 55.37-36.602 40.995-70.942-14.375-34.34 1.863-50.578 36.203-36.203 34.34 14.374 66.284-3.993 70.942-40.995 4.526-36.869 26.753-42.858 49.38-13.177" fill="url(#q)"/><path d="M2572.722-2602.148c22.227 29.282 58.697 29.282 80.791 0 22.361-29.282 44.19-23.425 48.848 13.044 4.658 36.47 36.07 54.704 70.01 40.462 33.941-14.241 50.046 1.864 35.804 35.804-14.241 33.94 3.993 65.486 40.463 70.01 36.47 4.66 42.326 26.62 13.177 48.849-29.282 22.227-29.282 58.564 0 80.791 29.282 22.361 23.425 44.323-13.177 48.848-36.47 4.659-54.704 36.203-40.463 70.01 14.242 33.941-1.863 50.046-35.804 35.804-33.94-14.241-65.352 3.993-70.01 40.463-4.659 36.47-26.487 42.326-48.848 13.044-22.227-29.282-58.564-29.282-80.791 0-22.228 29.282-44.19 23.425-48.848-13.044-4.659-36.47-36.07-54.704-70.01-40.463-33.941 14.242-49.913-1.863-35.672-35.803 14.242-33.808-3.993-65.486-40.462-70.011-36.47-4.525-42.326-26.487-13.044-48.848 29.282-22.227 29.282-58.564 0-80.791-29.282-22.228-23.425-44.19 13.044-48.848 36.47-4.525 54.704-36.07 40.462-70.01-14.241-33.941 1.864-50.046 35.671-35.805 33.94 14.242 65.485-3.993 70.01-40.462 4.66-36.47 26.62-42.326 48.849-13.044" fill="url(#r)"/><path d="M2573.27-2598.93c21.96 28.883 57.898 28.883 79.86 0 21.96-28.883 43.656-23.026 48.181 12.91 4.526 36.07 35.671 53.906 69.08 39.93 33.54-14.108 49.38 1.864 35.27 35.272-14.108 33.408 3.86 64.554 39.93 69.08 36.07 4.524 41.794 26.22 12.912 48.181-29.016 21.962-29.016 57.899 0 79.727 28.882 21.962 23.159 43.657-12.911 48.182-35.937 4.526-53.906 35.671-39.93 69.212 14.108 33.409-1.864 49.38-35.272 35.272-33.408-14.109-64.553 3.86-69.079 39.93-4.525 35.937-26.22 41.793-48.182 12.91-21.961-28.882-57.898-28.882-79.86 0-21.961 28.883-43.657 23.16-48.182-12.91-4.525-36.07-35.67-54.039-69.079-39.93-33.408 14.109-49.38-1.863-35.271-35.272 14.108-33.408-3.86-64.553-39.93-69.212-35.937-4.525-41.794-26.22-12.911-48.182 28.883-21.961 28.883-57.898 0-79.727-28.883-21.961-23.16-43.657 12.91-48.182 36.07-4.525 54.04-35.67 39.93-69.079-14.108-33.408 1.864-49.38 35.272-35.271 33.408 14.108 64.554-3.86 69.079-39.93 4.659-36.07 26.22-41.927 48.182-12.911" fill="url(#s)"/><path d="M2573.803-2595.769c21.696 28.484 57.1 28.484 78.796 0 21.695-28.616 43.124-22.76 47.65 12.778 4.525 35.538 35.138 53.24 68.147 39.397 33.008-13.842 48.714 1.864 34.872 34.873-13.843 33.008 3.86 63.755 39.397 68.28 35.671 4.525 41.261 25.954 12.778 47.517-28.617 21.695-28.617 57.1 0 78.795 28.483 21.695 22.893 43.124-12.778 47.517-35.537 4.525-53.24 35.271-39.397 68.28 13.842 33.009-1.864 48.714-34.873 34.872-33.008-13.842-63.754 3.86-68.147 39.398-4.525 35.537-25.821 41.26-47.65 12.777-21.562-28.483-57.1-28.483-78.795 0-21.695 28.484-43.124 22.76-47.516-12.777-4.526-35.538-35.272-53.24-68.28-39.398-33.01 13.842-48.715-1.73-34.873-34.872 13.843-33.009-3.86-63.755-39.397-68.28-35.538-4.393-41.261-25.822-12.778-47.517 28.483-21.695 28.483-57.1 0-78.795-28.617-21.696-22.76-43.125 12.778-47.517 35.537-4.525 53.373-35.138 39.397-68.28-13.842-33.01 1.864-48.715 34.872-34.873 33.01 13.843 63.755-3.86 68.28-39.397 4.526-35.538 25.822-41.394 47.517-12.778" fill="url(#t)"/><path d="M2574.302-2592.571c21.43 28.217 56.435 28.217 77.73 0 21.43-28.217 42.593-22.494 46.985 12.644 4.392 35.006 34.739 52.575 67.349 38.866 32.609-13.71 48.182 1.73 34.472 34.34-13.709 32.609 3.727 62.956 38.866 67.348 35.138 4.392 40.728 25.555 12.644 46.984-28.217 21.296-28.217 56.302 0 77.73 28.217 21.43 22.494 42.593-12.644 46.985-35.006 4.392-52.575 34.872-38.866 67.349 13.71 32.609-1.73 48.049-34.473 34.34-32.609-13.71-62.823 3.726-67.348 38.865-4.392 35.138-25.555 40.728-46.984 12.51-21.296-28.083-56.302-28.083-77.73 0-21.43 28.085-42.46 22.495-46.985-12.51-4.392-35.139-34.74-52.575-67.349-38.866-32.61 13.71-48.049-1.73-34.34-34.34 13.71-32.609-3.86-62.956-38.865-67.348-35.005-4.392-40.728-25.422-12.511-46.984 28.217-21.296 28.217-56.302 0-77.73-28.217-21.43-22.494-42.593 12.511-46.985 35.139-4.392 52.575-34.74 38.865-67.349-13.709-32.61 1.73-48.049 34.34-34.34 32.61 13.71 62.957-3.726 67.349-38.865 4.525-35.138 25.688-40.861 46.984-12.644" fill="url(#u)"/><path d="M2574.851-2589.454c21.163 27.818 55.636 27.818 76.666 0 21.163-27.818 41.926-22.227 46.318 12.379 4.393 34.606 34.207 51.909 66.417 38.332 32.21-13.443 47.517 1.73 33.94 33.94-13.442 32.211 3.728 62.026 38.334 66.418 34.739 4.392 40.196 25.156 12.511 46.319-27.818 21.03-27.818 55.635 0 76.665 27.818 21.163 22.228 42.06-12.511 46.319-34.606 4.392-51.776 34.34-38.333 66.417 13.576 32.21-1.73 47.384-33.94 33.94-32.21-13.576-62.025 3.727-66.418 38.333-4.392 34.606-25.155 40.196-46.318 12.379-21.03-27.818-55.636-27.818-76.666 0-21.03 27.817-41.926 22.227-46.319-12.379-4.392-34.606-34.34-51.909-66.417-38.333-32.21 13.444-47.383-1.73-33.94-33.94 13.576-32.077-3.727-62.025-38.333-66.417-34.606-4.26-40.196-25.156-12.378-46.319 27.818-21.03 27.818-55.636 0-76.665-27.818-21.163-22.228-41.927 12.378-46.32 34.606-4.391 51.91-34.339 38.333-66.416-13.443-32.21 1.73-47.517 33.94-33.94 32.21 13.576 62.025-3.727 66.417-38.333 4.393-34.473 25.29-40.197 46.32-12.379" fill="url(#v)"/><path d="M2720.02-1887.727c-13.443 66.15-46.984 83.986-82.389 76.799-35.404-7.188-59.362-36.736-45.92-102.887 13.444-66.15 94.635-136.693 94.635-136.693s47.25 96.63 33.674 162.781" fill="#9cb1bf"/><path d="M2708.415-1905.527c-13.443 66.15-46.984 83.986-82.389 76.799-35.404-7.188-59.362-36.736-45.786-102.887 13.443-66.15 94.634-136.693 94.634-136.693s46.984 96.63 33.541 162.781" fill="#78b5db"/><path d="M2627.814-1837.996c-38.333-7.72-51.643-38.066-40.596-92.371 9.051-44.322 54.571-95.832 84.785-124.981 16.505 38.599 38.333 103.818 29.282 148.14-10.914 54.438-35.005 77.065-73.471 69.212" fill="url(#w)"/><path d="M2628.965-1847.087c-35.937-7.32-48.316-35.67-38.067-86.515 8.385-41.527 51.11-89.842 79.46-117.128 15.44 36.07 35.805 97.296 27.42 138.824-10.25 50.844-32.876 72.14-68.813 64.82" fill="url(#x)"/><path d="M2630.016-1856.161c-33.54-6.788-45.12-33.275-35.537-80.792 7.853-38.732 47.783-83.72 74.136-109.275 14.375 33.674 33.409 90.774 25.556 129.506-9.45 47.517-30.48 67.349-64.155 60.56" fill="url(#y)"/><path d="M2631.144-1865.27c-31.145-6.255-41.926-30.879-32.876-74.935 7.32-35.937 44.323-77.73 68.813-101.289 13.31 31.279 31.012 84.252 23.692 120.19-8.918 43.923-28.484 62.29-59.629 56.035" fill="url(#z)"/><path d="M2632.19-1874.466c-28.75-5.857-38.6-28.484-30.348-69.08 6.788-33.141 40.862-71.74 63.489-93.435 12.245 28.882 28.616 77.73 21.828 110.872-8.252 40.595-26.22 57.5-54.97 51.643" fill="url(#A)"/><path d="M2633.34-1883.541c-26.354-5.324-35.405-26.088-27.818-63.356 6.123-30.347 37.401-65.751 58.165-85.583 11.313 26.354 26.22 71.208 19.965 101.555-7.587 37.268-23.958 52.708-50.312 47.384" fill="url(#B)"/><path d="M2634.38-1892.632c-23.825-4.925-32.21-23.692-25.289-57.5 5.59-27.55 33.94-59.628 52.84-77.73 10.25 23.958 23.826 64.554 18.235 92.239-6.92 33.674-21.828 47.783-45.786 42.991" fill="url(#C)"/><path d="M2635.525-1901.723c-21.429-4.393-28.883-21.296-22.76-51.643 5.058-24.757 30.48-53.64 47.517-69.878 9.184 21.562 21.429 58.032 16.371 82.922-6.256 30.213-19.699 42.858-41.128 38.599" fill="url(#D)"/><path d="M2636.558-1910.904c-19.033-3.86-25.688-18.9-20.098-45.92 4.526-21.96 27.153-47.649 42.193-62.024 8.12 19.167 18.9 51.51 14.508 73.605-5.59 27.019-17.436 38.2-36.603 34.34" fill="url(#E)"/><path d="M2637.704-1919.995c-16.638-3.46-22.361-16.505-17.57-40.063 3.86-19.3 23.692-41.66 36.869-54.172 7.054 16.77 16.504 44.988 12.645 64.287-4.925 23.559-15.307 33.275-31.945 29.948" fill="url(#F)"/><path d="M2638.755-1929.09c-14.241-2.929-19.166-14.11-15.04-34.207 3.328-16.505 20.231-35.538 31.545-46.32 5.99 14.243 14.108 38.467 10.78 54.971-4.125 19.965-13.043 28.483-27.285 25.555" fill="url(#G)"/><path d="M2639.907-1938.166c-11.846-2.395-15.972-11.712-12.511-28.483 2.795-13.71 16.77-29.548 26.22-38.466 4.925 11.846 11.713 31.944 8.918 45.52-3.46 16.771-10.78 23.825-22.627 21.43" fill="#fff"/><path d="M2997.097-2277.62c-4.259 0-8.385.533-12.378 1.332-2.396-26.487-24.357-47.384-51.51-47.384-5.856 0-11.446 1.198-16.637 2.928-11.047-49.246-54.704-85.982-107.279-85.982-43.79 0-81.457 25.821-99.16 63.09-9.982-8.785-22.892-14.242-37.267-14.242-30.48 0-55.104 24.09-56.435 54.171-11.846-6.655-25.289-10.78-39.797-10.78-45.12 0-81.723 36.602-81.723 81.722 0 45.121 36.603 81.724 81.724 81.724h420.33c35.005 0 63.222-28.35 63.222-63.223.266-35.005-28.084-63.355-63.09-63.355" fill="#9cb1bf"/><path d="M2989.448-2290.703c-4.26 0-8.252.4-12.378 1.331-2.396-26.62-24.358-47.383-51.51-47.383-5.99 0-11.447 1.198-16.637 2.928-11.048-49.247-54.705-85.983-107.28-85.983-43.789 0-81.456 25.955-99.025 63.09-9.983-8.785-22.894-14.375-37.269-14.375-30.48 0-55.103 24.091-56.434 54.305-11.846-6.655-25.289-10.781-39.797-10.781-45.12 0-81.723 36.602-81.723 81.723s36.602 81.59 81.723 81.59h420.33c34.872 0 63.356-28.35 63.356-63.222s-28.35-63.223-63.356-63.223" fill="url(#H)"/><path d="M2665.322-2369.792c14.242 0 26.753 5.59 36.336 13.976 2.13-4.392 5.857-7.587 8.519-11.58 2.795-4.126 6.522-9.583 9.85-13.177 19.166-22.494 47.25-36.868 78.661-37.667 9.051-.266 17.836.665 26.354 2.529 40.063 8.918 71.874 40.196 81.59 80.392 4.925-1.064 9.983-1.464 15.44-.931 2.795 0 5.856 1.73 8.518 2.13 2.53.399 6.522.665 8.918 1.596 2.928.666 5.59 1.73 8.252 2.929 12.245 5.723 21.696 16.637 25.555 29.947.8 2.529 1.598 6.522 1.864 9.184.133.932.665 1.73.665 2.529 1.73-.4 4.526-.799 6.39-1.065 2.262-.266 4.391-.4 6.787-.4 18.634 0 35.139 8.919 45.387 22.229 10.116 13.31 13.976 29.947 10.915 45.387 0 31.012-32.21 56.168-63.223 56.168h-403.293c-40.063 0-81.723-32.477-81.723-72.54-4.126-20.098.532-41.66 13.709-59.096s34.74-29.016 58.963-29.016c11.048 0 21.563 2.396 31.279 6.788 2.662 1.198 6.389 3.062 8.918 4.526.133-2.13 1.064-3.86 1.464-5.99.931-5.324 2.795-12.511 5.19-17.17 8.12-18.634 26.887-31.678 48.715-31.678" fill="url(#I)"/><path d="M2665.54-2368.467c14.109 0 26.354 5.723 35.405 13.71 1.863-3.86 6.521-5.325 8.917-8.785 2.396-3.594 6.522-10.116 9.45-13.31 18.368-23.027 45.787-38.067 76.666-39.664 8.785-.4 17.57.133 25.954 1.863 39.93 7.72 72.14 38.333 82.39 77.864 4.525-.266 9.183 0 14.108 1.198 2.396 0 5.457 3.061 7.853 3.46 2.263.4 7.187 0 9.317.799 3.061.4 5.99 1.198 8.784 2.263 13.177 5.057 23.56 16.504 27.153 30.746.665 2.13 1.464 7.32 1.863 9.583.133.799.932 1.33 1.065 2.13 1.597-.267 5.191-.932 6.788-1.198 2.396-.267 4.659-.533 7.054-.533 19.7 0 37.135 10.648 46.053 25.822 8.918 15.173 9.45 32.61 3.194 46.185 0 27.153-36.07 49.114-63.222 49.114h-386.39c-35.138 0-81.59-28.35-81.59-63.489-8.385-17.569-8.119-40.329 3.461-60.427 11.447-20.098 34.207-34.073 60.161-34.073 11.047 0 21.695 2.528 31.545 7.054 2.396.932 6.788 3.327 9.05 4.658.134-1.863 1.731-2.928 2.13-4.791.799-4.659 2.53-13.443 4.659-17.436 7.32-19.034 26.087-32.743 48.182-32.743" fill="url(#J)"/><path d="M2665.838-2367.18c13.976 0 25.822 5.724 34.473 13.31 1.598-3.327 7.32-3.06 9.317-6.122 1.997-3.061 6.522-10.648 9.051-13.443 17.57-23.559 44.322-39.131 74.67-41.527 8.65-.665 17.302-.266 25.688 1.198 39.797 6.655 72.406 36.336 83.32 75.468 4.126.532 8.385 1.464 12.778 3.327 2.13 0 5.058 4.526 7.054 4.925 1.997.4 7.986-.533 9.716 0 3.328.133 6.39.665 9.317 1.597 14.242 4.26 25.556 16.371 28.883 31.545.666 1.863 1.464 8.119 1.73 10.115.133.666 1.331 1.065 1.331 1.73 1.331-.266 5.724-1.064 7.055-1.197 2.395-.4 4.924-.533 7.453-.533 20.897 0 38.999 12.379 46.585 29.549 7.587 17.036 4.792 35.271-4.392 46.85 0 23.293-39.93 42.06-63.223 42.06h-369.352c-30.08 0-81.59-24.357-81.59-54.438-12.512-15.04-16.638-39.131-6.788-61.758 9.849-22.627 33.674-39.264 61.359-39.264 11.18 0 21.828 2.662 31.677 7.32 1.997.799 7.321 3.727 9.184 4.792.133-1.598 2.53-1.997 2.795-3.594.666-3.993 2.263-14.242 4.127-17.702 6.655-19.7 25.555-34.207 47.782-34.207" fill="url(#K)"/><path d="M2666.078-2365.877c13.976 0 25.422 5.856 33.541 13.044 1.331-2.795 7.986-.799 9.717-3.328 1.73-2.529 6.522-11.313 8.651-13.576 16.77-24.224 42.858-40.33 72.673-43.524a101.496 101.496 0 0 1 25.422.4c39.664 5.59 72.672 34.473 84.252 73.072 3.86 1.198 7.587 2.928 11.447 5.324 1.73 0 4.791 5.99 6.389 6.255 1.597.267 8.651-1.198 10.115-.665 3.46-.133 6.655.133 9.85.932 15.173 3.593 27.418 16.238 30.48 32.476.532 1.597 1.33 9.05 1.597 10.648.133.532 1.597.799 1.73 1.33 1.065-.265 6.389-1.197 7.454-1.33 2.528-.4 5.19-.666 7.852-.666 22.095 0 40.862 14.242 47.25 33.142 6.39 18.9.267 37.934-12.111 47.65 0 19.433-43.79 35.139-63.09 35.139h-352.315c-25.023 0-81.59-20.232-81.59-45.388-16.771-12.511-25.29-37.8-17.037-63.089 8.252-25.289 33.142-44.322 62.424-44.322 11.18 0 21.961 2.662 31.944 7.72 1.73.665 7.72 3.993 9.317 4.924 0-1.33 3.194-1.065 3.46-2.262.533-3.328 1.997-15.174 3.594-17.969 5.59-20.764 24.49-35.937 46.984-35.937" fill="url(#L)"/><path d="M2666.338-2364.528c13.842 0 24.89 5.856 32.61 12.644 1.064-2.262 8.784 1.464 10.115-.665 1.33-1.997 6.655-11.846 8.252-13.71 15.839-24.756 41.261-41.527 70.676-45.387 8.385-1.064 16.77-1.197 25.156-.266 39.53 4.393 72.939 32.477 85.051 70.676 3.46 1.997 6.788 4.393 10.116 7.454 1.33 0 4.392 7.32 5.723 7.587 1.33.266 9.317-1.864 10.648-1.464 3.727-.4 7.054-.267 10.382.266 16.238 2.928 29.282 16.105 32.21 33.275.4 1.198 1.33 9.85 1.464 11.18 0 .4 1.997.533 1.997.932.931-.133 6.92-1.331 7.852-1.464 2.662-.4 5.458-.666 8.253-.666 23.159 0 42.725 15.972 47.916 36.736 5.057 20.763-4.26 40.595-19.7 48.315 0 15.44-47.649 28.084-63.089 28.084h-335.278c-20.099 0-81.458-16.238-81.458-36.336-20.896-9.982-33.94-36.47-27.418-64.42 6.522-27.951 32.742-49.38 63.622-49.38 11.18 0 22.094 2.795 32.21 7.986 1.33.532 8.119 4.392 9.45 5.057 0-1.064 3.86 0 4.126-1.064.4-2.663 1.73-15.973 2.928-18.368 4.526-21.03 23.559-37.002 46.186-37.002" fill="url(#M)"/><path d="M2666.65-2363.224c13.71 0 24.357 5.99 31.678 12.379.799-1.598 9.45 3.593 10.515 2.13 1.065-1.465 6.655-12.512 7.853-13.843 15.04-25.29 39.797-42.592 68.546-47.384 8.252-1.33 16.505-1.73 24.89-.931 39.398 3.327 73.205 30.613 85.983 68.28 3.06 2.795 5.99 5.856 8.784 9.583 1.065 0 3.993 8.785 5.058 8.918.932.133 10.116-2.53 11.047-2.13 3.86-.665 7.454-.798 10.915-.4 17.303 2.264 31.278 15.973 33.94 34.074.266.932 1.331 10.648 1.464 11.713 0 .266 2.396.133 2.396.533.665-.133 7.587-1.464 8.252-1.598 2.795-.399 5.723-.798 8.652-.798 24.357 0 44.721 17.702 48.448 40.462 3.86 22.627-8.918 43.258-27.419 49.114 0 11.58-51.376 21.03-63.089 21.03h-318.375c-15.04 0-81.457-12.112-81.457-27.152-25.156-7.587-42.592-35.139-37.668-65.752 4.925-30.613 32.21-54.438 64.82-54.438 11.18 0 22.228 2.928 32.476 8.386 1.065.399 8.652 4.658 9.584 5.19 0-.798 4.658.932 4.791.134.4-1.997 1.464-16.904 2.396-18.634 3.594-22.228 22.76-38.866 45.52-38.866" fill="url(#N)"/><path d="M2667.004-2361.795c13.576 0 23.958 5.99 30.746 11.979.532-1.065 10.115 5.856 10.914 4.924.665-1.064 6.655-13.043 7.453-13.975 14.242-25.821 38.333-43.79 66.55-49.38 7.987-1.597 16.239-2.13 24.624-1.73 39.264 2.262 73.471 28.75 86.914 65.751 2.795 3.594 5.191 7.32 7.454 11.58.665 0 3.594 10.115 4.26 10.248.665.133 10.78-3.06 11.446-2.928 4.126-.932 7.853-1.33 11.446-1.065 18.368 1.464 33.142 15.84 35.538 34.873.266.665 1.198 11.58 1.331 12.245 0 .266 2.662-.133 2.795.133.4-.133 8.12-1.597 8.519-1.73a50.867 50.867 0 0 1 9.05-.799c25.422 0 46.585 19.566 49.114 44.056 2.53 24.49-13.443 45.92-35.005 49.78 0 7.72-55.237 13.975-63.09 13.975h-301.338c-9.982 0-81.457-8.12-81.457-18.102-29.282-5.057-51.11-33.94-47.916-67.082 3.327-33.142 31.678-59.629 66.018-59.629 11.313 0 22.227 2.928 32.742 8.652.666.266 9.05 5.057 9.716 5.324 0-.533 5.324 1.863 5.458 1.33.266-1.33 1.33-17.702 1.863-18.9 2.662-22.227 21.828-39.53 44.855-39.53" fill="url(#O)"/><path d="M2667.364-2360.508c13.443 0 23.425 6.123 29.814 11.713.266-.532 10.914 8.12 11.18 7.587.4-.533 6.656-13.71 7.055-14.109 13.443-26.487 36.869-44.988 64.553-51.243 7.853-1.73 15.972-2.662 24.358-2.396 39.131 1.065 73.87 26.753 87.713 63.356 2.395 4.259 4.525 8.917 6.122 13.709.4 0 3.328 11.58 3.594 11.713.266 0 11.58-3.727 11.846-3.594 4.259-1.198 8.252-1.863 11.979-1.597 19.3.798 35.138 15.839 37.268 35.67.133.267 1.198 12.379 1.198 12.645 0 .133 3.061-.4 3.061-.266.266 0 8.652-1.73 8.918-1.73 3.061-.533 6.122-.932 9.45-.932 26.62 0 48.448 21.296 49.78 47.65 1.33 26.353-17.97 48.581-42.726 50.578 0 3.86-59.096 7.054-62.956 7.054h-284.302c-5.058 0-81.457-3.993-81.457-9.05-33.541-2.53-59.762-32.61-58.165-68.414 1.598-35.804 31.146-64.687 67.216-64.687 11.313 0 22.36 3.061 33.009 8.918.399.133 9.45 5.324 9.849 5.59 0-.266 5.99 2.928 6.123 2.662.133-.665 1.064-18.634 1.33-19.166 1.864-23.559 21.03-41.66 44.19-41.66" fill="url(#P)"/><path d="M2985.24-2176.12h-411.68c-37.666 0-68.412-31.279-68.412-69.744 0-38.466 30.745-69.745 68.413-69.745 11.313 0 22.494 3.195 33.142 9.317l16.637 9.583.799-19.565c.932-23.958 20.098-42.859 43.523-42.859 13.31 0 23.027 6.123 28.883 11.447l11.58 10.382 6.655-14.242c16.105-34.739 49.247-56.301 86.515-56.301 44.455 0 83.853 32.343 93.57 76.799l2.927 13.043 12.246-4.392c4.525-1.464 8.518-2.263 12.511-2.263 20.364 0 37.002 15.706 38.998 36.47l1.065 13.177 12.778-2.53c3.194-.532 6.388-1.064 9.85-1.064 27.817 0 50.311 23.026 50.311 51.377 0 28.084-22.627 51.11-50.312 51.11" fill="url(#Q)"/><path d="M2958.19-2134.587c-5.724 0-11.447.666-16.904 1.73-3.328-36.336-33.409-64.82-70.677-64.82-8.119 0-15.572 1.598-22.76 3.994-15.04-67.349-74.935-117.794-146.809-117.794-60.161 0-111.538 35.405-135.762 86.382-13.71-11.979-31.411-19.566-50.977-19.566-41.66 0-75.468 33.01-77.331 74.27-16.238-9.05-34.606-14.64-54.438-14.64-61.759 0-111.804 50.045-111.804 111.936 0 61.759 50.179 111.804 111.804 111.804h575.79c47.916 0 86.648-38.865 86.648-86.648-.133-47.783-38.998-86.648-86.78-86.648" fill="#9cb1bf"/><path d="M2948.839-2147.603c-5.723 0-11.447.665-16.904 1.73-3.327-36.203-33.408-64.82-70.676-64.82-7.986 0-15.573 1.598-22.76 3.993-15.04-67.348-74.935-117.793-146.81-117.793-60.027 0-111.537 35.404-135.761 86.382-13.71-11.98-31.412-19.566-51.11-19.566-41.66 0-75.468 33.009-77.332 74.403-16.105-9.184-34.606-14.774-54.438-14.774-61.758 0-111.937 50.178-111.937 111.937 0 61.758 50.046 111.937 111.937 111.937h575.791c47.783 0 86.648-38.865 86.648-86.648 0-47.916-38.865-86.781-86.648-86.781" fill="url(#R)"/><path d="M2505.947-2255.925c19.433 0 36.736 7.587 49.78 19.167 2.928-6.123 7.985-10.382 11.712-15.84 3.727-5.59 8.918-13.043 13.443-17.968 26.354-30.746 64.687-50.445 107.811-51.51a152.06 152.06 0 0 1 35.804 3.461c54.97 12.112 98.627 55.103 111.804 110.074 6.655-1.464 13.71-1.997 21.03-1.198 3.86 0 7.986 2.262 11.58 2.928 3.593.665 8.917.932 12.245 2.13a54.319 54.319 0 0 1 11.313 3.993c16.638 7.72 29.682 22.76 35.006 40.994 1.064 3.328 2.13 8.918 2.662 12.512.133 1.198.798 2.262.931 3.46 2.396-.532 6.256-1.064 8.652-1.33 3.061-.4 6.122-.533 9.317-.533 25.422 0 48.182 12.112 62.158 30.347 13.975 18.234 19.166 40.995 14.907 62.29 0 42.46-46.452 77.065-89.044 77.065h-562.48c-60.694 0-109.941-49.247-109.941-110.073 0-60.827 49.247-110.074 109.94-110.074 15.174 0 29.548 3.328 42.858 9.317 3.594 1.597 8.652 4.126 12.113 6.123.133-3.062 1.464-5.457 1.996-8.386 1.198-7.187 3.727-17.036 7.054-23.425 11.58-25.822 37.401-43.524 67.349-43.524" fill="url(#S)"/><path d="M2506.743-2254.14c19.3 0 36.07 7.72 48.448 18.634 2.53-5.324 9.051-7.32 12.245-12.112 3.328-4.925 8.918-13.842 12.911-18.235 25.156-31.544 62.69-52.042 105.016-54.171 12.112-.666 23.958.266 35.405 2.529 54.704 10.647 98.893 52.44 113.001 106.746 6.256-.4 12.645 0 19.167 1.597 3.327 0 7.453 4.26 10.648 4.792 3.061.532 9.85.133 12.778 1.064a49.435 49.435 0 0 1 11.978 3.062c18.102 6.788 32.344 22.627 37.268 42.192.932 2.929 1.997 9.983 2.53 13.177.132 1.065 1.33 1.864 1.463 2.928 2.13-.399 7.055-1.33 9.184-1.464 3.195-.399 6.522-.665 9.717-.665 27.019 0 50.71 14.508 62.956 35.404 12.245 20.764 12.91 44.589 4.392 63.223 0 37.135-54.171 67.348-91.44 67.348h-549.17c-59.496 0-107.811-48.448-107.811-108.21 0-59.762 48.315-108.21 107.811-108.21 15.306 0 29.814 3.46 43.124 9.716 3.195 1.331 9.317 4.659 12.379 6.256.133-2.662 2.529-4.126 2.928-6.655 1.065-6.389 3.46-18.235 6.389-23.825 10.648-26.354 36.47-45.12 66.683-45.12" fill="url(#T)"/><path d="M2507.179-2252.33c19.166 0 35.404 7.853 47.25 18.235 2.13-4.526 9.983-4.26 12.778-8.386 2.795-4.126 8.918-14.64 12.378-18.367 24.091-32.344 60.694-53.64 102.354-56.834 11.846-.932 23.559-.4 35.005 1.597 54.571 9.05 99.293 49.78 114.333 103.419 5.724.665 11.58 1.996 17.436 4.525 2.795 0 6.922 6.123 9.717 6.655 2.662.533 10.914-.798 13.31.133 4.525.133 8.651.932 12.777 2.13 19.433 5.856 35.006 22.494 39.531 43.257.799 2.53 1.996 11.18 2.396 13.843.133.931 1.863 1.464 1.863 2.396 1.73-.4 7.853-1.465 9.716-1.73a65.193 65.193 0 0 1 10.25-.8c28.616 0 53.372 17.037 63.754 40.33 10.515 23.426 6.655 48.315-5.99 64.287 0 31.944-61.89 57.766-93.702 57.766h-535.86c-58.431 0-105.815-47.65-105.815-106.48 0-58.697 47.384-106.48 105.815-106.48 15.306 0 29.947 3.593 43.523 10.115 2.795 1.198 9.85 5.058 12.512 6.522.133-2.263 3.46-2.795 3.86-4.925.931-5.457 3.06-19.432 5.59-24.224 8.917-27.285 34.739-46.984 65.219-46.984" fill="url(#U)"/><path d="M2507.505-2250.506c19.033 0 34.739 7.986 45.919 17.836 1.863-3.86 10.914-1.065 13.31-4.526 2.396-3.46 9.05-15.44 11.846-18.634 22.893-33.142 58.697-55.236 99.559-59.495 11.58-1.198 23.292-1.065 34.739.532 54.438 7.587 99.692 47.25 115.53 100.091 5.191 1.73 10.382 3.993 15.573 7.32 2.396 0 6.39 8.12 8.652 8.52 2.262.398 11.846-1.598 13.975-.933 4.792-.266 9.184.267 13.576 1.198 20.897 4.925 37.535 22.361 41.794 44.456.665 2.13 1.863 12.245 2.263 14.508.133.798 2.262 1.064 2.395 1.863 1.464-.266 8.652-1.597 10.25-1.863a73.471 73.471 0 0 1 10.78-.799c30.214 0 55.902 19.433 64.687 45.387 8.651 25.955.4 51.91-16.505 65.22 0 26.62-69.61 48.181-96.098 48.181H2377.2c-57.233 0-103.818-46.85-103.818-104.616s46.585-104.617 103.818-104.617c15.306 0 30.08 3.727 43.79 10.515 2.262.932 10.514 5.457 12.644 6.655.133-1.863 4.392-1.464 4.792-3.194.798-4.526 2.795-20.63 4.791-24.624 7.587-28.217 33.541-48.98 64.287-48.98" fill="url(#V)"/><path d="M2507.803-2248.757c18.9 0 34.074 7.986 44.588 17.303 1.464-3.062 11.98 1.996 13.843-.799 1.863-2.795 9.05-16.371 11.313-18.767 21.829-33.94 56.7-56.834 96.764-62.158a148.19 148.19 0 0 1 34.34-.399c54.172 6.123 100.091 44.588 116.729 96.764 4.791 2.795 9.317 5.99 13.842 10.115 1.863 0 5.99 9.983 7.72 10.382 1.73.266 12.91-2.529 14.508-1.863 5.057-.666 9.716-.4 14.241.399 22.228 3.993 40.197 22.095 44.056 45.52.533 1.73 1.864 13.443 2.13 15.307.133.532 2.795.665 2.795 1.33 1.198-.266 9.583-1.863 10.781-1.996 3.727-.665 7.454-.932 11.314-.932 31.81 0 58.564 21.829 65.485 50.312 6.921 28.484-5.856 55.636-27.02 66.284 0 21.296-77.197 38.466-98.493 38.466h-509.241c-56.168 0-101.821-46.053-101.821-102.753s45.653-102.887 101.821-102.887c15.44 0 30.214 3.86 44.19 11.048 1.863.798 11.047 5.856 12.777 6.921 0-1.464 5.457-.133 5.723-1.597.666-3.594 2.396-21.829 4.126-25.023 6.389-29.149 32.344-50.977 63.489-50.977" fill="url(#W)"/><path d="M2507.726-2246.868c18.767 0 33.541 8.119 43.39 16.904 1.066-2.263 12.911 5.057 14.376 2.928 1.464-2.13 9.05-17.17 10.78-19.034 20.631-34.739 54.705-58.43 94.102-64.82 11.18-1.863 22.494-2.262 33.94-1.33 54.04 4.525 100.491 41.926 117.927 93.436a81.078 81.078 0 0 1 11.98 13.044c1.464 0 5.457 11.979 6.788 12.245 1.33.266 13.842-3.328 15.173-2.928 5.324-.932 10.249-1.198 15.04-.533 23.692 3.062 42.858 21.962 46.452 46.718.4 1.198 1.73 14.641 1.997 15.972 0 .4 3.194.267 3.327.666.932-.133 10.382-1.997 11.314-2.13 3.86-.665 7.853-1.064 11.846-1.064 33.275 0 61.092 24.224 66.283 55.37 5.191 31.011-12.112 59.229-37.4 67.215 0 15.972-84.919 28.882-100.89 28.882H2378.22c-54.97 0-99.692-45.254-99.692-101.023 0-55.768 44.722-101.022 99.692-101.022 15.44 0 30.48 3.993 44.455 11.446 1.331.533 11.713 6.389 13.044 7.054 0-1.197 6.389 1.331 6.655.134.532-2.662 2.13-23.027 3.328-25.423 4.658-29.947 30.746-52.707 62.024-52.707" fill="url(#X)"/><path d="M2507.93-2245.02c18.634 0 32.876 8.252 42.06 16.504.665-1.464 13.975 8.12 14.907 6.655.932-1.33 9.05-17.968 10.116-19.166 19.565-35.405 52.574-60.028 91.306-67.482a134.317 134.317 0 0 1 33.542-2.262c53.905 3.06 100.89 39.264 119.124 90.241 3.727 4.792 7.187 10.116 10.249 15.84.931 0 4.924 13.842 5.856 14.108.932.133 14.907-4.126 15.706-3.86 5.59-1.331 10.781-1.863 15.706-1.464 25.023 1.996 45.387 21.828 48.714 47.783.267.798 1.73 15.706 1.864 16.637 0 .266 3.727-.133 3.727.133.532-.133 11.18-2.262 11.712-2.262 3.993-.666 8.253-1.198 12.379-1.198 34.872 0 63.755 26.753 67.215 60.294 3.46 33.541-18.368 62.956-47.916 68.28 0 10.648-92.638 19.3-103.286 19.3h-482.62c-53.906 0-97.696-44.456-97.696-99.16 0-54.704 43.79-99.16 97.696-99.16 15.44 0 30.613 3.994 44.855 11.847.931.4 12.245 6.788 13.176 7.32 0-.798 7.454 2.662 7.587 1.864.266-1.864 1.73-24.225 2.53-25.822 3.859-31.278 29.947-54.97 61.491-54.97" fill="url(#Y)"/><path d="M2508.034-2243.076c18.367 0 32.21 8.252 40.728 15.972.4-.799 14.907 11.18 15.44 10.515.532-.666 9.05-18.767 9.583-19.433 18.368-36.203 50.578-61.625 88.511-70.144 10.782-2.395 21.829-3.593 33.142-3.194 53.64 1.464 101.29 36.736 120.323 86.914 3.327 5.857 6.122 12.112 8.385 18.634.532 0 4.392 15.84 4.925 15.972.399.133 15.839-5.058 16.238-4.924 5.856-1.73 11.18-2.53 16.504-2.396 26.487 1.065 48.05 21.695 50.978 48.847.133.4 1.597 16.904 1.73 17.303 0 .134 4.26-.532 4.26-.399.265 0 11.978-2.396 12.244-2.396 4.126-.798 8.519-1.33 12.911-1.33 36.47 0 66.284 29.148 68.014 65.351 1.73 36.204-24.623 66.55-58.43 69.212 0 5.324-100.358 9.584-105.682 9.584h-469.31c-52.708 0-95.7-43.657-95.7-97.296 0-53.64 42.992-97.43 95.7-97.43 15.572 0 30.745 4.126 45.12 12.246.4.133 12.91 7.187 13.31 7.453 0-.4 8.385 3.993 8.385 3.594.133-.932 1.464-25.422 1.864-26.22 2.795-31.812 28.882-56.435 60.826-56.435" fill="url(#Z)"/><path d="M2942.933-1990.678h-564.078c-51.643 0-93.702-42.859-93.702-95.433 0-52.708 42.06-95.566 93.702-95.566 15.573 0 30.88 4.26 45.52 12.778l22.893 12.91 1.065-26.62c1.331-32.875 27.552-58.564 59.63-58.564 18.234 0 31.544 8.386 39.53 15.573l15.972 14.242 9.05-19.566c22.095-47.517 67.482-77.065 118.46-77.065 60.96 0 114.865 44.19 128.175 105.15l3.86 17.702 16.903-5.857c6.123-2.13 11.713-3.194 17.17-3.194 27.818 0 50.711 21.562 53.24 50.045l1.598 18.102 17.436-3.46c4.392-.8 8.917-1.332 13.443-1.332 38.066 0 68.946 31.545 68.946 70.277.133 38.333-30.747 69.878-68.813 69.878" fill="url(#aa)"/></svg>