<svg xmlns="http://www.w3.org/2000/svg" xmlns:xlink="http://www.w3.org/1999/xlink" viewBox="4360.2 -2648 841.9 841.90004" width="841.9" height="841.9"><defs><linearGradient id="Y" gradientUnits="userSpaceOnUse" y1="-2058.13" x2="0" y2="-2343.89" xlink:href="#a" gradientTransform="translate(0 31.3)"/><linearGradient id="K" gradientUnits="userSpaceOnUse" y1="-2241.76" x2="0" y2="-2497.63" gradientTransform="translate(0 31.3)"><stop stop-color="#87aec3"/><stop offset="1" stop-color="#cddee8"/></linearGradient><linearGradient id="M" gradientUnits="userSpaceOnUse" y1="-2244.91" x2="0" y2="-2495.41" gradientTransform="translate(0 31.3)"><stop stop-color="#8eb3c8"/><stop offset="1" stop-color="#cddee8"/></linearGradient><linearGradient id="L" gradientUnits="userSpaceOnUse" y1="-2243.34" x2="0" y2="-2496.48" gradientTransform="translate(0 31.3)"><stop stop-color="#8bb1c5"/><stop offset="1" stop-color="#cddee8"/></linearGradient><linearGradient id="J" gradientUnits="userSpaceOnUse" y1="-2240.18" x2="0" y2="-2498.86" gradientTransform="translate(0 31.3)"><stop stop-color="#84abc1"/><stop offset="1" stop-color="#cddee8"/></linearGradient><linearGradient id="I" gradientUnits="userSpaceOnUse" y1="-2238.6" x2="0" y2="-2500.18" gradientTransform="translate(0 31.3)"><stop stop-color="#80a8bf"/><stop offset="1" stop-color="#cddee8"/></linearGradient><linearGradient id="F" gradientUnits="userSpaceOnUse" y1="-2233.86" x2="0" y2="-2504.61" gradientTransform="translate(0 31.3)"><stop stop-color="#76a0b8"/><stop offset="1" stop-color="#cddee8"/></linearGradient><linearGradient id="H" gradientUnits="userSpaceOnUse" y1="-2237.02" x2="0" y2="-2501.57" gradientTransform="translate(0 31.3)"><stop stop-color="#7da6bc"/><stop offset="1" stop-color="#cddee8"/></linearGradient><linearGradient id="G" gradientUnits="userSpaceOnUse" y1="-2235.44" x2="0" y2="-2503.05" gradientTransform="translate(0 31.3)"><stop stop-color="#79a3ba"/><stop offset="1" stop-color="#cddee8"/></linearGradient><linearGradient id="N" gradientUnits="userSpaceOnUse" y1="-2246.49" x2="0" y2="-2494.42" gradientTransform="translate(0 31.3)"><stop stop-color="#92b6ca"/><stop offset="1" stop-color="#cddee8"/></linearGradient><linearGradient id="O" gradientUnits="userSpaceOnUse" y1="-2248.07" x2="0" y2="-2493.5" xlink:href="#b" gradientTransform="translate(0 31.3)"/><linearGradient id="V" gradientUnits="userSpaceOnUse" y1="-2052.66" x2="0" y2="-2347.35" xlink:href="#c" gradientTransform="translate(0 31.3)"/><linearGradient id="X" gradientUnits="userSpaceOnUse" y1="-2056.31" x2="0" y2="-2344.95" xlink:href="#d" gradientTransform="translate(0 31.3)"/><linearGradient id="W" gradientUnits="userSpaceOnUse" y1="-2054.49" x2="0" y2="-2346.11" xlink:href="#e" gradientTransform="translate(0 31.3)"/><linearGradient id="U" gradientUnits="userSpaceOnUse" y1="-2050.84" x2="0" y2="-2348.69" xlink:href="#f" gradientTransform="translate(0 31.3)"/><linearGradient id="P" gradientUnits="userSpaceOnUse" y1="-2041.72" x2="0" y2="-2356.81" xlink:href="#b" gradientTransform="translate(0 31.3)"/><linearGradient id="T" gradientUnits="userSpaceOnUse" y1="-2049.01" x2="0" y2="-2350.12" xlink:href="#g" gradientTransform="translate(0 31.3)"/><linearGradient id="Q" gradientUnits="userSpaceOnUse" y1="-2043.54" x2="0" y2="-2355" xlink:href="#h" gradientTransform="translate(0 31.3)"/><linearGradient id="S" gradientUnits="userSpaceOnUse" y1="-2047.19" x2="0" y2="-2351.65" xlink:href="#i" gradientTransform="translate(0 31.3)"/><linearGradient id="R" gradientUnits="userSpaceOnUse" y1="-2045.37" x2="0" y2="-2353.28" xlink:href="#j" gradientTransform="translate(0 31.3)"/><linearGradient id="a" gradientUnits="userSpaceOnUse" y1="-2429.39" x2="0" y2="-2608.61"><stop stop-color="#a7c2d4"/><stop offset="1" stop-color="#eaf7ff"/></linearGradient><linearGradient id="d" gradientUnits="userSpaceOnUse" y1="-2428.25" x2="0" y2="-2609.26"><stop stop-color="#a5c1d3"/><stop offset="1" stop-color="#e7f4fc"/></linearGradient><linearGradient id="p" gradientUnits="userSpaceOnUse" x1="5702.69" x2="5783.23" gradientTransform="matrix(.7493 .05995 -.07 .7986 269.75 -192.64)"><stop stop-color="#c2e5ff"/><stop offset="1" stop-color="#a3dbff"/></linearGradient><linearGradient id="r" gradientUnits="userSpaceOnUse" x1="5332.88" x2="5392.56" gradientTransform="matrix(.8329 .03997 -.04667 .8658 179.83 -117.99)"><stop stop-color="#d6eeff"/><stop offset="1" stop-color="#c2e7ff"/></linearGradient><linearGradient id="q" gradientUnits="userSpaceOnUse" x1="5510.49" x2="5580.08" gradientTransform="matrix(.7911 .04996 -.05833 .8322 224.79 -155.32)"><stop stop-color="#cceaff"/><stop offset="1" stop-color="#b3e1ff"/></linearGradient><linearGradient id="o" gradientUnits="userSpaceOnUse" x1="5910.96" x2="6003.65" gradientTransform="matrix(.7075 .06994 -.08167 .7651 314.71 -229.96)"><stop stop-color="#b8e1ff"/><stop offset="1" stop-color="#94d5ff"/></linearGradient><linearGradient id="n" gradientUnits="userSpaceOnUse" x1="6136.86" x2="6243.11" gradientTransform="matrix(.6657 .07993 -.09334 .7315 359.67 -267.29)"><stop stop-color="#aeddff"/><stop offset="1" stop-color="#85cfff"/></linearGradient><linearGradient id="k" gradientUnits="userSpaceOnUse" x1="6935.68" x2="7094.2" gradientTransform="matrix(.5404 .1099 -.1283 .6308 494.54 -379.26)"><stop stop-color="#8fd0ff"/><stop offset="1" stop-color="#57bdff"/></linearGradient><linearGradient id="m" gradientUnits="userSpaceOnUse" x1="6381.98" x2="6503.48" gradientTransform="matrix(.624 .08992 -.105 .698 404.62 -304.61)"><stop stop-color="#a3d9ff"/><stop offset="1" stop-color="#76c9ff"/></linearGradient><linearGradient id="l" gradientUnits="userSpaceOnUse" x1="6647.84" x2="6786.61" gradientTransform="matrix(.5822 .09992 -.1167 .6644 449.58 -341.94)"><stop stop-color="#99d4ff"/><stop offset="1" stop-color="#66c3ff"/></linearGradient><linearGradient id="s" gradientUnits="userSpaceOnUse" x1="5168.51" x2="5219.14" gradientTransform="matrix(.8747 .02997 -.035 .8993 134.87 -80.67)"><stop stop-color="#e0f2ff"/><stop offset="1" stop-color="#d1edff"/></linearGradient><linearGradient id="t" gradientUnits="userSpaceOnUse" x1="5016.12" x2="5058.48" gradientTransform="matrix(.9164 .01998 -.02333 .9329 89.92 -43.35)"><stop stop-color="#ebf6ff"/><stop offset="1" stop-color="#e0f3ff"/></linearGradient><linearGradient id="f" gradientUnits="userSpaceOnUse" y1="-2424.81" x2="0" y2="-2611.59"><stop stop-color="#9fbed0"/><stop offset="1" stop-color="#ddecf5"/></linearGradient><linearGradient id="e" gradientUnits="userSpaceOnUse" y1="-2427.1" x2="0" y2="-2609.97"><stop stop-color="#a3c0d2"/><stop offset="1" stop-color="#e4f1fa"/></linearGradient><linearGradient id="c" gradientUnits="userSpaceOnUse" y1="-2425.96" x2="0" y2="-2610.75"><stop stop-color="#a1bfd1"/><stop offset="1" stop-color="#e0eff7"/></linearGradient><linearGradient id="g" gradientUnits="userSpaceOnUse" y1="-2423.67" x2="0" y2="-2612.5"><stop stop-color="#9dbdd0"/><stop offset="1" stop-color="#dae9f2"/></linearGradient><linearGradient id="u" gradientUnits="userSpaceOnUse" x1="4874.59" x2="4909.36" gradientTransform="matrix(.9582 .00999 -.01167 .9664 44.958 -6.02)"><stop stop-color="#f5fbff"/><stop offset="1" stop-color="#f0f9ff"/></linearGradient><linearGradient id="i" gradientUnits="userSpaceOnUse" y1="-2422.53" x2="0" y2="-2613.46"><stop stop-color="#9bbccf"/><stop offset="1" stop-color="#d7e6f0"/></linearGradient><linearGradient id="b" gradientUnits="userSpaceOnUse" y1="-2419.09" x2="0" y2="-2616.71"><stop stop-color="#95b9cc"/><stop offset="1" stop-color="#cddee8"/></linearGradient><linearGradient id="j" gradientUnits="userSpaceOnUse" y1="-2421.38" x2="0" y2="-2614.49"><stop stop-color="#99bbce"/><stop offset="1" stop-color="#d3e4ed"/></linearGradient><linearGradient id="h" gradientUnits="userSpaceOnUse" y1="-2420.24" x2="0" y2="-2615.57"><stop stop-color="#97bacd"/><stop offset="1" stop-color="#d0e1eb"/></linearGradient><linearGradient xlink:href="#b" id="v" gradientUnits="userSpaceOnUse" y1="-2419.09" x2="0" y2="-2616.71" gradientTransform="translate(0 31.3)"/><linearGradient xlink:href="#h" id="w" gradientUnits="userSpaceOnUse" y1="-2420.24" x2="0" y2="-2615.57" gradientTransform="translate(0 31.3)"/><linearGradient xlink:href="#j" id="x" gradientUnits="userSpaceOnUse" y1="-2421.38" x2="0" y2="-2614.49" gradientTransform="translate(0 31.3)"/><linearGradient xlink:href="#i" id="y" gradientUnits="userSpaceOnUse" y1="-2422.53" x2="0" y2="-2613.46" gradientTransform="translate(0 31.3)"/><linearGradient xlink:href="#g" id="z" gradientUnits="userSpaceOnUse" y1="-2423.67" x2="0" y2="-2612.5" gradientTransform="translate(0 31.3)"/><linearGradient xlink:href="#f" id="A" gradientUnits="userSpaceOnUse" y1="-2424.81" x2="0" y2="-2611.59" gradientTransform="translate(0 31.3)"/><linearGradient xlink:href="#c" id="B" gradientUnits="userSpaceOnUse" y1="-2425.96" x2="0" y2="-2610.75" gradientTransform="translate(0 31.3)"/><linearGradient xlink:href="#e" id="C" gradientUnits="userSpaceOnUse" y1="-2427.1" x2="0" y2="-2609.97" gradientTransform="translate(0 31.3)"/><linearGradient xlink:href="#d" id="D" gradientUnits="userSpaceOnUse" y1="-2428.25" x2="0" y2="-2609.26" gradientTransform="translate(0 31.3)"/><linearGradient xlink:href="#a" id="E" gradientUnits="userSpaceOnUse" y1="-2429.39" x2="0" y2="-2608.61" gradientTransform="translate(0 31.3)"/></defs><path d="M4816-1895.2c-10.1 49.7-35.3 63.1-61.9 57.7-26.6-5.4-44.6-27.6-34.5-77.3 10.1-49.7 71.1-102.7 71.1-102.7s35.5 72.6 25.3 122.3" fill="#9cb1bf"/><path d="M4804.4-1913c-10.1 49.7-35.3 63.1-61.9 57.7-26.6-5.4-44.6-27.6-34.4-77.3 10.1-49.7 71.1-102.7 71.1-102.7s35.3 72.6 25.2 122.3" fill="#78b5db"/><path d="M4743.9-1861.7c-28.8-5.8-38.8-28.6-30.5-69.4 6.8-33.3 41-72 63.7-93.9 12.4 29 28.8 78 22 111.3-8.3 40.8-26.4 57.8-55.2 52" fill="url(#k)"/><path d="M4744.7-1869.2c-27-5.5-36.3-26.8-28.6-65 6.3-31.2 38.4-67.5 59.7-88 11.6 27.1 26.9 73.1 20.6 104.3-7.7 38.3-24.7 54.2-51.7 48.7" fill="url(#l)"/><path d="M4745.5-1876.6c-25.2-5.1-33.9-25-26.7-60.7 5.9-29.1 35.9-62.9 55.7-82.1 10.8 25.3 25.1 68.2 19.2 97.3-7.1 35.7-22.9 50.6-48.2 45.5" fill="url(#m)"/><path d="M4746.4-1884c-23.4-4.7-31.5-23.2-24.7-56.3 5.5-27 33.3-58.4 51.7-76.1 10 23.5 23.3 63.3 17.8 90.3-6.7 33-21.4 46.8-44.8 42.1" fill="url(#n)"/><path d="M4747.2-1891.4c-21.6-4.4-29-21.4-22.8-51.9 5.1-24.9 30.7-53.9 47.7-70.2 9.2 21.7 21.5 58.4 16.4 83.3-6.1 30.4-19.7 43.1-41.3 38.8" fill="url(#o)"/><path d="M4748.1-1898.9c-19.8-4-26.6-19.6-20.9-47.6 4.6-22.8 28.1-49.4 43.7-64.3 8.5 19.8 19.7 53.5 15 76.3-5.6 28-18 39.6-37.8 35.6" fill="url(#p)"/><path d="M4748.9-1906.3c-17.9-3.7-24.2-17.8-19-43.2 4.2-20.7 25.5-44.8 39.7-58.4 7.7 18 17.9 48.5 13.7 69.3-5.2 25.4-16.4 36-34.4 32.3" fill="url(#q)"/><path d="M4749.8-1913.7c-16.1-3.3-21.7-16-17.1-38.8 3.8-18.6 22.9-40.3 35.7-52.5 6.9 16.2 16.1 43.6 12.3 62.3-4.7 22.7-14.8 32.3-30.9 29" fill="url(#r)"/><path d="M4750.6-1921.1c-14.3-2.9-19.3-14.2-15.1-34.5 3.4-16.5 20.4-35.8 31.7-46.6 6.1 14.4 14.2 38.7 10.9 55.3-4.2 20.2-13.1 28.7-27.5 25.8" fill="url(#s)"/><path d="M4751.5-1928.6c-12.5-2.6-16.8-12.4-13.2-30.1 2.9-14.5 17.8-31.3 27.7-40.7 5.3 12.6 12.4 33.8 9.5 48.3-3.7 17.7-11.5 25.1-24 22.5" fill="url(#t)"/><path d="M4752.3-1936c-10.7-2.2-14.4-10.6-11.3-25.7 2.5-12.4 15.2-26.7 23.7-34.8 4.5 10.7 10.6 28.9 8.1 41.3-3.1 15.1-9.8 21.4-20.5 19.2" fill="url(#u)"/><path d="M4753.2-1943.4c-8.9-1.8-12-8.8-9.4-21.4 2.1-10.3 12.6-22.2 19.7-28.9 3.7 8.9 8.8 24 6.7 34.2-2.6 12.6-8.1 17.9-17 16.1" fill="#fff"/><path d="M4879.7-2482.1c-3.7 0-7.2.4-10.7 1.1-2-23-21.1-41-44.6-41-5.1 0-9.9 1-14.4 2.6-9.5-42.6-47.3-74.4-92.8-74.4-37.9 0-70.5 22.4-85.8 54.5-8.6-7.6-19.8-12.4-32.2-12.4-26.4 0-47.7 20.9-48.8 46.9-10.2-5.7-21.8-9.3-34.4-9.3-39 0-70.7 31.7-70.7 70.7s31.7 70.7 70.7 70.7h363.7c30.2 0 54.7-24.5 54.7-54.7 0-30.2-24.5-54.7-54.7-54.7" fill="#9cb1bf"/><path d="M4870.9-2497.2c-3.6 0-7.2.4-10.7 1.1-2-23-21.1-41-44.6-41-5.1 0-9.9 1-14.4 2.6-9.5-42.6-47.3-74.4-92.8-74.4-37.9 0-70.4 22.4-85.7 54.6-8.6-7.6-19.8-12.4-32.2-12.4-26.3 0-47.7 20.9-48.8 46.9-10.2-5.7-21.9-9.3-34.4-9.3-39 0-70.7 31.6-70.7 70.7s31.7 70.6 70.7 70.6H4871c30.2 0 54.8-24.5 54.8-54.7-.1-30.2-24.7-54.7-54.9-54.7" fill="url(#v)"/><path d="M4590.7-2565.6c12.3 0 23.2 4.9 31.4 12.1 1.8-3.8 5-6.5 7.4-10 2.4-3.5 5.6-8.2 8.5-11.4 16.6-19.5 40.9-31.9 68.1-32.6 7.8-.2 15.4.6 22.8 2.2 34.7 7.7 62.2 34.8 70.6 69.5 4.2-.9 8.6-1.3 13.3-.8 2.4 0 5.1 1.5 7.3 1.9 2.2.4 5.6.6 7.7 1.3 2.5.6 4.8 1.4 7.1 2.5 10.5 4.9 18.8 14.3 22.1 25.9.7 2.1 1.3 5.6 1.7 7.9.1.8.5 1.4.6 2.2 1.5-.3 4-.7 5.5-.9 1.9-.2 3.9-.4 5.8-.4 16.1 0 30.5 7.7 39.3 19.2 8.8 11.5 12.1 25.9 9.4 39.3 0 26.8-27.9 48.6-54.7 48.6h-349c-34.7 0-70.7-28.1-70.7-62.8-3.6-17.4.5-36.1 11.8-51.1 11.4-15.1 30-25.1 51-25.1 9.6 0 18.7 2.1 27 5.8 2.3 1 5.5 2.6 7.7 3.9.1-1.9.9-3.4 1.2-5.2.8-4.6 2.4-10.8 4.5-14.8 7.4-16 23.6-27.2 42.6-27.2" fill="url(#w)"/><path d="M4590.9-2564.5c12.2 0 22.8 4.9 30.6 11.8 1.6-3.4 5.7-4.6 7.7-7.6 2.1-3.1 5.7-8.8 8.2-11.5 15.9-20 39.6-32.9 66.3-34.3 7.7-.4 15.2.2 22.5 1.6 34.6 6.7 62.4 33.1 71.3 67.4 3.9-.2 8 0 12.2 1 2.1 0 4.7 2.7 6.7 3 2 .4 6.2 0 8.1.7 2.7.4 5.2 1 7.6 1.9 11.4 4.3 20.4 14.3 23.5 26.6.6 1.9 1.3 6.4 1.6 8.3.1.7.8 1.2.9 1.9 1.3-.3 4.5-.8 5.8-1 2-.3 4.1-.4 6.2-.4 17.1 0 32.1 9.2 39.8 22.4 7.7 13.1 8.1 28.2 2.8 40 0 23.5-31.2 42.5-54.7 42.5h-334.3c-30.4 0-70.6-24.6-70.6-54.9-7.2-15.2-7-34.9 3-52.3 10-17.3 29.6-29.5 52-29.5 9.6 0 18.8 2.2 27.3 6.1 2 .9 5.9 2.9 7.8 4 .1-1.7 1.5-2.6 1.8-4.2.7-4 2.2-11.6 4-15.1 6.5-16.5 22.8-28.4 41.9-28.4" fill="url(#x)"/><path d="M4591.1-2563.3c12.1 0 22.4 5 29.8 11.5 1.4-2.9 6.3-2.6 8.1-5.3 1.8-2.6 5.7-9.3 7.8-11.6 15.2-20.4 38.3-33.9 64.6-36 7.5-.6 15-.2 22.3 1 34.4 5.8 62.7 31.5 72.1 65.3 3.6.4 7.3 1.3 11 2.9 1.8 0 4.4 3.9 6.1 4.2 1.7.3 6.9-.5 8.4.1 2.8.1 5.5.6 8 1.4 12.3 3.7 22.1 14.2 25 27.3.5 1.6 1.2 7.1 1.5 8.8.1.6 1.1.9 1.2 1.5 1.1-.2 5-1 6.1-1.1 2.1-.3 4.3-.5 6.5-.5 18.1 0 33.7 10.7 40.3 25.5 6.6 14.8 4.2 30.5-3.8 40.6 0 20.1-34.5 36.4-54.7 36.4h-319.6c-26 0-70.6-21.1-70.6-47.1-10.9-13-14.4-33.8-5.9-53.4s29.2-33.9 53-33.9c9.6 0 18.9 2.3 27.5 6.4 1.7.7 6.3 3.2 7.9 4.1.1-1.4 2.2-1.7 2.4-3.1.6-3.4 2-12.3 3.5-15.3 5.9-17.3 22.3-29.7 41.5-29.7" fill="url(#y)"/><path d="M4591.4-2562.2c12 0 22 5 29 11.3 1.1-2.4 6.9-.7 8.4-2.9s5.7-9.8 7.5-11.7c14.5-20.9 37-34.9 62.8-37.6 7.4-.8 14.8-.6 22 .4 34.3 4.8 62.9 29.8 72.9 63.2 3.3 1.1 6.6 2.6 9.9 4.7 1.5 0 4.1 5.1 5.5 5.4 1.4.3 7.5-1.1 8.8-.6 3-.1 5.8.2 8.5.8 13.2 3.1 23.7 14.1 26.4 28 .4 1.3 1.2 7.8 1.4 9.2.1.5 1.4.7 1.5 1.2 1-.2 5.5-1.1 6.5-1.2 2.2-.3 4.5-.6 6.8-.6 19.1 0 35.4 12.3 40.9 28.7s.2 32.8-10.4 41.2c0 16.8-37.9 30.4-54.6 30.4h-304.9c-21.7 0-70.6-17.5-70.6-39.2-14.5-10.8-21.9-32.7-14.8-54.6 7.1-21.9 28.7-38.3 54.1-38.3 9.7 0 19 2.3 27.7 6.7 1.5.6 6.7 3.5 8 4.3.1-1.2 2.8-.9 3-2 .5-2.9 1.7-13.1 3.1-15.6 4.7-18.1 21.1-31.2 40.6-31.2" fill="url(#z)"/><path d="M4591.6-2561c12 0 21.5 5.1 28.2 11 .9-1.9 7.5 1.2 8.7-.5 1.2-1.8 5.7-10.3 7.1-11.9 13.7-21.4 35.8-35.9 61.1-39.3 7.2-1 14.5-1 21.8-.2 34.2 3.8 63.1 28.2 73.6 61.1 3 1.7 5.9 3.8 8.8 6.5 1.2 0 3.8 6.4 4.9 6.6 1.1.2 8.1-1.6 9.2-1.2 3.2-.4 6.1-.3 9 .3 14.1 2.5 25.4 14 27.9 28.7.3 1.1 1.2 8.5 1.3 9.7.1.4 1.7.4 1.8.8.8-.2 6-1.2 6.8-1.3 2.3-.4 4.7-.6 7.2-.6 20.1 0 37 13.8 41.4 31.8 4.4 18-3.7 35.1-17.1 41.8 0 13.4-41.2 24.3-54.6 24.3h-290.2c-17.3 0-70.5-14-70.5-31.4-18.1-8.7-29.4-31.6-23.7-55.7 5.7-24.2 28.3-42.8 55.1-42.8 9.7 0 19.1 2.4 27.9 6.9 1.2.5 7.1 3.8 8.1 4.4 0-.9 3.4 0 3.5-.9.4-2.3 1.5-13.9 2.6-15.8 4-18.6 20.5-32.3 40.1-32.3" fill="url(#A)"/><path d="M4591.8-2559.9c11.9 0 21.1 5.2 27.4 10.7.7-1.4 8.2 3.2 9.1 1.8.9-1.3 5.7-10.8 6.8-12 13-21.9 34.5-36.9 59.4-41 7.1-1.2 14.3-1.5 21.5-.8 34.1 2.9 63.4 26.5 74.4 59 2.7 2.4 5.2 5.1 7.6 8.3.9 0 3.5 7.6 4.3 7.7.8.2 8.7-2.1 9.5-1.9 3.4-.6 6.5-.7 9.4-.3 15 1.9 27.1 13.9 29.3 29.5.3.8 1.1 9.3 1.2 10.1 0 .3 2 .2 2.1.5.6-.1 6.5-1.3 7.1-1.4 2.4-.4 4.9-.7 7.5-.7 21.1 0 38.6 15.4 41.9 35 3.3 19.6-7.7 37.4-23.7 42.5 0 10.1-44.5 18.2-54.6 18.2h-275.5c-13 0-70.5-10.5-70.5-23.5-21.7-6.5-36.8-30.4-32.5-56.9 4.3-26.5 27.9-47.2 56.1-47.2 9.7 0 19.2 2.5 28.1 7.2.9.4 7.4 4.1 8.3 4.5 0-.7 4 .8 4.1.1.3-1.7 1.3-14.6 2.1-16.1 3.4-18.9 19.8-33.3 39.6-33.3" fill="url(#B)"/><path d="M4592-2558.7c11.8 0 20.7 5.2 26.6 10.4.5-1 8.8 5.1 9.4 4.2.6-.9 5.7-11.3 6.4-12.1 12.3-22.4 33.2-37.9 57.6-42.7 6.9-1.4 14.1-1.9 21.3-1.4 34 1.9 63.6 24.8 75.2 56.9 2.4 3.1 4.5 6.4 6.5 10.1.6 0 3.2 8.8 3.7 8.9.6.1 9.4-2.7 9.9-2.5 3.5-.8 6.8-1.1 9.9-.9 15.8 1.3 28.7 13.8 30.8 30.2.2.5 1.1 10 1.1 10.5 0 .2 2.4-.1 2.4.1.4-.1 7-1.4 7.4-1.4 2.5-.4 5.1-.7 7.8-.7 22 0 40.3 16.9 42.5 38.1 2.2 21.2-11.6 39.8-30.3 43.1 0 6.7-47.8 12.1-54.6 12.1h-260.8c-8.7 0-70.5-7-70.5-15.7-25.4-4.3-44.3-29.3-41.4-58.1 2.8-28.7 27.4-51.6 57.1-51.6 9.8 0 19.3 2.6 28.3 7.5.6.2 7.8 4.3 8.4 4.7 0-.5 4.6 1.7 4.7 1.2.2-1.1 1.1-15.4 1.6-16.4 2.6-19.5 19.1-34.5 39-34.5" fill="url(#C)"/><path d="M4592.3-2557.6c11.7 0 20.3 5.3 25.8 10.1.2-.5 9.4 7 9.7 6.6.3-.4 5.8-11.8 6.1-12.2 11.6-22.9 31.9-38.9 55.9-44.4 6.8-1.6 13.9-2.3 21-2.1 33.9 1 63.9 23.2 75.9 54.8 2.1 3.7 3.9 7.7 5.3 11.9.3 0 2.8 10 3.1 10.1.3.1 10-3.2 10.3-3.1 3.7-1.1 7.1-1.6 10.4-1.4 16.7.6 30.4 13.7 32.2 30.9.1.3 1 10.7 1.1 11 0 .1 2.7-.3 2.7-.2.2 0 7.5-1.5 7.7-1.5 2.6-.5 5.4-.8 8.1-.8 23 0 41.9 18.4 43 41.3 1.1 22.8-15.6 42.1-36.9 43.7 0 3.4-51.2 6.1-54.5 6.1h-246c-4.3 0-70.5-3.5-70.5-7.9-29-2.2-51.7-28.2-50.3-59.2 1.4-31 27-56 58.2-56 9.8 0 19.4 2.6 28.5 7.8.3.1 8.2 4.6 8.5 4.8 0-.2 5.2 2.5 5.3 2.3.1-.6.9-16.1 1.2-16.6 1.5-20.3 18.1-36 38.2-36" fill="url(#D)"/><path d="M4867.2-2398.1H4511c-32.6 0-59.2-27.1-59.2-60.4s26.6-60.4 59.2-60.4c9.8 0 19.5 2.7 28.7 8l14.4 8.3.7-16.9c.8-20.7 17.4-37 37.7-37 11.6 0 19.9 5.3 24.9 9.9l10.1 9 5.8-12.3c13.9-30 42.6-48.7 74.9-48.7 38.5 0 72.5 27.9 80.9 66.4l2.5 11.3 10.6-3.8c3.9-1.3 7.4-2 10.8-2 17.6 0 32 13.6 33.7 31.6l1 11.4 11-2.2c2.8-.5 5.6-.9 8.5-.9 24 0 43.6 20 43.6 44.4s-19.5 44.3-43.6 44.3" fill="url(#E)"/><path d="M5102.9-2336.8c-5 0-9.9.5-14.6 1.5-2.8-31.5-29-56.1-61.1-56.1-7 0-13.5 1.4-19.7 3.5-13-58.3-64.9-101.9-127.1-101.9-52 0-96.5 30.7-117.5 74.7-11.8-10.4-27.2-17-44.2-17-36.1 0-65.3 28.6-66.9 64.3-14-7.8-30-12.7-47.2-12.7-53.4 0-96.8 43.3-96.8 96.9 0 53.5 43.4 96.8 96.8 96.8h498.2c41.4 0 75-33.6 75-74.9.1-41.5-33.5-75.1-74.9-75.1" fill="#9cb1bf"/><path d="M5091.9-2352.5c-5 0-9.9.5-14.6 1.5-2.8-31.4-29-56.1-61.1-56.1-6.9 0-13.5 1.4-19.7 3.5-13-58.3-64.9-101.9-127.1-101.9-52 0-96.5 30.7-117.5 74.7-11.8-10.4-27.2-16.9-44.2-16.9-36.1 0-65.3 28.6-66.9 64.3-14-7.9-29.9-12.8-47.2-12.8-53.5 0-96.8 43.4-96.8 96.8 0 53.5 43.3 96.8 96.8 96.8h498.2c41.4 0 75-33.6 75-75 .1-41.4-33.5-74.9-74.9-74.9" fill="url(#F)"/><path d="M4708-2446.2c16.9 0 31.8 6.6 43.1 16.6 2.5-5.3 6.9-8.9 10.1-13.7 3.3-4.8 7.7-11.3 11.6-15.6 22.8-26.6 56-43.7 93.3-44.6 10.3-.3 20.4.7 30.1 2.8 48 10.2 86.1 47.6 97.7 95.5 5.8-1.2 11.8-1.8 18.1-1.1 3.3 0 6.9 2 10 2.6 3.1.5 7.7.8 10.6 1.8 3.4.8 6.7 2 9.8 3.4 14.5 6.7 25.7 19.7 30.3 35.5 1 2.9 1.8 7.7 2.3 10.8.2 1 .9 1.9 1 3 1.9-.4 5-.9 7-1.1 2.8-.3 5.6-.5 8.4-.5 22 0 41.7 10.5 53.7 26.3 12.1 15.8 16.6 35.5 12.9 53.9 0 36.8-40.2 66.6-77 66.6h-486.7c-52.5 0-95.1-42.6-95.1-95.3 0-52.6 42.6-95.3 95.1-95.3 13.2 0 25.6 2.9 37.1 8 3.2 1.3 7.5 3.6 10.5 5.3.1-2.6 1.3-4.7 1.7-7.2 1.1-6.3 3.3-14.8 6.1-20.2 10.1-22.2 32.4-37.5 58.3-37.5" fill="url(#G)"/><path d="M4708.3-2444.6c16.7 0 31.2 6.7 41.9 16.2 2.2-4.6 7.8-6.3 10.6-10.5s7.7-12 11.2-15.8c21.8-27.3 54.2-45 90.9-46.9 10.1-.5 20.2.2 29.9 2 47.8 9 86.4 45.3 98.6 92.6 5.4-.3 10.9 0 16.6 1.4 2.9 0 6.5 3.7 9.2 4.2 2.7.5 8.5.1 11.1 1 3.7.5 7.1 1.4 10.4 2.6 15.6 5.9 28 19.6 32.2 36.5.8 2.6 1.8 8.7 2.2 11.4.1.9 1.4 1.6 1.5 2.5 1.7-.3 5.6-1 7.3-1.2 2.9-.4 5.8-.6 8.8-.6 23.4 0 43.9 12.6 54.5 30.6 10.6 18 11.1 38.6 3.8 54.7 0 32.2-46.9 58.3-79.1 58.3h-475.2c-51.5 0-93.3-41.9-93.3-93.7 0-51.7 41.8-93.7 93.3-93.7 13.2 0 25.8 3 37.4 8.4 2.8 1.2 8.1 4 10.7 5.5.1-2.3 2.1-3.5 2.5-5.8 1-5.5 3-15.8 5.5-20.6 9-22.9 31.4-39.1 57.5-39.1" fill="url(#H)"/><path d="M4708.6-2443.1c16.6 0 30.6 6.8 40.8 15.8 1.9-3.9 8.6-3.6 11.1-7.2 2.4-3.6 7.8-12.7 10.7-15.9 20.8-28 52.5-46.4 88.5-49.2 10-.8 19.9-.4 29.7 1.2 47.6 7.7 86.6 43.1 99.6 89.7 4.9.6 10 1.7 15 3.8 2.5 0 6 5.3 8.4 5.8 2.3.4 9.4-.7 11.6.1 3.9.1 7.5.8 11.1 1.9 16.9 5.1 30.3 19.4 34.2 37.5.7 2.2 1.7 9.7 2 12 .1.8 2 1.2 2.1 2 1.4-.3 6.2-1.2 7.6-1.3 3-.4 6.1-.7 9.2-.7 24.8 0 46.2 14.7 55.2 34.9s5.7 41.8-5.2 55.6c0 27.6-53.5 50-81.1 50h-463.7c-50.5 0-91.6-41.2-91.6-92.1 0-50.8 41-92.1 91.6-92.1 13.2 0 25.9 3.1 37.7 8.8 2.4 1 8.6 4.4 10.8 5.6.1-2 3-2.4 3.3-4.3.8-4.7 2.7-16.8 4.8-20.9 7.9-23.9 30.2-41 56.6-41" fill="url(#I)"/><path d="M4709-2441.5c16.5 0 30.1 6.9 39.7 15.4 1.6-3.3 9.5-1 11.5-4s7.8-13.4 10.2-16.1c19.8-28.7 50.8-47.8 86.1-51.5 9.8-1.1 19.7-.9 29.4.4 47.4 6.4 86.8 40.8 100.5 86.8 4.5 1.5 9 3.4 13.5 6.3 2.1 0 5.6 7 7.5 7.4 1.9.3 10.3-1.4 12.1-.8 4.1-.2 8 .2 11.7 1.1 18.1 4.3 32.5 19.3 36.2 38.4.6 1.8 1.6 10.7 1.9 12.6.1.6 2.6.8 2.6 1.5 1.2-.2 6.7-1.3 8-1.4 3.1-.5 6.4-.8 9.6-.8 26.1 0 48.4 16.8 55.9 39.2 7.5 22.4.3 45-14.3 56.5 0 23-60.2 41.6-83.2 41.6h-452.2c-49.6 0-89.8-40.5-89.8-90.5s40.3-90.5 89.8-90.5c13.3 0 26 3.2 37.9 9.1 2 .8 9.1 4.7 11 5.8.1-1.6 3.8-1.2 4.1-2.8.7-3.9 2.4-17.9 4.2-21.3 7-24.4 29.4-42.4 56.1-42.4" fill="url(#J)"/><path d="M4709.3-2439.9c16.3 0 29.5 6.9 38.6 15 1.2-2.6 10.4 1.7 12-.7 1.6-2.4 7.8-14.1 9.8-16.3 18.8-29.3 49-49.2 83.8-53.8 9.7-1.3 19.5-1.5 29.2-.4 47.2 5.1 87.1 38.6 101.5 83.9 4.1 2.4 8.1 5.2 11.9 8.7 1.6 0 5.1 8.7 6.7 9 1.5.3 11.1-2.1 12.6-1.6 4.4-.5 8.4-.4 12.3.3 19.3 3.5 34.8 19.2 38.2 39.4.5 1.5 1.6 11.6 1.8 13.2.1.5 3.2.4 3.2 1 1-.2 7.3-1.4 8.3-1.5 3.3-.5 6.6-.9 10-.9 27.5 0 50.6 18.9 56.7 43.6 6 24.6-5.1 48.1-23.4 57.3 0 18.4-66.8 33.3-85.2 33.3h-440.7c-48.6 0-88.1-39.8-88.1-88.9 0-49.1 39.5-89 88.1-89 13.3 0 26.2 3.3 38.2 9.5 1.6.7 9.6 5.1 11.1 6 .1-1.3 4.7-.1 4.9-1.3.5-3.1 2.1-18.9 3.5-21.6 5.6-25.4 28.1-44.2 55-44.2" fill="url(#K)"/><path d="M4709.6-2438.3c16.2 0 29 7 37.5 14.6.9-2 11.2 4.3 12.4 2.5 1.2-1.8 7.8-14.8 9.3-16.4 17.9-30 47.3-50.5 81.4-56.1 9.5-1.6 19.3-2 29-1.2 47 3.8 87.3 36.3 102.4 81.1 3.7 3.2 7.1 6.9 10.4 11.2 1.2 0 4.7 10.4 5.9 10.6 1.2.2 12-2.9 13.1-2.5 4.6-.9 8.9-1 13-.5 20.5 2.6 37.1 19 40.1 40.4.4 1.1 1.5 12.6 1.7 13.8.1.4 3.7.1 3.8.4.7-.1 7.9-1.5 8.7-1.6 3.4-.6 6.9-.9 10.4-.9 28.8 0 52.9 21 57.4 47.9s-10.5 51.3-32.4 58.2c0 13.8-73.5 25-87.3 25h-429.2c-47.6 0-86.3-39.1-86.3-87.4 0-48.2 38.7-87.4 86.3-87.4 13.4 0 26.3 3.4 38.5 9.9 1.2.5 10.1 5.5 11.2 6.1 0-1 5.5 1.1 5.7.1.4-2.4 1.8-19.9 2.9-22 4.4-26.2 27-45.8 54.1-45.8" fill="url(#L)"/><path d="M4709.9-2436.8c16.1 0 28.4 7.1 36.4 14.2.6-1.3 12.1 7 12.9 5.8.8-1.2 7.8-15.5 8.8-16.6 16.9-30.7 45.5-51.9 79-58.4 9.4-1.9 19-2.5 28.8-2 46.7 2.6 87.5 34 103.3 78.2 3.2 4.1 6.2 8.7 8.8 13.6.8 0 4.3 12 5.1 12.2.8.1 12.9-3.6 13.6-3.3 4.9-1.2 9.3-1.6 13.6-1.3 21.7 1.8 39.3 18.9 42.1 41.3.2.7 1.5 13.6 1.6 14.4 0 .3 4.3-.3 4.3-.1.5-.1 8.5-1.7 9-1.7 3.5-.6 7.2-1 10.8-1 30.2 0 55.1 23.1 58.1 52.2s-15.9 54.4-41.5 59c0 9.2-80.1 16.7-89.3 16.7h-417.6c-46.6 0-84.6-38.4-84.6-85.8 0-47.3 37.9-85.8 84.6-85.8 13.4 0 26.5 3.5 38.8 10.3.8.3 10.7 5.9 11.4 6.3 0-.7 6.4 2.3 6.5 1.6.3-1.6 1.5-21 2.2-22.3 3.4-26.9 26-47.5 53.3-47.5" fill="url(#M)"/><path d="M4710.2-2435.2c16 0 27.9 7.2 35.3 13.9.3-.7 12.9 9.6 13.3 9 .4-.6 7.8-16.2 8.3-16.8 15.9-31.4 43.8-53.3 76.6-60.7 9.2-2.1 18.8-3.1 28.5-2.8 46.5 1.3 87.8 31.8 104.3 75.3 2.8 5 5.2 10.4 7.3 16.1.4 0 3.8 13.7 4.2 13.8.4.1 13.7-4.3 14.1-4.2 5.1-1.5 9.7-2.2 14.2-2 22.9.9 41.6 18.8 44.1 42.3.1.4 1.4 14.6 1.5 15 0 .1 4.9-.7 4.9-.6.2 0 9.1-1.8 9.4-1.8 3.6-.7 7.4-1.1 11.2-1.1 31.6 0 57.4 25.2 58.9 56.5s-21.3 57.6-50.5 59.9c0 4.6-86.8 8.3-91.4 8.3h-406.1c-45.6 0-82.8-37.7-82.8-84.2s37.2-84.3 82.8-84.3c13.4 0 26.6 3.6 39.1 10.6.4.2 11.2 6.2 11.5 6.4 0-.3 7.3 3.4 7.3 3.1.1-.8 1.2-22 1.6-22.7 2.2-27.6 24.9-49 52.4-49" fill="url(#N)"/><path d="M5086.9-2216.8h-488c-44.7 0-81.1-37-81.1-82.6 0-45.6 36.4-82.7 81.1-82.7 13.5 0 26.7 3.7 39.4 11l19.8 11.2.9-23c1.1-28.4 23.8-50.7 51.6-50.7 15.8 0 27.3 7.3 34.2 13.5l13.8 12.3 7.9-16.9c19.2-41.1 58.4-66.7 102.5-66.7 52.7 0 99.4 38.3 110.9 90.9l3.4 15.4 14.6-5.1c5.3-1.9 10.2-2.8 14.9-2.8 24.1 0 43.9 18.7 46.1 43.3l1.3 15.6 15.1-3c3.8-.7 7.7-1.2 11.6-1.2 32.9 0 59.6 27.3 59.6 60.8s-26.7 60.7-59.6 60.7" fill="url(#O)"/><path d="M5082.7-2167.8c-5.9 0-11.5.7-17 1.8-3.2-36.6-33.7-65.4-71.1-65.4-8.1 0-15.7 1.7-23 4.1-15.2-67.9-75.5-118.6-148-118.6-60.5 0-112.4 35.7-136.7 87-13.8-12.2-31.6-19.7-51.4-19.7-42.1 0-76.1 33.3-77.8 74.8-16.3-9.2-34.8-14.8-54.9-14.8-62.3 0-112.8 50.5-112.8 112.7s50.5 112.7 112.8 112.7h579.9c48.2 0 87.3-39.1 87.3-87.2 0-48.3-39-87.4-87.3-87.4" fill="#9cb1bf"/><path d="M5071.8-2184.9c-5.8 0-11.5.6-17 1.8-3.2-36.6-33.7-65.3-71.1-65.3-8.2 0-15.8 1.6-23 4.1-15.2-67.9-75.5-118.7-148-118.7-60.4 0-112.3 35.7-136.7 87-13.8-12.1-31.6-19.8-51.4-19.8-42 0-76 33.3-77.8 74.9-16.3-9.2-34.9-14.8-54.9-14.8-62.2 0-112.7 50.4-112.7 112.7 0 62.3 50.5 112.6 112.7 112.6h579.9c48.2 0 87.3-39 87.3-87.2s-39.1-87.3-87.3-87.3" fill="url(#P)"/><path d="M4624.9-2294c19.7 0 37 7.8 50.1 19.3 2.9-6.1 8-10.4 11.8-16 3.8-5.6 9-13.1 13.5-18.1 26.5-31 65.2-50.9 108.6-52 12-.3 23.8.8 35.2 3.2 55.8 11.9 100.1 55.4 113.6 111.1 6.8-1.4 13.8-2 21.2-1.2 3.8 0 8.1 2.3 11.7 3 3.6.6 8.9.9 12.3 2.1 4 1 7.7 2.3 11.3 4 16.8 7.8 29.9 22.9 35.2 41.4 1.1 3.4 2.1 9 2.6 12.6.2 1.2 1 2.3 1.1 3.5 2.3-.5 5.8-1.1 8.1-1.3 3.2-.4 6.5-.6 9.8-.6 25.7 0 48.6 12.2 62.6 30.6 14 18.4 19.3 41.3 15 62.7 0 42.8-44.4 77.5-87.3 77.5h-556.5c-55.3 0-112.7-44.8-112.7-100.1-5.8-27.7.7-57.5 18.9-81.5 18.1-24 47.9-40 81.3-40 15.3 0 29.8 3.4 43.1 9.3 3.7 1.6 8.8 4.2 12.3 6.2.1-3 1.5-5.4 2-8.3 1.3-7.3 3.8-17.3 7.1-23.6 12-25.9 38-43.8 68.1-43.8" fill="url(#Q)"/><path d="M4625.3-2292.1c19.5 0 36.3 7.9 48.8 18.9 2.5-5.4 9-7.3 12.3-12.2 3.3-4.9 9-14 13-18.3 25.3-31.8 63.1-52.5 105.8-54.7 11.9-.6 23.6.2 35 2.3 55.6 10.5 100.4 52.8 114.7 107.8 6.3-.4 12.7 0 19.4 1.6 3.4 0 7.6 4.3 10.8 4.9 3.1.6 9.9 0 12.9 1.1 4.2.6 8.2 1.6 12.1 3.1 18.2 6.9 32.6 22.7 37.5 42.5 1 3 2 10.1 2.5 13.3.2 1 1.7 1.8 1.8 2.9 2-.4 6.5-1.2 8.5-1.5 3.4-.4 6.8-.7 10.2-.7 27.3 0 51.2 14.7 63.5 35.6 12.3 20.9 13 45 4.5 63.7 0 37.4-49.7 67.8-87.2 67.8h-533c-48.4 0-112.6-39.2-112.6-87.6-11.6-24.2-11.2-55.7 4.7-83.4 15.9-27.7 47.2-47.1 83-47.1 15.3 0 29.9 3.5 43.5 9.7 3.2 1.4 9.4 4.7 12.5 6.4.1-2.6 2.5-4.1 2.9-6.6 1.1-6.4 3.5-18.5 6.4-24 10.1-26.7 36.1-45.5 66.5-45.5" fill="url(#R)"/><path d="M4625.7-2290.3c19.4 0 35.7 8 47.5 18.4 2.2-4.6 10-4.2 12.8-8.4 2.8-4.2 9-14.8 12.5-18.5 24.2-32.6 61.1-54.1 103-57.3 11.7-.9 23.3-.5 34.7 1.4 55.3 9 100.7 50.1 115.8 104.4 5.8.7 11.6 2 17.6 4.5 2.9 0 7.1 6.2 9.8 6.7 2.7.5 10.9-.8 13.4.1 4.5.2 8.8 1 12.8 2.2 19.6 6 35.2 22.6 39.8 43.6.8 2.6 2 11.3 2.4 14 .1.9 2.3 1.4 2.4 2.3 1.7-.3 7.2-1.4 8.9-1.6 3.5-.5 7.1-.8 10.7-.8 28.8 0 53.8 17.1 64.3 40.7 10.5 23.5 6.7 48.7-6.1 64.7 0 32.1-55.1 58.1-87.2 58.1h-509.6c-41.5 0-112.6-33.6-112.6-75.1-17.3-20.8-23-53.9-9.4-85.2 13.6-31.3 46.5-54.1 84.6-54.1 15.4 0 30.1 3.6 43.8 10.2 2.8 1.2 10 5.1 12.6 6.6.1-2.3 3.4-2.7 3.8-4.9.9-5.5 3.1-19.7 5.6-24.4 9.3-27.7 35.4-47.6 66.1-47.6" fill="url(#S)"/><path d="M4626-2288.5c19.2 0 35 8 46.2 18 1.8-3.8 11-1.1 13.4-4.6 2.4-3.5 9.1-15.6 11.9-18.7 23-33.4 59-55.7 100.2-60 11.5-1.2 23.1-1.1 34.4.4 55.1 7.5 101 47.5 116.9 101 5.3 1.7 10.5 4 15.8 7.4 2.4 0 6.6 8.2 8.8 8.6 2.2.4 11.9-1.7 14-.9 4.8-.2 9.3.3 13.6 1.3 21 5 37.8 22.4 42.1 44.7.7 2.1 1.9 12.4 2.2 14.7.1.7 3 .9 3.1 1.7 1.4-.3 7.8-1.5 9.3-1.7 3.7-.5 7.4-.9 11.2-.9 30.4 0 56.4 19.6 65.2 45.7 8.8 26.1.4 52.3-16.7 65.7 0 26.7-60.4 48.4-87.1 48.4h-486.1c-34.6 0-112.5-28-112.5-62.6-23.1-17.3-34.9-52.1-23.6-87.1 11.3-34.9 45.8-61.1 86.2-61.1 15.4 0 30.3 3.7 44.1 10.6 2.3 1 10.6 5.6 12.8 6.8.1-1.9 4.4-1.4 4.7-3.2.8-4.6 2.8-20.9 4.9-24.9 7.9-28.4 34.1-49.3 65-49.3" fill="url(#T)"/><path d="M4626.4-2286.7c19.1 0 34.3 8.1 44.9 17.5 1.5-3.1 12 1.9 13.9-.8 1.9-2.8 9.1-16.4 11.4-18.9 21.9-34.1 57-57.2 97.4-62.7 11.3-1.5 22.8-1.7 34.2-.5 54.8 6 101.2 44.9 118 97.7 4.8 2.8 9.4 6.1 13.9 10.2 1.9 0 6 10.1 7.9 10.5 1.8.3 12.9-2.6 14.6-1.9 5.1-.6 9.8-.4 14.3.4 22.4 4 40.5 22.3 44.5 45.8.6 1.7 1.8 13.6 2.1 15.4.1.6 3.7.5 3.7 1.1 1.1-.2 8.5-1.7 9.7-1.8 3.8-.6 7.7-1 11.6-1 32 0 59 22 66 50.7 7 28.7-5.9 56-27.2 66.7 0 21.4-65.7 38.7-87.1 38.7h-462.7c-27.7 0-112.5-22.4-112.5-50.1-28.9-13.8-46.8-50.3-37.7-88.9 9.1-38.5 45.1-68.2 87.8-68.2 15.5 0 30.4 3.9 44.5 11.1 1.9.8 11.2 6 13 7 .1-1.5 5.4 0 5.6-1.5.6-3.7 2.4-22.1 4.1-25.3 6.6-29.2 32.9-51.2 64.1-51.2" fill="url(#U)"/><path d="M4626.8-2284.8c18.9 0 33.7 8.2 43.6 17.1 1.1-2.3 13 5 14.4 2.9 1.4-2.1 9.1-17.2 10.8-19.1 20.8-34.9 55-58.8 94.6-65.4 11.2-1.9 22.5-2.3 33.9-1.4 54.6 4.5 101.5 42.2 119.1 94.3 4.3 3.8 8.3 8.1 12.1 13.1 1.4 0 5.5 12.1 6.9 12.3 1.3.2 13.9-3.4 15.2-3 5.3-1 10.3-1.1 15-.5 23.9 3 43.1 22.1 46.8 47 .4 1.3 1.8 14.8 2 16.1.1.4 4.3 0 4.4.5.8-.2 9.2-1.8 10.1-1.9 4-.6 8-1.1 12.1-1.1 33.6 0 61.6 24.5 66.9 55.8 5.3 31.2-12.2 59.7-37.8 67.7 0 16-71 29.1-87 29.1h-439.2c-20.7 0-112.4-16.8-112.4-37.5-34.7-10.4-58.7-48.5-51.9-90.7 6.8-42.2 44.4-75.2 89.5-75.2 15.5 0 30.6 4 44.8 11.5 1.4.6 11.9 6.5 13.2 7.2 0-1.1 6.4 1.3 6.6.2.5-2.7 2.1-23.3 3.4-25.7 5.1-30.4 31.3-53.3 62.9-53.3" fill="url(#V)"/><path d="M4627.1-2283c18.8 0 33 8.3 42.4 16.6.7-1.5 14 8.1 15 6.7.9-1.4 9.1-18 10.3-19.3 19.6-35.7 52.9-60.4 91.8-68.1 11-2.2 22.3-3 33.6-2.4 54.3 3 101.8 39.6 120.2 91 3.8 4.8 7.2 10.1 10.3 15.9 1 0 5 14 6 14.2.9.2 14.9-4.3 15.8-4 5.6-1.3 10.8-1.8 15.8-1.4 25.3 2 45.8 21.9 49.1 48.1.3.9 1.7 15.9 1.8 16.8 0 .3 5-.4 5-.1.6-.1 9.9-2 10.5-2 4.1-.7 8.3-1.2 12.6-1.2 35.1 0 64.2 26.9 67.7 60.8 3.5 33.8-18.5 63.4-48.3 68.7 0 10.7-76.3 19.4-87 19.4h-415.8c-13.8 0-112.4-11.2-112.4-25-40.5-6.9-70.6-46.8-66-92.6 4.5-45.8 43.7-82.2 91.1-82.2 15.6 0 30.8 4.1 45.1 11.9.9.4 12.5 6.9 13.3 7.4 0-.8 7.3 2.6 7.5 1.9.3-1.8 1.8-24.5 2.6-26.1 3.9-31 30.2-55 62-55" fill="url(#W)"/><path d="M4627.5-2281.2c18.6 0 32.4 8.4 41.1 16.2.4-.8 15 11.2 15.5 10.5.5-.7 9.2-18.8 9.7-19.5 18.5-36.5 50.9-62 89.1-70.7 10.8-2.5 22-3.6 33.4-3.3 54.1 1.5 102 37 121.3 87.6 3.3 5.9 6.1 12.1 8.5 18.8.5 0 4.5 16 5 16.1.4.1 16-5.1 16.4-5 5.9-1.7 11.3-2.5 16.5-2.3 26.7 1 48.4 21.8 51.4 49.2.1.4 1.6 17.1 1.7 17.5 0 .1 5.6-.8 5.7-.7.3-.1 10.6-2.1 10.9-2.2 4.2-.7 8.6-1.3 13.1-1.3 36.7 0 66.8 29.4 68.6 65.8 1.8 36.4-24.8 67.1-58.9 69.7 0 5.3-81.6 9.7-86.9 9.7h-392.3c-6.9 0-112.3-5.6-112.3-12.5-46.2-3.5-82.5-45-80.2-94.4 2.3-49.4 43-89.3 92.7-89.3 15.6 0 30.9 4.2 45.5 12.4.5.2 13.1 7.4 13.5 7.6 0-.4 8.3 4 8.4 3.6.2-.9 1.4-25.7 1.8-26.5 2.3-32 28.7-57 60.8-57" fill="url(#X)"/><path d="M5065.9-2026.8h-568c-52 0-94.4-43.2-94.4-96.2 0-53.1 42.3-96.3 94.4-96.3 15.7 0 31.1 4.3 45.8 12.8l23 13.2 1.1-26.9c1.3-33.1 27.8-59 60.1-59 18.5 0 31.7 8.5 39.8 15.7l16 14.3 9.2-19.7c22.2-47.8 67.9-77.7 119.4-77.7 61.3 0 115.7 44.5 129 105.9l4 17.9 17-6c6.2-2.1 11.8-3.2 17.3-3.2 28.1 0 51.1 21.6 53.7 50.3l1.6 18.2 17.6-3.6c4.4-.8 8.9-1.4 13.5-1.4 38.3 0 69.4 31.8 69.4 70.8 0 39.1-31.2 70.9-69.5 70.9" fill="url(#Y)"/></svg>