<svg xmlns="http://www.w3.org/2000/svg" xmlns:xlink="http://www.w3.org/1999/xlink" viewBox="1095.9 -1171 841.9 841.90004" width="841.9" height="841.9"><defs><linearGradient id="at" gradientUnits="userSpaceOnUse" y1="-802.25" x2="0" y2="-969.92" gradientTransform="matrix(1.2 0 0 1.2 -326.423 255.935)"><stop stop-color="#99bbce"/><stop offset="1" stop-color="#d3e4ed"/></linearGradient><linearGradient id="w" gradientUnits="userSpaceOnUse" y1="-754.72" x2="0" y2="-1135.63" gradientTransform="matrix(1.2 0 0 1.2 -326.423 255.935)"><stop stop-color="#e69e00"/><stop offset="1" stop-color="#fff200"/></linearGradient><linearGradient id="au" gradientUnits="userSpaceOnUse" y1="-803.24" x2="0" y2="-969.03" gradientTransform="matrix(1.2 0 0 1.2 -326.423 255.935)"><stop stop-color="#9bbccf"/><stop offset="1" stop-color="#d7e6f0"/></linearGradient><linearGradient id="aw" gradientUnits="userSpaceOnUse" y1="-805.23" x2="0" y2="-967.4" gradientTransform="matrix(1.2 0 0 1.2 -326.423 255.935)"><stop stop-color="#9fbed0"/><stop offset="1" stop-color="#ddecf5"/></linearGradient><linearGradient id="ax" gradientUnits="userSpaceOnUse" y1="-806.22" x2="0" y2="-966.67" gradientTransform="matrix(1.2 0 0 1.2 -326.423 255.935)"><stop stop-color="#a1bfd1"/><stop offset="1" stop-color="#e0eff7"/></linearGradient><linearGradient id="av" gradientUnits="userSpaceOnUse" y1="-804.24" x2="0" y2="-968.19" gradientTransform="matrix(1.2 0 0 1.2 -326.423 255.935)"><stop stop-color="#9dbdd0"/><stop offset="1" stop-color="#dae9f2"/></linearGradient><linearGradient id="as" gradientUnits="userSpaceOnUse" y1="-801.26" x2="0" y2="-970.86" gradientTransform="matrix(1.2 0 0 1.2 -326.423 255.935)"><stop stop-color="#97bacd"/><stop offset="1" stop-color="#d0e1eb"/></linearGradient><linearGradient id="Z" gradientUnits="userSpaceOnUse" x1="1482.81" x2="1529.45" gradientTransform="matrix(.94932 .05995 -.082 1.05756 -104.77 268.445)" xlink:href="#a"/><linearGradient id="ar" gradientUnits="userSpaceOnUse" y1="-800.26" x2="0" y2="-971.85" gradientTransform="matrix(1.2 0 0 1.2 -326.423 255.935)"><stop stop-color="#95b9cc"/><stop offset="1" stop-color="#cddee8"/></linearGradient><linearGradient id="aa" gradientUnits="userSpaceOnUse" x1="1471.68" x2="1511.75" gradientTransform="matrix(.99948 .04795 -.0656 1.08612 -149.11 265.943)" xlink:href="#b"/><linearGradient id="ac" gradientUnits="userSpaceOnUse" x1="1448.87" x2="1477.45" gradientTransform="matrix(1.09968 .02398 -.0328 1.143 -237.764 260.94)" xlink:href="#c"/><linearGradient id="ad" gradientUnits="userSpaceOnUse" x1="1437.45" x2="1460.95" gradientTransform="matrix(1.14984 .01199 -.0164 1.17156 -282.094 258.437)" xlink:href="#d"/><linearGradient id="ab" gradientUnits="userSpaceOnUse" x1="1460.32" x2="1494.39" gradientTransform="matrix(1.04964 .03596 -.0492 1.11456 -193.439 263.441)" xlink:href="#e"/><linearGradient id="ay" gradientUnits="userSpaceOnUse" y1="-807.22" x2="0" y2="-966" gradientTransform="matrix(1.2 0 0 1.2 -326.423 255.935)"><stop stop-color="#a3c0d2"/><stop offset="1" stop-color="#e4f1fa"/></linearGradient><linearGradient id="r" gradientUnits="userSpaceOnUse" y1="-741.9" x2="0" y2="-1148.44" gradientTransform="matrix(1.2 0 0 1.2 -326.423 255.935)"><stop stop-color="#e39400"/><stop offset="1" stop-color="#ffd40e"/></linearGradient><linearGradient id="az" gradientUnits="userSpaceOnUse" y1="-808.21" x2="0" y2="-965.38" gradientTransform="matrix(1.2 0 0 1.2 -326.423 255.935)"><stop stop-color="#a5c1d3"/><stop offset="1" stop-color="#e7f4fc"/></linearGradient><linearGradient id="s" gradientUnits="userSpaceOnUse" y1="-744.46" x2="0" y2="-1145.88" gradientTransform="matrix(1.2 0 0 1.2 -326.423 255.935)"><stop stop-color="#e39600"/><stop offset="1" stop-color="#ffda0b"/></linearGradient><linearGradient id="u" gradientUnits="userSpaceOnUse" y1="-749.59" x2="0" y2="-1140.75" gradientTransform="matrix(1.2 0 0 1.2 -326.423 255.935)"><stop stop-color="#e59a00"/><stop offset="1" stop-color="#ffe606"/></linearGradient><linearGradient id="v" gradientUnits="userSpaceOnUse" y1="-752.15" x2="0" y2="-1138.19" gradientTransform="matrix(1.2 0 0 1.2 -326.423 255.935)"><stop stop-color="#e59c00"/><stop offset="1" stop-color="#ffec03"/></linearGradient><linearGradient id="t" gradientUnits="userSpaceOnUse" y1="-747.03" x2="0" y2="-1143.31" gradientTransform="matrix(1.2 0 0 1.2 -326.423 255.935)"><stop stop-color="#e49800"/><stop offset="1" stop-color="#ffe008"/></linearGradient><linearGradient id="q" gradientUnits="userSpaceOnUse" y1="-739.34" x2="0" y2="-1151" gradientTransform="matrix(1.2 0 0 1.2 -326.423 255.935)"><stop stop-color="#e29200"/><stop offset="1" stop-color="#ffcf11"/></linearGradient><linearGradient id="aA" gradientUnits="userSpaceOnUse" y1="-809.2" x2="0" y2="-964.81" gradientTransform="matrix(1.2 0 0 1.2 -326.423 255.935)"><stop stop-color="#a7c2d4"/><stop offset="1" stop-color="#eaf7ff"/></linearGradient><linearGradient id="p" gradientUnits="userSpaceOnUse" y1="-736.78" x2="0" y2="-1153.56" gradientTransform="matrix(1.2 0 0 1.2 -326.423 255.935)"><stop stop-color="#e29000"/><stop offset="1" stop-color="#ffc914"/></linearGradient><linearGradient id="l" gradientUnits="userSpaceOnUse" y1="-726.53" x2="0" y2="-1163.81" gradientTransform="matrix(1.2 0 0 1.2 -326.423 255.935)"><stop stop-color="#df8800"/><stop offset="1" stop-color="#ffb11f"/></linearGradient><linearGradient id="n" gradientUnits="userSpaceOnUse" y1="-731.65" x2="0" y2="-1158.68" gradientTransform="matrix(1.2 0 0 1.2 -326.423 255.935)"><stop stop-color="#e08c00"/><stop offset="1" stop-color="#ffbd19"/></linearGradient><linearGradient id="o" gradientUnits="userSpaceOnUse" y1="-734.21" x2="0" y2="-1156.12" gradientTransform="matrix(1.2 0 0 1.2 -326.423 255.935)"><stop stop-color="#e18e00"/><stop offset="1" stop-color="#ffc317"/></linearGradient><linearGradient id="m" gradientUnits="userSpaceOnUse" y1="-729.09" x2="0" y2="-1161.24" gradientTransform="matrix(1.2 0 0 1.2 -326.423 255.935)"><stop stop-color="#e08a00"/><stop offset="1" stop-color="#ffb71c"/></linearGradient><linearGradient id="Y" gradientUnits="userSpaceOnUse" x1="1493.53" x2="1547.42" gradientTransform="matrix(.89916 .07194 -.09839 1.02912 -60.443 270.947)" xlink:href="#f"/><linearGradient id="b" gradientUnits="userSpaceOnUse" x1="1597.49" x2="1657.61" gradientTransform="matrix(.8329 .03996 -.05466 .9051 147.76 8.34)"><stop stop-color="#d6eeff"/><stop offset="1" stop-color="#c2e7ff"/></linearGradient><linearGradient id="X" gradientUnits="userSpaceOnUse" x1="1503.59" x2="1565.52" gradientTransform="matrix(.849 .08393 -.1148 1.00056 -16.115 273.45)" xlink:href="#g"/><linearGradient id="e" gradientUnits="userSpaceOnUse" x1="1580.73" x2="1631.86" gradientTransform="matrix(.8747 .02997 -.041 .9288 110.82 6.255)"><stop stop-color="#e0f2ff"/><stop offset="1" stop-color="#d1edff"/></linearGradient><linearGradient id="d" gradientUnits="userSpaceOnUse" x1="1548.56" x2="1583.83" gradientTransform="matrix(.9582 .00999 -.01367 .9763 36.941 2.085)"><stop stop-color="#f5fbff"/><stop offset="1" stop-color="#f0f9ff"/></linearGradient><linearGradient id="I" gradientUnits="userSpaceOnUse" x1="1955.9" x2="2085.3" gradientTransform="matrix(.64848 .13188 -.18036 .88668 161.197 283.457)" xlink:href="#h"/><linearGradient id="c" gradientUnits="userSpaceOnUse" x1="1564.41" x2="1607.28" gradientTransform="matrix(.9164 .01998 -.02733 .9525 73.882 4.17)"><stop stop-color="#ebf6ff"/><stop offset="1" stop-color="#e0f3ff"/></linearGradient><linearGradient id="a" gradientUnits="userSpaceOnUse" x1="1614.62" x2="1684.61" gradientTransform="matrix(.7911 .04996 -.06833 .8813 184.71 10.425)"><stop stop-color="#cceaff"/><stop offset="1" stop-color="#b3e1ff"/></linearGradient><linearGradient id="h" gradientUnits="userSpaceOnUse" x1="1715.07" x2="1873.59" gradientTransform="matrix(.5404 .1099 -.1503 .7389 406.35 22.935)"><stop stop-color="#8fd0ff"/><stop offset="1" stop-color="#57bdff"/></linearGradient><linearGradient id="f" gradientUnits="userSpaceOnUse" x1="1632.01" x2="1712.87" gradientTransform="matrix(.7493 .05995 -.08199 .8576 221.65 12.51)"><stop stop-color="#c2e5ff"/><stop offset="1" stop-color="#a3dbff"/></linearGradient><linearGradient id="i" gradientUnits="userSpaceOnUse" x1="1700.23" x2="1839.02" gradientTransform="matrix(.5822 .09991 -.1367 .7626 369.41 20.85)"><stop stop-color="#99d4ff"/><stop offset="1" stop-color="#66c3ff"/></linearGradient><linearGradient id="k" gradientUnits="userSpaceOnUse" x1="1666.95" x2="1773.36" gradientTransform="matrix(.6657 .07993 -.1093 .8101 295.53 16.68)"><stop stop-color="#aeddff"/><stop offset="1" stop-color="#85cfff"/></linearGradient><linearGradient id="g" gradientUnits="userSpaceOnUse" x1="1649.53" x2="1742.45" gradientTransform="matrix(.7075 .06994 -.09566 .8338 258.59 14.595)"><stop stop-color="#b8e1ff"/><stop offset="1" stop-color="#94d5ff"/></linearGradient><linearGradient id="j" gradientUnits="userSpaceOnUse" x1="1683.99" x2="1805.57" gradientTransform="matrix(.624 .08992 -.123 .7864 332.47 18.765)"><stop stop-color="#a3d9ff"/><stop offset="1" stop-color="#76c9ff"/></linearGradient><linearGradient id="J" gradientUnits="userSpaceOnUse" x1="1929.07" x2="2042.37" gradientTransform="matrix(.69864 .1199 -.16404 .91512 116.87 280.955)" xlink:href="#i"/><linearGradient id="S" gradientUnits="userSpaceOnUse" x1="1702.66" x2="1731.46" gradientTransform="matrix(1.14984 .01199 -.0164 1.17156 -282.094 258.437)" xlink:href="#d"/><linearGradient id="K" gradientUnits="userSpaceOnUse" x1="1901.81" x2="2001.05" gradientTransform="matrix(.7488 .1079 -.1476 .94368 72.541 278.453)" xlink:href="#j"/><linearGradient id="T" gradientUnits="userSpaceOnUse" x1="1528.91" x2="1634.52" gradientTransform="matrix(.64848 .13188 -.18036 .88668 161.197 283.457)" xlink:href="#h"/><linearGradient id="V" gradientUnits="userSpaceOnUse" x1="1520.33" x2="1601.34" gradientTransform="matrix(.7488 .1079 -.1476 .94368 72.541 278.453)" xlink:href="#j"/><linearGradient id="W" gradientUnits="userSpaceOnUse" x1="1512.67" x2="1583.57" gradientTransform="matrix(.79884 .09592 -.13116 .97212 28.213 275.951)" xlink:href="#k"/><linearGradient id="U" gradientUnits="userSpaceOnUse" x1="1526" x2="1618.48" gradientTransform="matrix(.69864 .1199 -.16404 .91512 116.87 280.955)" xlink:href="#i"/><linearGradient id="R" gradientUnits="userSpaceOnUse" x1="1724.68" x2="1759.68" gradientTransform="matrix(1.09968 .02398 -.0328 1.143 -237.764 260.94)" xlink:href="#c"/><linearGradient id="L" gradientUnits="userSpaceOnUse" x1="1874.6" x2="1961.46" gradientTransform="matrix(.79884 .09592 -.13116 .97212 28.213 275.951)" xlink:href="#k"/><linearGradient id="Q" gradientUnits="userSpaceOnUse" x1="1747.59" x2="1789.33" gradientTransform="matrix(1.04964 .03596 -.0492 1.11456 -193.439 263.441)" xlink:href="#e"/><linearGradient id="M" gradientUnits="userSpaceOnUse" x1="1847.78" x2="1923.64" gradientTransform="matrix(.849 .08393 -.1148 1.00056 -16.115 273.45)" xlink:href="#g"/><linearGradient id="O" gradientUnits="userSpaceOnUse" x1="1796.05" x2="1853.19" gradientTransform="matrix(.94932 .05995 -.082 1.05756 -104.77 268.445)" xlink:href="#a"/><linearGradient id="P" gradientUnits="userSpaceOnUse" x1="1771.38" x2="1820.47" gradientTransform="matrix(.99948 .04795 -.0656 1.08612 -149.11 265.943)" xlink:href="#b"/><linearGradient id="N" gradientUnits="userSpaceOnUse" x1="1821.55" x2="1887.56" gradientTransform="matrix(.89916 .07194 -.09839 1.02912 -60.443 270.947)" xlink:href="#f"/><linearGradient xlink:href="#h" id="x" gradientUnits="userSpaceOnUse" gradientTransform="matrix(.64848 .13188 -.18036 .88668 161.197 283.457)" x1="1715.07" x2="1873.59"/><linearGradient xlink:href="#i" id="y" gradientUnits="userSpaceOnUse" gradientTransform="matrix(.69864 .1199 -.16404 .91512 116.87 280.955)" x1="1700.23" x2="1839.02"/><linearGradient xlink:href="#j" id="z" gradientUnits="userSpaceOnUse" gradientTransform="matrix(.7488 .1079 -.1476 .94368 72.541 278.453)" x1="1683.99" x2="1805.57"/><linearGradient xlink:href="#k" id="A" gradientUnits="userSpaceOnUse" gradientTransform="matrix(.79884 .09592 -.13116 .97212 28.213 275.951)" x1="1666.95" x2="1773.36"/><linearGradient xlink:href="#g" id="B" gradientUnits="userSpaceOnUse" gradientTransform="matrix(.849 .08393 -.1148 1.00056 -16.115 273.45)" x1="1649.53" x2="1742.45"/><linearGradient xlink:href="#f" id="C" gradientUnits="userSpaceOnUse" gradientTransform="matrix(.89916 .07194 -.09839 1.02912 -60.443 270.947)" x1="1632.01" x2="1712.87"/><linearGradient xlink:href="#a" id="D" gradientUnits="userSpaceOnUse" gradientTransform="matrix(.94932 .05995 -.082 1.05756 -104.77 268.445)" x1="1614.62" x2="1684.61"/><linearGradient xlink:href="#b" id="E" gradientUnits="userSpaceOnUse" gradientTransform="matrix(.99948 .04795 -.0656 1.08612 -149.11 265.943)" x1="1597.49" x2="1657.61"/><linearGradient xlink:href="#e" id="F" gradientUnits="userSpaceOnUse" gradientTransform="matrix(1.04964 .03596 -.0492 1.11456 -193.439 263.441)" x1="1580.73" x2="1631.86"/><linearGradient xlink:href="#c" id="G" gradientUnits="userSpaceOnUse" gradientTransform="matrix(1.09968 .02398 -.0328 1.143 -237.764 260.94)" x1="1564.41" x2="1607.28"/><linearGradient xlink:href="#d" id="H" gradientUnits="userSpaceOnUse" gradientTransform="matrix(1.14984 .01199 -.0164 1.17156 -282.094 258.437)" x1="1548.56" x2="1583.83"/></defs><path d="M1373.377-1092.985c21.12 27.84 55.56 27.84 76.56 0 21.12-27.72 42-22.2 46.32 12.36 4.44 34.56 34.2 51.84 66.36 38.28 32.16-13.56 47.4 1.8 33.84 33.84-13.44 32.16 3.72 62.04 38.28 66.36s40.2 25.2 12.36 46.32c-27.84 21-27.84 55.56 0 76.56 27.72 21.12 22.2 41.88-12.36 46.32-34.56 4.32-51.84 34.2-38.28 66.36 13.56 32.16-1.68 47.4-33.84 33.84-32.16-13.44-61.92 3.72-66.36 38.28-4.32 34.68-25.2 40.08-46.32 12.48-21-27.84-55.56-27.84-76.56 0-21.12 27.72-41.88 22.2-46.32-12.48-4.32-34.56-34.2-51.84-66.36-38.28-32.16 13.56-47.4-1.68-33.84-33.84 13.56-32.16-3.72-61.92-38.28-66.36-34.56-4.44-40.2-25.2-12.36-46.32 27.84-21.12 27.84-55.56 0-76.56-27.72-21.12-22.2-41.88 12.36-46.32 34.56-4.32 51.84-34.2 38.28-66.36-13.44-32.16 1.8-47.4 33.84-33.84 32.16 13.56 62.04-3.72 66.36-38.28 4.44-34.44 25.2-40.08 46.32-12.36" fill="#9cb1bf"/><path d="M1358.617-1122.385c21.84 28.8 57.6 28.8 79.44 0 21.84-28.8 43.44-23.04 48 12.84 4.56 35.88 35.4 53.76 68.76 39.72 33.36-14.04 49.08 1.8 35.16 35.04-14.04 33.36 3.84 64.2 39.72 68.76 35.88 4.56 41.52 26.16 12.84 47.88-28.8 21.84-28.8 57.6 0 79.44 28.68 21.84 22.92 43.44-12.84 47.88-35.88 4.56-53.76 35.52-39.72 68.76 14.04 33.36-1.8 49.08-35.16 35.04-33.24-13.92-64.2 3.96-68.76 39.72-4.56 35.76-26.04 41.64-48 12.84-21.84-28.8-57.6-28.8-79.44 0-21.84 28.8-43.44 22.92-48-12.84-4.56-35.88-35.52-53.76-68.76-39.72s-49.08-1.8-35.04-35.04-3.84-64.2-39.72-68.76c-35.76-4.44-41.64-26.04-12.84-47.88 28.8-21.84 28.8-57.6 0-79.44-28.8-21.84-23.04-43.44 12.84-47.88 35.88-4.56 53.76-35.4 39.72-68.76-14.04-33.24 1.8-49.08 35.04-35.04 33.36 14.04 64.2-3.84 68.76-39.72 4.56-35.76 26.16-41.52 48-12.84" fill="url(#l)"/><path d="M1359.097-1119.505c21.6 28.44 56.88 28.44 78.48 0s42.96-22.68 47.4 12.72c4.44 35.4 35.04 53.04 67.92 39.24 33-13.8 48.6 1.8 34.68 34.68-13.8 32.88 3.84 63.48 39.24 67.92 35.4 4.44 41.04 25.8 12.72 47.4-28.44 21.6-28.44 56.88 0 78.48s22.68 42.96-12.72 47.4c-35.4 4.44-53.04 35.04-39.24 68.04 13.8 32.88-1.8 48.48-34.68 34.68-32.88-13.8-63.48 3.84-67.92 39.24-4.44 35.4-25.8 41.16-47.4 12.72-21.6-28.44-56.88-28.44-78.48 0s-42.96 22.68-47.4-12.72c-4.44-35.4-35.04-53.04-67.92-39.24-32.88 13.8-48.48-1.8-34.68-34.68 13.8-32.88-3.84-63.48-39.24-68.04-35.4-4.44-41.16-25.8-12.72-47.4 28.44-21.6 28.44-56.88 0-78.48s-22.68-42.84 12.72-47.4c35.4-4.44 53.04-35.04 39.24-67.92-13.8-32.88 1.8-48.48 34.68-34.68 32.88 13.8 63.48-3.84 67.92-39.24 4.44-35.4 25.8-41.16 47.4-12.72" fill="url(#m)"/><path d="M1359.457-1116.625c21.36 28.08 56.28 28.08 77.52 0 21.36-28.08 42.36-22.44 46.8 12.48 4.44 35.04 34.68 52.44 67.08 38.76 32.52-13.68 48 1.8 34.32 34.32s3.84 62.76 38.76 67.2c35.04 4.44 40.56 25.44 12.6 46.8-28.08 21.36-28.08 56.16 0 77.52s22.44 42.48-12.6 46.8c-35.04 4.44-52.44 34.68-38.76 67.2s-1.8 48-34.32 34.32-62.64 3.84-67.08 38.76c-4.44 34.92-25.44 40.56-46.8 12.6-21.36-28.08-56.16-28.08-77.52 0s-42.36 22.44-46.8-12.6c-4.44-35.04-34.68-52.44-67.2-38.76s-47.88-1.68-34.2-34.32c13.68-32.52-3.84-62.76-38.76-67.2-34.92-4.32-40.68-25.44-12.48-46.8 28.08-21.36 28.08-56.28 0-77.52-28.08-21.36-22.44-42.36 12.48-46.8 35.04-4.44 52.44-34.68 38.76-67.2s1.8-47.88 34.2-34.32c32.52 13.68 62.76-3.84 67.2-38.76 4.44-34.92 25.56-40.56 46.8-12.48" fill="url(#n)"/><path d="M1359.937-1113.745c21.12 27.72 55.56 27.72 76.56 0 21.12-27.72 41.88-22.2 46.32 12.36 4.32 34.56 34.2 51.84 66.36 38.28 32.16-13.56 47.4 1.8 33.84 33.84-13.56 32.16 3.72 62.04 38.28 66.36 34.56 4.44 40.08 25.2 12.48 46.2-27.84 21-27.84 55.56 0 76.56 27.72 21.12 22.2 41.88-12.48 46.2-34.56 4.32-51.84 34.32-38.28 66.36 13.56 32.16-1.68 47.4-33.84 33.84-32.04-13.44-61.92 3.72-66.36 38.28-4.32 34.56-25.2 40.08-46.32 12.36-21-27.72-55.56-27.72-76.56 0-21.12 27.72-41.88 22.2-46.2-12.36s-34.2-51.84-66.36-38.28c-32.04 13.56-47.4-1.68-33.84-33.84 13.44-32.16-3.72-62.04-38.4-66.36-34.56-4.32-40.08-25.08-12.36-46.2 27.72-21.12 27.72-55.56 0-76.56-27.72-21.12-22.2-41.88 12.36-46.2s51.84-34.2 38.4-66.36c-13.56-32.16 1.8-47.4 33.84-33.84 32.16 13.44 62.04-3.72 66.36-38.28s25.2-40.08 46.2-12.36" fill="url(#o)"/><path d="M1360.417-1110.865c20.76 27.48 54.84 27.48 75.72 0 20.88-27.36 41.4-21.84 45.72 12.24 4.32 34.2 33.84 51.24 65.52 37.8 31.8-13.32 46.8 1.68 33.48 33.48-13.32 31.8 3.72 61.2 37.8 65.52 34.2 4.32 39.6 24.84 12.24 45.72-27.48 20.76-27.48 54.84 0 75.72 27.36 20.88 21.96 41.4-12.24 45.72s-51.12 33.84-37.8 65.52c13.32 31.8-1.68 46.8-33.48 33.48-31.68-13.32-61.2 3.72-65.52 37.92-4.32 34.08-24.84 39.6-45.72 12.24-20.76-27.36-54.84-27.36-75.72 0-20.76 27.36-41.4 21.84-45.72-12.24-4.32-34.2-33.84-51.24-65.52-37.92-31.68 13.32-46.8-1.68-33.48-33.48 13.32-31.68-3.72-61.2-37.92-65.52-34.08-4.32-39.6-24.84-12.24-45.72 27.36-20.76 27.36-54.84 0-75.72-27.48-20.88-21.96-41.4 12.24-45.72s51.24-33.84 37.92-65.52c-13.32-31.68 1.68-46.8 33.48-33.48 31.68 13.32 61.2-3.72 65.52-37.8 4.32-34.2 24.96-39.72 45.72-12.24" fill="url(#p)"/><path d="M1360.897-1107.985c20.52 27.12 54.24 27.12 74.76 0 20.64-27.12 40.92-21.6 45.12 12.12 4.2 33.72 33.36 50.52 64.68 37.44 31.44-13.2 46.2 1.68 33.12 33-13.2 31.32 3.6 60.48 37.32 64.8s39.12 24.6 12.12 45.12c-27.12 20.52-27.12 54.12 0 74.76 27 20.64 21.6 40.92-12.12 45.12-33.72 4.32-50.52 33.48-37.32 64.8 13.2 31.32-1.68 46.2-33.12 33-31.32-13.2-60.48 3.6-64.68 37.44-4.32 33.72-24.6 39.12-45.12 12.12-20.52-27.12-54.24-27.12-74.76 0-20.52 27-40.92 21.6-45.12-12.12-4.2-33.72-33.36-50.52-64.8-37.44-31.32 13.2-46.2-1.68-33-33 13.2-31.32-3.6-60.48-37.44-64.8-33.72-4.2-39.12-24.48-12.12-45.12 27.12-20.52 27.12-54.24 0-74.76-27.12-20.52-21.6-40.92 12.12-45.12 33.72-4.2 50.52-33.36 37.44-64.8-13.2-31.32 1.68-46.2 33-33 31.32 13.2 60.48-3.6 64.8-37.44 4.2-33.84 24.6-39.24 45.12-12.12" fill="url(#q)"/><path d="M1361.377-1105.225c20.28 26.76 53.52 26.76 73.8 0 20.4-26.76 40.32-21.36 44.64 11.88 4.2 33.36 33 49.92 63.84 36.96 30.96-12.96 45.72 1.68 32.64 32.64-12.96 30.96 3.6 59.76 36.84 63.96 33.36 4.2 38.64 24.24 12 44.52-26.76 20.28-26.76 53.52 0 73.8 26.76 20.4 21.36 40.44-12 44.52-33.36 4.2-49.92 33-36.84 63.96 12.96 30.96-1.68 45.6-32.64 32.64s-59.64 3.6-63.84 36.96c-4.2 33.24-24.24 38.64-44.64 11.88-20.28-26.76-53.52-26.76-73.8 0-20.28 26.76-40.32 21.36-44.52-11.88-4.2-33.36-33-49.92-63.96-36.96s-45.6-1.68-32.64-32.64-3.6-59.76-36.96-63.96c-33.24-4.2-38.64-24.24-11.88-44.52 26.76-20.28 26.76-53.52 0-73.8-26.76-20.28-21.36-40.32 11.88-44.52 33.36-4.2 49.92-33 36.96-63.96s1.68-45.6 32.64-32.64 59.76-3.6 63.96-36.96c4.2-33.24 24.24-38.52 44.52-11.88" fill="url(#r)"/><path d="M1361.857-1102.345c20.04 26.4 52.92 26.4 72.84 0 20.16-26.4 39.84-21.12 44.04 11.76 4.2 32.88 32.52 49.32 63.12 36.48 30.6-12.84 45.12 1.68 32.28 32.28-12.84 30.6 3.6 59.04 36.48 63.12 32.88 4.2 38.16 24 11.88 44.04-26.4 20.04-26.4 52.8 0 72.84 26.4 20.16 21.12 39.96-11.88 44.04-32.88 4.2-49.32 32.64-36.48 63.12 12.84 30.6-1.68 45.12-32.28 32.28-30.6-12.84-58.92 3.6-63.12 36.48-4.2 32.88-23.88 38.16-44.04 11.76-20.04-26.4-52.8-26.4-72.84 0-20.04 26.4-39.84 21.12-44.04-11.76-4.2-32.88-32.52-49.32-63.12-36.48-30.6 12.84-45-1.68-32.16-32.28 12.84-30.48-3.6-59.04-36.48-63.12-32.88-4.08-38.16-23.88-11.76-44.04 26.4-20.04 26.4-52.8 0-72.84-26.4-20.04-21.12-39.84 11.76-44.04 32.88-4.08 49.32-32.52 36.48-63.12-12.84-30.6 1.68-45.12 32.16-32.28 30.6 12.84 59.04-3.6 63.12-36.48 4.2-32.76 24-38.16 44.04-11.76" fill="url(#s)"/><path d="M1362.337-1099.465c19.8 26.04 52.2 26.04 72 0 19.8-26.04 39.36-20.76 43.44 11.64 4.08 32.52 32.16 48.6 62.28 36 30.24-12.72 44.52 1.68 31.8 31.8-12.72 30.12 3.48 58.2 36 62.28 32.52 4.08 37.68 23.64 11.64 43.44-26.16 19.8-26.16 52.2 0 71.88 26.04 19.8 20.88 39.36-11.64 43.44-32.4 4.08-48.6 32.16-36 62.4 12.72 30.12-1.68 44.52-31.8 31.8-30.12-12.72-58.2 3.48-62.28 36-4.08 32.4-23.64 37.68-43.44 11.64-19.8-26.04-52.2-26.04-72 0-19.8 26.04-39.36 20.88-43.44-11.64-4.08-32.52-32.16-48.72-62.28-36-30.12 12.72-44.52-1.68-31.8-31.8 12.72-30.12-3.48-58.2-36-62.4-32.4-4.08-37.68-23.64-11.64-43.44 26.04-19.8 26.04-52.2 0-71.88-26.04-19.8-20.88-39.36 11.64-43.44 32.52-4.08 48.72-32.16 36-62.28-12.72-30.12 1.68-44.52 31.8-31.8 30.12 12.72 58.2-3.48 62.28-36 4.08-32.4 23.64-37.68 43.44-11.64" fill="url(#t)"/><path d="M1362.817-1096.585c19.56 25.68 51.48 25.68 71.04 0 19.56-25.8 38.88-20.52 42.96 11.52 4.08 32.04 31.68 48 61.44 35.52 29.76-12.48 43.92 1.68 31.44 31.44s3.48 57.48 35.52 61.56c32.16 4.08 37.2 23.4 11.52 42.84-25.8 19.56-25.8 51.48 0 71.04 25.68 19.56 20.64 38.88-11.52 42.84-32.04 4.08-48 31.8-35.52 61.56 12.48 29.76-1.68 43.92-31.44 31.44s-57.48 3.48-61.44 35.52c-4.08 32.04-23.28 37.2-42.96 11.52-19.44-25.68-51.48-25.68-71.04 0-19.56 25.68-38.88 20.52-42.84-11.52-4.08-32.04-31.8-48-61.56-35.52-29.76 12.48-43.92-1.56-31.44-31.44 12.48-29.76-3.48-57.48-35.52-61.56-32.04-3.96-37.2-23.28-11.52-42.84 25.68-19.56 25.68-51.48 0-71.04-25.8-19.56-20.52-38.88 11.52-42.84 32.04-4.08 48.12-31.68 35.52-61.56-12.48-29.76 1.68-43.92 31.44-31.44s57.48-3.48 61.56-35.52c3.96-32.04 23.28-37.32 42.84-11.52" fill="url(#u)"/><path d="M1363.177-1093.705c19.32 25.44 50.88 25.44 70.08 0 19.32-25.44 38.4-20.28 42.36 11.4 3.96 31.56 31.32 47.4 60.72 35.04s43.44 1.56 31.08 30.96c-12.36 29.4 3.36 56.76 35.04 60.72 31.68 3.96 36.72 23.04 11.4 42.36-25.44 19.2-25.44 50.76 0 70.08s20.28 38.4-11.4 42.36c-31.56 3.96-47.4 31.44-35.04 60.72 12.36 29.4-1.56 43.32-31.08 30.96-29.4-12.36-56.64 3.36-60.72 35.04-3.96 31.68-23.04 36.72-42.36 11.28-19.2-25.32-50.76-25.32-70.08 0s-38.28 20.28-42.36-11.28c-3.96-31.68-31.32-47.4-60.72-35.04s-43.32-1.56-30.96-30.96c12.36-29.4-3.48-56.76-35.04-60.72-31.56-3.96-36.72-22.92-11.28-42.36 25.44-19.2 25.44-50.76 0-70.08s-20.28-38.4 11.28-42.36c31.68-3.96 47.4-31.32 35.04-60.72s1.56-43.32 30.96-30.96c29.4 12.36 56.76-3.36 60.72-35.04 4.08-31.68 23.16-36.84 42.36-11.4" fill="url(#v)"/><path d="M1363.657-1090.825c19.08 25.08 50.16 25.08 69.12 0 19.08-25.08 37.8-20.04 41.76 11.16 3.96 31.2 30.84 46.8 59.88 34.56 29.04-12.12 42.84 1.56 30.6 30.6-12.12 29.04 3.36 55.92 34.56 59.88 31.32 3.96 36.24 22.68 11.28 41.76-25.08 18.96-25.08 50.16 0 69.12 25.08 19.08 20.04 37.92-11.28 41.76-31.2 3.96-46.68 30.96-34.56 59.88 12.24 29.04-1.56 42.72-30.6 30.6-29.04-12.24-55.92 3.36-59.88 34.56-3.96 31.2-22.68 36.24-41.76 11.16-18.96-25.08-50.16-25.08-69.12 0-18.96 25.08-37.8 20.04-41.76-11.16-3.96-31.2-30.96-46.8-59.88-34.56-29.04 12.12-42.72-1.56-30.6-30.6 12.24-28.92-3.36-55.92-34.56-59.88-31.2-3.84-36.24-22.68-11.16-41.76 25.08-18.96 25.08-50.16 0-69.12-25.08-19.08-20.04-37.8 11.16-41.76 31.2-3.96 46.8-30.96 34.56-59.88-12.12-29.04 1.56-42.84 30.6-30.6 29.04 12.24 55.92-3.36 59.88-34.56 3.96-31.2 22.8-36.24 41.76-11.16" fill="url(#w)"/><path d="M1599.337-443.665c-14.16 69.84-45.12 89.52-77.16 83.16-31.92-6.6-52.8-36.72-38.52-106.68 14.16-69.84 90-146.4 90-146.4s39.84 100.08 25.68 169.92" fill="#9cb1bf"/><path d="M1585.897-468.025c-14.16 69.84-45.12 89.64-77.16 83.16-31.92-6.48-52.68-36.72-38.52-106.56 14.16-69.84 90-146.4 90-146.4s39.96 99.84 25.68 169.8" id="ae" fill="#78b5db"/><path d="M1510.777-393.985c-34.56-6.96-45.72-38.4-34.08-95.76 9.48-46.8 52.44-102.24 80.76-133.68 13.8 39.96 31.56 107.76 22.08 154.68-11.64 57.24-34.2 81.84-68.76 74.76" id="af" fill="url(#x)"/><path d="M1512.097-404.425c-32.4-6.6-42.84-36-31.92-89.76 8.88-43.92 49.2-95.88 75.6-125.28 12.96 37.44 29.64 101.04 20.64 144.96-10.8 53.76-31.92 76.68-64.32 70.08" id="ag" fill="url(#y)"/><path d="M1513.417-414.865c-30.24-6.12-39.96-33.6-29.76-83.64 8.28-40.92 45.84-89.4 70.56-116.88 12 34.92 27.6 94.2 19.32 135.12-10.2 50.16-29.88 71.64-60.12 65.4" id="ah" fill="url(#z)"/><path d="M1514.737-425.185c-28.08-5.64-37.08-31.08-27.6-77.64 7.68-38.04 42.6-82.92 65.52-108.48 11.16 32.4 25.68 87.48 17.88 125.4-9.48 46.44-27.72 66.36-55.8 60.72" id="ai" fill="url(#A)"/><path d="M1516.057-435.625c-25.92-5.28-34.2-28.68-25.44-71.64 7.08-35.04 39.24-76.56 60.48-100.08 10.32 29.88 23.64 80.64 16.56 115.68-8.88 42.96-25.68 61.32-51.6 56.04" id="aj" fill="url(#B)"/><path d="M1517.377-446.065c-23.76-4.8-31.32-26.28-23.4-65.64 6.48-32.04 36-70.08 55.32-91.68 9.48 27.36 21.6 73.92 15.12 105.96-7.92 39.36-23.28 56.16-47.04 51.36" id="ak" fill="url(#C)"/><path d="M1518.697-456.505c-21.48-4.44-28.44-23.88-21.24-59.64 5.88-29.16 32.64-63.72 50.28-83.28 8.52 24.84 19.68 67.08 13.68 96.24-7.2 35.88-21.12 51.12-42.72 46.68" id="al" fill="url(#D)"/><path d="M1520.017-466.825c-19.32-3.96-25.56-21.48-19.08-53.52 5.28-26.16 29.28-57.24 45.24-74.88 7.68 22.32 17.64 60.36 12.36 86.52-6.6 32.04-19.2 45.72-38.52 41.88" id="am" fill="url(#E)"/><path d="M1521.337-477.265c-17.16-3.48-22.68-19.08-16.92-47.52 4.68-23.28 26.04-50.88 40.08-66.48 6.84 19.8 15.6 53.52 10.92 76.8-5.76 28.44-16.92 40.68-34.08 37.2" id="an" fill="url(#F)"/><path d="M1522.657-487.705c-15-3.12-19.8-16.68-14.76-41.52 4.2-20.28 22.68-44.4 35.04-58.08 5.88 17.28 13.68 46.8 9.6 67.08-5.04 24.96-14.88 35.64-29.88 32.52" id="ao" fill="url(#G)"/><path d="M1523.977-498.145c-12.84-2.64-17.04-14.28-12.6-35.52 3.6-17.4 19.44-37.92 30-49.56 5.04 14.76 11.64 39.96 8.16 57.36-4.32 21.24-12.72 30.36-25.56 27.72" id="ap" fill="url(#H)"/><path d="M1525.297-508.465c-10.68-2.16-14.16-11.88-10.44-29.52 3-14.4 16.08-31.56 24.96-41.16 4.2 12.36 9.72 33.24 6.72 47.64-3.6 17.64-10.56 25.2-21.24 23.04" id="aq" fill="#fff"/><path d="M1761.577-560.665c-11.64 57-36.96 73.08-63 67.8-26.04-5.28-43.08-30-31.44-87 11.52-57 73.44-119.52 73.44-119.52s32.52 81.6 21 138.72" fill="#9cb1bf"/><path d="M1750.657-580.705c-11.64 57.12-36.96 73.2-63 67.8-26.04-5.28-43.08-30-31.44-87 11.52-57 73.44-119.4 73.44-119.4s32.52 81.6 21 138.6" fill="#78b5db"/><path d="M1689.217-520.225c-28.2-5.76-37.32-31.32-27.84-78.12 7.8-38.28 42.84-83.52 65.88-109.2 11.28 32.64 25.8 88.08 18 126.24-9.36 46.92-27.84 66.84-56.04 61.08" fill="url(#I)"/><path d="M1690.297-528.745c-26.52-5.4-34.92-29.4-26.04-73.2 7.32-35.88 40.08-78.24 61.68-102.24 10.56 30.6 24.24 82.44 16.92 118.32-8.88 43.8-26.04 62.52-52.56 57.12" fill="url(#J)"/><path d="M1691.377-537.265c-24.72-5.04-32.64-27.36-24.36-68.28 6.84-33.48 37.44-72.96 57.6-95.4 9.84 28.56 22.56 76.92 15.72 110.4-8.16 40.92-24.24 58.32-48.96 53.28" fill="url(#K)"/><path d="M1692.457-545.665c-22.92-4.68-30.24-25.44-22.56-63.36 6.36-30.96 34.68-67.68 53.4-88.56 9.12 26.52 21 71.4 14.64 102.36-7.56 37.92-22.56 54.12-45.48 49.56" fill="url(#L)"/><path d="M1693.537-554.185c-21.12-4.32-27.96-23.4-20.88-58.44 5.76-28.56 32.04-62.52 49.32-81.72 8.4 24.36 19.32 65.88 13.44 94.44-6.96 35.04-20.76 50.04-41.88 45.72" fill="url(#M)"/><path d="M1694.617-562.705c-19.32-3.96-25.56-21.48-19.08-53.52 5.28-26.16 29.4-57.24 45.12-74.76 7.68 22.32 17.64 60.36 12.36 86.52-6.36 32.04-19.08 45.72-38.4 41.76" fill="url(#N)"/><path d="M1695.697-571.225c-17.64-3.6-23.28-19.44-17.28-48.6 4.8-23.76 26.64-51.96 41.04-67.92 6.96 20.28 16.08 54.84 11.28 78.6-6 29.04-17.4 41.52-35.04 37.92" fill="url(#O)"/><path d="M1696.777-579.745c-15.84-3.24-20.88-17.52-15.6-43.68 4.32-21.36 24-46.68 36.84-61.08 6.24 18.24 14.4 49.2 10.08 70.68-5.16 26.16-15.48 37.32-31.32 34.08" fill="url(#P)"/><path d="M1697.857-588.145c-14.04-2.88-18.6-15.6-13.8-38.76 3.84-18.96 21.24-41.4 32.76-54.24 5.52 16.2 12.84 43.68 9 62.64-4.8 23.28-13.92 33.12-27.96 30.36" fill="url(#Q)"/><path d="M1698.937-596.665c-12.24-2.52-16.2-13.56-12.12-33.84 3.36-16.56 18.6-36.24 28.56-47.4 4.92 14.16 11.16 38.16 7.8 54.72-3.96 20.28-12 29.04-24.24 26.52" fill="url(#R)"/><path d="M1700.017-605.185c-10.56-2.16-13.92-11.64-10.32-28.92 2.88-14.16 15.84-30.96 24.48-40.44 4.2 12.12 9.6 32.64 6.72 46.8-3.6 17.28-10.44 24.72-20.88 22.56" fill="url(#S)"/><path d="M1701.097-613.705c-8.76-1.8-11.52-9.6-8.64-24 2.4-11.76 13.2-25.68 20.28-33.6 3.48 9.96 7.92 27.12 5.52 38.88-2.76 14.4-8.4 20.52-17.16 18.72" fill="#fff"/><path d="M1442.137-505.465c-9.48 46.56-30.12 59.64-51.48 55.32-21.24-4.32-35.16-24.48-25.68-71.04 9.48-46.56 60-97.56 60-97.56s26.64 66.72 17.16 113.28" fill="#9cb1bf"/><path d="M1433.257-521.785c-9.48 46.56-30.12 59.76-51.48 55.32-21.24-4.32-35.16-24.48-25.68-71.04 9.48-46.56 60-97.56 60-97.56s26.64 66.72 17.16 113.28" fill="#78b5db"/><path d="M1383.097-472.345c-23.04-4.68-30.48-25.56-22.68-63.84 6.36-31.2 34.92-68.16 53.76-89.16 9.24 26.64 21.12 71.88 14.76 103.08-7.8 38.28-22.8 54.48-45.84 49.92" fill="url(#T)"/><path d="M1384.057-479.305c-21.6-4.44-28.56-24-21.24-59.76 6-29.28 32.76-63.84 50.4-83.52 8.64 24.96 19.68 67.32 13.8 96.6-7.32 35.76-21.36 51-42.96 46.68" fill="url(#U)"/><path d="M1384.897-486.265c-20.16-4.08-26.64-22.32-19.8-55.8 5.52-27.24 30.6-59.52 47.04-77.88 8.04 23.28 18.36 62.76 12.84 90.12-6.84 33.36-19.92 47.64-40.08 43.56" fill="url(#V)"/><path d="M1385.737-493.225c-18.72-3.84-24.72-20.76-18.48-51.72 5.16-25.32 28.32-55.32 43.68-72.24 7.44 21.6 17.04 58.32 11.88 83.64-6.12 30.96-18.36 44.16-37.08 40.32" fill="url(#W)"/><path d="M1386.697-500.185c-17.28-3.48-22.8-19.2-17.04-47.76 4.8-23.4 26.16-51 40.2-66.72 6.84 19.92 15.72 53.76 11.04 77.16-5.76 28.68-17.04 40.8-34.2 37.32" fill="url(#X)"/><path d="M1387.537-507.145c-15.84-3.24-20.88-17.52-15.6-43.68 4.32-21.36 24-46.68 36.84-61.08 6.24 18.24 14.4 49.2 10.08 70.68-5.28 26.16-15.48 37.32-31.32 34.08" fill="url(#Y)"/><path d="M1388.377-513.985c-14.4-2.88-18.96-15.96-14.16-39.72 3.96-19.44 21.72-42.48 33.48-55.44 5.76 16.56 13.08 44.76 9.12 64.08-4.68 23.76-14.04 33.96-28.44 31.08" fill="url(#Z)"/><path d="M1389.337-520.945c-12.96-2.64-17.04-14.28-12.72-35.64 3.48-17.52 19.56-38.16 30.12-49.92 5.16 14.88 11.76 40.2 8.28 57.6-4.44 21.48-12.84 30.6-25.68 27.96" fill="url(#aa)"/><path d="M1390.177-527.905c-11.52-2.28-15.12-12.72-11.28-31.68 3.12-15.48 17.4-33.84 26.76-44.28 4.56 13.2 10.44 35.64 7.32 51.12-3.84 19.08-11.28 27.12-22.8 24.84" fill="url(#ab)"/><path d="M1391.137-534.865c-10.08-2.04-13.32-11.04-9.84-27.6 2.76-13.56 15.12-29.52 23.28-38.64 3.96 11.52 9.12 31.2 6.36 44.64-3.36 16.56-9.84 23.64-19.8 21.6" fill="url(#ac)"/><path d="M1391.977-541.825c-8.52-1.68-11.28-9.48-8.4-23.64 2.4-11.52 12.96-25.32 19.92-33 3.36 9.84 7.8 26.64 5.52 38.16-3 14.28-8.52 20.28-17.04 18.48" fill="url(#ad)"/><path d="M1392.817-548.785c-7.08-1.44-9.48-7.92-6.96-19.56 1.92-9.6 10.8-21 16.56-27.48 2.76 8.16 6.48 22.08 4.56 31.68-2.4 11.88-7.08 16.92-14.16 15.36" fill="#fff"/><use xlink:href="#ae" width="100%" height="100%"/><use xlink:href="#af" width="100%" height="100%"/><use xlink:href="#ag" width="100%" height="100%"/><use xlink:href="#ah" width="100%" height="100%"/><use xlink:href="#ai" width="100%" height="100%"/><use xlink:href="#aj" width="100%" height="100%"/><use xlink:href="#ak" width="100%" height="100%"/><use xlink:href="#al" width="100%" height="100%"/><use xlink:href="#am" width="100%" height="100%"/><use xlink:href="#an" width="100%" height="100%"/><use xlink:href="#ao" width="100%" height="100%"/><use xlink:href="#ap" width="100%" height="100%"/><use xlink:href="#aq" width="100%" height="100%"/><path d="M1840.897-802.705c-3.84 0-7.56.48-11.16 1.2-2.16-23.88-21.96-42.72-46.44-42.72-5.28 0-10.32 1.08-15 2.64-9.96-44.4-49.32-77.52-96.72-77.52-39.48 0-73.44 23.28-89.4 56.88-9-7.92-20.64-12.84-33.6-12.84-27.48 0-49.68 21.72-50.88 48.84-10.68-6-22.8-9.72-35.88-9.72-40.68 0-73.68 33-73.68 73.68 0 40.68 33 73.68 73.68 73.68h378.96c31.56 0 57-25.56 57-57 .12-31.56-25.44-57.12-56.88-57.12" fill="#9cb1bf"/><path d="M1831.777-818.425c-3.84 0-7.44.36-11.16 1.2-2.16-24-21.96-42.72-46.44-42.72-5.4 0-10.32 1.08-15 2.64-9.96-44.4-49.32-77.52-96.72-77.52-39.48 0-73.44 23.4-89.28 56.88-9-7.92-20.64-12.96-33.6-12.96-27.48 0-49.68 21.72-50.88 48.96-10.68-6-22.8-9.72-35.88-9.72-40.68 0-73.68 33-73.68 73.68 0 40.68 33 73.56 73.68 73.56h378.96c31.44 0 57.12-25.56 57.12-57-.12-31.44-25.68-57-57.12-57" fill="url(#ar)"/><path d="M1539.817-889.705c12.84 0 24.12 5.04 32.76 12.6 1.92-3.96 5.28-6.84 7.68-10.44 2.52-3.72 5.88-8.64 8.88-11.88 17.28-20.28 42.6-33.24 70.92-33.96 8.16-.24 16.08.6 23.76 2.28 36.12 8.04 64.8 36.24 73.56 72.48 4.44-.96 9-1.32 13.92-.84 2.52 0 5.28 1.56 7.68 1.92 2.28.36 5.88.6 8.04 1.44 2.64.6 5.04 1.56 7.44 2.64 11.04 5.16 19.56 15 23.04 27 .72 2.28 1.44 5.88 1.68 8.28.12.84.6 1.56.6 2.28 1.56-.36 4.08-.72 5.76-.96 2.04-.24 3.96-.36 6.12-.36 16.8 0 31.68 8.04 40.92 20.04 9.12 12 12.6 27 9.84 40.92 0 27.96-29.04 50.64-57 50.64h-363.6c-36.12 0-73.68-29.28-73.68-65.4-3.72-18.12.48-37.56 12.36-53.28 11.88-15.72 31.32-26.16 53.16-26.16 9.96 0 19.44 2.16 28.2 6.12 2.4 1.08 5.76 2.76 8.04 4.08.12-1.92.96-3.48 1.32-5.4.84-4.8 2.52-11.28 4.68-15.48 7.2-16.8 24.12-28.56 43.92-28.56" fill="url(#as)"/><path d="M1539.937-888.505c12.72 0 23.76 5.16 31.92 12.36 1.68-3.48 5.88-4.8 8.04-7.92 2.16-3.24 5.88-9.12 8.52-12 16.56-20.76 41.28-34.32 69.12-35.76 7.92-.36 15.84.12 23.4 1.68 36 6.96 65.04 34.56 74.28 70.2 4.08-.24 8.28 0 12.72 1.08 2.16 0 4.92 2.76 7.08 3.12 2.04.36 6.48 0 8.4.72 2.76.36 5.4 1.08 7.92 2.04 11.88 4.56 21.24 14.88 24.48 27.72.6 1.92 1.32 6.6 1.68 8.64.12.72.84 1.2.96 1.92 1.44-.24 4.68-.84 6.12-1.08 2.16-.24 4.2-.48 6.36-.48 17.76 0 33.48 9.6 41.52 23.28 8.04 13.68 8.52 29.4 2.88 41.64 0 24.48-32.52 44.28-57 44.28h-348.36c-31.68 0-73.56-25.56-73.56-57.24-7.56-15.84-7.32-36.36 3.12-54.48 10.32-18.12 30.84-30.72 54.24-30.72 9.96 0 19.56 2.28 28.44 6.36 2.16.84 6.12 3 8.16 4.2.12-1.68 1.56-2.64 1.92-4.32.72-4.2 2.28-12.12 4.2-15.72 6.6-17.16 23.64-29.52 43.44-29.52" fill="url(#at)"/><path d="M1540.177-887.305c12.6 0 23.28 5.16 31.08 12 1.44-3 6.6-2.76 8.4-5.52 1.8-2.76 5.88-9.6 8.16-12.12 15.84-21.24 39.96-35.28 67.32-37.44 7.8-.6 15.6-.24 23.16 1.08 35.88 6 65.28 32.76 75.12 68.04 3.72.48 7.56 1.32 11.52 3 1.92 0 4.56 4.08 6.36 4.44 1.8.36 7.2-.48 8.76 0 3 .12 5.76.6 8.4 1.44 12.84 3.84 23.04 14.76 26.04 28.44.6 1.68 1.32 7.32 1.56 9.12.12.6 1.2.96 1.2 1.56 1.2-.24 5.16-.96 6.36-1.08 2.16-.36 4.44-.48 6.72-.48 18.84 0 35.16 11.16 42 26.64 6.84 15.36 4.32 31.8-3.96 42.24 0 21-36 37.92-57 37.92h-333c-27.12 0-73.56-21.96-73.56-49.08-11.28-13.56-15-35.28-6.12-55.68 8.88-20.4 30.36-35.4 55.32-35.4 10.08 0 19.68 2.4 28.56 6.6 1.8.72 6.6 3.36 8.28 4.32.12-1.44 2.28-1.8 2.52-3.24.6-3.6 2.04-12.84 3.72-15.96 6-17.76 23.04-30.84 43.08-30.84" fill="url(#au)"/><path d="M1540.417-886.105c12.6 0 22.92 5.28 30.24 11.76 1.2-2.52 7.2-.72 8.76-3 1.56-2.28 5.88-10.2 7.8-12.24 15.12-21.84 38.64-36.36 65.52-39.24 7.68-.84 15.36-.72 22.92.36 35.76 5.04 65.52 31.08 75.96 65.88 3.48 1.08 6.84 2.64 10.32 4.8 1.56 0 4.32 5.4 5.76 5.64 1.44.24 7.8-1.08 9.12-.6 3.12-.12 6 .12 8.88.84 13.68 3.24 24.72 14.64 27.48 29.28.48 1.44 1.2 8.16 1.44 9.6.12.48 1.44.72 1.56 1.2.96-.24 5.76-1.08 6.72-1.2 2.28-.36 4.68-.6 7.08-.6 19.92 0 36.84 12.84 42.6 29.88 5.76 17.04.24 34.2-10.92 42.96 0 17.52-39.48 31.68-56.88 31.68h-317.64c-22.56 0-73.56-18.24-73.56-40.92-15.12-11.28-22.8-34.08-15.36-56.88 7.44-22.8 29.88-39.96 56.28-39.96 10.08 0 19.8 2.4 28.8 6.96 1.56.6 6.96 3.6 8.4 4.44 0-1.2 2.88-.96 3.12-2.04.48-3 1.8-13.68 3.24-16.2 5.04-18.72 22.2-32.4 42.36-32.4" fill="url(#av)"/><path d="M1540.657-884.905c12.48 0 22.44 5.28 29.4 11.4.96-2.04 7.92 1.32 9.12-.6 1.2-1.8 6-10.68 7.44-12.36 14.28-22.32 37.2-37.44 63.72-40.92 7.56-.96 15.12-1.08 22.68-.24 35.64 3.96 65.76 29.28 76.68 63.72 3.12 1.8 6.12 3.96 9.12 6.72 1.2 0 3.96 6.6 5.16 6.84 1.2.24 8.4-1.68 9.6-1.32 3.36-.36 6.36-.24 9.36.24 14.64 2.64 26.4 14.52 29.04 30 .36 1.08 1.2 8.88 1.32 10.08 0 .36 1.8.48 1.8.84.84-.12 6.24-1.2 7.08-1.32 2.4-.36 4.92-.6 7.44-.6 20.88 0 38.52 14.4 43.2 33.12 4.56 18.72-3.84 36.6-17.76 43.56 0 13.92-42.96 25.32-56.88 25.32h-302.28c-18.12 0-73.44-14.64-73.44-32.76-18.84-9-30.6-32.88-24.72-58.08 5.88-25.2 29.52-44.52 57.36-44.52 10.08 0 19.92 2.52 29.04 7.2 1.2.48 7.32 3.96 8.52 4.56 0-.96 3.48 0 3.72-.96.36-2.4 1.56-14.4 2.64-16.56 4.2-18.96 21.24-33.36 41.64-33.36" fill="url(#aw)"/><path d="M1540.897-883.705c12.36 0 21.96 5.4 28.56 11.16.72-1.44 8.52 3.24 9.48 1.92.96-1.32 6-11.28 7.08-12.48 13.56-22.8 35.88-38.4 61.8-42.72 7.44-1.2 14.88-1.56 22.44-.84 35.52 3 66 27.6 77.52 61.56 2.76 2.52 5.4 5.28 7.92 8.64.96 0 3.6 7.92 4.56 8.04.84.12 9.12-2.28 9.96-1.92 3.48-.6 6.72-.72 9.84-.36 15.6 2.04 28.2 14.4 30.6 30.72.24.84 1.2 9.6 1.32 10.56 0 .24 2.16.12 2.16.48.6-.12 6.84-1.32 7.44-1.44 2.52-.36 5.16-.72 7.8-.72 21.96 0 40.32 15.96 43.68 36.48 3.48 20.4-8.04 39-24.72 44.28 0 10.44-46.32 18.96-56.88 18.96h-287.04c-13.56 0-73.44-10.92-73.44-24.48-22.68-6.84-38.4-31.68-33.96-59.28 4.44-27.6 29.04-49.08 58.44-49.08 10.08 0 20.04 2.64 29.28 7.56.96.36 7.8 4.2 8.64 4.68 0-.72 4.2.84 4.32.12.36-1.8 1.32-15.24 2.16-16.8 3.36-20.04 20.52-35.04 41.04-35.04" fill="url(#ax)"/><path d="M1541.137-882.505c12.24 0 21.6 5.4 27.72 10.8.48-.96 9.12 5.28 9.84 4.44.6-.96 6-11.76 6.72-12.6 12.84-23.28 34.56-39.48 60-44.52 7.2-1.44 14.64-1.92 22.2-1.56 35.4 2.04 66.24 25.92 78.36 59.28 2.52 3.24 4.68 6.6 6.72 10.44.6 0 3.24 9.12 3.84 9.24.6.12 9.72-2.76 10.32-2.64 3.72-.84 7.08-1.2 10.32-.96 16.56 1.32 29.88 14.28 32.04 31.44.24.6 1.08 10.44 1.2 11.04 0 .24 2.4-.12 2.52.12.36-.12 7.32-1.44 7.68-1.56 2.64-.48 5.4-.72 8.16-.72 22.92 0 42 17.64 44.28 39.72 2.28 22.08-12.12 41.4-31.56 44.88 0 6.96-49.8 12.6-56.88 12.6h-271.68c-9 0-73.44-7.32-73.44-16.32-26.4-4.56-46.08-30.6-43.2-60.48 3-29.88 28.56-53.76 59.52-53.76 10.2 0 20.04 2.64 29.52 7.8.6.24 8.16 4.56 8.76 4.8 0-.48 4.8 1.68 4.92 1.2.24-1.2 1.2-15.96 1.68-17.04 2.52-20.04 19.68-35.64 40.44-35.64" fill="url(#ay)"/><path d="M1541.377-881.305c12.12 0 21.12 5.52 26.88 10.56.24-.48 9.84 7.32 10.08 6.84.36-.48 6-12.36 6.36-12.72 12.12-23.88 33.24-40.56 58.2-46.2 7.08-1.56 14.4-2.4 21.96-2.16 35.28.96 66.6 24.12 79.08 57.12 2.16 3.84 4.08 8.04 5.52 12.36.36 0 3 10.44 3.24 10.56.24 0 10.44-3.36 10.68-3.24 3.84-1.08 7.44-1.68 10.8-1.44 17.4.72 31.68 14.28 33.6 32.16.12.24 1.08 11.16 1.08 11.4 0 .12 2.76-.36 2.76-.24.24 0 7.8-1.56 8.04-1.56 2.76-.48 5.52-.84 8.52-.84 24 0 43.68 19.2 44.88 42.96 1.2 23.76-16.2 43.8-38.52 45.6 0 3.48-53.28 6.36-56.76 6.36h-256.32c-4.56 0-73.44-3.6-73.44-8.16-30.24-2.28-53.88-29.4-52.44-61.68 1.44-32.28 28.08-58.32 60.6-58.32 10.2 0 20.16 2.76 29.76 8.04.36.12 8.52 4.8 8.88 5.04 0-.24 5.4 2.64 5.52 2.4.12-.6.96-16.8 1.2-17.28 1.68-21.24 18.96-37.56 39.84-37.56" fill="url(#az)"/><path d="M1827.937-715.105h-371.16c-33.96 0-61.68-28.2-61.68-62.88 0-34.68 27.72-62.88 61.68-62.88 10.2 0 20.28 2.88 29.88 8.4l15 8.64.72-17.64c.84-21.6 18.12-38.64 39.24-38.64 12 0 20.76 5.52 26.04 10.32l10.44 9.36 6-12.84c14.52-31.32 44.4-50.76 78-50.76 40.08 0 75.6 29.16 84.36 69.24l2.64 11.76 11.04-3.96c4.08-1.32 7.68-2.04 11.28-2.04 18.36 0 33.36 14.16 35.16 32.88l.96 11.88 11.52-2.28c2.88-.48 5.76-.96 8.88-.96 25.08 0 45.36 20.76 45.36 46.32 0 25.32-20.4 46.08-45.36 46.08" fill="url(#aA)"/></svg>