<svg xmlns="http://www.w3.org/2000/svg" xmlns:xlink="http://www.w3.org/1999/xlink" viewBox="2239.7 -1171 841.9 841.90004" width="841.9" height="841.9"><defs><linearGradient id="i" gradientUnits="userSpaceOnUse" y1="-808.21" x2="0" y2="-965.38"><stop stop-color="#a5c1d3"/><stop offset="1" stop-color="#e7f4fc"/></linearGradient><linearGradient id="j" gradientUnits="userSpaceOnUse" y1="-809.2" x2="0" y2="-964.81"><stop stop-color="#a7c2d4"/><stop offset="1" stop-color="#eaf7ff"/></linearGradient><linearGradient id="G" gradientUnits="userSpaceOnUse" y1="-754.72" x2="0" y2="-1135.63" gradientTransform="matrix(1.1 0 0 1.1 -298.186 116.278)"><stop stop-color="#e69e00"/><stop offset="1" stop-color="#fff200"/></linearGradient><linearGradient id="aL" gradientUnits="userSpaceOnUse" y1="-622.07" x2="0" y2="-857.15" xlink:href="#a" gradientTransform="matrix(1.1 0 0 1.1 -298.186 116.278)"/><linearGradient id="aN" gradientUnits="userSpaceOnUse" y1="-624.81" x2="0" y2="-854.51" xlink:href="#b" gradientTransform="matrix(1.1 0 0 1.1 -298.186 116.278)"/><linearGradient id="aO" gradientUnits="userSpaceOnUse" y1="-626.18" x2="0" y2="-853.29" xlink:href="#c" gradientTransform="matrix(1.1 0 0 1.1 -298.186 116.278)"/><linearGradient id="aM" gradientUnits="userSpaceOnUse" y1="-623.44" x2="0" y2="-855.79" xlink:href="#d" gradientTransform="matrix(1.1 0 0 1.1 -298.186 116.278)"/><linearGradient id="h" gradientUnits="userSpaceOnUse" y1="-807.22" x2="0" y2="-966"><stop stop-color="#a3c0d2"/><stop offset="1" stop-color="#e4f1fa"/></linearGradient><linearGradient id="a" gradientUnits="userSpaceOnUse" y1="-800.26" x2="0" y2="-971.85"><stop stop-color="#95b9cc"/><stop offset="1" stop-color="#cddee8"/></linearGradient><linearGradient id="d" gradientUnits="userSpaceOnUse" y1="-801.26" x2="0" y2="-970.86"><stop stop-color="#97bacd"/><stop offset="1" stop-color="#d0e1eb"/></linearGradient><linearGradient id="g" gradientUnits="userSpaceOnUse" y1="-806.22" x2="0" y2="-966.67"><stop stop-color="#a1bfd1"/><stop offset="1" stop-color="#e0eff7"/></linearGradient><linearGradient id="b" gradientUnits="userSpaceOnUse" y1="-802.25" x2="0" y2="-969.92"><stop stop-color="#99bbce"/><stop offset="1" stop-color="#d3e4ed"/></linearGradient><linearGradient id="e" gradientUnits="userSpaceOnUse" y1="-804.24" x2="0" y2="-968.19"><stop stop-color="#9dbdd0"/><stop offset="1" stop-color="#dae9f2"/></linearGradient><linearGradient id="f" gradientUnits="userSpaceOnUse" y1="-805.23" x2="0" y2="-967.4"><stop stop-color="#9fbed0"/><stop offset="1" stop-color="#ddecf5"/></linearGradient><linearGradient id="c" gradientUnits="userSpaceOnUse" y1="-803.24" x2="0" y2="-969.03"><stop stop-color="#9bbccf"/><stop offset="1" stop-color="#d7e6f0"/></linearGradient><linearGradient id="aP" gradientUnits="userSpaceOnUse" y1="-627.55" x2="0" y2="-852.14" xlink:href="#e" gradientTransform="matrix(1.1 0 0 1.1 -298.186 116.278)"/><linearGradient id="A" gradientUnits="userSpaceOnUse" y1="-739.34" x2="0" y2="-1151" gradientTransform="matrix(1.1 0 0 1.1 -298.186 116.278)"><stop stop-color="#e29200"/><stop offset="1" stop-color="#ffcf11"/></linearGradient><linearGradient id="B" gradientUnits="userSpaceOnUse" y1="-741.9" x2="0" y2="-1148.44" gradientTransform="matrix(1.1 0 0 1.1 -298.186 116.278)"><stop stop-color="#e39400"/><stop offset="1" stop-color="#ffd40e"/></linearGradient><linearGradient id="aQ" gradientUnits="userSpaceOnUse" y1="-628.92" x2="0" y2="-851.06" xlink:href="#f" gradientTransform="matrix(1.1 0 0 1.1 -298.186 116.278)"/><linearGradient id="C" gradientUnits="userSpaceOnUse" y1="-744.46" x2="0" y2="-1145.88" gradientTransform="matrix(1.1 0 0 1.1 -298.186 116.278)"><stop stop-color="#e39600"/><stop offset="1" stop-color="#ffda0b"/></linearGradient><linearGradient id="E" gradientUnits="userSpaceOnUse" y1="-749.59" x2="0" y2="-1140.75" gradientTransform="matrix(1.1 0 0 1.1 -298.186 116.278)"><stop stop-color="#e59a00"/><stop offset="1" stop-color="#ffe606"/></linearGradient><linearGradient id="F" gradientUnits="userSpaceOnUse" y1="-752.15" x2="0" y2="-1138.19" gradientTransform="matrix(1.1 0 0 1.1 -298.186 116.278)"><stop stop-color="#e59c00"/><stop offset="1" stop-color="#ffec03"/></linearGradient><linearGradient id="D" gradientUnits="userSpaceOnUse" y1="-747.03" x2="0" y2="-1143.31" gradientTransform="matrix(1.1 0 0 1.1 -298.186 116.278)"><stop stop-color="#e49800"/><stop offset="1" stop-color="#ffe008"/></linearGradient><linearGradient id="z" gradientUnits="userSpaceOnUse" y1="-736.78" x2="0" y2="-1153.56" gradientTransform="matrix(1.1 0 0 1.1 -298.186 116.278)"><stop stop-color="#e29000"/><stop offset="1" stop-color="#ffc914"/></linearGradient><linearGradient id="aR" gradientUnits="userSpaceOnUse" y1="-630.29" x2="0" y2="-850.06" xlink:href="#g" gradientTransform="matrix(1.1 0 0 1.1 -298.186 116.278)"/><linearGradient id="aS" gradientUnits="userSpaceOnUse" y1="-631.66" x2="0" y2="-849.14" xlink:href="#h" gradientTransform="matrix(1.1 0 0 1.1 -298.186 116.278)"/><linearGradient id="y" gradientUnits="userSpaceOnUse" y1="-734.21" x2="0" y2="-1156.12" gradientTransform="matrix(1.1 0 0 1.1 -298.186 116.278)"><stop stop-color="#e18e00"/><stop offset="1" stop-color="#ffc317"/></linearGradient><linearGradient id="aT" gradientUnits="userSpaceOnUse" y1="-633.03" x2="0" y2="-848.28" xlink:href="#i" gradientTransform="matrix(1.1 0 0 1.1 -298.186 116.278)"/><linearGradient id="aU" gradientUnits="userSpaceOnUse" y1="-634.4" x2="0" y2="-847.5" xlink:href="#j" gradientTransform="matrix(1.1 0 0 1.1 -298.186 116.278)"/><linearGradient id="x" gradientUnits="userSpaceOnUse" y1="-731.65" x2="0" y2="-1158.68" gradientTransform="matrix(1.1 0 0 1.1 -298.186 116.278)"><stop stop-color="#e08c00"/><stop offset="1" stop-color="#ffbd19"/></linearGradient><linearGradient id="v" gradientUnits="userSpaceOnUse" y1="-726.53" x2="0" y2="-1163.81" gradientTransform="matrix(1.1 0 0 1.1 -298.186 116.278)"><stop stop-color="#df8800"/><stop offset="1" stop-color="#ffb11f"/></linearGradient><linearGradient id="w" gradientUnits="userSpaceOnUse" y1="-729.09" x2="0" y2="-1161.24" gradientTransform="matrix(1.1 0 0 1.1 -298.186 116.278)"><stop stop-color="#e08a00"/><stop offset="1" stop-color="#ffb71c"/></linearGradient><linearGradient id="an" gradientUnits="userSpaceOnUse" x1="2608.59" x2="2632.09" gradientTransform="matrix(1.05402 .01099 -.01504 1.07393 -257.55 118.572)" xlink:href="#k"/><linearGradient id="t" gradientUnits="userSpaceOnUse" x1="2865.5" x2="2916.62" gradientTransform="matrix(.8747 .02997 -.041 .9288 110.82 6.255)"><stop stop-color="#e0f2ff"/><stop offset="1" stop-color="#d1edff"/></linearGradient><linearGradient id="l" gradientUnits="userSpaceOnUse" x1="2789.98" x2="2832.85" gradientTransform="matrix(.9164 .01998 -.02733 .9525 73.882 4.17)"><stop stop-color="#ebf6ff"/><stop offset="1" stop-color="#e0f3ff"/></linearGradient><linearGradient id="am" gradientUnits="userSpaceOnUse" x1="2674.44" x2="2703.02" gradientTransform="matrix(1.00804 .02198 -.03006 1.04775 -216.916 120.865)" xlink:href="#l"/><linearGradient id="k" gradientUnits="userSpaceOnUse" x1="2719.69" x2="2754.96" gradientTransform="matrix(.9582 .00999 -.01367 .9763 36.941 2.085)"><stop stop-color="#f5fbff"/><stop offset="1" stop-color="#f0f9ff"/></linearGradient><linearGradient id="T" gradientUnits="userSpaceOnUse" x1="3827.35" x2="3940.64" gradientTransform="matrix(.64042 .1099 -.15037 .83886 108.165 139.213)" xlink:href="#m"/><linearGradient id="U" gradientUnits="userSpaceOnUse" x1="3683.58" x2="3782.82" gradientTransform="matrix(.6864 .09891 -.1353 .86504 67.531 136.92)" xlink:href="#n"/><linearGradient id="S" gradientUnits="userSpaceOnUse" x1="3984.45" x2="4113.85" gradientTransform="matrix(.59444 .12089 -.16533 .81279 148.8 141.507)" xlink:href="#o"/><linearGradient id="s" gradientUnits="userSpaceOnUse" x1="2946.82" x2="3006.94" gradientTransform="matrix(.8329 .03996 -.05466 .9051 147.76 8.34)"><stop stop-color="#d6eeff"/><stop offset="1" stop-color="#c2e7ff"/></linearGradient><linearGradient id="o" gradientUnits="userSpaceOnUse" x1="3743.62" x2="3902.14" gradientTransform="matrix(.5404 .1099 -.1503 .7389 406.35 22.935)"><stop stop-color="#8fd0ff"/><stop offset="1" stop-color="#57bdff"/></linearGradient><linearGradient id="m" gradientUnits="userSpaceOnUse" x1="3598.5" x2="3737.29" gradientTransform="matrix(.5822 .09991 -.1367 .7626 369.41 20.85)"><stop stop-color="#99d4ff"/><stop offset="1" stop-color="#66c3ff"/></linearGradient><linearGradient id="u" gradientUnits="userSpaceOnUse" x1="3034.57" x2="3104.56" gradientTransform="matrix(.7911 .04996 -.06833 .8813 184.71 10.425)"><stop stop-color="#cceaff"/><stop offset="1" stop-color="#b3e1ff"/></linearGradient><linearGradient id="n" gradientUnits="userSpaceOnUse" x1="3465.76" x2="3587.33" gradientTransform="matrix(.624 .08992 -.123 .7864 332.47 18.765)"><stop stop-color="#a3d9ff"/><stop offset="1" stop-color="#76c9ff"/></linearGradient><linearGradient id="q" gradientUnits="userSpaceOnUse" x1="3232.34" x2="3325.27" gradientTransform="matrix(.7075 .06994 -.09566 .8338 258.59 14.595)"><stop stop-color="#b8e1ff"/><stop offset="1" stop-color="#94d5ff"/></linearGradient><linearGradient id="r" gradientUnits="userSpaceOnUse" x1="3129.48" x2="3210.34" gradientTransform="matrix(.7493 .05995 -.08199 .8576 221.65 12.51)"><stop stop-color="#c2e5ff"/><stop offset="1" stop-color="#a3dbff"/></linearGradient><linearGradient id="p" gradientUnits="userSpaceOnUse" x1="3344.09" x2="3450.49" gradientTransform="matrix(.6657 .07993 -.1093 .8101 295.53 16.68)"><stop stop-color="#aeddff"/><stop offset="1" stop-color="#85cfff"/></linearGradient><linearGradient id="V" gradientUnits="userSpaceOnUse" x1="3551.74" x2="3638.6" gradientTransform="matrix(.73227 .08792 -.12023 .89111 26.897 134.626)" xlink:href="#p"/><linearGradient id="ag" gradientUnits="userSpaceOnUse" x1="3189.81" x2="3260.71" gradientTransform="matrix(.73227 .08792 -.12023 .89111 26.897 134.626)" xlink:href="#p"/><linearGradient id="ah" gradientUnits="userSpaceOnUse" x1="3086.41" x2="3148.33" gradientTransform="matrix(.77825 .07693 -.10523 .91718 -13.737 132.333)" xlink:href="#q"/><linearGradient id="W" gradientUnits="userSpaceOnUse" x1="3430.59" x2="3506.45" gradientTransform="matrix(.77825 .07693 -.10523 .91718 -13.737 132.333)" xlink:href="#q"/><linearGradient id="ai" gradientUnits="userSpaceOnUse" x1="2991" x2="3044.88" gradientTransform="matrix(.82423 .06595 -.09019 .94336 -54.37 130.04)" xlink:href="#r"/><linearGradient id="ak" gradientUnits="userSpaceOnUse" x1="2821.01" x2="2861.08" gradientTransform="matrix(.91619 .04396 -.06013 .99561 -135.65 125.452)" xlink:href="#s"/><linearGradient id="al" gradientUnits="userSpaceOnUse" x1="2745.09" x2="2779.16" gradientTransform="matrix(.96217 .03297 -.0451 1.02168 -176.284 123.159)" xlink:href="#t"/><linearGradient id="aj" gradientUnits="userSpaceOnUse" x1="2902.77" x2="2949.41" gradientTransform="matrix(.87021 .05496 -.07516 .96943 -95.005 127.746)" xlink:href="#u"/><linearGradient id="af" gradientUnits="userSpaceOnUse" x1="3302.1" x2="3383.1" gradientTransform="matrix(.6864 .09891 -.1353 .86504 67.531 136.92)" xlink:href="#n"/><linearGradient id="X" gradientUnits="userSpaceOnUse" x1="3319.01" x2="3385.02" gradientTransform="matrix(.82423 .06595 -.09019 .94336 -54.37 130.04)" xlink:href="#r"/><linearGradient id="Y" gradientUnits="userSpaceOnUse" x1="3216.01" x2="3273.14" gradientTransform="matrix(.87021 .05496 -.07516 .96943 -95.005 127.746)" xlink:href="#u"/><linearGradient id="ae" gradientUnits="userSpaceOnUse" x1="3424.28" x2="3516.75" gradientTransform="matrix(.64042 .1099 -.15037 .83886 108.165 139.213)" xlink:href="#m"/><linearGradient id="Z" gradientUnits="userSpaceOnUse" x1="3120.71" x2="3169.79" gradientTransform="matrix(.91619 .04396 -.06013 .99561 -135.65 125.452)" xlink:href="#s"/><linearGradient id="aa" gradientUnits="userSpaceOnUse" x1="3032.35" x2="3074.09" gradientTransform="matrix(.96217 .03297 -.0451 1.02168 -176.284 123.159)" xlink:href="#t"/><linearGradient id="ad" gradientUnits="userSpaceOnUse" x1="3557.46" x2="3663.08" gradientTransform="matrix(.59444 .12089 -.16533 .81279 148.8 141.507)" xlink:href="#o"/><linearGradient id="ab" gradientUnits="userSpaceOnUse" x1="2950.25" x2="2985.25" gradientTransform="matrix(1.00804 .02198 -.03006 1.04775 -216.916 120.865)" xlink:href="#l"/><linearGradient id="ac" gradientUnits="userSpaceOnUse" x1="2873.8" x2="2902.6" gradientTransform="matrix(1.05402 .01099 -.01504 1.07393 -257.55 118.572)" xlink:href="#k"/><linearGradient xlink:href="#a" id="aB" gradientUnits="userSpaceOnUse" y1="-800.26" x2="0" y2="-971.85" gradientTransform="matrix(1.1 0 0 1.1 -298.186 116.278)"/><linearGradient xlink:href="#d" id="aC" gradientUnits="userSpaceOnUse" y1="-801.26" x2="0" y2="-970.86" gradientTransform="matrix(1.1 0 0 1.1 -298.186 116.278)"/><linearGradient xlink:href="#b" id="aD" gradientUnits="userSpaceOnUse" y1="-802.25" x2="0" y2="-969.92" gradientTransform="matrix(1.1 0 0 1.1 -298.186 116.278)"/><linearGradient xlink:href="#c" id="aE" gradientUnits="userSpaceOnUse" y1="-803.24" x2="0" y2="-969.03" gradientTransform="matrix(1.1 0 0 1.1 -298.186 116.278)"/><linearGradient xlink:href="#e" id="aF" gradientUnits="userSpaceOnUse" y1="-804.24" x2="0" y2="-968.19" gradientTransform="matrix(1.1 0 0 1.1 -298.186 116.278)"/><linearGradient xlink:href="#f" id="aG" gradientUnits="userSpaceOnUse" y1="-805.23" x2="0" y2="-967.4" gradientTransform="matrix(1.1 0 0 1.1 -298.186 116.278)"/><linearGradient xlink:href="#g" id="aH" gradientUnits="userSpaceOnUse" y1="-806.22" x2="0" y2="-966.67" gradientTransform="matrix(1.1 0 0 1.1 -298.186 116.278)"/><linearGradient xlink:href="#h" id="aI" gradientUnits="userSpaceOnUse" y1="-807.22" x2="0" y2="-966" gradientTransform="matrix(1.1 0 0 1.1 -298.186 116.278)"/><linearGradient xlink:href="#i" id="aJ" gradientUnits="userSpaceOnUse" y1="-808.21" x2="0" y2="-965.38" gradientTransform="matrix(1.1 0 0 1.1 -298.186 116.278)"/><linearGradient xlink:href="#j" id="aK" gradientUnits="userSpaceOnUse" y1="-809.2" x2="0" y2="-964.81" gradientTransform="matrix(1.1 0 0 1.1 -298.186 116.278)"/><linearGradient xlink:href="#k" id="R" gradientUnits="userSpaceOnUse" gradientTransform="matrix(1.05402 .01099 -.01504 1.07393 -257.55 118.572)" x1="2719.69" x2="2754.96"/><linearGradient xlink:href="#l" id="Q" gradientUnits="userSpaceOnUse" gradientTransform="matrix(1.00804 .02198 -.03006 1.04775 -216.916 120.865)" x1="2789.98" x2="2832.85"/><linearGradient xlink:href="#t" id="P" gradientUnits="userSpaceOnUse" gradientTransform="matrix(.96217 .03297 -.0451 1.02168 -176.284 123.159)" x1="2865.5" x2="2916.62"/><linearGradient xlink:href="#s" id="O" gradientUnits="userSpaceOnUse" gradientTransform="matrix(.91619 .04396 -.06013 .99561 -135.65 125.452)" x1="2946.82" x2="3006.94"/><linearGradient xlink:href="#u" id="N" gradientUnits="userSpaceOnUse" gradientTransform="matrix(.87021 .05496 -.07516 .96943 -95.005 127.746)" x1="3034.57" x2="3104.56"/><linearGradient xlink:href="#r" id="M" gradientUnits="userSpaceOnUse" gradientTransform="matrix(.82423 .06595 -.09019 .94336 -54.37 130.04)" x1="3129.48" x2="3210.34"/><linearGradient xlink:href="#q" id="L" gradientUnits="userSpaceOnUse" gradientTransform="matrix(.77825 .07693 -.10523 .91718 -13.737 132.333)" x1="3232.34" x2="3325.27"/><linearGradient xlink:href="#p" id="K" gradientUnits="userSpaceOnUse" gradientTransform="matrix(.73227 .08792 -.12023 .89111 26.897 134.626)" x1="3344.09" x2="3450.49"/><linearGradient xlink:href="#n" id="J" gradientUnits="userSpaceOnUse" gradientTransform="matrix(.6864 .09891 -.1353 .86504 67.531 136.92)" x1="3465.76" x2="3587.33"/><linearGradient xlink:href="#m" id="I" gradientUnits="userSpaceOnUse" gradientTransform="matrix(.64042 .1099 -.15037 .83886 108.165 139.213)" x1="3598.5" x2="3737.29"/><linearGradient xlink:href="#o" id="H" gradientUnits="userSpaceOnUse" gradientTransform="matrix(.59444 .12089 -.16533 .81279 148.8 141.507)" x1="3743.62" x2="3902.14"/></defs><path d="M2571.274-1120.232c19.36 25.52 50.93 25.52 70.18 0 19.36-25.41 38.5-20.35 42.46 11.33 4.07 31.68 31.35 47.52 60.83 35.09 29.48-12.43 43.45 1.65 31.02 31.02-12.32 29.48 3.41 56.87 35.09 60.83 31.68 3.96 36.85 23.1 11.33 42.46-25.52 19.25-25.52 50.93 0 70.18 25.41 19.36 20.35 38.39-11.33 42.46-31.68 3.96-47.52 31.35-35.09 60.83 12.43 29.48-1.54 43.45-31.02 31.02-29.48-12.32-56.76 3.41-60.83 35.09-3.96 31.79-23.1 36.74-42.46 11.44-19.25-25.52-50.93-25.52-70.18 0-19.36 25.41-38.39 20.35-42.46-11.44-3.96-31.68-31.35-47.52-60.83-35.09-29.48 12.43-43.45-1.54-31.02-31.02 12.43-29.48-3.41-56.76-35.09-60.83-31.68-4.07-36.85-23.1-11.33-42.46 25.52-19.36 25.52-50.93 0-70.18-25.41-19.36-20.35-38.39 11.33-42.46 31.68-3.96 47.52-31.35 35.09-60.83-12.32-29.48 1.65-43.45 31.02-31.02 29.48 12.43 56.87-3.41 60.83-35.09 4.07-31.57 23.21-36.74 42.46-11.33" fill="#9cb1bf"/><path d="M2557.744-1147.182c20.02 26.4 52.8 26.4 72.82 0 20.02-26.4 39.82-21.12 44 11.77s32.45 49.28 63.03 36.41c30.58-12.87 44.99 1.65 32.23 32.12-12.87 30.58 3.52 58.85 36.41 63.03 32.89 4.18 38.06 23.98 11.77 43.89-26.4 20.02-26.4 52.8 0 72.82 26.29 20.02 21.01 39.82-11.77 43.89-32.89 4.18-49.28 32.56-36.41 63.03 12.87 30.58-1.65 44.99-32.23 32.12-30.47-12.76-58.85 3.63-63.03 36.41-4.18 32.78-23.87 38.17-44 11.77-20.02-26.4-52.8-26.4-72.82 0-20.02 26.4-39.82 21.01-44-11.77-4.18-32.89-32.56-49.28-63.03-36.41-30.47 12.87-44.99-1.65-32.12-32.12 12.87-30.47-3.52-58.85-36.41-63.03-32.78-4.07-38.17-23.87-11.77-43.89 26.4-20.02 26.4-52.8 0-72.82-26.4-20.02-21.12-39.82 11.77-43.89 32.89-4.18 49.28-32.45 36.41-63.03-12.87-30.47 1.65-44.99 32.12-32.12 30.58 12.87 58.85-3.52 63.03-36.41 4.29-32.78 23.98-38.06 44-11.77" fill="url(#v)"/><path d="M2558.184-1144.542c19.8 26.07 52.14 26.07 71.94 0 19.8-26.07 39.38-20.79 43.45 11.66s32.12 48.62 62.26 35.97c30.25-12.65 44.55 1.65 31.79 31.79-12.65 30.14 3.52 58.19 35.97 62.26 32.45 4.07 37.62 23.65 11.66 43.45-26.07 19.8-26.07 52.14 0 71.94 25.96 19.8 20.79 39.38-11.66 43.45s-48.62 32.12-35.97 62.37c12.65 30.14-1.65 44.44-31.79 31.79-30.14-12.65-58.19 3.52-62.26 35.97-4.07 32.45-23.65 37.73-43.45 11.66-19.8-26.07-52.14-26.07-71.94 0-19.8 26.07-39.38 20.79-43.45-11.66s-32.12-48.62-62.26-35.97c-30.14 12.65-44.44-1.65-31.79-31.79 12.65-30.14-3.52-58.19-35.97-62.37-32.45-4.07-37.73-23.65-11.66-43.45 26.07-19.8 26.07-52.14 0-71.94-26.07-19.8-20.79-39.27 11.66-43.45 32.45-4.07 48.62-32.12 35.97-62.26-12.65-30.14 1.65-44.44 31.79-31.79 30.14 12.65 58.19-3.52 62.26-35.97 4.18-32.45 23.65-37.73 43.45-11.66" fill="url(#w)"/><path d="M2558.624-1141.902c19.58 25.74 51.59 25.74 71.06 0 19.58-25.74 38.83-20.57 42.9 11.44 4.07 32.12 31.79 48.07 61.49 35.53 29.81-12.54 44 1.65 31.46 31.46-12.54 29.81 3.52 57.53 35.53 61.6 32.12 4.07 37.18 23.32 11.55 42.9-25.74 19.58-25.74 51.48 0 71.06 25.74 19.58 20.57 38.94-11.55 42.9-32.12 4.07-48.07 31.79-35.53 61.6 12.54 29.81-1.65 44-31.46 31.46-29.81-12.54-57.42 3.52-61.49 35.53s-23.32 37.18-42.9 11.55c-19.58-25.74-51.48-25.74-71.06 0-19.58 25.74-38.83 20.57-42.9-11.55-4.07-32.12-31.79-48.07-61.6-35.53-29.81 12.54-43.89-1.54-31.35-31.46 12.54-29.81-3.52-57.53-35.53-61.6-32.01-3.96-37.29-23.32-11.44-42.9 25.74-19.58 25.74-51.59 0-71.06-25.74-19.58-20.57-38.83 11.44-42.9 32.12-4.07 48.07-31.79 35.53-61.6-12.54-29.81 1.65-43.89 31.35-31.46 29.81 12.54 57.53-3.52 61.6-35.53s23.32-37.18 42.9-11.44" fill="url(#x)"/><path d="M2559.064-1139.262c19.36 25.41 50.93 25.41 70.18 0 19.36-25.41 38.39-20.35 42.46 11.33 3.96 31.68 31.35 47.52 60.83 35.09 29.48-12.43 43.45 1.65 31.02 31.02-12.43 29.48 3.41 56.87 35.09 60.83 31.68 4.07 36.74 23.1 11.44 42.35-25.52 19.25-25.52 50.93 0 70.18 25.41 19.36 20.35 38.39-11.44 42.35-31.68 3.96-47.52 31.46-35.09 60.83 12.43 29.48-1.54 43.45-31.02 31.02-29.37-12.32-56.76 3.41-60.83 35.09-3.96 31.68-23.1 36.74-42.46 11.33-19.25-25.41-50.93-25.41-70.18 0-19.36 25.41-38.39 20.35-42.35-11.33-3.96-31.68-31.35-47.52-60.83-35.09-29.37 12.43-43.45-1.54-31.02-31.02 12.32-29.48-3.41-56.87-35.2-60.83-31.68-3.96-36.74-22.99-11.33-42.35 25.41-19.36 25.41-50.93 0-70.18-25.41-19.36-20.35-38.39 11.33-42.35 31.68-3.96 47.52-31.35 35.2-60.83-12.43-29.48 1.65-43.45 31.02-31.02 29.48 12.32 56.87-3.41 60.83-35.09 3.96-31.68 22.99-36.74 42.35-11.33" fill="url(#y)"/><path d="M2559.504-1136.622c19.03 25.19 50.27 25.19 69.41 0 19.14-25.08 37.95-20.02 41.91 11.22 3.96 31.35 31.02 46.97 60.06 34.65 29.15-12.21 42.9 1.54 30.69 30.69-12.21 29.15 3.41 56.1 34.65 60.06 31.35 3.96 36.3 22.77 11.22 41.91-25.19 19.03-25.19 50.27 0 69.41 25.08 19.14 20.13 37.95-11.22 41.91-31.35 3.96-46.86 31.02-34.65 60.06 12.21 29.15-1.54 42.9-30.69 30.69-29.04-12.21-56.1 3.41-60.06 34.76-3.96 31.24-22.77 36.3-41.91 11.22-19.03-25.08-50.27-25.08-69.41 0-19.03 25.08-37.95 20.02-41.91-11.22-3.96-31.35-31.02-46.97-60.06-34.76-29.04 12.21-42.9-1.54-30.69-30.69 12.21-29.04-3.41-56.1-34.76-60.06-31.24-3.96-36.3-22.77-11.22-41.91 25.08-19.03 25.08-50.27 0-69.41-25.19-19.14-20.13-37.95 11.22-41.91 31.35-3.96 46.97-31.02 34.76-60.06-12.21-29.04 1.54-42.9 30.69-30.69 29.04 12.21 56.1-3.41 60.06-34.65 3.96-31.35 22.77-36.41 41.91-11.22" fill="url(#z)"/><path d="M2559.944-1133.982c18.81 24.86 49.72 24.86 68.53 0 18.92-24.86 37.51-19.8 41.36 11.11 3.85 30.91 30.58 46.31 59.29 34.32 28.82-12.1 42.35 1.54 30.36 30.25-12.1 28.71 3.3 55.44 34.21 59.4 30.91 3.96 35.86 22.55 11.11 41.36-24.86 18.81-24.86 49.61 0 68.53 24.75 18.92 19.8 37.51-11.11 41.36-30.91 3.96-46.31 30.69-34.21 59.4 12.1 28.71-1.54 42.35-30.36 30.25-28.71-12.1-55.44 3.3-59.29 34.32-3.96 30.91-22.55 35.86-41.36 11.11-18.81-24.86-49.72-24.86-68.53 0-18.81 24.75-37.51 19.8-41.36-11.11-3.85-30.91-30.58-46.31-59.4-34.32-28.71 12.1-42.35-1.54-30.25-30.25 12.1-28.71-3.3-55.44-34.32-59.4-30.91-3.85-35.86-22.44-11.11-41.36 24.86-18.81 24.86-49.72 0-68.53-24.86-18.81-19.8-37.51 11.11-41.36 30.91-3.85 46.31-30.58 34.32-59.4-12.1-28.71 1.54-42.35 30.25-30.25 28.71 12.1 55.44-3.3 59.4-34.32 3.85-31.02 22.44-35.97 41.36-11.11" fill="url(#A)"/><path d="M2560.384-1131.452c18.59 24.53 49.06 24.53 67.65 0 18.7-24.53 36.96-19.58 40.92 10.89 3.85 30.58 30.25 45.76 58.52 33.88 28.38-11.88 41.91 1.54 29.92 29.92-11.88 28.38 3.3 54.78 33.77 58.63 30.58 3.85 35.42 22.22 11 40.81-24.53 18.59-24.53 49.06 0 67.65 24.53 18.7 19.58 37.07-11 40.81-30.58 3.85-45.76 30.25-33.77 58.63 11.88 28.38-1.54 41.8-29.92 29.92-28.38-11.88-54.67 3.3-58.52 33.88-3.85 30.47-22.22 35.42-40.92 10.89-18.59-24.53-49.06-24.53-67.65 0-18.59 24.53-36.96 19.58-40.81-10.89-3.85-30.58-30.25-45.76-58.63-33.88-28.38 11.88-41.8-1.54-29.92-29.92 11.88-28.38-3.3-54.78-33.88-58.63-30.47-3.85-35.42-22.22-10.89-40.81 24.53-18.59 24.53-49.06 0-67.65-24.53-18.59-19.58-36.96 10.89-40.81 30.58-3.85 45.76-30.25 33.88-58.63-11.88-28.38 1.54-41.8 29.92-29.92 28.38 11.88 54.78-3.3 58.63-33.88 3.74-30.47 22.11-35.31 40.81-10.89" fill="url(#B)"/><path d="M2560.714-1128.812c18.37 24.2 48.51 24.2 66.77 0 18.48-24.2 36.52-19.36 40.37 10.78 3.85 30.14 29.81 45.21 57.86 33.44 28.05-11.77 41.36 1.54 29.59 29.59s3.3 54.12 33.44 57.86c30.14 3.85 34.98 22 10.89 40.37-24.2 18.37-24.2 48.4 0 66.77 24.2 18.48 19.36 36.63-10.89 40.37-30.14 3.85-45.21 29.92-33.44 57.86 11.77 28.05-1.54 41.36-29.59 29.59s-54.01 3.3-57.86 33.44c-3.85 30.14-21.89 34.98-40.37 10.78-18.37-24.2-48.4-24.2-66.77 0-18.37 24.2-36.52 19.36-40.37-10.78-3.85-30.14-29.81-45.21-57.86-33.44-28.05 11.77-41.25-1.54-29.48-29.59 11.77-27.94-3.3-54.12-33.44-57.86-30.14-3.74-34.98-21.89-10.78-40.37 24.2-18.37 24.2-48.4 0-66.77-24.2-18.37-19.36-36.52 10.78-40.37 30.14-3.74 45.21-29.81 33.44-57.86-11.77-28.05 1.54-41.36 29.48-29.59 28.05 11.77 54.12-3.3 57.86-33.44 3.85-30.03 22-34.98 40.37-10.78" fill="url(#C)"/><path d="M2561.154-1126.172c18.15 23.87 47.85 23.87 66 0s36.08-19.03 39.82 10.67c3.74 29.81 29.48 44.55 57.09 33 27.72-11.66 40.81 1.54 29.15 29.15-11.66 27.61 3.19 53.35 33 57.09 29.81 3.74 34.54 21.67 10.67 39.82-23.98 18.15-23.98 47.85 0 65.89 23.87 18.15 19.14 36.08-10.67 39.82-29.7 3.74-44.55 29.48-33 57.2 11.66 27.61-1.54 40.81-29.15 29.15-27.61-11.66-53.35 3.19-57.09 33-3.74 29.7-21.67 34.54-39.82 10.67-18.15-23.87-47.85-23.87-66 0s-36.08 19.14-39.82-10.67c-3.74-29.81-29.48-44.66-57.09-33-27.61 11.66-40.81-1.54-29.15-29.15 11.66-27.61-3.19-53.35-33-57.2-29.7-3.74-34.54-21.67-10.67-39.82 23.87-18.15 23.87-47.85 0-65.89-23.87-18.15-19.14-36.08 10.67-39.82 29.81-3.74 44.66-29.48 33-57.09-11.66-27.61 1.54-40.81 29.15-29.15 27.61 11.66 53.35-3.19 57.09-33 3.85-29.7 21.67-34.54 39.82-10.67" fill="url(#D)"/><path d="M2561.594-1123.532c17.93 23.54 47.19 23.54 65.12 0 17.93-23.65 35.64-18.81 39.38 10.56 3.74 29.37 29.04 44 56.32 32.56 27.28-11.44 40.26 1.54 28.82 28.82-11.44 27.28 3.19 52.69 32.56 56.43 29.48 3.74 34.1 21.45 10.56 39.27-23.65 17.93-23.65 47.19 0 65.12 23.54 17.93 18.92 35.64-10.56 39.27-29.37 3.74-44 29.15-32.56 56.43 11.44 27.28-1.54 40.26-28.82 28.82-27.28-11.44-52.69 3.19-56.32 32.56-3.74 29.37-21.34 34.1-39.38 10.56-17.82-23.54-47.19-23.54-65.12 0-17.93 23.54-35.64 18.81-39.27-10.56-3.74-29.37-29.15-44-56.43-32.56-27.28 11.44-40.26-1.43-28.82-28.82 11.44-27.28-3.19-52.69-32.56-56.43-29.37-3.63-34.1-21.34-10.56-39.27 23.54-17.93 23.54-47.19 0-65.12-23.65-17.93-18.81-35.64 10.56-39.27 29.37-3.74 44.11-29.04 32.56-56.43-11.44-27.28 1.54-40.26 28.82-28.82 27.28 11.44 52.69-3.19 56.43-32.56 3.74-29.37 21.34-34.21 39.27-10.56" fill="url(#E)"/><path d="M2562.034-1120.892c17.71 23.32 46.64 23.32 64.24 0 17.71-23.32 35.2-18.59 38.83 10.45 3.63 28.93 28.71 43.45 55.66 32.12 26.95-11.33 39.82 1.43 28.49 28.38-11.33 26.95 3.08 52.03 32.12 55.66 29.04 3.63 33.66 21.12 10.45 38.83-23.32 17.6-23.32 46.53 0 64.24 23.32 17.71 18.59 35.2-10.45 38.83-28.93 3.63-43.45 28.82-32.12 55.66 11.33 26.95-1.43 39.71-28.49 28.38-26.95-11.33-51.92 3.08-55.66 32.12-3.63 29.04-21.12 33.66-38.83 10.34-17.6-23.21-46.53-23.21-64.24 0-17.71 23.21-35.09 18.59-38.83-10.34-3.63-29.04-28.71-43.45-55.66-32.12-26.95 11.33-39.71-1.43-28.38-28.38 11.33-26.95-3.19-52.03-32.12-55.66-28.93-3.63-33.66-21.01-10.34-38.83 23.32-17.6 23.32-46.53 0-64.24-23.32-17.71-18.59-35.2 10.34-38.83 29.04-3.63 43.45-28.71 32.12-55.66-11.33-26.95 1.43-39.71 28.38-28.38 26.95 11.33 52.03-3.08 55.66-32.12 3.74-29.04 21.23-33.77 38.83-10.45" fill="url(#F)"/><path d="M2562.474-1118.252c17.49 22.99 45.98 22.99 63.36 0 17.49-22.99 34.65-18.37 38.28 10.23 3.63 28.6 28.27 42.9 54.89 31.68 26.62-11.11 39.27 1.43 28.05 28.05-11.11 26.62 3.08 51.26 31.68 54.89 28.71 3.63 33.22 20.79 10.34 38.28-22.99 17.38-22.99 45.98 0 63.36 22.99 17.49 18.37 34.76-10.34 38.28-28.6 3.63-42.79 28.38-31.68 54.89 11.22 26.62-1.43 39.16-28.05 28.05-26.62-11.22-51.26 3.08-54.89 31.68-3.63 28.6-20.79 33.22-38.28 10.23-17.38-22.99-45.98-22.99-63.36 0-17.38 22.99-34.65 18.37-38.28-10.23-3.63-28.6-28.38-42.9-54.89-31.68-26.62 11.11-39.16-1.43-28.05-28.05 11.22-26.51-3.08-51.26-31.68-54.89-28.6-3.52-33.22-20.79-10.23-38.28 22.99-17.38 22.99-45.98 0-63.36-22.99-17.49-18.37-34.65 10.23-38.28 28.6-3.63 42.9-28.38 31.68-54.89-11.11-26.62 1.43-39.27 28.05-28.05 26.62 11.22 51.26-3.08 54.89-31.68 3.63-28.6 20.9-33.22 38.28-10.23" fill="url(#G)"/><path d="M2700.084-413.372c-12.98 64.02-41.36 82.06-70.73 76.23-29.26-6.05-48.4-33.66-35.31-97.79 12.98-64.02 82.5-134.2 82.5-134.2s36.63 91.74 23.54 155.76" fill="#9cb1bf"/><path d="M2687.874-435.812c-12.98 64.02-41.36 82.17-70.73 76.23-29.26-5.94-48.29-33.66-35.31-97.68 12.98-64.02 82.5-134.2 82.5-134.2s36.52 91.63 23.54 155.65" id="ao" fill="#78b5db"/><path d="M2618.904-367.942c-31.68-6.38-41.91-35.2-31.24-87.78 8.69-42.9 48.07-93.72 74.03-122.54 12.65 36.63 28.93 98.78 20.24 141.79-10.67 52.58-31.24 75.02-63.03 68.53" id="ap" fill="url(#H)"/><path d="M2620.114-377.402c-29.7-6.05-39.27-33-29.26-82.28 8.14-40.26 45.1-87.89 69.3-114.84 11.88 34.32 27.17 92.62 18.92 132.88-9.9 49.17-29.15 70.29-58.96 64.24" id="aq" fill="url(#I)"/><path d="M2621.324-386.972c-27.72-5.61-36.63-30.8-27.28-76.67 7.59-37.51 42.02-81.95 64.68-107.14 11 32.01 25.3 86.35 17.71 123.86-9.35 45.87-27.28 65.56-55.11 59.95" id="ar" fill="url(#J)"/><path d="M2622.534-396.542c-25.74-5.17-33.99-28.49-25.3-71.17 7.04-34.87 39.05-76.01 60.06-99.44 10.23 29.7 23.54 80.19 16.39 114.95-8.58 42.68-25.41 60.94-51.15 55.66" id="as" fill="url(#K)"/><path d="M2623.744-406.112c-23.76-4.84-31.35-26.29-23.32-65.67 6.49-32.12 35.97-70.18 55.44-91.74 9.46 27.39 21.67 73.92 15.18 106.04-8.03 39.38-23.54 56.21-47.3 51.37" id="at" fill="url(#L)"/><path d="M2624.954-415.572c-21.78-4.4-28.71-24.09-21.45-60.17 5.94-29.37 33-64.24 50.71-84.04 8.69 25.08 19.8 67.76 13.86 97.13-7.15 36.08-21.34 51.48-43.12 47.08" id="au" fill="url(#M)"/><path d="M2626.164-425.142c-19.69-4.07-26.07-21.89-19.47-54.67 5.39-26.73 29.92-58.41 46.09-76.34 7.81 22.77 18.04 61.49 12.54 88.22-6.49 32.78-19.36 46.75-39.16 42.79" id="av" fill="url(#N)"/><path d="M2627.374-434.712c-17.71-3.63-23.43-19.69-17.49-49.06 4.84-23.98 26.84-52.47 41.47-68.64 7.04 20.46 16.17 55.33 11.33 79.31-5.94 29.37-17.49 42.02-35.31 38.39" id="aw" fill="url(#O)"/><path d="M2628.584-444.282c-15.73-3.19-20.79-17.49-15.51-43.56 4.29-21.34 23.87-46.64 36.74-60.94 6.27 18.15 14.3 49.06 10.01 70.4-5.17 26.18-15.4 37.29-31.24 34.1" id="ax" fill="url(#P)"/><path d="M2629.794-453.742c-13.75-2.86-18.15-15.29-13.53-38.06 3.85-18.59 20.79-40.7 32.12-53.24 5.39 15.84 12.54 42.9 8.8 61.49-4.62 22.77-13.53 32.56-27.39 29.81" id="ay" fill="url(#Q)"/><path d="M2631.114-463.312c-11.77-2.42-15.62-13.09-11.55-32.56 3.3-15.95 17.82-34.76 27.5-45.43 4.62 13.53 10.67 36.63 7.48 52.58-4.07 19.47-11.66 27.72-23.43 25.41" id="az" fill="url(#R)"/><path d="M2632.324-472.882c-9.79-1.98-12.98-10.89-9.57-27.06 2.75-13.2 14.74-28.93 22.88-37.73 3.85 11.33 8.91 30.47 6.16 43.67-3.41 16.17-9.79 23.1-19.47 21.12" id="aA" fill="#fff"/><path d="M2848.804-520.732c-10.67 52.25-33.88 66.99-57.75 62.15-23.87-4.84-39.49-27.5-28.82-79.75 10.56-52.25 67.32-109.56 67.32-109.56s29.92 74.91 19.25 127.16" fill="#9cb1bf"/><path d="M2838.794-538.992c-10.67 52.36-33.88 67.1-57.75 62.15-23.87-4.84-39.49-27.5-28.82-79.75 10.56-52.25 67.32-109.45 67.32-109.45s29.92 74.69 19.25 127.05" fill="#78b5db"/><path d="M2782.584-483.552c-25.85-5.28-34.21-28.71-25.52-71.61 7.15-35.09 39.27-76.56 60.39-100.1 10.34 29.92 23.65 80.74 16.5 115.72-8.69 42.9-25.52 61.16-51.37 55.99" fill="url(#S)"/><path d="M2783.574-491.362c-24.31-4.95-32.01-26.95-23.87-67.1 6.71-32.89 36.74-71.72 56.54-93.72 9.68 28.05 22.22 75.57 15.51 108.46-8.14 40.15-23.98 57.31-48.18 52.36" fill="url(#T)"/><path d="M2784.564-499.172c-22.66-4.62-29.92-25.08-22.33-62.59 6.27-30.69 34.32-66.88 52.8-87.45 9.02 26.18 20.68 70.51 14.41 101.2-7.59 37.4-22.33 53.46-44.88 48.84" fill="url(#U)"/><path d="M2785.554-506.982c-21.01-4.29-27.72-23.32-20.68-58.08 5.83-28.38 31.79-62.04 48.95-81.18 8.36 24.31 19.25 65.45 13.42 93.83-7.04 34.87-20.79 49.72-41.69 45.43" fill="url(#V)"/><path d="M2786.544-514.792c-19.36-3.96-25.63-21.45-19.14-53.57 5.28-26.18 29.37-57.31 45.21-74.91 7.7 22.33 17.71 60.39 12.32 86.57-6.38 32.23-19.03 45.87-38.39 41.91" fill="url(#W)"/><path d="M2787.534-522.602c-17.71-3.63-23.43-19.69-17.49-49.06 4.84-23.98 26.95-52.47 41.36-68.53 7.04 20.46 16.17 55.33 11.33 79.31-5.94 29.37-17.49 41.91-35.2 38.28" fill="url(#X)"/><path d="M2788.524-530.302c-16.17-3.3-21.34-17.82-15.84-44.55 4.4-21.78 24.42-47.63 37.62-62.26 6.38 18.59 14.74 50.27 10.34 72.05-5.5 26.62-16.06 37.95-32.12 34.76" fill="url(#Y)"/><path d="M2789.514-538.112c-14.52-2.97-19.14-16.06-14.3-40.04 3.96-19.58 22-42.79 33.77-55.99 5.72 16.72 13.2 45.1 9.24 64.79-4.84 23.87-14.3 34.21-28.71 31.24" fill="url(#Z)"/><path d="M2790.504-545.922c-12.87-2.64-17.05-14.3-12.65-35.53 3.52-17.38 19.47-37.95 30.03-49.72 5.06 14.85 11.77 40.04 8.25 57.42-4.4 21.34-12.87 30.47-25.63 27.83" fill="url(#aa)"/><path d="M2791.494-553.732c-11.22-2.31-14.85-12.43-11.11-31.02 3.08-15.18 17.05-33.22 26.18-43.45 4.51 12.98 10.23 34.98 7.15 50.16-3.74 18.7-11 26.62-22.22 24.31" fill="url(#ab)"/><path d="M2792.484-561.542c-9.68-1.98-12.76-10.67-9.46-26.51 2.64-12.98 14.52-28.38 22.44-37.07 3.85 11.11 8.8 29.92 6.16 42.9-3.3 15.84-9.57 22.66-19.14 20.68" fill="url(#ac)"/><path d="M2793.474-569.242c-8.03-1.65-10.56-8.8-7.92-22 2.2-10.78 12.1-23.54 18.59-30.8 3.19 9.13 7.26 24.86 5.06 35.64-2.64 13.09-7.81 18.7-15.73 17.16" fill="#fff"/><path d="M2556.094-470.022c-8.69 42.68-27.61 54.67-47.19 50.71-19.47-3.96-32.23-22.44-23.54-65.12 8.69-42.68 55-89.43 55-89.43s24.31 61.05 15.73 103.84" fill="#9cb1bf"/><path d="M2547.844-484.982c-8.69 42.68-27.61 54.78-47.19 50.71-19.47-3.96-32.23-22.44-23.54-65.12 8.69-42.68 55-89.43 55-89.43s24.42 61.16 15.73 103.84" fill="#78b5db"/><path d="M2501.974-439.772c-21.12-4.29-27.94-23.43-20.79-58.52 5.83-28.6 32.01-62.48 49.28-81.73 8.47 24.42 19.36 65.89 13.53 94.49-7.15 35.09-20.9 50.05-42.02 45.76" fill="url(#ad)"/><path d="M2502.744-446.152c-19.8-4.07-26.18-22-19.47-54.78 5.5-26.84 30.03-58.52 46.2-76.56 7.92 22.88 18.04 61.71 12.65 88.55-6.71 32.78-19.58 46.86-39.38 42.79" fill="url(#ae)"/><path d="M2503.624-452.532c-18.48-3.74-24.42-20.46-18.15-51.15 5.06-24.97 28.05-54.56 43.12-71.39 7.37 21.34 16.83 57.53 11.77 82.61-6.27 30.69-18.37 43.67-36.74 39.93" fill="url(#af)"/><path d="M2504.394-458.802c-17.16-3.52-22.66-19.03-16.94-47.41 4.73-23.21 25.96-50.71 40.04-66.22 6.82 19.8 15.62 53.46 10.89 76.67-5.72 28.27-16.83 40.37-33.99 36.96" fill="url(#ag)"/><path d="M2505.164-465.182c-15.84-3.19-20.9-17.6-15.62-43.78 4.4-21.45 23.98-46.75 36.85-61.16 6.27 18.26 14.41 49.28 10.12 70.73-5.28 26.18-15.51 37.4-31.35 34.21" fill="url(#ah)"/><path d="M2506.044-471.562c-14.52-2.97-19.14-16.06-14.3-40.04 3.96-19.58 22-42.79 33.77-55.99 5.72 16.72 13.2 45.1 9.24 64.79-4.84 23.98-14.3 34.21-28.71 31.24" fill="url(#ai)"/><path d="M2506.814-477.942c-13.2-2.64-17.38-14.63-12.98-36.41 3.63-17.82 19.91-38.94 30.69-50.82 5.28 15.18 11.99 41.03 8.36 58.74-4.4 21.89-12.98 31.13-26.07 28.49" fill="url(#aj)"/><path d="M2507.584-484.322c-11.88-2.42-15.62-13.09-11.66-32.67 3.19-16.06 17.93-34.98 27.61-45.76 4.73 13.64 10.78 36.85 7.59 52.8-3.96 19.69-11.66 28.05-23.54 25.63" fill="url(#ak)"/><path d="M2508.464-490.702c-10.56-2.09-13.86-11.66-10.34-29.04 2.86-14.19 15.95-31.02 24.53-40.59 4.18 12.1 9.57 32.67 6.71 46.86-3.63 17.49-10.45 24.97-20.9 22.77" fill="url(#al)"/><path d="M2509.234-496.972c-9.24-1.87-12.21-10.12-9.02-25.3 2.53-12.43 13.86-27.06 21.34-35.42 3.63 10.56 8.36 28.6 5.83 40.92-2.97 15.18-9.02 21.67-18.15 19.8" fill="url(#am)"/><path d="M2510.004-503.352c-7.81-1.54-10.34-8.69-7.7-21.67 2.2-10.56 11.88-23.21 18.26-30.25 3.08 9.02 7.15 24.42 5.06 34.98-2.64 12.98-7.7 18.48-15.62 16.94" fill="url(#an)"/><path d="M2510.884-509.732c-6.49-1.32-8.69-7.26-6.38-17.93 1.76-8.8 9.9-19.25 15.18-25.19 2.53 7.48 5.94 20.24 4.18 29.04-2.31 10.78-6.49 15.4-12.98 14.08" fill="#fff"/><use xlink:href="#ao" width="100%" height="100%"/><use xlink:href="#ap" width="100%" height="100%"/><use xlink:href="#aq" width="100%" height="100%"/><use xlink:href="#ar" width="100%" height="100%"/><use xlink:href="#as" width="100%" height="100%"/><use xlink:href="#at" width="100%" height="100%"/><use xlink:href="#au" width="100%" height="100%"/><use xlink:href="#av" width="100%" height="100%"/><use xlink:href="#aw" width="100%" height="100%"/><use xlink:href="#ax" width="100%" height="100%"/><use xlink:href="#ay" width="100%" height="100%"/><use xlink:href="#az" width="100%" height="100%"/><use xlink:href="#aA" width="100%" height="100%"/><path d="M2956.384-854.142c-3.52 0-6.93.44-10.23 1.1-1.98-21.89-20.13-39.16-42.57-39.16-4.84 0-9.46.99-13.75 2.42-9.13-40.7-45.21-71.06-88.66-71.06-36.19 0-67.32 21.34-81.95 52.14-8.25-7.26-18.92-11.77-30.8-11.77-25.19 0-45.54 19.91-46.64 44.77-9.79-5.5-20.9-8.91-32.89-8.91-37.29 0-67.54 30.25-67.54 67.54 0 37.29 30.25 67.54 67.54 67.54h347.38c28.93 0 52.25-23.43 52.25-52.25.22-28.93-23.21-52.36-52.14-52.36" fill="#9cb1bf"/><path d="M2948.024-868.552c-3.52 0-6.82.33-10.23 1.1-1.98-22-20.13-39.16-42.57-39.16-4.95 0-9.46.99-13.75 2.42-9.13-40.7-45.21-71.06-88.66-71.06-36.19 0-67.32 21.45-81.84 52.14-8.25-7.26-18.92-11.88-30.8-11.88-25.19 0-45.54 19.91-46.64 44.88-9.79-5.5-20.9-8.91-32.89-8.91-37.29 0-67.54 30.25-67.54 67.54 0 37.29 30.25 67.43 67.54 67.43h347.38c28.82 0 52.36-23.43 52.36-52.25s-23.43-52.25-52.36-52.25" fill="url(#aB)"/><path d="M2680.394-933.892c11.77 0 22.11 4.62 30.03 11.55 1.76-3.63 4.84-6.27 7.04-9.57 2.31-3.41 5.39-7.92 8.14-10.89 15.84-18.59 39.05-30.47 65.01-31.13 7.48-.22 14.74.55 21.78 2.09 33.11 7.37 59.4 33.22 67.43 66.44 4.07-.88 8.25-1.21 12.76-.77 2.31 0 4.84 1.43 7.04 1.76 2.09.33 5.39.55 7.37 1.32 2.42.55 4.62 1.43 6.82 2.42 10.12 4.73 17.93 13.75 21.12 24.75.66 2.09 1.32 5.39 1.54 7.59.11.77.55 1.43.55 2.09 1.43-.33 3.74-.66 5.28-.88 1.87-.22 3.63-.33 5.61-.33 15.4 0 29.04 7.37 37.51 18.37 8.36 11 11.55 24.75 9.02 37.51 0 25.63-26.62 46.42-52.25 46.42h-333.3c-33.11 0-67.54-26.84-67.54-59.95-3.41-16.61.44-34.43 11.33-48.84 10.89-14.41 28.71-23.98 48.73-23.98 9.13 0 17.82 1.98 25.85 5.61 2.2.99 5.28 2.53 7.37 3.74.11-1.76.88-3.19 1.21-4.95.77-4.4 2.31-10.34 4.29-14.19 6.71-15.4 22.22-26.18 40.26-26.18" fill="url(#aC)"/><path d="M2680.614-932.792c11.66 0 21.78 4.73 29.26 11.33 1.54-3.19 5.39-4.4 7.37-7.26 1.98-2.97 5.39-8.36 7.81-11 15.18-19.03 37.84-31.46 63.36-32.78 7.26-.33 14.52.11 21.45 1.54 33 6.38 59.62 31.68 68.09 64.35 3.74-.22 7.59 0 11.66.99 1.98 0 4.51 2.53 6.49 2.86 1.87.33 5.94 0 7.7.66 2.53.33 4.95.99 7.26 1.87 10.89 4.18 19.47 13.64 22.44 25.41.55 1.76 1.21 6.05 1.54 7.92.11.66.77 1.1.88 1.76 1.32-.22 4.29-.77 5.61-.99 1.98-.22 3.85-.44 5.83-.44 16.28 0 30.69 8.8 38.06 21.34 7.37 12.54 7.81 26.95 2.64 38.17 0 22.44-29.81 40.59-52.25 40.59h-319.33c-29.04 0-67.43-23.43-67.43-52.47-6.93-14.52-6.71-33.33 2.86-49.94 9.46-16.61 28.27-28.16 49.72-28.16 9.13 0 17.93 2.09 26.07 5.83 1.98.77 5.61 2.75 7.48 3.85.11-1.54 1.43-2.42 1.76-3.96.66-3.85 2.09-11.11 3.85-14.41 6.05-15.73 21.56-27.06 39.82-27.06" fill="url(#aD)"/><path d="M2680.834-931.692c11.55 0 21.34 4.73 28.49 11 1.32-2.75 6.05-2.53 7.7-5.06 1.65-2.53 5.39-8.8 7.48-11.11 14.52-19.47 36.63-32.34 61.71-34.32 7.15-.55 14.3-.22 21.23.99 32.89 5.5 59.84 30.03 68.86 62.37 3.41.44 6.93 1.21 10.56 2.75 1.76 0 4.18 3.74 5.83 4.07 1.65.33 6.6-.44 8.03 0 2.75.11 5.28.55 7.7 1.32 11.77 3.52 21.12 13.53 23.87 26.07.55 1.54 1.21 6.71 1.43 8.36.11.55 1.1.88 1.1 1.43 1.1-.22 4.73-.88 5.83-.99 1.98-.33 4.07-.44 6.16-.44 17.27 0 32.23 10.23 38.5 24.42 6.27 14.08 3.96 29.15-3.63 38.72 0 19.25-33 34.76-52.25 34.76h-305.25c-24.86 0-67.43-20.13-67.43-44.99-10.34-12.43-13.75-32.34-5.61-51.04 8.14-18.7 27.83-32.45 50.71-32.45 9.24 0 18.04 2.2 26.18 6.05 1.65.66 6.05 3.08 7.59 3.96.11-1.32 2.09-1.65 2.31-2.97.55-3.3 1.87-11.77 3.41-14.63 5.5-16.28 21.12-28.27 39.49-28.27" fill="url(#aE)"/><path d="M2681.054-930.592c11.55 0 21.01 4.84 27.72 10.78 1.1-2.31 6.6-.66 8.03-2.75 1.43-2.09 5.39-9.35 7.15-11.22 13.86-20.02 35.42-33.33 60.06-35.97a83.88 83.88 0 0 1 21.01.33c32.78 4.62 60.06 28.49 69.63 60.39 3.19.99 6.27 2.42 9.46 4.4 1.43 0 3.96 4.95 5.28 5.17 1.32.22 7.15-.99 8.36-.55 2.86-.11 5.5.11 8.14.77 12.54 2.97 22.66 13.42 25.19 26.84.44 1.32 1.1 7.48 1.32 8.8.11.44 1.32.66 1.43 1.1.88-.22 5.28-.99 6.16-1.1 2.09-.33 4.29-.55 6.49-.55 18.26 0 33.77 11.77 39.05 27.39 5.28 15.62.22 31.35-10.01 39.38 0 16.06-36.19 29.04-52.14 29.04h-291.17c-20.68 0-67.43-16.72-67.43-37.51-13.86-10.34-20.9-31.24-14.08-52.14 6.82-20.9 27.39-36.63 51.59-36.63 9.24 0 18.15 2.2 26.4 6.38 1.43.55 6.38 3.3 7.7 4.07 0-1.1 2.64-.88 2.86-1.87.44-2.75 1.65-12.54 2.97-14.85 4.62-17.16 20.24-29.7 38.83-29.7" fill="url(#aF)"/><path d="M2681.274-929.492c11.44 0 20.57 4.84 26.95 10.45.88-1.87 7.26 1.21 8.36-.55 1.1-1.65 5.5-9.79 6.82-11.33 13.09-20.46 34.1-34.32 58.41-37.51 6.93-.88 13.86-.99 20.79-.22 32.67 3.63 60.28 26.84 70.29 58.41 2.86 1.65 5.61 3.63 8.36 6.16 1.1 0 3.63 6.05 4.73 6.27 1.1.22 7.7-1.54 8.8-1.21 3.08-.33 5.83-.22 8.58.22 13.42 2.42 24.2 13.31 26.62 27.5.33.99 1.1 8.14 1.21 9.24 0 .33 1.65.44 1.65.77.77-.11 5.72-1.1 6.49-1.21 2.2-.33 4.51-.55 6.82-.55 19.14 0 35.31 13.2 39.6 30.36 4.18 17.16-3.52 33.55-16.28 39.93 0 12.76-39.38 23.21-52.14 23.21h-277.09c-16.61 0-67.32-13.42-67.32-30.03-17.27-8.25-28.05-30.14-22.66-53.24 5.39-23.1 27.06-40.81 52.58-40.81 9.24 0 18.26 2.31 26.62 6.6 1.1.44 6.71 3.63 7.81 4.18 0-.88 3.19 0 3.41-.88.33-2.2 1.43-13.2 2.42-15.18 3.74-17.38 19.47-30.58 38.17-30.58" fill="url(#aG)"/><path d="M2681.494-928.392c11.33 0 20.13 4.95 26.18 10.23.66-1.32 7.81 2.97 8.69 1.76.88-1.21 5.5-10.34 6.49-11.44 12.43-20.9 32.89-35.2 56.65-39.16 6.82-1.1 13.64-1.43 20.57-.77 32.56 2.75 60.5 25.3 71.06 56.43 2.53 2.31 4.95 4.84 7.26 7.92.88 0 3.3 7.26 4.18 7.37.77.11 8.36-2.09 9.13-1.76 3.19-.55 6.16-.66 9.02-.33 14.3 1.87 25.85 13.2 28.05 28.16.22.77 1.1 8.8 1.21 9.68 0 .22 1.98.11 1.98.44.55-.11 6.27-1.21 6.82-1.32 2.31-.33 4.73-.66 7.15-.66 20.13 0 36.96 14.63 40.04 33.44 3.19 18.7-7.37 35.75-22.66 40.59 0 9.57-42.46 17.38-52.14 17.38h-263.12c-12.43 0-67.32-10.01-67.32-22.44-20.79-6.27-35.2-29.04-31.13-54.34 4.07-25.3 26.62-44.99 53.57-44.99 9.24 0 18.37 2.42 26.84 6.93.88.33 7.15 3.85 7.92 4.29 0-.66 3.85.77 3.96.11.33-1.65 1.21-13.97 1.98-15.4 2.97-18.37 18.81-32.12 37.62-32.12" fill="url(#aH)"/><path d="M2681.714-927.292c11.22 0 19.8 4.95 25.41 9.9.44-.88 8.36 4.84 9.02 4.07.55-.88 5.5-10.78 6.16-11.55 11.77-21.34 31.68-36.19 55-40.81 6.6-1.32 13.42-1.76 20.35-1.43 32.45 1.87 60.72 23.76 71.83 54.34 2.31 2.97 4.29 6.05 6.16 9.57.55 0 2.97 8.36 3.52 8.47.55.11 8.91-2.53 9.46-2.42 3.41-.77 6.49-1.1 9.46-.88 15.18 1.21 27.39 13.09 29.37 28.82.22.55.99 9.57 1.1 10.12 0 .22 2.2-.11 2.31.11.33-.11 6.71-1.32 7.04-1.43 2.42-.44 4.95-.66 7.48-.66 21.01 0 38.5 16.17 40.59 36.41 2.09 20.24-11.11 37.95-28.93 41.14 0 6.38-45.65 11.55-52.14 11.55h-249.04c-8.25 0-67.32-6.71-67.32-14.96-24.2-4.18-42.24-28.05-39.6-55.44 2.75-27.39 26.18-49.28 54.56-49.28 9.35 0 18.37 2.42 27.06 7.15.55.22 7.48 4.18 8.03 4.4 0-.44 4.4 1.54 4.51 1.1.22-1.1 1.1-14.63 1.54-15.62 2.2-18.37 18.04-32.67 37.07-32.67" fill="url(#aI)"/><path d="M2681.934-926.192c11.11 0 19.36 5.06 24.64 9.68.22-.44 9.02 6.71 9.24 6.27.33-.44 5.5-11.33 5.83-11.66 11.11-21.89 30.47-37.18 53.35-42.35 6.49-1.43 13.2-2.2 20.13-1.98 32.34.88 61.05 22.11 72.49 52.36 1.98 3.52 3.74 7.37 5.06 11.33.33 0 2.75 9.57 2.97 9.68.22 0 9.57-3.08 9.79-2.97 3.52-.99 6.82-1.54 9.9-1.32 15.95.66 29.04 13.09 30.8 29.48.11.22.99 10.23.99 10.45 0 .11 2.53-.33 2.53-.22.22 0 7.15-1.43 7.37-1.43 2.53-.44 5.06-.77 7.81-.77 22 0 40.04 17.6 41.14 39.38 1.1 21.78-14.85 40.15-35.31 41.8 0 3.19-48.84 5.83-52.03 5.83h-234.96c-4.18 0-67.32-3.3-67.32-7.48-27.72-2.09-49.39-26.95-48.07-56.54 1.32-29.59 25.74-53.46 55.55-53.46 9.35 0 18.48 2.53 27.28 7.37.33.11 7.81 4.4 8.14 4.62 0-.22 4.95 2.42 5.06 2.2.11-.55.88-15.4 1.1-15.84 1.54-19.47 17.38-34.43 36.52-34.43" fill="url(#aJ)"/><path d="M2944.614-773.842h-340.23c-31.13 0-56.54-25.85-56.54-57.64s25.41-57.64 56.54-57.64c9.35 0 18.59 2.64 27.39 7.7l13.75 7.92.66-16.17c.77-19.8 16.61-35.42 35.97-35.42 11 0 19.03 5.06 23.87 9.46l9.57 8.58 5.5-11.77c13.31-28.71 40.7-46.53 71.5-46.53 36.74 0 69.3 26.73 77.33 63.47l2.42 10.78 10.12-3.63c3.74-1.21 7.04-1.87 10.34-1.87 16.83 0 30.58 12.98 32.23 30.14l.88 10.89 10.56-2.09c2.64-.44 5.28-.88 8.14-.88 22.99 0 41.58 19.03 41.58 42.46 0 23.21-18.7 42.24-41.58 42.24" fill="url(#aK)"/><path d="M2891.484-696.952c-4.73 0-9.46.55-13.97 1.43-2.75-30.03-27.61-53.57-58.41-53.57-6.71 0-12.87 1.32-18.81 3.3-12.43-55.66-61.93-97.35-121.33-97.35-49.72 0-92.18 29.26-112.2 71.39-11.33-9.9-25.96-16.17-42.13-16.17-34.43 0-62.37 27.28-63.91 61.38-13.42-7.48-28.6-12.1-44.99-12.1-51.04 0-92.4 41.36-92.4 92.51 0 51.04 41.47 92.4 92.4 92.4h475.86c39.6 0 71.61-32.12 71.61-71.61-.11-39.49-32.23-71.61-71.72-71.61" fill="#9cb1bf"/><path d="M2881.144-711.252c-4.73 0-9.46.55-13.97 1.43-2.75-29.92-27.61-53.57-58.41-53.57-6.6 0-12.87 1.32-18.81 3.3-12.43-55.66-61.93-97.35-121.33-97.35-49.61 0-92.18 29.26-112.2 71.39-11.33-9.9-25.96-16.17-42.24-16.17-34.43 0-62.37 27.28-63.91 61.49-13.31-7.59-28.6-12.21-44.99-12.21-51.04 0-92.51 41.47-92.51 92.51 0 51.15 41.36 92.51 92.51 92.51h475.86c39.49 0 71.61-32.12 71.61-71.61 0-39.6-32.12-71.72-71.61-71.72" fill="url(#aL)"/><path d="M2514.514-800.682c16.06 0 30.36 6.27 41.14 15.84 2.42-5.06 6.6-8.58 9.68-13.09 3.08-4.62 7.37-10.78 11.11-14.85 21.78-25.41 53.46-41.69 89.1-42.57 10.12-.22 20.02.77 29.59 2.86 45.43 10.01 81.51 45.54 92.4 90.97 5.5-1.21 11.33-1.65 17.38-.99 3.19 0 6.6 1.87 9.57 2.42 2.97.55 7.37.77 10.12 1.76 3.3.77 6.38 1.87 9.35 3.3 13.75 6.38 24.53 18.81 28.93 33.88.88 2.75 1.76 7.37 2.2 10.34.11.99.66 1.87.77 2.86 1.98-.44 5.17-.88 7.15-1.1 2.53-.33 5.06-.44 7.7-.44 21.01 0 39.82 10.01 51.37 25.08 11.55 15.07 15.84 33.88 12.32 51.48 0 35.09-38.39 63.69-73.59 63.69h-464.86c-50.16 0-90.86-40.7-90.86-90.97 0-50.27 40.7-90.97 90.86-90.97 12.54 0 24.42 2.75 35.42 7.7 2.97 1.32 7.15 3.41 10.01 5.06.11-2.53 1.21-4.51 1.65-6.93.99-5.94 3.08-14.08 5.83-19.36 9.57-21.34 30.91-35.97 55.66-35.97" fill="url(#aM)"/><path d="M2514.734-799.252c15.95 0 29.81 6.38 40.04 15.4 2.09-4.4 7.48-6.05 10.12-10.01 2.75-4.07 7.37-11.44 10.67-15.07 20.79-26.07 51.81-43.01 86.79-44.77 10.01-.55 19.8.22 29.26 2.09 45.21 8.8 81.73 43.34 93.39 88.22 5.17-.33 10.45 0 15.84 1.32 2.75 0 6.16 3.52 8.8 3.96 2.53.44 8.14.11 10.56.88 3.52.44 6.82 1.32 9.9 2.53 14.96 5.61 26.73 18.7 30.8 34.87.77 2.42 1.65 8.25 2.09 10.89.11.88 1.1 1.54 1.21 2.42 1.76-.33 5.83-1.1 7.59-1.21 2.64-.33 5.39-.55 8.03-.55 22.33 0 41.91 11.99 52.03 29.26 10.12 17.16 10.67 36.85 3.63 52.25 0 30.69-44.77 55.66-75.57 55.66h-453.86c-49.17 0-89.1-40.04-89.1-89.43 0-49.39 39.93-89.43 89.1-89.43 12.65 0 24.64 2.86 35.64 8.03 2.64 1.1 7.7 3.85 10.23 5.17.11-2.2 2.09-3.41 2.42-5.5.88-5.28 2.86-15.07 5.28-19.69 8.8-21.78 30.14-37.29 55.11-37.29" fill="url(#aN)"/><path d="M2515.064-797.712c15.84 0 29.26 6.49 39.05 15.07 1.76-3.74 8.25-3.52 10.56-6.93 2.31-3.41 7.37-12.1 10.23-15.18 19.91-26.73 50.16-44.33 84.59-46.97 9.79-.77 19.47-.33 28.93 1.32 45.1 7.48 82.06 41.14 94.49 85.47 4.73.55 9.57 1.65 14.41 3.74 2.31 0 5.72 5.06 8.03 5.5 2.2.44 9.02-.66 11 .11 3.74.11 7.15.77 10.56 1.76 16.06 4.84 28.93 18.59 32.67 35.75.66 2.09 1.65 9.24 1.98 11.44.11.77 1.54 1.21 1.54 1.98 1.43-.33 6.49-1.21 8.03-1.43 2.75-.44 5.61-.66 8.47-.66 23.65 0 44.11 14.08 52.69 33.33 8.69 19.36 5.5 39.93-4.95 53.13 0 26.4-51.15 47.74-77.44 47.74h-442.86c-48.29 0-87.45-39.38-87.45-88 0-48.51 39.16-88 87.45-88 12.65 0 24.75 2.97 35.97 8.36 2.31.99 8.14 4.18 10.34 5.39.11-1.87 2.86-2.31 3.19-4.07.77-4.51 2.53-16.06 4.62-20.02 7.37-22.55 28.71-38.83 53.9-38.83" fill="url(#aO)"/><path d="M2515.394-796.172c15.73 0 28.71 6.6 37.95 14.74 1.54-3.19 9.02-.88 11-3.74 1.98-2.86 7.48-12.76 9.79-15.4 18.92-27.39 48.51-45.65 82.28-49.17 9.57-.99 19.25-.88 28.71.44 44.99 6.27 82.39 39.05 95.48 82.72 4.29 1.43 8.58 3.3 12.87 6.05 1.98 0 5.28 6.71 7.15 7.04 1.87.33 9.79-1.32 11.55-.77 3.96-.22 7.59.22 11.22.99 17.27 4.07 31.02 18.48 34.54 36.74.55 1.76 1.54 10.12 1.87 11.99.11.66 1.87.88 1.98 1.54 1.21-.22 7.15-1.32 8.47-1.54 2.97-.44 5.94-.66 8.91-.66 24.97 0 46.2 16.06 53.46 37.51 7.15 21.45.33 42.9-13.64 53.9 0 22-57.53 39.82-79.42 39.82h-431.86c-47.3 0-85.8-38.72-85.8-86.46 0-47.74 38.5-86.46 85.8-86.46 12.65 0 24.86 3.08 36.19 8.69 1.87.77 8.69 4.51 10.45 5.5.11-1.54 3.63-1.21 3.96-2.64.66-3.74 2.31-17.05 3.96-20.35 6.27-23.32 27.72-40.48 53.13-40.48" fill="url(#aP)"/><path d="M2515.724-794.742c15.62 0 28.16 6.6 36.85 14.3 1.21-2.53 9.9 1.65 11.44-.66 1.54-2.31 7.48-13.53 9.35-15.51 18.04-28.05 46.86-46.97 79.97-51.37 9.46-1.21 18.92-1.32 28.38-.33 44.77 5.06 82.72 36.85 96.47 79.97 3.96 2.31 7.7 4.95 11.44 8.36 1.54 0 4.95 8.25 6.38 8.58 1.43.22 10.67-2.09 11.99-1.54 4.18-.55 8.03-.33 11.77.33 18.37 3.3 33.22 18.26 36.41 37.62.44 1.43 1.54 11.11 1.76 12.65.11.44 2.31.55 2.31 1.1.99-.22 7.92-1.54 8.91-1.65 3.08-.55 6.16-.77 9.35-.77 26.29 0 48.4 18.04 54.12 41.58 5.72 23.54-4.84 45.98-22.33 54.78 0 17.6-63.8 31.79-81.4 31.79h-420.86c-46.42 0-84.15-38.06-84.15-84.92s37.73-85.03 84.15-85.03c12.76 0 24.97 3.19 36.52 9.13 1.54.66 9.13 4.84 10.56 5.72 0-1.21 4.51-.11 4.73-1.32.55-2.97 1.98-18.04 3.41-20.68 5.28-24.09 26.73-42.13 52.47-42.13" fill="url(#aQ)"/><path d="M2515.944-793.202c15.51 0 27.72 6.71 35.86 13.97.88-1.87 10.67 4.18 11.88 2.42 1.21-1.76 7.48-14.19 8.91-15.73 17.05-28.71 45.21-48.29 77.77-53.57 9.24-1.54 18.59-1.87 28.05-1.1 44.66 3.74 83.05 34.65 97.46 77.22 3.52 3.08 6.82 6.6 9.9 10.78 1.21 0 4.51 9.9 5.61 10.12 1.1.22 11.44-2.75 12.54-2.42 4.4-.77 8.47-.99 12.43-.44 19.58 2.53 35.42 18.15 38.39 38.61.33.99 1.43 12.1 1.65 13.2 0 .33 2.64.22 2.75.55.77-.11 8.58-1.65 9.35-1.76 3.19-.55 6.49-.88 9.79-.88 27.5 0 50.49 20.02 54.78 45.76 4.29 25.63-10.01 48.95-30.91 55.55 0 13.2-70.18 23.87-83.38 23.87h-409.86c-45.43 0-82.39-37.4-82.39-83.49 0-46.09 36.96-83.49 82.39-83.49 12.76 0 25.19 3.3 36.74 9.46 1.1.44 9.68 5.28 10.78 5.83 0-.99 5.28 1.1 5.5.11.44-2.2 1.76-19.03 2.75-21.01 3.85-24.75 25.41-43.56 51.26-43.56" fill="url(#aR)"/><path d="M2516.274-791.662c15.4 0 27.17 6.82 34.76 13.64.55-1.21 11.55 6.71 12.32 5.5.77-1.1 7.48-14.85 8.36-15.84 16.17-29.26 43.45-49.61 75.46-55.77 9.02-1.76 18.37-2.42 27.72-1.87 44.55 2.53 83.38 32.45 98.45 74.58 3.08 3.96 5.94 8.36 8.47 13.09.77 0 4.07 11.44 4.84 11.66.77.11 12.32-3.41 12.98-3.19 4.62-1.1 8.91-1.54 12.98-1.21 20.68 1.65 37.51 18.04 40.26 39.49.22.66 1.43 12.98 1.54 13.75 0 .22 3.08-.11 3.08.11.44-.11 9.24-1.87 9.68-1.87 3.3-.55 6.82-.99 10.23-.99 28.82 0 52.69 22.11 55.55 49.83 2.86 27.72-15.18 52.03-39.6 56.43 0 8.8-76.56 15.95-85.36 15.95h-398.86c-44.55 0-80.74-36.74-80.74-81.95s36.19-81.95 80.74-81.95c12.76 0 25.3 3.3 37.07 9.79.77.33 10.12 5.61 10.89 6.05 0-.66 6.16 2.2 6.27 1.54.22-1.54 1.43-20.02 2.09-21.34 3.19-25.85 24.75-45.43 50.82-45.43" fill="url(#aS)"/><path d="M2516.604-790.122c15.18 0 26.62 6.82 33.66 13.2.33-.66 12.32 9.24 12.76 8.69.44-.55 7.48-15.51 7.92-16.06 15.18-29.92 41.8-50.93 73.15-57.97 8.91-1.98 18.04-2.97 27.39-2.64 44.33 1.21 83.71 30.36 99.44 71.83 2.75 4.84 5.06 10.01 6.93 15.4.44 0 3.63 13.09 4.07 13.2.33.11 13.09-4.18 13.42-4.07 4.84-1.43 9.24-2.09 13.64-1.98 21.89.88 39.71 17.93 42.13 40.37.11.33 1.32 13.97 1.43 14.3 0 .11 3.52-.44 3.52-.33.22 0 9.9-1.98 10.12-1.98 3.41-.66 7.04-1.1 10.67-1.1 30.14 0 54.78 24.09 56.21 54.01 1.43 29.92-20.35 55-48.29 57.2 0 4.4-82.94 7.92-87.34 7.92h-387.86c-43.56 0-79.09-36.08-79.09-80.41s35.53-80.52 79.09-80.52c12.87 0 25.41 3.41 37.29 10.12.33.11 10.67 5.94 11 6.16 0-.33 6.93 3.3 6.93 2.97.11-.77 1.21-21.01 1.54-21.67 2.31-26.29 23.87-46.64 50.27-46.64" fill="url(#aT)"/><path d="M2876.304-581.562h-466.18c-42.68 0-77.44-35.42-77.44-78.87 0-43.56 34.76-78.98 77.44-78.98 12.87 0 25.52 3.52 37.62 10.56l18.92 10.67.88-22c1.1-27.17 22.77-48.4 49.28-48.4 15.07 0 26.07 6.93 32.67 12.87l13.2 11.77 7.48-16.17c18.26-39.27 55.77-63.69 97.9-63.69 50.38 0 94.93 36.52 105.93 86.9l3.19 14.63 13.97-4.84c5.06-1.76 9.68-2.64 14.19-2.64 22.99 0 41.91 17.82 44 41.36l1.32 14.96 14.41-2.86c3.63-.66 7.37-1.1 11.11-1.1 31.46 0 56.98 26.07 56.98 58.08.11 31.68-25.41 57.75-56.87 57.75" fill="url(#aU)"/></svg>