<svg xmlns="http://www.w3.org/2000/svg" xmlns:xlink="http://www.w3.org/1999/xlink" viewBox="3264.2 -1171 841.9 841.90004" width="841.9" height="841.9"><defs><linearGradient id="p" gradientUnits="userSpaceOnUse" y1="-952.24" x2="0" y2="-1147.57"><stop stop-color="#97bacd"/><stop offset="1" stop-color="#d0e1eb"/></linearGradient><linearGradient id="aI" gradientUnits="userSpaceOnUse" y1="-760.07" x2="0" y2="-1005.5" xlink:href="#a" gradientTransform="translate(-563.749 224.518) scale(1.155)"/><linearGradient id="n" gradientUnits="userSpaceOnUse" y1="-953.38" x2="0" y2="-1146.49"><stop stop-color="#99bbce"/><stop offset="1" stop-color="#d3e4ed"/></linearGradient><linearGradient id="h" gradientUnits="userSpaceOnUse" y1="-955.67" x2="0" y2="-1144.5"><stop stop-color="#9dbdd0"/><stop offset="1" stop-color="#dae9f2"/></linearGradient><linearGradient id="m" gradientUnits="userSpaceOnUse" y1="-954.53" x2="0" y2="-1145.46"><stop stop-color="#9bbccf"/><stop offset="1" stop-color="#d7e6f0"/></linearGradient><linearGradient id="o" gradientUnits="userSpaceOnUse" y1="-951.09" x2="0" y2="-1148.71"><stop stop-color="#95b9cc"/><stop offset="1" stop-color="#cddee8"/></linearGradient><linearGradient id="W" gradientUnits="userSpaceOnUse" x1="4260.93" x2="4314.81" gradientTransform="matrix(.86544 .06924 -.0947 .99053 -307.743 238.967)" xlink:href="#b"/><linearGradient id="ab" gradientUnits="userSpaceOnUse" x1="3617.97" x2="3641.47" gradientTransform="matrix(1.10672 .01154 -.01579 1.12763 -521.082 226.926)" xlink:href="#c"/><linearGradient id="X" gradientUnits="userSpaceOnUse" x1="4111.29" x2="4157.93" gradientTransform="matrix(.91372 .0577 -.07892 1.0179 -350.409 236.559)" xlink:href="#d"/><linearGradient id="Z" gradientUnits="userSpaceOnUse" x1="3845.81" x2="3879.88" gradientTransform="matrix(1.01028 .03462 -.04736 1.07276 -435.752 231.742)" xlink:href="#e"/><linearGradient id="aa" gradientUnits="userSpaceOnUse" x1="3727.67" x2="3756.24" gradientTransform="matrix(1.05844 .02308 -.03157 1.10014 -478.415 229.334)" xlink:href="#f"/><linearGradient id="Y" gradientUnits="userSpaceOnUse" x1="3973.33" x2="4013.4" gradientTransform="matrix(.962 .04615 -.06313 1.04539 -393.086 234.15)" xlink:href="#g"/><linearGradient id="i" gradientUnits="userSpaceOnUse" y1="-956.81" x2="0" y2="-1143.59"><stop stop-color="#9fbed0"/><stop offset="1" stop-color="#ddecf5"/></linearGradient><linearGradient id="aD" gradientUnits="userSpaceOnUse" y1="-752.18" x2="0" y2="-1010.86" xlink:href="#h" gradientTransform="translate(-563.749 224.518) scale(1.155)"/><linearGradient id="l" gradientUnits="userSpaceOnUse" y1="-957.96" x2="0" y2="-1142.75"><stop stop-color="#a1bfd1"/><stop offset="1" stop-color="#e0eff7"/></linearGradient><linearGradient id="aE" gradientUnits="userSpaceOnUse" y1="-753.76" x2="0" y2="-1009.63" xlink:href="#i" gradientTransform="translate(-563.749 224.518) scale(1.155)"/><linearGradient id="aG" gradientUnits="userSpaceOnUse" y1="-756.92" x2="0" y2="-1007.41" xlink:href="#j" gradientTransform="translate(-563.749 224.518) scale(1.155)"/><linearGradient id="aH" gradientUnits="userSpaceOnUse" y1="-758.49" x2="0" y2="-1006.42" xlink:href="#k" gradientTransform="translate(-563.749 224.518) scale(1.155)"/><linearGradient id="aF" gradientUnits="userSpaceOnUse" y1="-755.34" x2="0" y2="-1008.48" xlink:href="#l" gradientTransform="translate(-563.749 224.518) scale(1.155)"/><linearGradient id="aC" gradientUnits="userSpaceOnUse" y1="-750.6" x2="0" y2="-1012.18" xlink:href="#m" gradientTransform="translate(-563.749 224.518) scale(1.155)"/><linearGradient id="j" gradientUnits="userSpaceOnUse" y1="-959.1" x2="0" y2="-1141.97"><stop stop-color="#a3c0d2"/><stop offset="1" stop-color="#e4f1fa"/></linearGradient><linearGradient id="aB" gradientUnits="userSpaceOnUse" y1="-749.02" x2="0" y2="-1013.57" xlink:href="#n" gradientTransform="translate(-563.749 224.518) scale(1.155)"/><linearGradient id="k" gradientUnits="userSpaceOnUse" y1="-960.25" x2="0" y2="-1141.26"><stop stop-color="#a5c1d3"/><stop offset="1" stop-color="#e7f4fc"/></linearGradient><linearGradient id="az" gradientUnits="userSpaceOnUse" y1="-745.86" x2="0" y2="-1016.61" xlink:href="#o" gradientTransform="translate(-563.749 224.518) scale(1.155)"/><linearGradient id="aA" gradientUnits="userSpaceOnUse" y1="-747.44" x2="0" y2="-1015.05" xlink:href="#p" gradientTransform="translate(-563.749 224.518) scale(1.155)"/><linearGradient id="a" gradientUnits="userSpaceOnUse" y1="-961.39" x2="0" y2="-1140.61"><stop stop-color="#a7c2d4"/><stop offset="1" stop-color="#eaf7ff"/></linearGradient><linearGradient id="V" gradientUnits="userSpaceOnUse" x1="4423.65" x2="4485.57" gradientTransform="matrix(.81716 .08078 -.11049 .96304 -265.077 241.375)" xlink:href="#q"/><linearGradient id="g" gradientUnits="userSpaceOnUse" x1="4099.14" x2="4159.26" gradientTransform="matrix(.8329 .03996 -.05466 .9051 147.76 8.34)"><stop stop-color="#d6eeff"/><stop offset="1" stop-color="#c2e7ff"/></linearGradient><linearGradient id="U" gradientUnits="userSpaceOnUse" x1="4601.06" x2="4671.96" gradientTransform="matrix(.76888 .09232 -.12624 .93567 -222.412 243.783)" xlink:href="#r"/><linearGradient id="e" gradientUnits="userSpaceOnUse" x1="3966.22" x2="4017.35" gradientTransform="matrix(.8747 .02997 -.041 .9288 110.82 6.255)"><stop stop-color="#e0f2ff"/><stop offset="1" stop-color="#d1edff"/></linearGradient><linearGradient id="c" gradientUnits="userSpaceOnUse" x1="3729.08" x2="3764.34" gradientTransform="matrix(.9582 .00999 -.01367 .9763 36.941 2.085)"><stop stop-color="#f5fbff"/><stop offset="1" stop-color="#f0f9ff"/></linearGradient><linearGradient id="f" gradientUnits="userSpaceOnUse" x1="3843.2" x2="3886.07" gradientTransform="matrix(.9164 .01998 -.02733 .9525 73.882 4.17)"><stop stop-color="#ebf6ff"/><stop offset="1" stop-color="#e0f3ff"/></linearGradient><linearGradient id="d" gradientUnits="userSpaceOnUse" x1="4243.1" x2="4313.08" gradientTransform="matrix(.7911 .04996 -.06833 .8813 184.71 10.425)"><stop stop-color="#cceaff"/><stop offset="1" stop-color="#b3e1ff"/></linearGradient><linearGradient id="s" gradientUnits="userSpaceOnUse" x1="5427.52" x2="5586.03" gradientTransform="matrix(.5404 .1099 -.1503 .7389 406.35 22.935)"><stop stop-color="#8fd0ff"/><stop offset="1" stop-color="#57bdff"/></linearGradient><linearGradient id="b" gradientUnits="userSpaceOnUse" x1="4399.41" x2="4480.27" gradientTransform="matrix(.7493 .05995 -.08199 .8576 221.65 12.51)"><stop stop-color="#c2e5ff"/><stop offset="1" stop-color="#a3dbff"/></linearGradient><linearGradient id="t" gradientUnits="userSpaceOnUse" x1="5181.86" x2="5320.65" gradientTransform="matrix(.5822 .09991 -.1367 .7626 369.41 20.85)"><stop stop-color="#99d4ff"/><stop offset="1" stop-color="#66c3ff"/></linearGradient><linearGradient id="r" gradientUnits="userSpaceOnUse" x1="4755.34" x2="4861.74" gradientTransform="matrix(.6657 .07993 -.1093 .8101 295.53 16.68)"><stop stop-color="#aeddff"/><stop offset="1" stop-color="#85cfff"/></linearGradient><linearGradient id="q" gradientUnits="userSpaceOnUse" x1="4569.58" x2="4662.51" gradientTransform="matrix(.7075 .06994 -.09566 .8338 258.59 14.595)"><stop stop-color="#b8e1ff"/><stop offset="1" stop-color="#94d5ff"/></linearGradient><linearGradient id="u" gradientUnits="userSpaceOnUse" x1="4958.68" x2="5080.25" gradientTransform="matrix(.624 .08992 -.123 .7864 332.47 18.765)"><stop stop-color="#a3d9ff"/><stop offset="1" stop-color="#76c9ff"/></linearGradient><linearGradient id="G" gradientUnits="userSpaceOnUse" x1="5668.35" x2="5797.75" gradientTransform="matrix(.62416 .12693 -.1736 .85343 -94.414 251.008)" xlink:href="#s"/><linearGradient id="P" gradientUnits="userSpaceOnUse" x1="4003.47" x2="4038.48" gradientTransform="matrix(1.05844 .02308 -.03157 1.10014 -478.415 229.334)" xlink:href="#f"/><linearGradient id="H" gradientUnits="userSpaceOnUse" x1="5410.71" x2="5524" gradientTransform="matrix(.67244 .1154 -.15789 .8808 -137.08 248.6)" xlink:href="#t"/><linearGradient id="Q" gradientUnits="userSpaceOnUse" x1="3883.18" x2="3911.98" gradientTransform="matrix(1.10672 .01154 -.01579 1.12763 -521.082 226.926)" xlink:href="#c"/><linearGradient id="S" gradientUnits="userSpaceOnUse" x1="5007.64" x2="5100.11" gradientTransform="matrix(.67244 .1154 -.15789 .8808 -137.08 248.6)" xlink:href="#t"/><linearGradient id="T" gradientUnits="userSpaceOnUse" x1="4795.02" x2="4876.02" gradientTransform="matrix(.72072 .10386 -.14206 .9083 -179.746 246.191)" xlink:href="#u"/><linearGradient id="R" gradientUnits="userSpaceOnUse" x1="5241.35" x2="5346.97" gradientTransform="matrix(.62416 .12693 -.1736 .85343 -94.414 251.008)" xlink:href="#s"/><linearGradient id="O" gradientUnits="userSpaceOnUse" x1="4133.08" x2="4174.81" gradientTransform="matrix(1.01028 .03462 -.04736 1.07276 -435.752 231.742)" xlink:href="#e"/><linearGradient id="I" gradientUnits="userSpaceOnUse" x1="5176.5" x2="5275.74" gradientTransform="matrix(.72072 .10386 -.14206 .9083 -179.746 246.191)" xlink:href="#u"/><linearGradient id="N" gradientUnits="userSpaceOnUse" x1="4273.03" x2="4322.11" gradientTransform="matrix(.962 .04615 -.06313 1.04539 -393.086 234.15)" xlink:href="#g"/><linearGradient id="J" gradientUnits="userSpaceOnUse" x1="4962.99" x2="5049.85" gradientTransform="matrix(.76888 .09232 -.12624 .93567 -222.412 243.783)" xlink:href="#r"/><linearGradient id="L" gradientUnits="userSpaceOnUse" x1="4588.94" x2="4654.95" gradientTransform="matrix(.86544 .06924 -.0947 .99053 -307.743 238.967)" xlink:href="#b"/><linearGradient id="M" gradientUnits="userSpaceOnUse" x1="4424.53" x2="4481.67" gradientTransform="matrix(.91372 .0577 -.07892 1.0179 -350.409 236.559)" xlink:href="#d"/><linearGradient id="K" gradientUnits="userSpaceOnUse" x1="4767.83" x2="4843.69" gradientTransform="matrix(.81716 .08078 -.11049 .96304 -265.077 241.375)" xlink:href="#q"/><linearGradient xlink:href="#o" id="ap" gradientUnits="userSpaceOnUse" y1="-951.09" x2="0" y2="-1148.71" gradientTransform="translate(-563.749 224.518) scale(1.155)"/><linearGradient xlink:href="#p" id="aq" gradientUnits="userSpaceOnUse" y1="-952.24" x2="0" y2="-1147.57" gradientTransform="translate(-563.749 224.518) scale(1.155)"/><linearGradient xlink:href="#n" id="ar" gradientUnits="userSpaceOnUse" y1="-953.38" x2="0" y2="-1146.49" gradientTransform="translate(-563.749 224.518) scale(1.155)"/><linearGradient xlink:href="#m" id="as" gradientUnits="userSpaceOnUse" y1="-954.53" x2="0" y2="-1145.46" gradientTransform="translate(-563.749 224.518) scale(1.155)"/><linearGradient xlink:href="#h" id="at" gradientUnits="userSpaceOnUse" y1="-955.67" x2="0" y2="-1144.5" gradientTransform="translate(-563.749 224.518) scale(1.155)"/><linearGradient xlink:href="#i" id="au" gradientUnits="userSpaceOnUse" y1="-956.81" x2="0" y2="-1143.59" gradientTransform="translate(-563.749 224.518) scale(1.155)"/><linearGradient xlink:href="#l" id="av" gradientUnits="userSpaceOnUse" y1="-957.96" x2="0" y2="-1142.75" gradientTransform="translate(-563.749 224.518) scale(1.155)"/><linearGradient xlink:href="#j" id="aw" gradientUnits="userSpaceOnUse" y1="-959.1" x2="0" y2="-1141.97" gradientTransform="translate(-563.749 224.518) scale(1.155)"/><linearGradient xlink:href="#k" id="ax" gradientUnits="userSpaceOnUse" y1="-960.25" x2="0" y2="-1141.26" gradientTransform="translate(-563.749 224.518) scale(1.155)"/><linearGradient xlink:href="#a" id="ay" gradientUnits="userSpaceOnUse" y1="-961.39" x2="0" y2="-1140.61" gradientTransform="translate(-563.749 224.518) scale(1.155)"/><linearGradient xlink:href="#c" id="F" gradientUnits="userSpaceOnUse" gradientTransform="matrix(1.10672 .01154 -.01579 1.12763 -521.082 226.926)" x1="3729.08" x2="3764.34"/><linearGradient xlink:href="#f" id="E" gradientUnits="userSpaceOnUse" gradientTransform="matrix(1.05844 .02308 -.03157 1.10014 -478.415 229.334)" x1="3843.2" x2="3886.07"/><linearGradient xlink:href="#e" id="D" gradientUnits="userSpaceOnUse" gradientTransform="matrix(1.01028 .03462 -.04736 1.07276 -435.752 231.742)" x1="3966.22" x2="4017.35"/><linearGradient xlink:href="#g" id="C" gradientUnits="userSpaceOnUse" gradientTransform="matrix(.962 .04615 -.06313 1.04539 -393.086 234.15)" x1="4099.14" x2="4159.26"/><linearGradient xlink:href="#d" id="B" gradientUnits="userSpaceOnUse" gradientTransform="matrix(.91372 .0577 -.07892 1.0179 -350.409 236.559)" x1="4243.1" x2="4313.08"/><linearGradient xlink:href="#b" id="A" gradientUnits="userSpaceOnUse" gradientTransform="matrix(.86544 .06924 -.0947 .99053 -307.743 238.967)" x1="4399.41" x2="4480.27"/><linearGradient xlink:href="#q" id="z" gradientUnits="userSpaceOnUse" gradientTransform="matrix(.81716 .08078 -.11049 .96304 -265.077 241.375)" x1="4569.58" x2="4662.51"/><linearGradient xlink:href="#r" id="y" gradientUnits="userSpaceOnUse" gradientTransform="matrix(.76888 .09232 -.12624 .93567 -222.412 243.783)" x1="4755.34" x2="4861.74"/><linearGradient xlink:href="#u" id="x" gradientUnits="userSpaceOnUse" gradientTransform="matrix(.72072 .10386 -.14206 .9083 -179.746 246.191)" x1="4958.68" x2="5080.25"/><linearGradient xlink:href="#t" id="w" gradientUnits="userSpaceOnUse" gradientTransform="matrix(.67244 .1154 -.15789 .8808 -137.08 248.6)" x1="5181.86" x2="5320.65"/><linearGradient xlink:href="#s" id="v" gradientUnits="userSpaceOnUse" gradientTransform="matrix(.62416 .12693 -.1736 .85343 -94.414 251.008)" x1="5427.52" x2="5586.03"/></defs><path d="M3703.399-451.85c-13.63 67.22-43.428 86.163-74.267 80.041-30.723-6.352-50.82-35.343-37.075-102.68 13.629-67.22 86.625-140.91 86.625-140.91s38.461 96.328 24.717 163.549" fill="#9cb1bf"/><path d="M3690.578-475.412c-13.629 67.22-43.428 86.278-74.266 80.041-30.723-6.237-50.705-35.343-37.076-102.564 13.63-67.22 86.625-140.91 86.625-140.91s38.346 96.212 24.717 163.433" id="ac" fill="#78b5db"/><path d="M3618.16-404.149c-33.264-6.699-44.006-36.96-32.802-92.169 9.124-45.045 50.473-98.406 77.731-128.667 13.283 38.462 30.377 103.72 21.252 148.88-11.203 55.093-32.802 78.77-66.181 71.956" id="ad" fill="url(#v)"/><path d="M3619.43-414.197c-31.185-6.353-41.233-34.65-30.723-86.394 8.547-42.273 47.355-92.285 72.765-120.582 12.474 36.036 28.529 97.25 19.866 139.524-10.395 51.744-30.607 73.804-61.908 67.452" id="ae" fill="url(#w)"/><path d="M3620.7-424.13c-29.105-5.89-38.46-32.34-28.643-80.504 7.97-39.385 44.12-86.047 67.914-112.497 11.55 33.61 26.565 90.668 18.595 130.053-9.702 48.164-28.644 68.838-57.865 62.948" id="af" fill="url(#x)"/><path d="M3621.971-434.179c-27.027-5.428-35.69-29.914-26.565-74.728 7.392-36.614 41.003-79.81 63.063-104.412 10.742 31.185 24.717 84.2 17.21 120.697-9.01 44.814-26.565 63.987-53.708 58.443" id="ag" fill="url(#y)"/><path d="M3623.242-444.227c-24.948-5.082-32.918-27.605-24.486-68.954 6.814-33.726 37.768-73.689 58.212-96.327 9.933 28.76 22.753 77.616 15.939 111.342-8.432 41.35-24.717 59.02-49.665 53.939" id="ah" fill="url(#z)"/><path d="M3624.512-454.276c-22.869-4.62-30.145-25.294-22.522-63.178 6.237-30.839 34.65-67.452 53.245-88.242 9.125 26.334 20.79 71.148 14.553 101.986-7.507 38-22.407 54.17-45.276 49.434" id="ai" fill="url(#A)"/><path d="M3625.783-464.209c-20.675-4.273-27.374-22.984-20.444-57.403 5.66-28.067 31.416-61.33 48.395-80.157 8.2 23.908 18.942 64.564 13.167 92.63-6.815 34.42-20.328 49.088-41.118 44.93" id="aj" fill="url(#B)"/><path d="M3627.053-474.257c-18.595-3.812-24.601-20.675-18.364-51.513 5.082-25.18 28.182-55.094 43.543-72.072 7.392 21.483 16.979 58.096 11.897 83.275-6.237 30.839-18.365 44.121-37.076 40.31" id="ak" fill="url(#C)"/><path d="M3628.44-484.306c-16.517-3.35-21.83-18.364-16.286-45.738 4.504-22.407 25.063-48.972 38.577-63.987 6.583 19.058 15.015 51.513 10.51 73.92-5.544 27.49-16.285 39.155-32.802 35.805" id="al" fill="url(#D)"/><path d="M3629.71-494.354c-14.438-3.003-19.058-16.055-14.207-39.963 4.043-19.52 21.83-42.735 33.726-55.902 5.66 16.632 13.167 45.045 9.24 64.564-4.966 24.024-14.322 34.304-28.76 31.3" id="am" fill="url(#E)"/><path d="M3630.98-504.287c-12.358-2.541-16.4-13.745-12.127-34.188 3.465-16.748 18.71-36.498 28.875-47.702 4.85 14.207 11.203 38.462 7.854 55.21-4.274 20.443-12.243 29.105-24.602 26.68" id="an" fill="url(#F)"/><path d="M3632.25-514.336c-10.279-2.079-13.628-11.434-10.048-28.413 2.888-13.86 15.477-30.376 24.024-39.616 4.043 11.896 9.356 31.993 6.468 45.853-3.58 16.979-10.28 24.255-20.443 22.176" id="ao" fill="#fff"/><path d="M3859.555-564.578c-11.204 54.862-35.574 70.34-60.638 65.257-25.063-5.082-41.464-28.875-30.26-83.737 11.087-54.863 70.685-115.038 70.685-115.038s31.416 78.655 20.213 133.518" fill="#9cb1bf"/><path d="M3849.044-583.751c-11.203 54.978-35.574 70.455-60.637 65.257-25.064-5.082-41.465-28.875-30.261-83.737 11.088-54.863 70.686-114.923 70.686-114.923s31.416 78.425 20.212 133.403" fill="#78b5db"/><path d="M3790.024-525.655c-27.143-5.544-35.92-30.145-26.796-75.19 7.507-36.845 41.233-80.388 63.41-105.105 10.856 31.416 24.832 84.777 17.324 121.506-9.124 45.16-26.796 64.333-53.938 58.79" fill="url(#G)"/><path d="M3791.063-533.74c-25.525-5.197-33.61-28.297-25.063-70.455 7.045-34.534 38.577-75.306 59.367-98.406 10.164 29.453 23.33 79.349 16.285 113.883-8.547 42.158-25.179 60.06-50.589 54.978" fill="url(#H)"/><path d="M3792.103-541.94c-23.793-4.851-31.416-26.334-23.447-65.72 6.584-32.224 36.036-70.224 55.44-91.822 9.471 27.489 21.714 74.035 15.13 106.26-7.969 39.27-23.446 56.133-47.123 51.282" fill="url(#I)"/><path d="M3793.142-550.14c-22.06-4.505-29.106-24.487-21.714-60.985 6.122-29.799 33.38-65.142 51.398-85.239 8.778 25.526 20.212 68.723 14.09 98.522-7.391 36.613-21.713 52.206-43.774 47.701" fill="url(#J)"/><path d="M3794.182-558.341c-20.328-4.158-26.912-22.523-20.097-56.249 5.544-27.489 30.838-60.175 47.47-78.655 8.085 23.446 18.596 63.41 12.936 90.898-6.699 33.726-19.981 48.164-40.31 44.006" fill="url(#K)"/><path d="M3795.221-566.542c-18.595-3.811-24.601-20.674-18.364-51.513 5.082-25.179 28.297-55.093 43.428-71.956 7.392 21.483 16.978 58.096 11.896 83.275-6.237 30.839-18.364 44.006-36.96 40.194" fill="url(#L)"/><path d="M3796.26-574.627c-16.978-3.465-22.406-18.71-16.631-46.777 4.62-22.87 25.64-50.012 39.5-65.373 6.7 19.52 15.478 52.783 10.858 75.652-5.775 27.951-16.863 39.848-33.726 36.498" fill="url(#M)"/><path d="M3797.3-582.827c-15.246-3.119-20.097-16.863-15.015-42.042 4.158-20.56 23.1-44.93 35.459-58.79 6.006 17.556 13.86 47.355 9.702 68.03-5.082 25.063-15.015 35.92-30.146 32.802" fill="url(#N)"/><path d="M3798.34-591.028c-13.514-2.772-17.903-15.015-13.283-37.306 3.696-18.25 20.444-39.848 31.532-52.206 5.313 15.592 12.358 42.042 8.662 60.29-4.62 22.408-13.398 31.994-26.911 29.222" fill="url(#O)"/><path d="M3799.38-599.228c-11.782-2.426-15.593-13.052-11.666-32.571 3.234-15.94 17.902-34.881 27.489-45.623 4.735 13.63 10.741 36.73 7.507 52.668-3.927 19.635-11.55 27.951-23.33 25.526" fill="url(#P)"/><path d="M3800.419-607.429c-10.164-2.079-13.398-11.203-9.933-27.835 2.772-13.63 15.246-29.8 23.562-38.924 4.042 11.666 9.24 31.416 6.468 45.045-3.465 16.632-10.049 23.793-20.097 21.714" fill="url(#Q)"/><path d="M3801.458-615.63c-8.431-1.732-11.088-9.24-8.316-23.1 2.31-11.318 12.705-24.716 19.52-32.34 3.35 9.587 7.623 26.104 5.313 37.423-2.657 13.86-8.2 19.75-16.517 18.018" fill="#fff"/><path d="M3552.21-511.448c-9.125 44.814-28.991 57.403-49.55 53.245-20.444-4.158-33.842-23.562-24.717-68.376 9.124-44.814 57.75-93.901 57.75-93.901s25.525 64.218 16.516 109.032" fill="#9cb1bf"/><path d="M3543.547-527.04c-9.125 44.813-28.99 57.518-49.55 53.245-20.443-4.158-33.841-23.562-24.717-68.376 9.125-44.814 57.75-93.902 57.75-93.902s25.641 64.218 16.517 109.032" fill="#78b5db"/><path d="M3495.383-479.57c-22.176-4.505-29.337-24.602-21.83-61.446 6.122-30.03 33.611-65.604 51.745-85.817 8.893 25.641 20.328 69.185 14.206 99.215-7.507 36.844-21.945 52.552-44.12 48.048" fill="url(#R)"/><path d="M3496.192-486.27c-20.79-4.273-27.49-23.1-20.444-57.518 5.775-28.182 31.532-61.446 48.51-80.388 8.316 24.024 18.942 64.795 13.283 92.977-7.046 34.42-20.56 49.203-41.35 44.93" fill="url(#S)"/><path d="M3497.116-492.968c-19.404-3.927-25.641-21.483-19.058-53.708 5.313-26.218 29.453-57.288 45.276-74.96 7.739 22.408 17.672 60.407 12.359 86.741-6.584 32.225-19.289 45.854-38.577 41.927" fill="url(#T)"/><path d="M3497.924-499.667c-18.018-3.696-23.793-19.982-17.787-49.78 4.967-24.371 27.258-53.246 42.042-69.532 7.161 20.79 16.401 56.133 11.435 80.504-6.006 29.799-17.672 42.504-35.69 38.808" fill="url(#U)"/><path d="M3498.733-506.25c-16.632-3.35-21.945-18.48-16.401-45.97 4.62-22.522 25.179-49.087 38.692-64.218 6.584 19.173 15.13 51.744 10.626 74.267-5.428 27.489-16.285 39.27-32.917 35.92" fill="url(#V)"/><path d="M3499.657-512.95c-15.246-3.118-20.097-16.863-15.015-42.042 4.158-20.559 23.1-44.93 35.458-58.79 6.006 17.557 13.86 47.356 9.702 68.03-5.082 25.064-15.015 35.92-30.145 32.802" fill="url(#W)"/><path d="M3500.465-519.649c-13.86-2.772-18.249-15.361-13.629-38.23 3.812-18.711 20.906-40.887 32.225-53.361 5.544 15.939 12.59 43.081 8.778 61.677-4.62 22.984-13.514 32.686-27.374 29.914" fill="url(#X)"/><path d="M3501.274-526.348c-12.474-2.54-16.401-13.744-12.243-34.303 3.35-16.863 18.826-36.73 28.99-48.048 4.967 14.322 11.32 38.692 7.97 55.44-4.158 20.674-12.243 29.452-24.717 26.911" fill="url(#Y)"/><path d="M3502.198-533.047c-11.088-2.194-14.553-12.243-10.857-30.492 3.003-14.9 16.747-32.57 25.756-42.62 4.39 12.706 10.049 34.304 7.046 49.204-3.812 18.364-10.973 26.218-21.945 23.908" fill="url(#Z)"/><path d="M3503.006-539.746c-9.702-1.963-12.82-10.626-9.47-26.565 2.656-13.051 14.552-28.413 22.406-37.19 3.812 11.087 8.778 30.03 6.122 42.965-3.119 16.055-9.471 22.87-19.058 20.79" fill="url(#aa)"/><path d="M3503.815-546.33c-8.2-1.616-10.857-9.124-8.085-22.753 2.31-11.088 12.474-24.37 19.173-31.762 3.234 9.47 7.507 25.64 5.313 36.729-2.772 13.629-8.085 19.404-16.401 17.787" fill="url(#ab)"/><path d="M3504.739-553.028c-6.815-1.386-9.125-7.623-6.7-18.827 1.849-9.24 10.396-20.212 15.94-26.45 2.656 7.855 6.237 21.253 4.389 30.493-2.426 11.319-6.815 16.17-13.63 14.784" fill="#fff"/><use xlink:href="#ac" width="100%" height="100%"/><use xlink:href="#ad" width="100%" height="100%"/><use xlink:href="#ae" width="100%" height="100%"/><use xlink:href="#af" width="100%" height="100%"/><use xlink:href="#ag" width="100%" height="100%"/><use xlink:href="#ah" width="100%" height="100%"/><use xlink:href="#ai" width="100%" height="100%"/><use xlink:href="#aj" width="100%" height="100%"/><use xlink:href="#ak" width="100%" height="100%"/><use xlink:href="#al" width="100%" height="100%"/><use xlink:href="#am" width="100%" height="100%"/><use xlink:href="#an" width="100%" height="100%"/><use xlink:href="#ao" width="100%" height="100%"/><path d="M4041.583-987.54c-4.274 0-8.316.463-12.359 1.271-2.31-26.565-24.37-47.355-51.513-47.355-5.89 0-11.434 1.155-16.632 3.003-10.972-49.203-54.631-85.932-107.184-85.932-43.774 0-81.427 25.872-99.099 62.948-9.933-8.778-22.869-14.322-37.19-14.322-30.493 0-55.094 24.14-56.365 54.17-11.78-6.584-25.179-10.742-39.732-10.742-45.045 0-81.658 36.613-81.658 81.658s36.613 81.659 81.658 81.659h420.074c34.88 0 63.178-28.298 63.178-63.179.116-34.88-28.182-63.178-63.178-63.178" fill="#9cb1bf"/><path d="M4033.844-1000.36c-4.158 0-8.316.462-12.358 1.27-2.31-26.564-24.37-47.354-51.513-47.354-5.89 0-11.435 1.155-16.632 3.003-10.973-49.203-54.632-85.932-107.184-85.932-43.775 0-81.312 25.872-98.984 63.063-9.933-8.778-22.869-14.322-37.19-14.322-30.377 0-55.094 24.14-56.365 54.17-11.78-6.584-25.294-10.742-39.732-10.742-45.045 0-81.658 36.498-81.658 81.658 0 45.16 36.613 81.543 81.658 81.543h420.074c34.88 0 63.294-28.297 63.294-63.178-.231-34.881-28.529-63.179-63.41-63.179" fill="url(#ap)"/><path d="M3710.098-1079.362c14.206 0 26.796 5.66 36.267 13.976 2.079-4.39 5.775-7.508 8.547-11.55 2.772-4.043 6.468-9.471 9.817-13.167 19.173-22.523 47.24-36.845 78.656-37.653 9.009-.231 17.787.693 26.334 2.54 40.078 8.894 71.84 40.195 81.543 80.273 4.85-1.04 9.933-1.501 15.361-.924 2.772 0 5.89 1.733 8.432 2.195 2.54.462 6.468.693 8.893 1.501 2.888.693 5.544 1.617 8.2 2.888 12.128 5.66 21.715 16.516 25.526 29.914.809 2.426 1.502 6.468 1.964 9.125.115.924.577 1.617.693 2.54 1.732-.346 4.62-.808 6.352-1.039 2.195-.23 4.505-.462 6.7-.462 18.595 0 35.227 8.894 45.39 22.176 10.165 13.283 13.976 29.915 10.858 45.392 0 30.954-32.225 56.133-63.179 56.133h-403.095c-40.078 0-81.658-32.456-81.658-72.534-4.158-20.097.577-41.696 13.629-59.02 13.167-17.441 34.65-28.991 58.905-28.991 11.088 0 21.598 2.425 31.185 6.699 2.656 1.155 6.352 3.003 8.893 4.504.116-2.194 1.04-3.927 1.386-6.006.924-5.313 2.772-12.474 5.198-17.094 8.547-18.48 27.373-31.416 49.203-31.416" fill="url(#aq)"/><path d="M3710.444-1078.091c14.091 0 26.334 5.66 35.343 13.629 1.848-3.927 6.584-5.313 8.894-8.778 2.425-3.58 6.583-10.164 9.47-13.283 18.365-23.1 45.739-38 76.577-39.616 8.894-.462 17.556.23 25.988 1.848 39.963 7.738 72.072 38.23 82.351 77.847 4.505-.231 9.24 0 14.091 1.155 2.426 0 5.429 3.118 7.739 3.465 2.31.462 7.16 0 9.355.808 3.119.462 6.006 1.155 8.778 2.195 13.167 4.966 23.562 16.516 27.143 30.723.693 2.194 1.501 7.392 1.848 9.586.115.809.924 1.386 1.04 2.195 1.5-.347 5.197-.924 6.698-1.155 2.31-.347 4.736-.462 7.161-.462 19.75 0 37.076 10.626 45.97 25.872 8.893 15.13 9.355 32.57 3.233 46.2 0 27.142-36.036 49.087-63.178 49.087h-386.117c-35.112 0-81.543-28.413-81.543-63.41-8.316-17.555-8.085-40.309 3.465-60.406 11.55-19.981 34.188-34.072 60.06-34.072 11.088 0 21.714 2.54 31.532 7.045 2.31 1.04 6.814 3.35 9.009 4.62.115-1.963 1.732-3.003 2.079-4.85.808-4.62 2.54-13.399 4.62-17.441 7.507-19.058 26.334-32.802 48.394-32.802" fill="url(#ar)"/><path d="M3710.675-1076.705c13.976 0 25.872 5.775 34.42 13.282 1.616-3.35 7.276-3.003 9.355-6.121 2.079-3.003 6.583-10.742 9.009-13.398 17.556-23.562 44.236-39.155 74.613-41.58 8.662-.693 17.325-.231 25.756 1.155 39.732 6.699 72.419 36.382 83.276 75.421a47.832 47.832 0 0 1 12.705 3.234c2.079 0 5.082 4.505 7.045 4.851 1.964.347 7.97-.577 9.702.116 3.234.115 6.353.693 9.24 1.617 14.207 4.273 25.526 16.4 28.875 31.531.578 1.848 1.386 8.2 1.733 10.164.115.693 1.27 1.04 1.386 1.733 1.27-.231 5.775-1.155 7.045-1.27 2.426-.347 4.967-.578 7.508-.578 20.905 0 38.923 12.358 46.546 29.452 7.623 17.094 4.851 35.228-4.389 46.893 0 23.216-39.847 42.042-63.178 42.042h-369.138c-30.03 0-81.543-24.37-81.543-54.4-12.59-15.015-16.632-39.04-6.815-61.677 9.818-22.638 33.726-39.155 61.215-39.155 11.088 0 21.83 2.657 31.763 7.392 1.963.809 7.276 3.696 9.124 4.736.116-1.617 2.541-1.964 2.772-3.58.693-3.928 2.31-14.207 4.043-17.672 6.814-19.866 25.64-34.188 47.932-34.188" fill="url(#as)"/><path d="M3710.906-1075.435c13.86 0 25.41 5.775 33.495 13.052 1.27-2.772 7.97-.809 9.702-3.35 1.733-2.54 6.584-11.319 8.663-13.513 16.747-24.14 42.735-40.31 72.534-43.428 8.547-.924 17.094-.693 25.41.462 39.616 5.544 72.65 34.419 84.2 72.996a51.337 51.337 0 0 1 11.434 5.428c1.732 0 4.735 5.89 6.352 6.237 1.617.347 8.663-1.27 10.164-.693a38.846 38.846 0 0 1 9.818.924c15.246 3.58 27.373 16.286 30.492 32.34.462 1.502 1.386 9.01 1.617 10.626.115.578 1.617.809 1.732 1.386 1.155-.23 6.353-1.27 7.508-1.386 2.54-.346 5.197-.693 7.854-.693 22.06 0 40.887 14.207 47.24 33.149 6.352 18.942.23 37.884-12.013 47.586 0 19.404-43.774 35.112-63.063 35.112h-352.16c-25.063 0-81.542-20.213-81.542-45.276-16.748-12.474-25.295-37.769-17.094-63.063 8.2-25.295 33.148-44.237 62.485-44.237 11.204 0 21.945 2.657 31.994 7.739 1.732.693 7.738 4.042 9.24 4.966.115-1.386 3.234-1.04 3.465-2.31.577-3.35 1.963-15.13 3.58-18.018 5.544-20.905 24.486-36.036 46.893-36.036" fill="url(#at)"/><path d="M3711.137-1074.049c13.86 0 24.833 5.89 32.571 12.705 1.04-2.194 8.663 1.386 10.049-.577 1.386-2.08 6.583-11.897 8.2-13.745 15.824-24.717 41.35-41.464 70.57-45.391 8.317-1.155 16.748-1.155 25.18-.231 39.5 4.389 72.88 32.57 85.008 70.57 3.465 1.964 6.814 4.39 10.164 7.508 1.386 0 4.389 7.392 5.66 7.623 1.27.23 9.355-1.848 10.625-1.386 3.696-.462 7.046-.347 10.395.346 16.286 2.888 29.337 16.17 32.225 33.149.346 1.27 1.386 9.817 1.501 11.203.116.462 1.964.462 2.08.924.923-.23 6.93-1.386 7.853-1.501a48.476 48.476 0 0 1 8.316-.693c23.216 0 42.735 15.939 47.817 36.729 5.082 20.79-4.273 40.54-19.75 48.279 0 15.477-47.586 28.066-63.063 28.066h-335.181c-19.982 0-81.428-16.17-81.428-36.267-20.905-10.048-33.957-36.498-27.373-64.333 6.583-27.951 32.686-49.434 63.64-49.434 11.204 0 22.06 2.772 32.225 7.97 1.386.577 8.2 4.388 9.355 5.081 0-1.04 3.927 0 4.043-1.04.462-2.656 1.732-16.054 3.003-18.248 4.735-21.483 23.793-37.307 46.315-37.307" fill="url(#au)"/><path d="M3711.484-1072.778c13.744 0 24.37 6.006 31.647 12.358.808-1.617 9.47 3.696 10.51 2.08 1.04-1.502 6.584-12.475 7.854-13.86 15.015-25.295 39.848-42.62 68.492-47.356 8.2-1.386 16.516-1.732 24.832-.924 39.386 3.35 73.227 30.608 85.932 68.145 3.119 2.772 6.006 5.89 8.778 9.587 1.04 0 4.043 8.778 4.967 8.893.924.231 10.048-2.425 10.972-2.194 3.927-.693 7.508-.809 10.857-.347 17.325 2.195 31.3 16.055 33.842 34.073.346.924 1.27 10.741 1.386 11.665 0 .347 2.31.231 2.425.578.693-.116 7.508-1.502 8.2-1.617 2.773-.462 5.66-.809 8.663-.809 24.37 0 44.583 17.787 48.395 40.425 3.811 22.638-8.894 43.197-27.374 49.088 0 11.665-51.397 21.02-63.063 21.02h-318.202c-15.015 0-81.428-12.127-81.428-27.142-25.063-7.507-42.504-35.112-37.537-65.72 4.966-30.607 32.224-54.515 64.795-54.515 11.204 0 22.176 2.887 32.456 8.316 1.04.462 8.547 4.735 9.586 5.197 0-.808 4.62.924 4.736.116.346-1.964 1.501-16.863 2.425-18.596 3.927-21.83 22.985-38.461 45.854-38.461" fill="url(#av)"/><path d="M3711.715-1071.392c13.629 0 23.908 6.006 30.723 12.012.577-1.155 10.164 5.89 10.857 4.85.693-1.039 6.583-13.05 7.392-13.975 14.206-25.872 38.346-43.774 66.528-49.318 7.97-1.617 16.285-2.195 24.601-1.617 39.27 2.194 73.458 28.644 86.856 65.72 2.772 3.58 5.198 7.391 7.508 11.665.693 0 3.696 10.164 4.273 10.28.693.115 10.857-3.12 11.435-2.888 4.042-.924 7.854-1.27 11.434-1.04 18.25 1.502 33.149 15.94 35.574 34.881.231.578 1.27 11.55 1.27 12.128 0 .23 2.773-.116 2.773.115.462-.115 8.085-1.617 8.547-1.617 2.887-.462 5.89-.808 9.009-.808 25.41 0 46.546 19.52 49.087 44.005 2.541 24.486-13.398 45.97-34.996 49.78 0 7.74-55.21 13.976-63.063 13.976h-301.224c-10.049 0-81.428-8.085-81.428-18.133-29.337-4.967-51.166-33.842-47.817-67.106 3.234-33.148 31.647-59.598 65.95-59.598 11.32 0 22.292 3.003 32.687 8.663.693.23 9.01 4.966 9.702 5.428 0-.577 5.313 1.964 5.429 1.386.23-1.27 1.27-17.787 1.848-18.942 2.887-22.522 22.06-39.847 45.045-39.847" fill="url(#aw)"/><path d="M3711.946-1070.122c13.513 0 23.446 6.122 29.799 11.666.23-.578 10.857 8.085 11.203 7.623.347-.462 6.584-13.63 7.046-14.091 13.398-26.45 36.844-44.93 64.564-51.282 7.854-1.848 16.055-2.657 24.255-2.426 39.155 1.155 73.805 26.796 87.665 63.294a77.69 77.69 0 0 1 6.121 13.745c.347 0 3.234 11.55 3.58 11.665.347.116 11.55-3.696 11.897-3.58 4.274-1.27 8.2-1.848 12.012-1.617 19.289.693 35.112 15.823 37.191 35.69.116.346 1.155 12.358 1.27 12.704 0 .116 3.12-.346 3.12-.23.23 0 8.662-1.733 8.893-1.733 3.003-.578 6.237-.924 9.355-.924 26.565 0 48.395 21.252 49.665 47.701 1.27 26.334-18.018 48.626-42.62 50.474 0 3.927-59.135 7.045-62.947 7.045h-284.13c-4.966 0-81.427-4.042-81.427-9.009-33.495-2.54-59.714-32.57-58.097-68.376 1.617-35.805 31.185-64.68 67.221-64.68 11.32 0 22.407 3.003 32.918 9.01.346.115 9.47 5.312 9.817 5.543 0-.23 6.006 2.888 6.122 2.657.115-.693 1.04-18.596 1.386-19.173 1.848-23.562 20.905-41.696 44.12-41.696" fill="url(#ax)"/><path d="M4029.57-885.9h-411.526c-37.653 0-68.376-31.3-68.376-69.761 0-38.462 30.723-69.762 68.376-69.762 11.32 0 22.523 3.118 33.149 9.24l16.632 9.586.808-19.52c.924-23.908 20.097-42.734 43.544-42.734 13.398 0 22.984 6.121 28.76 11.434l11.665 10.395 6.699-14.206c16.054-34.65 49.203-56.249 86.51-56.249 44.467 0 83.737 32.225 93.439 76.692l2.887 13.052 12.243-4.39c4.505-1.5 8.547-2.31 12.474-2.31 20.328 0 36.96 15.709 38.924 36.499l1.155 13.167 12.705-2.541c3.234-.578 6.468-1.04 9.817-1.04 27.72 0 50.358 23.1 50.358 51.282 0 28.182-22.522 51.167-50.242 51.167" fill="url(#ay)"/><path d="M3965.584-794.308c-5.775 0-11.435.578-16.863 1.733-3.234-36.383-33.495-64.796-70.57-64.796-8.086 0-15.593 1.617-22.754 4.043-15.015-67.337-74.96-117.695-146.8-117.695-60.06 0-111.458 35.459-135.713 86.279-13.63-12.012-31.416-19.635-51.051-19.635-41.696 0-75.422 33.033-77.27 74.266-16.17-9.009-34.65-14.668-54.516-14.668-61.677 0-111.804 50.011-111.804 111.92 0 61.792 50.127 111.803 111.804 111.803h575.421c47.817 0 86.625-38.808 86.625-86.51 0-47.932-38.692-86.74-86.51-86.74" fill="#9cb1bf"/><path d="M3952.879-810.131c-5.775 0-11.435.577-16.863 1.732-3.234-36.267-33.495-64.795-70.57-64.795-7.97 0-15.593 1.617-22.754 4.042-15.015-67.336-74.96-117.694-146.8-117.694-60.06 0-111.458 35.458-135.713 86.278-13.63-12.012-31.416-19.52-51.051-19.52-41.696 0-75.422 33.034-77.27 74.267-16.17-9.124-34.534-14.784-54.516-14.784-61.792 0-111.804 50.127-111.804 111.804 0 61.793 50.012 111.804 111.804 111.804h575.421c47.817 0 86.625-38.808 86.625-86.625.116-47.817-38.692-86.51-86.51-86.51" fill="url(#az)"/><path d="M3509.474-918.355c19.52 0 36.73 7.623 49.78 19.173 2.888-6.121 7.97-10.28 11.666-15.823 3.812-5.544 8.894-13.052 13.398-18.018 26.334-30.723 64.68-50.474 107.762-51.513a144.4 144.4 0 0 1 34.765 3.234c55.44 11.78 99.446 54.978 112.844 110.302 6.699-1.386 13.629-2.079 20.905-1.27 3.812 0 7.97 2.31 11.55 3.003 3.58.577 8.894.924 12.243 2.079 3.927.924 7.739 2.31 11.32 3.927 16.747 7.738 29.683 22.753 34.996 41.002 1.155 3.35 2.079 8.894 2.656 12.474.231 1.155 1.04 2.195 1.155 3.465 2.195-.462 5.775-1.04 8.085-1.27 3.234-.347 6.468-.578 9.702-.578 25.41 0 48.164 12.128 62.024 30.377 13.975 18.249 19.173 41.002 14.9 62.254 0 42.504-46.432 76.923-88.936 76.923h-562.138c-60.638 0-109.84-49.203-109.84-110.071 0-60.753 49.202-110.072 109.84-110.072 15.246 0 29.568 3.35 42.85 9.24 3.696 1.502 8.663 4.158 12.128 6.122.115-3.003 1.501-5.429 1.963-8.316 1.27-7.277 3.812-17.094 7.046-23.331 11.665-25.641 37.422-43.313 67.336-43.313" fill="url(#aA)"/><path d="M3509.82-916.507c19.29 0 36.037 7.739 48.395 18.711 2.541-5.313 9.01-7.276 12.243-12.127 3.234-4.851 8.894-13.86 12.936-18.25 25.18-31.53 62.601-51.974 104.99-54.169a149.42 149.42 0 0 1 34.534 2.31c55.21 10.395 99.792 52.322 113.883 106.953 6.237-.346 12.59 0 19.173 1.617 3.35 0 7.508 4.274 10.626 4.851 3.119.578 9.818.116 12.82 1.155 4.274.578 8.201 1.617 12.013 3.003 18.018 6.815 32.34 22.638 37.19 42.158.925 3.003 2.08 10.048 2.542 13.167.115 1.04 1.617 1.848 1.732 2.887 1.964-.346 6.468-1.155 8.432-1.386a73.884 73.884 0 0 1 10.164-.693c27.027 0 50.704 14.553 62.947 35.343 12.243 20.79 12.936 44.583 4.39 63.179 0 37.19-54.17 67.336-91.361 67.336h-548.856c-59.483 0-107.762-48.394-107.762-108.223 0-59.714 48.28-108.224 107.762-108.224 15.246 0 29.799 3.465 43.197 9.702 3.234 1.386 9.355 4.62 12.358 6.353.116-2.657 2.426-4.043 2.888-6.7 1.155-6.352 3.465-18.248 6.352-23.792 10.395-26.45 36.152-45.16 66.413-45.16" fill="url(#aB)"/><path d="M3510.167-914.774c19.173 0 35.343 7.854 47.124 18.249 2.195-4.505 9.933-4.158 12.82-8.316 2.773-4.158 9.01-14.669 12.36-18.365 24.023-32.34 60.637-53.592 102.217-56.826 11.55-.924 22.984-.462 34.303 1.386 54.978 8.894 100.023 49.78 115.038 103.604 5.66.693 11.55 1.963 17.325 4.389 2.888 0 6.93 6.121 9.702 6.699 2.657.462 10.857-.809 13.398.115 4.505.116 8.663.924 12.82 2.195 19.52 5.89 34.997 22.407 39.502 43.312.808 2.541 1.963 11.204 2.31 13.86.115.924 2.31 1.386 2.425 2.31 1.617-.346 7.161-1.386 8.778-1.501 3.465-.462 7.046-.809 10.626-.809 28.644 0 53.361 16.979 63.756 40.31 10.395 23.33 6.584 48.279-6.006 64.218 0 31.878-61.792 57.75-93.67 57.75H3379.42c-58.327 0-105.798-47.586-105.798-106.376 0-58.674 47.355-106.375 105.798-106.375 15.246 0 29.915 3.58 43.544 10.164 2.772 1.155 9.933 5.082 12.474 6.468.115-2.31 3.465-2.772 3.811-4.967.924-5.428 3.119-19.404 5.544-24.14 9.01-27.604 34.881-47.354 65.373-47.354" fill="url(#aC)"/><path d="M3510.514-912.926c19.057 0 34.765 7.97 45.853 17.787 1.848-3.812 10.973-1.155 13.283-4.62 2.31-3.465 9.009-15.477 11.78-18.596 22.87-33.148 58.675-55.209 99.446-59.482 11.32-1.27 22.754-1.04 33.957.462 54.747 7.392 100.254 47.124 116.078 100.254 5.197 1.732 10.395 3.927 15.592 7.276 2.426 0 6.468 8.085 8.663 8.547 2.194.347 11.896-1.617 13.975-.924 4.736-.23 9.24.231 13.514 1.27 20.905 4.967 37.537 22.292 41.81 44.353.694 2.079 1.849 12.358 2.195 14.553.116.693 3.003.924 3.003 1.732 1.386-.23 7.739-1.501 9.24-1.617 3.58-.577 7.392-.924 11.088-.924 30.146 0 55.902 19.404 64.565 45.276 8.662 25.872.346 51.975-16.517 65.258 0 26.565-69.53 48.048-96.096 48.048h-522.29c-57.289 0-103.72-46.778-103.72-104.528 0-57.75 46.547-104.527 103.72-104.527 15.36 0 30.03 3.696 43.774 10.51 2.31.924 10.51 5.429 12.705 6.7.115-1.849 4.389-1.387 4.735-3.235.809-4.504 2.772-20.674 4.851-24.601 8.2-28.182 34.073-48.972 64.796-48.972" fill="url(#aD)"/><path d="M3510.86-911.078c18.827 0 34.073 7.97 44.583 17.325 1.386-3.003 12.012 1.963 13.86-.809 1.848-2.772 9.01-16.285 11.32-18.826 21.713-33.842 56.594-56.826 96.788-62.14 11.204-1.5 22.523-1.732 33.726-.461 54.516 5.89 100.6 44.583 117.233 96.904 4.735 2.772 9.355 6.006 13.744 10.049 1.848 0 5.89 10.048 7.739 10.395 1.732.346 12.82-2.426 14.553-1.848 5.082-.578 9.702-.462 14.206.346 22.292 4.043 40.194 22.176 44.121 45.507.578 1.733 1.848 13.398 2.08 15.246.115.578 3.695.462 3.695 1.155 1.155-.23 8.432-1.617 9.587-1.732 3.811-.578 7.623-1.04 11.55-1.04 31.762 0 58.443 21.83 65.488 50.358 6.93 28.413-5.89 55.556-27.027 66.182 0 21.252-77.154 38.461-98.406 38.461h-509.008c-56.133 0-101.756-45.969-101.756-102.68 0-56.71 45.623-102.794 101.756-102.794 15.361 0 30.26 3.811 44.12 10.972 1.849.809 11.089 5.89 12.821 6.93.116-1.501 5.429-.115 5.66-1.501.577-3.58 2.425-21.83 4.042-24.948 6.584-29.337 32.571-51.051 63.525-51.051" fill="url(#aE)"/><path d="M3511.322-909.23c18.711 0 33.495 8.085 43.313 16.863 1.04-2.31 12.936 4.966 14.322 2.887 1.386-2.079 9.009-17.094 10.741-18.942 20.675-34.65 54.632-58.327 94.017-64.795 10.973-1.848 22.292-2.31 33.495-1.386 54.285 4.389 100.832 41.926 118.272 93.67 4.274 3.696 8.2 7.97 12.012 12.936 1.386 0 5.429 12.012 6.815 12.243 1.386.231 13.86-3.35 15.13-2.887 5.313-1.04 10.28-1.155 15.015-.578 23.678 3.003 42.85 21.945 46.316 46.662.462 1.27 1.732 14.553 1.963 15.94.116.461 4.274.115 4.39.461.808-.115 9.124-1.732 10.048-1.848a69.316 69.316 0 0 1 12.012-1.04c33.264 0 61.1 24.256 66.297 55.325 5.197 31.07-12.128 59.252-37.422 67.221 0 15.94-84.893 28.875-100.832 28.875H3381.5c-54.978 0-99.676-45.16-99.676-100.947 0-55.67 44.698-100.947 99.676-100.947 15.477 0 30.377 3.927 44.468 11.435 1.386.577 11.665 6.352 12.936 7.045 0-1.155 6.352 1.27 6.583.116.462-2.772 2.08-22.985 3.35-25.41 5.082-30.261 31.185-52.9 62.485-52.9" fill="url(#aF)"/><path d="M3511.669-907.498c18.595 0 32.802 8.2 42.042 16.401.693-1.501 13.975 8.085 14.9 6.7.923-1.387 9.008-17.903 10.163-19.174 19.52-35.458 52.553-59.944 91.245-67.452 10.857-2.194 21.945-2.887 33.264-2.31 53.939 3.003 101.063 39.27 119.312 90.321a107.838 107.838 0 0 1 10.164 15.708c.924 0 4.966 13.86 5.89 14.091.924.116 14.9-4.158 15.708-3.811 5.66-1.386 10.742-1.848 15.708-1.502 25.064 2.08 45.392 21.83 48.626 47.702.23.808 1.732 15.708 1.848 16.632 0 .346 4.966-.347 4.966-.116.578-.115 9.818-1.963 10.395-1.963 4.043-.693 8.316-1.155 12.474-1.155 34.881 0 63.64 26.68 67.106 60.29 3.465 33.611-18.365 62.833-47.933 68.146 0 10.626-92.515 19.288-103.141 19.288h-482.328c-53.823 0-97.713-44.352-97.713-99.099 0-54.631 43.774-99.099 97.713-99.099 15.477 0 30.607 4.043 44.814 11.897.924.346 12.358 6.814 13.167 7.276 0-.808 7.392 2.657 7.507 1.848.347-1.848 1.733-24.255 2.541-25.756 3.927-31.07 30.03-54.863 61.562-54.863" fill="url(#aG)"/><path d="M3512.015-905.65c18.48 0 32.225 8.316 40.772 16.055.346-.809 14.9 11.088 15.361 10.395.462-.693 9.01-18.711 9.587-19.404 18.364-36.267 50.589-61.562 88.473-70.109 10.626-2.425 21.714-3.58 32.917-3.234 53.708 1.502 101.41 36.73 120.467 86.972 3.234 5.775 6.006 12.012 8.431 18.595.462 0 4.39 15.824 4.851 15.94.462.115 15.824-4.967 16.286-4.852 5.89-1.732 11.203-2.54 16.4-2.31 26.45 1.04 48.049 21.714 50.936 48.857.116.462 1.617 16.863 1.733 17.325 0 .115 5.66-.809 5.66-.693.23 0 10.51-2.08 10.856-2.08 4.158-.808 8.547-1.27 12.936-1.27 36.498 0 66.297 29.106 68.03 65.258 1.732 36.151-24.602 66.528-58.328 69.184 0 5.313-100.254 9.587-105.567 9.587h-469.045c-52.668 0-95.634-43.544-95.634-97.251 0-53.708 42.966-97.367 95.634-97.367 15.477 0 30.723 4.158 45.16 12.243.462.231 12.936 7.161 13.283 7.392 0-.346 8.431 3.927 8.431 3.58.116-.923 1.386-25.41 1.848-26.218 2.541-31.878 28.644-56.595 60.522-56.595" fill="url(#aH)"/><path d="M3947.104-653.398h-563.64c-51.629 0-93.67-42.735-93.67-95.403 0-52.668 42.041-95.518 93.67-95.518 15.592 0 30.838 4.273 45.507 12.705l22.869 12.936 1.04-26.565c1.27-32.802 27.488-58.559 59.597-58.559 18.25 0 31.532 8.432 39.501 15.593l15.94 14.206 9.124-19.52c22.176-47.47 67.452-77.038 118.387-77.038 60.869 0 114.807 44.237 128.09 104.99l3.927 17.787 16.863-5.89c6.121-2.195 11.78-3.235 17.21-3.235 27.835 0 50.704 21.599 53.245 50.012l1.501 18.018 17.44-3.465c4.39-.809 8.894-1.386 13.399-1.386 38 0 68.838 31.531 68.838 70.224 0 38.692-30.839 70.108-68.838 70.108" fill="url(#aI)"/></svg>