<svg xmlns="http://www.w3.org/2000/svg" xmlns:xlink="http://www.w3.org/1999/xlink" viewBox="2239.7 294.1 841.9 841.90004" width="841.9" height="841.9"><defs><linearGradient id="l" gradientUnits="userSpaceOnUse" y1="749.23" x2="0" y2="311.95" gradientTransform="translate(-446.128 -62.138) scale(1.155)"><stop stop-color="#df8800"/><stop offset="1" stop-color="#ffb11f"/></linearGradient><linearGradient id="V" gradientUnits="userSpaceOnUse" y1="841.35" x2="0" y2="628.25" xlink:href="#a" gradientTransform="translate(-446.128 -62.138) scale(1.155)"/><linearGradient id="w" gradientUnits="userSpaceOnUse" y1="721.04" x2="0" y2="340.13" gradientTransform="translate(-446.128 -62.138) scale(1.155)"><stop stop-color="#e69e00"/><stop offset="1" stop-color="#fff200"/></linearGradient><linearGradient id="U" gradientUnits="userSpaceOnUse" y1="842.72" x2="0" y2="627.47" xlink:href="#b" gradientTransform="translate(-446.128 -62.138) scale(1.155)"/><linearGradient id="T" gradientUnits="userSpaceOnUse" y1="844.09" x2="0" y2="626.62" xlink:href="#c" gradientTransform="translate(-446.128 -62.138) scale(1.155)"/><linearGradient id="Q" gradientUnits="userSpaceOnUse" y1="848.21" x2="0" y2="623.62" xlink:href="#d" gradientTransform="translate(-446.128 -62.138) scale(1.155)"/><linearGradient id="S" gradientUnits="userSpaceOnUse" y1="845.46" x2="0" y2="625.69" xlink:href="#e" gradientTransform="translate(-446.128 -62.138) scale(1.155)"/><linearGradient id="R" gradientUnits="userSpaceOnUse" y1="846.83" x2="0" y2="624.69" xlink:href="#f" gradientTransform="translate(-446.128 -62.138) scale(1.155)"/><linearGradient id="m" gradientUnits="userSpaceOnUse" y1="746.67" x2="0" y2="314.51" gradientTransform="translate(-446.128 -62.138) scale(1.155)"><stop stop-color="#e08a00"/><stop offset="1" stop-color="#ffb71c"/></linearGradient><linearGradient id="n" gradientUnits="userSpaceOnUse" y1="744.1" x2="0" y2="317.07" gradientTransform="translate(-446.128 -62.138) scale(1.155)"><stop stop-color="#e08c00"/><stop offset="1" stop-color="#ffbd19"/></linearGradient><linearGradient id="t" gradientUnits="userSpaceOnUse" y1="728.73" x2="0" y2="332.44" gradientTransform="translate(-446.128 -62.138) scale(1.155)"><stop stop-color="#e49800"/><stop offset="1" stop-color="#ffe008"/></linearGradient><linearGradient id="v" gradientUnits="userSpaceOnUse" y1="723.6" x2="0" y2="337.56" gradientTransform="translate(-446.128 -62.138) scale(1.155)"><stop stop-color="#e59c00"/><stop offset="1" stop-color="#ffec03"/></linearGradient><linearGradient id="u" gradientUnits="userSpaceOnUse" y1="726.17" x2="0" y2="335" gradientTransform="translate(-446.128 -62.138) scale(1.155)"><stop stop-color="#e59a00"/><stop offset="1" stop-color="#ffe606"/></linearGradient><linearGradient id="s" gradientUnits="userSpaceOnUse" y1="731.29" x2="0" y2="329.88" gradientTransform="translate(-446.128 -62.138) scale(1.155)"><stop stop-color="#e39600"/><stop offset="1" stop-color="#ffda0b"/></linearGradient><linearGradient id="r" gradientUnits="userSpaceOnUse" y1="733.85" x2="0" y2="327.32" gradientTransform="translate(-446.128 -62.138) scale(1.155)"><stop stop-color="#e39400"/><stop offset="1" stop-color="#ffd40e"/></linearGradient><linearGradient id="o" gradientUnits="userSpaceOnUse" y1="741.54" x2="0" y2="319.63" gradientTransform="translate(-446.128 -62.138) scale(1.155)"><stop stop-color="#e18e00"/><stop offset="1" stop-color="#ffc317"/></linearGradient><linearGradient id="q" gradientUnits="userSpaceOnUse" y1="736.42" x2="0" y2="324.76" gradientTransform="translate(-446.128 -62.138) scale(1.155)"><stop stop-color="#e29200"/><stop offset="1" stop-color="#ffcf11"/></linearGradient><linearGradient id="p" gradientUnits="userSpaceOnUse" y1="738.98" x2="0" y2="322.2" gradientTransform="translate(-446.128 -62.138) scale(1.155)"><stop stop-color="#e29000"/><stop offset="1" stop-color="#ffc914"/></linearGradient><linearGradient id="P" gradientUnits="userSpaceOnUse" y1="849.58" x2="0" y2="622.47" xlink:href="#g" gradientTransform="translate(-446.128 -62.138) scale(1.155)"/><linearGradient id="j" gradientUnits="userSpaceOnUse" y1="674.5" x2="0" y2="504.9"><stop stop-color="#97bacd"/><stop offset="1" stop-color="#d0e1eb"/></linearGradient><linearGradient id="k" gradientUnits="userSpaceOnUse" y1="675.49" x2="0" y2="503.91"><stop stop-color="#95b9cc"/><stop offset="1" stop-color="#cddee8"/></linearGradient><linearGradient id="O" gradientUnits="userSpaceOnUse" y1="850.95" x2="0" y2="621.25" xlink:href="#h" gradientTransform="translate(-446.128 -62.138) scale(1.155)"/><linearGradient id="B" gradientUnits="userSpaceOnUse" x1="2545.17" x2="2632.7" xlink:href="#i" gradientTransform="translate(-446.128 -62.138) scale(1.155)"/><linearGradient id="A" gradientUnits="userSpaceOnUse" x1="2586.38" y1="997.37" x2="2644.74" y2="995.28" xlink:href="#i" gradientTransform="translate(-446.128 -62.138) scale(1.155)"/><linearGradient id="i" gradientUnits="userSpaceOnUse" x1="2654.32" x2="2760.61"><stop offset=".291" stop-color="#fff"/><stop offset="1" stop-color="#def1ff"/></linearGradient><linearGradient id="z" gradientUnits="userSpaceOnUse" x1="2519.9" x2="2607.43" xlink:href="#i" gradientTransform="translate(-446.128 -62.138) scale(1.155)"/><linearGradient id="y" gradientUnits="userSpaceOnUse" x1="2650.03" x2="2737.57" xlink:href="#i" gradientTransform="translate(-446.128 -62.138) scale(1.155)"/><linearGradient id="h" gradientUnits="userSpaceOnUse" y1="673.51" x2="0" y2="505.84"><stop stop-color="#99bbce"/><stop offset="1" stop-color="#d3e4ed"/></linearGradient><linearGradient id="g" gradientUnits="userSpaceOnUse" y1="672.51" x2="0" y2="506.73"><stop stop-color="#9bbccf"/><stop offset="1" stop-color="#d7e6f0"/></linearGradient><linearGradient id="a" gradientUnits="userSpaceOnUse" y1="666.55" x2="0" y2="510.94"><stop stop-color="#a7c2d4"/><stop offset="1" stop-color="#eaf7ff"/></linearGradient><linearGradient id="N" gradientUnits="userSpaceOnUse" y1="852.32" x2="0" y2="619.96" xlink:href="#j" gradientTransform="translate(-446.128 -62.138) scale(1.155)"/><linearGradient id="M" gradientUnits="userSpaceOnUse" y1="853.69" x2="0" y2="618.61" xlink:href="#k" gradientTransform="translate(-446.128 -62.138) scale(1.155)"/><linearGradient id="b" gradientUnits="userSpaceOnUse" y1="667.55" x2="0" y2="510.38"><stop stop-color="#a5c1d3"/><stop offset="1" stop-color="#e7f4fc"/></linearGradient><linearGradient id="c" gradientUnits="userSpaceOnUse" y1="668.54" x2="0" y2="509.76"><stop stop-color="#a3c0d2"/><stop offset="1" stop-color="#e4f1fa"/></linearGradient><linearGradient id="d" gradientUnits="userSpaceOnUse" y1="671.52" x2="0" y2="507.57"><stop stop-color="#9dbdd0"/><stop offset="1" stop-color="#dae9f2"/></linearGradient><linearGradient id="e" gradientUnits="userSpaceOnUse" y1="669.53" x2="0" y2="509.08"><stop stop-color="#a1bfd1"/><stop offset="1" stop-color="#e0eff7"/></linearGradient><linearGradient id="f" gradientUnits="userSpaceOnUse" y1="670.53" x2="0" y2="508.35"><stop stop-color="#9fbed0"/><stop offset="1" stop-color="#ddecf5"/></linearGradient><linearGradient xlink:href="#i" id="x" gradientUnits="userSpaceOnUse" x1="2654.32" x2="2760.61" gradientTransform="translate(-446.128 -62.138) scale(1.155)"/><linearGradient xlink:href="#k" id="C" gradientUnits="userSpaceOnUse" y1="675.49" x2="0" y2="503.91" gradientTransform="translate(-446.128 -62.138) scale(1.155)"/><linearGradient xlink:href="#j" id="D" gradientUnits="userSpaceOnUse" y1="674.5" x2="0" y2="504.9" gradientTransform="translate(-446.128 -62.138) scale(1.155)"/><linearGradient xlink:href="#h" id="E" gradientUnits="userSpaceOnUse" y1="673.51" x2="0" y2="505.84" gradientTransform="translate(-446.128 -62.138) scale(1.155)"/><linearGradient xlink:href="#g" id="F" gradientUnits="userSpaceOnUse" y1="672.51" x2="0" y2="506.73" gradientTransform="translate(-446.128 -62.138) scale(1.155)"/><linearGradient xlink:href="#d" id="G" gradientUnits="userSpaceOnUse" y1="671.52" x2="0" y2="507.57" gradientTransform="translate(-446.128 -62.138) scale(1.155)"/><linearGradient xlink:href="#f" id="H" gradientUnits="userSpaceOnUse" y1="670.53" x2="0" y2="508.35" gradientTransform="translate(-446.128 -62.138) scale(1.155)"/><linearGradient xlink:href="#e" id="I" gradientUnits="userSpaceOnUse" y1="669.53" x2="0" y2="509.08" gradientTransform="translate(-446.128 -62.138) scale(1.155)"/><linearGradient xlink:href="#c" id="J" gradientUnits="userSpaceOnUse" y1="668.54" x2="0" y2="509.76" gradientTransform="translate(-446.128 -62.138) scale(1.155)"/><linearGradient xlink:href="#b" id="K" gradientUnits="userSpaceOnUse" y1="667.55" x2="0" y2="510.38" gradientTransform="translate(-446.128 -62.138) scale(1.155)"/><linearGradient xlink:href="#a" id="L" gradientUnits="userSpaceOnUse" y1="666.55" x2="0" y2="510.94" gradientTransform="translate(-446.128 -62.138) scale(1.155)"/></defs><path d="M2566.805 344.076c20.328 26.796 53.477 26.796 73.69 0 20.327-26.681 40.424-21.368 44.582 11.896 4.274 33.264 32.918 49.896 63.872 36.845 30.954-13.052 45.622 1.732 32.57 32.57-12.935 30.955 3.581 59.714 36.845 63.872 33.264 4.158 38.693 24.255 11.897 44.583-26.796 20.213-26.796 53.477 0 73.689 26.68 20.328 21.367 40.31-11.897 44.583-33.264 4.158-49.896 32.918-36.844 63.872 13.051 30.954-1.617 45.622-32.571 32.57-30.954-12.935-59.598 3.581-63.872 36.845-4.158 33.38-24.255 38.577-44.583 12.012-20.212-26.796-53.476-26.796-73.689 0-20.328 26.68-40.31 21.368-44.583-12.012-4.158-33.264-32.917-49.896-63.871-36.844-30.954 13.051-45.623-1.617-32.571-32.571 13.051-30.954-3.58-59.598-36.845-63.872-33.264-4.273-38.692-24.255-11.896-44.583s26.796-53.476 0-73.689c-26.68-20.328-21.368-40.31 11.896-44.583 33.264-4.158 49.896-32.917 36.845-63.871-12.936-30.954 1.732-45.623 32.57-32.571 30.955 13.051 59.714-3.581 63.872-36.845 4.274-33.264 24.37-38.577 44.583-11.896" fill="#9cb1bf"/><path d="M2552.599 315.778c21.02 27.72 55.44 27.72 76.46 0 21.022-27.72 41.812-22.176 46.2 12.359 4.39 34.534 34.073 51.744 66.182 38.23 32.11-13.513 47.24 1.733 33.842 33.726-13.514 32.109 3.696 61.793 38.23 66.182 34.535 4.389 39.963 25.179 12.359 46.084-27.72 21.021-27.72 55.44 0 76.461 27.604 21.021 22.06 41.811-12.359 46.085-34.534 4.389-51.744 34.188-38.23 66.181 13.513 32.109-1.733 47.24-33.842 33.726-31.993-13.398-61.792 3.812-66.181 38.23-4.39 34.42-25.064 40.079-46.2 12.359-21.021-27.72-55.44-27.72-76.461 0s-41.811 22.06-46.2-12.358c-4.39-34.535-34.188-51.744-66.182-38.231-31.993 13.514-47.24-1.732-33.726-33.726 13.514-31.993-3.696-61.792-38.23-66.181-34.42-4.274-40.079-25.064-12.359-46.085s27.72-55.44 0-76.461-22.176-41.811 12.359-46.084c34.534-4.39 51.744-34.073 38.23-66.182-13.513-31.993 1.733-47.24 33.726-33.726 32.11 13.514 61.793-3.696 66.182-38.23 4.504-34.535 25.179-40.079 46.2-12.359" fill="url(#l)"/><path d="M2553.06 318.55c20.79 27.374 54.748 27.374 75.538 0 20.79-27.373 41.349-21.83 45.622 12.243 4.274 34.073 33.726 51.051 65.373 37.769 31.763-13.283 46.778 1.732 33.38 33.379-13.283 31.647 3.696 61.1 37.768 65.373 34.073 4.274 39.501 24.833 12.243 45.623-27.373 20.79-27.373 54.747 0 75.537 27.258 20.79 21.83 41.349-12.243 45.622-34.072 4.274-51.05 33.726-37.768 65.489 13.282 31.647-1.733 46.662-33.38 33.379-31.647-13.282-61.1 3.696-65.373 37.769-4.273 34.072-24.832 39.616-45.622 12.243-20.79-27.374-54.747-27.374-75.537 0-20.79 27.373-41.35 21.829-45.623-12.243-4.273-34.073-33.726-51.051-65.373-37.769-31.647 13.283-46.662-1.732-33.38-33.38 13.283-31.646-3.695-61.099-37.768-65.488-34.072-4.273-39.616-24.832-12.243-45.622 27.374-20.79 27.374-54.747 0-75.537-27.373-20.79-21.83-41.234 12.243-45.623 34.073-4.273 51.051-33.726 37.769-65.373-13.283-31.647 1.732-46.662 33.38-33.38 31.646 13.283 61.099-3.695 65.372-37.768 4.39-34.072 24.833-39.616 45.623-12.243" fill="url(#m)"/><path d="M2553.523 321.322c20.559 27.027 54.17 27.027 74.613 0 20.559-27.027 40.771-21.598 45.045 12.012 4.273 33.726 33.38 50.474 64.564 37.307 31.3-13.167 46.2 1.732 33.033 33.033-13.167 31.3 3.696 60.406 37.307 64.68 33.726 4.273 39.039 24.486 12.127 45.045-27.027 20.559-27.027 54.054 0 74.613 27.027 20.559 21.599 40.887-12.127 45.045-33.726 4.273-50.474 33.379-37.307 64.68 13.167 31.3-1.732 46.2-33.033 33.033-31.3-13.167-60.29 3.696-64.564 37.306-4.274 33.61-24.486 39.039-45.045 12.128-20.56-27.027-54.054-27.027-74.613 0-20.56 27.027-40.772 21.598-45.045-12.128-4.274-33.726-33.38-50.473-64.68-37.306-31.3 13.167-46.085-1.617-32.918-33.033 13.167-31.301-3.696-60.407-37.306-64.68-33.61-4.158-39.155-24.486-12.012-45.045 27.027-20.56 27.027-54.17 0-74.613-27.027-20.56-21.599-40.772 12.012-45.045 33.726-4.274 50.473-33.38 37.306-64.68-13.167-31.301 1.733-46.085 32.918-33.033 31.3 13.167 60.406-3.696 64.68-37.307 4.273-33.61 24.486-39.039 45.045-12.012" fill="url(#n)"/><path d="M2553.985 323.979c20.328 26.68 53.476 26.68 73.689 0 20.328-26.681 40.31-21.368 44.583 11.896 4.158 33.264 32.917 49.896 63.871 36.845 30.954-13.052 45.623 1.732 32.571 32.57-13.051 30.955 3.58 59.714 36.845 63.872 33.264 4.274 38.577 24.255 12.012 44.468-26.796 20.212-26.796 53.476 0 73.689 26.68 20.328 21.367 40.309-12.012 44.467-33.264 4.158-49.896 33.033-36.845 63.872 13.052 30.954-1.617 45.622-32.57 32.57-30.84-12.935-59.599 3.581-63.872 36.845-4.158 33.264-24.255 38.577-44.583 11.897-20.213-26.681-53.477-26.681-73.69 0-20.327 26.68-40.309 21.367-44.467-11.897-4.158-33.264-32.917-49.896-63.871-36.844-30.839 13.051-45.623-1.617-32.571-32.571 12.936-30.954-3.58-59.714-36.96-63.872-33.264-4.158-38.577-24.14-11.897-44.467 26.68-20.328 26.68-53.477 0-73.69-26.68-20.327-21.367-40.309 11.897-44.467 33.264-4.158 49.896-32.917 36.96-63.871-13.052-30.954 1.732-45.623 32.57-32.571 30.955 12.936 59.714-3.581 63.872-36.845 4.158-33.148 24.14-38.577 44.468-11.896" fill="url(#o)"/><path d="M2554.447 326.75c19.981 26.45 52.783 26.45 72.88 0 20.097-26.333 39.848-21.02 44.006 11.782 4.158 32.917 32.57 49.318 63.063 36.382 30.607-12.82 45.045 1.617 32.224 32.225-12.82 30.607 3.58 58.905 36.383 63.063 32.917 4.158 38.115 23.908 11.78 44.005-26.449 19.982-26.449 52.784 0 72.88 26.335 20.098 21.137 39.848-11.78 44.006-32.918 4.158-49.203 32.571-36.383 63.063 12.82 30.608-1.617 45.045-32.224 32.225-30.492-12.821-58.905 3.58-63.063 36.498-4.158 32.802-23.909 38.115-44.006 11.78-19.981-26.333-52.783-26.333-72.88 0-19.982 26.335-39.848 21.022-44.006-11.78-4.158-32.918-32.57-49.319-63.063-36.498-30.492 12.82-45.045-1.617-32.224-32.225 12.82-30.492-3.58-58.905-36.498-63.063-32.802-4.158-38.115-23.908-11.781-44.005 26.334-19.982 26.334-52.784 0-72.881-26.45-20.097-21.137-39.847 11.78-44.005 32.918-4.158 49.32-32.571 36.499-63.063-12.82-30.492 1.617-45.045 32.224-32.225 30.492 12.82 58.905-3.58 63.063-36.382 4.158-32.802 23.909-38.115 44.006-11.781" fill="url(#p)"/><path d="M2554.909 329.523c19.75 26.103 52.206 26.103 71.956 0 19.866-26.103 39.386-20.79 43.428 11.665 4.043 32.456 32.11 48.626 62.255 36.036 30.26-12.705 44.467 1.617 31.878 31.763-12.705 30.145 3.465 58.212 35.92 62.37 32.456 4.158 37.653 23.677 11.666 43.428-26.103 19.75-26.103 52.09 0 71.956 25.987 19.866 20.79 39.386-11.666 43.428-32.455 4.158-48.625 32.225-35.92 62.37 12.705 30.146-1.617 44.468-31.878 31.763-30.146-12.705-58.212 3.465-62.255 36.036-4.158 32.455-23.677 37.653-43.428 11.665-19.75-26.103-52.206-26.103-71.956 0-19.75 25.988-39.386 20.79-43.428-11.665-4.043-32.456-32.11-48.626-62.37-36.036-30.146 12.705-44.468-1.617-31.763-31.763 12.705-30.145-3.465-58.212-36.036-62.37-32.455-4.042-37.653-23.562-11.665-43.428 26.103-19.75 26.103-52.206 0-71.956-26.103-19.751-20.79-39.386 11.665-43.428 32.456-4.043 48.626-32.11 36.036-62.37-12.705-30.146 1.617-44.468 31.763-31.763 30.145 12.705 58.212-3.465 62.37-36.036 4.042-32.455 23.562-37.768 43.428-11.665" fill="url(#q)"/><path d="M2555.37 332.295c19.52 25.756 51.514 25.756 71.033 0 19.635-25.757 38.808-20.56 42.966 11.434 4.043 32.109 31.763 48.048 61.446 35.574 29.8-12.474 44.006 1.617 31.416 31.416-12.474 29.799 3.465 57.519 35.459 61.562 32.109 4.042 37.19 23.33 11.55 42.85-25.757 19.52-25.757 51.513 0 71.033 25.756 19.635 20.559 38.923-11.55 42.85-32.11 4.043-48.048 31.763-35.459 61.562 12.474 29.799-1.617 43.89-31.416 31.416s-57.403 3.465-61.446 35.574c-4.042 31.993-23.33 37.19-42.966 11.434-19.52-25.756-51.513-25.756-71.032 0-19.52 25.757-38.808 20.559-42.85-11.434-4.043-32.11-31.763-48.048-61.562-35.574-29.8 12.474-43.89-1.617-31.416-31.416 12.474-29.8-3.465-57.52-35.574-61.562-31.994-4.042-37.191-23.331-11.435-42.85 25.757-19.52 25.757-51.513 0-71.033-25.756-19.52-20.559-38.808 11.435-42.85 32.109-4.043 48.048-31.763 35.574-61.562-12.474-29.799 1.617-43.89 31.416-31.416s57.519-3.465 61.561-35.574c3.927-31.993 23.216-37.191 42.85-11.434" fill="url(#r)"/><path d="M2555.717 335.067c19.289 25.41 50.936 25.41 70.109 0 19.404-25.41 38.346-20.328 42.388 11.319 4.043 31.647 31.3 47.47 60.753 35.112 29.453-12.359 43.428 1.617 31.07 31.069-12.359 29.453 3.465 56.826 35.112 60.753 31.647 4.043 36.729 23.1 11.434 42.389-25.41 19.288-25.41 50.82 0 70.108 25.41 19.404 20.328 38.462-11.434 42.389-31.647 4.042-47.47 31.416-35.112 60.753 12.358 29.452-1.617 43.428-31.07 31.069-29.452-12.358-56.71 3.465-60.753 35.112-4.042 31.647-22.984 36.729-42.388 11.319-19.289-25.41-50.82-25.41-70.109 0-19.288 25.41-38.346 20.328-42.388-11.319-4.043-31.647-31.3-47.47-60.753-35.112-29.453 12.359-43.313-1.617-30.954-31.07 12.358-29.336-3.465-56.825-35.112-60.752-31.647-3.927-36.73-22.985-11.32-42.389 25.41-19.288 25.41-50.82 0-70.108-25.41-19.289-20.327-38.346 11.32-42.389 31.647-3.927 47.47-31.3 35.112-60.753-12.359-29.452 1.617-43.428 30.954-31.07 29.452 12.359 56.826-3.464 60.753-35.111 4.042-31.647 23.1-36.73 42.388-11.32" fill="url(#s)"/><path d="M2556.18 337.839c19.057 25.063 50.242 25.063 69.3 0 19.057-25.064 37.883-19.982 41.81 11.203 3.927 31.3 30.954 46.778 59.945 34.65 29.106-12.243 42.85 1.617 30.607 30.608-12.243 28.99 3.35 56.017 34.65 59.944 31.3 3.927 36.267 22.754 11.204 41.811-25.18 19.058-25.18 50.243 0 69.185 25.063 19.057 20.097 37.884-11.204 41.81-31.185 3.928-46.777 30.955-34.65 60.06 12.243 28.991-1.617 42.851-30.607 30.608-28.99-12.243-56.018 3.35-59.945 34.65-3.927 31.185-22.753 36.267-41.81 11.204-19.058-25.064-50.243-25.064-69.3 0-19.058 25.063-37.885 20.097-41.812-11.204-3.927-31.3-30.954-46.893-59.944-34.65-28.99 12.243-42.85-1.617-30.608-30.607 12.243-28.991-3.35-56.018-34.65-60.06-31.185-3.927-36.267-22.754-11.203-41.811 25.063-19.058 25.063-50.243 0-69.185-25.064-19.057-20.097-37.884 11.203-41.811 31.3-3.927 46.893-30.954 34.65-59.944-12.243-28.991 1.617-42.851 30.608-30.608 28.99 12.243 56.017-3.35 59.944-34.65 4.043-31.3 22.754-36.382 41.811-11.203" fill="url(#t)"/><path d="M2556.641 340.495c18.827 24.717 49.55 24.717 68.376 0 18.827-24.832 37.422-19.75 41.35 11.088 3.926 30.839 30.491 46.2 59.135 34.188s42.273 1.617 30.261 30.261c-12.012 28.644 3.35 55.325 34.188 59.252 30.954 3.927 35.805 22.522 11.088 41.233-24.832 18.827-24.832 49.55 0 68.376 24.717 18.827 19.866 37.422-11.088 41.234-30.838 3.927-46.2 30.607-34.188 59.251s-1.617 42.273-30.26 30.261c-28.645-12.012-55.325 3.35-59.137 34.188-3.927 30.839-22.407 35.805-41.349 11.088-18.71-24.717-49.55-24.717-68.376 0-18.826 24.717-37.422 19.75-41.233-11.088-3.927-30.838-30.608-46.2-59.252-34.188-28.644 12.012-42.273-1.501-30.26-30.261 12.011-28.644-3.35-55.324-34.189-59.251-30.838-3.812-35.805-22.407-11.088-41.234 24.717-18.826 24.717-49.55 0-68.376-24.832-18.826-19.75-37.422 11.088-41.233 30.839-3.927 46.316-30.492 34.188-59.252-12.012-28.644 1.617-42.273 30.261-30.261 28.644 12.012 55.325-3.35 59.252-34.188 3.927-30.838 22.407-35.805 41.233-11.088" fill="url(#u)"/><path d="M2557.103 343.267c18.596 24.486 48.972 24.486 67.452 0 18.596-24.486 36.96-19.52 40.772 10.973 3.811 30.376 30.145 45.622 58.443 33.726 28.297-11.897 41.81 1.501 29.914 29.799-11.896 28.297 3.234 54.631 33.726 58.443 30.492 3.811 35.343 22.176 10.973 40.771-24.486 18.48-24.486 48.857 0 67.452 24.486 18.596 19.52 36.96-10.973 40.772-30.376 3.811-45.622 30.26-33.726 58.443 11.897 28.297-1.501 41.695-29.914 29.799-28.298-11.897-54.516 3.234-58.443 33.726-3.812 30.492-22.176 35.343-40.772 10.857-18.48-24.371-48.856-24.371-67.452 0-18.595 24.37-36.844 19.519-40.771-10.857-3.812-30.492-30.146-45.623-58.443-33.726-28.298 11.896-41.696-1.502-29.8-29.8 11.897-28.297-3.349-54.631-33.725-58.442-30.377-3.812-35.343-22.061-10.857-40.772 24.486-18.48 24.486-48.856 0-67.452-24.486-18.595-19.52-36.96 10.857-40.771 30.492-3.812 45.622-30.146 33.726-58.443-11.897-28.298 1.501-41.696 29.799-29.8 28.297 11.897 54.631-3.233 58.443-33.725 3.927-30.492 22.291-35.343 40.771-10.973" fill="url(#v)"/><path d="M2557.565 346.039c18.365 24.14 48.28 24.14 66.528 0 18.365-24.14 36.383-19.288 40.194 10.742 3.812 30.03 29.684 45.045 57.635 33.264 27.95-11.666 41.233 1.501 29.452 29.452-11.665 27.951 3.234 53.823 33.264 57.635 30.146 3.811 34.881 21.829 10.857 40.194-24.14 18.249-24.14 48.279 0 66.528 24.14 18.364 19.289 36.498-10.857 40.194-30.03 3.811-44.93 29.799-33.264 57.634 11.781 27.951-1.501 41.118-29.452 29.453-27.951-11.781-53.823 3.234-57.635 33.264-3.811 30.03-21.83 34.88-40.194 10.741-18.249-24.14-48.279-24.14-66.528 0-18.249 24.14-36.382 19.289-40.194-10.741-3.811-30.03-29.799-45.045-57.634-33.264-27.951 11.665-41.118-1.502-29.453-29.453 11.781-27.835-3.234-53.823-33.264-57.634-30.03-3.696-34.88-21.83-10.741-40.194 24.14-18.25 24.14-48.28 0-66.528-24.14-18.365-19.289-36.383 10.741-40.194 30.03-3.812 45.045-29.8 33.264-57.635-11.665-27.951 1.502-41.233 29.453-29.452 27.95 11.78 53.823-3.234 57.634-33.264 3.812-29.915 21.945-34.881 40.194-10.742" fill="url(#w)"/><g fill="#9cb1bf"><path d="M2635.99 1118.965c-3.465 0-6.93-.808-9.933-2.425-8.2-4.62-10.51-13.976-5.082-20.79 112.381-132.941 120.813-132.941 123.47-132.941h1.27l1.386.693c4.158 2.31 9.702 5.429-96.327 148.764-3.234 4.158-8.778 6.699-14.784 6.699M2628.713 1034.766c-2.887 0-5.66-.693-8.2-2.08-6.815-3.811-8.663-11.434-4.158-17.093 92.63-109.494 99.445-109.494 101.755-109.494h1.04l1.155.577c3.35 1.848 8.085 4.389-79.349 122.546-2.772 3.465-7.392 5.544-12.243 5.544M2478.332 1043.544c-2.887 0-5.659-.693-8.085-2.08-6.814-3.811-8.662-11.434-4.158-17.093 92.631-109.494 99.446-109.494 101.756-109.494h1.04l1.154.577c3.35 1.848 8.085 4.389-79.348 122.546-2.888 3.58-7.392 5.544-12.359 5.544M2558.258 1131.786c-2.656-.347-5.313-1.155-7.854-2.31-7.045-3.35-10.626-8.663-7.854-11.897 57.981-62.139 64.218-61.33 66.297-60.984l.924.116 1.155.577c3.581 1.617 8.316 3.927-42.85 72.419-1.733 1.848-5.313 2.656-9.818 2.079M2507.554 1101.525c-2.888 0-5.66-.693-8.085-2.08-6.815-3.811-8.663-11.434-4.158-17.093 92.63-109.494 99.445-109.494 101.755-109.494h1.04l1.155.577c3.35 1.848 8.085 4.389-79.233 122.546-3.003 3.465-7.508 5.544-12.474 5.544"/></g><path d="M2633.218 1113.074c-3.465 0-6.93-.808-9.933-2.425-8.2-4.62-10.51-13.976-5.082-20.79 112.381-132.94 120.813-132.94 123.47-132.94h1.27l1.386.693c4.158 2.31 9.702 5.428-96.327 148.763-3.234 4.274-8.778 6.7-14.784 6.7" fill="#78b5db"/><path d="M2625.71 1107.53c-6.237-3.465-7.97-10.51-3.811-15.823 0 0 113.998-134.673 120.235-131.208 6.237 3.465-97.597 143.913-97.597 143.913-2.657 3.35-6.93 5.082-11.32 5.082-2.54 0-5.197-.578-7.507-1.964" fill="url(#x)"/><path d="M2625.941 1028.875c-2.887 0-5.66-.693-8.2-2.08-6.815-3.81-8.663-11.434-4.158-17.093 92.63-109.494 99.445-109.494 101.755-109.494h1.04l1.155.578c3.35 1.848 8.085 4.389-79.349 122.545-2.772 3.465-7.392 5.544-12.243 5.544" fill="#78b5db"/><path d="M2619.704 1024.37c-5.197-2.887-6.583-8.662-3.118-13.051 0 0 93.901-110.995 98.983-108.108 5.198 2.888-80.388 118.503-80.388 118.503-2.194 2.772-5.66 4.158-9.355 4.158-2.08 0-4.274-.462-6.122-1.502" fill="url(#y)"/><path d="M2475.56 1037.768c-2.887 0-5.66-.693-8.085-2.079-6.814-3.811-8.662-11.434-4.158-17.094 92.631-109.493 99.446-109.493 101.756-109.493h1.04l1.154.577c3.35 1.848 8.085 4.389-79.348 122.545-2.888 3.465-7.392 5.544-12.359 5.544" fill="#78b5db"/><path d="M2469.323 1033.148c-5.197-2.887-6.583-8.662-3.118-12.936 0 0 93.786-110.995 98.983-108.107 5.198 2.887-80.388 118.502-80.388 118.502-2.194 2.772-5.66 4.158-9.355 4.158-1.964 0-4.158-.462-6.122-1.617" fill="url(#z)"/><path d="M2555.486 1125.895c-2.656-.347-5.313-1.155-7.854-2.31-7.045-3.35-10.626-8.663-7.854-11.897 57.981-62.139 64.218-61.33 66.297-60.984l.924.116 1.155.577c3.58 1.617 8.316 3.927-42.85 72.419-1.733 1.848-5.313 2.772-9.818 2.079" fill="#78b5db"/><path d="M2548.787 1122.199c-5.428-2.541-8.085-6.584-6.006-9.125 0 0 58.79-62.947 64.218-60.406 5.313 2.54-44.698 69.53-44.698 69.53-1.27 1.618-4.158 2.195-7.508 1.733a19.675 19.675 0 0 1-6.006-1.732" fill="url(#A)"/><path d="M2504.782 1095.634c-2.888 0-5.66-.693-8.085-2.08-6.815-3.81-8.663-11.434-4.158-17.093 92.63-109.494 99.445-109.494 101.755-109.494h1.04l1.155.578c3.35 1.848 8.085 4.389-79.233 122.545-3.003 3.465-7.623 5.544-12.474 5.544" fill="#78b5db"/><path d="M2498.545 1091.13c-5.198-2.888-6.584-8.663-3.119-13.052 0 0 93.786-110.995 98.984-108.108 5.197 2.888-80.388 118.503-80.388 118.503-2.195 2.772-5.66 4.158-9.356 4.158-2.079.115-4.158-.462-6.121-1.502" fill="url(#B)"/><path d="M2971.17 623.47c-3.695 0-7.276.462-10.74 1.155-2.08-22.984-21.137-41.118-44.7-41.118-5.081 0-9.932 1.04-14.437 2.541-9.586-42.735-47.47-74.613-93.093-74.613-38 0-70.686 22.407-86.047 54.747-8.663-7.623-19.866-12.358-32.34-12.358-26.45 0-47.817 20.905-48.972 47.008-10.28-5.775-21.945-9.355-34.535-9.355-39.154 0-70.917 31.762-70.917 70.917 0 39.154 31.763 70.917 70.917 70.917h364.75c30.376 0 54.862-24.602 54.862-54.863.23-30.376-24.37-54.978-54.747-54.978" fill="#9cb1bf"/><path d="M2962.393 608.34c-3.696 0-7.161.346-10.742 1.155-2.079-23.1-21.136-41.118-44.698-41.118-5.198 0-9.933 1.039-14.438 2.54-9.586-42.734-47.47-74.612-93.093-74.612-38 0-70.686 22.522-85.932 54.747-8.662-7.623-19.866-12.474-32.34-12.474-26.45 0-47.817 20.905-48.972 47.124-10.28-5.775-21.945-9.356-34.534-9.356-39.155 0-70.917 31.763-70.917 70.917 0 39.155 31.762 70.802 70.917 70.802h364.749c30.26 0 54.978-24.602 54.978-54.863s-24.602-54.862-54.978-54.862" fill="url(#C)"/><path d="M2681.381 539.733c12.359 0 23.216 4.85 31.532 12.127 1.848-3.811 5.082-6.583 7.392-10.048 2.425-3.581 5.66-8.316 8.547-11.435 16.632-19.52 41.002-31.993 68.26-32.686 7.854-.231 15.477.577 22.87 2.194 34.765 7.739 62.37 34.881 70.8 69.762 4.274-.924 8.663-1.27 13.399-.808 2.425 0 5.082 1.501 7.392 1.848 2.194.346 5.66.577 7.738 1.386 2.541.577 4.851 1.501 7.161 2.54 10.626 4.967 18.827 14.438 22.176 25.988.693 2.195 1.386 5.66 1.617 7.97.116.808.578 1.501.578 2.194 1.501-.346 3.927-.693 5.544-.924a48.928 48.928 0 0 1 5.89-.346c16.17 0 30.492 7.738 39.386 19.288 8.778 11.55 12.127 25.988 9.47 39.386 0 26.911-27.95 48.74-54.862 48.74h-349.965c-34.765 0-70.917-28.181-70.917-62.947-3.58-17.44.462-36.151 11.897-51.282 11.434-15.13 30.145-25.179 51.166-25.179 9.587 0 18.711 2.079 27.143 5.89 2.31 1.04 5.544 2.657 7.738 3.928.116-1.848.924-3.35 1.27-5.198.81-4.62 2.426-10.857 4.505-14.9 7.046-16.285 23.331-27.488 42.273-27.488" fill="url(#D)"/><path d="M2681.612 540.888c12.243 0 22.87 4.966 30.723 11.896 1.617-3.35 5.66-4.62 7.739-7.623 2.079-3.118 5.66-8.778 8.2-11.55 15.94-19.981 39.732-33.033 66.528-34.419 7.623-.346 15.246.116 22.523 1.617 34.65 6.699 62.6 33.264 71.494 67.568 3.927-.231 7.97 0 12.243 1.039 2.08 0 4.736 2.657 6.815 3.003 1.963.347 6.237 0 8.085.693 2.656.347 5.197 1.04 7.623 1.964 11.434 4.389 20.443 14.322 23.562 26.68.577 1.848 1.27 6.353 1.617 8.316.115.693.808 1.155.924 1.848 1.386-.231 4.504-.808 5.89-1.04 2.08-.23 4.043-.461 6.122-.461 17.094 0 32.224 9.24 39.963 22.407 7.738 13.167 8.2 28.297 2.772 40.078 0 23.562-31.3 42.62-54.863 42.62h-335.296c-30.492 0-70.802-24.602-70.802-55.094-7.276-15.246-7.045-34.996 3.003-52.437 9.933-17.44 29.684-29.568 52.206-29.568 9.587 0 18.827 2.195 27.374 6.122 2.079.808 5.89 2.887 7.854 4.042.115-1.617 1.501-2.541 1.848-4.158.693-4.042 2.194-11.665 4.042-15.13 6.353-16.517 22.638-28.413 41.811-28.413" fill="url(#E)"/><path d="M2681.843 542.043c12.128 0 22.407 4.966 29.915 11.55 1.386-2.888 6.352-2.657 8.085-5.313 1.732-2.657 5.66-9.24 7.854-11.666 15.246-20.443 38.461-33.957 64.795-36.036 7.508-.577 15.015-.231 22.292 1.04 34.534 5.775 62.832 31.531 72.303 65.488 3.58.462 7.276 1.27 11.088 2.888 1.848 0 4.389 3.927 6.121 4.273 1.733.347 6.93-.462 8.432 0 2.887.116 5.544.578 8.085 1.386 12.358 3.696 22.176 14.207 25.063 27.374.578 1.617 1.27 7.045 1.502 8.778.115.577 1.155.924 1.155 1.501 1.155-.231 4.966-.924 6.121-1.04 2.08-.346 4.274-.461 6.468-.461 18.134 0 33.842 10.741 40.425 25.64 6.584 14.785 4.158 30.608-3.811 40.657 0 20.212-34.65 36.498-54.863 36.498h-320.512c-26.103 0-70.802-21.137-70.802-47.24-10.857-13.051-14.437-33.957-5.89-53.592 8.547-19.635 29.221-34.072 53.245-34.072 9.702 0 18.942 2.31 27.49 6.352 1.732.693 6.352 3.234 7.969 4.158.115-1.386 2.194-1.732 2.425-3.118.578-3.465 1.964-12.359 3.58-15.362 5.776-17.21 22.177-29.683 41.465-29.683" fill="url(#F)"/><path d="M2682.074 543.198c12.128 0 22.06 5.082 29.106 11.319 1.155-2.426 6.93-.693 8.432-2.888 1.501-2.194 5.66-9.817 7.507-11.781 14.553-21.021 37.191-34.996 63.063-37.768a88.075 88.075 0 0 1 22.06.346c34.42 4.851 63.064 29.915 73.112 63.41 3.35 1.039 6.584 2.54 9.933 4.62 1.502 0 4.158 5.197 5.544 5.428 1.386.231 7.508-1.04 8.778-.577 3.003-.116 5.775.115 8.547.808 13.167 3.119 23.793 14.091 26.45 28.182.462 1.386 1.155 7.854 1.386 9.24.115.462 1.386.693 1.501 1.155.924-.231 5.544-1.04 6.468-1.155 2.195-.346 4.505-.577 6.815-.577 19.173 0 35.458 12.358 41.002 28.759 5.544 16.401.231 32.918-10.51 41.349 0 16.863-38 30.492-54.747 30.492h-305.729c-21.714 0-70.801-17.556-70.801-39.385-14.553-10.857-21.945-32.802-14.784-54.747 7.16-21.945 28.76-38.462 54.17-38.462 9.701 0 19.057 2.31 27.72 6.699 1.5.578 6.698 3.465 8.084 4.274 0-1.155 2.772-.924 3.003-1.964.462-2.887 1.733-13.167 3.119-15.592 4.85-18.018 21.252-31.185 40.771-31.185" fill="url(#G)"/><path d="M2682.305 544.353c12.012 0 21.599 5.082 28.298 10.972.924-1.963 7.623 1.27 8.778-.577 1.155-1.733 5.775-10.28 7.16-11.897 13.745-21.483 35.806-36.036 61.331-39.385 7.277-.924 14.553-1.04 21.83-.231 34.303 3.811 63.294 28.182 73.804 61.33a48.886 48.886 0 0 1 8.778 6.468c1.155 0 3.812 6.353 4.967 6.584 1.155.23 8.085-1.617 9.24-1.271a33.26 33.26 0 0 1 9.009.231c14.09 2.541 25.41 13.976 27.95 28.875.347 1.04 1.156 8.547 1.271 9.702 0 .347 1.733.462 1.733.809.808-.116 6.006-1.155 6.814-1.271 2.31-.346 4.736-.577 7.161-.577 20.097 0 37.076 13.86 41.58 31.878 4.39 18.018-3.696 35.227-17.094 41.926 0 13.398-41.349 24.37-54.747 24.37h-290.944c-17.44 0-70.686-14.09-70.686-31.531-18.134-8.662-29.453-31.647-23.793-55.902 5.66-24.255 28.413-42.85 55.209-42.85 9.702 0 19.173 2.425 27.95 6.93 1.156.462 7.046 3.811 8.201 4.389 0-.924 3.35 0 3.58-.924.347-2.31 1.502-13.86 2.542-15.94 3.927-18.364 20.443-32.108 40.078-32.108" fill="url(#H)"/><path d="M2682.536 545.508c11.897 0 21.137 5.197 27.49 10.741.692-1.386 8.2 3.119 9.124 1.848.924-1.27 5.775-10.857 6.814-12.012 13.052-21.945 34.535-36.96 59.483-41.118 7.16-1.155 14.322-1.501 21.598-.808 34.188 2.887 63.525 26.565 74.613 59.251 2.657 2.426 5.198 5.082 7.623 8.316.924 0 3.465 7.623 4.39 7.739.808.115 8.777-2.195 9.586-1.848 3.35-.578 6.468-.693 9.47-.347 15.016 1.964 27.143 13.86 29.453 29.568.231.809 1.155 9.24 1.27 10.164 0 .231 2.08.116 2.08.462.577-.115 6.583-1.27 7.16-1.386 2.426-.346 4.967-.693 7.508-.693 21.137 0 38.808 15.362 42.042 35.112 3.35 19.635-7.738 37.538-23.793 42.62 0 10.048-44.583 18.249-54.747 18.249h-276.276c-13.051 0-70.686-10.511-70.686-23.562-21.83-6.584-36.96-30.492-32.686-57.057 4.273-26.565 27.95-47.24 56.248-47.24 9.702 0 19.289 2.541 28.182 7.277.924.346 7.508 4.042 8.316 4.504 0-.693 4.043.809 4.158.116.347-1.733 1.27-14.669 2.08-16.17 3.118-19.289 19.75-33.726 39.5-33.726" fill="url(#I)"/><path d="M2682.767 546.663c11.781 0 20.79 5.197 26.68 10.395.463-.924 8.779 5.082 9.472 4.273.577-.924 5.775-11.319 6.468-12.127 12.358-22.407 33.264-38 57.75-42.851 6.93-1.386 14.09-1.848 21.367-1.501 34.073 1.963 63.756 24.948 75.422 57.057 2.425 3.118 4.504 6.352 6.468 10.048.577 0 3.118 8.778 3.696 8.894.577.115 9.355-2.657 9.933-2.541 3.58-.809 6.814-1.155 9.933-.924 15.939 1.27 28.76 13.744 30.838 30.26.231.578 1.04 10.049 1.155 10.627 0 .23 2.31-.116 2.426.115.346-.115 7.045-1.386 7.392-1.501a44.141 44.141 0 0 1 7.854-.693c22.06 0 40.425 16.978 42.62 38.23 2.194 21.252-11.666 39.848-30.377 43.197 0 6.699-47.933 12.128-54.747 12.128h-261.492c-8.663 0-70.686-7.046-70.686-15.708-25.41-4.39-44.352-29.453-41.58-58.212 2.887-28.76 27.489-51.744 57.288-51.744 9.817 0 19.288 2.54 28.413 7.507.577.231 7.854 4.389 8.431 4.62 0-.462 4.62 1.617 4.736 1.155.23-1.155 1.155-15.361 1.617-16.401 2.31-19.288 18.942-34.303 38.923-34.303" fill="url(#J)"/><path d="M2682.998 547.818c11.666 0 20.328 5.313 25.872 10.164.231-.462 9.471 7.045 9.702 6.583.347-.462 5.775-11.896 6.122-12.243 11.665-22.984 31.993-39.039 56.017-44.467 6.815-1.502 13.86-2.31 21.137-2.08 33.957.925 64.102 23.216 76.114 54.979 2.08 3.696 3.927 7.738 5.313 11.896.347 0 2.888 10.049 3.119 10.164.23 0 10.048-3.234 10.28-3.118 3.695-1.04 7.16-1.617 10.394-1.386 16.748.693 30.492 13.744 32.34 30.954.116.23 1.04 10.741 1.04 10.972 0 .116 2.656-.346 2.656-.231.231 0 7.508-1.501 7.739-1.501 2.656-.462 5.313-.809 8.2-.809 23.1 0 42.042 18.48 43.197 41.349 1.155 22.869-15.592 42.158-37.075 43.89 0 3.35-51.282 6.122-54.632 6.122h-246.708c-4.389 0-70.686-3.465-70.686-7.854-29.106-2.195-51.86-28.298-50.473-59.367 1.386-31.07 27.027-56.133 58.327-56.133 9.818 0 19.404 2.656 28.644 7.738.347.116 8.2 4.62 8.547 4.851 0-.231 5.198 2.541 5.313 2.31.116-.577.924-16.17 1.155-16.632 1.617-20.559 18.25-36.151 38.346-36.151" fill="url(#K)"/><path d="M2958.812 707.785h-357.241c-32.687 0-59.367-27.142-59.367-60.522 0-33.38 26.68-60.522 59.367-60.522 9.817 0 19.52 2.772 28.76 8.085l14.437 8.316.693-16.978c.808-20.79 17.44-37.191 37.768-37.191 11.55 0 19.982 5.313 25.064 9.933l10.048 9.009 5.775-12.359c13.976-30.145 42.735-48.856 75.075-48.856 38.577 0 72.765 28.066 81.197 66.643l2.54 11.319 10.627-3.811c3.927-1.271 7.392-1.964 10.857-1.964 17.671 0 32.109 13.629 33.841 31.647l.924 11.435 11.088-2.195c2.772-.462 5.544-.924 8.547-.924 24.14 0 43.66 19.982 43.66 44.583 0 24.255-19.636 44.352-43.66 44.352" fill="url(#L)"/><path d="M2903.026 788.52c-4.967 0-9.933.577-14.669 1.501-2.887-31.531-28.99-56.248-61.33-56.248-7.046 0-13.514 1.386-19.75 3.465-13.052-58.443-65.027-102.218-127.397-102.218-52.206 0-96.79 30.723-117.81 74.96-11.897-10.395-27.258-16.979-44.237-16.979-36.151 0-65.488 28.644-67.105 64.449-14.091-7.854-30.03-12.705-47.24-12.705-53.592 0-97.02 43.428-97.02 97.136 0 53.592 43.544 97.02 97.02 97.02h499.653c41.58 0 75.19-33.726 75.19-75.191-.115-41.58-33.84-75.19-75.305-75.19" fill="#9cb1bf"/><path d="M2892.169 773.505c-4.967 0-9.933.577-14.669 1.501-2.887-31.416-28.99-56.248-61.33-56.248-6.93 0-13.514 1.386-19.75 3.465-13.052-58.443-65.027-102.218-127.397-102.218-52.09 0-96.79 30.723-117.81 74.96-11.897-10.395-27.258-16.979-44.352-16.979-36.152 0-65.489 28.644-67.106 64.565-13.975-7.97-30.03-12.821-47.24-12.821-53.591 0-97.135 43.544-97.135 97.136S2338.808 924 2392.516 924h499.653c41.464 0 75.19-33.726 75.19-75.19 0-41.696-33.726-75.306-75.19-75.306" fill="url(#M)"/><path d="M2507.207 679.488c16.863 0 31.878 6.583 43.197 16.632 2.541-5.313 6.93-9.01 10.164-13.745 3.234-4.851 7.739-11.319 11.666-15.592 22.869-26.681 56.133-43.775 93.555-44.699a131.953 131.953 0 0 1 31.07 3.003c47.7 10.51 85.585 47.817 97.02 95.519 5.774-1.271 11.896-1.733 18.248-1.04 3.35 0 6.93 1.964 10.049 2.541 3.118.578 7.738.809 10.626 1.848a47.136 47.136 0 0 1 9.817 3.465c14.438 6.699 25.757 19.75 30.377 35.574.924 2.888 1.848 7.739 2.31 10.857.115 1.04.693 1.964.808 3.003 2.08-.462 5.429-.924 7.508-1.155 2.656-.346 5.313-.462 8.085-.462 22.06 0 41.81 10.51 53.938 26.334s16.632 35.574 12.936 54.054c0 36.845-40.31 66.875-77.27 66.875H2393.21c-52.668 0-95.403-42.735-95.403-95.519 0-52.783 42.735-95.518 95.403-95.518 13.167 0 25.64 2.887 37.19 8.085 3.12 1.386 7.508 3.58 10.511 5.313.116-2.657 1.27-4.736 1.733-7.277 1.04-6.237 3.234-14.784 6.121-20.328 10.049-22.291 32.456-37.768 58.443-37.768" fill="url(#N)"/><path d="M2507.438 681.105c16.748 0 31.3 6.699 42.042 16.17 2.195-4.62 7.854-6.353 10.626-10.511 2.888-4.273 7.739-12.012 11.204-15.823 21.83-27.374 54.4-45.161 91.13-47.009 10.51-.577 20.79.231 30.722 2.195 47.47 9.24 85.817 45.507 98.06 92.63 5.428-.346 10.972 0 16.632 1.387 2.887 0 6.468 3.696 9.24 4.158 2.656.462 8.547.115 11.088.924a42.899 42.899 0 0 1 10.395 2.656c15.708 5.89 28.066 19.635 32.34 36.614.808 2.54 1.732 8.662 2.194 11.434.116.924 1.155 1.617 1.27 2.541 1.849-.346 6.122-1.155 7.97-1.27 2.772-.347 5.66-.578 8.432-.578 23.446 0 44.005 12.59 54.631 30.723 10.626 18.018 11.204 38.693 3.812 54.863 0 32.224-47.009 58.443-79.349 58.443h-476.553c-51.628 0-93.555-42.042-93.555-93.902s41.927-93.901 93.555-93.901c13.283 0 25.872 3.003 37.422 8.431 2.772 1.155 8.085 4.043 10.742 5.429.115-2.31 2.194-3.581 2.54-5.775.925-5.544 3.004-15.824 5.545-20.675 9.24-22.869 31.647-39.154 57.865-39.154" fill="url(#O)"/><path d="M2507.785 682.722c16.632 0 30.723 6.814 41.002 15.823 1.848-3.927 8.663-3.696 11.088-7.276 2.426-3.581 7.739-12.705 10.742-15.94 20.905-28.066 52.668-46.546 88.82-49.318 10.279-.808 20.443-.346 30.376 1.386 47.355 7.854 86.163 43.197 99.214 89.744 4.967.577 10.049 1.732 15.13 3.927 2.426 0 6.007 5.313 8.432 5.775 2.31.462 9.471-.693 11.55.115 3.927.116 7.508.809 11.088 1.848 16.863 5.082 30.377 19.52 34.304 37.538.693 2.194 1.732 9.702 2.079 12.012.115.808 1.617 1.27 1.617 2.079 1.501-.347 6.814-1.271 8.431-1.502a56.572 56.572 0 0 1 8.894-.693c24.832 0 46.315 14.784 55.324 34.997 9.125 20.328 5.775 41.926-5.197 55.786 0 27.72-53.708 50.127-81.312 50.127h-465.003c-50.705 0-91.823-41.349-91.823-92.4 0-50.935 41.118-92.4 91.823-92.4 13.282 0 25.987 3.119 37.768 8.778 2.426 1.04 8.547 4.389 10.857 5.66.116-1.964 3.003-2.426 3.35-4.274.808-4.735 2.656-16.863 4.85-21.021 7.74-23.677 30.146-40.771 56.596-40.771" fill="url(#P)"/><path d="M2508.131 684.223c16.517 0 30.146 6.93 39.848 15.477 1.617-3.35 9.47-.924 11.55-3.927 2.079-3.003 7.854-13.398 10.28-16.17 19.865-28.76 50.935-47.932 86.393-51.628 10.049-1.04 20.213-.924 30.146.462 47.24 6.583 86.51 41.002 100.254 86.856 4.504 1.501 9.009 3.465 13.513 6.352 2.08 0 5.544 7.046 7.508 7.392 1.963.347 10.28-1.386 12.127-.808 4.158-.231 7.97.23 11.781 1.039 18.134 4.274 32.571 19.404 36.267 38.577.578 1.848 1.617 10.626 1.964 12.59.115.693 1.963.924 2.079 1.617 1.27-.231 7.507-1.386 8.893-1.617a63.756 63.756 0 0 1 9.356-.693c26.218 0 48.51 16.863 56.133 39.385 7.507 22.523.346 45.045-14.322 56.595 0 23.1-60.407 41.811-83.391 41.811h-453.453c-49.665 0-90.09-40.656-90.09-90.783s40.425-90.783 90.09-90.783c13.282 0 26.103 3.234 38 9.125 1.963.808 9.124 4.735 10.972 5.775.115-1.617 3.811-1.271 4.158-2.772.693-3.927 2.425-17.903 4.158-21.368 6.583-24.486 29.106-42.504 55.786-42.504" fill="url(#Q)"/><path d="M2508.478 685.84c16.4 0 29.568 6.93 38.692 15.015 1.27-2.656 10.395 1.733 12.012-.693 1.617-2.425 7.854-14.206 9.818-16.285 18.942-29.453 49.203-49.319 83.968-53.939a128.595 128.595 0 0 1 29.8-.346c47.008 5.313 86.855 38.692 101.293 83.968 4.158 2.426 8.085 5.198 12.012 8.778 1.617 0 5.197 8.663 6.699 9.009 1.501.231 11.203-2.194 12.59-1.617 4.388-.577 8.43-.346 12.358.347 19.288 3.465 34.88 19.173 38.23 39.5.462 1.502 1.617 11.666 1.848 13.283.116.462 2.426.578 2.426 1.155 1.04-.231 8.316-1.617 9.355-1.732 3.234-.578 6.468-.809 9.818-.809 27.604 0 50.82 18.942 56.826 43.659s-5.082 48.279-23.447 57.519c0 18.48-66.99 33.38-85.47 33.38h-441.903c-48.74 0-88.357-39.963-88.357-89.166 0-49.203 39.616-89.282 88.357-89.282 13.398 0 26.219 3.35 38.346 9.587 1.617.693 9.587 5.082 11.088 6.006 0-1.271 4.736-.116 4.967-1.386.577-3.119 2.079-18.942 3.58-21.714 5.544-25.41 28.067-44.237 55.094-44.237" fill="url(#R)"/><path d="M2508.709 687.457c16.285 0 29.106 7.046 37.653 14.669.924-1.964 11.203 4.389 12.474 2.54 1.27-1.847 7.854-14.899 9.355-16.516 17.903-30.145 47.47-50.704 81.659-56.248 9.702-1.617 19.52-1.964 29.452-1.155 46.893 3.927 87.203 36.382 102.333 81.08a70.357 70.357 0 0 1 10.395 11.32c1.27 0 4.736 10.395 5.89 10.626 1.156.23 12.013-2.888 13.168-2.541 4.62-.809 8.893-1.04 13.051-.462 20.56 2.656 37.191 19.057 40.31 40.54.346 1.04 1.501 12.705 1.732 13.86 0 .347 2.772.231 2.888.578.808-.116 9.009-1.733 9.817-1.848 3.35-.578 6.815-.924 10.28-.924 28.875 0 53.014 21.02 57.519 48.048 4.504 26.911-10.51 51.397-32.456 58.327 0 13.86-73.689 25.064-87.549 25.064h-430.353c-47.701 0-86.51-39.27-86.51-87.665 0-48.394 38.809-87.664 86.51-87.664 13.398 0 26.45 3.465 38.577 9.933 1.155.462 10.164 5.544 11.32 6.121 0-1.04 5.543 1.155 5.774.116.462-2.31 1.848-19.982 2.888-22.061 4.042-25.987 26.68-45.738 53.823-45.738" fill="url(#S)"/><path d="M2509.055 688.959c16.17 0 28.529 7.16 36.498 14.322.578-1.271 12.128 7.045 12.936 5.775.809-1.155 7.854-15.593 8.778-16.632 16.979-30.723 45.623-52.091 79.233-58.559a116.556 116.556 0 0 1 29.106-1.963c46.778 2.656 87.55 34.072 103.373 78.309 3.234 4.158 6.237 8.778 8.893 13.744.809 0 4.274 12.012 5.082 12.243.809.116 12.936-3.58 13.63-3.35 4.85-1.154 9.355-1.616 13.628-1.27 21.714 1.733 39.386 18.942 42.273 41.465.231.693 1.502 13.629 1.617 14.437 0 .231 3.234-.115 3.234.116.462-.116 9.702-1.964 10.164-1.964 3.465-.577 7.161-1.04 10.742-1.04 30.26 0 55.324 23.216 58.327 52.322s-15.939 54.632-41.58 59.252c0 9.24-80.388 16.747-89.628 16.747h-418.803c-46.777 0-84.777-38.577-84.777-86.047 0-47.471 38-86.048 84.777-86.048 13.398 0 26.565 3.465 38.924 10.28.808.346 10.626 5.89 11.434 6.352 0-.693 6.468 2.31 6.584 1.617.23-1.617 1.501-21.021 2.194-22.407 3.35-27.027 25.988-47.701 53.361-47.701" fill="url(#T)"/><path d="M2509.402 690.576c15.939 0 27.95 7.16 35.343 13.86.346-.693 12.936 9.702 13.398 9.124.462-.577 7.854-16.285 8.316-16.863 15.939-31.416 43.89-53.476 76.807-60.868 9.356-2.08 18.942-3.119 28.76-2.772 46.546 1.27 87.895 31.878 104.412 75.421 2.887 5.082 5.313 10.51 7.276 16.17.462 0 3.812 13.745 4.274 13.86.346.116 13.744-4.389 14.09-4.273 5.083-1.502 9.703-2.195 14.323-2.08 22.984.925 41.695 18.827 44.236 42.389.116.347 1.386 14.669 1.502 15.015 0 .116 3.696-.462 3.696-.346.23 0 10.395-2.08 10.626-2.08 3.58-.692 7.392-1.154 11.203-1.154 31.647 0 57.52 25.294 59.02 56.71 1.502 31.416-21.367 57.75-50.704 60.06 0 4.62-87.087 8.316-91.707 8.316H2397.02c-45.738 0-83.044-37.884-83.044-84.43 0-46.547 37.306-84.546 83.044-84.546 13.514 0 26.68 3.58 39.155 10.626.346.115 11.203 6.237 11.55 6.468 0-.347 7.276 3.465 7.276 3.118.116-.808 1.27-22.06 1.617-22.753 2.426-27.49 25.064-48.972 52.784-48.972" fill="url(#U)"/><path d="M2887.087 909.679h-489.49c-44.813 0-81.311-37.191-81.311-82.813 0-45.738 36.498-82.93 81.312-82.93 13.513 0 26.796 3.697 39.5 11.089l19.867 11.203.924-23.1c1.155-28.528 23.908-50.82 51.744-50.82 15.823 0 27.373 7.277 34.303 13.514l13.86 12.358 7.854-16.978c19.173-41.234 58.559-66.875 102.795-66.875 52.9 0 99.677 38.346 111.227 91.245l3.35 15.362 14.668-5.082c5.313-1.848 10.164-2.772 14.9-2.772 24.139 0 44.005 18.71 46.2 43.428l1.385 15.708 15.13-3.003c3.812-.693 7.74-1.155 11.666-1.155 33.033 0 59.83 27.373 59.83 60.984.115 33.264-26.681 60.637-59.714 60.637" fill="url(#V)"/></svg>