<svg xmlns="http://www.w3.org/2000/svg" xmlns:xlink="http://www.w3.org/1999/xlink" viewBox="1095.9 1821.7 841.9 841.90004" width="841.9" height="841.9"><defs><linearGradient id="d" gradientUnits="userSpaceOnUse" y1="2266.67" x2="0" y2="1839.64" gradientTransform="matrix(1.26 0 0 1.26 -418.587 -464.095)"><stop stop-color="#e08c00"/><stop offset="1" stop-color="#ffbd19"/></linearGradient><linearGradient id="c" gradientUnits="userSpaceOnUse" y1="2269.23" x2="0" y2="1837.08" gradientTransform="matrix(1.26 0 0 1.26 -418.587 -464.095)"><stop stop-color="#e08a00"/><stop offset="1" stop-color="#ffb71c"/></linearGradient><linearGradient id="m" gradientUnits="userSpaceOnUse" y1="2243.61" x2="0" y2="1862.69" gradientTransform="matrix(1.26 0 0 1.26 -418.587 -464.095)"><stop stop-color="#e69e00"/><stop offset="1" stop-color="#fff200"/></linearGradient><linearGradient id="b" gradientUnits="userSpaceOnUse" y1="2271.8" x2="0" y2="1834.52" gradientTransform="matrix(1.26 0 0 1.26 -418.587 -464.095)"><stop stop-color="#df8800"/><stop offset="1" stop-color="#ffb11f"/></linearGradient><linearGradient id="E" gradientUnits="userSpaceOnUse" y1="2190.11" x2="0" y2="2032.94" gradientTransform="matrix(1.26 0 0 1.26 -418.587 -464.095)"><stop stop-color="#a5c1d3"/><stop offset="1" stop-color="#e7f4fc"/></linearGradient><linearGradient id="D" gradientUnits="userSpaceOnUse" y1="2191.11" x2="0" y2="2032.32" gradientTransform="matrix(1.26 0 0 1.26 -418.587 -464.095)"><stop stop-color="#a3c0d2"/><stop offset="1" stop-color="#e4f1fa"/></linearGradient><linearGradient id="F" gradientUnits="userSpaceOnUse" y1="2189.12" x2="0" y2="2033.51" gradientTransform="matrix(1.26 0 0 1.26 -418.587 -464.095)"><stop stop-color="#a7c2d4"/><stop offset="1" stop-color="#eaf7ff"/></linearGradient><linearGradient id="e" gradientUnits="userSpaceOnUse" y1="2264.11" x2="0" y2="1842.2" gradientTransform="matrix(1.26 0 0 1.26 -418.587 -464.095)"><stop stop-color="#e18e00"/><stop offset="1" stop-color="#ffc317"/></linearGradient><linearGradient id="l" gradientUnits="userSpaceOnUse" y1="2246.17" x2="0" y2="1860.13" gradientTransform="matrix(1.26 0 0 1.26 -418.587 -464.095)"><stop stop-color="#e59c00"/><stop offset="1" stop-color="#ffec03"/></linearGradient><linearGradient id="k" gradientUnits="userSpaceOnUse" y1="2248.73" x2="0" y2="1857.57" gradientTransform="matrix(1.26 0 0 1.26 -418.587 -464.095)"><stop stop-color="#e59a00"/><stop offset="1" stop-color="#ffe606"/></linearGradient><linearGradient id="f" gradientUnits="userSpaceOnUse" y1="2261.55" x2="0" y2="1844.76" gradientTransform="matrix(1.26 0 0 1.26 -418.587 -464.095)"><stop stop-color="#e29000"/><stop offset="1" stop-color="#ffc914"/></linearGradient><linearGradient id="j" gradientUnits="userSpaceOnUse" y1="2251.29" x2="0" y2="1855.01" gradientTransform="matrix(1.26 0 0 1.26 -418.587 -464.095)"><stop stop-color="#e49800"/><stop offset="1" stop-color="#ffe008"/></linearGradient><linearGradient id="h" gradientUnits="userSpaceOnUse" y1="2256.42" x2="0" y2="1849.88" gradientTransform="matrix(1.26 0 0 1.26 -418.587 -464.095)"><stop stop-color="#e39400"/><stop offset="1" stop-color="#ffd40e"/></linearGradient><linearGradient id="g" gradientUnits="userSpaceOnUse" y1="2258.98" x2="0" y2="1847.32" gradientTransform="matrix(1.26 0 0 1.26 -418.587 -464.095)"><stop stop-color="#e29200"/><stop offset="1" stop-color="#ffcf11"/></linearGradient><linearGradient id="i" gradientUnits="userSpaceOnUse" y1="2253.86" x2="0" y2="1852.45" gradientTransform="matrix(1.26 0 0 1.26 -418.587 -464.095)"><stop stop-color="#e39600"/><stop offset="1" stop-color="#ffda0b"/></linearGradient><linearGradient id="C" gradientUnits="userSpaceOnUse" y1="2192.1" x2="0" y2="2031.65" gradientTransform="matrix(1.26 0 0 1.26 -418.587 -464.095)"><stop stop-color="#a1bfd1"/><stop offset="1" stop-color="#e0eff7"/></linearGradient><linearGradient id="s" gradientUnits="userSpaceOnUse" x1="1619.97" x2="1707.5" xlink:href="#a" gradientTransform="matrix(1.26 0 0 1.26 -418.587 -464.095)"/><linearGradient id="r" gradientUnits="userSpaceOnUse" x1="1624.26" x2="1730.55" xlink:href="#a" gradientTransform="matrix(1.26 0 0 1.26 -418.587 -464.095)"/><linearGradient id="B" gradientUnits="userSpaceOnUse" y1="2193.09" x2="0" y2="2030.92" gradientTransform="matrix(1.26 0 0 1.26 -418.587 -464.095)"><stop stop-color="#9fbed0"/><stop offset="1" stop-color="#ddecf5"/></linearGradient><linearGradient id="q" gradientUnits="userSpaceOnUse" x1="1713.36" x2="1800.89" xlink:href="#a" gradientTransform="matrix(1.26 0 0 1.26 -418.587 -464.095)"/><linearGradient id="o" gradientUnits="userSpaceOnUse" x1="1490.01" x2="1577.54" xlink:href="#a" gradientTransform="matrix(1.26 0 0 1.26 -418.587 -464.095)"/><linearGradient id="a" gradientUnits="userSpaceOnUse" x1="1494.3" x2="1600.59"><stop offset=".291" stop-color="#fff"/><stop offset="1" stop-color="#def1ff"/></linearGradient><linearGradient id="p" gradientUnits="userSpaceOnUse" x1="1359.87" x2="1447.4" xlink:href="#a" gradientTransform="matrix(1.26 0 0 1.26 -418.587 -464.095)"/><linearGradient id="t" gradientUnits="userSpaceOnUse" x1="1394.53" x2="1482.07" xlink:href="#a" gradientTransform="matrix(1.26 0 0 1.26 -418.587 -464.095)"/><linearGradient id="A" gradientUnits="userSpaceOnUse" y1="2194.09" x2="0" y2="2030.13" gradientTransform="matrix(1.26 0 0 1.26 -418.587 -464.095)"><stop stop-color="#9dbdd0"/><stop offset="1" stop-color="#dae9f2"/></linearGradient><linearGradient id="z" gradientUnits="userSpaceOnUse" y1="2195.08" x2="0" y2="2029.29" gradientTransform="matrix(1.26 0 0 1.26 -418.587 -464.095)"><stop stop-color="#9bbccf"/><stop offset="1" stop-color="#d7e6f0"/></linearGradient><linearGradient id="u" gradientUnits="userSpaceOnUse" x1="1556.32" y1="2389.11" x2="1614.68" y2="2387.03" xlink:href="#a" gradientTransform="matrix(1.26 0 0 1.26 -418.587 -464.095)"/><linearGradient id="y" gradientUnits="userSpaceOnUse" y1="2196.07" x2="0" y2="2028.4" gradientTransform="matrix(1.26 0 0 1.26 -418.587 -464.095)"><stop stop-color="#99bbce"/><stop offset="1" stop-color="#d3e4ed"/></linearGradient><linearGradient id="w" gradientUnits="userSpaceOnUse" y1="2198.06" x2="0" y2="2026.48" gradientTransform="matrix(1.26 0 0 1.26 -418.587 -464.095)"><stop stop-color="#95b9cc"/><stop offset="1" stop-color="#cddee8"/></linearGradient><linearGradient id="v" gradientUnits="userSpaceOnUse" x1="1385.14" x2="1472.68" xlink:href="#a" gradientTransform="matrix(1.26 0 0 1.26 -418.587 -464.095)"/><linearGradient id="x" gradientUnits="userSpaceOnUse" y1="2197.07" x2="0" y2="2027.46" gradientTransform="matrix(1.26 0 0 1.26 -418.587 -464.095)"><stop stop-color="#97bacd"/><stop offset="1" stop-color="#d0e1eb"/></linearGradient><linearGradient xlink:href="#a" id="n" gradientUnits="userSpaceOnUse" x1="1494.3" x2="1600.59" gradientTransform="matrix(1.26 0 0 1.26 -418.587 -464.095)"/></defs><path d="M1366.204 1897.523c22.176 29.232 58.338 29.232 80.388 0 22.176-29.106 44.1-23.31 48.636 12.978 4.662 36.288 35.91 54.432 69.678 40.194s49.77 1.89 35.532 35.532c-14.112 33.768 3.906 65.142 40.194 69.678 36.288 4.536 42.21 26.46 12.978 48.636-29.232 22.05-29.232 58.338 0 80.388 29.106 22.176 23.31 43.974-12.978 48.636-36.288 4.536-54.432 35.91-40.194 69.678s-1.764 49.77-35.532 35.532c-33.768-14.112-65.016 3.906-69.678 40.194-4.536 36.414-26.46 42.084-48.636 13.104-22.05-29.232-58.338-29.232-80.388 0-22.176 29.106-43.974 23.31-48.636-13.104-4.536-36.288-35.91-54.432-69.678-40.194s-49.77-1.764-35.532-35.532c14.238-33.768-3.906-65.016-40.194-69.678-36.288-4.662-42.21-26.46-12.978-48.636 29.232-22.176 29.232-58.338 0-80.388-29.106-22.176-23.31-43.974 12.978-48.636 36.288-4.536 54.432-35.91 40.194-69.678-14.112-33.768 1.89-49.77 35.532-35.532 33.768 14.238 65.142-3.906 69.678-40.194 4.662-36.288 26.46-42.21 48.636-12.978" fill="#9cb1bf"/><path d="M1350.706 1866.653c22.932 30.24 60.48 30.24 83.412 0 22.932-30.24 45.612-24.192 50.4 13.482 4.788 37.674 37.17 56.448 72.198 41.706 35.028-14.742 51.534 1.89 36.918 36.792-14.742 35.028 4.032 67.41 41.706 72.198 37.674 4.788 43.596 27.468 13.482 50.274-30.24 22.932-30.24 60.48 0 83.412 30.114 22.932 24.066 45.612-13.482 50.274-37.674 4.788-56.448 37.296-41.706 72.198 14.742 35.028-1.89 51.534-36.918 36.792-34.902-14.616-67.41 4.158-72.198 41.706-4.788 37.548-27.342 43.722-50.4 13.482-22.932-30.24-60.48-30.24-83.412 0-22.932 30.24-45.612 24.066-50.4-13.482-4.788-37.674-37.296-56.448-72.198-41.706-34.902 14.742-51.534-1.89-36.792-36.792 14.742-34.902-4.032-67.41-41.706-72.198-37.548-4.662-43.722-27.342-13.482-50.274 30.24-22.932 30.24-60.48 0-83.412-30.24-22.932-24.192-45.612 13.482-50.274 37.674-4.788 56.448-37.17 41.706-72.198-14.742-34.902 1.89-51.534 36.792-36.792 35.028 14.742 67.41-4.032 72.198-41.706 4.788-37.674 27.468-43.722 50.4-13.482" fill="url(#b)"/><path d="M1351.21 1869.55c22.68 29.863 59.724 29.863 82.404 0 22.68-29.861 45.108-23.813 49.77 13.357 4.662 37.17 36.792 55.692 71.316 41.202 34.65-14.49 51.03 1.89 36.414 36.414-14.49 34.524 4.032 66.654 41.202 71.316 37.17 4.662 43.092 27.09 13.356 49.77-29.862 22.68-29.862 59.724 0 82.404s23.814 45.108-13.356 49.77c-37.17 4.662-55.692 36.792-41.202 71.442 14.49 34.524-1.89 50.904-36.414 36.414-34.524-14.49-66.654 4.032-71.316 41.202-4.662 37.17-27.09 43.218-49.77 13.356-22.68-29.862-59.724-29.862-82.404 0s-45.108 23.814-49.77-13.356c-4.662-37.17-36.792-55.692-71.316-41.202-34.524 14.49-50.904-1.89-36.414-36.414 14.49-34.524-4.032-66.654-41.202-71.442-37.17-4.662-43.218-27.09-13.356-49.77 29.862-22.68 29.862-59.724 0-82.404s-23.814-44.982 13.356-49.77c37.17-4.662 55.692-36.792 41.202-71.316-14.49-34.524 1.89-50.904 36.414-36.414 34.524 14.49 66.654-4.032 71.316-41.202 4.662-37.17 27.09-43.092 49.77-13.356" fill="url(#c)"/><path d="M1351.588 1872.575c22.428 29.484 59.094 29.484 81.396 0 22.428-29.484 44.478-23.562 49.14 13.104 4.662 36.792 36.414 55.062 70.434 40.698 34.146-14.364 50.4 1.89 36.036 36.036-14.364 34.146 4.032 65.898 40.698 70.56 36.792 4.662 42.588 26.712 13.23 49.14-29.484 22.428-29.484 58.968 0 81.396 29.484 22.428 23.562 44.604-13.23 49.14-36.792 4.662-55.062 36.414-40.698 70.56 14.364 34.146-1.89 50.4-36.036 36.036-34.146-14.364-65.772 4.032-70.434 40.698-4.662 36.666-26.712 42.588-49.14 13.23-22.428-29.484-58.968-29.484-81.396 0-22.428 29.484-44.478 23.562-49.14-13.23-4.662-36.792-36.414-55.062-70.56-40.698-34.146 14.364-50.274-1.764-35.91-36.036 14.364-34.146-4.032-65.898-40.698-70.56-36.666-4.536-42.714-26.712-13.104-49.14 29.484-22.428 29.484-59.094 0-81.396-29.484-22.428-23.562-44.478 13.104-49.14 36.792-4.662 55.062-36.414 40.698-70.56-14.364-34.146 1.89-50.274 35.91-36.036 34.146 14.364 65.898-4.032 70.56-40.698 4.662-36.666 26.838-42.588 49.14-13.104" fill="url(#d)"/><path d="M1352.092 1875.599c22.176 29.106 58.338 29.106 80.388 0 22.176-29.106 43.974-23.31 48.636 12.978 4.536 36.288 35.91 54.432 69.678 40.194s49.77 1.89 35.532 35.532c-14.238 33.768 3.906 65.142 40.194 69.678 36.288 4.662 42.084 26.46 13.104 48.51-29.232 22.05-29.232 58.338 0 80.388 29.106 22.176 23.31 43.974-13.104 48.51-36.288 4.536-54.432 36.036-40.194 69.678 14.238 33.768-1.764 49.77-35.532 35.532-33.642-14.112-65.016 3.906-69.678 40.194-4.536 36.288-26.46 42.084-48.636 12.978-22.05-29.106-58.338-29.106-80.388 0-22.176 29.106-43.974 23.31-48.51-12.978-4.536-36.288-35.91-54.432-69.678-40.194-33.642 14.238-49.77-1.764-35.532-35.532 14.112-33.768-3.906-65.142-40.32-69.678-36.288-4.536-42.084-26.334-12.978-48.51s29.106-58.338 0-80.388c-29.106-22.176-23.31-43.974 12.978-48.51 36.288-4.536 54.432-35.91 40.32-69.678-14.238-33.768 1.89-49.77 35.532-35.532 33.768 14.112 65.142-3.906 69.678-40.194 4.536-36.288 26.46-42.084 48.51-12.978" fill="url(#e)"/><path d="M1352.596 1878.623c21.798 28.854 57.582 28.854 79.506 0 21.924-28.728 43.47-22.932 48.006 12.852 4.536 35.91 35.532 53.802 68.796 39.69 33.39-13.986 49.14 1.764 35.154 35.154-13.986 33.39 3.906 64.26 39.69 68.796 35.91 4.536 41.58 26.082 12.852 48.006-28.854 21.798-28.854 57.582 0 79.506 28.728 21.924 23.058 43.47-12.852 48.006-35.91 4.536-53.676 35.532-39.69 68.796 13.986 33.39-1.764 49.14-35.154 35.154-33.264-13.986-64.26 3.906-68.796 39.816-4.536 35.784-26.082 41.58-48.006 12.852-21.798-28.728-57.582-28.728-79.506 0-21.798 28.728-43.47 22.932-48.006-12.852-4.536-35.91-35.532-53.802-68.796-39.816-33.264 13.986-49.14-1.764-35.154-35.154 13.986-33.264-3.906-64.26-39.816-68.796-35.784-4.536-41.58-26.082-12.852-48.006 28.728-21.798 28.728-57.582 0-79.506-28.854-21.924-23.058-43.47 12.852-48.006 35.91-4.536 53.802-35.532 39.816-68.796-13.986-33.264 1.764-49.14 35.154-35.154 33.264 13.986 64.26-3.906 68.796-39.69 4.536-35.91 26.208-41.58 48.006-12.852" fill="url(#f)"/><path d="M1353.1 1881.647c21.546 28.476 56.952 28.476 78.498 0 21.672-28.476 42.966-22.68 47.376 12.726 4.41 35.406 35.028 53.046 67.914 39.312 33.012-13.86 48.51 1.764 34.776 34.65-13.86 32.886 3.78 63.504 39.186 68.04 35.406 4.536 41.076 25.83 12.726 47.376-28.476 21.546-28.476 56.826 0 78.498 28.35 21.672 22.68 42.966-12.726 47.376-35.406 4.536-53.046 35.154-39.186 68.04s-1.764 48.51-34.776 34.65c-32.886-13.86-63.504 3.906-67.914 39.312-4.536 35.406-25.83 41.076-47.376 12.726-21.546-28.476-56.952-28.476-78.498 0-21.546 28.35-42.966 22.68-47.376-12.726-4.41-35.406-35.028-53.046-68.04-39.312-32.886 13.86-48.51-1.764-34.65-34.65 13.86-32.886-3.78-63.504-39.312-68.04-35.406-4.41-41.076-25.704-12.726-47.376 28.476-21.546 28.476-56.952 0-78.498-28.476-21.546-22.68-42.966 12.726-47.376 35.406-4.41 53.046-35.028 39.312-68.04-13.86-32.886 1.764-48.51 34.65-34.65 32.886 13.86 63.504-3.78 68.04-39.312 4.41-35.406 25.83-41.202 47.376-12.726" fill="url(#g)"/><path d="M1353.604 1884.67c21.294 28.099 56.196 28.099 77.49 0 21.42-28.097 42.336-22.427 46.872 12.475 4.41 35.028 34.65 52.416 67.032 38.808 32.508-13.608 48.006 1.764 34.272 34.272-13.608 32.508 3.78 62.748 38.682 67.158 35.028 4.41 40.572 25.452 12.6 46.746-28.098 21.294-28.098 56.196 0 77.49 28.098 21.42 22.428 42.462-12.6 46.746-35.028 4.41-52.416 34.65-38.682 67.158 13.608 32.508-1.764 47.88-34.272 34.272-32.508-13.608-62.622 3.78-67.032 38.808-4.41 34.902-25.452 40.572-46.872 12.474-21.294-28.098-56.196-28.098-77.49 0-21.294 28.098-42.336 22.428-46.746-12.474-4.41-35.028-34.65-52.416-67.158-38.808-32.508 13.608-47.88-1.764-34.272-34.272 13.608-32.508-3.78-62.748-38.808-67.158-34.902-4.41-40.572-25.452-12.474-46.746 28.098-21.294 28.098-56.196 0-77.49-28.098-21.294-22.428-42.336 12.474-46.746 35.028-4.41 52.416-34.65 38.808-67.158-13.608-32.508 1.764-47.88 34.272-34.272 32.508 13.608 62.748-3.78 67.158-38.808 4.41-34.902 25.452-40.572 46.746-12.474" fill="url(#h)"/><path d="M1354.108 1887.569c21.042 27.72 55.566 27.72 76.482 0 21.168-27.72 41.832-22.176 46.242 12.348 4.41 34.524 34.146 51.786 66.276 38.304 32.13-13.482 47.376 1.764 33.894 33.894-13.482 32.13 3.78 61.992 38.304 66.276 34.524 4.41 40.068 25.2 12.474 46.242-27.72 21.042-27.72 55.44 0 76.482 27.72 21.168 22.176 41.958-12.474 46.242-34.524 4.41-51.786 34.272-38.304 66.276 13.482 32.13-1.764 47.376-33.894 33.894-32.13-13.482-61.866 3.78-66.276 38.304-4.41 34.524-25.074 40.068-46.242 12.348-21.042-27.72-55.44-27.72-76.482 0s-41.832 22.176-46.242-12.348c-4.41-34.524-34.146-51.786-66.276-38.304-32.13 13.482-47.25-1.764-33.768-33.894 13.482-32.004-3.78-61.992-38.304-66.276-34.524-4.284-40.068-25.074-12.348-46.242 27.72-21.042 27.72-55.44 0-76.482s-22.176-41.832 12.348-46.242c34.524-4.284 51.786-34.146 38.304-66.276-13.482-32.13 1.764-47.376 33.768-33.894 32.13 13.482 61.992-3.78 66.276-38.304 4.41-34.398 25.2-40.068 46.242-12.348" fill="url(#i)"/><path d="M1354.612 1890.593c20.79 27.342 54.81 27.342 75.6 0 20.79-27.342 41.328-21.798 45.612 12.222 4.284 34.146 33.768 51.03 65.394 37.8 31.752-13.356 46.746 1.764 33.39 33.39-13.356 31.626 3.654 61.11 37.8 65.394 34.146 4.284 39.564 24.822 12.222 45.612-27.468 20.79-27.468 54.81 0 75.474 27.342 20.79 21.924 41.328-12.222 45.612-34.02 4.284-51.03 33.894-37.8 65.52 13.356 31.626-1.764 46.746-33.39 33.39-31.626-13.356-61.11 3.654-65.394 37.8-4.284 34.02-24.822 39.564-45.612 12.222-20.79-27.342-54.81-27.342-75.6 0-20.79 27.342-41.328 21.924-45.612-12.222-4.284-34.146-33.768-51.156-65.394-37.8-31.626 13.356-46.746-1.764-33.39-33.39 13.356-31.626-3.654-61.11-37.8-65.52-34.02-4.284-39.564-24.822-12.222-45.612 27.342-20.79 27.342-54.81 0-75.474-27.342-20.79-21.924-41.328 12.222-45.612 34.146-4.284 51.156-33.768 37.8-65.394-13.356-31.626 1.764-46.746 33.39-33.39 31.626 13.356 61.11-3.654 65.394-37.8 4.284-34.02 24.822-39.564 45.612-12.222" fill="url(#j)"/><path d="M1355.116 1893.617c20.538 26.964 54.054 26.964 74.592 0 20.538-27.09 40.824-21.546 45.108 12.096 4.284 33.642 33.264 50.4 64.512 37.296 31.248-13.104 46.116 1.764 33.012 33.012s3.654 60.354 37.296 64.638c33.768 4.284 39.06 24.57 12.096 44.982-27.09 20.538-27.09 54.054 0 74.592 26.964 20.538 21.672 40.824-12.096 44.982-33.642 4.284-50.4 33.39-37.296 64.638 13.104 31.248-1.764 46.116-33.012 33.012s-60.354 3.654-64.512 37.296c-4.284 33.642-24.444 39.06-45.108 12.096-20.412-26.964-54.054-26.964-74.592 0-20.538 26.964-40.824 21.546-44.982-12.096-4.284-33.642-33.39-50.4-64.638-37.296-31.248 13.104-46.116-1.638-33.012-33.012 13.104-31.248-3.654-60.354-37.296-64.638-33.642-4.158-39.06-24.444-12.096-44.982 26.964-20.538 26.964-54.054 0-74.592-27.09-20.538-21.546-40.824 12.096-44.982 33.642-4.284 50.526-33.264 37.296-64.638-13.104-31.248 1.764-46.116 33.012-33.012s60.354-3.654 64.638-37.296c4.158-33.642 24.444-39.06 44.982-12.096" fill="url(#k)"/><path d="M1355.494 1896.64c20.286 26.713 53.424 26.713 73.584 0 20.286-26.711 40.32-21.293 44.478 11.97 4.158 33.139 32.886 49.77 63.756 36.793 30.87-12.978 45.612 1.638 32.634 32.508-12.978 30.87 3.528 59.598 36.792 63.756 33.264 4.158 38.556 24.192 11.97 44.478-26.712 20.16-26.712 53.298 0 73.584s21.294 40.32-11.97 44.478c-33.138 4.158-49.77 33.012-36.792 63.756 12.978 30.87-1.638 45.486-32.634 32.508-30.87-12.978-59.472 3.528-63.756 36.792-4.158 33.264-24.192 38.556-44.478 11.844-20.16-26.586-53.298-26.586-73.584 0s-40.194 21.294-44.478-11.844c-4.158-33.264-32.886-49.77-63.756-36.792-30.87 12.978-45.486-1.638-32.508-32.508 12.978-30.87-3.654-59.598-36.792-63.756-33.138-4.158-38.556-24.066-11.844-44.478 26.712-20.16 26.712-53.298 0-73.584s-21.294-40.32 11.844-44.478c33.264-4.158 49.77-32.886 36.792-63.756-12.978-30.87 1.638-45.486 32.508-32.508 30.87 12.978 59.598-3.528 63.756-36.792 4.284-33.264 24.318-38.682 44.478-11.97" fill="url(#l)"/><path d="M1355.998 1899.665c20.034 26.334 52.668 26.334 72.576 0 20.034-26.334 39.69-21.042 43.848 11.718 4.158 32.76 32.382 49.14 62.874 36.288 30.492-12.726 44.982 1.638 32.13 32.13-12.726 30.492 3.528 58.716 36.288 62.874 32.886 4.158 38.052 23.814 11.844 43.848-26.334 19.908-26.334 52.668 0 72.576 26.334 20.034 21.042 39.816-11.844 43.848-32.76 4.158-49.014 32.508-36.288 62.874 12.852 30.492-1.638 44.856-32.13 32.13-30.492-12.852-58.716 3.528-62.874 36.288-4.158 32.76-23.814 38.052-43.848 11.718-19.908-26.334-52.668-26.334-72.576 0-19.908 26.334-39.69 21.042-43.848-11.718-4.158-32.76-32.508-49.14-62.874-36.288-30.492 12.726-44.856-1.638-32.13-32.13 12.852-30.366-3.528-58.716-36.288-62.874-32.76-4.032-38.052-23.814-11.718-43.848 26.334-19.908 26.334-52.668 0-72.576-26.334-20.034-21.042-39.69 11.718-43.848 32.76-4.158 49.14-32.508 36.288-62.874-12.726-30.492 1.638-44.982 32.13-32.13 30.492 12.852 58.716-3.528 62.874-36.288 4.158-32.76 23.94-38.052 43.848-11.718" fill="url(#m)"/><g fill="#9cb1bf"><path d="M1482.123 2569.48c-3.78 0-7.56-.881-10.836-2.645-8.946-5.04-11.466-15.246-5.544-22.68 122.598-145.026 131.796-145.026 134.694-145.026h1.386l1.512.756c4.536 2.52 10.584 5.922-105.084 162.288-3.528 4.662-9.576 7.308-16.128 7.308M1474.06 2477.627a18.51 18.51 0 0 1-8.947-2.268c-7.434-4.158-9.45-12.474-4.536-18.648 101.052-119.448 108.486-119.448 111.006-119.448h1.134l1.26.63c3.654 2.016 8.82 4.788-86.562 133.686-2.898 3.78-7.938 6.048-13.356 6.048M1310.133 2487.329c-3.15 0-6.174-.756-8.82-2.268-7.434-4.158-9.45-12.474-4.536-18.648 101.052-119.448 108.486-119.448 111.006-119.448h1.134l1.26.63c3.654 2.016 8.82 4.788-86.562 133.686-3.15 3.78-8.19 6.048-13.482 6.048M1342.011 2550.455c-3.15 0-6.174-.756-8.82-2.268-7.434-4.158-9.45-12.474-4.536-18.648 101.052-119.448 108.486-119.448 111.006-119.448h1.134l1.26.63c3.654 2.016 8.82 4.788-86.436 133.686-3.276 3.906-8.316 6.048-13.608 6.048"/></g><path d="M1479.1 2563.18c-3.78 0-7.56-.881-10.836-2.645-8.946-5.04-11.466-15.246-5.544-22.68 122.598-145.026 131.796-145.026 134.694-145.026h1.386l1.512.756c4.536 2.52 10.584 5.922-105.084 162.288-3.528 4.536-9.576 7.308-16.128 7.308" fill="#78b5db"/><path d="M1470.91 2557.133c-6.804-3.78-8.694-11.466-4.158-17.262 0 0 124.362-146.916 131.166-143.136 6.804 3.78-106.47 156.996-106.47 156.996-2.898 3.654-7.56 5.544-12.348 5.544-2.898 0-5.67-.756-8.19-2.142" fill="url(#n)"/><path d="M1471.036 2471.327a18.51 18.51 0 0 1-8.946-2.268c-7.434-4.158-9.45-12.474-4.536-18.648 101.052-119.448 108.486-119.448 111.006-119.448h1.134l1.26.63c3.654 2.016 8.82 4.788-86.562 133.686-3.024 3.78-7.938 6.048-13.356 6.048" fill="#78b5db"/><path d="M1464.232 2466.287c-5.67-3.15-7.182-9.45-3.402-14.238 0 0 102.438-121.086 107.982-117.936 5.67 3.15-87.696 129.276-87.696 129.276-2.394 3.024-6.174 4.536-10.206 4.536-2.142.126-4.536-.378-6.678-1.638" fill="url(#o)"/><path d="M1307.11 2480.903c-3.15 0-6.174-.756-8.82-2.268-7.434-4.158-9.45-12.474-4.536-18.648 101.052-119.448 108.486-119.448 111.006-119.448h1.134l1.26.63c3.654 2.016 8.82 4.788-86.562 133.686-3.15 3.906-8.19 6.048-13.482 6.048" fill="#78b5db"/><path d="M1300.306 2475.989c-5.67-3.15-7.182-9.45-3.402-14.112 0 0 102.312-121.086 107.982-117.936 5.67 3.15-87.696 129.276-87.696 129.276-2.394 3.024-6.174 4.536-10.206 4.536-2.268 0-4.536-.63-6.678-1.764" fill="url(#p)"/><path d="M1755.544 2539.745c-3.15 0-6.174-.756-8.82-2.268-7.434-4.158-9.45-12.474-4.536-18.648 101.052-119.448 108.486-119.448 111.006-119.448h1.134l1.26.63c3.654 2.016 8.82 4.788-86.562 133.686-3.15 3.906-8.19 6.048-13.482 6.048" fill="#9cb1bf"/><path d="M1752.52 2533.445c-3.15 0-6.174-.756-8.82-2.268-7.434-4.158-9.45-12.474-4.536-18.648 101.052-119.448 108.486-119.448 111.006-119.448h1.134l1.26.63c3.654 2.016 8.82 4.788-86.562 133.686-3.15 3.78-8.19 6.048-13.482 6.048" fill="#78b5db"/><path d="M1745.716 2528.405c-5.67-3.15-7.182-9.45-3.402-14.112 0 0 102.312-121.086 107.982-117.936 5.67 3.15-87.696 129.276-87.696 129.276-2.394 3.024-6.174 4.536-10.206 4.536-2.268 0-4.662-.504-6.678-1.764" fill="url(#q)"/><g fill="#9cb1bf"><path d="M1645.797 2577.923c-3.78 0-7.56-.882-10.836-2.646-8.946-5.04-11.466-15.246-5.544-22.68 122.598-145.026 131.796-145.026 134.694-145.026h1.386l1.512.756c4.536 2.52 10.584 5.922-105.084 162.288-3.528 4.662-9.576 7.308-16.128 7.308M1637.86 2486.069a18.51 18.51 0 0 1-8.947-2.268c-7.434-4.158-9.45-12.474-4.536-18.648 101.052-119.448 108.486-119.448 111.006-119.448h1.134l1.26.63c3.654 2.016 8.82 4.788-86.562 133.686-3.024 3.78-7.938 6.048-13.356 6.048M1561 2592.035c-2.899-.378-5.797-1.26-8.569-2.52-7.686-3.654-11.592-9.45-8.568-12.978 63.252-67.788 70.056-66.906 72.324-66.528l1.008.126 1.26.63c3.906 1.764 9.072 4.284-46.746 79.002-1.764 2.016-5.796 2.898-10.71 2.268"/></g><path d="M1642.774 2571.497c-3.78 0-7.56-.882-10.836-2.646-8.946-5.04-11.466-15.246-5.544-22.68 122.85-145.026 131.922-145.026 134.82-145.026h1.386l1.512.756c4.536 2.52 10.584 5.922-105.084 162.288-3.654 4.662-9.702 7.308-16.254 7.308" fill="#78b5db"/><path d="M1634.584 2565.575c-6.804-3.78-8.694-11.466-4.158-17.262 0 0 124.362-146.916 131.166-143.136 6.804 3.78-106.47 156.996-106.47 156.996-2.898 3.654-7.56 5.544-12.348 5.544-2.772-.126-5.67-.756-8.19-2.142" fill="url(#r)"/><path d="M1634.836 2479.643a18.51 18.51 0 0 1-8.946-2.268c-7.434-4.158-9.45-12.474-4.536-18.648 101.052-119.448 108.486-119.448 111.006-119.448h1.134l1.26.63c3.654 2.016 8.82 4.788-86.562 133.686-3.024 3.906-8.064 6.048-13.356 6.048" fill="#78b5db"/><path d="M1628.032 2474.729c-5.67-3.15-7.182-9.45-3.402-14.238 0 0 102.438-121.086 107.982-117.936 5.67 3.15-87.696 129.276-87.696 129.276-2.394 3.024-6.174 4.536-10.206 4.536-2.268.126-4.536-.504-6.678-1.638" fill="url(#s)"/><path d="M1353.856 2637.899a18.51 18.51 0 0 1-8.946-2.268c-7.434-4.158-9.45-12.474-4.536-18.648 101.052-119.448 108.486-119.448 111.006-119.448h1.134l1.26.63c3.654 2.016 8.82 4.788-86.562 133.686-3.024 3.78-8.064 6.048-13.356 6.048" fill="#9cb1bf"/><path d="M1350.706 2631.473a18.51 18.51 0 0 1-8.946-2.268c-7.434-4.158-9.45-12.474-4.536-18.648 101.052-119.448 108.486-119.448 111.006-119.448h1.134l1.26.63c3.654 2.016 8.82 4.788-86.562 133.686-2.898 3.78-7.938 6.048-13.356 6.048" fill="#78b5db"/><path d="M1344.028 2626.559c-5.67-3.15-7.182-9.45-3.402-14.238 0 0 102.438-121.086 107.982-117.936 5.67 3.15-87.696 129.276-87.696 129.276-2.394 3.024-6.174 4.536-10.206 4.536-2.268.126-4.662-.504-6.678-1.638" fill="url(#t)"/><path d="M1557.976 2585.609c-2.898-.378-5.796-1.26-8.568-2.52-7.686-3.654-11.592-9.45-8.568-12.978 63.252-67.788 70.056-66.906 72.324-66.528l1.008.126 1.26.63c3.906 1.764 9.072 4.284-46.746 79.002-1.764 2.016-5.796 2.898-10.71 2.268" fill="#78b5db"/><path d="M1550.668 2581.45c-5.922-2.771-8.82-7.181-6.552-9.953 0 0 64.134-68.67 70.056-65.898 5.796 2.772-48.762 75.852-48.762 75.852-1.386 1.764-4.536 2.394-8.19 1.89-2.142-.126-4.41-.882-6.552-1.89" fill="url(#u)"/><path d="M1338.862 2544.155c-3.15 0-6.174-.756-8.82-2.268-7.434-4.158-9.45-12.474-4.536-18.648 101.052-119.448 108.486-119.448 111.006-119.448h1.134l1.26.63c3.654 2.016 8.82 4.788-86.436 133.686-3.15 3.78-8.19 6.048-13.608 6.048" fill="#78b5db"/><path d="M1332.184 2539.24c-5.67-3.15-7.182-9.45-3.402-14.237 0 0 102.312-121.086 107.982-117.936 5.67 3.15-87.696 129.276-87.696 129.276-2.394 3.024-6.174 4.536-10.206 4.536-2.268 0-4.662-.504-6.678-1.638" fill="url(#v)"/><path d="M1857.1 2202.317c-4.032 0-7.938.504-11.718 1.26-2.268-25.074-23.058-44.856-48.762-44.856-5.544 0-10.836 1.134-15.75 2.772-10.458-46.62-51.786-81.396-101.556-81.396-41.454 0-77.112 24.444-93.87 59.724-9.45-8.316-21.672-13.482-35.28-13.482-28.854 0-52.164 22.806-53.424 51.282-11.214-6.3-23.94-10.206-37.674-10.206-42.714 0-77.364 34.65-77.364 77.364 0 42.714 34.65 77.364 77.364 77.364h397.908c33.138 0 59.85-26.838 59.85-59.85.126-33.138-26.712-59.976-59.724-59.976" fill="#9cb1bf"/><path d="M1847.524 2185.81c-4.032 0-7.812.379-11.718 1.26-2.268-25.2-23.058-44.855-48.762-44.855-5.67 0-10.836 1.134-15.75 2.772-10.458-46.62-51.786-81.396-101.556-81.396-41.454 0-77.112 24.57-93.744 59.724-9.45-8.316-21.672-13.608-35.28-13.608-28.854 0-52.164 22.806-53.424 51.408-11.214-6.3-23.94-10.206-37.674-10.206-42.714 0-77.364 34.65-77.364 77.364 0 42.714 34.65 77.238 77.364 77.238h397.908c33.012 0 59.976-26.838 59.976-59.85-.126-33.138-26.964-59.85-59.976-59.85" fill="url(#w)"/><path d="M1540.966 2110.84c13.482 0 25.326 5.293 34.398 13.23 2.016-4.157 5.544-7.181 8.064-10.961 2.646-3.906 6.174-9.072 9.324-12.474 18.144-21.294 44.73-34.902 74.466-35.658 8.568-.252 16.884.63 24.948 2.394 37.926 8.442 68.04 38.052 77.238 76.104 4.662-1.008 9.45-1.386 14.616-.882 2.646 0 5.544 1.638 8.064 2.016 2.394.378 6.174.63 8.442 1.512 2.772.63 5.292 1.638 7.812 2.772 11.592 5.418 20.538 15.75 24.192 28.35.756 2.394 1.512 6.174 1.764 8.694.126.882.63 1.638.63 2.394 1.638-.378 4.284-.756 6.048-1.008a53.376 53.376 0 0 1 6.426-.378c17.64 0 33.264 8.442 42.966 21.042 9.576 12.6 13.23 28.35 10.332 42.966 0 29.358-30.492 53.172-59.85 53.172h-381.78c-37.926 0-77.364-30.744-77.364-68.67-3.906-19.026.504-39.438 12.978-55.944s32.886-27.468 55.818-27.468c10.458 0 20.412 2.268 29.61 6.426 2.52 1.134 6.048 2.898 8.442 4.284.126-2.016 1.008-3.654 1.386-5.67.882-5.04 2.646-11.844 4.914-16.254 7.56-17.64 25.326-29.988 46.116-29.988" fill="url(#x)"/><path d="M1541.092 2112.1c13.356 0 24.948 5.419 33.516 12.979 1.764-3.654 6.174-5.04 8.442-8.316 2.268-3.402 6.174-9.576 8.946-12.6 17.388-21.798 43.344-36.036 72.576-37.548 8.316-.378 16.632.126 24.57 1.764 37.8 7.308 68.292 36.288 77.994 73.71 4.284-.252 8.694 0 13.356 1.134 2.268 0 5.166 2.898 7.434 3.276 2.142.378 6.804 0 8.82.756 2.898.378 5.67 1.134 8.316 2.142 12.474 4.788 22.302 15.624 25.704 29.106.63 2.016 1.386 6.93 1.764 9.072.126.756.882 1.26 1.008 2.016 1.512-.252 4.914-.882 6.426-1.134 2.268-.252 4.41-.504 6.678-.504 18.648 0 35.154 10.08 43.596 24.444 8.442 14.364 8.946 30.87 3.024 43.722 0 25.704-34.146 46.494-59.85 46.494h-365.778c-33.264 0-77.238-26.838-77.238-60.102-7.938-16.632-7.686-38.178 3.276-57.204 10.836-19.026 32.382-32.256 56.952-32.256 10.458 0 20.538 2.394 29.862 6.678 2.268.882 6.426 3.15 8.568 4.41.126-1.764 1.638-2.772 2.016-4.536.756-4.41 2.394-12.726 4.41-16.506 6.93-18.018 24.822-30.996 45.612-30.996" fill="url(#y)"/><path d="M1541.344 2113.36c13.23 0 24.444 5.419 32.634 12.6 1.512-3.15 6.93-2.897 8.82-5.795 1.89-2.898 6.174-10.08 8.568-12.726 16.632-22.302 41.958-37.044 70.686-39.312 8.19-.63 16.38-.252 24.318 1.134 37.674 6.3 68.544 34.398 78.876 71.442 3.906.504 7.938 1.386 12.096 3.15 2.016 0 4.788 4.284 6.678 4.662 1.89.378 7.56-.504 9.198 0 3.15.126 6.048.63 8.82 1.512 13.482 4.032 24.192 15.498 27.342 29.862.63 1.764 1.386 7.686 1.638 9.576.126.63 1.26 1.008 1.26 1.638 1.26-.252 5.418-1.008 6.678-1.134 2.268-.378 4.662-.504 7.056-.504 19.782 0 36.918 11.718 44.1 27.972 7.182 16.128 4.536 33.39-4.158 44.352 0 22.05-37.8 39.816-59.85 39.816h-349.65c-28.476 0-77.238-23.058-77.238-51.534-11.844-14.238-15.75-37.044-6.426-58.464s31.878-37.17 58.086-37.17c10.584 0 20.664 2.52 29.988 6.93 1.89.756 6.93 3.528 8.694 4.536.126-1.512 2.394-1.89 2.646-3.402.63-3.78 2.142-13.482 3.906-16.758 6.3-18.648 24.192-32.382 45.234-32.382" fill="url(#z)"/><path d="M1541.596 2114.62c13.23 0 24.066 5.545 31.752 12.349 1.26-2.646 7.56-.756 9.198-3.15 1.638-2.394 6.174-10.71 8.19-12.852 15.876-22.932 40.572-38.178 68.796-41.202a96.082 96.082 0 0 1 24.066.378c37.548 5.292 68.796 32.634 79.758 69.174 3.654 1.134 7.182 2.772 10.836 5.04 1.638 0 4.536 5.67 6.048 5.922 1.512.252 8.19-1.134 9.576-.63 3.276-.126 6.3.126 9.324.882 14.364 3.402 25.956 15.372 28.854 30.744.504 1.512 1.26 8.568 1.512 10.08.126.504 1.512.756 1.638 1.26 1.008-.252 6.048-1.134 7.056-1.26 2.394-.378 4.914-.63 7.434-.63 20.916 0 38.682 13.482 44.73 31.374 6.048 17.892.252 35.91-11.466 45.108 0 18.396-41.454 33.264-59.724 33.264h-333.522c-23.688 0-77.238-19.152-77.238-42.966-15.876-11.844-23.94-35.784-16.128-59.724 7.812-23.94 31.374-41.958 59.094-41.958 10.584 0 20.79 2.52 30.24 7.308 1.638.63 7.308 3.78 8.82 4.662 0-1.26 3.024-1.008 3.276-2.142.504-3.15 1.89-14.364 3.402-17.01 5.292-19.656 23.31-34.02 44.478-34.02" fill="url(#A)"/><path d="M1541.848 2115.88c13.104 0 23.562 5.545 30.87 11.97 1.008-2.141 8.316 1.387 9.576-.63 1.26-1.89 6.3-11.213 7.812-12.977 14.994-23.436 39.06-39.312 66.906-42.966 7.938-1.008 15.876-1.134 23.814-.252 37.422 4.158 69.048 30.744 80.514 66.906 3.276 1.89 6.426 4.158 9.576 7.056 1.26 0 4.158 6.93 5.418 7.182 1.26.252 8.82-1.764 10.08-1.386a36.284 36.284 0 0 1 9.828.252c15.372 2.772 27.72 15.246 30.492 31.5.378 1.134 1.26 9.324 1.386 10.584 0 .378 1.89.504 1.89.882.882-.126 6.552-1.26 7.434-1.386 2.52-.378 5.166-.63 7.812-.63 21.924 0 40.446 15.12 45.36 34.776 4.788 19.656-4.032 38.43-18.648 45.738 0 14.616-45.108 26.586-59.724 26.586H1494.85c-19.026 0-77.112-15.372-77.112-34.398-19.782-9.45-32.13-34.524-25.956-60.984 6.174-26.46 30.996-46.746 60.228-46.746 10.584 0 20.916 2.646 30.492 7.56 1.26.504 7.686 4.158 8.946 4.788 0-1.008 3.654 0 3.906-1.008.378-2.52 1.638-15.12 2.772-17.388 4.41-19.908 22.302-35.028 43.722-35.028" fill="url(#B)"/><path d="M1542.1 2117.14c12.978 0 23.058 5.67 29.988 11.719.756-1.512 8.946 3.402 9.954 2.016 1.008-1.386 6.3-11.844 7.434-13.104 14.238-23.94 37.674-40.32 64.89-44.856 7.812-1.26 15.624-1.638 23.562-.882 37.296 3.15 69.3 28.98 81.396 64.638 2.898 2.646 5.67 5.544 8.316 9.072 1.008 0 3.78 8.316 4.788 8.442.882.126 9.576-2.394 10.458-2.016 3.654-.63 7.056-.756 10.332-.378 16.38 2.142 29.61 15.12 32.13 32.256.252.882 1.26 10.08 1.386 11.088 0 .252 2.268.126 2.268.504.63-.126 7.182-1.386 7.812-1.512 2.646-.378 5.418-.756 8.19-.756 23.058 0 42.336 16.758 45.864 38.304 3.654 21.42-8.442 40.95-25.956 46.494 0 10.962-48.636 19.908-59.724 19.908h-301.392c-14.238 0-77.112-11.466-77.112-25.704-23.814-7.182-40.32-33.264-35.658-62.244 4.662-28.98 30.492-51.534 61.362-51.534 10.584 0 21.042 2.772 30.744 7.938 1.008.378 8.19 4.41 9.072 4.914 0-.756 4.41.882 4.536.126.378-1.89 1.386-16.002 2.268-17.64 3.528-21.042 21.546-36.792 43.092-36.792" fill="url(#C)"/><path d="M1542.352 2118.4c12.852 0 22.68 5.67 29.106 11.34.504-1.007 9.576 5.545 10.332 4.663.63-1.008 6.3-12.348 7.056-13.23 13.482-24.444 36.288-41.454 63-46.746 7.56-1.512 15.372-2.016 23.31-1.638 37.17 2.142 69.552 27.216 82.278 62.244 2.646 3.402 4.914 6.93 7.056 10.962.63 0 3.402 9.576 4.032 9.702.63.126 10.206-2.898 10.836-2.772 3.906-.882 7.434-1.26 10.836-1.008 17.388 1.386 31.374 14.994 33.642 33.012.252.63 1.134 10.962 1.26 11.592 0 .252 2.52-.126 2.646.126.378-.126 7.686-1.512 8.064-1.638a48.154 48.154 0 0 1 8.568-.756c24.066 0 44.1 18.522 46.494 41.706 2.394 23.184-12.726 43.47-33.138 47.124 0 7.308-52.29 13.23-59.724 13.23h-285.264c-9.45 0-77.112-7.686-77.112-17.136-27.72-4.788-48.384-32.13-45.36-63.504 3.15-31.374 29.988-56.448 62.496-56.448 10.71 0 21.042 2.772 30.996 8.19.63.252 8.568 4.788 9.198 5.04 0-.504 5.04 1.764 5.166 1.26.252-1.26 1.26-16.758 1.764-17.892 2.646-20.916 20.664-37.422 42.462-37.422" fill="url(#D)"/><path d="M1542.604 2119.66c12.726 0 22.176 5.797 28.224 11.089.252-.504 10.332 7.686 10.584 7.182.378-.504 6.3-12.978 6.678-13.356 12.726-25.074 34.902-42.588 61.11-48.51 7.434-1.638 15.12-2.52 23.058-2.268 37.044 1.008 69.93 25.326 83.034 59.976 2.268 4.032 4.284 8.442 5.796 12.978.378 0 3.15 10.962 3.402 11.088.252 0 10.962-3.528 11.214-3.402 4.032-1.134 7.812-1.764 11.34-1.512 18.27.756 33.264 14.994 35.28 33.768.126.252 1.134 11.718 1.134 11.97 0 .126 2.898-.378 2.898-.252.252 0 8.19-1.638 8.442-1.638 2.898-.504 5.796-.882 8.946-.882 25.2 0 45.864 20.16 47.124 45.108 1.26 24.948-17.01 45.99-40.446 47.88 0 3.654-55.944 6.678-59.598 6.678h-269.136c-4.788 0-77.112-3.78-77.112-8.568-31.752-2.394-56.574-30.87-55.062-64.764 1.512-33.894 29.484-61.236 63.63-61.236 10.71 0 21.168 2.898 31.248 8.442.378.126 8.946 5.04 9.324 5.292 0-.252 5.67 2.772 5.796 2.52.126-.63 1.008-17.64 1.26-18.144 1.764-22.302 19.908-39.438 41.832-39.438" fill="url(#E)"/><path d="M1843.492 2294.17h-389.718c-35.658 0-64.764-29.61-64.764-66.023 0-36.414 29.106-66.024 64.764-66.024 10.71 0 21.294 3.024 31.374 8.82l15.75 9.072.756-18.522c.882-22.68 19.026-40.572 41.202-40.572 12.6 0 21.798 5.796 27.342 10.836l10.962 9.828 6.3-13.482c15.246-32.886 46.62-53.298 81.9-53.298 42.084 0 79.38 30.618 88.578 72.702l2.772 12.348 11.592-4.158c4.284-1.386 8.064-2.142 11.844-2.142 19.278 0 35.028 14.868 36.918 34.524l1.008 12.474 12.096-2.394c3.024-.504 6.048-1.008 9.324-1.008 26.334 0 47.628 21.798 47.628 48.636 0 26.586-21.42 48.384-47.628 48.384" fill="url(#F)"/></svg>