<svg xmlns="http://www.w3.org/2000/svg" viewBox="1095.9 6076.3 841.9 841.90004" width="841.9" height="841.9"><defs><linearGradient id="d" gradientUnits="userSpaceOnUse" y1="6510.99" x2="0" y2="6089.08" gradientTransform="matrix(1.1 0 0 1.1 -172.817 -586.487)"><stop stop-color="#e18e00"/><stop offset="1" stop-color="#ffc317"/></linearGradient><linearGradient id="l" gradientUnits="userSpaceOnUse" y1="6490.48" x2="0" y2="6109.57" gradientTransform="matrix(1.1 0 0 1.1 -172.817 -586.487)"><stop stop-color="#e69e00"/><stop offset="1" stop-color="#fff200"/></linearGradient><linearGradient id="c" gradientUnits="userSpaceOnUse" y1="6513.55" x2="0" y2="6086.52" gradientTransform="matrix(1.1 0 0 1.1 -172.817 -586.487)"><stop stop-color="#e08c00"/><stop offset="1" stop-color="#ffbd19"/></linearGradient><linearGradient id="a" gradientUnits="userSpaceOnUse" y1="6518.67" x2="0" y2="6081.39" gradientTransform="matrix(1.1 0 0 1.1 -172.817 -586.487)"><stop stop-color="#df8800"/><stop offset="1" stop-color="#ffb11f"/></linearGradient><linearGradient id="B" gradientUnits="userSpaceOnUse" y1="6436" x2="0" y2="6280.39" gradientTransform="matrix(1.1 0 0 1.1 -172.817 -586.487)"><stop stop-color="#a7c2d4"/><stop offset="1" stop-color="#eaf7ff"/></linearGradient><linearGradient id="b" gradientUnits="userSpaceOnUse" y1="6516.11" x2="0" y2="6083.95" gradientTransform="matrix(1.1 0 0 1.1 -172.817 -586.487)"><stop stop-color="#e08a00"/><stop offset="1" stop-color="#ffb71c"/></linearGradient><linearGradient id="e" gradientUnits="userSpaceOnUse" y1="6508.42" x2="0" y2="6091.64" gradientTransform="matrix(1.1 0 0 1.1 -172.817 -586.487)"><stop stop-color="#e29000"/><stop offset="1" stop-color="#ffc914"/></linearGradient><linearGradient id="k" gradientUnits="userSpaceOnUse" y1="6493.05" x2="0" y2="6107.01" gradientTransform="matrix(1.1 0 0 1.1 -172.817 -586.487)"><stop stop-color="#e59c00"/><stop offset="1" stop-color="#ffec03"/></linearGradient><linearGradient id="f" gradientUnits="userSpaceOnUse" y1="6505.86" x2="0" y2="6094.2" gradientTransform="matrix(1.1 0 0 1.1 -172.817 -586.487)"><stop stop-color="#e29200"/><stop offset="1" stop-color="#ffcf11"/></linearGradient><linearGradient id="j" gradientUnits="userSpaceOnUse" y1="6495.61" x2="0" y2="6104.45" gradientTransform="matrix(1.1 0 0 1.1 -172.817 -586.487)"><stop stop-color="#e59a00"/><stop offset="1" stop-color="#ffe606"/></linearGradient><linearGradient id="h" gradientUnits="userSpaceOnUse" y1="6500.73" x2="0" y2="6099.32" gradientTransform="matrix(1.1 0 0 1.1 -172.817 -586.487)"><stop stop-color="#e39600"/><stop offset="1" stop-color="#ffda0b"/></linearGradient><linearGradient id="g" gradientUnits="userSpaceOnUse" y1="6503.3" x2="0" y2="6096.76" gradientTransform="matrix(1.1 0 0 1.1 -172.817 -586.487)"><stop stop-color="#e39400"/><stop offset="1" stop-color="#ffd40e"/></linearGradient><linearGradient id="i" gradientUnits="userSpaceOnUse" y1="6498.17" x2="0" y2="6101.89" gradientTransform="matrix(1.1 0 0 1.1 -172.817 -586.487)"><stop stop-color="#e49800"/><stop offset="1" stop-color="#ffe008"/></linearGradient><linearGradient id="A" gradientUnits="userSpaceOnUse" y1="6436.99" x2="0" y2="6279.82" gradientTransform="matrix(1.1 0 0 1.1 -172.817 -586.487)"><stop stop-color="#a5c1d3"/><stop offset="1" stop-color="#e7f4fc"/></linearGradient><linearGradient id="q" gradientUnits="userSpaceOnUse" x1="1464.38" y1="6608.32" x2="1575.68" y2="6719.62" gradientTransform="matrix(1.1 0 0 1.1 -172.817 -586.487)"><stop stop-color="#f7feff"/><stop offset="1" stop-color="#d6efff"/></linearGradient><linearGradient id="z" gradientUnits="userSpaceOnUse" y1="6437.98" x2="0" y2="6279.2" gradientTransform="matrix(1.1 0 0 1.1 -172.817 -586.487)"><stop stop-color="#a3c0d2"/><stop offset="1" stop-color="#e4f1fa"/></linearGradient><linearGradient id="p" gradientUnits="userSpaceOnUse" x1="1458.59" y1="6601.11" x2="1581.91" y2="6724.42" gradientTransform="matrix(1.1 0 0 1.1 -172.817 -586.487)"><stop stop-color="#f3feff"/><stop offset="1" stop-color="#c2e7ff"/></linearGradient><linearGradient id="n" gradientUnits="userSpaceOnUse" x1="1447.03" y1="6586.7" x2="1594.36" y2="6734.04" gradientTransform="matrix(1.1 0 0 1.1 -172.817 -586.487)"><stop stop-color="#eafdff"/><stop offset="1" stop-color="#99d7ff"/></linearGradient><linearGradient id="m" gradientUnits="userSpaceOnUse" x1="1441.24" y1="6579.5" x2="1600.59" y2="6738.84" gradientTransform="matrix(1.1 0 0 1.1 -172.817 -586.487)"><stop stop-color="#e6fcff"/><stop offset="1" stop-color="#85cfff"/></linearGradient><linearGradient id="o" gradientUnits="userSpaceOnUse" x1="1452.81" y1="6593.91" x2="1588.13" y2="6729.23" gradientTransform="matrix(1.1 0 0 1.1 -172.817 -586.487)"><stop stop-color="#eefdff"/><stop offset="1" stop-color="#aedfff"/></linearGradient><linearGradient id="r" gradientUnits="userSpaceOnUse" x1="1470.16" y1="6615.52" x2="1569.45" y2="6714.81" gradientTransform="matrix(1.1 0 0 1.1 -172.817 -586.487)"><stop stop-color="#fbfeff"/><stop offset="1" stop-color="#ebf7ff"/></linearGradient><linearGradient id="y" gradientUnits="userSpaceOnUse" y1="6438.98" x2="0" y2="6278.52" gradientTransform="matrix(1.1 0 0 1.1 -172.817 -586.487)"><stop stop-color="#a1bfd1"/><stop offset="1" stop-color="#e0eff7"/></linearGradient><linearGradient id="x" gradientUnits="userSpaceOnUse" y1="6439.97" x2="0" y2="6277.79" gradientTransform="matrix(1.1 0 0 1.1 -172.817 -586.487)"><stop stop-color="#9fbed0"/><stop offset="1" stop-color="#ddecf5"/></linearGradient><linearGradient id="s" gradientUnits="userSpaceOnUse" y1="6444.94" x2="0" y2="6273.35" gradientTransform="matrix(1.1 0 0 1.1 -172.817 -586.487)"><stop stop-color="#95b9cc"/><stop offset="1" stop-color="#cddee8"/></linearGradient><linearGradient id="w" gradientUnits="userSpaceOnUse" y1="6440.96" x2="0" y2="6277.01" gradientTransform="matrix(1.1 0 0 1.1 -172.817 -586.487)"><stop stop-color="#9dbdd0"/><stop offset="1" stop-color="#dae9f2"/></linearGradient><linearGradient id="u" gradientUnits="userSpaceOnUse" y1="6442.95" x2="0" y2="6275.28" gradientTransform="matrix(1.1 0 0 1.1 -172.817 -586.487)"><stop stop-color="#99bbce"/><stop offset="1" stop-color="#d3e4ed"/></linearGradient><linearGradient id="t" gradientUnits="userSpaceOnUse" y1="6443.94" x2="0" y2="6274.34" gradientTransform="matrix(1.1 0 0 1.1 -172.817 -586.487)"><stop stop-color="#97bacd"/><stop offset="1" stop-color="#d0e1eb"/></linearGradient><linearGradient id="v" gradientUnits="userSpaceOnUse" y1="6441.96" x2="0" y2="6276.17" gradientTransform="matrix(1.1 0 0 1.1 -172.817 -586.487)"><stop stop-color="#9bbccf"/><stop offset="1" stop-color="#d7e6f0"/></linearGradient></defs><path d="M1385.333 6146.723c19.36 25.52 50.93 25.52 70.18 0 19.36-25.41 38.5-20.35 42.46 11.33 4.07 31.68 31.35 47.52 60.83 35.09 29.48-12.43 43.45 1.65 31.02 31.02-12.32 29.48 3.41 56.87 35.09 60.83 31.68 3.96 36.85 23.1 11.33 42.46-25.52 19.25-25.52 50.93 0 70.18 25.41 19.36 20.35 38.39-11.33 42.46-31.68 3.96-47.52 31.35-35.09 60.83 12.43 29.48-1.54 43.45-31.02 31.02-29.48-12.32-56.76 3.41-60.83 35.09-3.96 31.79-23.1 36.74-42.46 11.44-19.25-25.52-50.93-25.52-70.18 0-19.36 25.41-38.39 20.35-42.46-11.44-3.96-31.68-31.35-47.52-60.83-35.09-29.48 12.43-43.45-1.54-31.02-31.02 12.43-29.48-3.41-56.76-35.09-60.83-31.68-4.07-36.85-23.1-11.33-42.46 25.52-19.36 25.52-50.93 0-70.18-25.41-19.36-20.35-38.39 11.33-42.46 31.68-3.96 47.52-31.35 35.09-60.83-12.32-29.48 1.65-43.45 31.02-31.02 29.48 12.43 56.87-3.41 60.83-35.09 4.07-31.57 23.1-36.74 42.46-11.33" fill="#9cb1bf"/><path d="M1371.803 6119.773c20.02 26.4 52.8 26.4 72.82 0 20.02-26.4 39.82-21.12 44 11.77s32.45 49.28 63.03 36.41c30.58-12.87 44.99 1.65 32.23 32.12-12.87 30.58 3.52 58.85 36.41 63.03 32.89 4.18 38.06 23.98 11.77 43.89-26.4 20.02-26.4 52.8 0 72.82 26.29 20.02 21.01 39.82-11.77 43.89-32.89 4.18-49.28 32.56-36.41 63.03 12.87 30.58-1.65 44.99-32.23 32.12-30.47-12.76-58.85 3.63-63.03 36.41-4.18 32.78-23.87 38.17-44 11.77-20.02-26.4-52.8-26.4-72.82 0-20.02 26.4-39.82 21.01-44-11.77-4.18-32.89-32.56-49.28-63.03-36.41-30.47 12.87-44.99-1.65-32.12-32.12 12.87-30.47-3.52-58.85-36.41-63.03-32.78-4.07-38.17-23.87-11.77-43.89 26.4-20.02 26.4-52.8 0-72.82-26.4-20.02-21.12-39.82 11.77-43.89 32.89-4.18 49.28-32.45 36.41-63.03-12.87-30.47 1.65-44.99 32.12-32.12 30.58 12.87 58.85-3.52 63.03-36.41 4.18-32.78 23.98-38.06 44-11.77" fill="url(#a)"/><path d="M1372.243 6122.413c19.8 26.07 52.14 26.07 71.94 0 19.8-26.07 39.38-20.79 43.45 11.66s32.12 48.62 62.26 35.97c30.25-12.65 44.55 1.65 31.79 31.79-12.65 30.14 3.52 58.19 35.97 62.26 32.45 4.18 37.62 23.65 11.66 43.45-26.07 19.8-26.07 52.14 0 71.94 26.07 19.8 20.79 39.38-11.66 43.45s-48.62 32.12-35.97 62.37c12.65 30.14-1.65 44.44-31.79 31.79-30.14-12.65-58.19 3.52-62.26 35.97-4.07 32.45-23.65 37.73-43.45 11.66-19.8-26.07-52.14-26.07-71.94 0-19.8 26.07-39.38 20.79-43.45-11.66s-32.12-48.62-62.26-35.97c-30.14 12.65-44.44-1.65-31.79-31.79 12.65-30.14-3.52-58.19-35.97-62.37-32.45-4.07-37.73-23.65-11.66-43.45 26.07-19.8 26.07-52.14 0-71.94-26.07-19.8-20.79-39.27 11.66-43.45 32.45-4.07 48.62-32.12 35.97-62.26-12.65-30.14 1.65-44.44 31.79-31.79 30.14 12.65 58.19-3.52 62.26-35.97 4.07-32.45 23.65-37.73 43.45-11.66" fill="url(#b)"/><path d="M1372.573 6125.053c19.58 25.74 51.59 25.74 71.06 0 19.58-25.74 38.83-20.57 42.9 11.44 4.07 32.12 31.79 48.07 61.49 35.53 29.81-12.54 44 1.65 31.46 31.46-12.54 29.81 3.52 57.53 35.53 61.6 32.12 4.07 37.18 23.32 11.55 42.9-25.74 19.58-25.74 51.48 0 71.06 25.74 19.58 20.57 38.94-11.55 42.9-32.12 4.07-48.07 31.79-35.53 61.6 12.54 29.81-1.65 44-31.46 31.46-29.81-12.54-57.42 3.52-61.49 35.53s-23.32 37.18-42.9 11.55c-19.58-25.74-51.48-25.74-71.06 0-19.58 25.74-38.83 20.57-42.9-11.55-4.07-32.12-31.79-48.07-61.6-35.53-29.81 12.54-43.89-1.54-31.35-31.46 12.54-29.81-3.52-57.53-35.53-61.6-32.01-3.96-37.29-23.32-11.44-42.9 25.74-19.58 25.74-51.59 0-71.06-25.74-19.58-20.57-38.83 11.44-42.9 32.12-4.07 48.07-31.79 35.53-61.6-12.54-29.81 1.65-43.89 31.35-31.46 29.81 12.54 57.53-3.52 61.6-35.53s23.43-37.18 42.9-11.44" fill="url(#c)"/><path d="M1373.013 6127.693c19.36 25.41 50.93 25.41 70.18 0 19.36-25.41 38.39-20.35 42.46 11.33 3.96 31.68 31.35 47.52 60.83 35.09 29.48-12.43 43.45 1.65 31.02 31.02-12.43 29.48 3.41 56.87 35.09 60.83 31.68 4.07 36.74 23.1 11.44 42.35-25.52 19.25-25.52 50.93 0 70.18 25.41 19.36 20.35 38.39-11.44 42.35-31.68 3.96-47.52 31.46-35.09 60.83 12.43 29.48-1.54 43.45-31.02 31.02-29.37-12.32-56.76 3.41-60.83 35.09-3.96 31.68-23.1 36.74-42.46 11.33-19.25-25.41-50.93-25.41-70.18 0-19.36 25.41-38.39 20.35-42.35-11.33-3.96-31.68-31.35-47.52-60.83-35.09-29.37 12.43-43.45-1.54-31.02-31.02 12.32-29.48-3.41-56.87-35.2-60.83-31.68-3.96-36.74-22.99-11.33-42.35 25.41-19.36 25.41-50.93 0-70.18-25.41-19.36-20.35-38.39 11.33-42.35 31.68-3.96 47.52-31.35 35.2-60.83-12.43-29.48 1.65-43.45 31.02-31.02 29.48 12.32 56.87-3.41 60.83-35.09 3.96-31.68 23.1-36.74 42.35-11.33" fill="url(#d)"/><path d="M1373.453 6130.333c19.03 25.19 50.27 25.19 69.41 0 19.14-25.08 37.95-20.02 41.91 11.22 3.96 31.35 31.02 46.97 60.06 34.65 29.15-12.21 42.9 1.54 30.69 30.69-12.21 29.15 3.41 56.1 34.65 60.06 31.35 3.96 36.3 22.77 11.22 41.91-25.19 19.03-25.19 50.27 0 69.41 25.08 19.14 20.13 37.95-11.22 41.91-31.35 3.96-46.86 31.02-34.65 60.06 12.21 29.15-1.54 42.9-30.69 30.69-29.04-12.21-56.1 3.41-60.06 34.76-3.96 31.24-22.77 36.3-41.91 11.22-19.03-25.08-50.27-25.08-69.41 0-19.03 25.08-37.95 20.02-41.91-11.22-3.96-31.35-31.02-46.97-60.06-34.76-29.04 12.21-42.9-1.54-30.69-30.69 12.21-29.04-3.41-56.1-34.76-60.06-31.24-3.96-36.3-22.77-11.22-41.91 25.08-19.03 25.08-50.27 0-69.41-25.19-19.14-20.13-37.95 11.22-41.91 31.35-3.96 46.97-31.02 34.76-60.06-12.21-29.04 1.54-42.9 30.69-30.69 29.04 12.21 56.1-3.41 60.06-34.65 3.96-31.35 22.88-36.41 41.91-11.22" fill="url(#e)"/><path d="M1373.893 6132.973c18.81 24.86 49.72 24.86 68.53 0 18.92-24.86 37.51-19.8 41.36 11.11 3.85 30.91 30.58 46.31 59.29 34.32 28.82-12.1 42.35 1.54 30.36 30.25-12.1 28.71 3.3 55.44 34.21 59.4 30.91 3.96 35.86 22.55 11.11 41.36-24.86 18.81-24.86 49.61 0 68.53 24.75 18.92 19.8 37.51-11.11 41.36-30.91 3.96-46.31 30.69-34.21 59.4 12.1 28.71-1.54 42.35-30.36 30.25-28.71-12.1-55.44 3.3-59.29 34.32-3.96 30.91-22.55 35.86-41.36 11.11-18.81-24.86-49.72-24.86-68.53 0-18.81 24.75-37.51 19.8-41.36-11.11-3.85-30.91-30.58-46.31-59.4-34.32-28.71 12.1-42.35-1.54-30.25-30.25 12.1-28.71-3.3-55.44-34.32-59.4-30.91-3.85-35.86-22.44-11.11-41.36 24.86-18.81 24.86-49.72 0-68.53-24.86-18.81-19.8-37.51 11.11-41.36 30.91-3.85 46.31-30.58 34.32-59.4-12.1-28.71 1.54-42.35 30.25-30.25 28.71 12.1 55.44-3.3 59.4-34.32 3.85-31.02 22.55-35.97 41.36-11.11" fill="url(#f)"/><path d="M1374.333 6135.503c18.59 24.53 49.06 24.53 67.65 0 18.7-24.53 36.96-19.58 40.92 10.89 3.85 30.58 30.25 45.76 58.52 33.88 28.38-11.88 41.91 1.54 29.92 29.92-11.88 28.38 3.3 54.78 33.77 58.63 30.58 3.85 35.42 22.22 11 40.81-24.53 18.59-24.53 49.06 0 67.65 24.53 18.7 19.58 37.07-11 40.81-30.58 3.85-45.76 30.25-33.77 58.63 11.88 28.38-1.54 41.8-29.92 29.92-28.38-11.88-54.67 3.3-58.52 33.88-3.85 30.47-22.22 35.42-40.92 10.89-18.59-24.53-49.06-24.53-67.65 0-18.59 24.53-36.96 19.58-40.81-10.89-3.85-30.58-30.25-45.76-58.63-33.88-28.38 11.88-41.8-1.54-29.92-29.92 11.88-28.38-3.3-54.78-33.88-58.63-30.47-3.85-35.42-22.22-10.89-40.81 24.53-18.59 24.53-49.06 0-67.65-24.53-18.59-19.58-36.96 10.89-40.81 30.58-3.85 45.76-30.25 33.88-58.63-11.88-28.38 1.54-41.8 29.92-29.92 28.38 11.88 54.78-3.3 58.63-33.88 3.85-30.47 22.22-35.31 40.81-10.89" fill="url(#g)"/><path d="M1374.773 6138.143c18.37 24.2 48.51 24.2 66.77 0 18.48-24.2 36.52-19.36 40.37 10.78 3.85 30.14 29.81 45.21 57.86 33.44 28.05-11.77 41.36 1.54 29.59 29.59s3.3 54.12 33.44 57.86c30.14 3.85 34.98 22 10.89 40.37-24.2 18.37-24.2 48.4 0 66.77 24.2 18.48 19.36 36.52-10.89 40.37-30.14 3.85-45.21 29.92-33.44 57.86 11.77 28.05-1.54 41.36-29.59 29.59s-54.01 3.3-57.86 33.44c-3.85 30.14-21.89 34.98-40.37 10.78-18.37-24.2-48.4-24.2-66.77 0-18.37 24.2-36.52 19.36-40.37-10.78-3.85-30.14-29.81-45.21-57.86-33.44-28.05 11.77-41.25-1.54-29.48-29.59 11.77-27.94-3.3-54.12-33.44-57.86-30.14-3.74-34.98-21.89-10.78-40.37 24.2-18.37 24.2-48.4 0-66.77-24.2-18.37-19.36-36.52 10.78-40.37 30.14-3.74 45.21-29.81 33.44-57.86-11.77-28.05 1.54-41.36 29.48-29.59 28.05 11.77 54.12-3.3 57.86-33.44 3.85-30.03 22-34.98 40.37-10.78" fill="url(#h)"/><path d="M1375.213 6140.783c18.15 23.87 47.85 23.87 66 0s36.08-19.03 39.82 10.67c3.74 29.81 29.48 44.55 57.09 33 27.72-11.66 40.81 1.54 29.15 29.15-11.66 27.61 3.19 53.35 33 57.09 29.81 3.74 34.54 21.67 10.67 39.82-23.98 18.15-23.98 47.85 0 65.89 23.87 18.15 19.14 36.08-10.67 39.82-29.7 3.74-44.55 29.48-33 57.2 11.66 27.61-1.54 40.81-29.15 29.15-27.61-11.66-53.35 3.19-57.09 33-3.74 29.7-21.67 34.54-39.82 10.67-18.15-23.87-47.85-23.87-66 0s-36.08 19.14-39.82-10.67c-3.74-29.81-29.48-44.66-57.09-33-27.61 11.66-40.81-1.54-29.15-29.15 11.66-27.61-3.19-53.35-33-57.2-29.7-3.74-34.54-21.67-10.67-39.82 23.87-18.15 23.87-47.85 0-65.89-23.87-18.15-19.14-36.08 10.67-39.82 29.81-3.74 44.66-29.48 33-57.09-11.66-27.61 1.54-40.81 29.15-29.15 27.61 11.66 53.35-3.19 57.09-33 3.74-29.7 21.67-34.54 39.82-10.67" fill="url(#i)"/><path d="M1375.653 6143.423c17.93 23.54 47.19 23.54 65.12 0 17.93-23.65 35.64-18.81 39.38 10.56 3.74 29.37 29.04 44 56.32 32.56 27.28-11.44 40.26 1.54 28.82 28.82-11.44 27.28 3.19 52.69 32.56 56.43 29.48 3.74 34.1 21.45 10.56 39.27-23.65 17.93-23.65 47.19 0 65.12 23.54 17.93 18.92 35.64-10.56 39.27-29.37 3.74-44 29.15-32.56 56.43 11.44 27.28-1.54 40.26-28.82 28.82-27.28-11.44-52.69 3.19-56.32 32.56-3.74 29.37-21.34 34.1-39.38 10.56-17.82-23.54-47.19-23.54-65.12 0-17.93 23.54-35.64 18.81-39.27-10.56-3.74-29.37-29.15-44-56.43-32.56-27.28 11.44-40.26-1.43-28.82-28.82 11.44-27.28-3.19-52.69-32.56-56.43-29.37-3.63-34.1-21.34-10.56-39.27 23.54-17.93 23.54-47.19 0-65.12-23.65-17.93-18.81-35.64 10.56-39.27 29.37-3.74 44.11-29.04 32.56-56.43-11.44-27.28 1.54-40.26 28.82-28.82 27.28 11.44 52.69-3.19 56.43-32.56 3.63-29.37 21.34-34.21 39.27-10.56" fill="url(#j)"/><path d="M1375.983 6146.063c17.71 23.32 46.64 23.32 64.24 0 17.71-23.32 35.2-18.59 38.83 10.45 3.63 28.93 28.71 43.45 55.66 32.12 26.95-11.33 39.82 1.43 28.49 28.38-11.33 26.95 3.08 52.03 32.12 55.66 29.04 3.63 33.66 21.12 10.45 38.83-23.32 17.6-23.32 46.53 0 64.24 23.32 17.71 18.59 35.2-10.45 38.83-28.93 3.63-43.45 28.82-32.12 55.66 11.33 26.95-1.43 39.71-28.49 28.38-26.95-11.33-51.92 3.08-55.66 32.12-3.63 29.04-21.12 33.66-38.83 10.34-17.6-23.21-46.53-23.21-64.24 0-17.71 23.21-35.09 18.59-38.83-10.34-3.63-29.04-28.71-43.45-55.66-32.12-26.95 11.33-39.71-1.43-28.38-28.38 11.33-26.95-3.19-52.03-32.12-55.66-28.93-3.63-33.66-21.01-10.34-38.83 23.32-17.6 23.32-46.53 0-64.24-23.32-17.71-18.59-35.2 10.34-38.83 29.04-3.63 43.45-28.71 32.12-55.66-11.33-26.95 1.43-39.71 28.38-28.38 26.95 11.33 52.03-3.08 55.66-32.12 3.74-29.04 21.23-33.77 38.83-10.45" fill="url(#k)"/><path d="M1376.423 6148.703c17.49 22.99 45.98 22.99 63.36 0 17.49-22.99 34.65-18.37 38.28 10.23 3.63 28.6 28.27 42.9 54.89 31.68 26.62-11.11 39.27 1.43 28.05 28.05-11.11 26.62 3.08 51.26 31.68 54.89 28.71 3.63 33.22 20.79 10.34 38.28-22.99 17.38-22.99 45.98 0 63.36 22.99 17.49 18.37 34.76-10.34 38.28-28.6 3.63-42.79 28.38-31.68 54.89 11.22 26.62-1.43 39.16-28.05 28.05-26.62-11.22-51.26 3.08-54.89 31.68-3.63 28.6-20.79 33.22-38.28 10.23-17.38-22.99-45.98-22.99-63.36 0-17.38 22.99-34.65 18.37-38.28-10.23-3.63-28.6-28.38-42.9-54.89-31.68-26.62 11.11-39.16-1.43-28.05-28.05 11.22-26.51-3.08-51.26-31.68-54.89-28.6-3.52-33.22-20.79-10.23-38.28 22.99-17.38 22.99-45.98 0-63.36-22.99-17.49-18.37-34.65 10.23-38.28 28.6-3.63 42.9-28.38 31.68-54.89-11.11-26.62 1.43-39.27 28.05-28.05 26.62 11.22 51.26-3.08 54.89-31.68 3.63-28.6 20.9-33.22 38.28-10.23" fill="url(#l)"/><path d="M1562.983 6891.533h-64.24V6827.403l-49.39 28.49-6.16 3.63-3.52-6.16-25.08-43.34-3.52-6.27 6.16-3.52 49.28-28.38-49.28-28.49-6.16-3.63 3.52-6.16 25.08-43.34 3.52-6.16 6.16 3.52 49.39 28.49v-64.02h64.24v64.02l49.39-28.49 6.16-3.52 3.52 6.16 24.97 43.34 3.63 6.16-6.16 3.63-49.28 28.49 49.28 28.38 6.16 3.52-3.63 6.27-24.97 43.34-3.52 6.16-6.16-3.63-49.39-28.49V6891.533" fill="#9cb1bf"/><path d="M1551.103 6877.233h-64.24V6812.993l-49.39 28.6-6.16 3.52-3.52-6.16-25.08-43.34-3.52-6.27 6.05-3.52 49.39-28.38-49.39-28.6-6.05-3.52 3.52-6.16 25.08-43.34 3.52-6.16 6.16 3.52 49.39 28.6V6637.653h64.24V6701.783l49.39-28.6 6.16-3.52 3.52 6.16 25.08 43.34 3.52 6.16-6.16 3.52-49.28 28.6 49.28 28.38 6.16 3.52-3.52 6.27-25.08 43.34-3.52 6.16-6.16-3.52-49.39-28.6V6877.233" fill="#78b5db"/><path d="M1629.093 6722.793l-25.08-43.45-59.95 34.65v-69.3h-50.16v69.3l-59.95-34.65-25.08 43.45 59.95 34.54-59.95 34.76 25.08 43.34 59.95-34.65v69.3h50.16v-69.3l59.95 34.65 25.08-43.34-60.06-34.76z" fill="url(#m)"/><path d="M1619.083 6725.213l-23.1-40.15-55.55 32.12v-64.13h-46.31v64.13l-55.44-32.12-23.1 40.15 55.44 32.12-55.44 32.01 23.1 40.15 55.44-32.01v64.02h46.31v-64.02l55.55 32.01 23.1-40.15-55.44-32.01z" fill="url(#n)"/><path d="M1609.073 6727.743l-21.23-36.85-50.93 29.37v-58.85h-42.46v58.85l-50.93-29.37-21.23 36.85 50.82 29.48-50.82 29.48 21.23 36.85 50.93-29.48v58.96h42.46v-58.96l50.93 29.48 21.23-36.85-50.93-29.48z" fill="url(#o)"/><path d="M1599.063 6730.273l-19.36-33.66-46.31 26.84v-53.68h-38.72v53.68l-46.42-26.84-19.36 33.66 46.42 26.84-46.42 26.84 19.36 33.66 46.42-26.84v53.68h38.72v-53.68l46.31 26.84 19.36-33.66-46.42-26.84z" fill="url(#p)"/><path d="M1589.053 6732.693l-17.38-30.36-41.91 24.31v-48.51h-34.87v48.51l-41.8-24.31-17.49 30.36 41.8 24.31-41.8 24.31 17.49 30.36 41.8-24.31v48.51h34.87v-48.51l41.91 24.31 17.38-30.36-41.8-24.31z" fill="url(#q)"/><path d="M1579.043 6735.223l-15.51-27.06-37.29 21.56v-43.23h-31.13v43.23l-37.29-21.56-15.51 27.06 37.18 21.67-37.18 21.67 15.51 27.17 37.29-21.67v43.34h31.13v-43.34l37.29 21.67 15.51-27.17-37.29-21.67z" fill="url(#r)"/><path d="M1569.033 6737.753l-13.64-23.87-32.67 19.03v-38.17h-27.39v38.17l-32.67-19.03-13.64 23.87 32.67 19.03-32.67 19.14 13.64 23.87 32.67-19.14v38.17h27.39v-38.17l32.67 19.14 13.64-23.87-32.67-19.14z" fill="#fff"/><path d="M1813.893 6412.813c-3.52 0-6.93.44-10.23 1.1-1.98-21.89-20.13-39.16-42.57-39.16-4.84 0-9.46.99-13.75 2.42-9.13-40.7-45.21-71.06-88.66-71.06-36.19 0-67.32 21.34-81.95 52.14-8.25-7.26-18.92-11.77-30.8-11.77-25.19 0-45.54 19.91-46.64 44.77-9.79-5.5-20.9-8.91-32.89-8.91-37.29 0-67.54 30.25-67.54 67.54 0 37.29 30.25 67.54 67.54 67.54h347.38c28.93 0 52.25-23.43 52.25-52.25.11-28.93-23.32-52.36-52.14-52.36" fill="#9cb1bf"/><path d="M1805.533 6398.403c-3.52 0-6.82.33-10.23 1.1-1.98-22-20.13-39.16-42.57-39.16-4.95 0-9.46.99-13.75 2.42-9.13-40.7-45.21-71.06-88.66-71.06-36.19 0-67.32 21.45-81.84 52.14-8.25-7.26-18.92-11.88-30.8-11.88-25.19 0-45.54 19.91-46.64 44.88-9.79-5.5-20.9-8.91-32.89-8.91-37.29 0-67.54 30.25-67.54 67.54 0 37.29 30.25 67.43 67.54 67.43h347.38c28.82 0 52.36-23.43 52.36-52.25-.11-28.82-23.54-52.25-52.36-52.25" fill="url(#s)"/><path d="M1537.903 6333.063c11.77 0 22.11 4.62 30.03 11.55 1.76-3.63 4.84-6.27 7.04-9.57 2.31-3.41 5.39-7.92 8.14-10.89 15.84-18.59 39.05-30.47 65.01-31.13 7.48-.22 14.74.55 21.78 2.09 33.11 7.37 59.4 33.22 67.43 66.44 4.07-.88 8.25-1.21 12.76-.77 2.31 0 4.84 1.43 7.04 1.76 2.09.33 5.39.55 7.37 1.32 2.42.55 4.62 1.43 6.82 2.42 10.12 4.73 17.93 13.75 21.12 24.75.66 2.09 1.32 5.39 1.54 7.59.11.77.55 1.43.55 2.09 1.43-.33 3.74-.66 5.28-.88 1.87-.22 3.63-.33 5.61-.33 15.4 0 29.04 7.37 37.51 18.37 8.36 11 11.55 24.75 9.02 37.51 0 25.63-26.62 46.42-52.25 46.42h-333.3c-33.11 0-67.54-26.84-67.54-59.95-3.41-16.61.44-34.43 11.33-48.84 10.89-14.41 28.71-23.98 48.73-23.98 9.13 0 17.82 1.98 25.85 5.61 2.2.99 5.28 2.53 7.37 3.74.11-1.76.88-3.19 1.21-4.95.77-4.4 2.31-10.34 4.29-14.19 6.6-15.4 22.11-26.18 40.26-26.18" fill="url(#t)"/><path d="M1538.013 6334.163c11.66 0 21.78 4.73 29.26 11.33 1.54-3.19 5.39-4.4 7.37-7.26 1.98-2.97 5.39-8.36 7.81-11 15.18-19.03 37.84-31.46 63.36-32.78 7.26-.33 14.52.11 21.45 1.54 33 6.38 59.62 31.68 68.09 64.35 3.74-.22 7.59 0 11.66.99 1.98 0 4.51 2.53 6.49 2.86 1.87.33 5.94 0 7.7.66 2.53.33 4.95.99 7.26 1.87 10.89 4.18 19.47 13.64 22.44 25.41.55 1.76 1.21 6.05 1.54 7.92.11.66.77 1.1.88 1.76 1.32-.22 4.29-.77 5.61-.99 1.98-.22 3.85-.44 5.83-.44 16.28 0 30.69 8.8 38.06 21.34 7.37 12.54 7.81 26.95 2.64 38.17 0 22.44-29.81 40.59-52.25 40.59h-319.33c-29.04 0-67.43-23.43-67.43-52.47-6.93-14.52-6.71-33.33 2.86-49.94 9.46-16.61 28.27-28.16 49.72-28.16 9.13 0 17.93 2.09 26.07 5.83 1.98.77 5.61 2.75 7.48 3.85.11-1.54 1.43-2.42 1.76-3.96.66-3.85 2.09-11.11 3.85-14.41 6.05-15.73 21.67-27.06 39.82-27.06" fill="url(#u)"/><path d="M1538.233 6335.263c11.55 0 21.34 4.73 28.49 11 1.32-2.75 6.05-2.53 7.7-5.06 1.65-2.53 5.39-8.8 7.48-11.11 14.52-19.47 36.63-32.34 61.71-34.32 7.15-.55 14.3-.22 21.23.99 32.89 5.5 59.84 30.03 68.86 62.37 3.41.44 6.93 1.21 10.56 2.75 1.76 0 4.18 3.74 5.83 4.07 1.65.33 6.6-.44 8.03 0 2.75.11 5.28.55 7.7 1.32 11.77 3.52 21.12 13.53 23.87 26.07.55 1.54 1.21 6.71 1.43 8.36.11.55 1.1.88 1.1 1.43 1.1-.22 4.73-.88 5.83-.99 1.98-.33 4.07-.44 6.16-.44 17.27 0 32.23 10.23 38.5 24.42 6.27 14.08 3.96 29.15-3.63 38.72 0 19.25-33 34.76-52.25 34.76h-305.25c-24.86 0-67.43-20.13-67.43-44.99-10.34-12.43-13.75-32.34-5.61-51.04 8.14-18.7 27.83-32.45 50.71-32.45 9.24 0 18.04 2.2 26.18 6.05 1.65.66 6.05 3.08 7.59 3.96.11-1.32 2.09-1.65 2.31-2.97.55-3.3 1.87-11.77 3.41-14.63 5.5-16.28 21.12-28.27 39.49-28.27" fill="url(#v)"/><path d="M1538.453 6336.363c11.55 0 21.01 4.84 27.72 10.78 1.1-2.31 6.6-.66 8.03-2.75 1.43-2.09 5.39-9.35 7.15-11.22 13.86-20.02 35.42-33.33 60.06-35.97a83.88 83.88 0 0 1 21.01.33c32.78 4.62 60.06 28.49 69.63 60.39 3.19.99 6.27 2.42 9.46 4.4 1.43 0 3.96 4.95 5.28 5.17 1.32.22 7.15-.99 8.36-.55 2.86-.11 5.5.11 8.14.77 12.54 2.97 22.66 13.42 25.19 26.84.44 1.32 1.1 7.48 1.32 8.8.11.44 1.32.66 1.43 1.1.88-.22 5.28-.99 6.16-1.1 2.09-.33 4.29-.55 6.49-.55 18.26 0 33.77 11.77 39.05 27.39 5.28 15.62.22 31.35-10.01 39.38 0 16.06-36.19 29.04-52.14 29.04h-291.17c-20.68 0-67.43-16.72-67.43-37.51-13.86-10.34-20.9-31.24-14.08-52.14 6.82-20.9 27.39-36.63 51.59-36.63 9.24 0 18.15 2.2 26.4 6.38 1.43.55 6.38 3.3 7.7 4.07 0-1.1 2.64-.88 2.86-1.87.44-2.75 1.65-12.54 2.97-14.85 4.62-17.16 20.35-29.7 38.83-29.7" fill="url(#w)"/><path d="M1538.673 6337.463c11.44 0 20.57 4.84 26.95 10.45.88-1.87 7.26 1.21 8.36-.55 1.1-1.65 5.5-9.79 6.82-11.33 13.09-20.46 34.1-34.32 58.41-37.51 6.93-.88 13.86-.99 20.79-.22 32.67 3.63 60.28 26.84 70.29 58.41 2.86 1.65 5.61 3.63 8.36 6.16 1.1 0 3.63 6.05 4.73 6.27 1.1.22 7.7-1.54 8.8-1.21 3.08-.33 5.83-.22 8.58.22 13.42 2.42 24.2 13.31 26.62 27.5.33.99 1.1 8.14 1.21 9.24 0 .33 1.65.44 1.65.77.77-.11 5.72-1.1 6.49-1.21 2.2-.33 4.51-.55 6.82-.55 19.14 0 35.31 13.2 39.6 30.36 4.18 17.16-3.52 33.55-16.28 39.93 0 12.76-39.38 23.21-52.14 23.21h-277.09c-16.61 0-67.32-13.42-67.32-30.03-17.27-8.25-28.05-30.14-22.66-53.24 5.39-23.1 27.06-40.81 52.58-40.81 9.24 0 18.26 2.31 26.62 6.6 1.1.44 6.71 3.63 7.81 4.18 0-.88 3.19 0 3.41-.88.33-2.2 1.43-13.2 2.42-15.18 3.85-17.49 19.47-30.58 38.17-30.58" fill="url(#x)"/><path d="M1538.893 6338.563c11.33 0 20.13 4.95 26.18 10.23.66-1.32 7.81 2.97 8.69 1.76.88-1.21 5.5-10.34 6.49-11.44 12.43-20.9 32.89-35.2 56.65-39.16 6.82-1.1 13.64-1.43 20.57-.77 32.56 2.75 60.5 25.3 71.06 56.43 2.53 2.31 4.95 4.84 7.26 7.92.88 0 3.3 7.26 4.18 7.37.77.11 8.36-2.09 9.13-1.76 3.19-.55 6.16-.66 9.02-.33 14.3 1.87 25.85 13.2 28.05 28.16.22.77 1.1 8.8 1.21 9.68 0 .22 1.98.11 1.98.44.55-.11 6.27-1.21 6.82-1.32 2.31-.33 4.73-.66 7.15-.66 20.13 0 36.96 14.63 40.04 33.44 3.19 18.7-7.37 35.75-22.66 40.59 0 9.57-42.46 17.38-52.14 17.38h-263.12c-12.43 0-67.32-10.01-67.32-22.44-20.79-6.27-35.2-29.04-31.13-54.34 4.07-25.3 26.62-44.99 53.57-44.99 9.24 0 18.37 2.42 26.84 6.93.88.33 7.15 3.85 7.92 4.29 0-.66 3.85.77 3.96.11.33-1.65 1.21-13.97 1.98-15.4 3.08-18.37 18.81-32.12 37.62-32.12" fill="url(#y)"/><path d="M1539.113 6339.663c11.22 0 19.8 4.95 25.41 9.9.44-.88 8.36 4.84 9.02 4.07.55-.88 5.5-10.78 6.16-11.55 11.77-21.34 31.68-36.19 55-40.81 6.6-1.32 13.42-1.76 20.35-1.43 32.45 1.87 60.72 23.76 71.83 54.34 2.31 2.97 4.29 6.05 6.16 9.57.55 0 2.97 8.36 3.52 8.47.55.11 8.91-2.53 9.46-2.42 3.41-.77 6.49-1.1 9.46-.88 15.18 1.21 27.39 13.09 29.37 28.82.22.55.99 9.57 1.1 10.12 0 .22 2.2-.11 2.31.11.33-.11 6.71-1.32 7.04-1.43 2.42-.44 4.95-.66 7.48-.66 21.01 0 38.5 16.17 40.59 36.41 2.09 20.24-11.11 37.95-28.93 41.14 0 6.38-45.65 11.55-52.14 11.55h-249.04c-8.25 0-67.32-6.71-67.32-14.96-24.2-4.18-42.24-28.05-39.6-55.44 2.75-27.39 26.18-49.28 54.56-49.28 9.35 0 18.37 2.42 27.06 7.15.55.22 7.48 4.18 8.03 4.4 0-.44 4.4 1.54 4.51 1.1.22-1.1 1.1-14.63 1.54-15.62 2.31-18.37 18.04-32.67 37.07-32.67" fill="url(#z)"/><path d="M1539.333 6340.763c11.11 0 19.36 5.06 24.64 9.68.22-.44 9.02 6.71 9.24 6.27.33-.44 5.5-11.33 5.83-11.66 11.11-21.89 30.47-37.18 53.35-42.35 6.49-1.43 13.2-2.2 20.13-1.98 32.34.88 61.05 22.11 72.49 52.36 1.98 3.52 3.74 7.37 5.06 11.33.33 0 2.75 9.57 2.97 9.68.22 0 9.57-3.08 9.79-2.97 3.52-.99 6.82-1.54 9.9-1.32 15.95.66 29.04 13.09 30.8 29.48.11.22.99 10.23.99 10.45 0 .11 2.53-.33 2.53-.22.22 0 7.15-1.43 7.37-1.43 2.53-.44 5.06-.77 7.81-.77 22 0 40.04 17.6 41.14 39.38 1.1 21.78-14.85 40.15-35.31 41.8 0 3.19-48.84 5.83-52.03 5.83h-234.96c-4.18 0-67.32-3.3-67.32-7.48-27.72-2.09-49.39-26.95-48.07-56.54 1.32-29.59 25.74-53.46 55.55-53.46 9.35 0 18.48 2.53 27.28 7.37.33.11 7.81 4.4 8.14 4.62 0-.22 4.95 2.42 5.06 2.2.11-.55.88-15.4 1.1-15.84 1.54-19.47 17.38-34.43 36.52-34.43" fill="url(#A)"/><path d="M1802.013 6493.113h-340.23c-31.13 0-56.54-25.85-56.54-57.64s25.41-57.64 56.54-57.64c9.35 0 18.59 2.64 27.39 7.7l13.75 7.92.66-16.17c.77-19.8 16.61-35.42 35.97-35.42 11 0 19.03 5.06 23.87 9.46l9.57 8.58 5.5-11.77c13.31-28.71 40.7-46.53 71.5-46.53 36.74 0 69.3 26.73 77.33 63.47l2.42 10.78 10.12-3.63c3.74-1.21 7.04-1.87 10.34-1.87 16.83 0 30.58 12.98 32.23 30.14l.88 10.89 10.56-2.09c2.64-.44 5.28-.88 8.14-.88 22.99 0 41.58 19.03 41.58 42.46 0 23.21-18.7 42.24-41.58 42.24" fill="url(#B)"/></svg>