<svg xmlns="http://www.w3.org/2000/svg" xmlns:xlink="http://www.w3.org/1999/xlink" viewBox="2239.7 6076.3 841.9 841.90004" width="841.9" height="841.9"><defs><linearGradient id="k" gradientUnits="userSpaceOnUse" y1="6518.67" x2="0" y2="6081.39" gradientTransform="translate(-29.2 9.79)"><stop stop-color="#df8800"/><stop offset="1" stop-color="#ffb11f"/></linearGradient><linearGradient id="V" gradientUnits="userSpaceOnUse" y1="6610.79" x2="0" y2="6397.7" xlink:href="#a" gradientTransform="translate(-29.2 9.79)"/><linearGradient id="v" gradientUnits="userSpaceOnUse" y1="6490.48" x2="0" y2="6109.57" gradientTransform="translate(-29.2 9.79)"><stop stop-color="#e69e00"/><stop offset="1" stop-color="#fff200"/></linearGradient><linearGradient id="U" gradientUnits="userSpaceOnUse" y1="6612.17" x2="0" y2="6396.92" xlink:href="#b" gradientTransform="translate(-29.2 9.79)"/><linearGradient id="T" gradientUnits="userSpaceOnUse" y1="6613.54" x2="0" y2="6396.06" xlink:href="#c" gradientTransform="translate(-29.2 9.79)"/><linearGradient id="Q" gradientUnits="userSpaceOnUse" y1="6617.65" x2="0" y2="6393.06" xlink:href="#d" gradientTransform="translate(-29.2 9.79)"/><linearGradient id="S" gradientUnits="userSpaceOnUse" y1="6614.91" x2="0" y2="6395.14" xlink:href="#e" gradientTransform="translate(-29.2 9.79)"/><linearGradient id="R" gradientUnits="userSpaceOnUse" y1="6616.28" x2="0" y2="6394.14" xlink:href="#f" gradientTransform="translate(-29.2 9.79)"/><linearGradient id="l" gradientUnits="userSpaceOnUse" y1="6516.11" x2="0" y2="6083.95" gradientTransform="translate(-29.2 9.79)"><stop stop-color="#e08a00"/><stop offset="1" stop-color="#ffb71c"/></linearGradient><linearGradient id="m" gradientUnits="userSpaceOnUse" y1="6513.55" x2="0" y2="6086.52" gradientTransform="translate(-29.2 9.79)"><stop stop-color="#e08c00"/><stop offset="1" stop-color="#ffbd19"/></linearGradient><linearGradient id="s" gradientUnits="userSpaceOnUse" y1="6498.17" x2="0" y2="6101.89" gradientTransform="translate(-29.2 9.79)"><stop stop-color="#e49800"/><stop offset="1" stop-color="#ffe008"/></linearGradient><linearGradient id="u" gradientUnits="userSpaceOnUse" y1="6493.05" x2="0" y2="6107.01" gradientTransform="translate(-29.2 9.79)"><stop stop-color="#e59c00"/><stop offset="1" stop-color="#ffec03"/></linearGradient><linearGradient id="t" gradientUnits="userSpaceOnUse" y1="6495.61" x2="0" y2="6104.45" gradientTransform="translate(-29.2 9.79)"><stop stop-color="#e59a00"/><stop offset="1" stop-color="#ffe606"/></linearGradient><linearGradient id="r" gradientUnits="userSpaceOnUse" y1="6500.73" x2="0" y2="6099.32" gradientTransform="translate(-29.2 9.79)"><stop stop-color="#e39600"/><stop offset="1" stop-color="#ffda0b"/></linearGradient><linearGradient id="q" gradientUnits="userSpaceOnUse" y1="6503.3" x2="0" y2="6096.76" gradientTransform="translate(-29.2 9.79)"><stop stop-color="#e39400"/><stop offset="1" stop-color="#ffd40e"/></linearGradient><linearGradient id="n" gradientUnits="userSpaceOnUse" y1="6510.99" x2="0" y2="6089.08" gradientTransform="translate(-29.2 9.79)"><stop stop-color="#e18e00"/><stop offset="1" stop-color="#ffc317"/></linearGradient><linearGradient id="p" gradientUnits="userSpaceOnUse" y1="6505.86" x2="0" y2="6094.2" gradientTransform="translate(-29.2 9.79)"><stop stop-color="#e29200"/><stop offset="1" stop-color="#ffcf11"/></linearGradient><linearGradient id="o" gradientUnits="userSpaceOnUse" y1="6508.42" x2="0" y2="6091.64" gradientTransform="translate(-29.2 9.79)"><stop stop-color="#e29000"/><stop offset="1" stop-color="#ffc914"/></linearGradient><linearGradient id="P" gradientUnits="userSpaceOnUse" y1="6619.02" x2="0" y2="6391.91" xlink:href="#g" gradientTransform="translate(-29.2 9.79)"/><linearGradient id="O" gradientUnits="userSpaceOnUse" y1="6620.39" x2="0" y2="6390.69" xlink:href="#h" gradientTransform="translate(-29.2 9.79)"/><linearGradient id="B" gradientUnits="userSpaceOnUse" x1="2583.68" y1="6710.93" x2="2682.97" y2="6810.22" gradientTransform="translate(-29.2 9.79)"><stop stop-color="#fbfeff"/><stop offset="1" stop-color="#ebf7ff"/></linearGradient><linearGradient id="i" gradientUnits="userSpaceOnUse" y1="6443.94" x2="0" y2="6274.34"><stop stop-color="#97bacd"/><stop offset="1" stop-color="#d0e1eb"/></linearGradient><linearGradient id="j" gradientUnits="userSpaceOnUse" y1="6444.94" x2="0" y2="6273.35"><stop stop-color="#95b9cc"/><stop offset="1" stop-color="#cddee8"/></linearGradient><linearGradient id="A" gradientUnits="userSpaceOnUse" x1="2577.9" y1="6703.73" x2="2689.19" y2="6815.03" gradientTransform="translate(-29.2 9.79)"><stop stop-color="#f7feff"/><stop offset="1" stop-color="#d6efff"/></linearGradient><linearGradient id="z" gradientUnits="userSpaceOnUse" x1="2572.11" y1="6696.52" x2="2695.42" y2="6819.84" gradientTransform="translate(-29.2 9.79)"><stop stop-color="#f3feff"/><stop offset="1" stop-color="#c2e7ff"/></linearGradient><linearGradient id="w" gradientUnits="userSpaceOnUse" x1="2554.76" y1="6674.91" x2="2714.1" y2="6834.26" gradientTransform="translate(-29.2 9.79)"><stop stop-color="#e6fcff"/><stop offset="1" stop-color="#85cfff"/></linearGradient><linearGradient id="y" gradientUnits="userSpaceOnUse" x1="2566.33" y1="6689.32" x2="2701.65" y2="6824.64" gradientTransform="translate(-29.2 9.79)"><stop stop-color="#eefdff"/><stop offset="1" stop-color="#aedfff"/></linearGradient><linearGradient id="x" gradientUnits="userSpaceOnUse" x1="2560.54" y1="6682.12" x2="2707.88" y2="6829.45" gradientTransform="translate(-29.2 9.79)"><stop stop-color="#eafdff"/><stop offset="1" stop-color="#99d7ff"/></linearGradient><linearGradient id="h" gradientUnits="userSpaceOnUse" y1="6442.95" x2="0" y2="6275.28"><stop stop-color="#99bbce"/><stop offset="1" stop-color="#d3e4ed"/></linearGradient><linearGradient id="g" gradientUnits="userSpaceOnUse" y1="6441.96" x2="0" y2="6276.17"><stop stop-color="#9bbccf"/><stop offset="1" stop-color="#d7e6f0"/></linearGradient><linearGradient id="a" gradientUnits="userSpaceOnUse" y1="6436" x2="0" y2="6280.39"><stop stop-color="#a7c2d4"/><stop offset="1" stop-color="#eaf7ff"/></linearGradient><linearGradient id="N" gradientUnits="userSpaceOnUse" y1="6621.76" x2="0" y2="6389.41" xlink:href="#i" gradientTransform="translate(-29.2 9.79)"/><linearGradient id="M" gradientUnits="userSpaceOnUse" y1="6623.13" x2="0" y2="6388.05" xlink:href="#j" gradientTransform="translate(-29.2 9.79)"/><linearGradient id="b" gradientUnits="userSpaceOnUse" y1="6436.99" x2="0" y2="6279.82"><stop stop-color="#a5c1d3"/><stop offset="1" stop-color="#e7f4fc"/></linearGradient><linearGradient id="c" gradientUnits="userSpaceOnUse" y1="6437.98" x2="0" y2="6279.2"><stop stop-color="#a3c0d2"/><stop offset="1" stop-color="#e4f1fa"/></linearGradient><linearGradient id="d" gradientUnits="userSpaceOnUse" y1="6440.96" x2="0" y2="6277.01"><stop stop-color="#9dbdd0"/><stop offset="1" stop-color="#dae9f2"/></linearGradient><linearGradient id="e" gradientUnits="userSpaceOnUse" y1="6438.98" x2="0" y2="6278.52"><stop stop-color="#a1bfd1"/><stop offset="1" stop-color="#e0eff7"/></linearGradient><linearGradient id="f" gradientUnits="userSpaceOnUse" y1="6439.97" x2="0" y2="6277.79"><stop stop-color="#9fbed0"/><stop offset="1" stop-color="#ddecf5"/></linearGradient><linearGradient xlink:href="#j" id="C" gradientUnits="userSpaceOnUse" y1="6444.94" x2="0" y2="6273.35" gradientTransform="translate(-29.2 9.79)"/><linearGradient xlink:href="#i" id="D" gradientUnits="userSpaceOnUse" y1="6443.94" x2="0" y2="6274.34" gradientTransform="translate(-29.2 9.79)"/><linearGradient xlink:href="#h" id="E" gradientUnits="userSpaceOnUse" y1="6442.95" x2="0" y2="6275.28" gradientTransform="translate(-29.2 9.79)"/><linearGradient xlink:href="#g" id="F" gradientUnits="userSpaceOnUse" y1="6441.96" x2="0" y2="6276.17" gradientTransform="translate(-29.2 9.79)"/><linearGradient xlink:href="#d" id="G" gradientUnits="userSpaceOnUse" y1="6440.96" x2="0" y2="6277.01" gradientTransform="translate(-29.2 9.79)"/><linearGradient xlink:href="#f" id="H" gradientUnits="userSpaceOnUse" y1="6439.97" x2="0" y2="6277.79" gradientTransform="translate(-29.2 9.79)"/><linearGradient xlink:href="#e" id="I" gradientUnits="userSpaceOnUse" y1="6438.98" x2="0" y2="6278.52" gradientTransform="translate(-29.2 9.79)"/><linearGradient xlink:href="#c" id="J" gradientUnits="userSpaceOnUse" y1="6437.98" x2="0" y2="6279.2" gradientTransform="translate(-29.2 9.79)"/><linearGradient xlink:href="#b" id="K" gradientUnits="userSpaceOnUse" y1="6436.99" x2="0" y2="6279.82" gradientTransform="translate(-29.2 9.79)"/><linearGradient xlink:href="#a" id="L" gradientUnits="userSpaceOnUse" y1="6436" x2="0" y2="6280.39" gradientTransform="translate(-29.2 9.79)"/></defs><path d="M2579.4 6130.89c17.6 23.2 46.3 23.2 63.8 0 17.6-23.1 35-18.5 38.6 10.3 3.7 28.8 28.5 43.2 55.3 31.9 26.8-11.3 39.5 1.5 28.2 28.2-11.2 26.8 3.1 51.7 31.9 55.3 28.8 3.6 33.5 21 10.3 38.6-23.2 17.5-23.2 46.3 0 63.8 23.1 17.6 18.5 34.9-10.3 38.6-28.8 3.6-43.2 28.5-31.9 55.3 11.3 26.8-1.4 39.5-28.2 28.2-26.8-11.2-51.6 3.1-55.3 31.9-3.6 28.9-21 33.4-38.6 10.4-17.5-23.2-46.3-23.2-63.8 0-17.6 23.1-34.9 18.5-38.6-10.4-3.6-28.8-28.5-43.2-55.3-31.9-26.8 11.3-39.5-1.4-28.2-28.2s-3.1-51.6-31.9-55.3c-28.8-3.7-33.5-21-10.3-38.6s23.2-46.3 0-63.8c-23.1-17.6-18.5-34.9 10.3-38.6 28.8-3.6 43.2-28.5 31.9-55.3-11.2-26.8 1.5-39.5 28.2-28.2 26.8 11.3 51.7-3.1 55.3-31.9 3.7-28.7 21.1-33.4 38.6-10.3" fill="#9cb1bf"/><path d="M2567.1 6106.39c18.2 24 48 24 66.2 0 18.2-24 36.2-19.2 40 10.7 3.8 29.9 29.5 44.8 57.3 33.1 27.8-11.7 40.9 1.5 29.3 29.2-11.7 27.8 3.2 53.5 33.1 57.3 29.9 3.8 34.6 21.8 10.7 39.9-24 18.2-24 48 0 66.2 23.9 18.2 19.1 36.2-10.7 39.9-29.9 3.8-44.8 29.6-33.1 57.3 11.7 27.8-1.5 40.9-29.3 29.2-27.7-11.6-53.5 3.3-57.3 33.1-3.8 29.8-21.7 34.7-40 10.7-18.2-24-48-24-66.2 0-18.2 24-36.2 19.1-40-10.7-3.8-29.9-29.6-44.8-57.3-33.1-27.7 11.7-40.9-1.5-29.2-29.2s-3.2-53.5-33.1-57.3c-29.8-3.7-34.7-21.7-10.7-39.9 24-18.2 24-48 0-66.2-24-18.2-19.2-36.2 10.7-39.9 29.9-3.8 44.8-29.5 33.1-57.3-11.7-27.7 1.5-40.9 29.2-29.2 27.8 11.7 53.5-3.2 57.3-33.1 3.9-29.8 21.8-34.6 40-10.7" fill="url(#k)"/><path d="M2567.5 6108.79c18 23.7 47.4 23.7 65.4 0 18-23.7 35.8-18.9 39.5 10.6 3.7 29.5 29.2 44.2 56.6 32.7 27.5-11.5 40.5 1.5 28.9 28.9-11.5 27.4 3.2 52.9 32.7 56.6 29.5 3.8 34.2 21.5 10.6 39.5-23.7 18-23.7 47.4 0 65.4 23.6 18 18.9 35.8-10.6 39.5-29.5 3.7-44.2 29.2-32.7 56.7 11.5 27.4-1.5 40.4-28.9 28.9s-52.9 3.2-56.6 32.7c-3.7 29.5-21.5 34.3-39.5 10.6-18-23.7-47.4-23.7-65.4 0-18 23.7-35.8 18.9-39.5-10.6-3.7-29.5-29.2-44.2-56.6-32.7-27.4 11.5-40.4-1.5-28.9-28.9s-3.2-52.9-32.7-56.7c-29.5-3.7-34.3-21.5-10.6-39.5 23.7-18 23.7-47.4 0-65.4-23.7-18-18.9-35.7 10.6-39.5 29.5-3.7 44.2-29.2 32.7-56.6-11.5-27.4 1.5-40.4 28.9-28.9s52.9-3.2 56.6-32.7c3.8-29.5 21.5-34.3 39.5-10.6" fill="url(#l)"/><path d="M2567.9 6111.19c17.8 23.4 46.9 23.4 64.6 0 17.8-23.4 35.3-18.7 39 10.4 3.7 29.2 28.9 43.7 55.9 32.3 27.1-11.4 40 1.5 28.6 28.6-11.4 27.1 3.2 52.3 32.3 56 29.2 3.7 33.8 21.2 10.5 39-23.4 17.8-23.4 46.8 0 64.6 23.4 17.8 18.7 35.4-10.5 39-29.2 3.7-43.7 28.9-32.3 56 11.4 27.1-1.5 40-28.6 28.6-27.1-11.4-52.2 3.2-55.9 32.3-3.7 29.1-21.2 33.8-39 10.5-17.8-23.4-46.8-23.4-64.6 0-17.8 23.4-35.3 18.7-39-10.5-3.7-29.2-28.9-43.7-56-32.3-27.1 11.4-39.9-1.4-28.5-28.6 11.4-27.1-3.2-52.3-32.3-56-29.1-3.6-33.9-21.2-10.4-39 23.4-17.8 23.4-46.9 0-64.6-23.4-17.8-18.7-35.3 10.4-39 29.2-3.7 43.7-28.9 32.3-56-11.4-27.1 1.5-39.9 28.5-28.6 27.1 11.4 52.3-3.2 56-32.3 3.7-29.1 21.2-33.8 39-10.4" fill="url(#m)"/><path d="M2568.3 6113.59c17.6 23.1 46.3 23.1 63.8 0 17.6-23.1 34.9-18.5 38.6 10.3 3.6 28.8 28.5 43.2 55.3 31.9 26.8-11.3 39.5 1.5 28.2 28.2-11.3 26.8 3.1 51.7 31.9 55.3 28.8 3.7 33.4 21 10.4 38.5-23.2 17.5-23.2 46.3 0 63.8 23.1 17.6 18.5 34.9-10.4 38.5-28.8 3.6-43.2 28.6-31.9 55.3 11.3 26.8-1.4 39.5-28.2 28.2-26.7-11.2-51.6 3.1-55.3 31.9-3.6 28.8-21 33.4-38.6 10.3-17.5-23.1-46.3-23.1-63.8 0-17.6 23.1-34.9 18.5-38.5-10.3-3.6-28.8-28.5-43.2-55.3-31.9-26.7 11.3-39.5-1.4-28.2-28.2 11.2-26.8-3.1-51.7-32-55.3-28.8-3.6-33.4-20.9-10.3-38.5 23.1-17.6 23.1-46.3 0-63.8-23.1-17.6-18.5-34.9 10.3-38.5 28.8-3.6 43.2-28.5 32-55.3-11.3-26.8 1.5-39.5 28.2-28.2 26.8 11.2 51.7-3.1 55.3-31.9 3.6-28.8 20.9-33.4 38.5-10.3" fill="url(#n)"/><path d="M2568.7 6115.99c17.3 22.9 45.7 22.9 63.1 0 17.4-22.8 34.5-18.2 38.1 10.2 3.6 28.5 28.2 42.7 54.6 31.5 26.5-11.1 39 1.4 27.9 27.9-11.1 26.5 3.1 51 31.5 54.6 28.5 3.6 33 20.7 10.2 38.1-22.9 17.3-22.9 45.7 0 63.1 22.8 17.4 18.3 34.5-10.2 38.1-28.5 3.6-42.6 28.2-31.5 54.6 11.1 26.5-1.4 39-27.9 27.9-26.4-11.1-51 3.1-54.6 31.6-3.6 28.4-20.7 33-38.1 10.2-17.3-22.8-45.7-22.8-63.1 0-17.3 22.8-34.5 18.2-38.1-10.2-3.6-28.5-28.2-42.7-54.6-31.6-26.4 11.1-39-1.4-27.9-27.9 11.1-26.4-3.1-51-31.6-54.6-28.4-3.6-33-20.7-10.2-38.1 22.8-17.3 22.8-45.7 0-63.1-22.9-17.4-18.3-34.5 10.2-38.1 28.5-3.6 42.7-28.2 31.6-54.6-11.1-26.4 1.4-39 27.9-27.9 26.4 11.1 51-3.1 54.6-31.5 3.6-28.5 20.7-33.1 38.1-10.2" fill="url(#o)"/><path d="M2569.1 6118.39c17.1 22.6 45.2 22.6 62.3 0 17.2-22.6 34.1-18 37.6 10.1s27.8 42.1 53.9 31.2c26.2-11 38.5 1.4 27.6 27.5-11 26.1 3 50.4 31.1 54 28.1 3.6 32.6 20.5 10.1 37.6-22.6 17.1-22.6 45.1 0 62.3 22.5 17.2 18 34.1-10.1 37.6-28.1 3.6-42.1 27.9-31.1 54s-1.4 38.5-27.6 27.5c-26.1-11-50.4 3-53.9 31.2-3.6 28.1-20.5 32.6-37.6 10.1-17.1-22.6-45.2-22.6-62.3 0-17.1 22.5-34.1 18-37.6-10.1s-27.8-42.1-54-31.2c-26.1 11-38.5-1.4-27.5-27.5s-3-50.4-31.2-54c-28.1-3.5-32.6-20.4-10.1-37.6 22.6-17.1 22.6-45.2 0-62.3-22.6-17.1-18-34.1 10.1-37.6s42.1-27.8 31.2-54c-11-26.1 1.4-38.5 27.5-27.5s50.4-3 54-31.2c3.5-28.2 20.4-32.7 37.6-10.1" fill="url(#p)"/><path d="M2569.5 6120.69c16.9 22.3 44.6 22.3 61.5 0 17-22.3 33.6-17.8 37.2 9.9 3.5 27.8 27.5 41.6 53.2 30.8 25.8-10.8 38.1 1.4 27.2 27.2-10.8 25.8 3 49.8 30.7 53.3 27.8 3.5 32.2 20.2 10 37.1-22.3 16.9-22.3 44.6 0 61.5 22.3 17 17.8 33.7-10 37.1-27.8 3.5-41.6 27.5-30.7 53.3 10.8 25.8-1.4 38-27.2 27.2s-49.7 3-53.2 30.8c-3.5 27.7-20.2 32.2-37.2 9.9-16.9-22.3-44.6-22.3-61.5 0s-33.6 17.8-37.1-9.9c-3.5-27.8-27.5-41.6-53.3-30.8-25.8 10.8-38-1.4-27.2-27.2s-3-49.8-30.8-53.3c-27.7-3.5-32.2-20.2-9.9-37.1 22.3-16.9 22.3-44.6 0-61.5s-17.8-33.6 9.9-37.1c27.8-3.5 41.6-27.5 30.8-53.3-10.8-25.8 1.4-38 27.2-27.2s49.8-3 53.3-30.8c3.4-27.7 20.1-32.1 37.1-9.9" fill="url(#q)"/><path d="M2569.8 6123.09c16.7 22 44.1 22 60.7 0 16.8-22 33.2-17.6 36.7 9.8 3.5 27.4 27.1 41.1 52.6 30.4 25.5-10.7 37.6 1.4 26.9 26.9-10.7 25.5 3 49.2 30.4 52.6 27.4 3.5 31.8 20 9.9 36.7-22 16.7-22 44 0 60.7 22 16.8 17.6 33.2-9.9 36.7-27.4 3.5-41.1 27.2-30.4 52.6 10.7 25.5-1.4 37.6-26.9 26.9-25.5-10.7-49.1 3-52.6 30.4s-19.9 31.8-36.7 9.8c-16.7-22-44-22-60.7 0-16.7 22-33.2 17.6-36.7-9.8-3.5-27.4-27.1-41.1-52.6-30.4-25.5 10.7-37.5-1.4-26.8-26.9 10.7-25.4-3-49.2-30.4-52.6-27.4-3.4-31.8-19.9-9.8-36.7 22-16.7 22-44 0-60.7-22-16.7-17.6-33.2 9.8-36.7 27.4-3.4 41.1-27.1 30.4-52.6-10.7-25.5 1.4-37.6 26.8-26.9 25.5 10.7 49.2-3 52.6-30.4 3.5-27.3 20-31.8 36.7-9.8" fill="url(#r)"/><path d="M2570.2 6125.49c16.5 21.7 43.5 21.7 60 0s32.8-17.3 36.2 9.7c3.4 27.1 26.8 40.5 51.9 30 25.2-10.6 37.1 1.4 26.5 26.5-10.6 25.1 2.9 48.5 30 51.9 27.1 3.4 31.4 19.7 9.7 36.2-21.8 16.5-21.8 43.5 0 59.9 21.7 16.5 17.4 32.8-9.7 36.2-27 3.4-40.5 26.8-30 52 10.6 25.1-1.4 37.1-26.5 26.5-25.1-10.6-48.5 2.9-51.9 30-3.4 27-19.7 31.4-36.2 9.7-16.5-21.7-43.5-21.7-60 0s-32.8 17.4-36.2-9.7c-3.4-27.1-26.8-40.6-51.9-30-25.1 10.6-37.1-1.4-26.5-26.5 10.6-25.1-2.9-48.5-30-52-27-3.4-31.4-19.7-9.7-36.2 21.7-16.5 21.7-43.5 0-59.9-21.7-16.5-17.4-32.8 9.7-36.2 27.1-3.4 40.6-26.8 30-51.9-10.6-25.1 1.4-37.1 26.5-26.5 25.1 10.6 48.5-2.9 51.9-30 3.5-27 19.7-31.4 36.2-9.7" fill="url(#s)"/><path d="M2570.6 6127.89c16.3 21.4 42.9 21.4 59.2 0 16.3-21.5 32.4-17.1 35.8 9.6 3.4 26.7 26.4 40 51.2 29.6 24.8-10.4 36.6 1.4 26.2 26.2-10.4 24.8 2.9 47.9 29.6 51.3 26.8 3.4 31 19.5 9.6 35.7-21.5 16.3-21.5 42.9 0 59.2 21.4 16.3 17.2 32.4-9.6 35.7-26.7 3.4-40 26.5-29.6 51.3 10.4 24.8-1.4 36.6-26.2 26.2-24.8-10.4-47.9 2.9-51.2 29.6-3.4 26.7-19.4 31-35.8 9.6-16.2-21.4-42.9-21.4-59.2 0-16.3 21.4-32.4 17.1-35.7-9.6-3.4-26.7-26.5-40-51.3-29.6-24.8 10.4-36.6-1.3-26.2-26.2 10.4-24.8-2.9-47.9-29.6-51.3-26.7-3.3-31-19.4-9.6-35.7 21.4-16.3 21.4-42.9 0-59.2-21.5-16.3-17.1-32.4 9.6-35.7 26.7-3.4 40.1-26.4 29.6-51.3-10.4-24.8 1.4-36.6 26.2-26.2 24.8 10.4 47.9-2.9 51.3-29.6 3.4-26.7 19.4-31.1 35.7-9.6" fill="url(#t)"/><path d="M2571 6130.29c16.1 21.2 42.4 21.2 58.4 0 16.1-21.2 32-16.9 35.3 9.5 3.3 26.3 26.1 39.5 50.6 29.2s36.2 1.3 25.9 25.8c-10.3 24.5 2.8 47.3 29.2 50.6 26.4 3.3 30.6 19.2 9.5 35.3-21.2 16-21.2 42.3 0 58.4s16.9 32-9.5 35.3c-26.3 3.3-39.5 26.2-29.2 50.6 10.3 24.5-1.3 36.1-25.9 25.8-24.5-10.3-47.2 2.8-50.6 29.2-3.3 26.4-19.2 30.6-35.3 9.4-16-21.1-42.3-21.1-58.4 0s-31.9 16.9-35.3-9.4c-3.3-26.4-26.1-39.5-50.6-29.2s-36.1-1.3-25.8-25.8-2.9-47.3-29.2-50.6c-26.3-3.3-30.6-19.1-9.4-35.3 21.2-16 21.2-42.3 0-58.4s-16.9-32 9.4-35.3c26.4-3.3 39.5-26.1 29.2-50.6s1.3-36.1 25.8-25.8 47.3-2.8 50.6-29.2c3.4-26.4 19.3-30.7 35.3-9.5" fill="url(#u)"/><path d="M2571.4 6132.69c15.9 20.9 41.8 20.9 57.6 0 15.9-20.9 31.5-16.7 34.8 9.3 3.3 26 25.7 39 49.9 28.8 24.2-10.1 35.7 1.3 25.5 25.5-10.1 24.2 2.8 46.6 28.8 49.9 26.1 3.3 30.2 18.9 9.4 34.8-20.9 15.8-20.9 41.8 0 57.6 20.9 15.9 16.7 31.6-9.4 34.8-26 3.3-38.9 25.8-28.8 49.9 10.2 24.2-1.3 35.6-25.5 25.5-24.2-10.2-46.6 2.8-49.9 28.8-3.3 26-18.9 30.2-34.8 9.3-15.8-20.9-41.8-20.9-57.6 0-15.8 20.9-31.5 16.7-34.8-9.3-3.3-26-25.8-39-49.9-28.8-24.2 10.1-35.6-1.3-25.5-25.5 10.2-24.1-2.8-46.6-28.8-49.9-26-3.2-30.2-18.9-9.3-34.8 20.9-15.8 20.9-41.8 0-57.6-20.9-15.9-16.7-31.5 9.3-34.8 26-3.3 39-25.8 28.8-49.9-10.1-24.2 1.3-35.7 25.5-25.5 24.2 10.2 46.6-2.8 49.9-28.8 3.3-26 19-30.2 34.8-9.3" fill="url(#v)"/><path d="M2662.3 6903.39h-58.4v-58.3l-44.9 25.9-5.6 3.3-3.2-5.6-22.8-39.4-3.2-5.6 5.6-3.3 44.8-25.8-44.8-25.9-5.6-3.3 3.2-5.6 22.8-39.4 3.2-5.6 5.6 3.2 44.9 25.9V6685.69h58.4V6743.89l44.9-25.9 5.6-3.2 3.2 5.6 22.8 39.4 3.2 5.6-5.6 3.3-44.8 25.9 44.8 25.8 5.6 3.3-3.2 5.6-22.8 39.4-3.2 5.6-5.6-3.3-44.9-25.9v58.3" fill="#9cb1bf"/><path d="M2651.5 6890.39h-58.4v-58.3l-44.9 25.9-5.6 3.2-3.2-5.6-22.8-39.4-3.2-5.7 5.6-3.2 44.8-25.8-44.8-25.9-5.6-3.3 3.2-5.6 22.8-39.4 3.2-5.6 5.6 3.2 44.9 26v-58.3h58.4v58.3l44.9-26 5.6-3.2 3.3 5.6 22.7 39.4 3.2 5.6-5.6 3.3-44.8 25.9 44.8 25.8 5.6 3.2-3.2 5.7-22.7 39.4-3.3 5.6-5.6-3.2-44.9-25.9v58.3" fill="#78b5db"/><path d="M2722.4 6749.99l-22.8-39.5-54.5 31.5v-63h-45.6v63l-54.5-31.5-22.8 39.5 54.6 31.5-54.6 31.5 22.8 39.4 54.5-31.5v63h45.6v-63l54.5 31.5 22.8-39.4-54.5-31.5z" fill="url(#w)"/><path d="M2713.3 6752.19l-21-36.4-50.5 29.1v-58.3h-42v58.3l-50.5-29.1-21 36.4 50.4 29.2-50.4 29.1 21 36.5 50.5-29.1v58.2h42v-58.2l50.5 29.1 21-36.5-50.4-29.1z" fill="url(#x)"/><path d="M2704.2 6754.49l-19.3-33.5-46.3 26.8v-53.6H2600v53.6l-46.3-26.8-19.3 33.5 46.2 26.8-46.2 26.8 19.3 33.5 46.3-26.8v53.6h38.6v-53.6l46.3 26.8 19.3-33.5-46.3-26.8z" fill="url(#y)"/><path d="M2695.1 6756.79l-17.6-30.6-42.1 24.4v-48.8h-35.2v48.8l-42.2-24.4-17.5 30.6 42.1 24.4-42.1 24.4 17.5 30.6 42.2-24.4v48.8h35.2v-48.8l42.1 24.4 17.6-30.6-42.1-24.4z" fill="url(#z)"/><path d="M2686 6758.99l-15.8-27.6-38.1 22.1v-44.1h-31.7v44.1l-38-22.1-15.9 27.6 38 22.1-38 22.1 15.9 27.6 38-22.1v44.1h31.7v-44.1l38.1 22.1 15.8-27.6-38-22.1z" fill="url(#A)"/><path d="M2676.9 6761.29l-14.1-24.6-33.9 19.7v-39.4h-28.3v39.4l-33.9-19.7-14.1 24.6 33.9 19.7-33.9 19.7 14.1 24.7 33.9-19.7v39.4h28.3v-39.4l33.9 19.7 14.1-24.7-33.9-19.7z" fill="url(#B)"/><path d="M2667.8 6763.59l-12.4-21.7-29.7 17.3v-34.6h-24.8v34.6l-29.8-17.3-12.4 21.7 29.7 17.3-29.7 17.4 12.4 21.7 29.8-17.3v34.6h24.8v-34.6l29.7 17.3 12.4-21.7-29.7-17.4z" fill="#fff"/><path d="M2929.5 6372.79c-3.2 0-6.3.4-9.3 1-1.8-19.9-18.3-35.6-38.7-35.6-4.4 0-8.6.9-12.5 2.2-8.3-37-41.1-64.6-80.6-64.6-32.9 0-61.2 19.4-74.5 47.4-7.5-6.6-17.2-10.7-28-10.7-22.9 0-41.4 18.1-42.4 40.7-8.9-5-19-8.1-29.9-8.1-33.9 0-61.4 27.5-61.4 61.4s27.5 61.4 61.4 61.4h315.8c26.3 0 47.5-21.3 47.5-47.5.2-26.3-21.1-47.6-47.4-47.6" fill="#9cb1bf"/><path d="M2921.9 6359.69c-3.2 0-6.2.3-9.3 1-1.8-20-18.3-35.6-38.7-35.6-4.5 0-8.6.9-12.5 2.2-8.3-37-41.1-64.6-80.6-64.6-32.9 0-61.2 19.5-74.4 47.4-7.5-6.6-17.2-10.8-28-10.8-22.9 0-41.4 18.1-42.4 40.8-8.9-5-19-8.1-29.9-8.1-33.9 0-61.4 27.5-61.4 61.4s27.5 61.3 61.4 61.3h315.8c26.2 0 47.6-21.3 47.6-47.5s-21.3-47.5-47.6-47.5" fill="url(#C)"/><path d="M2678.6 6300.29c10.7 0 20.1 4.2 27.3 10.5 1.6-3.3 4.4-5.7 6.4-8.7 2.1-3.1 4.9-7.2 7.4-9.9 14.4-16.9 35.5-27.7 59.1-28.3 6.8-.2 13.4.5 19.8 1.9 30.1 6.7 54 30.2 61.3 60.4 3.7-.8 7.5-1.1 11.6-.7 2.1 0 4.4 1.3 6.4 1.6 1.9.3 4.9.5 6.7 1.2 2.2.5 4.2 1.3 6.2 2.2 9.2 4.3 16.3 12.5 19.2 22.5.6 1.9 1.2 4.9 1.4 6.9.1.7.5 1.3.5 1.9 1.3-.3 3.4-.6 4.8-.8 1.7-.2 3.3-.3 5.1-.3 14 0 26.4 6.7 34.1 16.7 7.6 10 10.5 22.5 8.2 34.1 0 23.3-24.2 42.2-47.5 42.2h-303c-30.1 0-61.4-24.4-61.4-54.5-3.1-15.1.4-31.3 10.3-44.4 9.9-13.1 26.1-21.8 44.3-21.8 8.3 0 16.2 1.8 23.5 5.1 2 .9 4.8 2.3 6.7 3.4.1-1.6.8-2.9 1.1-4.5.7-4 2.1-9.4 3.9-12.9 6.1-14 20.2-23.8 36.6-23.8" fill="url(#D)"/><path d="M2678.8 6301.29c10.6 0 19.8 4.3 26.6 10.3 1.4-2.9 4.9-4 6.7-6.6 1.8-2.7 4.9-7.6 7.1-10 13.8-17.3 34.4-28.6 57.6-29.8 6.6-.3 13.2.1 19.5 1.4 30 5.8 54.2 28.8 61.9 58.5 3.4-.2 6.9 0 10.6.9 1.8 0 4.1 2.3 5.9 2.6 1.7.3 5.4 0 7 .6 2.3.3 4.5.9 6.6 1.7 9.9 3.8 17.7 12.4 20.4 23.1.5 1.6 1.1 5.5 1.4 7.2.1.6.7 1 .8 1.6 1.2-.2 3.9-.7 5.1-.9 1.8-.2 3.5-.4 5.3-.4 14.8 0 27.9 8 34.6 19.4 6.7 11.4 7.1 24.5 2.4 34.7 0 20.4-27.1 36.9-47.5 36.9h-290.3c-26.4 0-61.3-21.3-61.3-47.7-6.3-13.2-6.1-30.3 2.6-45.4 8.6-15.1 25.7-25.6 45.2-25.6 8.3 0 16.3 1.9 23.7 5.3 1.8.7 5.1 2.5 6.8 3.5.1-1.4 1.3-2.2 1.6-3.6.6-3.5 1.9-10.1 3.5-13.1 5.5-14.3 19.6-24.6 36.2-24.6" fill="url(#E)"/><path d="M2679 6302.29c10.5 0 19.4 4.3 25.9 10 1.2-2.5 5.5-2.3 7-4.6s4.9-8 6.8-10.1c13.2-17.7 33.3-29.4 56.1-31.2 6.5-.5 13-.2 19.3.9 29.9 5 54.4 27.3 62.6 56.7 3.1.4 6.3 1.1 9.6 2.5 1.6 0 3.8 3.4 5.3 3.7 1.5.3 6-.4 7.3 0 2.5.1 4.8.5 7 1.2 10.7 3.2 19.2 12.3 21.7 23.7.5 1.4 1.1 6.1 1.3 7.6.1.5 1 .8 1 1.3 1-.2 4.3-.8 5.3-.9 1.8-.3 3.7-.4 5.6-.4 15.7 0 29.3 9.3 35 22.2 5.7 12.8 3.6 26.5-3.3 35.2 0 17.5-30 31.6-47.5 31.6h-277.5c-22.6 0-61.3-18.3-61.3-40.9-9.4-11.3-12.5-29.4-5.1-46.4s25.3-29.5 46.1-29.5c8.4 0 16.4 2 23.8 5.5 1.5.6 5.5 2.8 6.9 3.6.1-1.2 1.9-1.5 2.1-2.7.5-3 1.7-10.7 3.1-13.3 5-14.8 19.2-25.7 35.9-25.7" fill="url(#F)"/><path d="M2679.2 6303.29c10.5 0 19.1 4.4 25.2 9.8 1-2.1 6-.6 7.3-2.5 1.3-1.9 4.9-8.5 6.5-10.2 12.6-18.2 32.2-30.3 54.6-32.7 6.4-.7 12.8-.6 19.1.3 29.8 4.2 54.6 25.9 63.3 54.9 2.9.9 5.7 2.2 8.6 4 1.3 0 3.6 4.5 4.8 4.7 1.2.2 6.5-.9 7.6-.5 2.6-.1 5 .1 7.4.7 11.4 2.7 20.6 12.2 22.9 24.4.4 1.2 1 6.8 1.2 8 .1.4 1.2.6 1.3 1 .8-.2 4.8-.9 5.6-1 1.9-.3 3.9-.5 5.9-.5 16.6 0 30.7 10.7 35.5 24.9 4.8 14.2.2 28.5-9.1 35.8 0 14.6-32.9 26.4-47.4 26.4h-264.7c-18.8 0-61.3-15.2-61.3-34.1-12.6-9.4-19-28.4-12.8-47.4 6.2-19 24.9-33.3 46.9-33.3 8.4 0 16.5 2 24 5.8 1.3.5 5.8 3 7 3.7 0-1 2.4-.8 2.6-1.7.4-2.5 1.5-11.4 2.7-13.5 4.2-15.6 18.4-27 35.3-27" fill="url(#G)"/><path d="M2679.4 6304.29c10.4 0 18.7 4.4 24.5 9.5.8-1.7 6.6 1.1 7.6-.5 1-1.5 5-8.9 6.2-10.3 11.9-18.6 31-31.2 53.1-34.1 6.3-.8 12.6-.9 18.9-.2 29.7 3.3 54.8 24.4 63.9 53.1 2.6 1.5 5.1 3.3 7.6 5.6 1 0 3.3 5.5 4.3 5.7 1 .2 7-1.4 8-1.1 2.8-.3 5.3-.2 7.8.2 12.2 2.2 22 12.1 24.2 25 .3.9 1 7.4 1.1 8.4 0 .3 1.5.4 1.5.7.7-.1 5.2-1 5.9-1.1 2-.3 4.1-.5 6.2-.5 17.4 0 32.1 12 36 27.6 3.8 15.6-3.2 30.5-14.8 36.3 0 11.6-35.8 21.1-47.4 21.1h-251.9c-15.1 0-61.2-12.2-61.2-27.3-15.7-7.5-25.5-27.4-20.6-48.4 4.9-21 24.6-37.1 47.8-37.1 8.4 0 16.6 2.1 24.2 6 1 .4 6.1 3.3 7.1 3.8 0-.8 2.9 0 3.1-.8.3-2 1.3-12 2.2-13.8 3.4-15.9 17.7-27.8 34.7-27.8" fill="url(#H)"/><path d="M2679.6 6305.29c10.3 0 18.3 4.5 23.8 9.3.6-1.2 7.1 2.7 7.9 1.6.8-1.1 5-9.4 5.9-10.4 11.3-19 29.9-32 51.5-35.6 6.2-1 12.4-1.3 18.7-.7 29.6 2.5 55 23 64.6 51.3 2.3 2.1 4.5 4.4 6.6 7.2.8 0 3 6.6 3.8 6.7.7.1 7.6-1.9 8.3-1.6 2.9-.5 5.6-.6 8.2-.3 13 1.7 23.5 12 25.5 25.6.2.7 1 8 1.1 8.8 0 .2 1.8.1 1.8.4.5-.1 5.7-1.1 6.2-1.2 2.1-.3 4.3-.6 6.5-.6 18.3 0 33.6 13.3 36.4 30.4 2.9 17-6.7 32.5-20.6 36.9 0 8.7-38.6 15.8-47.4 15.8h-239.2c-11.3 0-61.2-9.1-61.2-20.4-18.9-5.7-32-26.4-28.3-49.4 3.7-23 24.2-40.9 48.7-40.9 8.4 0 16.7 2.2 24.4 6.3.8.3 6.5 3.5 7.2 3.9 0-.6 3.5.7 3.6.1.3-1.5 1.1-12.7 1.8-14 2.7-16.7 17.1-29.2 34.2-29.2" fill="url(#I)"/><path d="M2679.8 6306.29c10.2 0 18 4.5 23.1 9 .4-.8 7.6 4.4 8.2 3.7.5-.8 5-9.8 5.6-10.5 10.7-19.4 28.8-32.9 50-37.1 6-1.2 12.2-1.6 18.5-1.3 29.5 1.7 55.2 21.6 65.3 49.4 2.1 2.7 3.9 5.5 5.6 8.7.5 0 2.7 7.6 3.2 7.7.5.1 8.1-2.3 8.6-2.2 3.1-.7 5.9-1 8.6-.8 13.8 1.1 24.9 11.9 26.7 26.2.2.5.9 8.7 1 9.2 0 .2 2-.1 2.1.1.3-.1 6.1-1.2 6.4-1.3 2.2-.4 4.5-.6 6.8-.6 19.1 0 35 14.7 36.9 33.1 1.9 18.4-10.1 34.5-26.3 37.4 0 5.8-41.5 10.5-47.4 10.5h-226.4c-7.5 0-61.2-6.1-61.2-13.6-22-3.8-38.4-25.5-36-50.4 2.5-24.9 23.8-44.8 49.6-44.8 8.5 0 16.7 2.2 24.6 6.5.5.2 6.8 3.8 7.3 4 0-.4 4 1.4 4.1 1 .2-1 1-13.3 1.4-14.2 2-16.7 16.4-29.7 33.7-29.7" fill="url(#J)"/><path d="M2680 6307.29c10.1 0 17.6 4.6 22.4 8.8.2-.4 8.2 6.1 8.4 5.7.3-.4 5-10.3 5.3-10.6 10.1-19.9 27.7-33.8 48.5-38.5 5.9-1.3 12-2 18.3-1.8 29.4.8 55.5 20.1 65.9 47.6 1.8 3.2 3.4 6.7 4.6 10.3.3 0 2.5 8.7 2.7 8.8.2 0 8.7-2.8 8.9-2.7 3.2-.9 6.2-1.4 9-1.2 14.5.6 26.4 11.9 28 26.8.1.2.9 9.3.9 9.5 0 .1 2.3-.3 2.3-.2.2 0 6.5-1.3 6.7-1.3 2.3-.4 4.6-.7 7.1-.7 20 0 36.4 16 37.4 35.8 1 19.8-13.5 36.5-32.1 38 0 2.9-44.4 5.3-47.3 5.3h-213.6c-3.8 0-61.2-3-61.2-6.8-25.2-1.9-44.9-24.5-43.7-51.4 1.2-26.9 23.4-48.6 50.5-48.6 8.5 0 16.8 2.3 24.8 6.7.3.1 7.1 4 7.4 4.2 0-.2 4.5 2.2 4.6 2 .1-.5.8-14 1-14.4 1.4-17.7 15.8-31.3 33.2-31.3" fill="url(#K)"/><path d="M2918.8 6445.79h-309.3c-28.3 0-51.4-23.5-51.4-52.4s23.1-52.4 51.4-52.4c8.5 0 16.9 2.4 24.9 7l12.5 7.2.6-14.7c.7-18 15.1-32.2 32.7-32.2 10 0 17.3 4.6 21.7 8.6l8.7 7.8 5-10.7c12.1-26.1 37-42.3 65-42.3 33.4 0 63 24.3 70.3 57.7l2.2 9.8 9.2-3.3c3.4-1.1 6.4-1.7 9.4-1.7 15.3 0 27.8 11.8 29.3 27.4l.8 9.9 9.6-1.9c2.4-.4 4.8-.8 7.4-.8 20.9 0 37.8 17.3 37.8 38.6 0 21.1-17 38.4-37.8 38.4" fill="url(#L)"/><path d="M2870.5 6515.69c-4.3 0-8.6.5-12.7 1.3-2.5-27.3-25.1-48.7-53.1-48.7-6.1 0-11.7 1.2-17.1 3-11.3-50.6-56.3-88.5-110.3-88.5-45.2 0-83.8 26.6-102 64.9-10.3-9-23.6-14.7-38.3-14.7-31.3 0-56.7 24.8-58.1 55.8-12.2-6.8-26-11-40.9-11-46.4 0-84 37.6-84 84.1 0 46.4 37.7 84 84 84h432.6c36 0 65.1-29.2 65.1-65.1-.1-35.9-29.3-65.1-65.2-65.1" fill="#9cb1bf"/><path d="M2861.1 6502.69c-4.3 0-8.6.5-12.7 1.3-2.5-27.2-25.1-48.7-53.1-48.7-6 0-11.7 1.2-17.1 3-11.3-50.6-56.3-88.5-110.3-88.5-45.1 0-83.8 26.6-102 64.9-10.3-9-23.6-14.7-38.4-14.7-31.3 0-56.7 24.8-58.1 55.9-12.1-6.9-26-11.1-40.9-11.1-46.4 0-84.1 37.7-84.1 84.1 0 46.5 37.6 84.1 84.1 84.1h432.6c35.9 0 65.1-29.2 65.1-65.1 0-36-29.2-65.2-65.1-65.2" fill="url(#M)"/><path d="M2527.8 6421.39c14.6 0 27.6 5.7 37.4 14.4 2.2-4.6 6-7.8 8.8-11.9 2.8-4.2 6.7-9.8 10.1-13.5 19.8-23.1 48.6-37.9 81-38.7 9.2-.2 18.2.7 26.9 2.6 41.3 9.1 74.1 41.4 84 82.7 5-1.1 10.3-1.5 15.8-.9 2.9 0 6 1.7 8.7 2.2 2.7.5 6.7.7 9.2 1.6 3 .7 5.8 1.7 8.5 3 12.5 5.8 22.3 17.1 26.3 30.8.8 2.5 1.6 6.7 2 9.4.1.9.6 1.7.7 2.6 1.8-.4 4.7-.8 6.5-1 2.3-.3 4.6-.4 7-.4 19.1 0 36.2 9.1 46.7 22.8 10.5 13.7 14.4 30.8 11.2 46.8 0 31.9-34.9 57.9-66.9 57.9h-422.6c-45.6 0-82.6-37-82.6-82.7s37-82.7 82.6-82.7c11.4 0 22.2 2.5 32.2 7 2.7 1.2 6.5 3.1 9.1 4.6.1-2.3 1.1-4.1 1.5-6.3.9-5.4 2.8-12.8 5.3-17.6 8.7-19.4 28.1-32.7 50.6-32.7" fill="url(#N)"/><path d="M2528 6422.69c14.5 0 27.1 5.8 36.4 14 1.9-4 6.8-5.5 9.2-9.1 2.5-3.7 6.7-10.4 9.7-13.7 18.9-23.7 47.1-39.1 78.9-40.7 9.1-.5 18 .2 26.6 1.9 41.1 8 74.3 39.4 84.9 80.2 4.7-.3 9.5 0 14.4 1.2 2.5 0 5.6 3.2 8 3.6 2.3.4 7.4.1 9.6.8 3.2.4 6.2 1.2 9 2.3 13.6 5.1 24.3 17 28 31.7.7 2.2 1.5 7.5 1.9 9.9.1.8 1 1.4 1.1 2.2 1.6-.3 5.3-1 6.9-1.1 2.4-.3 4.9-.5 7.3-.5 20.3 0 38.1 10.9 47.3 26.6 9.2 15.6 9.7 33.5 3.3 47.5 0 27.9-40.7 50.6-68.7 50.6h-412.6c-44.7 0-81-36.4-81-81.3s36.3-81.3 81-81.3c11.5 0 22.4 2.6 32.4 7.3 2.4 1 7 3.5 9.3 4.7.1-2 1.9-3.1 2.2-5 .8-4.8 2.6-13.7 4.8-17.9 8-19.8 27.4-33.9 50.1-33.9" fill="url(#O)"/><path d="M2528.3 6424.09c14.4 0 26.6 5.9 35.5 13.7 1.6-3.4 7.5-3.2 9.6-6.3 2.1-3.1 6.7-11 9.3-13.8 18.1-24.3 45.6-40.3 76.9-42.7 8.9-.7 17.7-.3 26.3 1.2 41 6.8 74.6 37.4 85.9 77.7 4.3.5 8.7 1.5 13.1 3.4 2.1 0 5.2 4.6 7.3 5 2 .4 8.2-.6 10 .1 3.4.1 6.5.7 9.6 1.6 14.6 4.4 26.3 16.9 29.7 32.5.6 1.9 1.5 8.4 1.8 10.4.1.7 1.4 1.1 1.4 1.8 1.3-.3 5.9-1.1 7.3-1.3 2.5-.4 5.1-.6 7.7-.6 21.5 0 40.1 12.8 47.9 30.3 7.9 17.6 5 36.3-4.5 48.3 0 24-46.5 43.4-70.4 43.4h-402.6c-43.9 0-79.5-35.8-79.5-80 0-44.1 35.6-80 79.5-80 11.5 0 22.5 2.7 32.7 7.6 2.1.9 7.4 3.8 9.4 4.9.1-1.7 2.6-2.1 2.9-3.7.7-4.1 2.3-14.6 4.2-18.2 6.7-20.5 26.1-35.3 49-35.3" fill="url(#P)"/><path d="M2528.6 6425.49c14.3 0 26.1 6 34.5 13.4 1.4-2.9 8.2-.8 10-3.4 1.8-2.6 6.8-11.6 8.9-14 17.2-24.9 44.1-41.5 74.8-44.7 8.7-.9 17.5-.8 26.1.4 40.9 5.7 74.9 35.5 86.8 75.2 3.9 1.3 7.8 3 11.7 5.5 1.8 0 4.8 6.1 6.5 6.4 1.7.3 8.9-1.2 10.5-.7 3.6-.2 6.9.2 10.2.9 15.7 3.7 28.2 16.8 31.4 33.4.5 1.6 1.4 9.2 1.7 10.9.1.6 1.7.8 1.8 1.4 1.1-.2 6.5-1.2 7.7-1.4 2.7-.4 5.4-.6 8.1-.6 22.7 0 42 14.6 48.6 34.1 6.5 19.5.3 39-12.4 49 0 20-52.3 36.2-72.2 36.2h-392.6c-43 0-78-35.2-78-78.6 0-43.4 35-78.6 78-78.6 11.5 0 22.6 2.8 32.9 7.9 1.7.7 7.9 4.1 9.5 5 .1-1.4 3.3-1.1 3.6-2.4.6-3.4 2.1-15.5 3.6-18.5 5.7-21.2 25.2-36.8 48.3-36.8" fill="url(#Q)"/><path d="M2528.9 6426.79c14.2 0 25.6 6 33.5 13 1.1-2.3 9 1.5 10.4-.6 1.4-2.1 6.8-12.3 8.5-14.1 16.4-25.5 42.6-42.7 72.7-46.7 8.6-1.1 17.2-1.2 25.8-.3 40.7 4.6 75.2 33.5 87.7 72.7 3.6 2.1 7 4.5 10.4 7.6 1.4 0 4.5 7.5 5.8 7.8 1.3.2 9.7-1.9 10.9-1.4 3.8-.5 7.3-.3 10.7.3 16.7 3 30.2 16.6 33.1 34.2.4 1.3 1.4 10.1 1.6 11.5.1.4 2.1.5 2.1 1 .9-.2 7.2-1.4 8.1-1.5 2.8-.5 5.6-.7 8.5-.7 23.9 0 44 16.4 49.2 37.8 5.2 21.4-4.4 41.8-20.3 49.8 0 16-58 28.9-74 28.9H2431c-42.2 0-76.5-34.6-76.5-77.2s34.3-77.3 76.5-77.3c11.6 0 22.7 2.9 33.2 8.3 1.4.6 8.3 4.4 9.6 5.2 0-1.1 4.1-.1 4.3-1.2.5-2.7 1.8-16.4 3.1-18.8 4.8-21.9 24.3-38.3 47.7-38.3" fill="url(#R)"/><path d="M2529.1 6428.19c14.1 0 25.2 6.1 32.6 12.7.8-1.7 9.7 3.8 10.8 2.2 1.1-1.6 6.8-12.9 8.1-14.3 15.5-26.1 41.1-43.9 70.7-48.7 8.4-1.4 16.9-1.7 25.5-1 40.6 3.4 75.5 31.5 88.6 70.2 3.2 2.8 6.2 6 9 9.8 1.1 0 4.1 9 5.1 9.2 1 .2 10.4-2.5 11.4-2.2 4-.7 7.7-.9 11.3-.4 17.8 2.3 32.2 16.5 34.9 35 .3 1 1.3 11 1.5 12 0 .3 2.4.2 2.5.5.7-.1 7.8-1.5 8.5-1.6 2.9-.5 5.9-.8 8.9-.8 25 0 45.9 18.2 49.8 41.6 3.9 23.3-9.1 44.5-28.1 50.5 0 12-63.8 21.7-75.8 21.7h-372.6c-41.3 0-74.9-34-74.9-75.9 0-41.9 33.6-75.9 74.9-75.9 11.6 0 22.9 3 33.4 8.6 1 .4 8.8 4.8 9.8 5.3 0-.9 4.8 1 5 .1.4-2 1.6-17.3 2.5-19.1 3.5-22.4 23.1-39.5 46.6-39.5" fill="url(#S)"/><path d="M2529.4 6429.59c14 0 24.7 6.2 31.6 12.4.5-1.1 10.5 6.1 11.2 5 .7-1 6.8-13.5 7.6-14.4 14.7-26.6 39.5-45.1 68.6-50.7 8.2-1.6 16.7-2.2 25.2-1.7 40.5 2.3 75.8 29.5 89.5 67.8 2.8 3.6 5.4 7.6 7.7 11.9.7 0 3.7 10.4 4.4 10.6.7.1 11.2-3.1 11.8-2.9 4.2-1 8.1-1.4 11.8-1.1 18.8 1.5 34.1 16.4 36.6 35.9.2.6 1.3 11.8 1.4 12.5 0 .2 2.8-.1 2.8.1.4-.1 8.4-1.7 8.8-1.7 3-.5 6.2-.9 9.3-.9 26.2 0 47.9 20.1 50.5 45.3 2.6 25.2-13.8 47.3-36 51.3 0 8-69.6 14.5-77.6 14.5H2432c-40.5 0-73.4-33.4-73.4-74.5s32.9-74.5 73.4-74.5c11.6 0 23 3 33.7 8.9.7.3 9.2 5.1 9.9 5.5 0-.6 5.6 2 5.7 1.4.2-1.4 1.3-18.2 1.9-19.4 2.9-23.5 22.5-41.3 46.2-41.3" fill="url(#T)"/><path d="M2529.7 6430.99c13.8 0 24.2 6.2 30.6 12 .3-.6 11.2 8.4 11.6 7.9.4-.5 6.8-14.1 7.2-14.6 13.8-27.2 38-46.2 66.5-52.7 8.1-1.8 16.4-2.7 24.9-2.4 40.3 1.1 76.1 27.6 90.4 65.3 2.5 4.4 4.6 9.1 6.3 14 .4 0 3.3 11.9 3.7 12 .3.1 11.9-3.8 12.2-3.7 4.4-1.3 8.4-1.9 12.4-1.8 19.9.8 36.1 16.3 38.3 36.7.1.3 1.2 12.7 1.3 13 0 .1 3.2-.4 3.2-.3.2 0 9-1.8 9.2-1.8 3.1-.6 6.4-1 9.7-1 27.4 0 49.8 21.9 51.1 49.1 1.3 27.2-18.5 50-43.9 52 0 4-75.4 7.2-79.4 7.2h-352.6c-39.6 0-71.9-32.8-71.9-73.1s32.3-73.2 71.9-73.2c11.7 0 23.1 3.1 33.9 9.2.3.1 9.7 5.4 10 5.6 0-.3 6.3 3 6.3 2.7.1-.7 1.1-19.1 1.4-19.7 2.1-23.9 21.7-42.4 45.7-42.4" fill="url(#U)"/><path d="M2856.7 6620.59h-423.8c-38.8 0-70.4-32.2-70.4-71.7 0-39.6 31.6-71.8 70.4-71.8 11.7 0 23.2 3.2 34.2 9.6l17.2 9.7.8-20c1-24.7 20.7-44 44.8-44 13.7 0 23.7 6.3 29.7 11.7l12 10.7 6.8-14.7c16.6-35.7 50.7-57.9 89-57.9 45.8 0 86.3 33.2 96.3 79l2.9 13.3 12.7-4.4c4.6-1.6 8.8-2.4 12.9-2.4 20.9 0 38.1 16.2 40 37.6l1.2 13.6 13.1-2.6c3.3-.6 6.7-1 10.1-1 28.6 0 51.8 23.7 51.8 52.8.1 28.8-23.1 52.5-51.7 52.5" fill="url(#V)"/></svg>