<svg xmlns="http://www.w3.org/2000/svg" xmlns:xlink="http://www.w3.org/1999/xlink" viewBox="1095.9 7452.3 841.9 841.90004" width="841.9" height="841.9"><defs><linearGradient id="r" gradientUnits="userSpaceOnUse" y1="7869.87" x2="0" y2="7488.95" gradientTransform="translate(-176.657 -744.894) scale(1.1025)"><stop stop-color="#e69e00"/><stop offset="1" stop-color="#fff200"/></linearGradient><linearGradient id="S" gradientUnits="userSpaceOnUse" y1="7816.37" x2="0" y2="7659.2" gradientTransform="translate(-176.657 -744.894) scale(1.1025)"><stop stop-color="#a5c1d3"/><stop offset="1" stop-color="#e7f4fc"/></linearGradient><linearGradient id="g" gradientUnits="userSpaceOnUse" y1="7898.06" x2="0" y2="7460.77" gradientTransform="translate(-176.657 -744.894) scale(1.1025)"><stop stop-color="#df8800"/><stop offset="1" stop-color="#ffb11f"/></linearGradient><linearGradient id="T" gradientUnits="userSpaceOnUse" y1="7815.38" x2="0" y2="7659.77" gradientTransform="translate(-176.657 -744.894) scale(1.1025)"><stop stop-color="#a7c2d4"/><stop offset="1" stop-color="#eaf7ff"/></linearGradient><linearGradient id="R" gradientUnits="userSpaceOnUse" y1="7817.36" x2="0" y2="7658.58" gradientTransform="translate(-176.657 -744.894) scale(1.1025)"><stop stop-color="#a3c0d2"/><stop offset="1" stop-color="#e4f1fa"/></linearGradient><linearGradient id="Q" gradientUnits="userSpaceOnUse" y1="7818.36" x2="0" y2="7657.91" gradientTransform="translate(-176.657 -744.894) scale(1.1025)"><stop stop-color="#a1bfd1"/><stop offset="1" stop-color="#e0eff7"/></linearGradient><linearGradient id="N" gradientUnits="userSpaceOnUse" y1="7821.34" x2="0" y2="7655.55" gradientTransform="translate(-176.657 -744.894) scale(1.1025)"><stop stop-color="#9bbccf"/><stop offset="1" stop-color="#d7e6f0"/></linearGradient><linearGradient id="P" gradientUnits="userSpaceOnUse" y1="7819.35" x2="0" y2="7657.18" gradientTransform="translate(-176.657 -744.894) scale(1.1025)"><stop stop-color="#9fbed0"/><stop offset="1" stop-color="#ddecf5"/></linearGradient><linearGradient id="O" gradientUnits="userSpaceOnUse" y1="7820.34" x2="0" y2="7656.39" gradientTransform="translate(-176.657 -744.894) scale(1.1025)"><stop stop-color="#9dbdd0"/><stop offset="1" stop-color="#dae9f2"/></linearGradient><linearGradient id="h" gradientUnits="userSpaceOnUse" y1="7895.49" x2="0" y2="7463.34" gradientTransform="translate(-176.657 -744.894) scale(1.1025)"><stop stop-color="#e08a00"/><stop offset="1" stop-color="#ffb71c"/></linearGradient><linearGradient id="i" gradientUnits="userSpaceOnUse" y1="7892.93" x2="0" y2="7465.9" gradientTransform="translate(-176.657 -744.894) scale(1.1025)"><stop stop-color="#e08c00"/><stop offset="1" stop-color="#ffbd19"/></linearGradient><linearGradient id="o" gradientUnits="userSpaceOnUse" y1="7877.55" x2="0" y2="7481.27" gradientTransform="translate(-176.657 -744.894) scale(1.1025)"><stop stop-color="#e49800"/><stop offset="1" stop-color="#ffe008"/></linearGradient><linearGradient id="q" gradientUnits="userSpaceOnUse" y1="7872.43" x2="0" y2="7486.39" gradientTransform="translate(-176.657 -744.894) scale(1.1025)"><stop stop-color="#e59c00"/><stop offset="1" stop-color="#ffec03"/></linearGradient><linearGradient id="p" gradientUnits="userSpaceOnUse" y1="7874.99" x2="0" y2="7483.83" gradientTransform="translate(-176.657 -744.894) scale(1.1025)"><stop stop-color="#e59a00"/><stop offset="1" stop-color="#ffe606"/></linearGradient><linearGradient id="n" gradientUnits="userSpaceOnUse" y1="7880.12" x2="0" y2="7478.71" gradientTransform="translate(-176.657 -744.894) scale(1.1025)"><stop stop-color="#e39600"/><stop offset="1" stop-color="#ffda0b"/></linearGradient><linearGradient id="m" gradientUnits="userSpaceOnUse" y1="7882.68" x2="0" y2="7476.14" gradientTransform="translate(-176.657 -744.894) scale(1.1025)"><stop stop-color="#e39400"/><stop offset="1" stop-color="#ffd40e"/></linearGradient><linearGradient id="j" gradientUnits="userSpaceOnUse" y1="7890.37" x2="0" y2="7468.46" gradientTransform="translate(-176.657 -744.894) scale(1.1025)"><stop stop-color="#e18e00"/><stop offset="1" stop-color="#ffc317"/></linearGradient><linearGradient id="l" gradientUnits="userSpaceOnUse" y1="7885.24" x2="0" y2="7473.58" gradientTransform="translate(-176.657 -744.894) scale(1.1025)"><stop stop-color="#e29200"/><stop offset="1" stop-color="#ffcf11"/></linearGradient><linearGradient id="k" gradientUnits="userSpaceOnUse" y1="7887.8" x2="0" y2="7471.02" gradientTransform="translate(-176.657 -744.894) scale(1.1025)"><stop stop-color="#e29000"/><stop offset="1" stop-color="#ffc914"/></linearGradient><linearGradient id="M" gradientUnits="userSpaceOnUse" y1="7822.33" x2="0" y2="7654.66" gradientTransform="translate(-176.657 -744.894) scale(1.1025)"><stop stop-color="#99bbce"/><stop offset="1" stop-color="#d3e4ed"/></linearGradient><linearGradient id="L" gradientUnits="userSpaceOnUse" y1="7823.32" x2="0" y2="7653.72" gradientTransform="translate(-176.657 -744.894) scale(1.1025)"><stop stop-color="#97bacd"/><stop offset="1" stop-color="#d0e1eb"/></linearGradient><linearGradient id="f" gradientUnits="userSpaceOnUse" x1="1470.16" y1="7990.43" x2="1569.45" y2="8089.72"><stop stop-color="#fbfeff"/><stop offset="1" stop-color="#ebf7ff"/></linearGradient><linearGradient id="z" gradientUnits="userSpaceOnUse" x1="1285.47" y1="7931.29" x2="1372.82" y2="8018.64" xlink:href="#a" gradientTransform="translate(-176.657 -744.894) scale(1.1025)"/><linearGradient id="y" gradientUnits="userSpaceOnUse" x1="1282.05" y1="7927.03" x2="1376.51" y2="8021.49" xlink:href="#b" gradientTransform="translate(-176.657 -744.894) scale(1.1025)"/><linearGradient id="e" gradientUnits="userSpaceOnUse" x1="1464.38" y1="7983.23" x2="1575.68" y2="8094.53"><stop stop-color="#f7feff"/><stop offset="1" stop-color="#d6efff"/></linearGradient><linearGradient id="d" gradientUnits="userSpaceOnUse" x1="1458.59" y1="7976.02" x2="1581.91" y2="8099.33"><stop stop-color="#f3feff"/><stop offset="1" stop-color="#c2e7ff"/></linearGradient><linearGradient id="b" gradientUnits="userSpaceOnUse" x1="1441.24" y1="7954.41" x2="1600.59" y2="8113.76"><stop stop-color="#e6fcff"/><stop offset="1" stop-color="#85cfff"/></linearGradient><linearGradient id="c" gradientUnits="userSpaceOnUse" x1="1452.81" y1="7968.82" x2="1588.13" y2="8104.14"><stop stop-color="#eefdff"/><stop offset="1" stop-color="#aedfff"/></linearGradient><linearGradient id="a" gradientUnits="userSpaceOnUse" x1="1447.03" y1="7961.61" x2="1594.36" y2="8108.95"><stop stop-color="#eafdff"/><stop offset="1" stop-color="#99d7ff"/></linearGradient><linearGradient id="A" gradientUnits="userSpaceOnUse" x1="1288.9" y1="7935.56" x2="1369.13" y2="8015.79" xlink:href="#c" gradientTransform="translate(-176.657 -744.894) scale(1.1025)"/><linearGradient id="B" gradientUnits="userSpaceOnUse" x1="1292.33" y1="7939.83" x2="1365.44" y2="8012.94" xlink:href="#d" gradientTransform="translate(-176.657 -744.894) scale(1.1025)"/><linearGradient id="I" gradientUnits="userSpaceOnUse" x1="1698.79" y1="7926.97" x2="1783.56" y2="8011.74" xlink:href="#e" gradientTransform="translate(-176.657 -744.894) scale(1.1025)"/><linearGradient id="K" gradientUnits="userSpaceOnUse" y1="7824.32" x2="0" y2="7652.73" gradientTransform="translate(-176.657 -744.894) scale(1.1025)"><stop stop-color="#95b9cc"/><stop offset="1" stop-color="#cddee8"/></linearGradient><linearGradient id="J" gradientUnits="userSpaceOnUse" x1="1703.19" y1="7932.45" x2="1778.82" y2="8008.08" xlink:href="#f" gradientTransform="translate(-176.657 -744.894) scale(1.1025)"/><linearGradient id="H" gradientUnits="userSpaceOnUse" x1="1694.39" y1="7921.48" x2="1788.31" y2="8015.4" xlink:href="#d" gradientTransform="translate(-176.657 -744.894) scale(1.1025)"/><linearGradient id="C" gradientUnits="userSpaceOnUse" x1="1295.75" y1="7944.09" x2="1361.74" y2="8010.09" xlink:href="#e" gradientTransform="translate(-176.657 -744.894) scale(1.1025)"/><linearGradient id="G" gradientUnits="userSpaceOnUse" x1="1689.99" y1="7916" x2="1793.05" y2="8019.06" xlink:href="#c" gradientTransform="translate(-176.657 -744.894) scale(1.1025)"/><linearGradient id="D" gradientUnits="userSpaceOnUse" x1="1299.18" y1="7948.36" x2="1358.05" y2="8007.24" xlink:href="#f" gradientTransform="translate(-176.657 -744.894) scale(1.1025)"/><linearGradient id="F" gradientUnits="userSpaceOnUse" x1="1685.59" y1="7910.51" x2="1797.79" y2="8022.72" xlink:href="#a" gradientTransform="translate(-176.657 -744.894) scale(1.1025)"/><linearGradient id="E" gradientUnits="userSpaceOnUse" x1="1681.19" y1="7905.03" x2="1802.54" y2="8026.37" xlink:href="#b" gradientTransform="translate(-176.657 -744.894) scale(1.1025)"/><linearGradient xlink:href="#b" id="s" gradientUnits="userSpaceOnUse" x1="1441.24" y1="7954.41" x2="1600.59" y2="8113.76" gradientTransform="translate(-176.657 -744.894) scale(1.1025)"/><linearGradient xlink:href="#a" id="t" gradientUnits="userSpaceOnUse" x1="1447.03" y1="7961.61" x2="1594.36" y2="8108.95" gradientTransform="translate(-176.657 -744.894) scale(1.1025)"/><linearGradient xlink:href="#c" id="u" gradientUnits="userSpaceOnUse" x1="1452.81" y1="7968.82" x2="1588.13" y2="8104.14" gradientTransform="translate(-176.657 -744.894) scale(1.1025)"/><linearGradient xlink:href="#d" id="v" gradientUnits="userSpaceOnUse" x1="1458.59" y1="7976.02" x2="1581.91" y2="8099.33" gradientTransform="translate(-176.657 -744.894) scale(1.1025)"/><linearGradient xlink:href="#e" id="w" gradientUnits="userSpaceOnUse" x1="1464.38" y1="7983.23" x2="1575.68" y2="8094.53" gradientTransform="translate(-176.657 -744.894) scale(1.1025)"/><linearGradient xlink:href="#f" id="x" gradientUnits="userSpaceOnUse" x1="1470.16" y1="7990.43" x2="1569.45" y2="8089.72" gradientTransform="translate(-176.657 -744.894) scale(1.1025)"/></defs><path d="M1385.034 7524.407c19.404 25.578 51.046 25.578 70.34 0 19.404-25.468 38.587-20.396 42.556 11.356 4.08 31.752 31.422 47.628 60.969 35.17 29.547-12.458 43.548 1.654 31.09 31.09-12.348 29.547 3.418 57 35.17 60.969 31.752 3.968 36.934 23.152 11.356 42.556-25.578 19.294-25.578 51.046 0 70.34 25.467 19.403 20.396 38.477-11.356 42.556-31.752 3.969-47.628 31.421-35.17 60.968 12.458 29.547-1.543 43.549-31.09 31.09-29.547-12.347-56.89 3.418-60.969 35.17-3.969 31.863-23.152 36.824-42.556 11.467-19.294-25.579-51.046-25.579-70.34 0-19.404 25.467-38.477 20.396-42.556-11.467-3.97-31.751-31.421-47.627-60.968-35.17-29.547 12.459-43.55-1.543-31.09-31.09 12.457-29.547-3.419-56.889-35.17-60.968-31.753-4.08-36.934-23.153-11.356-42.557 25.578-19.403 25.578-51.045 0-70.339-25.468-19.404-20.397-38.477 11.355-42.556 31.752-3.97 47.628-31.422 35.17-60.969-12.348-29.547 1.654-43.549 31.09-31.09 29.548 12.458 57-3.418 60.969-35.17 4.08-31.642 23.152-36.824 42.556-11.356" fill="#9cb1bf"/><path d="M1371.474 7497.396c20.065 26.46 52.92 26.46 72.985 0 20.066-26.46 39.91-21.168 44.1 11.797 4.19 32.964 32.524 49.392 63.173 36.492 30.65-12.899 45.093 1.654 32.304 32.193-12.9 30.65 3.528 58.984 36.492 63.174 32.965 4.19 38.147 24.034 11.797 43.99-26.46 20.065-26.46 52.92 0 72.985 26.35 20.066 21.058 39.91-11.797 43.99-32.964 4.19-49.392 32.634-36.492 63.173 12.899 30.65-1.654 45.092-32.304 32.193-30.539-12.789-58.983 3.638-63.173 36.493-4.19 32.854-23.924 38.257-44.1 11.797-20.065-26.46-52.92-26.46-72.985 0-20.066 26.46-39.91 21.057-44.1-11.797-4.19-32.965-32.634-49.392-63.174-36.493-30.539 12.9-45.092-1.654-32.193-32.193 12.9-30.54-3.528-58.984-36.492-63.173-32.855-4.08-38.257-23.924-11.797-43.99 26.46-20.066 26.46-52.92 0-72.986-26.46-20.065-21.168-39.91 11.797-43.99 32.964-4.189 49.392-32.523 36.492-63.173-12.899-30.539 1.654-45.092 32.193-32.192 30.65 12.899 58.984-3.529 63.174-36.493 4.19-32.855 24.034-38.147 44.1-11.797" fill="url(#g)"/><path d="M1371.915 7500.042c19.845 26.13 52.258 26.13 72.103 0 19.845-26.13 39.47-20.837 43.549 11.687 4.08 32.523 32.193 48.73 62.401 36.051 30.32-12.678 44.652 1.654 31.863 31.863-12.68 30.208 3.528 58.322 36.051 62.401 32.524 4.19 37.706 23.704 11.687 43.549-26.13 19.845-26.13 52.258 0 72.103 26.13 19.845 20.837 39.47-11.687 43.549-32.523 4.08-48.73 32.193-36.051 62.512 12.678 30.208-1.654 44.54-31.863 31.862-30.208-12.679-58.322 3.528-62.401 36.052-4.08 32.523-23.704 37.815-43.549 11.686-19.845-26.129-52.258-26.129-72.103 0-19.845 26.13-39.47 20.837-43.55-11.686-4.078-32.524-32.192-48.73-62.4-36.052-30.21 12.679-44.542-1.654-31.863-31.862 12.679-30.209-3.528-58.322-36.052-62.512-32.523-4.08-37.815-23.704-11.686-43.549 26.13-19.845 26.13-52.258 0-72.103-26.13-19.845-20.837-39.36 11.686-43.549 32.524-4.08 48.73-32.193 36.052-62.401-12.679-30.209 1.654-44.542 31.862-31.863 30.209 12.679 58.323-3.528 62.402-36.051 4.08-32.524 23.704-37.816 43.549-11.687" fill="url(#h)"/><path d="M1372.245 7502.688c19.625 25.799 51.708 25.799 71.222 0 19.624-25.799 38.918-20.617 42.997 11.466 4.08 32.193 31.863 48.18 61.63 35.61 29.878-12.568 44.1 1.655 31.532 31.532-12.569 29.878 3.528 57.661 35.61 61.74 32.193 4.08 37.265 23.373 11.577 42.998-25.799 19.624-25.799 51.597 0 71.221 25.798 19.625 20.616 39.029-11.577 42.998-32.193 4.079-48.179 31.862-35.61 61.74 12.568 29.878-1.654 44.1-31.532 31.531-29.878-12.568-57.55 3.528-61.63 35.611-4.079 32.083-23.373 37.265-42.997 11.576-19.625-25.798-51.597-25.798-71.222 0-19.624 25.799-38.918 20.617-42.997-11.576-4.08-32.193-31.862-48.18-61.74-35.61-29.878 12.568-43.99-1.544-31.421-31.532 12.568-29.878-3.528-57.661-35.611-61.74-32.083-3.97-37.375-23.373-11.466-42.998 25.798-19.624 25.798-51.707 0-71.221-25.799-19.625-20.617-38.918 11.466-42.998 32.193-4.079 48.18-31.862 35.61-61.74-12.568-29.877 1.654-43.99 31.422-31.531 29.878 12.568 57.66-3.528 61.74-35.611 4.08-32.083 23.483-37.264 42.997-11.466" fill="url(#i)"/><path d="M1372.686 7505.334c19.404 25.468 51.046 25.468 70.34 0 19.404-25.468 38.477-20.396 42.556 11.356 3.97 31.752 31.422 47.628 60.969 35.17 29.547-12.459 43.548 1.653 31.09 31.09-12.458 29.547 3.418 57 35.17 60.968 31.752 4.08 36.823 23.153 11.466 42.447-25.578 19.293-25.578 51.045 0 70.339 25.468 19.404 20.396 38.477-11.466 42.446-31.752 3.97-47.628 31.532-35.17 60.969 12.458 29.547-1.543 43.548-31.09 31.09-29.437-12.348-56.89 3.418-60.969 35.17-3.969 31.752-23.152 36.823-42.556 11.356-19.294-25.468-51.046-25.468-70.34 0-19.404 25.467-38.477 20.396-42.446-11.356-3.969-31.752-31.421-47.628-60.968-35.17-29.437 12.458-43.549-1.543-31.09-31.09 12.347-29.547-3.418-57-35.28-60.969-31.753-3.969-36.824-23.042-11.356-42.446 25.467-19.404 25.467-51.046 0-70.34-25.468-19.403-20.397-38.477 11.355-42.446 31.752-3.969 47.628-31.421 35.28-60.968-12.458-29.547 1.654-43.549 31.09-31.09 29.548 12.347 57-3.418 60.97-35.17 3.968-31.752 23.152-36.934 42.445-11.356" fill="url(#j)"/><path d="M1373.127 7507.98c19.074 25.247 50.385 25.247 69.568 0 19.184-25.137 38.036-20.066 42.005 11.245 3.97 31.422 31.09 47.077 60.197 34.73 29.216-12.239 42.997 1.543 30.76 30.759-12.238 29.216 3.417 56.227 34.728 60.196 31.422 3.97 36.383 22.822 11.246 42.006-25.247 19.073-25.247 50.384 0 69.567 25.137 19.184 20.176 38.037-11.246 42.006-31.42 3.969-46.966 31.09-34.728 60.196 12.237 29.216-1.544 42.998-30.76 30.76-29.106-12.238-56.228 3.418-60.197 34.839-3.969 31.311-22.821 36.382-42.005 11.245-19.073-25.137-50.384-25.137-69.568 0-19.073 25.137-38.036 20.066-42.005-11.245-3.969-31.421-31.09-47.077-60.196-34.839-29.106 12.238-42.998-1.544-30.76-30.76 12.238-29.106-3.418-56.227-34.84-60.196-31.31-3.97-36.382-22.822-11.245-42.006 25.137-19.073 25.137-50.384 0-69.567-25.247-19.184-20.175-38.037 11.246-42.006 31.421-3.969 47.077-31.09 34.839-60.196-12.238-29.106 1.543-42.998 30.76-30.76 29.106 12.238 56.227-3.418 60.196-34.729 3.97-31.42 22.932-36.492 42.005-11.245" fill="url(#k)"/><path d="M1373.568 7510.516c18.853 24.916 49.833 24.916 68.686 0 18.963-24.917 37.595-19.845 41.454 11.135 3.859 30.98 30.65 46.415 59.425 34.398 28.885-12.127 42.446 1.544 30.429 30.319-12.128 28.775 3.307 55.566 34.288 59.535 30.98 3.969 35.941 22.601 11.135 41.454-24.917 18.852-24.917 49.722 0 68.685 24.806 18.963 19.845 37.596-11.135 41.454-30.98 3.97-46.416 30.76-34.288 59.535 12.127 28.776-1.544 42.447-30.43 30.32-28.774-12.128-55.565 3.307-59.424 34.397-3.969 30.98-22.601 35.942-41.454 11.135-18.853-24.916-49.833-24.916-68.686 0-18.852 24.807-37.595 19.845-41.454-11.135-3.858-30.98-30.65-46.415-59.535-34.398-28.775 12.128-42.446-1.543-30.318-30.319 12.127-28.775-3.308-55.566-34.398-59.535-30.98-3.858-35.942-22.49-11.136-41.454 24.917-18.852 24.917-49.833 0-68.685-24.916-18.853-19.845-37.596 11.136-41.454 30.98-3.859 46.415-30.65 34.398-59.535-12.128-28.776 1.543-42.447 30.318-30.319 28.776 12.127 55.566-3.308 59.535-34.398 3.86-30.98 22.602-35.941 41.454-11.135" fill="url(#l)"/><path d="M1374.01 7513.162c18.632 24.585 49.17 24.585 67.803 0 18.743-24.586 37.044-19.625 41.013 10.914 3.859 30.65 30.319 45.864 58.653 33.957 28.445-11.907 42.005 1.544 29.988 29.988-11.907 28.445 3.308 54.905 33.847 58.764 30.65 3.859 35.5 22.27 11.025 40.903-24.586 18.632-24.586 49.171 0 67.803 24.586 18.743 19.624 37.155-11.025 40.903-30.65 3.859-45.864 30.319-33.847 58.763 11.907 28.445-1.543 41.895-29.988 29.988-28.444-11.907-54.794 3.308-58.653 33.957-3.859 30.54-22.27 35.5-41.013 10.915-18.632-24.586-49.171-24.586-67.804 0-18.632 24.586-37.044 19.625-40.902-10.915-3.86-30.65-30.32-45.864-58.764-33.957-28.444 11.907-41.895-1.543-29.988-29.988 11.907-28.444-3.307-54.904-33.957-58.763-30.539-3.859-35.5-22.27-10.914-40.903 24.585-18.632 24.585-49.171 0-67.803-24.586-18.633-19.625-37.045 10.914-40.903 30.65-3.859 45.864-30.319 33.957-58.763-11.907-28.445 1.544-41.896 29.988-29.989 28.445 11.907 54.905-3.307 58.764-33.957 3.858-30.539 22.27-35.5 40.902-10.914" fill="url(#m)"/><path d="M1374.45 7515.808c18.412 24.255 48.62 24.255 66.922 0 18.522-24.255 36.603-19.404 40.462 10.804 3.859 30.209 29.878 45.313 57.991 33.516 28.114-11.796 41.454 1.544 29.658 29.658-11.797 28.113 3.307 54.242 33.516 57.991 30.208 3.859 35.06 22.05 10.914 40.462-24.255 18.412-24.255 48.51 0 66.922 24.255 18.521 19.404 36.713-10.914 40.461-30.209 3.859-45.313 29.988-33.516 57.992 11.796 28.114-1.544 41.454-29.658 29.657-28.113-11.797-54.132 3.308-57.991 33.516-3.859 30.208-21.94 35.06-40.462 10.804-18.412-24.255-48.51-24.255-66.922 0-18.411 24.255-36.603 19.404-40.461-10.804-3.86-30.209-29.878-45.313-57.992-33.516-28.114 11.797-41.344-1.544-29.547-29.657 11.797-28.004-3.307-54.243-33.516-57.992-30.208-3.748-35.06-21.94-10.804-40.462 24.255-18.411 24.255-48.51 0-66.921-24.255-18.412-19.404-36.603 10.804-40.462 30.209-3.748 45.313-29.878 33.516-57.992-11.797-28.113 1.544-41.453 29.547-29.657 28.114 11.797 54.243-3.307 57.992-33.516 3.858-30.208 22.05-35.06 40.461-10.804" fill="url(#n)"/><path d="M1374.891 7518.454c18.192 23.924 47.96 23.924 66.15 0 18.192-23.924 36.162-19.073 39.91 10.694 3.75 29.878 29.548 44.651 57.22 33.075 27.784-11.687 40.903 1.544 29.217 29.216-11.687 27.673 3.197 53.471 33.075 57.22 29.878 3.748 34.618 21.72 10.694 39.91-24.034 18.192-24.034 47.96 0 66.04 23.924 18.191 19.184 36.162-10.694 39.91-29.768 3.75-44.651 29.658-33.075 57.33 11.686 27.673-1.544 40.903-29.216 29.217-27.673-11.687-53.472 3.197-57.22 33.075-3.749 29.767-21.72 34.618-39.91 10.694-18.192-23.924-47.96-23.924-66.15 0-18.192 23.924-36.163 19.184-39.911-10.694-3.749-29.878-29.547-44.761-57.22-33.075-27.673 11.687-40.903-1.544-29.216-29.216 11.686-27.673-3.197-53.472-33.075-57.33-29.768-3.749-34.619-21.72-10.694-39.91 23.924-18.192 23.924-47.96 0-66.04-23.925-18.192-19.184-36.163 10.694-39.911 29.878-3.748 44.761-29.547 33.075-57.22-11.687-27.673 1.543-40.903 29.216-29.216 27.673 11.687 53.471-3.197 57.22-33.075 3.748-29.878 21.72-34.618 39.91-10.694" fill="url(#o)"/><path d="M1375.332 7521.1c17.971 23.593 47.298 23.593 65.268 0 17.971-23.704 35.721-18.853 39.47 10.584 3.748 29.436 29.106 44.1 56.448 32.634 27.342-11.466 40.351 1.543 28.885 28.885-11.466 27.342 3.198 52.81 32.634 56.558 29.547 3.749 34.178 21.5 10.584 39.36-23.703 17.97-23.703 47.297 0 65.268 23.594 17.97 18.963 35.72-10.584 39.359-29.436 3.748-44.1 29.216-32.634 56.558 11.466 27.342-1.543 40.352-28.885 28.886-27.342-11.466-52.81 3.197-56.448 32.634-3.749 29.437-21.389 34.177-39.47 10.584-17.86-23.594-47.297-23.594-65.268 0-17.97 23.593-35.72 18.853-39.359-10.584-3.748-29.437-29.216-44.1-56.558-32.634-27.342 11.466-40.352-1.433-28.886-28.886 11.466-27.342-3.197-52.81-32.634-56.558-29.436-3.638-34.177-21.389-10.584-39.36 23.594-17.97 23.594-47.297 0-65.267-23.703-17.971-18.852-35.721 10.584-39.36 29.437-3.748 44.21-29.106 32.634-56.558-11.466-27.342 1.544-40.351 28.886-28.885 27.342 11.466 52.81-3.198 56.558-32.634 3.638-29.437 21.389-34.288 39.36-10.584" fill="url(#p)"/><path d="M1375.663 7523.746c17.75 23.373 46.746 23.373 64.386 0 17.75-23.373 35.28-18.632 38.918 10.474 3.639 28.995 28.776 43.548 55.787 32.192 27.011-11.355 39.91 1.434 28.555 28.445-11.356 27.011 3.087 52.148 32.193 55.786 29.106 3.639 33.736 21.169 10.473 38.919-23.373 17.64-23.373 46.636 0 64.386 23.373 17.75 18.633 35.28-10.473 38.918-28.996 3.638-43.55 28.886-32.193 55.787 11.355 27.01-1.434 39.8-28.555 28.444-27.011-11.356-52.038 3.087-55.787 32.193-3.638 29.106-21.168 33.737-38.918 10.364-17.64-23.263-46.636-23.263-64.386 0-17.75 23.262-35.17 18.632-38.918-10.364-3.638-29.106-28.775-43.549-55.787-32.193-27.01 11.356-39.8-1.433-28.444-28.444 11.356-27.012-3.197-52.149-32.193-55.787-28.996-3.638-33.737-21.058-10.364-38.918 23.373-17.64 23.373-46.636 0-64.386-23.373-17.75-18.632-35.28 10.364-38.918 29.106-3.639 43.549-28.776 32.193-55.787-11.356-27.011 1.433-39.8 28.444-28.445 27.012 11.356 52.149-3.086 55.787-32.192 3.748-29.107 21.278-33.847 38.918-10.474" fill="url(#q)"/><path d="M1376.104 7526.282c17.53 23.042 46.085 23.042 63.504 0 17.53-23.043 34.729-18.412 38.367 10.253 3.638 28.665 28.334 42.997 55.015 31.752 26.68-11.135 39.36 1.433 28.114 28.114-11.136 26.68 3.087 51.376 31.752 55.014 28.775 3.639 33.295 20.838 10.363 38.367-23.042 17.42-23.042 46.085 0 63.504 23.042 17.53 18.412 34.84-10.363 38.367-28.665 3.639-42.888 28.445-31.752 55.015 11.245 26.68-1.434 39.249-28.114 28.114-26.68-11.246-51.377 3.087-55.015 31.752-3.638 28.665-20.837 33.295-38.367 10.253-17.42-23.042-46.084-23.042-63.504 0-17.42 23.042-34.729 18.412-38.367-10.253-3.638-28.665-28.444-42.998-55.015-31.752-26.68 11.135-39.249-1.433-28.113-28.114 11.245-26.57-3.087-51.376-31.752-55.015-28.665-3.528-33.296-20.837-10.254-38.367 23.043-17.42 23.043-46.084 0-63.504-23.042-17.53-18.411-34.728 10.254-38.367 28.665-3.638 42.997-28.444 31.752-55.014-11.136-26.681 1.433-39.36 28.113-28.114 26.68 11.245 51.377-3.087 55.015-31.752 3.638-28.555 20.948-33.296 38.367-10.253" fill="url(#r)"/><path d="M1563.088 8265.949h-64.386v-64.276l-49.502 28.555-6.174 3.638-3.528-6.174-25.137-43.438-3.528-6.174 6.174-3.639 49.392-28.444-49.392-28.555-6.174-3.638 3.528-6.174 25.137-43.439 3.528-6.174 6.174 3.528 49.502 28.555V8025.935h64.386v64.165l49.502-28.555 6.174-3.528 3.528 6.174 25.027 43.439 3.638 6.174-6.174 3.638-49.392 28.555 49.392 28.444 6.174 3.639-3.638 6.174-25.027 43.438-3.528 6.174-6.174-3.638-49.502-28.555v64.276" fill="#9cb1bf"/><path d="M1551.181 8251.616h-64.386v-64.276l-49.502 28.555-6.174 3.528-3.528-6.174-25.137-43.438-3.528-6.284 6.064-3.529 49.502-28.444-49.502-28.555-6.064-3.638 3.528-6.174 25.137-43.438 3.528-6.175 6.174 3.529 49.502 28.664v-64.275h64.386v64.276l49.502-28.666 6.174-3.527 3.528 6.173 25.137 43.439 3.528 6.174-6.174 3.638-49.392 28.555 49.392 28.445 6.174 3.527-3.528 6.285-25.137 43.438-3.528 6.174-6.174-3.528-49.502-28.554v64.275" fill="#78b5db"/><path d="M1629.348 8096.825l-25.137-43.548-60.086 34.728v-69.457h-50.274v69.457l-60.086-34.729-25.137 43.55 60.086 34.728-60.086 34.729 25.137 43.438 60.086-34.728v69.457h50.274v-69.457l60.086 34.728 25.137-43.438-60.196-34.729z" fill="url(#s)"/><path d="M1619.316 8099.25l-23.153-40.13-55.676 32.082v-64.275h-46.415v64.275l-55.566-32.082-23.153 40.13 55.566 32.194-55.566 32.082 23.153 40.242 55.566-32.083v64.165h46.415v-64.165l55.676 32.083 23.153-40.241-55.566-32.083z" fill="url(#t)"/><path d="M1609.283 8101.787l-21.278-36.934-51.046 29.547v-59.094h-42.557v59.094l-51.045-29.547-21.279 36.934 50.936 29.546-50.936 29.548 21.279 36.933 51.045-29.547v59.094h42.557v-59.094l51.046 29.547 21.278-36.934-51.046-29.547z" fill="url(#u)"/><path d="M1599.25 8104.322l-19.404-33.736-46.415 26.9v-53.801h-38.808v53.802l-46.526-26.901-19.404 33.736 46.526 26.901-46.526 26.901 19.404 33.737 46.526-26.901v53.802h38.808v-53.802l46.415 26.9 19.404-33.736-46.525-26.9z" fill="url(#v)"/><path d="M1589.217 8106.748l-17.42-30.43-42.004 24.366v-48.62h-34.95v48.62l-41.895-24.365-17.53 30.429 41.896 24.365-41.895 24.365 17.53 30.43 41.894-24.366v48.62h34.95v-48.62l42.005 24.365 17.42-30.429-41.896-24.365z" fill="url(#w)"/><path d="M1579.185 8109.283l-15.546-27.121-37.374 21.72v-43.44h-31.201v43.44l-37.375-21.72-15.545 27.122 37.264 21.719-37.264 21.719 15.545 27.232 37.375-21.72v43.439h31.2v-43.438l37.375 21.719 15.546-27.232-37.375-21.72z" fill="url(#x)"/><path d="M1569.152 8111.82l-13.671-23.925-32.744 19.073v-38.146h-27.453v38.146l-32.744-19.073-13.67 23.924 32.743 19.073-32.744 19.184L1462.54 8174l32.744-19.073v38.147h27.453v-38.147L1555.48 8174l13.67-23.924-32.743-19.183z" fill="#fff"/><path d="M1326.16 8137.618h-38.146v-38.147l-29.326 16.979-3.638 2.094-2.205-3.638-14.884-25.798-2.095-3.639 3.638-2.094 29.327-16.869-29.327-16.978-3.638-2.095 2.095-3.638 14.884-25.799 2.205-3.748 3.638 2.205 29.326 16.868v-38.036h38.147V8033.321l29.326-16.868 3.639-2.205 2.094 3.748 14.884 25.799 2.095 3.638-3.638 2.095-29.217 16.978 29.217 16.869 3.638 2.094-2.095 3.639-14.884 25.798-2.094 3.638-3.639-2.094-29.326-16.979v38.147" fill="#9cb1bf"/><path d="M1319.105 8129.018h-38.147V8090.982l-29.326 16.868-3.638 2.205-2.205-3.638-14.884-25.799-2.095-3.748 3.638-2.095 29.327-16.868-29.327-16.979-3.638-2.094 2.095-3.638 14.884-25.799 2.205-3.638 3.638 2.095 29.326 16.978v-38.147h38.147v38.147l29.437-16.979 3.528-2.094 2.205 3.638 14.883 25.799 2.095 3.638-3.748 2.095-29.217 16.978 29.217 16.868 3.748 2.095-2.095 3.748-14.883 25.799-2.205 3.638-3.528-2.205-29.437-16.868v38.037" fill="#78b5db"/><path d="M1365.41 8037.29l-14.774-25.798-35.72 20.617v-41.124h-29.768v41.124l-35.61-20.617-14.885 25.798 35.611 20.617-35.61 20.506 14.883 25.799 35.61-20.506v41.123h29.768v-41.123l35.721 20.506 14.774-25.799-35.61-20.506z" fill="url(#y)"/><path d="M1359.567 8038.834l-13.782-23.924-32.964 19.073v-38.037h-27.563v38.037l-32.965-19.074-13.67 23.925 32.854 18.963-32.855 19.073 13.671 23.814 32.965-18.963v38.036h27.563v-38.036l32.964 18.963 13.782-23.814-32.965-19.073z" fill="url(#z)"/><path d="M1353.613 8040.267l-12.679-21.94-30.208 17.53v-34.95h-25.358v34.95l-30.208-17.53-12.569 21.94 30.209 17.53-30.209 17.42 12.569 21.939 30.208-17.42v34.95h25.358v-34.95l30.208 17.42 12.68-21.94-30.32-17.42z" fill="url(#A)"/><path d="M1347.66 8041.81l-11.577-20.065-27.452 15.986v-31.862h-23.042v31.862l-27.563-15.986-11.466 20.066 27.563 15.875-27.563 15.987 11.466 19.955 27.563-15.876v31.862h23.042v-31.862l27.452 15.876 11.577-19.955-27.563-15.986z" fill="url(#B)"/><path d="M1341.706 8043.244l-10.363-18.081-24.917 14.443v-28.776H1285.7v28.775l-24.806-14.442-10.364 18.08 24.807 14.443-24.807 14.443 10.364 17.971 24.806-14.333v28.776h20.727v-28.776l24.917 14.333 10.363-17.97-24.916-14.444z" fill="url(#C)"/><path d="M1335.753 8044.677l-9.261-16.096-22.16 12.899v-25.688h-18.523v25.688l-22.16-12.9-9.15 16.097 22.16 12.9-22.16 12.898 9.15 16.097 22.16-12.789v25.688h18.522v-25.688l22.16 12.789 9.262-16.097-22.16-12.899z" fill="url(#D)"/><path d="M1329.8 8046.22l-8.16-14.222-19.403 11.356v-22.712h-16.207v22.712l-19.514-11.356-8.049 14.223 19.404 11.355-19.404 11.356 8.049 14.112 19.514-11.245v22.6h16.207v-22.6l19.404 11.245 8.158-14.112-19.404-11.356z" fill="#fff"/><path d="M1791.636 8154.045h-49.061v-48.951l-37.705 21.83-4.63 2.645-2.757-4.74-19.073-33.075-2.757-4.63 4.741-2.757 37.595-21.72-37.595-21.718-4.74-2.757 2.756-4.74 19.073-33.076 2.756-4.74 4.63 2.756 37.706 21.72v-48.952h49.061v48.951l37.816-21.719 4.63-2.756 2.647 4.74 19.183 33.076 2.646 4.74-4.63 2.757-37.706 21.719 37.706 21.719 4.63 2.756-2.646 4.63-19.183 33.076-2.646 4.74-4.63-2.645-37.817-21.83v48.951" fill="#9cb1bf"/><path d="M1782.596 8143.02h-49.061v-48.951l-37.706 21.83-4.63 2.645-2.757-4.63-19.183-33.075-2.646-4.74 4.63-2.757 37.706-21.72-37.706-21.718-4.63-2.757 2.646-4.63 19.183-33.185 2.757-4.741 4.63 2.756 37.706 21.72V7960.225h49.061v48.84l37.705-21.719 4.741-2.756 2.756 4.74 19.074 33.186 2.646 4.63-4.741 2.757-37.595 21.719 37.595 21.719 4.74 2.756-2.645 4.741-19.074 33.075-2.756 4.63-4.74-2.645-37.706-21.83v48.951" fill="#78b5db"/><path d="M1842.13 8025.163l-19.072-33.075-45.864 26.46v-52.92h-38.257v52.92l-45.754-26.46-19.183 33.075 45.864 26.46-45.864 26.46 19.183 33.075 45.754-26.46v52.92h38.257v-52.92l45.864 26.46 19.073-33.075-45.754-26.46z" fill="url(#E)"/><path d="M1834.524 8027.037l-17.75-30.54-42.337 24.366v-48.84h-35.28v48.84l-42.336-24.365-17.64 30.539 42.336 24.476-42.336 24.475 17.64 30.65 42.336-24.476v48.951h35.28v-48.951l42.336 24.476 17.75-30.65-42.335-24.476z" fill="url(#F)"/><path d="M1826.916 8029.021l-16.317-28.223-38.808 22.49v-44.981h-32.523v44.981l-38.808-22.49-16.207 28.223 38.808 22.492-38.808 22.49 16.207 28.114 38.808-22.49v44.981h32.523v-44.982l38.808 22.491 16.207-28.114-38.808-22.49z" fill="url(#G)"/><path d="M1819.199 8030.896l-14.774-25.688-35.39 20.506v-41.013h-29.547v41.013l-35.39-20.506-14.774 25.688 35.39 20.506-35.39 20.507 14.774 25.688 35.39-20.506v41.012h29.547v-41.012l35.39 20.506 14.774-25.688-35.39-20.507z" fill="url(#H)"/><path d="M1811.592 8032.77l-13.34-23.152-31.973 18.521v-37.043h-26.57v37.044l-31.973-18.523-13.34 23.153 31.972 18.522-31.972 18.522 13.34 23.263 31.973-18.522v37.044h26.57v-37.044l31.972 18.522 13.34-23.263-31.972-18.522z" fill="url(#I)"/><path d="M1803.984 8034.644l-11.907-20.617-28.444 16.538v-33.075h-23.814v33.075l-28.445-16.537-11.796 20.616 28.444 16.648-28.444 16.537 11.796 20.728 28.445-16.538v33.075h23.814v-33.075l28.444 16.537 11.797-20.726-28.334-16.538z" fill="url(#J)"/><path d="M1796.267 8036.629l-10.364-18.191-25.026 14.442v-28.996h-20.838v28.996l-25.026-14.443-10.364 18.192 25.027 14.553-25.027 14.553 10.364 18.191 25.026-14.443v29.106h20.838v-29.106l25.026 14.443 10.364-18.191-24.917-14.553z" fill="#fff"/><path d="M1814.568 7791.102c-3.528 0-6.945.441-10.253 1.103-1.984-21.94-20.176-39.25-42.667-39.25-4.85 0-9.481.993-13.78 2.426-9.152-40.792-45.314-71.222-88.862-71.222-36.273 0-67.473 21.389-82.137 52.259-8.268-7.276-18.963-11.797-30.87-11.797-25.247 0-45.643 19.956-46.746 44.872-9.812-5.513-20.947-8.93-32.964-8.93-37.375 0-67.694 30.319-67.694 67.693 0 37.375 30.319 67.694 67.694 67.694h348.17c28.995 0 52.368-23.483 52.368-52.369.11-28.996-23.373-52.479-52.259-52.479" fill="#9cb1bf"/><path d="M1806.19 7776.66c-3.529 0-6.836.33-10.254 1.102-1.984-22.05-20.176-39.25-42.667-39.25-4.96 0-9.481.993-13.78 2.426-9.152-40.792-45.314-71.221-88.862-71.221-36.273 0-67.473 21.499-82.026 52.258-8.27-7.276-18.963-11.907-30.87-11.907-25.248 0-45.644 19.956-46.746 44.982-9.813-5.512-20.948-8.93-32.965-8.93-37.375 0-67.694 30.319-67.694 67.694 0 37.374 30.32 67.583 67.694 67.583h348.17c28.885 0 52.478-23.483 52.478-52.369-.11-28.885-23.593-52.369-52.479-52.369" fill="url(#K)"/><path d="M1537.951 7711.17c11.797 0 22.16 4.631 30.098 11.577 1.764-3.638 4.851-6.284 7.056-9.592 2.316-3.418 5.403-7.938 8.159-10.915 15.876-18.632 39.139-30.539 65.158-31.2 7.497-.22 14.773.551 21.83 2.094 33.184 7.387 59.534 33.296 67.582 66.591 4.08-.882 8.27-1.212 12.79-.771 2.315 0 4.85 1.433 7.055 1.764 2.095.33 5.403.551 7.387 1.323 2.426.551 4.63 1.433 6.836 2.425 10.143 4.741 17.97 13.781 21.168 24.806.661 2.095 1.323 5.403 1.543 7.608.11.772.551 1.433.551 2.095 1.434-.331 3.749-.662 5.292-.883 1.875-.22 3.639-.33 5.623-.33 15.435 0 29.106 7.387 37.595 18.412 8.38 11.025 11.577 24.806 9.04 37.595 0 25.688-26.68 46.525-52.368 46.525H1466.29c-33.186 0-67.694-26.9-67.694-60.086-3.418-16.648.441-34.508 11.356-48.951 10.915-14.443 28.775-24.034 48.84-24.034 9.151 0 17.861 1.984 25.91 5.622 2.204.993 5.291 2.536 7.386 3.749.11-1.764.882-3.197 1.213-4.961.772-4.41 2.315-10.364 4.3-14.223 6.615-15.545 22.16-26.24 40.351-26.24" fill="url(#L)"/><path d="M1538.061 7712.273c11.687 0 21.83 4.741 29.327 11.356 1.543-3.197 5.402-4.41 7.387-7.277 1.984-2.976 5.402-8.378 7.827-11.024 15.215-19.074 37.926-31.532 63.504-32.855 7.277-.33 14.553.11 21.5 1.544 33.074 6.394 59.755 31.751 68.244 64.496 3.748-.22 7.607 0 11.686.992 1.985 0 4.52 2.536 6.505 2.866 1.874.331 5.954 0 7.718.662 2.535.33 4.96.992 7.276 1.874 10.915 4.19 19.514 13.671 22.491 25.468.551 1.764 1.213 6.064 1.544 7.938.11.661.771 1.103.882 1.764 1.323-.22 4.3-.772 5.622-.992 1.985-.22 3.86-.441 5.844-.441 16.317 0 30.76 8.82 38.146 21.388 7.387 12.569 7.828 27.012 2.646 38.257 0 22.491-29.878 40.682-52.369 40.682h-320.055c-29.106 0-67.584-23.483-67.584-52.589-6.945-14.553-6.725-33.406 2.867-50.053 9.481-16.648 28.334-28.224 49.833-28.224 9.15 0 17.97 2.094 26.13 5.843 1.984.772 5.622 2.756 7.496 3.859.11-1.544 1.433-2.426 1.764-3.97.662-3.858 2.095-11.135 3.859-14.442 6.064-15.766 21.72-27.122 39.91-27.122" fill="url(#M)"/><path d="M1538.282 7713.376c11.576 0 21.388 4.74 28.555 11.025 1.323-2.757 6.063-2.536 7.717-5.072s5.402-8.82 7.497-11.135c14.553-19.514 36.713-32.414 61.85-34.398 7.167-.551 14.333-.22 21.279.992 32.964 5.513 59.976 30.098 69.016 62.512 3.418.441 6.946 1.213 10.584 2.756 1.764 0 4.19 3.749 5.843 4.08 1.654.33 6.615-.442 8.049 0 2.756.11 5.292.55 7.717 1.322 11.797 3.529 21.168 13.561 23.924 26.13.552 1.543 1.213 6.725 1.434 8.379.11.551 1.102.882 1.102 1.433 1.103-.22 4.74-.882 5.843-.992 1.985-.331 4.08-.441 6.174-.441 17.31 0 32.304 10.253 38.588 24.365 6.284 14.112 3.969 29.216-3.638 38.808 0 19.294-33.075 34.839-52.37 34.839h-305.943c-24.916 0-67.583-20.176-67.583-45.092-10.364-12.458-13.781-32.414-5.623-51.156 8.159-18.743 27.893-32.524 50.825-32.524 9.261 0 18.081 2.205 26.24 6.064 1.654.661 6.064 3.087 7.607 3.969.11-1.323 2.095-1.654 2.315-2.977.552-3.308 1.875-11.797 3.418-14.663 5.513-16.317 21.168-28.224 39.58-28.224" fill="url(#N)"/><path d="M1538.502 7714.478c11.577 0 21.058 4.851 27.783 10.805 1.103-2.316 6.615-.662 8.049-2.757 1.433-2.094 5.402-9.37 7.166-11.245 13.891-20.066 35.5-33.406 60.196-36.052a84.071 84.071 0 0 1 21.058.331c32.855 4.63 60.197 28.555 69.788 60.527 3.198.992 6.285 2.426 9.482 4.41 1.433 0 3.969 4.961 5.292 5.182 1.323.22 7.166-.992 8.379-.551 2.866-.11 5.512.11 8.158.772 12.569 2.976 22.712 13.45 25.248 26.9.44 1.324 1.102 7.498 1.323 8.82.11.442 1.323.662 1.433 1.103.882-.22 5.292-.992 6.174-1.103 2.095-.33 4.3-.55 6.505-.55 18.301 0 33.846 11.796 39.138 27.452 5.292 15.655.22 31.42-10.032 39.469 0 16.096-36.273 29.106-52.259 29.106h-291.832c-20.727 0-67.583-16.758-67.583-37.595-13.891-10.364-20.947-31.311-14.112-52.259 6.836-20.947 27.452-36.713 51.707-36.713 9.261 0 18.192 2.205 26.46 6.394 1.434.552 6.395 3.308 7.718 4.08 0-1.103 2.646-.882 2.866-1.874.441-2.757 1.654-12.569 2.977-14.884 4.63-17.2 20.396-29.768 38.918-29.768" fill="url(#O)"/><path d="M1538.723 7715.58c11.466 0 20.617 4.852 27.011 10.475.882-1.875 7.277 1.212 8.38-.552 1.102-1.653 5.512-9.812 6.835-11.355 13.12-20.507 34.177-34.399 58.542-37.596 6.946-.882 13.892-.992 20.838-.22 32.744 3.638 60.417 26.9 70.45 58.542a46.661 46.661 0 0 1 8.378 6.175c1.103 0 3.639 6.063 4.741 6.284 1.103.22 7.718-1.544 8.82-1.213 3.087-.33 5.843-.22 8.6.22 13.45 2.426 24.255 13.34 26.68 27.563.33.992 1.103 8.159 1.213 9.261 0 .33 1.654.441 1.654.772.771-.11 5.733-1.103 6.504-1.213 2.205-.33 4.52-.551 6.836-.551 19.183 0 35.39 13.23 39.69 30.429 4.19 17.199-3.528 33.626-16.317 40.02 0 12.79-39.47 23.263-52.259 23.263H1497.6c-16.647 0-67.472-13.45-67.472-30.098-17.31-8.269-28.114-30.208-22.712-53.361 5.402-23.152 27.122-40.903 52.7-40.903 9.26 0 18.301 2.316 26.68 6.615 1.103.441 6.725 3.639 7.828 4.19 0-.882 3.197 0 3.418-.882.33-2.205 1.433-13.23 2.425-15.215 3.859-17.53 19.514-30.65 38.257-30.65" fill="url(#P)"/><path d="M1538.943 7716.683c11.356 0 20.176 4.962 26.24 10.254.661-1.323 7.828 2.976 8.71 1.764.882-1.213 5.512-10.364 6.504-11.466 12.459-20.948 32.965-35.28 56.78-39.25 6.835-1.102 13.67-1.433 20.616-.771 32.634 2.756 60.637 25.357 71.221 56.558 2.536 2.315 4.962 4.851 7.277 7.938.882 0 3.307 7.277 4.19 7.387.771.11 8.378-2.095 9.15-1.764 3.197-.551 6.174-.662 9.04-.331 14.333 1.874 25.91 13.23 28.114 28.224.22.772 1.103 8.82 1.213 9.702 0 .22 1.985.11 1.985.441.55-.11 6.284-1.213 6.835-1.323 2.315-.33 4.74-.662 7.166-.662 20.176 0 37.044 14.664 40.131 33.516 3.198 18.743-7.386 35.832-22.711 40.683 0 9.591-42.557 17.42-52.259 17.42h-263.718c-12.458 0-67.473-10.034-67.473-22.492-20.837-6.284-35.28-29.106-31.2-54.463 4.079-25.358 26.68-45.093 53.691-45.093 9.261 0 18.412 2.426 26.901 6.946.882.331 7.167 3.859 7.938 4.3 0-.662 3.86.772 3.97.11.33-1.654 1.212-14.002 1.984-15.435 3.087-18.412 18.853-32.193 37.705-32.193" fill="url(#Q)"/><path d="M1539.164 7717.786c11.245 0 19.845 4.961 25.468 9.922.44-.882 8.379 4.851 9.04 4.08.551-.882 5.513-10.805 6.174-11.577 11.797-21.388 31.752-36.272 55.125-40.902 6.615-1.323 13.45-1.764 20.396-1.434 32.524 1.875 60.858 23.814 71.994 54.464 2.315 2.977 4.3 6.064 6.174 9.592.55 0 2.976 8.379 3.528 8.489.55.11 8.93-2.536 9.481-2.426 3.418-.771 6.505-1.102 9.482-.882 15.214 1.213 27.452 13.12 29.436 28.886.22.551.993 9.592 1.103 10.143 0 .22 2.205-.11 2.315.11.33-.11 6.725-1.323 7.056-1.433a42.135 42.135 0 0 1 7.497-.662c21.058 0 38.588 16.207 40.682 36.493 2.095 20.286-11.135 38.036-28.995 41.234 0 6.394-45.754 11.576-52.259 11.576h-249.606c-8.269 0-67.473-6.725-67.473-14.994-24.255-4.19-42.336-28.114-39.69-55.566 2.756-27.452 26.24-49.392 54.684-49.392 9.371 0 18.412 2.425 27.122 7.166.55.22 7.497 4.19 8.048 4.41 0-.441 4.41 1.544 4.52 1.103.22-1.103 1.103-14.664 1.544-15.656 2.315-18.412 18.08-32.744 37.154-32.744" fill="url(#R)"/><path d="M1539.384 7718.888c11.136 0 19.404 5.072 24.696 9.702.22-.44 9.04 6.726 9.261 6.285.331-.441 5.513-11.356 5.844-11.687 11.135-21.94 30.539-37.264 53.47-42.446 6.506-1.433 13.23-2.205 20.177-1.985 32.413.882 61.188 22.16 72.654 52.48 1.985 3.527 3.749 7.386 5.072 11.355.33 0 2.756 9.592 2.977 9.702.22 0 9.591-3.087 9.812-2.977 3.528-.992 6.835-1.543 9.922-1.323 15.987.662 29.106 13.12 30.87 29.547.11.22.993 10.254.993 10.474 0 .11 2.535-.33 2.535-.22.22 0 7.167-1.434 7.387-1.434 2.536-.44 5.072-.771 7.828-.771 22.05 0 40.13 17.64 41.233 39.469 1.103 21.83-14.883 40.241-35.39 41.895 0 3.197-48.95 5.843-52.148 5.843h-235.494c-4.19 0-67.473-3.307-67.473-7.497-27.783-2.094-49.502-27.011-48.18-56.668 1.324-29.657 25.8-53.582 55.677-53.582 9.371 0 18.522 2.536 27.342 7.387.33.11 7.828 4.41 8.158 4.63 0-.22 4.962 2.426 5.072 2.206.11-.552.882-15.435 1.102-15.876 1.544-19.515 17.42-34.509 36.603-34.509" fill="url(#S)"/><path d="M1802.661 7871.584h-341.003c-31.2 0-56.668-25.908-56.668-57.77 0-31.863 25.467-57.772 56.668-57.772 9.371 0 18.632 2.647 27.452 7.718l13.782 7.938.661-16.207c.772-19.845 16.648-35.5 36.052-35.5 11.025 0 19.073 5.071 23.924 9.481l9.592 8.6 5.512-11.797c13.34-28.775 40.793-46.636 71.663-46.636 36.823 0 69.457 26.791 77.506 63.615l2.425 10.804 10.143-3.638c3.749-1.213 7.056-1.874 10.364-1.874 16.868 0 30.65 13.009 32.303 30.208l.882 10.915 10.584-2.095c2.646-.441 5.292-.882 8.158-.882 23.043 0 41.675 19.073 41.675 42.557 0 23.262-18.743 42.336-41.675 42.336" fill="url(#T)"/></svg>