<svg xmlns="http://www.w3.org/2000/svg" xmlns:xlink="http://www.w3.org/1999/xlink" viewBox="3264.2 7452.3 841.9 841.90004" width="841.9" height="841.9"><defs><linearGradient id="d" gradientUnits="userSpaceOnUse" y1="7666.34" x2="0" y2="7485.32"><stop stop-color="#a5c1d3"/><stop offset="1" stop-color="#e7f4fc"/></linearGradient><linearGradient id="e" gradientUnits="userSpaceOnUse" y1="7667.48" x2="0" y2="7484.61"><stop stop-color="#a3c0d2"/><stop offset="1" stop-color="#e4f1fa"/></linearGradient><linearGradient id="ab" gradientUnits="userSpaceOnUse" y1="7866.51" x2="0" y2="7621.08" xlink:href="#a" gradientTransform="matrix(1.1 0 0 1.1 -361.42 -694.87)"/><linearGradient id="c" gradientUnits="userSpaceOnUse" y1="7668.62" x2="0" y2="7483.83"><stop stop-color="#a1bfd1"/><stop offset="1" stop-color="#e0eff7"/></linearGradient><linearGradient id="f" gradientUnits="userSpaceOnUse" y1="7669.77" x2="0" y2="7482.99"><stop stop-color="#9fbed0"/><stop offset="1" stop-color="#ddecf5"/></linearGradient><linearGradient id="j" gradientUnits="userSpaceOnUse" y1="7673.2" x2="0" y2="7480.09"><stop stop-color="#99bbce"/><stop offset="1" stop-color="#d3e4ed"/></linearGradient><linearGradient id="g" gradientUnits="userSpaceOnUse" y1="7670.91" x2="0" y2="7482.08"><stop stop-color="#9dbdd0"/><stop offset="1" stop-color="#dae9f2"/></linearGradient><linearGradient id="i" gradientUnits="userSpaceOnUse" y1="7672.06" x2="0" y2="7481.12"><stop stop-color="#9bbccf"/><stop offset="1" stop-color="#d7e6f0"/></linearGradient><linearGradient id="a" gradientUnits="userSpaceOnUse" y1="7665.19" x2="0" y2="7485.97"><stop stop-color="#a7c2d4"/><stop offset="1" stop-color="#eaf7ff"/></linearGradient><linearGradient id="S" gradientUnits="userSpaceOnUse" y1="7880.72" x2="0" y2="7609.98" xlink:href="#b" gradientTransform="matrix(1.1 0 0 1.1 -361.42 -694.87)"/><linearGradient id="Y" gradientUnits="userSpaceOnUse" y1="7871.24" x2="0" y2="7618.1" xlink:href="#c" gradientTransform="matrix(1.1 0 0 1.1 -361.42 -694.87)"/><linearGradient id="aa" gradientUnits="userSpaceOnUse" y1="7868.09" x2="0" y2="7620.16" xlink:href="#d" gradientTransform="matrix(1.1 0 0 1.1 -361.42 -694.87)"/><linearGradient id="Z" gradientUnits="userSpaceOnUse" y1="7869.67" x2="0" y2="7619.17" xlink:href="#e" gradientTransform="matrix(1.1 0 0 1.1 -361.42 -694.87)"/><linearGradient id="X" gradientUnits="userSpaceOnUse" y1="7872.82" x2="0" y2="7616.95" xlink:href="#f" gradientTransform="matrix(1.1 0 0 1.1 -361.42 -694.87)"/><linearGradient id="W" gradientUnits="userSpaceOnUse" y1="7874.4" x2="0" y2="7615.72" xlink:href="#g" gradientTransform="matrix(1.1 0 0 1.1 -361.42 -694.87)"/><linearGradient id="T" gradientUnits="userSpaceOnUse" y1="7879.14" x2="0" y2="7611.53" xlink:href="#h" gradientTransform="matrix(1.1 0 0 1.1 -361.42 -694.87)"/><linearGradient id="V" gradientUnits="userSpaceOnUse" y1="7875.98" x2="0" y2="7614.4" xlink:href="#i" gradientTransform="matrix(1.1 0 0 1.1 -361.42 -694.87)"/><linearGradient id="U" gradientUnits="userSpaceOnUse" y1="7877.56" x2="0" y2="7613.01" xlink:href="#j" gradientTransform="matrix(1.1 0 0 1.1 -361.42 -694.87)"/><linearGradient id="h" gradientUnits="userSpaceOnUse" y1="7674.34" x2="0" y2="7479.01"><stop stop-color="#97bacd"/><stop offset="1" stop-color="#d0e1eb"/></linearGradient><linearGradient id="b" gradientUnits="userSpaceOnUse" y1="7675.49" x2="0" y2="7477.87"><stop stop-color="#95b9cc"/><stop offset="1" stop-color="#cddee8"/></linearGradient><linearGradient id="o" gradientUnits="userSpaceOnUse" x1="3571.65" y1="7941.33" x2="3670.94" y2="8040.62"><stop stop-color="#fbfeff"/><stop offset="1" stop-color="#ebf7ff"/></linearGradient><linearGradient id="x" gradientUnits="userSpaceOnUse" x1="3386.96" y1="7882.19" x2="3474.3" y2="7969.54" xlink:href="#k" gradientTransform="matrix(1.1 0 0 1.1 -361.42 -694.87)"/><linearGradient id="w" gradientUnits="userSpaceOnUse" x1="3383.53" y1="7877.93" x2="3478" y2="7972.39" xlink:href="#l" gradientTransform="matrix(1.1 0 0 1.1 -361.42 -694.87)"/><linearGradient id="p" gradientUnits="userSpaceOnUse" x1="3565.87" y1="7934.13" x2="3677.17" y2="8045.43"><stop stop-color="#f7feff"/><stop offset="1" stop-color="#d6efff"/></linearGradient><linearGradient id="n" gradientUnits="userSpaceOnUse" x1="3560.08" y1="7926.92" x2="3683.39" y2="8050.24"><stop stop-color="#f3feff"/><stop offset="1" stop-color="#c2e7ff"/></linearGradient><linearGradient id="l" gradientUnits="userSpaceOnUse" x1="3542.73" y1="7905.31" x2="3702.08" y2="8064.66"><stop stop-color="#e6fcff"/><stop offset="1" stop-color="#85cfff"/></linearGradient><linearGradient id="m" gradientUnits="userSpaceOnUse" x1="3554.3" y1="7919.72" x2="3689.62" y2="8055.04"><stop stop-color="#eefdff"/><stop offset="1" stop-color="#aedfff"/></linearGradient><linearGradient id="k" gradientUnits="userSpaceOnUse" x1="3548.51" y1="7912.52" x2="3695.85" y2="8059.85"><stop stop-color="#eafdff"/><stop offset="1" stop-color="#99d7ff"/></linearGradient><linearGradient id="y" gradientUnits="userSpaceOnUse" x1="3390.39" y1="7886.46" x2="3470.61" y2="7966.69" xlink:href="#m" gradientTransform="matrix(1.1 0 0 1.1 -361.42 -694.87)"/><linearGradient id="z" gradientUnits="userSpaceOnUse" x1="3393.81" y1="7890.73" x2="3466.92" y2="7963.84" xlink:href="#n" gradientTransform="matrix(1.1 0 0 1.1 -361.42 -694.87)"/><linearGradient id="F" gradientUnits="userSpaceOnUse" x1="3795.88" y1="7872.38" x2="3889.79" y2="7966.3" xlink:href="#n" gradientTransform="matrix(1.1 0 0 1.1 -361.42 -694.87)"/><linearGradient id="H" gradientUnits="userSpaceOnUse" x1="3804.68" y1="7883.35" x2="3880.31" y2="7958.98" xlink:href="#o" gradientTransform="matrix(1.1 0 0 1.1 -361.42 -694.87)"/><linearGradient id="G" gradientUnits="userSpaceOnUse" x1="3800.28" y1="7877.87" x2="3885.05" y2="7962.64" xlink:href="#p" gradientTransform="matrix(1.1 0 0 1.1 -361.42 -694.87)"/><linearGradient id="E" gradientUnits="userSpaceOnUse" x1="3791.48" y1="7866.9" x2="3894.54" y2="7969.96" xlink:href="#m" gradientTransform="matrix(1.1 0 0 1.1 -361.42 -694.87)"/><linearGradient id="D" gradientUnits="userSpaceOnUse" x1="3787.07" y1="7861.41" x2="3899.28" y2="7973.62" xlink:href="#k" gradientTransform="matrix(1.1 0 0 1.1 -361.42 -694.87)"/><linearGradient id="A" gradientUnits="userSpaceOnUse" x1="3397.24" y1="7895" x2="3463.23" y2="7960.99" xlink:href="#p" gradientTransform="matrix(1.1 0 0 1.1 -361.42 -694.87)"/><linearGradient id="C" gradientUnits="userSpaceOnUse" x1="3782.67" y1="7855.93" x2="3904.02" y2="7977.28" xlink:href="#l" gradientTransform="matrix(1.1 0 0 1.1 -361.42 -694.87)"/><linearGradient id="B" gradientUnits="userSpaceOnUse" x1="3400.66" y1="7899.26" x2="3459.54" y2="7958.14" xlink:href="#o" gradientTransform="matrix(1.1 0 0 1.1 -361.42 -694.87)"/><linearGradient xlink:href="#l" id="q" gradientUnits="userSpaceOnUse" x1="3542.73" y1="7905.31" x2="3702.08" y2="8064.66" gradientTransform="matrix(1.1 0 0 1.1 -361.42 -694.87)"/><linearGradient xlink:href="#k" id="r" gradientUnits="userSpaceOnUse" x1="3548.51" y1="7912.52" x2="3695.85" y2="8059.85" gradientTransform="matrix(1.1 0 0 1.1 -361.42 -694.87)"/><linearGradient xlink:href="#m" id="s" gradientUnits="userSpaceOnUse" x1="3554.3" y1="7919.72" x2="3689.62" y2="8055.04" gradientTransform="matrix(1.1 0 0 1.1 -361.42 -694.87)"/><linearGradient xlink:href="#n" id="t" gradientUnits="userSpaceOnUse" x1="3560.08" y1="7926.92" x2="3683.39" y2="8050.24" gradientTransform="matrix(1.1 0 0 1.1 -361.42 -694.87)"/><linearGradient xlink:href="#p" id="u" gradientUnits="userSpaceOnUse" x1="3565.87" y1="7934.13" x2="3677.17" y2="8045.43" gradientTransform="matrix(1.1 0 0 1.1 -361.42 -694.87)"/><linearGradient xlink:href="#o" id="v" gradientUnits="userSpaceOnUse" x1="3571.65" y1="7941.33" x2="3670.94" y2="8040.62" gradientTransform="matrix(1.1 0 0 1.1 -361.42 -694.87)"/><linearGradient xlink:href="#b" id="I" gradientUnits="userSpaceOnUse" y1="7675.49" x2="0" y2="7477.87" gradientTransform="matrix(1.1 0 0 1.1 -361.42 -694.87)"/><linearGradient xlink:href="#h" id="J" gradientUnits="userSpaceOnUse" y1="7674.34" x2="0" y2="7479.01" gradientTransform="matrix(1.1 0 0 1.1 -361.42 -694.87)"/><linearGradient xlink:href="#j" id="K" gradientUnits="userSpaceOnUse" y1="7673.2" x2="0" y2="7480.09" gradientTransform="matrix(1.1 0 0 1.1 -361.42 -694.87)"/><linearGradient xlink:href="#i" id="L" gradientUnits="userSpaceOnUse" y1="7672.06" x2="0" y2="7481.12" gradientTransform="matrix(1.1 0 0 1.1 -361.42 -694.87)"/><linearGradient xlink:href="#g" id="M" gradientUnits="userSpaceOnUse" y1="7670.91" x2="0" y2="7482.08" gradientTransform="matrix(1.1 0 0 1.1 -361.42 -694.87)"/><linearGradient xlink:href="#f" id="N" gradientUnits="userSpaceOnUse" y1="7669.77" x2="0" y2="7482.99" gradientTransform="matrix(1.1 0 0 1.1 -361.42 -694.87)"/><linearGradient xlink:href="#c" id="O" gradientUnits="userSpaceOnUse" y1="7668.62" x2="0" y2="7483.83" gradientTransform="matrix(1.1 0 0 1.1 -361.42 -694.87)"/><linearGradient xlink:href="#e" id="P" gradientUnits="userSpaceOnUse" y1="7667.48" x2="0" y2="7484.61" gradientTransform="matrix(1.1 0 0 1.1 -361.42 -694.87)"/><linearGradient xlink:href="#d" id="Q" gradientUnits="userSpaceOnUse" y1="7666.34" x2="0" y2="7485.32" gradientTransform="matrix(1.1 0 0 1.1 -361.42 -694.87)"/><linearGradient xlink:href="#a" id="R" gradientUnits="userSpaceOnUse" y1="7665.19" x2="0" y2="7485.97" gradientTransform="matrix(1.1 0 0 1.1 -361.42 -694.87)"/></defs><path d="M3686.03 8241.53h-64.24V8177.4l-49.39 28.49-6.16 3.63-3.63-6.16-24.97-43.34-3.52-6.16 6.05-3.63 49.39-28.38-49.39-28.49-6.05-3.63 3.52-6.16 24.97-43.34 3.63-6.16 6.16 3.52 49.39 28.49v-64.02h64.24v64.02l49.39-28.49 6.16-3.52 3.52 6.16 24.97 43.34 3.52 6.16-6.05 3.63-49.28 28.49 49.28 28.38 6.05 3.63-3.52 6.16-24.97 43.34-3.52 6.16-6.16-3.63-49.39-28.49V8241.53" fill="#9cb1bf"/><path d="M3674.15 8227.23h-64.24v-64.13l-49.39 28.49-6.16 3.52-3.52-6.16-25.08-43.34-3.63-6.27 6.16-3.52 49.39-28.38-49.39-28.49-6.16-3.63 3.63-6.16 25.08-43.34 3.52-6.16 6.16 3.52 49.39 28.6V7987.65h64.24V8051.78l49.39-28.6 6.16-3.52 3.52 6.16 25.08 43.34 3.52 6.16-6.16 3.63-49.28 28.49 49.28 28.38 6.16 3.52-3.52 6.27-25.08 43.34-3.52 6.16-6.16-3.52-49.39-28.49v64.13" fill="#78b5db"/><path d="M3752.14 8072.79l-25.08-43.45-60.06 34.65v-69.3h-50.05v69.3l-60.06-34.65-24.97 43.45 59.95 34.65-59.95 34.65 24.97 43.34 60.06-34.65v69.3H3667v-69.3l60.06 34.65 25.08-43.34-60.06-34.65z" fill="url(#q)"/><path d="M3742.13 8075.21l-23.21-40.04-55.44 32.01v-64.13h-46.31v64.13l-55.44-32.01-23.1 40.04 55.44 32.12-55.44 32.01 23.1 40.15 55.44-32.01v64.02h46.31v-64.02l55.44 32.01 23.21-40.15-55.44-32.01z" fill="url(#r)"/><path d="M3732.12 8077.74l-21.23-36.85-50.93 29.48v-58.96h-42.46v58.96l-51.04-29.48-21.12 36.85 50.82 29.48-50.82 29.48 21.12 36.85 51.04-29.48v58.96h42.46v-58.96l50.93 29.48 21.23-36.85-50.93-29.48z" fill="url(#s)"/><path d="M3722.11 8080.27l-19.36-33.66-46.42 26.84v-53.68h-38.61v53.68l-46.42-26.84-19.36 33.66 46.42 26.84-46.42 26.84 19.36 33.66 46.42-26.84v53.68h38.61v-53.68l46.42 26.84 19.36-33.66-46.42-26.84z" fill="url(#t)"/><path d="M3712.1 8082.8l-17.49-30.47-41.8 24.31v-48.51h-34.87v48.51l-41.8-24.31-17.49 30.47 41.8 24.2-41.8 24.31 17.49 30.36 41.8-24.31v48.51h34.87v-48.51l41.8 24.31 17.49-30.36-41.8-24.31z" fill="url(#u)"/><path d="M3702.09 8085.22l-15.51-27.06-37.29 21.67v-43.34h-31.13v43.34l-37.29-21.67-15.51 27.06 37.18 21.67-37.18 21.67 15.51 27.17 37.29-21.67v43.34h31.13v-43.34l37.29 21.67 15.51-27.17-37.29-21.67z" fill="url(#v)"/><path d="M3692.08 8087.75l-13.64-23.87-32.78 19.03v-38.06h-27.28v38.06l-32.67-19.03-13.64 23.87 32.67 19.03-32.67 19.14 13.64 23.87 32.67-19.03v38.06h27.28v-38.06l32.78 19.03 13.64-23.87-32.78-19.14z" fill="#fff"/><path d="M3449.64 8113.49H3411.58v-38.06l-29.26 16.94-3.74 2.09-2.09-3.63-14.85-25.74-2.09-3.63 3.63-2.09 29.26-16.83-29.26-16.94-3.63-2.09 2.09-3.63 14.85-25.74 2.09-3.74 3.74 2.2 29.26 16.83v-37.95H3449.64v37.95l29.26-16.83 3.63-2.2 2.09 3.74 14.85 25.74 2.09 3.63-3.63 2.09-29.15 16.94 29.15 16.83 3.63 2.09-2.09 3.63-14.85 25.74-2.09 3.63-3.63-2.09-29.26-16.94v38.06" fill="#9cb1bf"/><path d="M3442.6 8104.91H3404.54v-37.95l-29.26 16.83-3.63 2.2-2.2-3.63-14.85-25.74-2.09-3.74 3.63-2.09 29.26-16.83-29.26-16.94-3.63-2.09 2.09-3.63 14.85-25.74 2.2-3.63 3.63 2.09 29.26 16.94v-38.06H3442.6v38.06l29.26-16.94 3.63-2.09 2.2 3.63 14.74 25.74 2.2 3.63-3.74 2.09-29.15 16.94 29.15 16.83 3.74 2.09-2.2 3.74-14.74 25.74-2.2 3.63-3.63-2.2-29.26-16.83v37.95" fill="#78b5db"/><path d="M3488.8 8013.39l-14.85-25.74-35.53 20.57v-41.03h-29.7v41.03l-35.64-20.57-14.74 25.74 35.53 20.57-35.53 20.46 14.74 25.74 35.64-20.46v41.03h29.7v-41.03l35.53 20.46 14.85-25.74-35.53-20.46z" fill="url(#w)"/><path d="M3482.86 8014.93l-13.64-23.87-32.89 19.03v-37.95h-27.5v37.95l-32.89-19.03-13.64 23.87 32.78 18.92-32.78 19.03 13.64 23.76 32.89-18.92v37.95h27.5v-37.95l32.89 18.92 13.64-23.76-32.89-19.03z" fill="url(#x)"/><path d="M3476.92 8016.36l-12.54-21.89-30.14 17.49v-34.87h-25.3v34.87l-30.14-17.49-12.54 21.89 30.14 17.49-30.14 17.38 12.54 21.89 30.14-17.38v34.87h25.3v-34.87l30.14 17.38 12.54-21.89-30.14-17.38z" fill="url(#y)"/><path d="M3471.09 8017.9l-11.55-20.02-27.5 15.95v-31.79h-22.88v31.79l-27.5-15.95-11.44 20.02 27.39 15.84-27.39 15.95 11.44 19.91 27.5-15.84v31.79h22.88v-31.79l27.5 15.84 11.55-19.91-27.5-15.95z" fill="url(#z)"/><path d="M3465.15 8019.33l-10.34-18.04-24.86 14.41v-28.71h-20.68v28.71l-24.75-14.41-10.34 18.04 24.75 14.41-24.75 14.41 10.34 17.93 24.75-14.3v28.71h20.68v-28.71l24.86 14.3 10.34-17.93-24.86-14.41z" fill="url(#A)"/><path d="M3459.21 8020.76l-9.24-16.06-22.11 12.87v-25.63h-18.48v25.63l-22.11-12.87-9.13 16.06 22 12.87-22 12.87 9.13 16.06 22.11-12.76v25.63h18.48v-25.63l22.11 12.76 9.24-16.06-22.11-12.87z" fill="url(#B)"/><path d="M3453.27 8022.3l-8.14-14.19-19.36 11.33v-22.55h-16.17v22.55l-19.47-11.33-8.03 14.19 19.36 11.33-19.36 11.33 8.03 14.08 19.47-11.22v22.55h16.17v-22.55l19.36 11.22 8.14-14.08-19.36-11.33z" fill="#fff"/><path d="M3914.06 8129.88h-48.95v-48.84l-37.62 21.78-4.73 2.64-2.64-4.73-19.14-33-2.64-4.62 4.62-2.75 37.62-21.67-37.62-21.67-4.62-2.75 2.64-4.73 19.14-33 2.64-4.73 4.73 2.75 37.62 21.67v-48.84h48.95v48.84l37.62-21.67 4.73-2.75 2.64 4.73 19.14 33 2.64 4.73-4.73 2.75-37.51 21.67 37.51 21.67 4.73 2.75-2.64 4.62-19.14 33-2.64 4.73-4.73-2.64-37.62-21.78v48.84" fill="#9cb1bf"/><path d="M3905.04 8118.88h-48.95v-48.84l-37.62 21.78-4.73 2.64-2.64-4.62-19.14-33-2.64-4.73 4.62-2.75 37.62-21.67-37.62-21.67-4.62-2.75 2.64-4.62 19.14-33.11 2.64-4.73 4.73 2.75 37.62 21.67V7936.5h48.95V7985.23l37.62-21.67 4.73-2.75 2.64 4.73 19.03 33.11 2.75 4.62-4.73 2.75-37.51 21.67 37.51 21.67 4.73 2.75-2.75 4.73-19.03 33-2.64 4.62-4.73-2.64-37.62-21.78v48.84" fill="#78b5db"/><path d="M3964.44 8001.29l-19.14-33-45.65 26.4v-52.8h-38.17v52.8l-45.65-26.4-19.14 33 45.76 26.4-45.76 26.4 19.14 33 45.65-26.4v52.8h38.17v-52.8l45.65 26.4 19.14-33-45.76-26.4z" fill="url(#C)"/><path d="M3956.85 8003.16l-17.71-30.47-42.24 24.31v-48.73h-35.2V7997l-42.24-24.31-17.71 30.47 42.24 24.42-42.24 24.42 17.71 30.58 42.24-24.42V8107h35.2v-48.84l42.24 24.42 17.71-30.58-42.24-24.42z" fill="url(#D)"/><path d="M3949.15 8005.14l-16.17-28.16-38.72 22.44v-44.88h-32.45v44.88l-38.72-22.44-16.17 28.16 38.72 22.44-38.72 22.44 16.17 28.05 38.72-22.44v44.88h32.45v-44.88l38.72 22.44 16.17-28.05-38.72-22.44z" fill="url(#E)"/><path d="M3941.56 8007.01l-14.74-25.63-35.31 20.46v-40.92h-29.48v40.92l-35.31-20.46-14.74 25.63 35.31 20.46-35.31 20.46 14.74 25.63 35.31-20.46v40.92h29.48v-40.92l35.31 20.46 14.74-25.63-35.31-20.46z" fill="url(#F)"/><path d="M3933.97 8008.88l-13.31-23.1-31.9 18.48v-36.96h-26.51v36.96l-31.9-18.48-13.31 23.1 31.9 18.48-31.9 18.48 13.31 23.21 31.9-18.48v36.96h26.51v-36.96l31.9 18.48 13.31-23.21-31.9-18.48z" fill="url(#G)"/><path d="M3926.38 8010.75l-11.88-20.57-28.38 16.5v-33h-23.76v33l-28.38-16.5-11.77 20.57 28.38 16.61-28.38 16.5 11.77 20.68 28.38-16.5v33h23.76v-33l28.38 16.5 11.77-20.68-28.27-16.5z" fill="url(#H)"/><path d="M3918.68 8012.73l-10.34-18.15-24.97 14.41v-28.93h-20.79v28.93l-24.97-14.41-10.34 18.15 24.86 14.52-24.86 14.52 10.34 18.15 24.97-14.41v29.04h20.79v-29.04l24.97 14.41 10.34-18.15-24.86-14.52z" fill="#fff"/><path d="M4024.61 7640.05c-4.07 0-7.92.44-11.77 1.21-2.2-25.3-23.21-45.1-49.06-45.1-5.61 0-10.89 1.1-15.84 2.86-10.45-46.86-52.03-81.84-102.08-81.84-41.69 0-77.55 24.64-94.38 59.95-9.46-8.36-21.78-13.64-35.42-13.64-29.04 0-52.47 22.99-53.68 51.59-11.22-6.27-23.98-10.23-37.84-10.23-42.9 0-77.77 34.87-77.77 77.77s34.87 77.77 77.77 77.77h400.07c33.22 0 60.17-26.95 60.17-60.17.11-33.22-26.84-60.17-60.17-60.17" fill="#9cb1bf"/><path d="M4017.24 7627.84c-3.96 0-7.92.44-11.77 1.21-2.2-25.3-23.21-45.1-49.06-45.1-5.61 0-10.89 1.1-15.84 2.86-10.45-46.86-52.03-81.84-102.08-81.84-41.69 0-77.44 24.64-94.27 60.06-9.46-8.36-21.78-13.64-35.42-13.64-28.93 0-52.47 22.99-53.68 51.59-11.22-6.27-24.09-10.23-37.84-10.23-42.9 0-77.77 34.76-77.77 77.77s34.87 77.66 77.77 77.66h400.07c33.22 0 60.28-26.95 60.28-60.17-.22-33.22-27.17-60.17-60.39-60.17" fill="url(#I)"/><path d="M3708.91 7552.49c13.53 0 25.52 5.39 34.54 13.31 1.98-4.18 5.5-7.15 8.14-11 2.64-3.85 6.16-9.02 9.35-12.54 18.26-21.45 44.99-35.09 74.91-35.86 8.58-.22 16.94.66 25.08 2.42 38.17 8.47 68.42 38.28 77.66 76.45 4.62-.99 9.46-1.43 14.63-.88 2.64 0 5.61 1.65 8.03 2.09 2.42.44 6.16.66 8.47 1.43 2.75.66 5.28 1.54 7.81 2.75 11.55 5.39 20.68 15.73 24.31 28.49.77 2.31 1.43 6.16 1.87 8.69.11.88.55 1.54.66 2.42 1.65-.33 4.4-.77 6.05-.99 2.09-.22 4.29-.44 6.38-.44 17.71 0 33.55 8.47 43.23 21.12s13.31 28.49 10.34 43.23c0 29.48-30.69 53.46-60.17 53.46h-383.9c-38.17 0-77.77-30.91-77.77-69.08-3.96-19.14.55-39.71 12.98-56.21 12.54-16.61 33-27.61 56.1-27.61 10.56 0 20.57 2.31 29.7 6.38 2.53 1.1 6.05 2.86 8.47 4.29.11-2.09.99-3.74 1.32-5.72.88-5.06 2.64-11.88 4.95-16.28 8.14-17.49 26.07-29.92 46.86-29.92" fill="url(#J)"/><path d="M3709.24 7553.81c13.42 0 25.08 5.39 33.66 12.98 1.76-3.74 6.27-5.06 8.47-8.36 2.31-3.41 6.27-9.68 9.02-12.65 17.49-22 43.56-36.19 72.93-37.73 8.47-.44 16.72.22 24.75 1.76 38.06 7.37 68.64 36.41 78.43 74.14 4.29-.22 8.8 0 13.42 1.1 2.31 0 5.17 2.97 7.37 3.3 2.2.44 6.82 0 8.91.77 2.97.44 5.72 1.1 8.36 2.09 12.54 4.73 22.44 15.73 25.85 29.26.66 2.09 1.43 7.04 1.76 9.13.11.77.88 1.32.99 2.09 1.43-.33 4.95-.88 6.38-1.1 2.2-.33 4.51-.44 6.82-.44 18.81 0 35.31 10.12 43.78 24.64 8.47 14.41 8.91 31.02 3.08 44 0 25.85-34.32 46.75-60.17 46.75h-367.73c-33.44 0-77.66-27.06-77.66-60.39-7.92-16.72-7.7-38.39 3.3-57.53 11-19.03 32.56-32.45 57.2-32.45 10.56 0 20.68 2.42 30.03 6.71 2.2.99 6.49 3.19 8.58 4.4.11-1.87 1.65-2.86 1.98-4.62.77-4.4 2.42-12.76 4.4-16.61 7.15-18.26 25.08-31.24 46.09-31.24" fill="url(#K)"/><path d="M3709.46 7555.02c13.31 0 24.64 5.5 32.78 12.65 1.54-3.19 6.93-2.86 8.91-5.83 1.98-2.86 6.27-10.23 8.58-12.76 16.72-22.44 42.13-37.29 71.06-39.6 8.25-.66 16.5-.22 24.53 1.1 37.84 6.38 68.97 34.65 79.31 71.83 3.96.44 8.03 1.43 12.1 3.19 1.98 0 4.84 4.29 6.71 4.62 1.87.33 7.59-.55 9.24.11 3.08.11 6.05.66 8.8 1.54 13.53 4.07 24.31 15.62 27.5 30.03.55 1.76 1.32 7.81 1.65 9.68.11.66 1.21.99 1.32 1.65 1.21-.22 5.5-1.1 6.71-1.21 2.31-.33 4.73-.55 7.15-.55 19.91 0 37.07 11.77 44.33 28.05 7.26 16.28 4.62 33.55-4.18 44.66 0 22.11-37.95 40.04-60.17 40.04h-351.56c-28.6 0-77.66-23.21-77.66-51.81-11.99-14.3-15.84-37.18-6.49-58.74 9.35-21.56 32.12-37.29 58.3-37.29 10.56 0 20.79 2.53 30.25 7.04 1.87.77 6.93 3.52 8.69 4.51.11-1.54 2.42-1.87 2.64-3.41.66-3.74 2.2-13.53 3.85-16.83 6.49-18.92 24.42-32.67 45.65-32.67" fill="url(#L)"/><path d="M3709.68 7556.34c13.2 0 24.2 5.5 31.9 12.43 1.21-2.64 7.59-.77 9.24-3.19 1.65-2.42 6.27-10.78 8.25-12.87 15.95-22.99 40.7-38.39 69.08-41.36 8.14-.88 16.28-.66 24.2.44 37.73 5.28 69.19 32.78 80.19 69.52 3.63 1.21 7.26 2.86 10.89 5.17 1.65 0 4.51 5.61 6.05 5.94 1.54.33 8.25-1.21 9.68-.66 3.3-.11 6.38.22 9.35.88 14.52 3.41 26.07 15.51 29.04 30.8.44 1.43 1.32 8.58 1.54 10.12.11.55 1.54.77 1.65 1.32 1.1-.22 6.05-1.21 7.15-1.32 2.42-.33 4.95-.66 7.48-.66 21.01 0 38.94 13.53 44.99 31.57 6.05 18.04.22 36.08-11.44 45.32 0 18.48-41.69 33.44-60.06 33.44h-335.39c-23.87 0-77.66-19.25-77.66-43.12-15.95-11.99-24.09-35.97-16.28-60.06 7.81-24.09 31.57-42.13 59.51-42.13 10.67 0 20.9 2.53 30.47 7.37 1.65.66 7.37 3.85 8.8 4.73.11-1.32 3.08-.99 3.3-2.2.55-3.19 1.87-14.41 3.41-17.16 5.28-19.91 23.32-34.32 44.66-34.32" fill="url(#M)"/><path d="M3709.9 7557.55c13.2 0 23.65 5.61 31.02 12.1.99-2.09 8.25 1.32 9.57-.55 1.32-1.98 6.27-11.33 7.81-13.09 15.07-23.54 39.38-39.49 67.21-43.23 7.92-1.1 15.95-1.1 23.98-.22 37.62 4.18 69.41 31.02 80.96 67.21 3.3 1.87 6.49 4.18 9.68 7.15 1.32 0 4.18 7.04 5.39 7.26 1.21.22 8.91-1.76 10.12-1.32 3.52-.44 6.71-.33 9.9.33 15.51 2.75 27.94 15.4 30.69 31.57.33 1.21 1.32 9.35 1.43 10.67.11.44 1.87.44 1.98.88.88-.22 6.6-1.32 7.48-1.43 2.53-.44 5.17-.66 7.92-.66 22.11 0 40.7 15.18 45.54 34.98 4.84 19.8-4.07 38.61-18.81 46.09 0 14.74-45.32 26.73-60.06 26.73h-319.22c-19.03 0-77.55-15.4-77.55-34.54-19.91-9.57-32.34-34.76-26.07-61.27 6.27-26.62 31.13-47.08 60.61-47.08 10.67 0 21.01 2.64 30.69 7.59 1.32.55 7.81 4.18 8.91 4.84 0-.99 3.74 0 3.85-.99.44-2.53 1.65-15.29 2.86-17.38 4.51-20.46 22.66-35.64 44.11-35.64" fill="url(#N)"/><path d="M3710.23 7558.87c13.09 0 23.21 5.72 30.14 11.77.77-1.54 9.02 3.52 10.01 1.98.99-1.43 6.27-11.88 7.48-13.2 14.3-24.09 37.95-40.59 65.23-45.1 7.81-1.32 15.73-1.65 23.65-.88 37.51 3.19 69.74 29.15 81.84 64.9 2.97 2.64 5.72 5.61 8.36 9.13.99 0 3.85 8.36 4.73 8.47.88.22 9.57-2.31 10.45-2.09 3.74-.66 7.15-.77 10.34-.33 16.5 2.09 29.81 15.29 32.23 32.45.33.88 1.21 10.23 1.32 11.11 0 .33 2.2.22 2.31.55.66-.11 7.15-1.43 7.81-1.54 2.64-.44 5.39-.77 8.25-.77 23.21 0 42.46 16.94 46.09 38.5 3.63 21.56-8.47 41.14-26.07 46.75 0 11.11-48.95 20.02-60.06 20.02h-303.05c-14.3 0-77.55-11.55-77.55-25.85-23.87-7.15-40.48-33.44-35.75-62.59 4.73-29.15 30.69-51.92 61.71-51.92 10.67 0 21.12 2.75 30.91 7.92.99.44 8.14 4.51 9.13 4.95 0-.77 4.4.88 4.51.11.33-1.87 1.43-16.06 2.31-17.71 3.74-20.79 21.89-36.63 43.67-36.63" fill="url(#O)"/><path d="M3710.45 7560.08c12.98 0 22.77 5.72 29.26 11.44.55-1.1 9.68 5.61 10.34 4.62.66-.99 6.27-12.43 7.04-13.31 13.53-24.64 36.52-41.69 63.36-46.97a87.609 87.609 0 0 1 23.43-1.54c37.4 2.09 69.96 27.28 82.72 62.59 2.64 3.41 4.95 7.04 7.15 11.11.66 0 3.52 9.68 4.07 9.79.66.11 10.34-2.97 10.89-2.75 3.85-.88 7.48-1.21 10.89-.99 17.38 1.43 31.57 15.18 33.88 33.22.22.55 1.21 11 1.21 11.55 0 .22 2.64-.11 2.64.11.44-.11 7.7-1.54 8.14-1.54 2.75-.44 5.61-.77 8.58-.77 24.2 0 44.33 18.59 46.75 41.91 2.42 23.32-12.76 43.78-33.33 47.41 0 7.37-52.58 13.31-60.06 13.31h-286.88c-9.57 0-77.55-7.7-77.55-17.27-27.94-4.73-48.73-32.23-45.54-63.8 3.08-31.57 30.14-56.76 62.81-56.76 10.78 0 21.23 2.86 31.13 8.25.66.22 8.58 4.73 9.24 5.17 0-.55 5.06 1.87 5.17 1.32.22-1.21 1.21-16.94 1.76-18.04 2.75-21.45 21.01-38.06 42.9-38.06" fill="url(#P)"/><path d="M3710.67 7561.4c12.87 0 22.33 5.83 28.38 11.11.22-.55 10.34 7.7 10.67 7.26.33-.44 6.27-12.98 6.71-13.42 12.76-25.19 35.09-42.79 61.49-48.84 7.48-1.76 15.29-2.53 23.1-2.31 37.29 1.1 70.29 25.52 83.49 60.28a73.99 73.99 0 0 1 5.83 13.09c.33 0 3.08 11 3.41 11.11.33.11 11-3.52 11.33-3.41 4.07-1.21 7.81-1.76 11.44-1.54 18.37.66 33.44 15.07 35.42 33.99.11.33 1.1 11.77 1.21 12.1 0 .11 2.97-.33 2.97-.22.22 0 8.25-1.65 8.47-1.65 2.86-.55 5.94-.88 8.91-.88 25.3 0 46.09 20.24 47.3 45.43 1.21 25.08-17.16 46.31-40.59 48.07 0 3.74-56.32 6.71-59.95 6.71h-270.6c-4.73 0-77.55-3.85-77.55-8.69-31.9-2.42-56.87-31.02-55.33-65.12 1.54-34.1 29.7-61.6 64.02-61.6 10.78 0 21.34 2.86 31.35 8.58.33.11 9.02 5.06 9.35 5.28 0-.22 5.72 2.75 5.83 2.53.11-.66.99-17.71 1.32-18.26 1.76-22.44 19.91-39.6 42.02-39.6" fill="url(#Q)"/><path d="M4013.17 7736.85h-391.93c-35.86 0-65.12-29.81-65.12-66.44 0-36.63 29.26-66.44 65.12-66.44 10.78 0 21.45 2.97 31.57 8.8l15.84 9.13.77-18.59c.88-22.77 19.14-40.7 41.47-40.7 12.76 0 21.89 5.83 27.39 10.89l11.11 9.9 6.38-13.53c15.29-33 46.86-53.57 82.39-53.57 42.35 0 79.75 30.69 88.99 73.04l2.75 12.43 11.66-4.18c4.29-1.43 8.14-2.2 11.88-2.2 19.36 0 35.2 14.96 37.07 34.76l1.1 12.54 12.1-2.42c3.08-.55 6.16-.99 9.35-.99 26.4 0 47.96 22 47.96 48.84 0 26.84-21.45 48.73-47.85 48.73" fill="url(#R)"/><path d="M3952.23 7824.08c-5.5 0-10.89.55-16.06 1.65-3.08-34.65-31.9-61.71-67.21-61.71-7.7 0-14.85 1.54-21.67 3.85-14.3-64.13-71.39-112.09-139.81-112.09-57.2 0-106.15 33.77-129.25 82.17-12.98-11.44-29.92-18.7-48.62-18.7-39.71 0-71.83 31.46-73.59 70.73-15.4-8.58-33-13.97-51.92-13.97-58.74 0-106.48 47.63-106.48 106.59 0 58.85 47.74 106.48 106.48 106.48h548.02c45.54 0 82.5-36.96 82.5-82.39 0-45.76-36.85-82.61-82.39-82.61" fill="#9cb1bf"/><path d="M3940.13 7809.01c-5.5 0-10.89.55-16.06 1.65-3.08-34.54-31.9-61.71-67.21-61.71-7.59 0-14.85 1.54-21.67 3.85-14.3-64.13-71.39-112.09-139.81-112.09-57.2 0-106.15 33.77-129.25 82.17-12.98-11.44-29.92-18.59-48.62-18.59-39.71 0-71.83 31.46-73.59 70.73-15.4-8.69-32.89-14.08-51.92-14.08-58.85 0-106.48 47.74-106.48 106.48 0 58.85 47.63 106.48 106.48 106.48h548.02c45.54 0 82.5-36.96 82.5-82.5.11-45.54-36.85-82.39-82.39-82.39" fill="url(#S)"/><path d="M3517.84 7705.94c18.59 0 34.98 7.26 47.41 18.26 2.75-5.83 7.59-9.79 11.11-15.07 3.63-5.28 8.47-12.43 12.76-17.16 25.08-29.26 61.6-48.07 102.63-49.06 11.33-.33 22.44.77 33.11 3.08 52.8 11.22 94.71 52.36 107.47 105.05 6.38-1.32 12.98-1.98 19.91-1.21 3.63 0 7.59 2.2 11 2.86 3.41.55 8.47.88 11.66 1.98 3.74.88 7.37 2.2 10.78 3.74 15.95 7.37 28.27 21.67 33.33 39.05 1.1 3.19 1.98 8.47 2.53 11.88.22 1.1.99 2.09 1.1 3.3 2.09-.44 5.5-.99 7.7-1.21 3.08-.33 6.16-.55 9.24-.55 24.2 0 45.87 11.55 59.07 28.93 13.31 17.38 18.26 39.05 14.19 59.29 0 40.48-44.22 73.26-84.7 73.26h-535.37c-57.75 0-104.61-46.86-104.61-104.83 0-57.86 46.86-104.83 104.61-104.83 14.52 0 28.16 3.19 40.81 8.8 3.52 1.43 8.25 3.96 11.55 5.83.11-2.86 1.43-5.17 1.87-7.92 1.21-6.93 3.63-16.28 6.71-22.22 11.11-24.42 35.64-41.25 64.13-41.25" fill="url(#T)"/><path d="M3518.17 7707.59c18.37 0 34.32 7.37 46.09 17.82 2.42-5.06 8.58-6.93 11.66-11.55 3.08-4.62 8.47-13.2 12.32-17.38 23.98-30.03 59.62-49.5 99.99-51.59 11.11-.55 22.22.22 32.89 2.2 52.58 9.9 95.04 49.83 108.46 101.86 5.94-.33 11.99 0 18.26 1.54 3.19 0 7.15 4.07 10.12 4.62 2.97.55 9.35.11 12.21 1.1 4.07.55 7.81 1.54 11.44 2.86 17.16 6.49 30.8 21.56 35.42 40.15.88 2.86 1.98 9.57 2.42 12.54.11.99 1.54 1.76 1.65 2.75 1.87-.33 6.16-1.1 8.03-1.32 3.19-.44 6.38-.66 9.68-.66 25.74 0 48.29 13.86 59.95 33.66 11.66 19.8 12.32 42.46 4.18 60.17 0 35.42-51.59 64.13-87.01 64.13h-522.72c-56.65 0-102.63-46.09-102.63-103.07 0-56.87 45.98-103.07 102.63-103.07 14.52 0 28.38 3.3 41.14 9.24 3.08 1.32 8.91 4.4 11.77 6.05.11-2.53 2.31-3.85 2.75-6.38 1.1-6.05 3.3-17.38 6.05-22.66 9.9-25.08 34.43-43.01 63.25-43.01" fill="url(#U)"/><path d="M3518.5 7709.35c18.26 0 33.66 7.48 44.88 17.38 2.09-4.29 9.46-3.96 12.21-7.92 2.64-3.96 8.58-13.97 11.77-17.49 22.88-30.8 57.75-51.04 97.35-54.12 11-.88 21.89-.44 32.67 1.32 52.36 8.47 95.26 47.41 109.56 98.67 5.39.66 11 1.87 16.5 4.18 2.75 0 6.6 5.83 9.24 6.38 2.53.44 10.34-.77 12.76.11 4.29.11 8.25.88 12.21 2.09 18.59 5.61 33.33 21.34 37.62 41.25.77 2.42 1.87 10.67 2.2 13.2.11.88 2.2 1.32 2.31 2.2 1.54-.33 6.82-1.32 8.36-1.43 3.3-.44 6.71-.77 10.12-.77 27.28 0 50.82 16.17 60.72 38.39 9.9 22.22 6.27 45.98-5.72 61.16 0 30.36-58.85 55-89.21 55h-510.07c-55.55 0-100.76-45.32-100.76-101.31 0-55.88 45.1-101.31 100.76-101.31 14.52 0 28.49 3.41 41.47 9.68 2.64 1.1 9.46 4.84 11.88 6.16.11-2.2 3.3-2.64 3.63-4.73.88-5.17 2.97-18.48 5.28-22.99 8.58-26.29 33.22-45.1 62.26-45.1" fill="url(#V)"/><path d="M3518.83 7711.11c18.15 0 33.11 7.59 43.67 16.94 1.76-3.63 10.45-1.1 12.65-4.4 2.2-3.3 8.58-14.74 11.22-17.71 21.78-31.57 55.88-52.58 94.71-56.65 10.78-1.21 21.67-.99 32.34.44 52.14 7.04 95.48 44.88 110.55 95.48 4.95 1.65 9.9 3.74 14.85 6.93 2.31 0 6.16 7.7 8.25 8.14 2.09.33 11.33-1.54 13.31-.88 4.51-.22 8.8.22 12.87 1.21 19.91 4.73 35.75 21.23 39.82 42.24.66 1.98 1.76 11.77 2.09 13.86.11.66 2.86.88 2.86 1.65 1.32-.22 7.37-1.43 8.8-1.54 3.41-.55 7.04-.88 10.56-.88 28.71 0 53.24 18.48 61.49 43.12 8.25 24.64.33 49.5-15.73 62.15 0 25.3-66.22 45.76-91.52 45.76H3394.2c-54.56 0-98.78-44.55-98.78-99.55s44.33-99.55 98.78-99.55c14.63 0 28.6 3.52 41.69 10.01 2.2.88 10.01 5.17 12.1 6.38.11-1.76 4.18-1.32 4.51-3.08.77-4.29 2.64-19.69 4.62-23.43 7.81-26.95 32.45-46.64 61.71-46.64" fill="url(#W)"/><path d="M3519.16 7712.87c17.93 0 32.45 7.59 42.46 16.5 1.32-2.86 11.44 1.87 13.2-.77 1.76-2.64 8.58-15.51 10.78-17.93 20.68-32.23 53.9-54.12 92.18-59.18 10.67-1.43 21.45-1.65 32.12-.44 51.92 5.61 95.81 42.46 111.65 92.29 4.51 2.64 8.91 5.72 13.09 9.57 1.76 0 5.61 9.57 7.37 9.9 1.65.33 12.21-2.31 13.86-1.76 4.84-.55 9.24-.44 13.53.33 21.23 3.85 38.28 21.12 42.02 43.34.55 1.65 1.76 12.76 1.98 14.52.11.55 3.52.44 3.52 1.1 1.1-.22 8.03-1.54 9.13-1.65 3.63-.55 7.26-.99 11-.99 30.25 0 55.66 20.79 62.37 47.96 6.6 27.06-5.61 52.91-25.74 63.03 0 20.24-73.48 36.63-93.72 36.63h-484.77c-53.46 0-96.91-43.78-96.91-97.79 0-54.01 43.45-97.9 96.91-97.9 14.63 0 28.82 3.63 42.02 10.45 1.76.77 10.56 5.61 12.21 6.6.11-1.43 5.17-.11 5.39-1.43.55-3.41 2.31-20.79 3.85-23.76 6.27-27.94 31.02-48.62 60.5-48.62" fill="url(#X)"/><path d="M3519.6 7714.52c17.82 0 31.9 7.7 41.25 16.06.99-2.2 12.32 4.73 13.64 2.75 1.32-1.98 8.58-16.28 10.23-18.04 19.69-33 52.03-55.55 89.54-61.71 10.45-1.76 21.23-2.2 31.9-1.32 51.7 4.18 96.03 39.93 112.64 89.21 4.07 3.52 7.81 7.59 11.44 12.32 1.32 0 5.17 11.44 6.49 11.66 1.32.22 13.2-3.19 14.41-2.75 5.06-.99 9.79-1.1 14.3-.55 22.55 2.86 40.81 20.9 44.11 44.44.44 1.21 1.65 13.86 1.87 15.18.11.44 4.07.11 4.18.44.77-.11 8.69-1.65 9.57-1.76 3.74-.66 7.59-.99 11.44-.99 31.68 0 58.19 23.1 63.14 52.69 4.95 29.59-11.55 56.43-35.64 64.02 0 15.18-80.85 27.5-96.03 27.5h-472.12c-52.36 0-94.93-43.01-94.93-96.14 0-53.02 42.57-96.14 94.93-96.14 14.74 0 28.93 3.74 42.35 10.89 1.32.55 11.11 6.05 12.32 6.71 0-1.1 6.05 1.21 6.27.11.44-2.64 1.98-21.89 3.19-24.2 4.84-28.71 29.7-50.38 59.51-50.38" fill="url(#Y)"/><path d="M3519.93 7716.28c17.71 0 31.24 7.81 40.04 15.62.66-1.43 13.31 7.7 14.19 6.38.88-1.32 8.58-17.05 9.68-18.26 18.59-33.77 50.05-57.09 86.9-64.24 10.34-2.09 20.9-2.75 31.68-2.2 51.37 2.86 96.25 37.4 113.63 86.02 3.52 4.51 6.82 9.57 9.68 14.96.88 0 4.73 13.2 5.61 13.42.88.11 14.19-3.96 14.96-3.63 5.39-1.32 10.23-1.76 14.96-1.43 23.87 1.98 43.23 20.79 46.31 45.43.22.77 1.65 14.96 1.76 15.84 0 .33 4.73-.33 4.73-.11.55-.11 9.35-1.87 9.9-1.87 3.85-.66 7.92-1.1 11.88-1.1 33.22 0 60.61 25.41 63.91 57.42 3.3 32.01-17.49 59.84-45.65 64.9 0 10.12-88.11 18.37-98.23 18.37h-459.36c-51.26 0-93.06-42.24-93.06-94.38 0-52.03 41.69-94.38 93.06-94.38 14.74 0 29.15 3.85 42.68 11.33.88.33 11.77 6.49 12.54 6.93 0-.77 7.04 2.53 7.15 1.76.33-1.76 1.65-23.1 2.42-24.53 3.74-29.59 28.6-52.25 58.63-52.25" fill="url(#Z)"/><path d="M3520.26 7718.04c17.6 0 30.69 7.92 38.83 15.29.33-.77 14.19 10.56 14.63 9.9.44-.66 8.58-17.82 9.13-18.48 17.49-34.54 48.18-58.63 84.26-66.77 10.12-2.31 20.68-3.41 31.35-3.08 51.15 1.43 96.58 34.98 114.73 82.83 3.08 5.5 5.72 11.44 8.03 17.71.44 0 4.18 15.07 4.62 15.18.44.11 15.07-4.73 15.51-4.62 5.61-1.65 10.67-2.42 15.62-2.2 25.19.99 45.76 20.68 48.51 46.53.11.44 1.54 16.06 1.65 16.5 0 .11 5.39-.77 5.39-.66.22 0 10.01-1.98 10.34-1.98 3.96-.77 8.14-1.21 12.32-1.21 34.76 0 63.14 27.72 64.79 62.15 1.65 34.43-23.43 63.36-55.55 65.89 0 5.06-95.48 9.13-100.54 9.13h-446.71c-50.16 0-91.08-41.47-91.08-92.62 0-51.15 40.92-92.73 91.08-92.73 14.74 0 29.26 3.96 43.01 11.66.44.22 12.32 6.82 12.65 7.04 0-.33 8.03 3.74 8.03 3.41.11-.88 1.32-24.2 1.76-24.97 2.42-30.36 27.28-53.9 57.64-53.9" fill="url(#aa)"/><path d="M3934.63 7958.28h-536.8c-49.17 0-89.21-40.7-89.21-90.86s40.04-90.97 89.21-90.97c14.85 0 29.37 4.07 43.34 12.1l21.78 12.32.99-25.3c1.21-31.24 26.18-55.77 56.76-55.77 17.38 0 30.03 8.03 37.62 14.85l15.18 13.53 8.69-18.59c21.12-45.21 64.24-73.37 112.75-73.37 57.97 0 109.34 42.13 121.99 99.99l3.74 16.94 16.06-5.61c5.83-2.09 11.22-3.08 16.39-3.08 26.51 0 48.29 20.57 50.71 47.63l1.43 17.16 16.61-3.3c4.18-.77 8.47-1.32 12.76-1.32 36.19 0 65.56 30.03 65.56 66.88 0 36.85-29.37 66.77-65.56 66.77" fill="url(#ab)"/></svg>