<svg xmlns="http://www.w3.org/2000/svg" xmlns:xlink="http://www.w3.org/1999/xlink" viewBox="3264.2 3299.9 841.9 841.90004" width="841.9" height="841.9"><defs><linearGradient id="aa" gradientUnits="userSpaceOnUse" x1="3861.27" y1="3694.12" x2="3867.26" y2="3551.27" gradientTransform="matrix(1.1 0 0 1.1 -361.42 -193.885)"><stop stop-color="#feff9c"/><stop offset="1" stop-color="#fbffc7"/></linearGradient><linearGradient id="O" gradientUnits="userSpaceOnUse" x1="3838.09" y1="3770.74" x2="3897.15" y2="3490.16" gradientTransform="matrix(1.1 0 0 1.1 -361.42 -193.885)"><stop stop-color="#cad627"/><stop offset="1" stop-color="#fcfe97"/></linearGradient><linearGradient id="a" gradientUnits="userSpaceOnUse" x1="3839.6" y1="3763.44" x2="3895.76" y2="3496.66"><stop stop-color="#cdd929"/><stop offset="1" stop-color="#feff9c"/></linearGradient><linearGradient id="P" gradientUnits="userSpaceOnUse" x1="3838.84" y1="3767.09" x2="3896.45" y2="3493.41" gradientTransform="matrix(1.1 0 0 1.1 -361.42 -193.885)"><stop stop-color="#cbd728"/><stop offset="1" stop-color="#fdfe9a"/></linearGradient><linearGradient id="N" gradientUnits="userSpaceOnUse" x1="3837.34" y1="3774.39" x2="3897.85" y2="3486.9" gradientTransform="matrix(1.1 0 0 1.1 -361.42 -193.885)"><stop stop-color="#c8d426"/><stop offset="1" stop-color="#fcfd95"/></linearGradient><linearGradient id="I" gradientUnits="userSpaceOnUse" x1="3833.57" y1="3792.63" x2="3901.35" y2="3470.64" gradientTransform="matrix(1.1 0 0 1.1 -361.42 -193.885)"><stop stop-color="#c1cd22"/><stop offset="1" stop-color="#f7f989"/></linearGradient><linearGradient id="M" gradientUnits="userSpaceOnUse" x1="3836.58" y1="3778.04" x2="3898.55" y2="3483.65" gradientTransform="matrix(1.1 0 0 1.1 -361.42 -193.885)"><stop stop-color="#c7d325"/><stop offset="1" stop-color="#fbfc93"/></linearGradient><linearGradient id="J" gradientUnits="userSpaceOnUse" x1="3834.32" y1="3788.98" x2="3900.65" y2="3473.89" gradientTransform="matrix(1.1 0 0 1.1 -361.42 -193.885)"><stop stop-color="#c2ce23"/><stop offset="1" stop-color="#f8fa8b"/></linearGradient><linearGradient id="L" gradientUnits="userSpaceOnUse" x1="3835.83" y1="3781.69" x2="3899.25" y2="3480.4" gradientTransform="matrix(1.1 0 0 1.1 -361.42 -193.885)"><stop stop-color="#c5d124"/><stop offset="1" stop-color="#fafb90"/></linearGradient><linearGradient id="K" gradientUnits="userSpaceOnUse" x1="3835.07" y1="3785.33" x2="3899.95" y2="3477.15" gradientTransform="matrix(1.1 0 0 1.1 -361.42 -193.885)"><stop stop-color="#c4d024"/><stop offset="1" stop-color="#f9fb8e"/></linearGradient><linearGradient id="Q" gradientUnits="userSpaceOnUse" x1="3837.8" y1="3756.34" x2="3887.61" y2="3500.77" gradientTransform="matrix(1.1 0 0 1.1 -361.42 -193.885)"><stop stop-color="#d1dc33"/><stop offset="1" stop-color="#feffa0"/></linearGradient><linearGradient id="X" gradientUnits="userSpaceOnUse" x1="3856.1" y1="3712.5" x2="3871.48" y2="3536.13" gradientTransform="matrix(1.1 0 0 1.1 -361.42 -193.885)"><stop stop-color="#f1f57d"/><stop offset="1" stop-color="#fcffbb"/></linearGradient><linearGradient id="Z" gradientUnits="userSpaceOnUse" x1="3859.6" y1="3700.08" x2="3868.37" y2="3546.14" gradientTransform="matrix(1.1 0 0 1.1 -361.42 -193.885)"><stop stop-color="#fafc92"/><stop offset="1" stop-color="#fbffc3"/></linearGradient><linearGradient id="Y" gradientUnits="userSpaceOnUse" x1="3858.14" y1="3706.45" x2="3870.04" y2="3541.32" gradientTransform="matrix(1.1 0 0 1.1 -361.42 -193.885)"><stop stop-color="#f5f887"/><stop offset="1" stop-color="#fcffbf"/></linearGradient><linearGradient id="W" gradientUnits="userSpaceOnUse" x1="3853.78" y1="3718.7" x2="3873.01" y2="3531.04" gradientTransform="matrix(1.1 0 0 1.1 -361.42 -193.885)"><stop stop-color="#ecf172"/><stop offset="1" stop-color="#fcffb7"/></linearGradient><linearGradient id="R" gradientUnits="userSpaceOnUse" x1="3840.66" y1="3750.01" x2="3884.48" y2="3505.7" gradientTransform="matrix(1.1 0 0 1.1 -361.42 -193.885)"><stop stop-color="#d6e03e"/><stop offset="1" stop-color="#fdffa4"/></linearGradient><linearGradient id="V" gradientUnits="userSpaceOnUse" x1="3851.84" y1="3725.07" x2="3875.27" y2="3526.07" gradientTransform="matrix(1.1 0 0 1.1 -361.42 -193.885)"><stop stop-color="#e8ee68"/><stop offset="1" stop-color="#fcffb3"/></linearGradient><linearGradient id="S" gradientUnits="userSpaceOnUse" x1="3844.08" y1="3743.54" x2="3882.25" y2="3510.53" gradientTransform="matrix(1.1 0 0 1.1 -361.42 -193.885)"><stop stop-color="#dae348"/><stop offset="1" stop-color="#fdffa8"/></linearGradient><linearGradient id="U" gradientUnits="userSpaceOnUse" x1="3849.31" y1="3731.12" x2="3877.28" y2="3520.78" gradientTransform="matrix(1.1 0 0 1.1 -361.42 -193.885)"><stop stop-color="#e3ea5d"/><stop offset="1" stop-color="#fdffb0"/></linearGradient><linearGradient id="T" gradientUnits="userSpaceOnUse" x1="3847" y1="3737.5" x2="3879.89" y2="3515.8" gradientTransform="matrix(1.1 0 0 1.1 -361.42 -193.885)"><stop stop-color="#dfe753"/><stop offset="1" stop-color="#fdffac"/></linearGradient><linearGradient id="H" gradientUnits="userSpaceOnUse" x1="3832.81" y1="3796.28" x2="3902.04" y2="3467.39" gradientTransform="matrix(1.1 0 0 1.1 -361.42 -193.885)"><stop stop-color="#bfcb21"/><stop offset="1" stop-color="#f7f887"/></linearGradient><linearGradient id="G" gradientUnits="userSpaceOnUse" x1="3832.06" y1="3799.93" x2="3902.74" y2="3464.13" gradientTransform="matrix(1.1 0 0 1.1 -361.42 -193.885)"><stop stop-color="#beca20"/><stop offset="1" stop-color="#f6f884"/></linearGradient><linearGradient id="f" gradientUnits="userSpaceOnUse" y1="3521.9" x2="0" y2="3337.11"><stop stop-color="#a1bfd1"/><stop offset="1" stop-color="#e0eff7"/></linearGradient><linearGradient id="d" gradientUnits="userSpaceOnUse" y1="3519.61" x2="0" y2="3338.6"><stop stop-color="#a5c1d3"/><stop offset="1" stop-color="#e7f4fc"/></linearGradient><linearGradient id="b" gradientUnits="userSpaceOnUse" y1="3520.76" x2="0" y2="3337.89"><stop stop-color="#a3c0d2"/><stop offset="1" stop-color="#e4f1fa"/></linearGradient><linearGradient id="h" gradientUnits="userSpaceOnUse" y1="3523.05" x2="0" y2="3336.27"><stop stop-color="#9fbed0"/><stop offset="1" stop-color="#ddecf5"/></linearGradient><linearGradient id="c" gradientUnits="userSpaceOnUse" y1="3528.77" x2="0" y2="3331.15"><stop stop-color="#95b9cc"/><stop offset="1" stop-color="#cddee8"/></linearGradient><linearGradient id="j" gradientUnits="userSpaceOnUse" y1="3524.19" x2="0" y2="3335.36"><stop stop-color="#9dbdd0"/><stop offset="1" stop-color="#dae9f2"/></linearGradient><linearGradient id="g" gradientUnits="userSpaceOnUse" y1="3527.62" x2="0" y2="3332.29"><stop stop-color="#97bacd"/><stop offset="1" stop-color="#d0e1eb"/></linearGradient><linearGradient id="k" gradientUnits="userSpaceOnUse" y1="3525.34" x2="0" y2="3334.4"><stop stop-color="#9bbccf"/><stop offset="1" stop-color="#d7e6f0"/></linearGradient><linearGradient id="i" gradientUnits="userSpaceOnUse" y1="3526.48" x2="0" y2="3333.37"><stop stop-color="#99bbce"/><stop offset="1" stop-color="#d3e4ed"/></linearGradient><linearGradient id="e" gradientUnits="userSpaceOnUse" y1="3518.47" x2="0" y2="3339.25"><stop stop-color="#a7c2d4"/><stop offset="1" stop-color="#eaf7ff"/></linearGradient><linearGradient id="C" gradientUnits="userSpaceOnUse" y1="3722.95" x2="0" y2="3472.45" xlink:href="#b" gradientTransform="matrix(1.1 0 0 1.1 -361.42 -193.885)"/><linearGradient id="v" gradientUnits="userSpaceOnUse" y1="3734" x2="0" y2="3463.26" xlink:href="#c" gradientTransform="matrix(1.1 0 0 1.1 -361.42 -193.885)"/><linearGradient id="D" gradientUnits="userSpaceOnUse" y1="3721.37" x2="0" y2="3473.44" xlink:href="#d" gradientTransform="matrix(1.1 0 0 1.1 -361.42 -193.885)"/><linearGradient id="F" gradientUnits="userSpaceOnUse" x1="3831.3" y1="3803.58" x2="3903.44" y2="3460.88" gradientTransform="matrix(1.1 0 0 1.1 -361.42 -193.885)"><stop stop-color="#bcc81f"/><stop offset="1" stop-color="#f5f782"/></linearGradient><linearGradient id="E" gradientUnits="userSpaceOnUse" y1="3719.79" x2="0" y2="3474.36" xlink:href="#e" gradientTransform="matrix(1.1 0 0 1.1 -361.42 -193.885)"/><linearGradient id="B" gradientUnits="userSpaceOnUse" y1="3724.52" x2="0" y2="3471.38" xlink:href="#f" gradientTransform="matrix(1.1 0 0 1.1 -361.42 -193.885)"/><linearGradient id="w" gradientUnits="userSpaceOnUse" y1="3732.42" x2="0" y2="3464.81" xlink:href="#g" gradientTransform="matrix(1.1 0 0 1.1 -361.42 -193.885)"/><linearGradient id="A" gradientUnits="userSpaceOnUse" y1="3726.1" x2="0" y2="3470.23" xlink:href="#h" gradientTransform="matrix(1.1 0 0 1.1 -361.42 -193.885)"/><linearGradient id="x" gradientUnits="userSpaceOnUse" y1="3730.84" x2="0" y2="3466.29" xlink:href="#i" gradientTransform="matrix(1.1 0 0 1.1 -361.42 -193.885)"/><linearGradient id="z" gradientUnits="userSpaceOnUse" y1="3727.68" x2="0" y2="3469" xlink:href="#j" gradientTransform="matrix(1.1 0 0 1.1 -361.42 -193.885)"/><linearGradient id="y" gradientUnits="userSpaceOnUse" y1="3729.26" x2="0" y2="3467.68" xlink:href="#k" gradientTransform="matrix(1.1 0 0 1.1 -361.42 -193.885)"/><linearGradient xlink:href="#c" id="l" gradientUnits="userSpaceOnUse" y1="3528.77" x2="0" y2="3331.15" gradientTransform="matrix(1.1 0 0 1.1 -361.42 -193.885)"/><linearGradient xlink:href="#g" id="m" gradientUnits="userSpaceOnUse" y1="3527.62" x2="0" y2="3332.29" gradientTransform="matrix(1.1 0 0 1.1 -361.42 -193.885)"/><linearGradient xlink:href="#i" id="n" gradientUnits="userSpaceOnUse" y1="3526.48" x2="0" y2="3333.37" gradientTransform="matrix(1.1 0 0 1.1 -361.42 -193.885)"/><linearGradient xlink:href="#k" id="o" gradientUnits="userSpaceOnUse" y1="3525.34" x2="0" y2="3334.4" gradientTransform="matrix(1.1 0 0 1.1 -361.42 -193.885)"/><linearGradient xlink:href="#j" id="p" gradientUnits="userSpaceOnUse" y1="3524.19" x2="0" y2="3335.36" gradientTransform="matrix(1.1 0 0 1.1 -361.42 -193.885)"/><linearGradient xlink:href="#h" id="q" gradientUnits="userSpaceOnUse" y1="3523.05" x2="0" y2="3336.27" gradientTransform="matrix(1.1 0 0 1.1 -361.42 -193.885)"/><linearGradient xlink:href="#f" id="r" gradientUnits="userSpaceOnUse" y1="3521.9" x2="0" y2="3337.11" gradientTransform="matrix(1.1 0 0 1.1 -361.42 -193.885)"/><linearGradient xlink:href="#b" id="s" gradientUnits="userSpaceOnUse" y1="3520.76" x2="0" y2="3337.89" gradientTransform="matrix(1.1 0 0 1.1 -361.42 -193.885)"/><linearGradient xlink:href="#d" id="t" gradientUnits="userSpaceOnUse" y1="3519.61" x2="0" y2="3338.6" gradientTransform="matrix(1.1 0 0 1.1 -361.42 -193.885)"/><linearGradient xlink:href="#e" id="u" gradientUnits="userSpaceOnUse" y1="3518.47" x2="0" y2="3339.25" gradientTransform="matrix(1.1 0 0 1.1 -361.42 -193.885)"/></defs><path d="M4024.61 3579.665c-4.07 0-7.92.44-11.77 1.21-2.2-25.3-23.21-45.1-49.06-45.1-5.61 0-10.89 1.1-15.84 2.86-10.45-46.86-52.03-81.84-102.08-81.84-41.69 0-77.55 24.64-94.38 59.95-9.46-8.36-21.78-13.64-35.42-13.64-29.04 0-52.47 22.99-53.68 51.59-11.22-6.27-23.98-10.23-37.84-10.23-42.9 0-77.77 34.87-77.77 77.77s34.87 77.77 77.77 77.77h400.07c33.22 0 60.17-26.95 60.17-60.17.11-33.22-26.84-60.17-60.17-60.17" fill="#9cb1bf"/><path d="M4017.24 3567.455c-3.96 0-7.92.44-11.77 1.21-2.2-25.3-23.21-45.1-49.06-45.1-5.61 0-10.89 1.1-15.84 2.86-10.45-46.86-52.03-81.84-102.08-81.84-41.69 0-77.44 24.64-94.27 60.06-9.46-8.36-21.78-13.64-35.42-13.64-28.93 0-52.47 22.99-53.68 51.59-11.22-6.27-24.09-10.23-37.84-10.23-42.9 0-77.77 34.76-77.77 77.77s34.87 77.66 77.77 77.66h400.07c33.22 0 60.28-26.95 60.28-60.17-.22-33.22-27.17-60.17-60.39-60.17" fill="url(#l)"/><path d="M3708.91 3492.105c13.53 0 25.52 5.39 34.54 13.31 1.98-4.18 5.5-7.15 8.14-11 2.64-3.85 6.16-9.02 9.35-12.54 18.26-21.45 44.99-35.09 74.91-35.86 8.58-.22 16.94.66 25.08 2.42 38.17 8.47 68.42 38.28 77.66 76.45 4.62-.99 9.46-1.43 14.63-.88 2.64 0 5.61 1.65 8.03 2.09 2.42.44 6.16.66 8.47 1.43 2.75.66 5.28 1.54 7.81 2.75 11.55 5.39 20.68 15.73 24.31 28.49.77 2.31 1.43 6.16 1.87 8.69.11.88.55 1.54.66 2.42 1.65-.33 4.4-.77 6.05-.99 2.09-.22 4.29-.44 6.38-.44 17.71 0 33.55 8.47 43.23 21.12s13.31 28.49 10.34 43.23c0 29.48-30.69 53.46-60.17 53.46h-383.9c-38.17 0-77.77-30.91-77.77-69.08-3.96-19.14.55-39.71 12.98-56.21 12.54-16.61 33-27.61 56.1-27.61 10.56 0 20.57 2.31 29.7 6.38 2.53 1.1 6.05 2.86 8.47 4.29.11-2.09.99-3.74 1.32-5.72.88-5.06 2.64-11.88 4.95-16.28 8.14-17.6 26.07-29.92 46.86-29.92" fill="url(#m)"/><path d="M3709.24 3493.425c13.42 0 25.08 5.39 33.66 12.98 1.76-3.74 6.27-5.06 8.47-8.36 2.31-3.41 6.27-9.68 9.02-12.65 17.49-22 43.56-36.19 72.93-37.73 8.47-.44 16.72.22 24.75 1.76 38.06 7.37 68.64 36.41 78.43 74.14 4.29-.22 8.8 0 13.42 1.1 2.31 0 5.17 2.97 7.37 3.3 2.2.44 6.82 0 8.91.77 2.97.44 5.72 1.1 8.36 2.09 12.54 4.73 22.44 15.73 25.85 29.26.66 2.09 1.43 7.04 1.76 9.13.11.77.88 1.32.99 2.09 1.43-.33 4.95-.88 6.38-1.1 2.2-.33 4.51-.44 6.82-.44 18.81 0 35.31 10.12 43.78 24.64 8.47 14.41 8.91 31.02 3.08 44 0 25.85-34.32 46.75-60.17 46.75h-367.73c-33.44 0-77.66-27.06-77.66-60.39-7.92-16.72-7.7-38.39 3.3-57.53 11-19.03 32.56-32.45 57.2-32.45 10.56 0 20.68 2.42 30.03 6.71 2.2.99 6.49 3.19 8.58 4.4.11-1.87 1.65-2.86 1.98-4.62.77-4.4 2.42-12.76 4.4-16.61 7.15-18.26 25.08-31.24 46.09-31.24" fill="url(#n)"/><path d="M3709.46 3494.635c13.31 0 24.64 5.5 32.78 12.65 1.54-3.19 6.93-2.86 8.91-5.83 1.98-2.86 6.27-10.23 8.58-12.76 16.72-22.44 42.13-37.29 71.06-39.6 8.25-.66 16.5-.22 24.53 1.1 37.84 6.38 68.97 34.65 79.31 71.83 3.96.44 8.03 1.43 12.1 3.19 1.98 0 4.84 4.29 6.71 4.62 1.87.33 7.59-.55 9.24.11 3.08.11 6.05.66 8.8 1.54 13.53 4.07 24.31 15.62 27.5 30.03.55 1.76 1.32 7.81 1.65 9.68.11.66 1.21.99 1.32 1.65 1.21-.22 5.5-1.1 6.71-1.21 2.31-.33 4.73-.55 7.15-.55 19.91 0 37.07 11.77 44.33 28.05 7.26 16.28 4.62 33.55-4.18 44.66 0 22.11-37.95 40.04-60.17 40.04h-351.56c-28.6 0-77.66-23.21-77.66-51.81-11.99-14.3-15.84-37.18-6.49-58.74 9.35-21.56 32.12-37.29 58.3-37.29 10.56 0 20.79 2.53 30.25 7.04 1.87.77 6.93 3.52 8.69 4.51.11-1.54 2.42-1.87 2.64-3.41.66-3.74 2.2-13.53 3.85-16.83 6.49-18.92 24.42-32.67 45.65-32.67" fill="url(#o)"/><path d="M3709.68 3495.955c13.2 0 24.2 5.5 31.9 12.43 1.21-2.64 7.59-.77 9.24-3.19 1.65-2.42 6.27-10.78 8.25-12.87 15.95-22.99 40.7-38.39 69.08-41.36 8.14-.88 16.28-.66 24.2.44 37.73 5.28 69.19 32.78 80.19 69.52 3.63 1.21 7.26 2.86 10.89 5.17 1.65 0 4.51 5.61 6.05 5.94 1.54.33 8.25-1.21 9.68-.66 3.3-.11 6.38.22 9.35.88 14.52 3.41 26.07 15.51 29.04 30.8.44 1.43 1.32 8.58 1.54 10.12.11.55 1.54.77 1.65 1.32 1.1-.22 6.05-1.21 7.15-1.32 2.42-.33 4.95-.66 7.48-.66 21.01 0 38.94 13.53 44.99 31.57 6.05 18.04.22 36.08-11.44 45.32 0 18.48-41.69 33.44-60.06 33.44h-335.39c-23.87 0-77.66-19.25-77.66-43.12-15.95-11.88-24.09-35.97-16.28-60.06 7.81-24.09 31.57-42.13 59.51-42.13 10.67 0 20.9 2.53 30.47 7.37 1.65.66 7.37 3.85 8.8 4.73.11-1.32 3.08-.99 3.3-2.2.55-3.19 1.87-14.41 3.41-17.16 5.28-19.91 23.32-34.32 44.66-34.32" fill="url(#p)"/><path d="M3709.9 3497.165c13.2 0 23.65 5.61 31.02 12.1.99-2.09 8.25 1.32 9.57-.55 1.32-1.98 6.27-11.33 7.81-13.09 15.07-23.54 39.38-39.49 67.21-43.23 7.92-1.1 15.95-1.1 23.98-.22 37.62 4.18 69.41 31.02 80.96 67.21 3.3 1.87 6.49 4.18 9.68 7.15 1.32 0 4.18 7.04 5.39 7.26 1.21.22 8.91-1.76 10.12-1.32 3.52-.44 6.71-.33 9.9.33 15.51 2.75 27.94 15.4 30.69 31.57.33 1.21 1.32 9.35 1.43 10.67.11.44 1.87.44 1.98.88.88-.22 6.6-1.32 7.48-1.43 2.53-.44 5.17-.66 7.92-.66 22.11 0 40.7 15.18 45.54 34.98 4.84 19.8-4.07 38.61-18.81 45.98 0 14.74-45.32 26.73-60.06 26.73h-319.22c-19.03 0-77.55-15.4-77.55-34.54-19.91-9.57-32.34-34.76-26.07-61.27 6.27-26.62 31.13-47.08 60.61-47.08 10.67 0 21.01 2.64 30.69 7.59 1.32.55 7.81 4.18 8.91 4.84 0-.99 3.74 0 3.85-.99.44-2.53 1.65-15.29 2.86-17.38 4.51-20.35 22.66-35.53 44.11-35.53" fill="url(#q)"/><path d="M3710.23 3498.485c13.09 0 23.21 5.72 30.14 11.77.77-1.54 9.02 3.52 10.01 1.98.99-1.43 6.27-11.88 7.48-13.2 14.3-24.09 37.95-40.59 65.23-45.1 7.81-1.32 15.73-1.65 23.65-.88 37.51 3.19 69.74 29.15 81.84 64.9 2.97 2.64 5.72 5.61 8.36 9.13.99 0 3.85 8.36 4.73 8.47.88.22 9.57-2.31 10.45-2.09 3.74-.66 7.15-.77 10.34-.33 16.5 2.09 29.81 15.29 32.23 32.45.33.88 1.21 10.23 1.32 11.11 0 .33 2.2.22 2.31.55.66-.11 7.15-1.43 7.81-1.54 2.64-.44 5.39-.77 8.25-.77 23.21 0 42.46 16.94 46.09 38.5 3.63 21.56-8.47 41.14-26.07 46.75 0 11.11-48.95 20.02-60.06 20.02h-303.05c-14.3 0-77.55-11.55-77.55-25.85-23.87-7.15-40.48-33.44-35.75-62.59 4.73-29.15 30.69-51.92 61.71-51.92 10.67 0 21.12 2.75 30.91 7.92.99.44 8.14 4.51 9.13 4.95 0-.77 4.4.88 4.51.11.33-1.87 1.43-16.06 2.31-17.71 3.74-20.79 21.89-36.63 43.67-36.63" fill="url(#r)"/><path d="M3710.45 3499.695c12.98 0 22.77 5.72 29.26 11.44.55-1.1 9.68 5.61 10.34 4.62.66-.99 6.27-12.43 7.04-13.31 13.53-24.64 36.52-41.69 63.36-46.97a87.609 87.609 0 0 1 23.43-1.54c37.4 2.09 69.96 27.28 82.72 62.59 2.64 3.41 4.95 7.04 7.15 11.11.66 0 3.52 9.68 4.07 9.79.66.11 10.34-2.97 10.89-2.75 3.85-.88 7.48-1.21 10.89-.99 17.38 1.43 31.57 15.18 33.88 33.22.22.55 1.21 11 1.21 11.55 0 .22 2.64-.11 2.64.11.44-.11 7.7-1.54 8.14-1.54 2.75-.44 5.61-.77 8.58-.77 24.2 0 44.33 18.59 46.75 41.91 2.42 23.32-12.76 43.78-33.33 47.41 0 7.37-52.58 13.31-60.06 13.31h-286.88c-9.57 0-77.55-7.7-77.55-17.27-27.94-4.73-48.73-32.23-45.54-63.91 3.08-31.57 30.14-56.76 62.81-56.76 10.78 0 21.23 2.86 31.13 8.25.66.22 8.58 4.73 9.24 5.17 0-.55 5.06 1.87 5.17 1.32.22-1.21 1.21-16.94 1.76-18.04 2.75-21.45 21.01-37.95 42.9-37.95" fill="url(#s)"/><path d="M3710.67 3501.015c12.87 0 22.33 5.83 28.38 11.11.22-.55 10.34 7.7 10.67 7.26.33-.44 6.27-12.98 6.71-13.42 12.76-25.19 35.09-42.79 61.49-48.84 7.48-1.76 15.29-2.53 23.1-2.31 37.29 1.1 70.29 25.52 83.49 60.28a73.99 73.99 0 0 1 5.83 13.09c.33 0 3.08 11 3.41 11.11.33.11 11-3.52 11.33-3.41 4.07-1.21 7.81-1.76 11.44-1.54 18.37.66 33.44 15.07 35.42 33.99.11.33 1.1 11.77 1.21 12.1 0 .11 2.97-.33 2.97-.22.22 0 8.25-1.65 8.47-1.65 2.86-.55 5.94-.88 8.91-.88 25.3 0 46.09 20.24 47.3 45.43 1.21 25.08-17.16 46.31-40.59 48.07 0 3.74-56.32 6.71-59.95 6.71h-270.6c-4.73 0-77.55-3.85-77.55-8.69-31.9-2.42-56.87-31.02-55.33-65.12 1.54-34.1 29.7-61.6 64.02-61.6 10.78 0 21.34 2.86 31.35 8.58.33.11 9.02 5.06 9.35 5.28 0-.22 5.72 2.75 5.83 2.53.11-.66.99-17.71 1.32-18.26 1.76-22.44 19.91-39.6 42.02-39.6" fill="url(#t)"/><path d="M4013.17 3676.465h-391.93c-35.86 0-65.12-29.81-65.12-66.44 0-36.63 29.26-66.44 65.12-66.44 10.78 0 21.45 2.97 31.57 8.8l15.84 9.13.77-18.59c.88-22.77 19.14-40.7 41.47-40.7 12.76 0 21.89 5.83 27.39 10.89l11.11 9.9 6.38-13.53c15.29-33 46.86-53.57 82.39-53.57 42.35 0 79.75 30.69 88.99 73.04l2.75 12.43 11.66-4.18c4.29-1.43 8.14-2.2 11.88-2.2 19.36 0 35.2 14.96 37.07 34.76l1.1 12.54 12.1-2.42c3.08-.55 6.16-.99 9.35-.99 26.4 0 47.96 22 47.96 48.84 0 26.73-21.45 48.73-47.85 48.73" fill="url(#u)"/><path d="M3952.23 3763.585c-5.5 0-10.89.55-16.06 1.65-3.08-34.65-31.9-61.71-67.21-61.71-7.7 0-14.85 1.54-21.67 3.85-14.3-64.13-71.39-112.09-139.81-112.09-57.2 0-106.15 33.77-129.25 82.17-12.98-11.44-29.92-18.7-48.62-18.7-39.71 0-71.83 31.46-73.59 70.73-15.4-8.58-33-13.97-51.92-13.97-58.74 0-106.48 47.63-106.48 106.59 0 58.85 47.74 106.48 106.48 106.48h548.02c45.54 0 82.5-36.96 82.5-82.39 0-45.65-36.85-82.61-82.39-82.61" fill="#9cb1bf"/><path d="M3940.13 3748.515c-5.5 0-10.89.55-16.06 1.65-3.08-34.54-31.9-61.71-67.21-61.71-7.59 0-14.85 1.54-21.67 3.85-14.3-64.13-71.39-112.09-139.81-112.09-57.2 0-106.15 33.77-129.25 82.17-12.98-11.44-29.92-18.59-48.62-18.59-39.71 0-71.83 31.46-73.59 70.73-15.4-8.69-32.89-14.08-51.92-14.08-58.85 0-106.48 47.74-106.48 106.48 0 58.85 47.63 106.48 106.48 106.48h548.02c45.54 0 82.5-36.96 82.5-82.5.11-45.43-36.85-82.39-82.39-82.39" fill="url(#v)"/><path d="M3517.84 3645.445c18.59 0 34.98 7.26 47.41 18.26 2.75-5.83 7.59-9.79 11.11-15.07 3.63-5.28 8.47-12.43 12.76-17.16 25.08-29.26 61.6-48.07 102.63-49.06 11.33-.33 22.44.77 33.11 3.08 52.8 11.22 94.71 52.36 107.47 105.05 6.38-1.32 12.98-1.98 19.91-1.21 3.63 0 7.59 2.2 11 2.86 3.41.55 8.47.88 11.66 1.98 3.74.88 7.37 2.2 10.78 3.74 15.95 7.37 28.27 21.67 33.33 39.05 1.1 3.19 1.98 8.47 2.53 11.88.22 1.1.99 2.09 1.1 3.3 2.09-.44 5.5-.99 7.7-1.21 3.08-.33 6.16-.55 9.24-.55 24.2 0 45.87 11.55 59.07 28.93 13.31 17.38 18.26 39.05 14.19 59.29 0 40.48-44.22 73.26-84.7 73.26h-535.37c-57.75 0-104.61-46.86-104.61-104.83 0-57.86 46.86-104.83 104.61-104.83 14.52 0 28.16 3.19 40.81 8.8 3.52 1.43 8.25 3.96 11.55 5.83.11-2.86 1.43-5.17 1.87-7.92 1.21-6.93 3.63-16.28 6.71-22.22 11.11-24.31 35.64-41.25 64.13-41.25" fill="url(#w)"/><path d="M3518.17 3647.205c18.37 0 34.32 7.37 46.09 17.82 2.42-5.06 8.58-6.93 11.66-11.55 3.08-4.62 8.47-13.2 12.32-17.38 23.98-30.03 59.62-49.5 99.99-51.59 11.11-.55 22.22.22 32.89 2.2 52.58 9.9 95.04 49.83 108.46 101.86 5.94-.33 11.99 0 18.26 1.54 3.19 0 7.15 4.07 10.12 4.62 2.97.55 9.35.11 12.21 1.1 4.07.55 7.81 1.54 11.44 2.86 17.16 6.49 30.8 21.56 35.42 40.15.88 2.86 1.98 9.57 2.42 12.54.11.99 1.54 1.76 1.65 2.75 1.87-.33 6.16-1.1 8.03-1.32 3.19-.44 6.38-.66 9.68-.66 25.74 0 48.29 13.86 59.95 33.66 11.66 19.8 12.32 42.46 4.18 60.17 0 35.42-51.59 64.13-87.01 64.13h-522.72c-56.65 0-102.63-46.09-102.63-103.07 0-56.87 45.98-103.07 102.63-103.07 14.52 0 28.38 3.3 41.14 9.24 3.08 1.32 8.91 4.4 11.77 6.05.11-2.53 2.31-3.85 2.75-6.38 1.1-6.05 3.3-17.38 6.05-22.66 9.9-25.19 34.43-43.01 63.25-43.01" fill="url(#x)"/><path d="M3518.5 3648.965c18.26 0 33.66 7.48 44.88 17.38 2.09-4.29 9.46-3.96 12.21-7.92 2.64-3.96 8.58-13.97 11.77-17.49 22.88-30.8 57.75-51.04 97.35-54.12 11-.88 21.89-.44 32.67 1.32 52.36 8.47 95.26 47.41 109.56 98.67 5.39.66 11 1.87 16.5 4.18 2.75 0 6.6 5.83 9.24 6.38 2.53.44 10.34-.77 12.76.11 4.29.11 8.25.88 12.21 2.09 18.59 5.61 33.33 21.34 37.62 41.25.77 2.42 1.87 10.67 2.2 13.2.11.88 2.2 1.32 2.31 2.2 1.54-.33 6.82-1.32 8.36-1.43 3.3-.44 6.71-.77 10.12-.77 27.28 0 50.82 16.17 60.72 38.39 9.9 22.22 6.27 45.98-5.72 61.16 0 30.36-58.85 55-89.21 55h-510.07c-55.55 0-100.76-45.32-100.76-101.31 0-55.88 45.1-101.31 100.76-101.31 14.52 0 28.49 3.41 41.47 9.68 2.64 1.1 9.46 4.84 11.88 6.16.11-2.2 3.3-2.64 3.63-4.73.88-5.17 2.97-18.48 5.28-22.99 8.58-26.29 33.22-45.1 62.26-45.1" fill="url(#y)"/><path d="M3518.83 3650.725c18.15 0 33.11 7.59 43.67 16.94 1.76-3.63 10.45-1.1 12.65-4.4 2.2-3.3 8.58-14.74 11.22-17.71 21.78-31.57 55.88-52.58 94.71-56.65 10.78-1.21 21.67-.99 32.34.44 52.14 7.04 95.48 44.88 110.55 95.48 4.95 1.65 9.9 3.74 14.85 6.93 2.31 0 6.16 7.7 8.25 8.14 2.09.33 11.33-1.54 13.31-.88 4.51-.22 8.8.22 12.87 1.21 19.91 4.73 35.75 21.23 39.82 42.24.66 1.98 1.76 11.77 2.09 13.86.11.66 2.86.88 2.86 1.65 1.32-.22 7.37-1.43 8.8-1.54 3.41-.55 7.04-.88 10.56-.88 28.71 0 53.24 18.48 61.49 43.12 8.25 24.64.33 49.5-15.73 62.15 0 25.3-66.22 45.76-91.52 45.76H3394.2c-54.56 0-98.78-44.55-98.78-99.55s44.33-99.55 98.78-99.55c14.63 0 28.6 3.52 41.69 10.01 2.2.88 10.01 5.17 12.1 6.38.11-1.76 4.18-1.32 4.51-3.08.77-4.29 2.64-19.69 4.62-23.43 7.81-26.95 32.45-46.64 61.71-46.64" fill="url(#z)"/><path d="M3519.16 3652.375c17.93 0 32.45 7.59 42.46 16.5 1.32-2.86 11.44 1.87 13.2-.77 1.76-2.64 8.58-15.51 10.78-17.93 20.68-32.23 53.9-54.12 92.18-59.18 10.67-1.43 21.45-1.65 32.12-.44 51.92 5.61 95.81 42.46 111.65 92.29 4.51 2.64 8.91 5.72 13.09 9.57 1.76 0 5.61 9.57 7.37 9.9 1.65.33 12.21-2.31 13.86-1.76 4.84-.55 9.24-.44 13.53.33 21.23 3.85 38.28 21.12 42.02 43.34.55 1.65 1.76 12.76 1.98 14.52.11.55 3.52.44 3.52 1.1 1.1-.22 8.03-1.54 9.13-1.65 3.63-.55 7.26-.99 11-.99 30.25 0 55.66 20.79 62.37 47.96 6.6 27.06-5.61 52.91-25.74 63.03 0 20.24-73.48 36.63-93.72 36.63h-484.77c-53.46 0-96.91-43.78-96.91-97.79 0-54.01 43.45-97.9 96.91-97.9 14.63 0 28.82 3.63 42.02 10.45 1.76.77 10.56 5.61 12.21 6.6.11-1.43 5.17-.11 5.39-1.43.55-3.41 2.31-20.79 3.85-23.76 6.27-27.83 31.02-48.62 60.5-48.62" fill="url(#A)"/><path d="M3519.6 3654.135c17.82 0 31.9 7.7 41.25 16.06.99-2.2 12.32 4.73 13.64 2.75 1.32-1.98 8.58-16.28 10.23-18.04 19.69-33 52.03-55.55 89.54-61.71 10.45-1.76 21.23-2.2 31.9-1.32 51.7 4.18 96.03 39.93 112.64 89.21 4.07 3.52 7.81 7.59 11.44 12.32 1.32 0 5.17 11.44 6.49 11.66 1.32.22 13.2-3.19 14.41-2.75 5.06-.99 9.79-1.1 14.3-.55 22.55 2.86 40.81 20.9 44.11 44.44.44 1.21 1.65 13.86 1.87 15.18.11.44 4.07.11 4.18.44.77-.11 8.69-1.65 9.57-1.76 3.74-.66 7.59-.99 11.44-.99 31.68 0 58.19 23.1 63.14 52.69 4.95 29.59-11.55 56.43-35.64 64.02 0 15.18-80.85 27.5-96.03 27.5h-472.12c-52.36 0-94.93-43.01-94.93-96.14 0-53.02 42.57-96.14 94.93-96.14 14.74 0 28.93 3.74 42.35 10.89 1.32.55 11.11 6.05 12.32 6.71 0-1.1 6.05 1.21 6.27.11.44-2.64 1.98-21.89 3.19-24.2 4.84-28.71 29.7-50.38 59.51-50.38" fill="url(#B)"/><path d="M3519.93 3655.895c17.71 0 31.24 7.81 40.04 15.62.66-1.43 13.31 7.7 14.19 6.38.88-1.32 8.58-17.05 9.68-18.26 18.59-33.77 50.05-57.09 86.9-64.24 10.34-2.09 20.9-2.75 31.68-2.2 51.37 2.86 96.25 37.4 113.63 86.02 3.52 4.51 6.82 9.57 9.68 14.96.88 0 4.73 13.2 5.61 13.42.88.11 14.19-3.96 14.96-3.63 5.39-1.32 10.23-1.76 14.96-1.43 23.87 1.98 43.23 20.79 46.31 45.43.22.77 1.65 14.96 1.76 15.84 0 .33 4.73-.33 4.73-.11.55-.11 9.35-1.87 9.9-1.87 3.85-.66 7.92-1.1 11.88-1.1 33.22 0 60.61 25.41 63.91 57.42 3.3 32.01-17.49 59.84-45.65 64.9 0 10.12-88.11 18.37-98.23 18.37h-459.36c-51.26 0-93.06-42.24-93.06-94.38 0-52.03 41.69-94.38 93.06-94.38 14.74 0 29.15 3.85 42.68 11.33.88.33 11.77 6.49 12.54 6.93 0-.77 7.04 2.53 7.15 1.76.33-1.76 1.65-23.1 2.42-24.53 3.74-29.7 28.6-52.25 58.63-52.25" fill="url(#C)"/><path d="M3520.26 3657.655c17.6 0 30.69 7.92 38.83 15.29.33-.77 14.19 10.56 14.63 9.9.44-.66 8.58-17.82 9.13-18.48 17.49-34.54 48.18-58.63 84.26-66.77 10.12-2.31 20.68-3.41 31.35-3.08 51.15 1.43 96.58 34.98 114.73 82.83 3.08 5.5 5.72 11.44 8.03 17.71.44 0 4.18 15.07 4.62 15.18.44.11 15.07-4.73 15.51-4.62 5.61-1.65 10.67-2.42 15.62-2.2 25.19.99 45.76 20.68 48.51 46.53.11.44 1.54 16.06 1.65 16.5 0 .11 5.39-.77 5.39-.66.22 0 10.01-1.98 10.34-1.98 3.96-.77 8.14-1.21 12.32-1.21 34.76 0 63.14 27.72 64.79 62.15 1.65 34.43-23.43 63.36-55.55 65.89 0 5.06-95.48 9.13-100.54 9.13h-446.71c-50.16 0-91.08-41.47-91.08-92.62 0-51.15 40.92-92.73 91.08-92.73 14.74 0 29.26 3.96 43.01 11.66.44.22 12.32 6.82 12.65 7.04 0-.33 8.03 3.74 8.03 3.41.11-.88 1.32-24.2 1.76-24.97 2.42-30.36 27.28-53.9 57.64-53.9" fill="url(#D)"/><path d="M3934.63 3897.895h-536.8c-49.17 0-89.21-40.7-89.21-90.86s40.04-90.97 89.21-90.97c14.85 0 29.37 4.07 43.34 12.1l21.78 12.32.99-25.3c1.21-31.24 26.18-55.77 56.76-55.77 17.38 0 30.03 8.03 37.62 14.85l15.18 13.53 8.69-18.59c21.12-45.21 64.24-73.37 112.75-73.37 57.97 0 109.34 42.13 121.99 99.99l3.74 16.94 16.06-5.61c5.83-2.09 11.22-3.08 16.39-3.08 26.51 0 48.29 20.57 50.71 47.63l1.43 17.16 16.61-3.3c4.18-.77 8.47-1.32 12.76-1.32 36.19 0 65.56 30.03 65.56 66.88 0 36.74-29.37 66.77-65.56 66.77" fill="url(#E)"/><path d="M3965.32 3633.345l-140.69 184.14 62.92 11.22-72.49 168.41 155.98-195.36-62.92-11.22z" fill="#9cb1bf"/><path d="M3967.63 3620.475l-153.56 178.97 68.86 14.08-78.98 166.21 170.17-189.53-68.75-14.08z" fill="url(#F)"/><path d="M3965.54 3623.775l-54.78 137.06-3.63 9.13-1.98 6.71h.11l67.65 13.97-166.43 185.46 69.08-145.64 4.4-9.35 3.08-8.14-67.76-13.97z" fill="url(#G)"/><path d="M3963.56 3627.185l-54.01 134.97-3.63 8.91-.99 6.16.22.11 66.55 13.64-162.8 181.39 67.98-143.33 4.4-9.13 1.87-7.59-66.66-13.64z" fill="url(#H)"/><path d="M3961.58 3630.485l-53.24 132.88-3.52 8.8-.11 5.72h.22l65.56 13.53-159.17 177.32 66.99-141.02 4.29-9.02.66-6.93-65.67-13.53z" fill="url(#I)"/><path d="M3959.49 3633.785l-52.36 130.9-3.41 8.58.77 5.17.33.11 64.46 13.2-155.54 173.25 65.89-138.71 4.29-8.91-.55-6.27-64.57-13.31z" fill="url(#J)"/><path d="M3957.51 3637.085l-51.59 128.81-3.41 8.58 1.76 4.62h.44l63.36 13.09-151.8 169.18 64.79-136.51 4.07-8.69-1.54-5.61-63.58-13.09z" fill="url(#K)"/><path d="M3955.53 3640.385l-50.82 126.83-3.3 8.36 2.64 4.07.55.11 62.26 12.87-148.17 165.11 63.69-134.31 4.07-8.58-2.75-4.95-62.59-12.87z" fill="url(#L)"/><path d="M3953.55 3643.685l-49.94 124.85-3.3 8.14 3.52 3.63.55.11 61.27 12.54-144.54 161.04 62.7-131.89 3.96-8.47-3.96-4.4-61.49-12.65z" fill="url(#M)"/><path d="M3951.46 3646.985l-49.06 122.76-3.3 8.03 4.51 3.08.66.11 60.28 12.43-141.02 156.97 61.6-129.69 3.96-8.25-5.17-3.74-60.39-12.43z" fill="url(#N)"/><path d="M3949.48 3650.395l-48.29 120.67-3.19 7.81 5.5 2.53.66.22 59.18 12.1-137.39 152.9 60.61-127.38 3.85-8.14-6.38-3.08-59.4-12.21z" fill="url(#O)"/><path d="M3947.5 3653.695l-47.52 118.58-3.08 7.7 6.38 2.09.77.11 58.08 11.99-133.65 148.83 59.4-125.18 3.85-7.92-7.59-2.42-58.3-11.99z" fill="url(#P)"/><path d="M3831.67 3932.325l52.25-118.47 3.41-7.48-7.59-1.54-49.94-9.79 104.94-134.42-42.02 112.2-2.75 7.26 7.04 1.43 49.72 9.79-115.06 141.02" opacity=".091" fill="url(#Q)"/><path d="M3835.52 3926.055l48.84-113.52 3.19-7.26-7.26-1.32-47.74-8.91 99.11-129.14-39.16 107.36-2.64 7.04 6.82 1.21 47.52 8.91-108.68 135.63" opacity=".182" fill="url(#R)"/><path d="M3839.26 3919.675l45.65-108.46 2.86-6.93-6.82-1.21-45.65-8.03 93.28-123.97-36.41 102.63-2.31 6.71 6.38 1.1 45.43 7.92-102.41 130.24" opacity=".273" fill="url(#S)"/><path d="M3843.11 3913.295l42.24-103.51 2.75-6.6-6.6-.99-43.34-7.15 87.34-118.69-33.55 97.9-2.2 6.27 6.16.99 43.12 7.04-95.92 124.74" opacity=".364" fill="url(#T)"/><path d="M3846.85 3907.025l38.94-98.56 2.53-6.27-6.16-.99-41.25-6.16 81.51-113.52-30.69 93.17-2.09 5.94 5.94.88 40.92 6.16-89.65 119.35" opacity=".455" fill="url(#U)"/><path d="M3850.7 3900.645l35.64-93.5 2.31-6.05-5.94-.77-39.05-5.28 75.68-108.24-27.94 88.33-1.76 5.72 5.5.77 38.83 5.17-83.27 113.85" opacity=".545" fill="url(#V)"/><path d="M3854.55 3894.265l32.23-88.55 2.09-5.61-5.61-.66-36.74-4.4 69.74-102.96-25.08 83.49-1.65 5.39 5.28.66 36.52 4.29-76.78 108.35" opacity=".636" fill="url(#W)"/><path d="M3858.29 3887.995l28.93-83.6 1.87-5.39-5.17-.44-34.65-3.52 63.91-97.79-22.22 78.76-1.54 5.06 4.95.55 34.43 3.41-70.51 102.96" opacity=".727" fill="url(#X)"/><path d="M3862.14 3881.615l25.63-78.54 1.65-5.06-4.95-.33-32.45-2.64 58.08-92.51-19.47 73.92-1.21 4.84 4.62.33 32.23 2.53-64.13 97.46" opacity=".818" fill="url(#Y)"/><path d="M3865.99 3875.345l22.22-73.7 1.43-4.62-4.51-.33-30.36-1.54 52.25-87.45-16.61 69.19-1.1 4.51 4.29.22 30.14 1.65-57.75 92.07" opacity=".909" fill="url(#Z)"/><path d="M3869.73 3868.965l18.92-68.64 1.32-4.4-4.29-.11-28.05-.66 46.31-82.17-13.75 64.35-.99 4.18 4.07.11 27.83.77-51.37 86.57" fill="url(#aa)"/></svg>