<svg xmlns="http://www.w3.org/2000/svg" xmlns:xlink="http://www.w3.org/1999/xlink" viewBox="3264.2 4735.8 841.9 841.90004" width="841.9" height="841.9"><defs><linearGradient id="U" gradientUnits="userSpaceOnUse" x1="3835.07" y1="5214.44" x2="3899.95" y2="4906.25" gradientTransform="matrix(1.05 0 0 1.05 -177.485 -191.74)"><stop stop-color="#c4d024"/><stop offset="1" stop-color="#f9fb8e"/></linearGradient><linearGradient id="ak" gradientUnits="userSpaceOnUse" x1="3861.27" y1="5123.22" x2="3867.26" y2="4980.38" gradientTransform="matrix(1.05 0 0 1.05 -177.485 -191.74)"><stop stop-color="#feff9c"/><stop offset="1" stop-color="#fbffc7"/></linearGradient><linearGradient id="V" gradientUnits="userSpaceOnUse" x1="3835.83" y1="5210.79" x2="3899.25" y2="4909.5" gradientTransform="matrix(1.05 0 0 1.05 -177.485 -191.74)"><stop stop-color="#c5d124"/><stop offset="1" stop-color="#fafb90"/></linearGradient><linearGradient id="X" gradientUnits="userSpaceOnUse" x1="3837.34" y1="5203.49" x2="3897.85" y2="4916.01" gradientTransform="matrix(1.05 0 0 1.05 -177.485 -191.74)"><stop stop-color="#c8d426"/><stop offset="1" stop-color="#fcfd95"/></linearGradient><linearGradient id="W" gradientUnits="userSpaceOnUse" x1="3836.58" y1="5207.14" x2="3898.55" y2="4912.76" gradientTransform="matrix(1.05 0 0 1.05 -177.485 -191.74)"><stop stop-color="#c7d325"/><stop offset="1" stop-color="#fbfc93"/></linearGradient><linearGradient id="T" gradientUnits="userSpaceOnUse" x1="3834.32" y1="5218.09" x2="3900.65" y2="4903" gradientTransform="matrix(1.05 0 0 1.05 -177.485 -191.74)"><stop stop-color="#c2ce23"/><stop offset="1" stop-color="#f8fa8b"/></linearGradient><linearGradient id="N" gradientUnits="userSpaceOnUse" y1="5161.37" x2="0" y2="4913.44" xlink:href="#a" gradientTransform="matrix(1.05 0 0 1.05 -177.485 -191.74)"/><linearGradient id="S" gradientUnits="userSpaceOnUse" x1="3833.57" y1="5221.74" x2="3901.35" y2="4899.75" gradientTransform="matrix(1.05 0 0 1.05 -177.485 -191.74)"><stop stop-color="#c1cd22"/><stop offset="1" stop-color="#f7f989"/></linearGradient><linearGradient id="O" gradientUnits="userSpaceOnUse" y1="5159.79" x2="0" y2="4914.36" xlink:href="#b" gradientTransform="matrix(1.05 0 0 1.05 -177.485 -191.74)"/><linearGradient id="Q" gradientUnits="userSpaceOnUse" x1="3832.06" y1="5229.03" x2="3902.74" y2="4893.24" gradientTransform="matrix(1.05 0 0 1.05 -177.485 -191.74)"><stop stop-color="#beca20"/><stop offset="1" stop-color="#f6f884"/></linearGradient><linearGradient id="R" gradientUnits="userSpaceOnUse" x1="3832.81" y1="5225.39" x2="3902.05" y2="4896.49" gradientTransform="matrix(1.05 0 0 1.05 -177.485 -191.74)"><stop stop-color="#bfcb21"/><stop offset="1" stop-color="#f7f887"/></linearGradient><linearGradient id="P" gradientUnits="userSpaceOnUse" x1="3831.3" y1="5232.68" x2="3903.44" y2="4889.99" gradientTransform="matrix(1.05 0 0 1.05 -177.485 -191.74)"><stop stop-color="#bcc81f"/><stop offset="1" stop-color="#f5f782"/></linearGradient><linearGradient id="Y" gradientUnits="userSpaceOnUse" x1="3838.09" y1="5199.85" x2="3897.15" y2="4919.26" gradientTransform="matrix(1.05 0 0 1.05 -177.485 -191.74)"><stop stop-color="#cad627"/><stop offset="1" stop-color="#fcfe97"/></linearGradient><linearGradient id="af" gradientUnits="userSpaceOnUse" x1="3851.83" y1="5154.2" x2="3875.26" y2="4955.21" gradientTransform="matrix(1.05 0 0 1.05 -177.485 -191.74)"><stop stop-color="#e8ee68"/><stop offset="1" stop-color="#fcffb3"/></linearGradient><linearGradient id="Z" gradientUnits="userSpaceOnUse" x1="3838.84" y1="5196.2" x2="3896.46" y2="4922.52" gradientTransform="matrix(1.05 0 0 1.05 -177.485 -191.74)"><stop stop-color="#cbd728"/><stop offset="1" stop-color="#fdfe9a"/></linearGradient><linearGradient id="ag" gradientUnits="userSpaceOnUse" x1="3853.74" y1="5147.74" x2="3872.96" y2="4960.09" gradientTransform="matrix(1.05 0 0 1.05 -177.485 -191.74)"><stop stop-color="#ecf172"/><stop offset="1" stop-color="#fcffb7"/></linearGradient><linearGradient id="ai" gradientUnits="userSpaceOnUse" x1="3858.14" y1="5135.59" x2="3870.04" y2="4970.46" gradientTransform="matrix(1.05 0 0 1.05 -177.485 -191.74)"><stop stop-color="#f5f887"/><stop offset="1" stop-color="#fcffbf"/></linearGradient><linearGradient id="aj" gradientUnits="userSpaceOnUse" x1="3859.59" y1="5129.14" x2="3868.37" y2="4975.2" gradientTransform="matrix(1.05 0 0 1.05 -177.485 -191.74)"><stop stop-color="#fafc92"/><stop offset="1" stop-color="#fbffc3"/></linearGradient><linearGradient id="ah" gradientUnits="userSpaceOnUse" x1="3856.1" y1="5141.59" x2="3871.48" y2="4965.22" gradientTransform="matrix(1.05 0 0 1.05 -177.485 -191.74)"><stop stop-color="#f1f57d"/><stop offset="1" stop-color="#fcffbb"/></linearGradient><linearGradient id="ae" gradientUnits="userSpaceOnUse" x1="3849.32" y1="5160.2" x2="3877.29" y2="4949.86" gradientTransform="matrix(1.05 0 0 1.05 -177.485 -191.74)"><stop stop-color="#e3ea5d"/><stop offset="1" stop-color="#fdffb0"/></linearGradient><linearGradient id="c" gradientUnits="userSpaceOnUse" x1="3839.6" y1="5192.55" x2="3895.76" y2="4925.77"><stop stop-color="#cdd929"/><stop offset="1" stop-color="#feff9c"/></linearGradient><linearGradient id="ad" gradientUnits="userSpaceOnUse" x1="3847.05" y1="5166.66" x2="3879.94" y2="4944.97" gradientTransform="matrix(1.05 0 0 1.05 -177.485 -191.74)"><stop stop-color="#dfe753"/><stop offset="1" stop-color="#fdffac"/></linearGradient><linearGradient id="ab" gradientUnits="userSpaceOnUse" x1="3840.6" y1="5179.09" x2="3884.43" y2="4934.78" gradientTransform="matrix(1.05 0 0 1.05 -177.485 -191.74)"><stop stop-color="#d6e03e"/><stop offset="1" stop-color="#fdffa4"/></linearGradient><linearGradient id="ac" gradientUnits="userSpaceOnUse" x1="3844.15" y1="5172.65" x2="3882.31" y2="4939.63" gradientTransform="matrix(1.05 0 0 1.05 -177.485 -191.74)"><stop stop-color="#dae348"/><stop offset="1" stop-color="#fdffa8"/></linearGradient><linearGradient id="aa" gradientUnits="userSpaceOnUse" x1="3837.79" y1="5185.51" x2="3887.6" y2="4929.93" gradientTransform="matrix(1.05 0 0 1.05 -177.485 -191.74)"><stop stop-color="#d1dc33"/><stop offset="1" stop-color="#feffa0"/></linearGradient><linearGradient id="M" gradientUnits="userSpaceOnUse" y1="5162.95" x2="0" y2="4912.45" xlink:href="#d" gradientTransform="matrix(1.05 0 0 1.05 -177.485 -191.74)"/><linearGradient id="t" gradientUnits="userSpaceOnUse" x1="3620.54" y1="5351.56" x2="3691.37" y2="5349.03" xlink:href="#e" gradientTransform="matrix(1.05 0 0 1.05 -177.485 -191.74)"/><linearGradient id="L" gradientUnits="userSpaceOnUse" y1="5164.52" x2="0" y2="4911.38" xlink:href="#f" gradientTransform="matrix(1.05 0 0 1.05 -177.485 -191.74)"/><linearGradient id="u" gradientUnits="userSpaceOnUse" x1="3412.78" x2="3519.02" xlink:href="#e" gradientTransform="matrix(1.05 0 0 1.05 -177.485 -191.74)"/><linearGradient id="g" gradientUnits="userSpaceOnUse" y1="4967.62" x2="0" y2="4772.29"><stop stop-color="#97bacd"/><stop offset="1" stop-color="#d0e1eb"/></linearGradient><linearGradient id="l" gradientUnits="userSpaceOnUse" y1="4968.77" x2="0" y2="4771.15"><stop stop-color="#95b9cc"/><stop offset="1" stop-color="#cddee8"/></linearGradient><linearGradient id="s" gradientUnits="userSpaceOnUse" x1="3424.17" x2="3530.42" xlink:href="#e" gradientTransform="matrix(1.05 0 0 1.05 -177.485 -191.74)"/><linearGradient id="e" gradientUnits="userSpaceOnUse" x1="3545.26" x2="3674.27"><stop offset=".291" stop-color="#fff"/><stop offset="1" stop-color="#def1ff"/></linearGradient><linearGradient id="r" gradientUnits="userSpaceOnUse" x1="3697.79" x2="3804.03" xlink:href="#e" gradientTransform="matrix(1.05 0 0 1.05 -177.485 -191.74)"/><linearGradient id="n" gradientUnits="userSpaceOnUse" x1="3540.05" x2="3646.3" xlink:href="#e" gradientTransform="matrix(1.05 0 0 1.05 -177.485 -191.74)"/><linearGradient id="p" gradientUnits="userSpaceOnUse" x1="3811.14" x2="3917.37" xlink:href="#e" gradientTransform="matrix(1.05 0 0 1.05 -177.485 -191.74)"/><linearGradient id="q" gradientUnits="userSpaceOnUse" x1="3702.99" x2="3832" xlink:href="#e" gradientTransform="matrix(1.05 0 0 1.05 -177.485 -191.74)"/><linearGradient id="o" gradientUnits="userSpaceOnUse" x1="3382.11" x2="3488.34" xlink:href="#e" gradientTransform="matrix(1.05 0 0 1.05 -177.485 -191.74)"/><linearGradient id="h" gradientUnits="userSpaceOnUse" y1="4966.48" x2="0" y2="4773.37"><stop stop-color="#99bbce"/><stop offset="1" stop-color="#d3e4ed"/></linearGradient><linearGradient id="G" gradientUnits="userSpaceOnUse" y1="5172.42" x2="0" y2="4904.81" xlink:href="#g" gradientTransform="matrix(1.05 0 0 1.05 -177.485 -191.74)"/><linearGradient id="k" gradientUnits="userSpaceOnUse" y1="4965.34" x2="0" y2="4774.4"><stop stop-color="#9bbccf"/><stop offset="1" stop-color="#d7e6f0"/></linearGradient><linearGradient id="H" gradientUnits="userSpaceOnUse" y1="5170.84" x2="0" y2="4906.29" xlink:href="#h" gradientTransform="matrix(1.05 0 0 1.05 -177.485 -191.74)"/><linearGradient id="J" gradientUnits="userSpaceOnUse" y1="5167.68" x2="0" y2="4909" xlink:href="#i" gradientTransform="matrix(1.05 0 0 1.05 -177.485 -191.74)"/><linearGradient id="K" gradientUnits="userSpaceOnUse" y1="5166.1" x2="0" y2="4910.23" xlink:href="#j" gradientTransform="matrix(1.05 0 0 1.05 -177.485 -191.74)"/><linearGradient id="I" gradientUnits="userSpaceOnUse" y1="5169.26" x2="0" y2="4907.68" xlink:href="#k" gradientTransform="matrix(1.05 0 0 1.05 -177.485 -191.74)"/><linearGradient id="F" gradientUnits="userSpaceOnUse" y1="5174" x2="0" y2="4903.25" xlink:href="#l" gradientTransform="matrix(1.05 0 0 1.05 -177.485 -191.74)"/><linearGradient id="i" gradientUnits="userSpaceOnUse" y1="4964.19" x2="0" y2="4775.36"><stop stop-color="#9dbdd0"/><stop offset="1" stop-color="#dae9f2"/></linearGradient><linearGradient id="b" gradientUnits="userSpaceOnUse" y1="4958.47" x2="0" y2="4779.25"><stop stop-color="#a7c2d4"/><stop offset="1" stop-color="#eaf7ff"/></linearGradient><linearGradient id="j" gradientUnits="userSpaceOnUse" y1="4963.05" x2="0" y2="4776.27"><stop stop-color="#9fbed0"/><stop offset="1" stop-color="#ddecf5"/></linearGradient><linearGradient id="d" gradientUnits="userSpaceOnUse" y1="4960.76" x2="0" y2="4777.89"><stop stop-color="#a3c0d2"/><stop offset="1" stop-color="#e4f1fa"/></linearGradient><linearGradient id="a" gradientUnits="userSpaceOnUse" y1="4959.61" x2="0" y2="4778.6"><stop stop-color="#a5c1d3"/><stop offset="1" stop-color="#e7f4fc"/></linearGradient><linearGradient id="f" gradientUnits="userSpaceOnUse" y1="4961.9" x2="0" y2="4777.11"><stop stop-color="#a1bfd1"/><stop offset="1" stop-color="#e0eff7"/></linearGradient><linearGradient xlink:href="#e" id="m" gradientUnits="userSpaceOnUse" x1="3545.26" x2="3674.27" gradientTransform="matrix(1.05 0 0 1.05 -177.485 -191.74)"/><linearGradient xlink:href="#l" id="v" gradientUnits="userSpaceOnUse" y1="4968.77" x2="0" y2="4771.15" gradientTransform="matrix(1.05 0 0 1.05 -177.485 -191.74)"/><linearGradient xlink:href="#g" id="w" gradientUnits="userSpaceOnUse" y1="4967.62" x2="0" y2="4772.29" gradientTransform="matrix(1.05 0 0 1.05 -177.485 -191.74)"/><linearGradient xlink:href="#h" id="x" gradientUnits="userSpaceOnUse" y1="4966.48" x2="0" y2="4773.37" gradientTransform="matrix(1.05 0 0 1.05 -177.485 -191.74)"/><linearGradient xlink:href="#k" id="y" gradientUnits="userSpaceOnUse" y1="4965.34" x2="0" y2="4774.4" gradientTransform="matrix(1.05 0 0 1.05 -177.485 -191.74)"/><linearGradient xlink:href="#i" id="z" gradientUnits="userSpaceOnUse" y1="4964.19" x2="0" y2="4775.36" gradientTransform="matrix(1.05 0 0 1.05 -177.485 -191.74)"/><linearGradient xlink:href="#j" id="A" gradientUnits="userSpaceOnUse" y1="4963.05" x2="0" y2="4776.27" gradientTransform="matrix(1.05 0 0 1.05 -177.485 -191.74)"/><linearGradient xlink:href="#f" id="B" gradientUnits="userSpaceOnUse" y1="4961.9" x2="0" y2="4777.11" gradientTransform="matrix(1.05 0 0 1.05 -177.485 -191.74)"/><linearGradient xlink:href="#d" id="C" gradientUnits="userSpaceOnUse" y1="4960.76" x2="0" y2="4777.89" gradientTransform="matrix(1.05 0 0 1.05 -177.485 -191.74)"/><linearGradient xlink:href="#a" id="D" gradientUnits="userSpaceOnUse" y1="4959.61" x2="0" y2="4778.6" gradientTransform="matrix(1.05 0 0 1.05 -177.485 -191.74)"/><linearGradient xlink:href="#b" id="E" gradientUnits="userSpaceOnUse" y1="4958.47" x2="0" y2="4779.25" gradientTransform="matrix(1.05 0 0 1.05 -177.485 -191.74)"/></defs><g fill="#9cb1bf"><path d="M3563.14 5450.96c-3.885 0-7.665-.945-10.92-2.73-9.03-5.04-11.55-15.33-5.565-22.89 124.11-146.685 133.245-146.685 136.29-146.685h1.365l1.47.735c4.515 2.52 10.71 5.985-106.26 164.22-3.675 4.62-9.765 7.35-16.38 7.35M3555.055 5358.035c-3.15 0-6.3-.735-9.03-2.31-7.455-4.2-9.555-12.6-4.62-18.9 102.165-120.855 109.725-120.855 112.245-120.855h1.155l1.26.63c3.78 2.1 8.82 4.935-87.465 135.24-3.15 3.99-8.19 6.195-13.545 6.195M3389.155 5367.905c-3.15 0-6.3-.735-8.925-2.205-7.455-4.2-9.555-12.6-4.62-18.9 102.165-120.855 109.725-120.855 112.245-120.855h1.155l1.26.63c3.78 2.1 8.82 4.935-87.465 135.24-3.15 3.78-8.19 6.09-13.65 6.09M3421.39 5431.745c-3.15 0-6.3-.735-9.03-2.205-7.455-4.2-9.555-12.6-4.62-18.9 102.165-120.855 109.725-120.855 112.245-120.855h1.155l1.26.63c3.78 2.1 8.925 4.935-87.465 135.24-3.045 3.885-8.085 6.09-13.545 6.09"/></g><path d="M3560.095 5444.555c-3.885 0-7.665-.945-10.92-2.73-9.03-5.04-11.55-15.33-5.565-22.89 124.11-146.685 133.245-146.685 136.29-146.685h1.365l1.47.735c4.515 2.52 10.71 5.985-106.26 164.22-3.675 4.62-9.765 7.35-16.38 7.35" fill="#78b5db"/><path d="M3551.8 5438.465c-6.93-3.78-8.82-11.655-4.2-17.43 0 0 125.685-148.68 132.615-144.795 6.93 3.885-107.625 158.76-107.625 158.76-2.94 3.675-7.665 5.67-12.495 5.67-2.94-.105-5.775-.735-8.295-2.205" fill="url(#m)"/><path d="M3551.905 5351.63c-3.15 0-6.3-.735-9.03-2.31-7.455-4.2-9.555-12.6-4.62-18.9 102.165-120.855 109.725-120.855 112.245-120.855h1.155l1.26.63c3.78 2.1 8.82 4.935-87.465 135.24-3.045 3.885-8.085 6.195-13.545 6.195" fill="#78b5db"/><path d="M3545.08 5346.59c-5.67-3.15-7.245-9.555-3.465-14.385 0 0 103.53-122.43 109.2-119.28 5.67 3.15-88.62 130.725-88.62 130.725-2.415 3.045-6.3 4.62-10.29 4.62-2.31.105-4.725-.42-6.825-1.68" fill="url(#n)"/><path d="M3386.11 5361.395c-3.15 0-6.3-.735-8.925-2.205-7.455-4.2-9.555-12.6-4.62-18.9 102.165-120.855 109.725-120.855 112.245-120.855h1.155l1.26.63c3.78 2.1 8.82 4.935-87.465 135.24-3.15 3.885-8.19 6.09-13.65 6.09" fill="#78b5db"/><path d="M3379.285 5356.46c-5.67-3.15-7.245-9.555-3.465-14.28 0 0 103.53-122.43 109.2-119.28 5.67 3.15-88.62 130.725-88.62 130.725-2.415 3.045-6.3 4.62-10.29 4.62-2.415-.105-4.725-.63-6.825-1.785" fill="url(#o)"/><path d="M3839.605 5420.93c-3.15 0-6.3-.735-8.925-2.205-7.455-4.2-9.555-12.6-4.62-18.9 102.165-120.855 109.725-120.855 112.245-120.855h1.155l1.26.63c3.78 2.1 8.82 4.935-87.465 135.24-3.15 3.885-8.19 6.09-13.65 6.09" fill="#9cb1bf"/><path d="M3836.56 5414.42c-3.15 0-6.3-.735-8.925-2.205-7.455-4.2-9.555-12.6-4.62-18.9 102.165-120.855 109.725-120.855 112.245-120.855h1.155l1.26.63c3.78 2.1 8.82 4.935-87.465 135.24-3.15 3.885-8.19 6.09-13.65 6.09" fill="#78b5db"/><path d="M3829.735 5409.485c-5.67-3.15-7.245-9.555-3.465-14.28 0 0 103.53-122.43 109.2-119.28 5.67 3.15-88.62 130.725-88.62 130.725-2.415 3.045-6.3 4.62-10.29 4.62-2.31-.105-4.725-.63-6.825-1.785" fill="url(#p)"/><g fill="#9cb1bf"><path d="M3728.725 5459.465c-3.885 0-7.665-.945-10.92-2.73-9.03-5.04-11.55-15.33-5.565-22.89 124.11-146.685 133.245-146.685 136.29-146.685h1.365l1.47.735c4.515 2.52 10.71 5.985-106.26 164.22-3.675 4.62-9.765 7.35-16.38 7.35M3720.64 5366.54c-3.15 0-6.3-.735-9.03-2.31-7.455-4.2-9.555-12.6-4.62-18.9 102.165-120.855 109.725-120.855 112.245-120.855h1.155l1.26.63c3.78 2.1 8.82 4.935-87.465 135.24-3.045 3.99-8.085 6.195-13.545 6.195M3642.94 5473.745c-2.94-.42-5.88-1.26-8.715-2.625-7.77-3.675-11.655-9.555-8.715-13.125 64.05-68.565 70.875-67.62 73.185-67.305l1.05.105 1.26.525c3.885 1.785 9.24 4.305-47.25 79.905-1.785 2.205-5.88 3.15-10.815 2.52"/></g><path d="M3725.68 5453.06c-3.885 0-7.665-.945-10.92-2.73-9.03-5.04-11.55-15.33-5.565-22.89 124.11-146.685 133.245-146.685 136.29-146.685h1.365l1.47.735c4.515 2.52 10.71 5.985-106.26 164.22-3.675 4.62-9.765 7.35-16.38 7.35" fill="#78b5db"/><path d="M3717.385 5446.97c-6.93-3.78-8.82-11.655-4.2-17.43 0 0 125.685-148.68 132.615-144.795 6.93 3.885-107.625 158.76-107.625 158.76-2.94 3.675-7.665 5.67-12.495 5.67-2.835-.105-5.775-.735-8.295-2.205" fill="url(#q)"/><path d="M3717.595 5360.135c-3.15 0-6.3-.735-9.03-2.31-7.455-4.2-9.555-12.6-4.62-18.9 102.165-120.855 109.725-120.855 112.245-120.855h1.155l1.26.63c3.78 2.1 8.82 4.935-87.465 135.24-3.045 3.885-8.085 6.195-13.545 6.195" fill="#78b5db"/><path d="M3710.77 5355.095c-5.67-3.15-7.245-9.555-3.465-14.385 0 0 103.53-122.43 109.2-119.28 5.67 3.15-88.62 130.725-88.62 130.725-2.415 3.045-6.3 4.62-10.29 4.62-2.415.105-4.725-.42-6.825-1.68" fill="url(#r)"/><path d="M3433.36 5520.155c-3.15 0-6.3-.735-9.03-2.31-7.455-4.2-9.555-12.6-4.62-18.9 102.165-120.855 109.725-120.855 112.245-120.855h1.155l1.26.63c3.78 2.1 8.82 4.935-87.465 135.24-3.045 3.885-8.085 6.195-13.545 6.195" fill="#9cb1bf"/><path d="M3430.315 5513.645c-3.15 0-6.3-.735-9.03-2.31-7.455-4.2-9.555-12.6-4.62-18.9 102.165-120.855 109.725-120.855 112.245-120.855h1.155l1.26.63c3.78 2.1 8.82 4.935-87.465 135.24-3.15 3.99-8.19 6.195-13.545 6.195" fill="#78b5db"/><path d="M3423.385 5508.71c-5.67-3.15-7.245-9.555-3.465-14.385 0 0 103.53-122.43 109.2-119.28 5.67 3.15-88.62 130.725-88.62 130.725-2.415 3.045-6.3 4.62-10.29 4.62-2.31 0-4.62-.525-6.825-1.68" fill="url(#s)"/><path d="M3639.895 5467.235c-2.94-.42-5.88-1.26-8.715-2.625-7.77-3.675-11.655-9.555-8.715-13.125 64.05-68.565 70.875-67.62 73.185-67.305l1.05.105 1.26.525c3.885 1.785 9.24 4.305-47.25 79.905-1.89 2.31-5.88 3.15-10.815 2.52" fill="#78b5db"/><path d="M3632.44 5463.035c-5.985-2.73-8.925-7.35-6.615-10.08 0 0 64.89-69.405 70.875-66.675 5.88 2.835-49.35 76.755-49.35 76.755-1.47 1.785-4.62 2.415-8.295 1.89-2.1-.105-4.41-.84-6.615-1.89" fill="url(#t)"/><path d="M3418.345 5425.34c-3.15 0-6.3-.735-9.03-2.205-7.455-4.2-9.555-12.6-4.62-18.9 102.165-120.855 109.725-120.855 112.245-120.855h1.155l1.26.63c3.78 2.1 8.925 4.935-87.465 135.24-3.15 3.78-8.19 6.09-13.545 6.09" fill="#78b5db"/><path d="M3411.52 5420.3c-5.67-3.15-7.245-9.555-3.465-14.385 0 0 103.53-122.43 109.2-119.28 5.67 3.15-88.62 130.725-88.62 130.725-2.415 3.045-6.3 4.62-10.29 4.62-2.415.105-4.83-.42-6.825-1.68" fill="url(#u)"/><path d="M4009.18 4922.285c-3.885 0-7.56.42-11.235 1.155-2.1-24.15-22.155-43.05-46.83-43.05-5.355 0-10.395 1.05-15.12 2.73-9.975-44.73-49.665-78.12-97.44-78.12-39.795 0-74.025 23.52-90.09 57.225-9.03-7.98-20.79-13.02-33.81-13.02-27.72 0-50.085 21.945-51.24 49.245-10.71-5.985-22.89-9.765-36.12-9.765-40.95 0-74.235 33.285-74.235 74.235s33.285 74.235 74.235 74.235h381.885c31.71 0 57.435-25.725 57.435-57.435.105-31.71-25.62-57.435-57.435-57.435" fill="#9cb1bf"/><path d="M4002.145 4910.63c-3.78 0-7.56.42-11.235 1.155-2.1-24.15-22.155-43.05-46.83-43.05-5.355 0-10.395 1.05-15.12 2.73-9.975-44.73-49.665-78.12-97.44-78.12-39.795 0-73.92 23.52-89.985 57.33-9.03-7.98-20.79-13.02-33.81-13.02-27.615 0-50.085 21.945-51.24 49.245-10.71-5.985-22.995-9.765-36.12-9.765-40.95 0-74.235 33.18-74.235 74.235s33.285 74.13 74.235 74.13h381.885c31.71 0 57.54-25.725 57.54-57.435-.21-31.71-25.935-57.435-57.645-57.435" fill="url(#v)"/><path d="M3707.83 4838.705c12.915 0 24.36 5.145 32.97 12.705 1.89-3.99 5.25-6.825 7.77-10.5 2.52-3.675 5.88-8.61 8.925-11.97 17.43-20.475 42.945-33.495 71.505-34.23 8.19-.21 16.17.63 23.94 2.31 36.435 8.085 65.31 36.54 74.13 72.975 4.41-.945 9.03-1.365 13.965-.84 2.52 0 5.355 1.575 7.665 1.995 2.31.42 5.88.63 8.085 1.365 2.625.63 5.04 1.47 7.455 2.625 11.025 5.145 19.74 15.015 23.205 27.195.735 2.205 1.365 5.88 1.785 8.295.105.84.525 1.47.63 2.31 1.575-.315 4.2-.735 5.775-.945 1.995-.21 4.095-.42 6.09-.42 16.905 0 32.025 8.085 41.265 20.16 9.24 12.075 12.705 27.195 9.87 41.265 0 28.14-29.295 51.03-57.435 51.03h-366.45c-36.435 0-74.235-29.505-74.235-65.94-3.78-18.27.525-37.905 12.39-53.655 11.97-15.855 31.5-26.355 53.55-26.355 10.08 0 19.635 2.205 28.35 6.09 2.415 1.05 5.775 2.73 8.085 4.095.105-1.995.945-3.57 1.26-5.46.84-4.83 2.52-11.34 4.725-15.54 7.77-16.8 24.885-28.56 44.73-28.56" fill="url(#w)"/><path d="M3708.145 4839.965c12.81 0 23.94 5.145 32.13 12.39 1.68-3.57 5.985-4.83 8.085-7.98 2.205-3.255 5.985-9.24 8.61-12.075 16.695-21 41.58-34.545 69.615-36.015 8.085-.42 15.96.21 23.625 1.68 36.33 7.035 65.52 34.755 74.865 70.77 4.095-.21 8.4 0 12.81 1.05 2.205 0 4.935 2.835 7.035 3.15 2.1.42 6.51 0 8.505.735 2.835.42 5.46 1.05 7.98 1.995 11.97 4.515 21.42 15.015 24.675 27.93.63 1.995 1.365 6.72 1.68 8.715.105.735.84 1.26.945 1.995 1.365-.315 4.725-.84 6.09-1.05 2.1-.315 4.305-.42 6.51-.42 17.955 0 33.705 9.66 41.79 23.52 8.085 13.755 8.505 29.61 2.94 42 0 24.675-32.76 44.625-57.435 44.625h-351.015c-31.92 0-74.13-25.83-74.13-57.645-7.56-15.96-7.35-36.645 3.15-54.915 10.5-18.165 31.08-30.975 54.6-30.975 10.08 0 19.74 2.31 28.665 6.405 2.1.945 6.195 3.045 8.19 4.2.105-1.785 1.575-2.73 1.89-4.41.735-4.2 2.31-12.18 4.2-15.855 6.825-17.43 23.94-29.82 43.995-29.82" fill="url(#x)"/><path d="M3708.355 4841.12c12.705 0 23.52 5.25 31.29 12.075 1.47-3.045 6.615-2.73 8.505-5.565 1.89-2.73 5.985-9.765 8.19-12.18 15.96-21.42 40.215-35.595 67.83-37.8 7.875-.63 15.75-.21 23.415 1.05 36.12 6.09 65.835 33.075 75.705 68.565 3.78.42 7.665 1.365 11.55 3.045 1.89 0 4.62 4.095 6.405 4.41 1.785.315 7.245-.525 8.82.105 2.94.105 5.775.63 8.4 1.47 12.915 3.885 23.205 14.91 26.25 28.665.525 1.68 1.26 7.455 1.575 9.24.105.63 1.155.945 1.26 1.575 1.155-.21 5.25-1.05 6.405-1.155 2.205-.315 4.515-.525 6.825-.525 19.005 0 35.385 11.235 42.315 26.775s4.41 32.025-3.99 42.63c0 21.105-36.225 38.22-57.435 38.22h-335.58c-27.3 0-74.13-22.155-74.13-49.455-11.445-13.65-15.12-35.49-6.195-56.07 8.925-20.58 30.66-35.595 55.65-35.595 10.08 0 19.845 2.415 28.875 6.72 1.785.735 6.615 3.36 8.295 4.305.105-1.47 2.31-1.785 2.52-3.255.63-3.57 2.1-12.915 3.675-16.065 6.195-18.06 23.31-31.185 43.575-31.185" fill="url(#y)"/><path d="M3708.565 4842.38c12.6 0 23.1 5.25 30.45 11.865 1.155-2.52 7.245-.735 8.82-3.045 1.575-2.31 5.985-10.29 7.875-12.285 15.225-21.945 38.85-36.645 65.94-39.48 7.77-.84 15.54-.63 23.1.42 36.015 5.04 66.045 31.29 76.545 66.36a46.67 46.67 0 0 1 10.395 4.935c1.575 0 4.305 5.355 5.775 5.67 1.47.315 7.875-1.155 9.24-.63 3.15-.105 6.09.21 8.925.84 13.86 3.255 24.885 14.805 27.72 29.4.42 1.365 1.26 8.19 1.47 9.66.105.525 1.47.735 1.575 1.26 1.05-.21 5.775-1.155 6.825-1.26 2.31-.315 4.725-.63 7.14-.63 20.055 0 37.17 12.915 42.945 30.135 5.775 17.22.21 34.44-10.92 43.26 0 17.64-39.795 31.92-57.33 31.92H3654.91c-22.785 0-74.13-18.375-74.13-41.16-15.225-11.34-22.995-34.335-15.54-57.33 7.455-22.995 30.135-40.215 56.805-40.215 10.185 0 19.95 2.415 29.085 7.035 1.575.63 7.035 3.675 8.4 4.515.105-1.26 2.94-.945 3.15-2.1.525-3.045 1.785-13.755 3.255-16.38 5.04-19.005 22.26-32.76 42.63-32.76" fill="url(#z)"/><path d="M3708.775 4843.535c12.6 0 22.575 5.355 29.61 11.55.945-1.995 7.875 1.26 9.135-.525 1.26-1.89 5.985-10.815 7.455-12.495 14.385-22.47 37.59-37.695 64.155-41.265 7.56-1.05 15.225-1.05 22.89-.21 35.91 3.99 66.255 29.61 77.28 64.155 3.15 1.785 6.195 3.99 9.24 6.825 1.26 0 3.99 6.72 5.145 6.93 1.155.21 8.505-1.68 9.66-1.26 3.36-.42 6.405-.315 9.45.315 14.805 2.625 26.67 14.7 29.295 30.135.315 1.155 1.26 8.925 1.365 10.185.105.42 1.785.42 1.89.84.84-.21 6.3-1.26 7.14-1.365 2.415-.42 4.935-.63 7.56-.63 21.105 0 38.85 14.49 43.47 33.39 4.62 18.9-3.885 36.855-17.955 43.995 0 14.07-43.26 25.515-57.33 25.515h-304.71c-18.165 0-74.025-14.7-74.025-32.97-19.005-9.135-30.87-33.18-24.885-58.485 5.985-25.41 29.715-44.94 57.855-44.94 10.185 0 20.055 2.52 29.295 7.245 1.26.525 7.455 3.99 8.505 4.62 0-.945 3.57 0 3.675-.945.42-2.415 1.575-14.595 2.73-16.59 4.305-19.53 21.63-34.02 42.105-34.02" fill="url(#A)"/><path d="M3709.09 4844.795c12.495 0 22.155 5.46 28.77 11.235.735-1.47 8.61 3.36 9.555 1.89.945-1.365 5.985-11.34 7.14-12.6 13.65-22.995 36.225-38.745 62.265-43.05 7.455-1.26 15.015-1.575 22.575-.84 35.805 3.045 66.57 27.825 78.12 61.95 2.835 2.52 5.46 5.355 7.98 8.715.945 0 3.675 7.98 4.515 8.085.84.21 9.135-2.205 9.975-1.995 3.57-.63 6.825-.735 9.87-.315 15.75 1.995 28.455 14.595 30.765 30.975.315.84 1.155 9.765 1.26 10.605 0 .315 2.1.21 2.205.525.63-.105 6.825-1.365 7.455-1.47 2.52-.42 5.145-.735 7.875-.735 22.155 0 40.53 16.17 43.995 36.75 3.465 20.58-8.085 39.27-24.885 44.625 0 10.605-46.725 19.11-57.33 19.11H3671.92c-13.65 0-74.025-11.025-74.025-24.675-22.785-6.825-38.64-31.92-34.125-59.745 4.515-27.825 29.295-49.56 58.905-49.56 10.185 0 20.16 2.625 29.505 7.56.945.42 7.77 4.305 8.715 4.725 0-.735 4.2.84 4.305.105.315-1.785 1.365-15.33 2.205-16.905 3.57-19.845 20.895-34.965 41.685-34.965" fill="url(#B)"/><path d="M3709.3 4845.95c12.39 0 21.735 5.46 27.93 10.92.525-1.05 9.24 5.355 9.87 4.41.63-.945 5.985-11.865 6.72-12.705 12.915-23.52 34.86-39.795 60.48-44.835 7.245-1.47 14.805-1.995 22.365-1.47 35.7 1.995 66.78 26.04 78.96 59.745 2.52 3.255 4.725 6.72 6.825 10.605.63 0 3.36 9.24 3.885 9.345.63.105 9.87-2.835 10.395-2.625 3.675-.84 7.14-1.155 10.395-.945 16.59 1.365 30.135 14.49 32.34 31.71.21.525 1.155 10.5 1.155 11.025 0 .21 2.52-.105 2.52.105.42-.105 7.35-1.47 7.77-1.47 2.625-.42 5.355-.735 8.19-.735 23.1 0 42.315 17.745 44.625 40.005 2.31 22.26-12.18 41.79-31.815 45.255 0 7.035-50.19 12.705-57.33 12.705h-273.84c-9.135 0-74.025-7.35-74.025-16.485-26.67-4.515-46.515-30.765-43.47-61.005 2.94-30.135 28.77-54.18 59.955-54.18 10.29 0 20.265 2.73 29.715 7.875.63.21 8.19 4.515 8.82 4.935 0-.525 4.83 1.785 4.935 1.26.21-1.155 1.155-16.17 1.68-17.22 2.625-20.475 20.055-36.225 40.95-36.225" fill="url(#C)"/><path d="M3709.51 4847.21c12.285 0 21.315 5.565 27.09 10.605.21-.525 9.87 7.35 10.185 6.93.315-.42 5.985-12.39 6.405-12.81 12.18-24.045 33.495-40.845 58.695-46.62 7.14-1.68 14.595-2.415 22.05-2.205 35.595 1.05 67.095 24.36 79.695 57.54a70.627 70.627 0 0 1 5.565 12.495c.315 0 2.94 10.5 3.255 10.605.315 0 10.5-3.36 10.815-3.255 3.885-1.155 7.455-1.68 10.92-1.47 17.535.63 31.92 14.385 33.81 32.445.105.315 1.05 11.235 1.155 11.55 0 .105 2.835-.315 2.835-.21.21 0 7.875-1.575 8.085-1.575 2.73-.525 5.67-.84 8.505-.84 24.15 0 43.995 19.32 45.15 43.365 1.155 23.94-16.38 44.205-38.745 45.885 0 3.57-53.76 6.405-57.225 6.405h-258.3c-4.515 0-74.025-3.675-74.025-8.295-30.45-2.31-54.285-29.61-52.815-62.16 1.47-32.55 28.35-58.8 61.11-58.8 10.29 0 20.37 2.73 29.925 8.19.315.105 8.61 4.83 8.925 5.04 0-.21 5.46 2.625 5.565 2.415.105-.63.945-16.905 1.26-17.43 1.68-21.42 19.005-37.8 40.11-37.8" fill="url(#D)"/><path d="M3998.26 5014.685h-374.115c-34.23 0-62.16-28.455-62.16-63.42s27.93-63.42 62.16-63.42c10.29 0 20.475 2.835 30.135 8.4l15.12 8.715.735-17.745c.84-21.735 18.27-38.85 39.585-38.85 12.18 0 20.895 5.565 26.145 10.395l10.605 9.45 6.09-12.915c14.595-31.5 44.73-51.135 78.645-51.135 40.425 0 76.125 29.295 84.945 69.72l2.625 11.865 11.13-3.99c4.095-1.365 7.77-2.1 11.34-2.1 18.48 0 33.6 14.28 35.385 33.18l1.05 11.97 11.55-2.31c2.94-.525 5.88-.945 8.925-.945 25.2 0 45.78 21 45.78 46.62 0 25.515-20.475 46.515-45.675 46.515" fill="url(#E)"/><path d="M3940.09 5097.845c-5.25 0-10.395.525-15.33 1.575-2.94-33.075-30.45-58.905-64.155-58.905-7.35 0-14.175 1.47-20.685 3.675-13.65-61.215-68.145-106.995-133.455-106.995-54.6 0-101.325 32.235-123.375 78.435-12.39-10.92-28.56-17.85-46.41-17.85-37.905 0-68.565 30.03-70.245 67.515-14.7-8.19-31.5-13.335-49.56-13.335-56.07 0-101.64 45.465-101.64 101.745 0 56.175 45.57 101.64 101.64 101.64h523.11c43.47 0 78.75-35.28 78.75-78.645 0-43.575-35.175-78.855-78.645-78.855" fill="#9cb1bf"/><path d="M3928.54 5083.46c-5.25 0-10.395.525-15.33 1.575-2.94-32.97-30.45-58.905-64.155-58.905-7.245 0-14.175 1.47-20.685 3.675-13.65-61.215-68.145-106.995-133.455-106.995-54.6 0-101.325 32.235-123.375 78.435-12.39-10.92-28.56-17.745-46.41-17.745-37.905 0-68.565 30.03-70.245 67.515-14.7-8.295-31.395-13.44-49.56-13.44-56.175 0-101.64 45.57-101.64 101.64 0 56.175 45.465 101.64 101.64 101.64h523.11c43.47 0 78.75-35.28 78.75-78.75.105-43.365-35.175-78.645-78.645-78.645" fill="url(#F)"/><path d="M3525.445 4985.075c17.745 0 33.39 6.93 45.255 17.43 2.625-5.565 7.245-9.345 10.605-14.385 3.465-5.04 8.085-11.865 12.18-16.38 23.94-27.93 58.8-45.885 97.965-46.83 10.815-.315 21.42.735 31.605 2.94 50.4 10.71 90.405 49.98 102.585 100.275 6.09-1.26 12.39-1.89 19.005-1.155 3.465 0 7.245 2.1 10.5 2.73 3.255.525 8.085.84 11.13 1.89 3.57.84 7.035 2.1 10.29 3.57 15.225 7.035 26.985 20.685 31.815 37.275 1.05 3.045 1.89 8.085 2.415 11.34.21 1.05.945 1.995 1.05 3.15 1.995-.42 5.25-.945 7.35-1.155 2.94-.315 5.88-.525 8.82-.525 23.1 0 43.785 11.025 56.385 27.615 12.705 16.59 17.43 37.275 13.545 56.595 0 38.64-42.21 69.93-80.85 69.93H3406.06c-55.125 0-99.855-44.73-99.855-100.065 0-55.23 44.73-100.065 99.855-100.065 13.86 0 26.88 3.045 38.955 8.4 3.36 1.365 7.875 3.78 11.025 5.565.105-2.73 1.365-4.935 1.785-7.56 1.155-6.615 3.465-15.54 6.405-21.21 10.605-23.205 34.02-39.375 61.215-39.375" fill="url(#G)"/><path d="M3525.76 4986.755c17.535 0 32.76 7.035 43.995 17.01 2.31-4.83 8.19-6.615 11.13-11.025 2.94-4.41 8.085-12.6 11.76-16.59 22.89-28.665 56.91-47.25 95.445-49.245 10.605-.525 21.21.21 31.395 2.1 50.19 9.45 90.72 47.565 103.53 97.23 5.67-.315 11.445 0 17.43 1.47 3.045 0 6.825 3.885 9.66 4.41 2.835.525 8.925.105 11.655 1.05 3.885.525 7.455 1.47 10.92 2.73 16.38 6.195 29.4 20.58 33.81 38.325.84 2.73 1.89 9.135 2.31 11.97.105.945 1.47 1.68 1.575 2.625 1.785-.315 5.88-1.05 7.665-1.26 3.045-.42 6.09-.63 9.24-.63 24.57 0 46.095 13.23 57.225 32.13 11.13 18.9 11.76 40.53 3.99 57.435 0 33.81-49.245 61.215-83.055 61.215h-498.96c-54.075 0-97.965-43.995-97.965-98.385 0-54.285 43.89-98.385 97.965-98.385 13.86 0 27.09 3.15 39.27 8.82 2.94 1.26 8.505 4.2 11.235 5.775.105-2.415 2.205-3.675 2.625-6.09 1.05-5.775 3.15-16.59 5.775-21.63 9.45-24.045 32.865-41.055 60.375-41.055" fill="url(#H)"/><path d="M3526.075 4988.435c17.43 0 32.13 7.14 42.84 16.59 1.995-4.095 9.03-3.78 11.655-7.56 2.52-3.78 8.19-13.335 11.235-16.695 21.84-29.4 55.125-48.72 92.925-51.66 10.5-.84 20.895-.42 31.185 1.26 49.98 8.085 90.93 45.255 104.58 94.185 5.145.63 10.5 1.785 15.75 3.99 2.625 0 6.3 5.565 8.82 6.09 2.415.42 9.87-.735 12.18.105 4.095.105 7.875.84 11.655 1.995 17.745 5.355 31.815 20.37 35.91 39.375.735 2.31 1.785 10.185 2.1 12.6.105.84 2.1 1.26 2.205 2.1 1.47-.315 6.51-1.26 7.98-1.365 3.15-.42 6.405-.735 9.66-.735 26.04 0 48.51 15.435 57.96 36.645 9.45 21.21 5.985 43.89-5.46 58.38 0 28.98-56.175 52.5-85.155 52.5h-486.885c-53.025 0-96.18-43.26-96.18-96.705 0-53.34 43.05-96.705 96.18-96.705 13.86 0 27.195 3.255 39.585 9.24 2.52 1.05 9.03 4.62 11.34 5.88.105-2.1 3.15-2.52 3.465-4.515.84-4.935 2.835-17.64 5.04-21.945 8.19-25.095 31.71-43.05 59.43-43.05" fill="url(#I)"/><path d="M3526.39 4990.115c17.325 0 31.605 7.245 41.685 16.17 1.68-3.465 9.975-1.05 12.075-4.2 2.1-3.15 8.19-14.07 10.71-16.905 20.79-30.135 53.34-50.19 90.405-54.075 10.29-1.155 20.685-.945 30.87.42 49.77 6.72 91.14 42.84 105.525 91.14 4.725 1.575 9.45 3.57 14.175 6.615 2.205 0 5.88 7.35 7.875 7.77 1.995.315 10.815-1.47 12.705-.84 4.305-.21 8.4.21 12.285 1.155 19.005 4.515 34.125 20.265 38.01 40.32.63 1.89 1.68 11.235 1.995 13.23.105.63 2.73.84 2.73 1.575 1.26-.21 7.035-1.365 8.4-1.47 3.255-.525 6.72-.84 10.08-.84 27.405 0 50.82 17.64 58.695 41.16 7.875 23.52.315 47.25-15.015 59.325 0 24.15-63.21 43.68-87.36 43.68h-474.81c-52.08 0-94.29-42.525-94.29-95.025 0-52.5 42.315-95.025 94.29-95.025 13.965 0 27.3 3.36 39.795 9.555 2.1.84 9.555 4.935 11.55 6.09.105-1.68 3.99-1.26 4.305-2.94.735-4.095 2.52-18.795 4.41-22.365 7.455-25.725 30.975-44.52 58.905-44.52" fill="url(#J)"/><path d="M3526.705 4991.69c17.115 0 30.975 7.245 40.53 15.75 1.26-2.73 10.92 1.785 12.6-.735 1.68-2.52 8.19-14.805 10.29-17.115 19.74-30.765 51.45-51.66 87.99-56.49 10.185-1.365 20.475-1.575 30.66-.42 49.56 5.355 91.455 40.53 106.575 88.095 4.305 2.52 8.505 5.46 12.495 9.135 1.68 0 5.355 9.135 7.035 9.45 1.575.315 11.655-2.205 13.23-1.68 4.62-.525 8.82-.42 12.915.315 20.265 3.675 36.54 20.16 40.11 41.37.525 1.575 1.68 12.18 1.89 13.86.105.525 3.36.42 3.36 1.05 1.05-.21 7.665-1.47 8.715-1.575 3.465-.525 6.93-.945 10.5-.945 28.875 0 53.13 19.845 59.535 45.78 6.3 25.83-5.355 50.505-24.57 60.165 0 19.32-70.14 34.965-89.46 34.965H3408.37c-51.03 0-92.505-41.79-92.505-93.345s41.475-93.45 92.505-93.45c13.965 0 27.51 3.465 40.11 9.975 1.68.735 10.08 5.355 11.655 6.3.105-1.365 4.935-.105 5.145-1.365.525-3.255 2.205-19.845 3.675-22.68 5.985-26.565 29.61-46.41 57.75-46.41" fill="url(#K)"/><path d="M3527.125 4993.37c17.01 0 30.45 7.35 39.375 15.33.945-2.1 11.76 4.515 13.02 2.625 1.26-1.89 8.19-15.54 9.765-17.22 18.795-31.5 49.665-53.025 85.47-58.905 9.975-1.68 20.265-2.1 30.45-1.26 49.35 3.99 91.665 38.115 107.52 85.155 3.885 3.36 7.455 7.245 10.92 11.76 1.26 0 4.935 10.92 6.195 11.13 1.26.21 12.6-3.045 13.755-2.625 4.83-.945 9.345-1.05 13.65-.525 21.525 2.73 38.955 19.95 42.105 42.42.42 1.155 1.575 13.23 1.785 14.49.105.42 3.885.105 3.99.42.735-.105 8.295-1.575 9.135-1.68 3.57-.63 7.245-.945 10.92-.945 30.24 0 55.545 22.05 60.27 50.295 4.725 28.245-11.025 53.865-34.02 61.11 0 14.49-77.175 26.25-91.665 26.25h-450.66c-49.98 0-90.615-41.055-90.615-91.77 0-50.61 40.635-91.77 90.615-91.77 14.07 0 27.615 3.57 40.425 10.395 1.26.525 10.605 5.775 11.76 6.405 0-1.05 5.775 1.155 5.985.105.42-2.52 1.89-20.895 3.045-23.1 4.62-27.405 28.35-48.09 56.805-48.09" fill="url(#L)"/><path d="M3527.44 4995.05c16.905 0 29.82 7.455 38.22 14.91.63-1.365 12.705 7.35 13.545 6.09.84-1.26 8.19-16.275 9.24-17.43 17.745-32.235 47.775-54.495 82.95-61.32 9.87-1.995 19.95-2.625 30.24-2.1 49.035 2.73 91.875 35.7 108.465 82.11a98.034 98.034 0 0 1 9.24 14.28c.84 0 4.515 12.6 5.355 12.81.84.105 13.545-3.78 14.28-3.465 5.145-1.26 9.765-1.68 14.28-1.365 22.785 1.89 41.265 19.845 44.205 43.365.21.735 1.575 14.28 1.68 15.12 0 .315 4.515-.315 4.515-.105.525-.105 8.925-1.785 9.45-1.785 3.675-.63 7.56-1.05 11.34-1.05 31.71 0 57.855 24.255 61.005 54.81 3.15 30.555-16.695 57.12-43.575 61.95 0 9.66-84.105 17.535-93.765 17.535h-438.48c-48.93 0-88.83-40.32-88.83-90.09 0-49.665 39.795-90.09 88.83-90.09 14.07 0 27.825 3.675 40.74 10.815.84.315 11.235 6.195 11.97 6.615 0-.735 6.72 2.415 6.825 1.68.315-1.68 1.575-22.05 2.31-23.415 3.57-28.35 27.3-49.875 55.965-49.875" fill="url(#M)"/><path d="M3527.755 4996.73c16.8 0 29.295 7.56 37.065 14.595.315-.735 13.545 10.08 13.965 9.45.42-.63 8.19-17.01 8.715-17.64 16.695-32.97 45.99-55.965 80.43-63.735 9.66-2.205 19.74-3.255 29.925-2.94 48.825 1.365 92.19 33.39 109.515 79.065 2.94 5.25 5.46 10.92 7.665 16.905.42 0 3.99 14.385 4.41 14.49.42.105 14.385-4.515 14.805-4.41 5.355-1.575 10.185-2.31 14.91-2.1 24.045.945 43.68 19.74 46.305 44.415.105.42 1.47 15.33 1.575 15.75 0 .105 5.145-.735 5.145-.63.21 0 9.555-1.89 9.87-1.89a62.03 62.03 0 0 1 11.76-1.155c33.18 0 60.27 26.46 61.845 59.325 1.575 32.865-22.365 60.48-53.025 62.895 0 4.83-91.14 8.715-95.97 8.715H3410.26c-47.88 0-86.94-39.585-86.94-88.41 0-48.825 39.06-88.515 86.94-88.515 14.07 0 27.93 3.78 41.055 11.13.42.21 11.76 6.51 12.075 6.72 0-.315 7.665 3.57 7.665 3.255.105-.84 1.26-23.1 1.68-23.835 2.31-28.98 26.04-51.45 55.02-51.45" fill="url(#N)"/><path d="M3923.29 5226.05h-512.4c-46.935 0-85.155-38.85-85.155-86.73s38.22-86.835 85.155-86.835c14.175 0 28.035 3.885 41.37 11.55l20.79 11.76.945-24.15c1.155-29.82 24.99-53.235 54.18-53.235 16.59 0 28.665 7.665 35.91 14.175l14.49 12.915 8.295-17.745c20.16-43.155 61.32-70.035 107.625-70.035 55.335 0 104.37 40.215 116.445 95.445l3.57 16.17 15.33-5.355c5.565-1.995 10.71-2.94 15.645-2.94 25.305 0 46.095 19.635 48.405 45.465l1.365 16.38 15.855-3.15c3.99-.735 8.085-1.26 12.18-1.26 34.545 0 62.58 28.665 62.58 63.84 0 35.175-28.035 63.735-62.58 63.735" fill="url(#O)"/><path d="M3952.585 4962.08l-134.295 175.77 60.06 10.71-69.195 160.755 148.89-186.48-60.06-10.71z" fill="#9cb1bf"/><path d="M3954.79 4949.795l-146.58 170.835 65.73 13.44-75.39 158.655 162.435-180.915-65.625-13.44z" fill="url(#P)"/><path d="M3952.795 4952.945l-52.29 130.83-3.465 8.715-1.89 6.405h.105l64.575 13.335-158.865 177.03 65.94-139.02 4.2-8.82 2.94-7.875-64.68-13.335z" fill="url(#Q)"/><path d="M3950.905 4956.2l-51.555 128.835-3.465 8.505-.945 5.88.21.105 63.525 13.02-155.4 173.145 64.89-136.815 4.2-8.715 1.785-7.245-63.63-13.02z" fill="url(#R)"/><path d="M3949.015 4959.35l-50.82 126.84-3.36 8.4-.105 5.46h.21l62.58 12.915-151.935 169.26 63.945-134.61 4.095-8.61.63-6.615-62.685-12.915z" fill="url(#S)"/><path d="M3947.02 4962.5l-49.98 124.95-3.255 8.295.735 4.83.315.105 61.53 12.6-148.47 165.375 62.895-132.405 4.095-8.505-.525-5.985-61.635-12.705z" fill="url(#T)"/><path d="M3945.13 4965.65l-49.245 123.06-3.255 8.085 1.68 4.41.42.105 60.48 12.39-144.9 161.49 61.845-130.305 3.885-8.295-1.47-5.355-60.69-12.495z" fill="url(#U)"/><path d="M3943.24 4968.8l-48.51 121.065-3.15 7.98 2.52 3.885.525.105 59.43 12.285-141.435 157.605 60.795-128.205 3.885-8.19-2.625-4.725-59.745-12.285z" fill="url(#V)"/><path d="M3941.35 4971.95l-47.67 119.175-3.15 7.77 3.36 3.465.525.105 58.485 11.97-137.97 153.72 59.85-125.895 3.78-8.085-3.78-4.2-58.695-11.97z" fill="url(#W)"/><path d="M3939.355 4975.1l-46.83 117.18-3.15 7.665 4.305 2.94.63.105 57.54 11.865-134.61 149.835 58.8-123.795 3.78-7.875-4.935-3.57-57.645-11.865z" fill="url(#X)"/><path d="M3937.465 4978.355l-46.095 115.185-3.045 7.455 5.25 2.415.63.21 56.49 11.55-131.145 145.95 57.855-121.59 3.675-7.77-6.09-2.94-56.7-11.655z" fill="url(#Y)"/><path d="M3935.575 4981.505l-45.36 113.19-2.94 7.455 6.09 1.89.735.105 55.44 11.445-127.575 142.065 56.7-119.49 3.675-7.56-7.245-2.31-55.65-11.445z" fill="url(#Z)"/><path d="M3825.01 5247.47l49.875-112.98 3.255-7.245-7.245-1.47-47.67-9.345 100.17-128.31-40.11 107.1-2.625 6.93 6.72 1.365 47.46 9.345-109.83 134.61" opacity=".091" fill="url(#aa)"/><path d="M3828.685 5241.485l46.62-108.36 3.045-6.93-6.93-1.26-45.57-8.505 94.605-123.27-37.38 102.48-2.52 6.72 6.51 1.155 45.36 8.505-103.74 129.465" opacity=".182" fill="url(#ab)"/><path d="M3832.255 5235.395l43.575-103.53 2.73-6.615-6.51-1.155-43.575-7.665 89.04-118.335-34.755 97.965-2.205 6.405 6.09 1.05 43.365 7.665-97.755 124.215" opacity=".273" fill="url(#ac)"/><path d="M3835.93 5229.305l40.32-98.805 2.625-6.3-6.3-.945-41.37-6.825 83.37-113.295-32.025 93.45-2.1 5.985 5.88.945 41.16 6.72-91.56 119.07" opacity=".364" fill="url(#ad)"/><path d="M3839.5 5223.32l37.17-94.08 2.415-5.985-5.88-.84-39.375-5.985 77.805-108.255-29.295 88.83-1.995 5.775 5.67.84 39.06 5.775-85.575 113.925" opacity=".455" fill="url(#ae)"/><path d="M3843.175 5217.23l34.02-89.25 2.205-5.775-5.67-.735-37.275-5.04 72.24-103.32-26.67 84.315-1.68 5.46 5.25.735 37.065 4.935-79.485 108.675" opacity=".545" fill="url(#af)"/><path d="M3846.85 5211.245l30.765-84.63 1.995-5.355-5.355-.63-35.07-4.2 66.57-98.28-23.94 79.695-1.575 5.145 5.04.63 34.86 4.095-73.29 103.53" opacity=".636" fill="url(#ag)"/><path d="M3850.42 5205.155l27.615-79.8 1.785-5.04-4.935-.525-33.075-3.36 61.005-93.345-21.21 75.18-1.47 4.83 4.725.525 32.865 3.255-67.305 98.28" opacity=".727" fill="url(#ah)"/><path d="M3854.095 5199.065l24.465-74.97 1.575-4.83-4.725-.315-30.975-2.415 55.44-88.41-18.585 70.56-1.155 4.62 4.41.315 30.765 2.415-61.215 93.03" opacity=".818" fill="url(#ai)"/><path d="M3857.77 5193.08l21.21-70.35 1.365-4.41-4.305-.315-28.98-1.47 49.875-83.37-15.855 65.94-1.05 4.305 4.095.21 28.77 1.575-55.125 87.885" opacity=".909" fill="url(#aj)"/><path d="M3861.34 5186.99l18.06-65.52 1.26-4.2-4.095-.105-26.775-.63 44.205-78.435-13.125 61.425-.945 3.99 3.885.105 26.565.735-49.035 82.635" fill="url(#ak)"/></svg>