<svg xmlns="http://www.w3.org/2000/svg" viewBox="0 -4246.5 841.9 841.90004" width="841.9" height="841.9"><defs><linearGradient id="o" gradientUnits="userSpaceOnUse" y1="-3739.17" x2="0" y2="-4169.32" gradientTransform="matrix(1.15762 0 0 1.15762 -26.002 769.73)"><stop stop-color="#cdd929"/><stop offset="1" stop-color="#feff9c"/></linearGradient><linearGradient id="k" gradientUnits="userSpaceOnUse" x1="381.87" y1="-3725.26" x2="416.88" y2="-4163.72" gradientTransform="matrix(1.15762 0 0 1.15762 -26.002 769.73)"><stop stop-color="#afba17"/><stop offset="1" stop-color="#eef06d"/></linearGradient><linearGradient id="l" gradientUnits="userSpaceOnUse" x1="389.89" y1="-3728.73" x2="415.98" y2="-4165.08" gradientTransform="matrix(1.15762 0 0 1.15762 -26.002 769.73)"><stop stop-color="#b7c21b"/><stop offset="1" stop-color="#f2f479"/></linearGradient><linearGradient id="n" gradientUnits="userSpaceOnUse" x1="399.32" y1="-3735.58" x2="407.91" y2="-4167.81" gradientTransform="matrix(1.15762 0 0 1.15762 -26.002 769.73)"><stop stop-color="#c6d124"/><stop offset="1" stop-color="#fafb90"/></linearGradient><linearGradient id="m" gradientUnits="userSpaceOnUse" x1="394.64" y1="-3731.93" x2="411.92" y2="-4166.18" gradientTransform="matrix(1.15762 0 0 1.15762 -26.002 769.73)"><stop stop-color="#beca20"/><stop offset="1" stop-color="#f6f885"/></linearGradient><linearGradient id="j" gradientUnits="userSpaceOnUse" x1="371.32" y1="-3722.14" x2="415.39" y2="-4162.82" gradientTransform="matrix(1.15762 0 0 1.15762 -26.002 769.73)"><stop stop-color="#a8b312"/><stop offset="1" stop-color="#ebed62"/></linearGradient><linearGradient id="i" gradientUnits="userSpaceOnUse" x1="360.53" y1="-3719.24" x2="413.79" y2="-4162.36" gradientTransform="matrix(1.15762 0 0 1.15762 -26.002 769.73)"><stop stop-color="#a0ab0e"/><stop offset="1" stop-color="#e7e956"/></linearGradient><linearGradient id="g" gradientUnits="userSpaceOnUse" x1="339.32" y1="-3714.64" x2="411.57" y2="-4163.71" gradientTransform="matrix(1.15762 0 0 1.15762 -26.002 769.73)"><stop stop-color="#919c05"/><stop offset="1" stop-color="#dfe23f"/></linearGradient><linearGradient id="h" gradientUnits="userSpaceOnUse" x1="350.19" y1="-3717.08" x2="412.86" y2="-4162.98" gradientTransform="matrix(1.15762 0 0 1.15762 -26.002 769.73)"><stop stop-color="#99a309"/><stop offset="1" stop-color="#e3e54a"/></linearGradient><linearGradient id="f" gradientUnits="userSpaceOnUse" x1="328.42" y1="-3712.45" x2="410.51" y2="-4165.2" gradientTransform="matrix(1.15762 0 0 1.15762 -26.002 769.73)"><stop stop-color="#8a9400"/><stop offset="1" stop-color="#dbde33"/></linearGradient><linearGradient id="c" gradientUnits="userSpaceOnUse" y1="-4162.06" x2="0" y2="-4212.16"><stop stop-color="#feffba"/><stop offset="1" stop-color="#f0f2ac"/></linearGradient><linearGradient id="e" gradientUnits="userSpaceOnUse" y1="-4167.61" x2="0" y2="-4207.52"><stop stop-color="#f5f798"/><stop offset="1" stop-color="#f0f2ac"/></linearGradient><linearGradient id="b" gradientUnits="userSpaceOnUse" y1="-4178.72" x2="0" y2="-4198.24"><stop stop-color="#e4e655"/><stop offset="1" stop-color="#f0f2ac"/></linearGradient><linearGradient id="d" gradientUnits="userSpaceOnUse" y1="-4184.28" x2="0" y2="-4193.6"><stop stop-color="#dbde33"/><stop offset="1" stop-color="#f0f2ac"/></linearGradient><linearGradient id="a" gradientUnits="userSpaceOnUse" y1="-4173.17" x2="0" y2="-4202.88"><stop stop-color="#edef77"/><stop offset="1" stop-color="#f0f2ac"/></linearGradient></defs><path d="M377.43-4128.528c-43.758-7.872-86.706-6.135-127.223 3.358 67.142 16.206 121.898 62.164 155.932 124.097 34.266 61.933 48.041 140.073 33.34 220.643-11.924 65.869-40.98 123.403-80.34 167.277-39.475 43.874-89.253 74.204-143.314 85.78 16.207 5.788 32.761 10.766 50.01 14.007 42.369 7.64 84.506 6.367 124.097-2.43 39.59-8.914 76.866-25.468 109.627-48.158 65.638-45.61 114.026-116.11 129.538-201.08 15.397-84.853-4.977-167.97-50.588-233.724-45.726-65.753-116.225-114.257-201.08-129.77" fill="#9cb1bf"/><path d="M369.326-4137.789c-43.758-7.872-86.706-6.135-127.223 3.357 67.143 16.207 121.898 62.165 155.933 124.098 34.265 61.933 48.041 140.073 33.34 220.643-11.924 65.869-40.98 123.403-80.34 167.277-39.475 43.874-89.253 74.204-143.314 85.78 16.207 5.788 32.76 10.766 50.01 14.007 42.368 7.64 84.506 6.367 124.097-2.43 39.59-8.914 76.866-25.468 109.627-48.158 65.637-45.61 114.026-116.11 129.538-201.08 15.397-84.853-4.978-167.97-50.588-233.724-45.726-65.753-116.226-114.257-201.08-129.77" fill="url(#f)"/><path d="M250.901-4133.042a295.791 295.791 0 0 1 35.192-4.862c31.256-2.431 63.09-.232 94.81 7.177 78.95 16.09 144.587 62.164 187.535 123.981 45.263 65.175 65.522 147.713 50.24 231.988-15.164 83.35-62.164 152.691-126.296 197.954-31.95 22.574-68.3 39.128-106.965 48.39-38.548 9.029-79.528 10.88-120.971 4.166l-5.904-1.041c-14.818-2.779-29.057-6.946-43.064-11.577 52.788-12.733 101.292-43.41 139.725-87.053 38.434-43.758 66.68-100.482 78.372-165.193 14.47-79.413 1.389-156.395-31.604-217.98-32.876-61.702-85.78-108.007-151.07-125.95" fill="url(#g)"/><path d="M259.815-4131.77c12.04-1.967 24.079-3.24 36.234-3.703a304 304 0 0 1 96.43 11.692c73.046 16.67 133.937 60.312 174.107 118.309 44.916 64.711 65.058 146.67 49.893 230.251-14.817 81.613-60.543 149.797-123.055 194.713-31.14 22.458-66.564 39.012-104.418 48.504-37.507 9.261-77.33 11.692-117.846 5.904-1.968-.231-3.82-.578-5.788-.926-14.355-2.43-28.478-6.135-42.254-10.418 51.515-13.892 98.746-44.916 136.137-88.211 37.507-43.643 64.943-99.556 76.403-163.225 14.24-78.14 1.853-154.08-29.866-215.319-31.488-61.238-82.655-107.89-145.977-127.57" fill="url(#h)"/><path d="M268.613-4130.38c12.387-1.62 24.889-2.43 37.391-2.547 33.34 0 66.332 5.441 97.935 16.091 67.143 17.249 123.172 58.46 160.679 112.521 44.568 64.364 64.595 145.63 49.546 228.631-14.47 79.876-58.923 146.903-119.698 191.472-30.33 22.226-64.827 38.896-101.756 48.736-36.465 9.492-75.245 12.618-114.72 7.64-1.852-.232-3.82-.463-5.673-.81-14.007-2.084-27.783-5.325-41.327-9.261 50.357-15.05 96.315-46.421 132.548-89.485 36.466-43.41 63.207-98.745 74.436-161.141 14.007-76.982 2.315-151.765-28.13-212.656-30.446-60.775-79.761-107.775-141.23-129.19" fill="url(#i)"/><path d="M277.411-4129.106a306.513 306.513 0 0 1 38.549-1.39c34.381 1.158 67.953 8.22 99.556 20.606 61.238 17.828 112.405 56.608 147.25 106.849 44.22 63.9 64.132 144.587 49.199 226.894-14.24 78.14-57.303 144.009-116.457 188.23-29.52 22.11-63.207 38.896-99.209 48.968-35.307 9.724-73.046 13.428-111.595 9.376l-5.557-.694c-13.66-1.737-27.204-4.63-40.516-8.104 49.083-16.206 93.767-47.925 128.959-90.757 35.54-43.296 61.354-97.82 72.467-159.058 13.776-75.709 2.779-149.45-26.394-209.993-29.056-60.428-76.634-107.775-136.252-130.928" fill="url(#j)"/><path d="M286.209-4127.717c13.197-.926 26.51-1.042 39.59-.232 35.424 2.431 69.574 10.997 101.177 25.12 55.335 18.407 101.755 54.756 133.822 101.177 43.874 63.438 63.669 143.43 48.851 225.158-13.891 76.403-55.681 141.114-113.215 184.989-28.71 21.994-61.47 38.78-96.546 49.083-34.266 9.955-70.847 14.239-108.354 11.229-1.736-.116-3.589-.347-5.325-.463-13.313-1.39-26.51-3.82-39.59-6.946 47.925-17.364 91.22-49.43 125.37-91.915 34.497-43.064 59.618-96.894 70.5-157.09 13.544-74.551 3.356-147.134-24.774-207.33-28.014-60.197-73.856-108.007-131.506-132.78" fill="url(#k)"/><path d="M295.123-4126.444c13.66-.579 27.204-.347 40.748.926 36.465 3.589 71.078 13.776 102.797 29.52 49.315 18.985 90.99 53.019 120.393 95.388 43.643 62.975 63.207 142.388 48.505 223.537-13.545 74.783-54.061 138.22-109.975 181.747a293.54 293.54 0 0 1-93.999 49.315c-33.224 10.303-68.763 15.05-105.228 12.966l-5.21-.348c-12.965-1.042-25.93-3.01-38.78-5.788 46.768-18.522 88.674-50.935 121.782-93.189 33.572-42.948 57.882-95.967 68.532-155.006 13.313-73.393 3.82-144.819-23.037-204.668-26.741-59.733-70.847-107.775-126.528-134.4" fill="url(#l)"/><path d="M303.92-4125.17c14.008-.348 28.015.462 41.907 2.083 37.507 4.862 72.699 16.554 104.302 34.034 43.41 19.68 80.223 51.167 106.964 89.716 43.295 62.512 62.743 141.346 48.157 221.801-13.312 73.046-52.44 135.327-106.733 178.506-27.088 21.648-58.112 38.549-91.336 49.546-32.182 10.535-66.564 15.975-102.103 14.702-1.736-.116-3.357-.116-5.093-.231-12.618-.695-25.237-2.316-37.855-4.63 45.495-19.68 86.243-52.441 118.194-94.463 32.53-42.832 56.029-95.157 66.563-152.922 13.081-72.12 4.284-142.504-21.3-202.006-25.583-59.386-67.837-107.775-121.666-136.137" fill="url(#m)"/><path d="M312.719-4123.781c14.47 0 28.824 1.157 42.947 3.357 38.55 6.02 74.32 19.332 105.923 38.549 37.507 20.258 69.573 49.315 93.652 84.043 42.948 62.049 62.28 140.188 47.81 220.065-12.965 71.31-50.704 132.432-103.492 175.264a290.062 290.062 0 0 1-88.79 49.662c-31.024 10.766-64.364 16.786-98.977 16.439-1.62 0-3.357 0-4.977-.116-12.271-.347-24.658-1.505-36.929-3.357 44.337-20.838 83.697-53.946 114.605-95.736 31.488-42.6 54.293-94.23 64.596-150.954 12.85-70.963 4.746-140.189-19.564-199.343-24.426-59.04-64.827-107.775-116.804-137.873" fill="url(#n)"/><path d="M313.76-3538.139c-11.923 0-23.962-.695-36.117-2.2 87.284-44.452 153.732-136.02 173.643-245.763 12.618-69.805 5.21-137.873-17.827-196.68-23.037-58.808-61.817-107.891-111.827-139.726 14.934.347 29.635 1.852 44.106 4.515 39.59 7.293 75.94 22.11 107.543 42.948a295.404 295.404 0 0 1 80.224 78.37c42.6 61.587 61.817 139.147 47.462 218.445-12.618 69.573-49.083 129.538-100.25 172.139-25.468 21.415-54.756 38.317-86.127 49.893-31.604 11.46-65.522 18.059-100.83 18.059" fill="url(#o)"/></svg>