<svg xmlns="http://www.w3.org/2000/svg" viewBox="1095.9 -4246.5 841.9 841.90004" width="841.9" height="841.9"><defs><linearGradient id="o" gradientUnits="userSpaceOnUse" y1="-3739.17" x2="0" y2="-4169.32" gradientTransform="translate(-308.454 759.311) scale(1.155)"><stop stop-color="#cdd929"/><stop offset="1" stop-color="#feff9c"/></linearGradient><linearGradient id="p" gradientUnits="userSpaceOnUse" y1="-3862.88" x2="0" y2="-4034.46" gradientTransform="translate(-308.454 759.311) scale(1.155)"><stop stop-color="#95b9cc"/><stop offset="1" stop-color="#cddee8"/></linearGradient><linearGradient id="r" gradientUnits="userSpaceOnUse" y1="-3864.86" x2="0" y2="-4032.53" gradientTransform="translate(-308.454 759.311) scale(1.155)"><stop stop-color="#99bbce"/><stop offset="1" stop-color="#d3e4ed"/></linearGradient><linearGradient id="s" gradientUnits="userSpaceOnUse" y1="-3865.86" x2="0" y2="-4031.64" gradientTransform="translate(-308.454 759.311) scale(1.155)"><stop stop-color="#9bbccf"/><stop offset="1" stop-color="#d7e6f0"/></linearGradient><linearGradient id="q" gradientUnits="userSpaceOnUse" y1="-3863.87" x2="0" y2="-4033.47" gradientTransform="translate(-308.454 759.311) scale(1.155)"><stop stop-color="#97bacd"/><stop offset="1" stop-color="#d0e1eb"/></linearGradient><linearGradient id="t" gradientUnits="userSpaceOnUse" y1="-3866.85" x2="0" y2="-4030.8" gradientTransform="translate(-308.454 759.311) scale(1.155)"><stop stop-color="#9dbdd0"/><stop offset="1" stop-color="#dae9f2"/></linearGradient><linearGradient id="j" gradientUnits="userSpaceOnUse" x1="1476.55" y1="-3722.14" x2="1520.62" y2="-4162.82" gradientTransform="translate(-308.454 759.311) scale(1.155)"><stop stop-color="#a8b312"/><stop offset="1" stop-color="#ebed62"/></linearGradient><linearGradient id="u" gradientUnits="userSpaceOnUse" y1="-3867.84" x2="0" y2="-4030.02" gradientTransform="translate(-308.454 759.311) scale(1.155)"><stop stop-color="#9fbed0"/><stop offset="1" stop-color="#ddecf5"/></linearGradient><linearGradient id="k" gradientUnits="userSpaceOnUse" x1="1487.12" y1="-3725.26" x2="1522.13" y2="-4163.73" gradientTransform="translate(-308.454 759.311) scale(1.155)"><stop stop-color="#afba17"/><stop offset="1" stop-color="#eef06d"/></linearGradient><linearGradient id="m" gradientUnits="userSpaceOnUse" x1="1499.83" y1="-3731.92" x2="1517.11" y2="-4166.18" gradientTransform="translate(-308.454 759.311) scale(1.155)"><stop stop-color="#beca20"/><stop offset="1" stop-color="#f6f885"/></linearGradient><linearGradient id="n" gradientUnits="userSpaceOnUse" x1="1504.54" y1="-3735.58" x2="1513.12" y2="-4167.81" gradientTransform="translate(-308.454 759.311) scale(1.155)"><stop stop-color="#c6d124"/><stop offset="1" stop-color="#fafb90"/></linearGradient><linearGradient id="l" gradientUnits="userSpaceOnUse" x1="1495.16" y1="-3728.73" x2="1521.25" y2="-4165.08" gradientTransform="translate(-308.454 759.311) scale(1.155)"><stop stop-color="#b7c21b"/><stop offset="1" stop-color="#f2f479"/></linearGradient><linearGradient id="i" gradientUnits="userSpaceOnUse" x1="1465.73" y1="-3719.27" x2="1518.99" y2="-4162.39" gradientTransform="translate(-308.454 759.311) scale(1.155)"><stop stop-color="#a0ab0e"/><stop offset="1" stop-color="#e7e956"/></linearGradient><linearGradient id="v" gradientUnits="userSpaceOnUse" y1="-3868.84" x2="0" y2="-4029.29" gradientTransform="translate(-308.454 759.311) scale(1.155)"><stop stop-color="#a1bfd1"/><stop offset="1" stop-color="#e0eff7"/></linearGradient><linearGradient id="w" gradientUnits="userSpaceOnUse" y1="-3869.83" x2="0" y2="-4028.61" gradientTransform="translate(-308.454 759.311) scale(1.155)"><stop stop-color="#a3c0d2"/><stop offset="1" stop-color="#e4f1fa"/></linearGradient><linearGradient id="h" gradientUnits="userSpaceOnUse" x1="1455.48" y1="-3717.04" x2="1518.15" y2="-4162.94" gradientTransform="translate(-308.454 759.311) scale(1.155)"><stop stop-color="#99a309"/><stop offset="1" stop-color="#e3e54a"/></linearGradient><linearGradient id="x" gradientUnits="userSpaceOnUse" y1="-3870.82" x2="0" y2="-4027.99" gradientTransform="translate(-308.454 759.311) scale(1.155)"><stop stop-color="#a5c1d3"/><stop offset="1" stop-color="#e7f4fc"/></linearGradient><linearGradient id="f" gradientUnits="userSpaceOnUse" x1="1433.66" y1="-3712.45" x2="1515.74" y2="-4165.2" gradientTransform="translate(-308.454 759.311) scale(1.155)"><stop stop-color="#8a9400"/><stop offset="1" stop-color="#dbde33"/></linearGradient><linearGradient id="g" gradientUnits="userSpaceOnUse" x1="1444.59" y1="-3714.62" x2="1516.84" y2="-4163.69" gradientTransform="translate(-308.454 759.311) scale(1.155)"><stop stop-color="#919c05"/><stop offset="1" stop-color="#dfe23f"/></linearGradient><linearGradient id="y" gradientUnits="userSpaceOnUse" y1="-3871.82" x2="0" y2="-4027.42" gradientTransform="translate(-308.454 759.311) scale(1.155)"><stop stop-color="#a7c2d4"/><stop offset="1" stop-color="#eaf7ff"/></linearGradient><linearGradient id="e" gradientUnits="userSpaceOnUse" y1="-4162.06" x2="0" y2="-4212.16"><stop stop-color="#feffba"/><stop offset="1" stop-color="#f0f2ac"/></linearGradient><linearGradient id="c" gradientUnits="userSpaceOnUse" y1="-4167.61" x2="0" y2="-4207.52"><stop stop-color="#f5f798"/><stop offset="1" stop-color="#f0f2ac"/></linearGradient><linearGradient id="d" gradientUnits="userSpaceOnUse" y1="-4173.17" x2="0" y2="-4202.88"><stop stop-color="#edef77"/><stop offset="1" stop-color="#f0f2ac"/></linearGradient><linearGradient id="a" gradientUnits="userSpaceOnUse" y1="-4184.28" x2="0" y2="-4193.6"><stop stop-color="#dbde33"/><stop offset="1" stop-color="#f0f2ac"/></linearGradient><linearGradient id="b" gradientUnits="userSpaceOnUse" y1="-4178.72" x2="0" y2="-4198.24"><stop stop-color="#e4e655"/><stop offset="1" stop-color="#f0f2ac"/></linearGradient></defs><path d="M1370.685-4127.84c-43.66-7.855-86.51-6.122-126.935 3.349 66.99 16.17 121.622 62.023 155.579 123.816 34.188 61.792 47.932 139.755 33.264 220.143-11.897 65.72-40.887 123.123-80.157 166.897-39.386 43.775-89.05 74.036-142.99 85.586 16.17 5.775 32.687 10.741 49.897 13.975 42.273 7.623 84.315 6.353 123.816-2.425 39.5-8.894 76.692-25.41 109.378-48.048 65.489-45.507 113.768-115.847 129.245-200.624 15.361-84.661-4.967-167.59-50.474-233.194-45.622-65.604-115.962-113.999-200.623-129.476" fill="#9cb1bf"/><path d="M1362.6-4137.08c-43.66-7.855-86.51-6.122-126.935 3.349 66.99 16.17 121.622 62.023 155.579 123.816 34.188 61.792 47.932 139.755 33.264 220.143-11.897 65.72-40.887 123.123-80.157 166.897-39.386 43.775-89.05 74.036-142.99 85.586 16.17 5.775 32.687 10.741 49.897 13.975 42.273 7.623 84.315 6.353 123.816-2.425 39.5-8.894 76.692-25.41 109.378-48.048 65.489-45.507 113.768-115.847 129.245-200.624 15.361-84.661-4.967-167.59-50.474-233.194-45.622-65.604-115.962-113.999-200.623-129.476" fill="url(#f)"/><path d="M1244.443-4132.345a295.11 295.11 0 0 1 35.112-4.851c31.185-2.426 62.948-.231 94.595 7.16 78.77 16.055 144.26 62.024 187.11 123.701 45.16 65.027 65.373 147.378 50.127 231.462-15.13 83.16-62.024 152.345-126.01 197.505-31.879 22.523-68.146 39.04-106.723 48.28-38.461 9.008-79.348 10.856-120.697 4.157l-5.89-1.04c-14.785-2.771-28.991-6.93-42.967-11.55 52.668-12.704 101.063-43.312 139.409-86.855 38.346-43.66 66.528-100.254 78.193-164.819 14.438-79.233 1.386-156.04-31.531-217.486-32.802-61.562-85.701-107.762-150.728-125.664" fill="url(#g)"/><path d="M1253.221-4131.075c12.012-1.963 24.024-3.234 36.152-3.696a303.31 303.31 0 0 1 96.211 11.666c72.88 16.632 133.634 60.175 173.712 118.04 44.814 64.565 64.911 146.34 49.78 229.73-14.783 81.428-60.406 149.457-122.776 194.271-31.07 22.407-66.412 38.924-104.18 48.395-37.423 9.24-77.155 11.665-117.58 5.89-1.963-.23-3.811-.577-5.775-.924-14.322-2.425-28.413-6.121-42.157-10.395 51.397-13.86 98.521-44.814 135.828-88.01 37.422-43.544 64.795-99.33 76.23-162.856 14.206-77.962 1.848-153.73-29.8-214.83-31.415-61.1-82.466-107.646-145.645-127.28" fill="url(#h)"/><path d="M1262-4129.689c12.358-1.617 24.832-2.425 37.306-2.54 33.264 0 66.181 5.428 97.713 16.054 66.99 17.21 122.892 58.327 160.314 112.266 44.467 64.218 64.449 145.299 49.434 228.112-14.438 79.695-58.79 146.57-119.427 191.037-30.261 22.176-64.68 38.808-101.525 48.626-36.382 9.47-75.075 12.59-114.46 7.623-1.848-.231-3.812-.462-5.66-.809-13.975-2.079-27.72-5.313-41.233-9.24 50.242-15.015 96.096-46.315 132.247-89.281 36.383-43.313 63.063-98.522 74.267-160.776 13.975-76.808 2.31-151.42-28.067-212.174-30.26-60.637-79.58-107.53-140.91-128.898" fill="url(#i)"/><path d="M1270.777-4128.418a305.842 305.842 0 0 1 38.462-1.386c34.303 1.155 67.798 8.2 99.33 20.559 61.1 17.787 112.15 56.48 146.916 106.606 44.12 63.756 63.987 144.26 49.087 226.38-14.206 77.963-57.172 143.682-116.193 187.803-29.452 22.06-63.063 38.808-98.983 48.857-35.228 9.702-72.88 13.398-111.342 9.355l-5.544-.693c-13.63-1.732-27.143-4.62-40.425-8.085 48.972-16.17 93.555-47.817 128.667-90.552 35.458-43.197 61.215-97.597 72.303-158.697 13.744-75.537 2.772-149.11-26.334-209.517-28.99-60.29-76.461-107.53-135.944-130.63" fill="url(#j)"/><path d="M1279.67-4127.032c13.168-.924 26.45-1.04 39.502-.231 35.343 2.425 69.415 10.972 100.947 25.063 55.209 18.365 101.524 54.632 133.518 100.947 43.774 63.294 63.525 143.105 48.74 224.648-13.86 76.23-55.555 140.794-112.958 184.569-28.644 21.945-61.33 38.692-96.327 48.972-34.188 9.933-70.686 14.206-108.108 11.203-1.733-.115-3.58-.346-5.313-.462-13.283-1.386-26.45-3.811-39.501-6.93 47.817-17.325 91.014-49.318 125.086-91.707 34.42-42.966 59.483-96.673 70.34-156.733 13.513-74.382 3.35-146.8-24.717-206.86s-73.69-107.762-131.208-132.48" fill="url(#k)"/><path d="M1288.449-4125.762c13.629-.577 27.142-.346 40.656.924 36.382 3.58 70.917 13.745 102.564 29.453 49.203 18.942 90.783 52.899 120.12 95.172 43.543 62.832 63.063 142.065 48.394 223.03-13.513 74.613-53.938 137.907-109.725 181.335a292.873 292.873 0 0 1-93.786 49.203c-33.148 10.28-68.607 15.015-104.99 12.936l-5.197-.346c-12.936-1.04-25.872-3.003-38.692-5.775 46.662-18.48 88.473-50.82 121.506-92.978 33.495-42.85 57.75-95.75 68.376-154.654 13.282-73.227 3.811-144.49-22.985-204.204-26.68-59.598-70.57-107.53-126.241-134.096" fill="url(#l)"/><path d="M1297.227-4124.491c13.975-.347 27.95.462 41.81 2.079 37.423 4.85 72.535 16.516 104.066 33.957 43.313 19.635 80.042 51.05 106.722 89.512 43.197 62.37 62.601 141.026 48.048 221.298-13.282 72.88-52.321 135.02-106.49 178.101-27.028 21.599-57.982 38.462-91.13 49.434-32.11 10.51-66.413 15.94-101.871 14.669-1.733-.116-3.35-.116-5.082-.231-12.59-.693-25.18-2.31-37.769-4.62 45.392-19.635 86.048-52.322 117.926-94.248 32.455-42.735 55.902-94.941 66.412-152.576 13.052-71.956 4.274-142.18-21.252-201.547-25.525-59.252-67.683-107.53-121.39-135.828" fill="url(#m)"/><path d="M1306.005-4123.105c14.437 0 28.76 1.155 42.85 3.35 38.462 6.005 74.151 19.288 105.683 38.46 37.422 20.213 69.415 49.204 93.44 83.854 42.85 61.908 62.138 139.87 47.7 219.565-12.935 71.148-50.588 132.132-103.256 174.867a289.4 289.4 0 0 1-88.589 49.55c-30.954 10.741-64.218 16.747-98.752 16.4-1.617 0-3.35 0-4.967-.115-12.243-.346-24.601-1.501-36.844-3.35 44.236-20.79 83.506-53.822 114.345-95.518 31.416-42.504 54.17-94.017 64.449-150.612 12.82-70.801 4.735-139.87-19.52-198.89-24.255-58.906-64.68-107.531-116.54-137.561" fill="url(#n)"/><path d="M1307.044-3538.79c-11.896 0-23.908-.694-36.036-2.195 87.087-44.352 153.384-135.713 173.25-245.207 12.59-69.646 5.198-137.56-17.787-196.234-22.984-58.674-61.677-107.646-111.573-139.409 14.9.347 29.568 1.848 44.006 4.505 39.5 7.276 75.768 22.06 107.3 42.85a294.735 294.735 0 0 1 80.04 78.194c42.505 61.446 61.678 138.83 47.356 217.948-12.59 69.416-48.972 129.245-100.023 171.749-25.41 21.367-54.632 38.23-85.932 49.78-31.532 11.435-65.258 18.018-100.6 18.018" fill="url(#o)"/><path d="M1777.591-3796.933c-3.696 0-7.276.462-10.741 1.155-2.08-22.985-21.137-41.118-44.699-41.118-5.082 0-9.933 1.04-14.437 2.54-9.587-42.734-47.47-74.612-93.093-74.612-38 0-70.686 22.407-86.048 54.747-8.662-7.623-19.866-12.359-32.34-12.359-26.45 0-47.817 20.906-48.972 47.009-10.28-5.775-21.945-9.356-34.534-9.356-39.155 0-70.917 31.763-70.917 70.917 0 39.155 31.762 70.917 70.917 70.917h364.749c30.376 0 54.862-24.601 54.862-54.862.116-30.377-24.486-54.978-54.747-54.978" fill="#9cb1bf"/><path d="M1768.813-3812.064c-3.696 0-7.16.347-10.741 1.155-2.08-23.1-21.137-41.118-44.699-41.118-5.197 0-9.933 1.04-14.437 2.541-9.587-42.735-47.47-74.613-93.093-74.613-38 0-70.686 22.523-85.932 54.747-8.663-7.623-19.866-12.474-32.34-12.474-26.45 0-47.817 20.906-48.972 47.124-10.28-5.775-21.945-9.355-34.535-9.355-39.154 0-70.917 31.762-70.917 70.917 0 39.154 31.763 70.801 70.917 70.801h364.75c30.26 0 54.977-24.601 54.977-54.862-.115-30.261-24.717-54.863-54.978-54.863" fill="url(#p)"/><path d="M1487.802-3880.67c12.358 0 23.215 4.85 31.531 12.127 1.848-3.812 5.082-6.584 7.392-10.049 2.426-3.58 5.66-8.316 8.547-11.434 16.632-19.52 41.003-31.994 68.26-32.687 7.855-.23 15.478.578 22.87 2.195 34.765 7.738 62.37 34.88 70.801 69.762 4.274-.924 8.663-1.27 13.398-.809 2.426 0 5.082 1.502 7.392 1.848 2.195.347 5.66.578 7.739 1.386 2.54.578 4.85 1.502 7.16 2.541 10.627 4.967 18.827 14.438 22.177 25.988.693 2.194 1.386 5.66 1.617 7.97.115.808.577 1.5.577 2.194 1.502-.347 3.927-.693 5.544-.924a48.928 48.928 0 0 1 5.89-.347c16.17 0 30.493 7.739 39.386 19.289 8.778 11.55 12.128 25.987 9.471 39.385 0 26.912-27.95 48.741-54.862 48.741h-349.965c-34.766 0-70.917-28.182-70.917-62.947-3.58-17.44.462-36.152 11.896-51.282 11.435-15.13 30.146-25.18 51.167-25.18 9.586 0 18.71 2.08 27.142 5.891 2.31 1.04 5.544 2.657 7.739 3.927.115-1.848.924-3.35 1.27-5.197.809-4.62 2.426-10.857 4.505-14.9 6.93-16.17 23.215-27.489 42.273-27.489" fill="url(#q)"/><path d="M1487.917-3879.516c12.243 0 22.87 4.967 30.723 11.897 1.617-3.35 5.66-4.62 7.739-7.623 2.079-3.119 5.66-8.778 8.2-11.55 15.94-19.982 39.732-33.033 66.528-34.42 7.623-.346 15.246.116 22.523 1.618 34.65 6.699 62.6 33.264 71.494 67.567 3.927-.23 7.97 0 12.243 1.04 2.08 0 4.736 2.656 6.815 3.003 1.963.346 6.237 0 8.085.693 2.656.346 5.197 1.04 7.623 1.963 11.434 4.39 20.443 14.322 23.562 26.68.577 1.849 1.27 6.353 1.617 8.317.115.693.808 1.155.924 1.848 1.386-.231 4.504-.809 5.89-1.04 2.08-.23 4.043-.462 6.122-.462 17.094 0 32.224 9.24 39.963 22.407 7.738 13.167 8.2 28.298 2.772 40.079 0 23.562-31.3 42.62-54.863 42.62h-335.296c-30.492 0-70.802-24.602-70.802-55.094-7.276-15.246-7.045-34.997 3.003-52.437 9.933-17.44 29.684-29.568 52.206-29.568 9.587 0 18.827 2.194 27.374 6.121 2.079.809 5.89 2.888 7.854 4.043.115-1.617 1.501-2.541 1.848-4.158.693-4.043 2.194-11.666 4.042-15.13 6.353-16.517 22.754-28.414 41.811-28.414" fill="url(#r)"/><path d="M1488.148-3878.36c12.128 0 22.407 4.966 29.915 11.55 1.386-2.888 6.352-2.657 8.085-5.314 1.732-2.656 5.66-9.24 7.854-11.665 15.246-20.444 38.461-33.957 64.795-36.036 7.508-.578 15.015-.231 22.292 1.04 34.534 5.774 62.832 31.53 72.303 65.488 3.58.462 7.276 1.27 11.088 2.887 1.848 0 4.389 3.927 6.121 4.274 1.733.346 6.93-.462 8.432 0 2.887.115 5.544.577 8.085 1.386 12.358 3.696 22.176 14.206 25.063 27.373.578 1.617 1.27 7.046 1.502 8.778.115.578 1.155.924 1.155 1.502 1.155-.231 4.966-.924 6.121-1.04 2.08-.346 4.274-.462 6.468-.462 18.134 0 33.842 10.742 40.425 25.641 6.584 14.784 4.158 30.608-3.811 40.656 0 20.213-34.65 36.498-54.863 36.498h-320.512c-26.103 0-70.802-21.136-70.802-47.24-10.857-13.05-14.437-33.956-5.89-53.591 8.547-19.635 29.221-34.073 53.245-34.073 9.702 0 18.942 2.31 27.49 6.353 1.732.693 6.352 3.234 7.969 4.158.115-1.386 2.194-1.733 2.425-3.119.578-3.465 1.964-12.358 3.58-15.361 5.776-17.21 22.177-29.684 41.465-29.684" fill="url(#s)"/><path d="M1488.38-3877.206c12.127 0 22.06 5.082 29.105 11.32 1.155-2.426 6.93-.694 8.432-2.888 1.501-2.195 5.66-9.818 7.507-11.781 14.553-21.021 37.191-34.997 63.063-37.769a88.075 88.075 0 0 1 22.06.347c34.42 4.85 63.064 29.914 73.112 63.41 3.35 1.039 6.584 2.54 9.933 4.62 1.502 0 4.158 5.197 5.544 5.428 1.386.23 7.508-1.04 8.778-.578 3.003-.115 5.775.116 8.547.809 13.167 3.118 23.793 14.09 26.45 28.182.462 1.386 1.155 7.854 1.386 9.24.115.462 1.386.693 1.501 1.155.924-.231 5.544-1.04 6.468-1.155 2.195-.347 4.505-.578 6.815-.578 19.173 0 35.458 12.359 41.002 28.76 5.544 16.4.231 32.917-10.51 41.349 0 16.863-38 30.492-54.747 30.492h-305.729c-21.714 0-70.801-17.556-70.801-39.386-14.553-10.857-21.945-32.802-14.784-54.747 7.16-21.945 28.76-38.461 54.17-38.461 9.701 0 19.057 2.31 27.72 6.699 1.5.577 6.698 3.465 8.084 4.273 0-1.155 2.772-.924 3.003-1.963.462-2.888 1.733-13.167 3.119-15.593 4.85-18.018 21.367-31.185 40.771-31.185" fill="url(#t)"/><path d="M1488.61-3876.05c12.012 0 21.599 5.081 28.298 10.972.924-1.964 7.623 1.27 8.778-.578 1.155-1.732 5.775-10.28 7.16-11.896 13.745-21.483 35.806-36.036 61.331-39.386 7.277-.924 14.553-1.04 21.83-.23 34.303 3.81 63.294 28.181 73.804 61.33a48.886 48.886 0 0 1 8.778 6.468c1.155 0 3.812 6.352 4.967 6.583 1.155.231 8.085-1.617 9.24-1.27a33.26 33.26 0 0 1 9.009.23c14.09 2.542 25.41 13.976 27.95 28.876.347 1.04 1.156 8.547 1.271 9.702 0 .346 1.733.462 1.733.808.808-.115 6.006-1.155 6.814-1.27 2.31-.347 4.736-.578 7.161-.578 20.097 0 37.076 13.86 41.58 31.878 4.39 18.018-3.696 35.228-17.094 41.927 0 13.398-41.349 24.37-54.747 24.37H1445.53c-17.44 0-70.686-14.09-70.686-31.531-18.134-8.663-29.453-31.647-23.793-55.902 5.66-24.255 28.413-42.85 55.209-42.85 9.702 0 19.173 2.425 27.95 6.93 1.156.461 7.046 3.81 8.201 4.388 0-.924 3.35 0 3.58-.924.347-2.31 1.502-13.86 2.542-15.939 4.042-18.364 20.443-32.109 40.078-32.109" fill="url(#u)"/><path d="M1488.841-3874.896c11.897 0 21.137 5.198 27.49 10.742.692-1.386 8.2 3.118 9.124 1.848.924-1.27 5.775-10.857 6.814-12.012 13.052-21.945 34.535-36.96 59.483-41.118 7.16-1.155 14.322-1.502 21.598-.809 34.188 2.888 63.525 26.565 74.613 59.252 2.657 2.425 5.198 5.082 7.623 8.316.924 0 3.465 7.623 4.39 7.738.808.116 8.777-2.194 9.586-1.848 3.35-.577 6.468-.693 9.47-.346 15.016 1.963 27.143 13.86 29.453 29.568.231.808 1.155 9.24 1.27 10.164 0 .23 2.08.115 2.08.462.577-.116 6.583-1.27 7.16-1.386 2.426-.347 4.967-.693 7.508-.693 21.137 0 38.808 15.361 42.042 35.112 3.35 19.635-7.738 37.537-23.793 42.62 0 10.048-44.583 18.248-54.747 18.248H1453.73c-13.051 0-70.686-10.51-70.686-23.562-21.83-6.583-36.96-30.492-32.686-57.057 4.273-26.565 27.95-47.24 56.248-47.24 9.702 0 19.289 2.542 28.182 7.277.924.347 7.508 4.043 8.316 4.505 0-.693 4.043.808 4.158.115.347-1.732 1.27-14.668 2.08-16.17 3.233-19.288 19.75-33.726 39.5-33.726" fill="url(#v)"/><path d="M1489.072-3873.74c11.781 0 20.79 5.197 26.68 10.394.463-.924 8.779 5.082 9.472 4.274.577-.924 5.775-11.32 6.468-12.128 12.358-22.407 33.264-38 57.75-42.85 6.93-1.386 14.09-1.848 21.367-1.502 34.073 1.964 63.756 24.948 75.422 57.057 2.425 3.119 4.504 6.353 6.468 10.049.577 0 3.118 8.778 3.696 8.893.577.116 9.355-2.656 9.933-2.54 3.58-.81 6.814-1.156 9.933-.925 15.939 1.27 28.76 13.745 30.838 30.261.231.578 1.04 10.049 1.155 10.626 0 .231 2.31-.115 2.426.116.346-.116 7.045-1.386 7.392-1.502a44.141 44.141 0 0 1 7.854-.693c22.06 0 40.425 16.979 42.62 38.23 2.194 21.253-11.666 39.848-30.377 43.198 0 6.699-47.933 12.127-54.747 12.127H1461.93c-8.663 0-70.686-7.045-70.686-15.708-25.41-4.389-44.352-29.452-41.58-58.212 2.887-28.76 27.489-51.744 57.288-51.744 9.817 0 19.288 2.541 28.413 7.508.577.23 7.854 4.389 8.431 4.62 0-.462 4.62 1.617 4.736 1.155.23-1.155 1.155-15.362 1.617-16.401 2.425-19.289 18.942-34.304 38.923-34.304" fill="url(#w)"/><path d="M1489.303-3872.586c11.666 0 20.328 5.313 25.872 10.164.231-.462 9.471 7.046 9.702 6.584.347-.462 5.775-11.897 6.122-12.243 11.665-22.985 31.993-39.04 56.017-44.468 6.815-1.501 13.86-2.31 21.137-2.079 33.957.924 64.102 23.216 76.114 54.978 2.08 3.696 3.927 7.739 5.313 11.897.347 0 2.888 10.048 3.119 10.164.23 0 10.048-3.234 10.28-3.119 3.695-1.04 7.16-1.617 10.394-1.386 16.748.693 30.492 13.745 32.34 30.954.116.231 1.04 10.742 1.04 10.973 0 .115 2.656-.347 2.656-.231.231 0 7.508-1.502 7.739-1.502 2.656-.462 5.313-.808 8.2-.808 23.1 0 42.042 18.48 43.197 41.349 1.155 22.869-15.592 42.157-37.075 43.89 0 3.35-51.282 6.121-54.632 6.121H1470.13c-4.389 0-70.686-3.465-70.686-7.854-29.106-2.194-51.86-28.297-50.473-59.367 1.386-31.07 27.027-56.133 58.327-56.133 9.818 0 19.404 2.657 28.644 7.739.347.115 8.2 4.62 8.547 4.85 0-.23 5.198 2.542 5.313 2.31.116-.577.924-16.17 1.155-16.631 1.617-20.444 18.25-36.152 38.346-36.152" fill="url(#x)"/><path d="M1765.117-3712.618h-357.241c-32.687 0-59.367-27.143-59.367-60.522 0-33.38 26.68-60.522 59.367-60.522 9.817 0 19.52 2.772 28.76 8.085l14.437 8.316.693-16.979c.808-20.79 17.44-37.19 37.768-37.19 11.55 0 19.982 5.312 25.064 9.932l10.048 9.01 5.775-12.36c13.976-30.145 42.735-48.856 75.075-48.856 38.577 0 72.765 28.067 81.197 66.644l2.54 11.319 10.627-3.812c3.927-1.27 7.392-1.963 10.857-1.963 17.671 0 32.109 13.629 33.841 31.647l.924 11.434 11.088-2.194c2.772-.462 5.544-.924 8.547-.924 24.14 0 43.66 19.981 43.66 44.583 0 24.37-19.636 44.352-43.66 44.352" fill="url(#y)"/></svg>