<svg xmlns="http://www.w3.org/2000/svg" viewBox="1095.9 -2648 841.9 841.90004" width="841.9" height="841.9"><defs><linearGradient id="u" gradientUnits="userSpaceOnUse" x1="1450.45" x2="1530.99" gradientTransform="matrix(.90665 .07254 -.0847 .9663 -68.976 329.8)"><stop stop-color="#c2e5ff"/><stop offset="1" stop-color="#a3dbff"/></linearGradient><linearGradient id="v" gradientUnits="userSpaceOnUse" x1="1476.17" x2="1545.77" gradientTransform="matrix(.95723 .06045 -.07058 1.00696 -123.378 374.958)"><stop stop-color="#cceaff"/><stop offset="1" stop-color="#b3e1ff"/></linearGradient><linearGradient id="o" gradientUnits="userSpaceOnUse" y1="-2134.01" x2="0" y2="-2564.16" gradientTransform="matrix(1.21 0 0 1.21 -395.374 600.768)"><stop stop-color="#cdd929"/><stop offset="1" stop-color="#feff9c"/></linearGradient><linearGradient id="w" gradientUnits="userSpaceOnUse" x1="1497.18" x2="1556.85" gradientTransform="matrix(1.0078 .04836 -.05647 1.04762 -177.78 420.127)"><stop stop-color="#d6eeff"/><stop offset="1" stop-color="#c2e7ff"/></linearGradient><linearGradient id="x" gradientUnits="userSpaceOnUse" x1="1514.34" x2="1564.98" gradientTransform="matrix(1.05839 .03626 -.04235 1.08815 -232.181 465.284)"><stop stop-color="#e0f2ff"/><stop offset="1" stop-color="#d1edff"/></linearGradient><linearGradient id="A" gradientUnits="userSpaceOnUse" y1="-2268.26" x2="0" y2="-2439.85" gradientTransform="matrix(1.21 0 0 1.21 -395.374 600.768)"><stop stop-color="#95b9cc"/><stop offset="1" stop-color="#cddee8"/></linearGradient><linearGradient id="y" gradientUnits="userSpaceOnUse" x1="1528.36" x2="1570.72" gradientTransform="matrix(1.10884 .02418 -.02823 1.1288 -286.57 510.441)"><stop stop-color="#ebf6ff"/><stop offset="1" stop-color="#e0f3ff"/></linearGradient><linearGradient id="z" gradientUnits="userSpaceOnUse" x1="1539.78" x2="1574.54" gradientTransform="matrix(1.15942 .01209 -.01412 1.16934 -340.975 555.61)"><stop stop-color="#f5fbff"/><stop offset="1" stop-color="#f0f9ff"/></linearGradient><linearGradient id="t" gradientUnits="userSpaceOnUse" x1="1418.89" x2="1511.59" gradientTransform="matrix(.85608 .08463 -.09882 .92577 -14.575 284.643)"><stop stop-color="#b8e1ff"/><stop offset="1" stop-color="#94d5ff"/></linearGradient><linearGradient id="s" gradientUnits="userSpaceOnUse" x1="1380.11" x2="1486.36" gradientTransform="matrix(.8055 .09672 -.11294 .88511 39.827 239.474)"><stop stop-color="#aeddff"/><stop offset="1" stop-color="#85cfff"/></linearGradient><linearGradient id="r" gradientUnits="userSpaceOnUse" x1="1332.29" x2="1453.79" gradientTransform="matrix(.75504 .1088 -.12705 .84458 94.216 194.317)"><stop stop-color="#a3d9ff"/><stop offset="1" stop-color="#76c9ff"/></linearGradient><linearGradient id="p" gradientUnits="userSpaceOnUse" x1="1199.58" x2="1358.1" gradientTransform="matrix(.65388 .13298 -.15524 .76327 203.02 103.99)"><stop stop-color="#8fd0ff"/><stop offset="1" stop-color="#57bdff"/></linearGradient><linearGradient id="q" gradientUnits="userSpaceOnUse" x1="1273.12" x2="1411.89" gradientTransform="matrix(.70446 .1209 -.1412 .80392 148.618 149.147)"><stop stop-color="#99d4ff"/><stop offset="1" stop-color="#66c3ff"/></linearGradient><linearGradient id="B" gradientUnits="userSpaceOnUse" y1="-2269.26" x2="0" y2="-2438.86" gradientTransform="matrix(1.21 0 0 1.21 -395.374 600.768)"><stop stop-color="#97bacd"/><stop offset="1" stop-color="#d0e1eb"/></linearGradient><linearGradient id="h" gradientUnits="userSpaceOnUse" x1="1455.42" y1="-2111.79" x2="1518.09" y2="-2557.7" gradientTransform="matrix(1.21 0 0 1.21 -395.374 600.768)"><stop stop-color="#99a309"/><stop offset="1" stop-color="#e3e54a"/></linearGradient><linearGradient id="i" gradientUnits="userSpaceOnUse" x1="1465.78" y1="-2114.17" x2="1519.03" y2="-2557.29" gradientTransform="matrix(1.21 0 0 1.21 -395.374 600.768)"><stop stop-color="#a0ab0e"/><stop offset="1" stop-color="#e7e956"/></linearGradient><linearGradient id="C" gradientUnits="userSpaceOnUse" y1="-2270.25" x2="0" y2="-2437.92" gradientTransform="matrix(1.21 0 0 1.21 -395.374 600.768)"><stop stop-color="#99bbce"/><stop offset="1" stop-color="#d3e4ed"/></linearGradient><linearGradient id="j" gradientUnits="userSpaceOnUse" x1="1476.55" y1="-2117" x2="1520.61" y2="-2557.68" gradientTransform="matrix(1.21 0 0 1.21 -395.374 600.768)"><stop stop-color="#a8b312"/><stop offset="1" stop-color="#ebed62"/></linearGradient><linearGradient id="k" gradientUnits="userSpaceOnUse" x1="1487.12" y1="-2120.08" x2="1522.13" y2="-2558.55" gradientTransform="matrix(1.21 0 0 1.21 -395.374 600.768)"><stop stop-color="#afba17"/><stop offset="1" stop-color="#eef06d"/></linearGradient><linearGradient id="n" gradientUnits="userSpaceOnUse" x1="1504.53" y1="-2130.45" x2="1513.12" y2="-2562.69" gradientTransform="matrix(1.21 0 0 1.21 -395.374 600.768)"><stop stop-color="#c6d124"/><stop offset="1" stop-color="#fafb90"/></linearGradient><linearGradient id="l" gradientUnits="userSpaceOnUse" x1="1495.17" y1="-2123.51" x2="1521.25" y2="-2559.87" gradientTransform="matrix(1.21 0 0 1.21 -395.374 600.768)"><stop stop-color="#b7c21b"/><stop offset="1" stop-color="#f2f479"/></linearGradient><linearGradient id="m" gradientUnits="userSpaceOnUse" x1="1499.83" y1="-2126.83" x2="1517.11" y2="-2561.09" gradientTransform="matrix(1.21 0 0 1.21 -395.374 600.768)"><stop stop-color="#beca20"/><stop offset="1" stop-color="#f6f885"/></linearGradient><linearGradient id="g" gradientUnits="userSpaceOnUse" x1="1444.56" y1="-2109.42" x2="1516.81" y2="-2558.49" gradientTransform="matrix(1.21 0 0 1.21 -395.374 600.768)"><stop stop-color="#919c05"/><stop offset="1" stop-color="#dfe23f"/></linearGradient><linearGradient id="D" gradientUnits="userSpaceOnUse" y1="-2271.24" x2="0" y2="-2437.03" gradientTransform="matrix(1.21 0 0 1.21 -395.374 600.768)"><stop stop-color="#9bbccf"/><stop offset="1" stop-color="#d7e6f0"/></linearGradient><linearGradient id="E" gradientUnits="userSpaceOnUse" y1="-2272.24" x2="0" y2="-2436.19" gradientTransform="matrix(1.21 0 0 1.21 -395.374 600.768)"><stop stop-color="#9dbdd0"/><stop offset="1" stop-color="#dae9f2"/></linearGradient><linearGradient id="f" gradientUnits="userSpaceOnUse" x1="1433.66" y1="-2107.29" x2="1515.74" y2="-2560.04" gradientTransform="matrix(1.21 0 0 1.21 -395.374 600.768)"><stop stop-color="#8a9400"/><stop offset="1" stop-color="#dbde33"/></linearGradient><linearGradient id="F" gradientUnits="userSpaceOnUse" y1="-2273.23" x2="0" y2="-2435.4" gradientTransform="matrix(1.21 0 0 1.21 -395.374 600.768)"><stop stop-color="#9fbed0"/><stop offset="1" stop-color="#ddecf5"/></linearGradient><linearGradient id="G" gradientUnits="userSpaceOnUse" y1="-2274.22" x2="0" y2="-2434.67" gradientTransform="matrix(1.21 0 0 1.21 -395.374 600.768)"><stop stop-color="#a1bfd1"/><stop offset="1" stop-color="#e0eff7"/></linearGradient><linearGradient id="J" gradientUnits="userSpaceOnUse" y1="-2277.2" x2="0" y2="-2432.81" gradientTransform="matrix(1.21 0 0 1.21 -395.374 600.768)"><stop stop-color="#a7c2d4"/><stop offset="1" stop-color="#eaf7ff"/></linearGradient><linearGradient id="H" gradientUnits="userSpaceOnUse" y1="-2275.22" x2="0" y2="-2434" gradientTransform="matrix(1.21 0 0 1.21 -395.374 600.768)"><stop stop-color="#a3c0d2"/><stop offset="1" stop-color="#e4f1fa"/></linearGradient><linearGradient id="I" gradientUnits="userSpaceOnUse" y1="-2276.21" x2="0" y2="-2433.38" gradientTransform="matrix(1.21 0 0 1.21 -395.374 600.768)"><stop stop-color="#a5c1d3"/><stop offset="1" stop-color="#e7f4fc"/></linearGradient><linearGradient id="e" gradientUnits="userSpaceOnUse" y1="-2556.9" x2="0" y2="-2607"><stop stop-color="#feffba"/><stop offset="1" stop-color="#f0f2ac"/></linearGradient><linearGradient id="a" gradientUnits="userSpaceOnUse" y1="-2562.45" x2="0" y2="-2602.36"><stop stop-color="#f5f798"/><stop offset="1" stop-color="#f0f2ac"/></linearGradient><linearGradient id="b" gradientUnits="userSpaceOnUse" y1="-2568.01" x2="0" y2="-2597.72"><stop stop-color="#edef77"/><stop offset="1" stop-color="#f0f2ac"/></linearGradient><linearGradient id="c" gradientUnits="userSpaceOnUse" y1="-2573.56" x2="0" y2="-2593.08"><stop stop-color="#e4e655"/><stop offset="1" stop-color="#f0f2ac"/></linearGradient><linearGradient id="d" gradientUnits="userSpaceOnUse" y1="-2579.12" x2="0" y2="-2588.44"><stop stop-color="#dbde33"/><stop offset="1" stop-color="#f0f2ac"/></linearGradient></defs><path d="M1363.724-2576.813c-45.738-8.228-90.629-6.413-132.979 3.509 70.18 16.94 127.413 64.977 162.987 129.712 35.816 64.735 50.215 146.41 34.848 230.626-12.463 68.849-42.834 128.986-83.974 174.845-41.26 45.859-93.29 77.561-149.798 89.661 16.94 6.05 34.243 11.253 52.272 14.641 44.286 7.986 88.33 6.655 129.712-2.541 41.382-9.317 80.344-26.62 114.587-50.336 68.607-47.674 119.185-121.363 135.4-210.177 16.092-88.693-5.204-175.571-52.878-244.299-47.795-68.728-121.484-119.548-210.177-135.641" fill="#9cb1bf"/><path d="M1355.254-2586.493c-45.738-8.228-90.629-6.413-132.979 3.509 70.18 16.94 127.413 64.977 162.987 129.712 35.816 64.735 50.215 146.41 34.848 230.626-12.463 68.849-42.834 128.986-83.974 174.845-41.26 45.859-93.29 77.561-149.798 89.661 16.94 6.05 34.243 11.253 52.272 14.641 44.286 7.986 88.33 6.655 129.712-2.541 41.382-9.317 80.344-26.62 114.587-50.336 68.607-47.674 119.185-121.363 135.4-210.177 16.092-88.693-5.204-175.571-52.878-244.299-47.795-68.728-121.484-119.548-210.177-135.641" fill="url(#f)"/><path d="M1231.471-2581.653a309.163 309.163 0 0 1 36.784-5.082c32.67-2.541 65.945-.242 99.1 7.502 82.521 16.819 151.128 64.977 196.02 129.591 47.31 68.123 68.485 154.396 52.513 242.484-15.85 87.12-64.977 159.599-132.01 206.91-33.397 23.595-71.39 40.898-111.805 50.578-40.293 9.438-83.127 11.374-126.445 4.356l-6.17-1.089c-15.489-2.904-30.372-7.26-45.013-12.1 55.176-13.31 105.875-45.375 146.047-90.992 40.172-45.738 69.696-105.028 81.917-172.667 15.125-83.006 1.452-163.471-33.033-227.843-34.364-64.493-89.782-112.893-157.905-131.648" fill="url(#g)"/><path d="M1240.667-2580.201c12.584-2.057 25.168-3.388 37.873-3.872a317.753 317.753 0 0 1 100.793 12.221c76.351 17.424 139.997 63.041 181.984 123.662 46.948 67.639 68.002 153.307 52.151 240.669-15.488 85.305-63.283 156.574-128.623 203.522-32.549 23.474-69.575 40.777-109.142 50.699-39.204 9.68-80.828 12.221-123.178 6.171-2.057-.242-3.993-.605-6.05-.968-15.004-2.541-29.766-6.413-44.165-10.89 53.845-14.52 103.213-46.948 142.296-92.202 39.204-45.617 67.881-104.06 79.86-170.61 14.883-81.675 1.936-161.051-31.218-225.06-32.912-64.009-86.394-112.772-152.58-133.342" fill="url(#h)"/><path d="M1249.863-2578.87c12.947-1.694 26.015-2.541 39.083-2.662 34.848 0 69.333 5.687 102.366 16.819 70.18 18.029 128.744 61.105 167.948 117.612 46.585 67.276 67.518 152.218 51.788 238.975-15.125 83.49-61.589 153.549-125.114 200.134-31.702 23.232-67.76 40.656-106.359 50.941-38.115 9.922-78.65 13.189-119.91 7.986-1.937-.242-3.994-.484-5.93-.847-14.64-2.178-29.04-5.566-43.197-9.68 52.635-15.73 100.672-48.521 138.545-93.533 38.115-45.375 66.066-103.213 77.803-168.432 14.641-80.465 2.42-158.631-29.403-222.277-31.702-63.525-83.369-112.651-147.62-135.036" fill="url(#i)"/><path d="M1259.06-2577.418a320.405 320.405 0 0 1 40.292-1.452c35.937 1.21 71.027 8.591 104.06 21.538 64.01 18.634 117.491 59.169 153.912 111.683 46.222 66.792 67.034 151.129 51.425 237.16-14.883 81.675-59.895 150.524-121.726 196.746-30.855 23.111-66.066 40.656-103.697 51.183-36.905 10.164-76.35 14.036-116.644 9.801l-5.808-.726c-14.278-1.815-28.435-4.84-42.35-8.47 51.304-16.94 98.01-50.094 134.794-94.864 37.147-45.254 64.13-102.245 75.746-166.254 14.4-79.134 2.904-156.211-27.588-219.494-30.37-63.162-80.102-112.651-142.417-136.851" fill="url(#j)"/><path d="M1268.376-2576.087c13.794-.968 27.71-1.089 41.382-.242 37.026 2.541 72.721 11.495 105.754 26.257 57.838 19.239 106.36 57.233 139.876 105.754 45.86 66.308 66.55 149.919 51.062 235.345-14.52 79.86-58.2 147.499-118.338 193.358-30.008 22.99-64.25 40.535-100.914 51.304-35.816 10.406-74.052 14.883-113.256 11.737-1.815-.121-3.75-.363-5.566-.484-13.915-1.452-27.709-3.993-41.382-7.26 50.094-18.15 95.348-51.667 131.043-96.074 36.058-45.012 62.315-101.277 73.69-164.197 14.156-77.924 3.508-153.791-25.895-216.711-29.403-62.92-77.198-112.772-137.456-138.787" fill="url(#k)"/><path d="M1277.572-2574.635c14.278-.605 28.435-.363 42.592.968 38.115 3.751 74.294 14.399 107.448 30.855 51.546 19.844 95.106 55.418 125.84 99.704 45.617 65.824 66.066 148.83 50.7 233.651-14.158 78.166-56.508 144.474-114.95 189.97a306.82 306.82 0 0 1-98.253 51.546c-34.727 10.769-71.874 15.73-109.989 13.552l-5.445-.363c-13.552-1.089-27.104-3.146-40.535-6.05 48.884-19.36 92.686-53.24 127.292-97.405 35.09-44.891 60.5-100.309 71.632-162.019 13.915-76.714 3.993-151.371-24.079-213.928-27.95-62.436-73.93-112.772-132.253-140.481" fill="url(#l)"/><path d="M1286.768-2573.304c14.641-.363 29.282.484 43.802 2.178 39.204 5.082 75.988 17.303 109.021 35.574 45.375 20.57 83.853 53.482 111.804 93.775 45.254 65.34 65.582 147.741 50.336 231.836-13.915 76.351-54.813 141.449-111.562 186.582-28.314 22.627-60.742 40.293-95.469 51.788-33.638 11.011-69.575 16.698-106.722 15.367-1.815-.121-3.509-.121-5.324-.242-13.189-.726-26.378-2.42-39.567-4.84 47.553-20.57 90.145-54.813 123.541-98.736 34.001-44.77 58.564-99.462 69.575-159.841 13.673-75.383 4.477-148.951-22.264-211.145-26.74-62.073-70.906-112.651-127.17-142.296" fill="url(#m)"/><path d="M1295.964-2571.973c15.125 0 30.13 1.21 44.891 3.388 40.293 6.292 77.682 20.207 110.715 40.293 39.204 21.175 72.721 51.546 97.89 87.846 44.89 64.856 65.097 146.531 49.972 230.021-13.552 74.536-52.998 138.424-108.174 183.194a303.182 303.182 0 0 1-92.807 51.909c-32.428 11.253-67.276 17.545-103.455 17.182-1.694 0-3.509 0-5.203-.121-12.826-.363-25.773-1.573-38.599-3.509 46.343-21.78 87.483-56.386 119.79-100.067 32.912-44.528 56.75-98.494 67.518-157.784 13.431-74.173 4.961-146.531-20.449-208.362-25.41-61.468-67.76-112.53-122.089-143.99" fill="url(#n)"/><path d="M1297.053-1959.713c-12.463 0-25.047-.726-37.752-2.299 91.234-46.464 160.688-142.175 181.5-256.883 13.19-72.963 5.445-144.111-18.634-205.579-24.079-61.468-64.614-112.772-116.886-146.047 15.61.363 30.976 1.936 46.101 4.719 41.382 7.623 79.376 23.111 112.41 44.891a308.77 308.77 0 0 1 83.852 81.917c44.528 64.372 64.614 145.442 49.61 228.327-13.189 72.721-51.304 135.399-104.786 179.927-26.62 22.385-57.233 40.051-90.024 52.151-33.033 11.858-68.365 18.876-105.39 18.876" fill="url(#o)"/><path d="M1567.488-1933.577c-12.22 60.137-42.713 76.351-74.899 69.817-32.186-6.534-53.966-33.396-41.745-93.533 12.221-60.137 86.031-124.267 86.031-124.267s42.834 87.846 30.613 147.983" fill="#9cb1bf"/><path d="M1553.331-1955.115c-12.22 60.137-42.713 76.351-74.899 69.817-32.186-6.534-53.966-33.396-41.624-93.533 12.221-60.137 86.031-124.267 86.031-124.267s42.834 87.846 30.492 147.983" fill="#78b5db"/><path d="M1480.126-1893.163c-34.848-7.018-46.948-34.606-36.905-83.974 8.228-40.293 49.61-87.12 77.077-113.619 15.004 35.09 34.848 94.38 26.62 134.673-10.043 49.489-31.823 70.059-66.792 62.92" fill="url(#p)"/><path d="M1481.094-1902.117c-32.67-6.655-43.923-32.428-34.606-78.65 7.623-37.752 46.464-81.675 72.237-106.48 14.036 32.791 32.55 88.451 24.926 126.203-9.317 46.222-29.766 65.582-62.557 58.927" fill="url(#q)"/><path d="M1482.183-1911.071c-30.492-6.171-41.019-30.25-32.307-73.447 7.14-35.211 43.44-76.109 67.397-99.341 13.068 30.613 30.371 82.522 23.232 117.733-8.712 43.197-27.83 61.226-58.322 55.055" fill="url(#r)"/><path d="M1483.151-1920.025c-28.314-5.687-38.115-28.072-29.887-68.123 6.655-32.67 40.293-70.664 62.557-92.081 12.1 28.435 28.193 76.593 21.538 109.263-8.107 39.93-25.773 56.628-54.208 50.941" fill="url(#s)"/><path d="M1484.24-1929.1c-26.136-5.324-35.09-25.894-27.588-62.799 6.171-30.129 37.147-65.219 57.717-84.942 11.132 26.257 26.015 70.664 19.844 100.793-7.502 36.905-23.837 52.272-49.973 46.948" fill="url(#t)"/><path d="M1485.208-1938.054c-23.958-4.84-32.186-23.716-25.289-57.596 5.566-27.588 34.001-59.774 52.877-77.803 10.285 23.958 23.837 64.735 18.15 92.323-6.776 33.88-21.78 47.916-45.738 43.076" fill="url(#u)"/><path d="M1486.297-1947.008c-21.659-4.477-29.282-21.538-22.99-52.272 5.082-25.047 30.855-54.208 48.037-70.664 9.317 21.78 21.66 58.685 16.577 83.853-6.292 30.613-19.844 43.439-41.624 39.083" fill="url(#v)"/><path d="M1487.265-1955.962c-19.48-3.993-26.257-19.36-20.69-46.948 4.597-22.506 27.708-48.763 43.196-63.525 8.35 19.602 19.481 52.756 14.883 75.383-5.566 27.467-17.787 38.962-37.389 35.09" fill="url(#w)"/><path d="M1488.354-1965.037c-17.303-3.509-23.353-17.182-18.27-41.745 4.113-19.965 24.683-43.318 38.356-56.386 7.381 17.424 17.182 46.827 13.19 66.913-5.083 24.563-15.973 34.727-33.276 31.218" fill="url(#x)"/><path d="M1489.322-1973.991c-15.125-3.146-20.328-15.004-15.972-36.421 3.51-17.545 21.538-37.873 33.517-49.247 6.413 15.246 15.004 40.898 11.495 58.443-4.356 21.417-13.794 30.25-29.04 27.225" fill="url(#y)"/><path d="M1490.411-1982.945c-12.947-2.662-17.424-12.826-13.673-31.097 3.025-15.004 18.392-32.307 28.677-42.108 5.445 12.947 12.826 34.969 9.801 49.973-3.75 18.15-11.858 25.894-24.805 23.232" fill="url(#z)"/><path d="M1491.38-1991.899c-10.77-2.178-14.52-10.648-11.375-25.894 2.541-12.463 15.246-26.862 23.837-34.969 4.477 10.769 10.648 29.04 8.107 41.382-3.025 15.246-9.8 21.659-20.57 19.481" fill="#fff"/><path d="M1790.007-2242.974c-3.872 0-7.623.484-11.253 1.21-2.178-24.079-22.143-43.076-46.827-43.076-5.324 0-10.406 1.089-15.125 2.662-10.043-44.77-49.73-78.166-97.526-78.166-39.809 0-74.052 23.474-90.145 57.354-9.075-7.986-20.812-12.947-33.88-12.947-27.709 0-50.094 21.901-51.304 49.247-10.769-6.05-22.99-9.801-36.179-9.801-41.019 0-74.294 33.275-74.294 74.294s33.275 74.294 74.294 74.294h382.118c31.823 0 57.475-25.773 57.475-57.475.121-31.823-25.652-57.596-57.354-57.596" fill="#9cb1bf"/><path d="M1780.811-2258.825c-3.872 0-7.502.363-11.253 1.21-2.178-24.2-22.143-43.076-46.827-43.076-5.445 0-10.406 1.089-15.125 2.662-10.043-44.77-49.73-78.166-97.526-78.166-39.809 0-74.052 23.595-90.024 57.354-9.075-7.986-20.812-13.068-33.88-13.068-27.709 0-50.094 21.901-51.304 49.368-10.769-6.05-22.99-9.801-36.179-9.801-41.019 0-74.294 33.275-74.294 74.294s33.275 74.173 74.294 74.173h382.118c31.702 0 57.596-25.773 57.596-57.475-.12-31.702-25.894-57.475-57.596-57.475" fill="url(#A)"/><path d="M1486.418-2330.699c12.947 0 24.321 5.082 33.033 12.705 1.936-3.993 5.324-6.897 7.744-10.527 2.541-3.751 5.93-8.712 8.954-11.979 17.424-20.449 42.955-33.517 71.511-34.243 8.228-.242 16.214.605 23.958 2.299 36.421 8.107 65.34 36.542 74.173 73.084 4.477-.968 9.075-1.331 14.036-.847 2.541 0 5.324 1.573 7.744 1.936 2.3.363 5.93.605 8.107 1.452 2.662.605 5.082 1.573 7.502 2.662 11.132 5.203 19.723 15.125 23.232 27.225.726 2.299 1.452 5.929 1.694 8.349.121.847.605 1.573.605 2.299 1.573-.363 4.114-.726 5.808-.968a51.258 51.258 0 0 1 6.171-.363c16.94 0 31.944 8.107 41.261 20.207 9.196 12.1 12.705 27.225 9.922 41.261 0 28.193-29.282 51.062-57.475 51.062h-366.63c-36.42 0-74.294-29.524-74.294-65.945-3.75-18.271.484-37.873 12.463-53.724 11.98-15.851 31.581-26.378 53.603-26.378 10.043 0 19.602 2.178 28.435 6.171 2.42 1.089 5.808 2.783 8.107 4.114.121-1.936.968-3.509 1.331-5.445.847-4.84 2.541-11.374 4.72-15.609 7.26-16.94 24.32-28.798 44.285-28.798" fill="url(#B)"/><path d="M1486.54-2329.489c12.825 0 23.957 5.203 32.185 12.463 1.694-3.509 5.93-4.84 8.107-7.986 2.178-3.267 5.93-9.196 8.591-12.1 16.698-20.933 41.624-34.606 69.696-36.058 7.986-.363 15.972.121 23.595 1.694 36.3 7.018 65.582 34.848 74.9 70.785 4.113-.242 8.348 0 12.825 1.089 2.178 0 4.961 2.783 7.14 3.146 2.056.363 6.533 0 8.47.726 2.782.363 5.444 1.089 7.985 2.057 11.98 4.598 21.417 15.004 24.684 27.951.605 1.936 1.331 6.655 1.694 8.712.121.726.847 1.21.968 1.936 1.452-.242 4.72-.847 6.171-1.089 2.178-.242 4.235-.484 6.413-.484 17.908 0 33.76 9.68 41.866 23.474 8.107 13.794 8.591 29.645 2.904 41.987 0 24.684-32.79 44.649-57.475 44.649h-351.263c-31.944 0-74.173-25.773-74.173-57.717-7.623-15.972-7.38-36.663 3.146-54.934 10.406-18.271 31.097-30.976 54.692-30.976 10.043 0 19.723 2.299 28.677 6.413 2.178.847 6.171 3.025 8.228 4.235.121-1.694 1.573-2.662 1.936-4.356.726-4.235 2.3-12.221 4.235-15.851 6.655-17.303 23.837-29.766 43.802-29.766" fill="url(#C)"/><path d="M1486.781-2328.279c12.705 0 23.474 5.203 31.34 12.1 1.451-3.025 6.654-2.783 8.47-5.566 1.814-2.783 5.928-9.68 8.227-12.221 15.972-21.417 40.293-35.574 67.881-37.752 7.865-.605 15.73-.242 23.353 1.089 36.18 6.05 65.824 33.033 75.746 68.607 3.751.484 7.623 1.331 11.616 3.025 1.936 0 4.598 4.114 6.413 4.477 1.815.363 7.26-.484 8.833 0 3.025.121 5.808.605 8.47 1.452 12.947 3.872 23.232 14.883 26.257 28.677.605 1.694 1.331 7.381 1.573 9.196.121.605 1.21.968 1.21 1.573 1.21-.242 5.203-.968 6.413-1.089 2.178-.363 4.477-.484 6.776-.484 18.997 0 35.453 11.253 42.35 26.862 6.897 15.488 4.356 32.065-3.993 42.592 0 21.175-36.3 38.236-57.475 38.236h-335.775c-27.346 0-74.173-22.143-74.173-49.489-11.374-13.673-15.125-35.574-6.17-56.144 8.953-20.57 30.612-35.695 55.78-35.695 10.164 0 19.844 2.42 28.798 6.655 1.815.726 6.655 3.388 8.35 4.356.12-1.452 2.298-1.815 2.54-3.267.605-3.63 2.057-12.947 3.751-16.093 6.05-17.908 23.232-31.097 43.44-31.097" fill="url(#D)"/><path d="M1487.023-2327.069c12.705 0 23.111 5.324 30.492 11.858 1.21-2.541 7.26-.726 8.833-3.025 1.573-2.299 5.93-10.285 7.865-12.342 15.246-22.022 38.962-36.663 66.066-39.567a92.269 92.269 0 0 1 23.111.363c36.058 5.082 66.066 31.339 76.593 66.429 3.51 1.089 6.897 2.662 10.406 4.84 1.573 0 4.356 5.445 5.808 5.687s7.865-1.089 9.196-.605c3.146-.121 6.05.121 8.954.847 13.794 3.267 24.926 14.762 27.71 29.524.483 1.452 1.21 8.228 1.451 9.68.121.484 1.452.726 1.573 1.21.968-.242 5.808-1.089 6.776-1.21 2.3-.363 4.72-.605 7.14-.605 20.085 0 37.146 12.947 42.954 30.129 5.808 17.182.242 34.485-11.01 43.318 0 17.666-39.81 31.944-57.355 31.944H1433.3c-22.748 0-74.173-18.392-74.173-41.261-15.246-11.374-22.99-34.364-15.488-57.354 7.502-22.99 30.13-40.293 56.75-40.293 10.163 0 19.964 2.42 29.04 7.018 1.572.605 7.017 3.63 8.47 4.477 0-1.21 2.903-.968 3.145-2.057.484-3.025 1.815-13.794 3.267-16.335 5.082-18.876 22.385-32.67 42.713-32.67" fill="url(#E)"/><path d="M1487.265-2325.859c12.584 0 22.627 5.324 29.645 11.495.968-2.057 7.986 1.331 9.196-.605 1.21-1.815 6.05-10.769 7.502-12.463 14.4-22.506 37.51-37.752 64.251-41.261 7.623-.968 15.246-1.089 22.87-.242 35.936 3.993 66.307 29.524 77.318 64.251 3.146 1.815 6.171 3.993 9.196 6.776 1.21 0 3.993 6.655 5.203 6.897 1.21.242 8.47-1.694 9.68-1.331a34.844 34.844 0 0 1 9.438.242c14.762 2.662 26.62 14.641 29.282 30.25.363 1.089 1.21 8.954 1.331 10.164 0 .363 1.815.484 1.815.847.847-.121 6.292-1.21 7.14-1.331 2.42-.363 4.96-.605 7.501-.605 21.054 0 38.841 14.52 43.56 33.396 4.598 18.876-3.872 36.905-17.908 43.923 0 14.036-43.318 25.531-57.354 25.531h-304.799c-18.27 0-74.052-14.762-74.052-33.033-18.997-9.075-30.855-33.154-24.926-58.564 5.93-25.41 29.766-44.891 57.838-44.891 10.164 0 20.086 2.541 29.282 7.26 1.21.484 7.381 3.993 8.591 4.598 0-.968 3.51 0 3.751-.968.363-2.42 1.573-14.52 2.662-16.698 4.235-19.118 21.417-33.638 41.987-33.638" fill="url(#F)"/><path d="M1487.507-2324.649c12.463 0 22.143 5.445 28.798 11.253.726-1.452 8.591 3.267 9.56 1.936.967-1.331 6.05-11.374 7.138-12.584 13.673-22.99 36.18-38.72 62.315-43.076 7.502-1.21 15.004-1.573 22.627-.847 35.816 3.025 66.55 27.83 78.166 62.073 2.783 2.541 5.445 5.324 7.986 8.712.968 0 3.63 7.986 4.598 8.107.847.121 9.196-2.299 10.043-1.936 3.51-.605 6.776-.726 9.922-.363 15.73 2.057 28.435 14.52 30.855 30.976.242.847 1.21 9.68 1.331 10.648 0 .242 2.178.121 2.178.484.605-.121 6.897-1.331 7.502-1.452 2.541-.363 5.203-.726 7.865-.726 22.143 0 40.656 16.093 44.044 36.784 3.51 20.57-8.107 39.325-24.926 44.649 0 10.527-46.706 19.118-57.354 19.118h-289.432c-13.673 0-74.052-11.011-74.052-24.684-22.869-6.897-38.72-31.944-34.243-59.774 4.477-27.83 29.282-49.489 58.927-49.489 10.164 0 20.207 2.662 29.524 7.623.968.363 7.865 4.235 8.712 4.719 0-.726 4.235.847 4.356.121.363-1.815 1.331-15.367 2.178-16.94 3.388-20.207 20.691-35.332 41.382-35.332" fill="url(#G)"/><path d="M1487.75-2323.439c12.341 0 21.78 5.445 27.95 10.89.484-.968 9.196 5.324 9.922 4.477.605-.968 6.05-11.858 6.776-12.705 12.947-23.474 34.848-39.809 60.5-44.891 7.26-1.452 14.762-1.936 22.385-1.573 35.695 2.057 66.792 26.136 79.013 59.774 2.541 3.267 4.72 6.655 6.776 10.527.605 0 3.267 9.196 3.872 9.317.605.121 9.801-2.783 10.406-2.662 3.751-.847 7.14-1.21 10.406-.968 16.698 1.331 30.13 14.399 32.307 31.702.242.605 1.09 10.527 1.21 11.132 0 .242 2.42-.121 2.541.121.363-.121 7.381-1.452 7.744-1.573a46.243 46.243 0 0 1 8.228-.726c23.111 0 42.35 17.787 44.65 40.051 2.298 22.264-12.222 41.745-31.824 45.254 0 7.018-50.215 12.705-57.354 12.705h-273.944c-9.075 0-74.052-7.381-74.052-16.456-26.62-4.598-46.464-30.855-43.56-60.984 3.025-30.129 28.798-54.208 60.016-54.208 10.285 0 20.207 2.662 29.766 7.865.605.242 8.228 4.598 8.833 4.84 0-.484 4.84 1.694 4.961 1.21.242-1.21 1.21-16.093 1.694-17.182 2.541-20.207 19.844-35.937 40.777-35.937" fill="url(#H)"/><path d="M1487.991-2322.229c12.221 0 21.296 5.566 27.104 10.648.242-.484 9.922 7.381 10.164 6.897.363-.484 6.05-12.463 6.413-12.826 12.221-24.079 33.517-40.898 58.685-46.585 7.14-1.573 14.52-2.42 22.143-2.178 35.574.968 67.155 24.321 79.74 57.596 2.177 3.872 4.113 8.107 5.565 12.463.363 0 3.025 10.527 3.267 10.648.242 0 10.527-3.388 10.77-3.267 3.871-1.089 7.501-1.694 10.89-1.452 17.544.726 31.943 14.399 33.88 32.428.12.242 1.088 11.253 1.088 11.495 0 .121 2.783-.363 2.783-.242.242 0 7.865-1.573 8.107-1.573 2.783-.484 5.566-.847 8.591-.847 24.2 0 44.044 19.36 45.254 43.318 1.21 23.958-16.335 44.165-38.84 45.98 0 3.509-53.725 6.413-57.234 6.413h-258.456c-4.598 0-74.052-3.63-74.052-8.228-30.492-2.299-54.329-29.645-52.877-62.194 1.452-32.549 28.314-58.806 61.105-58.806 10.285 0 20.328 2.783 30.008 8.107.363.121 8.591 4.84 8.954 5.082 0-.242 5.445 2.662 5.566 2.42.121-.605.968-16.94 1.21-17.424 1.694-21.417 19.118-37.873 40.172-37.873" fill="url(#I)"/><path d="M1776.94-2154.644h-374.254c-34.243 0-62.194-28.435-62.194-63.404 0-34.969 27.951-63.404 62.194-63.404 10.285 0 20.45 2.904 30.13 8.47l15.124 8.712.726-17.787c.847-21.78 18.271-38.962 39.567-38.962 12.1 0 20.933 5.566 26.257 10.406l10.527 9.438 6.05-12.947c14.641-31.581 44.77-51.183 78.65-51.183 40.414 0 76.23 29.403 85.063 69.817l2.662 11.858 11.132-3.993c4.114-1.331 7.744-2.057 11.374-2.057 18.513 0 33.638 14.278 35.453 33.154l.968 11.979 11.616-2.299c2.904-.484 5.808-.968 8.954-.968 25.29 0 45.738 20.933 45.738 46.706 0 25.531-20.57 46.464-45.738 46.464" fill="url(#J)"/></svg>