<svg xmlns="http://www.w3.org/2000/svg" xmlns:xlink="http://www.w3.org/1999/xlink" viewBox="2239.7 -2648 841.9 841.90004" width="841.9" height="841.9"><defs><linearGradient id="y" gradientUnits="userSpaceOnUse" y1="-2134.01" x2="0" y2="-2564.16" gradientTransform="matrix(1.1 0 0 1.1 -298.186 275.494)"><stop stop-color="#cdd929"/><stop offset="1" stop-color="#feff9c"/></linearGradient><linearGradient id="b" gradientUnits="userSpaceOnUse" y1="-2270.25" x2="0" y2="-2437.92"><stop stop-color="#99bbce"/><stop offset="1" stop-color="#d3e4ed"/></linearGradient><linearGradient id="c" gradientUnits="userSpaceOnUse" y1="-2268.26" x2="0" y2="-2439.85"><stop stop-color="#95b9cc"/><stop offset="1" stop-color="#cddee8"/></linearGradient><linearGradient id="d" gradientUnits="userSpaceOnUse" y1="-2269.26" x2="0" y2="-2438.86"><stop stop-color="#97bacd"/><stop offset="1" stop-color="#d0e1eb"/></linearGradient><linearGradient id="e" gradientUnits="userSpaceOnUse" y1="-2271.24" x2="0" y2="-2437.03"><stop stop-color="#9bbccf"/><stop offset="1" stop-color="#d7e6f0"/></linearGradient><linearGradient id="g" gradientUnits="userSpaceOnUse" y1="-2272.24" x2="0" y2="-2436.19"><stop stop-color="#9dbdd0"/><stop offset="1" stop-color="#dae9f2"/></linearGradient><linearGradient id="h" gradientUnits="userSpaceOnUse" y1="-2275.22" x2="0" y2="-2434"><stop stop-color="#a3c0d2"/><stop offset="1" stop-color="#e4f1fa"/></linearGradient><linearGradient id="i" gradientUnits="userSpaceOnUse" y1="-2273.23" x2="0" y2="-2435.4"><stop stop-color="#9fbed0"/><stop offset="1" stop-color="#ddecf5"/></linearGradient><linearGradient id="j" gradientUnits="userSpaceOnUse" y1="-2274.22" x2="0" y2="-2434.67"><stop stop-color="#a1bfd1"/><stop offset="1" stop-color="#e0eff7"/></linearGradient><linearGradient id="J" gradientUnits="userSpaceOnUse" x1="2687.02" x2="2721.78" gradientTransform="matrix(1.05402 .01099 -.01284 1.06304 -248.732 234.442)"><stop stop-color="#f5fbff"/><stop offset="1" stop-color="#f0f9ff"/></linearGradient><linearGradient id="I" gradientUnits="userSpaceOnUse" x1="2729.15" x2="2771.51" gradientTransform="matrix(1.00804 .02198 -.02566 1.02619 -199.274 193.379)"><stop stop-color="#ebf6ff"/><stop offset="1" stop-color="#e0f3ff"/></linearGradient><linearGradient id="C" gradientUnits="userSpaceOnUse" x1="3027.84" x2="3134.09" gradientTransform="matrix(.73227 .08792 -.10267 .80465 97.451 -52.955)"><stop stop-color="#aeddff"/><stop offset="1" stop-color="#85cfff"/></linearGradient><linearGradient id="A" gradientUnits="userSpaceOnUse" x1="3140.18" x2="3278.95" gradientTransform="matrix(.64042 .10991 -.12837 .73084 196.352 -135.07)"><stop stop-color="#99d4ff"/><stop offset="1" stop-color="#66c3ff"/></linearGradient><linearGradient id="B" gradientUnits="userSpaceOnUse" x1="3083.86" x2="3205.35" gradientTransform="matrix(.6864 .09891 -.1155 .7678 146.896 -94.007)"><stop stop-color="#a3d9ff"/><stop offset="1" stop-color="#76c9ff"/></linearGradient><linearGradient id="D" gradientUnits="userSpaceOnUse" x1="2973.02" x2="3065.71" gradientTransform="matrix(.77825 .07693 -.08984 .84161 47.995 -11.892)"><stop stop-color="#b8e1ff"/><stop offset="1" stop-color="#94d5ff"/></linearGradient><linearGradient id="E" gradientUnits="userSpaceOnUse" x1="2919.93" x2="3000.48" gradientTransform="matrix(.82423 .06595 -.077 .87846 -1.46 29.16)"><stop stop-color="#c2e5ff"/><stop offset="1" stop-color="#a3dbff"/></linearGradient><linearGradient id="H" gradientUnits="userSpaceOnUse" x1="2773.48" x2="2824.11" gradientTransform="matrix(.96217 .03297 -.0385 .98923 -149.829 152.327)"><stop stop-color="#e0f2ff"/><stop offset="1" stop-color="#d1edff"/></linearGradient><linearGradient id="F" gradientUnits="userSpaceOnUse" x1="2868.89" x2="2938.49" gradientTransform="matrix(.87021 .05496 -.06416 .91542 -50.917 70.212)"><stop stop-color="#cceaff"/><stop offset="1" stop-color="#b3e1ff"/></linearGradient><linearGradient id="G" gradientUnits="userSpaceOnUse" x1="2820.06" x2="2879.73" gradientTransform="matrix(.91619 .04397 -.05134 .95238 -100.373 111.275)"><stop stop-color="#d6eeff"/><stop offset="1" stop-color="#c2e7ff"/></linearGradient><linearGradient id="f" gradientUnits="userSpaceOnUse" y1="-2276.21" x2="0" y2="-2433.38"><stop stop-color="#a5c1d3"/><stop offset="1" stop-color="#e7f4fc"/></linearGradient><linearGradient id="a" gradientUnits="userSpaceOnUse" y1="-2277.2" x2="0" y2="-2432.81"><stop stop-color="#a7c2d4"/><stop offset="1" stop-color="#eaf7ff"/></linearGradient><linearGradient id="s" gradientUnits="userSpaceOnUse" x1="2604.94" y1="-2114.21" x2="2658.2" y2="-2557.32" gradientTransform="matrix(1.1 0 0 1.1 -298.186 275.494)"><stop stop-color="#a0ab0e"/><stop offset="1" stop-color="#e7e956"/></linearGradient><linearGradient id="q" gradientUnits="userSpaceOnUse" x1="2583.8" y1="-2109.4" x2="2656.05" y2="-2558.47" gradientTransform="matrix(1.1 0 0 1.1 -298.186 275.494)"><stop stop-color="#919c05"/><stop offset="1" stop-color="#dfe23f"/></linearGradient><linearGradient id="r" gradientUnits="userSpaceOnUse" x1="2594.69" y1="-2111.75" x2="2657.36" y2="-2557.66" gradientTransform="matrix(1.1 0 0 1.1 -298.186 275.494)"><stop stop-color="#99a309"/><stop offset="1" stop-color="#e3e54a"/></linearGradient><linearGradient id="t" gradientUnits="userSpaceOnUse" x1="2615.74" y1="-2117" x2="2659.81" y2="-2557.68" gradientTransform="matrix(1.1 0 0 1.1 -298.186 275.494)"><stop stop-color="#a8b312"/><stop offset="1" stop-color="#ebed62"/></linearGradient><linearGradient id="u" gradientUnits="userSpaceOnUse" x1="2626.34" y1="-2120.08" x2="2661.35" y2="-2558.55" gradientTransform="matrix(1.1 0 0 1.1 -298.186 275.494)"><stop stop-color="#afba17"/><stop offset="1" stop-color="#eef06d"/></linearGradient><linearGradient id="x" gradientUnits="userSpaceOnUse" x1="2643.72" y1="-2130.45" x2="2652.3" y2="-2562.69" gradientTransform="matrix(1.1 0 0 1.1 -298.186 275.494)"><stop stop-color="#c6d124"/><stop offset="1" stop-color="#fafb90"/></linearGradient><linearGradient id="v" gradientUnits="userSpaceOnUse" x1="2634.41" y1="-2123.52" x2="2660.5" y2="-2559.87" gradientTransform="matrix(1.1 0 0 1.1 -298.186 275.494)"><stop stop-color="#b7c21b"/><stop offset="1" stop-color="#f2f479"/></linearGradient><linearGradient id="w" gradientUnits="userSpaceOnUse" x1="2638.99" y1="-2126.83" x2="2656.27" y2="-2561.09" gradientTransform="matrix(1.1 0 0 1.1 -298.186 275.494)"><stop stop-color="#beca20"/><stop offset="1" stop-color="#f6f885"/></linearGradient><linearGradient id="p" gradientUnits="userSpaceOnUse" x1="2572.87" y1="-2107.29" x2="2654.95" y2="-2560.04" gradientTransform="matrix(1.1 0 0 1.1 -298.186 275.494)"><stop stop-color="#8a9400"/><stop offset="1" stop-color="#dbde33"/></linearGradient><linearGradient id="ad" gradientUnits="userSpaceOnUse" y1="-2102.4" x2="0" y2="-2315.5" xlink:href="#a" gradientTransform="matrix(1.1 0 0 1.1 -298.186 275.494)"/><linearGradient id="W" gradientUnits="userSpaceOnUse" y1="-2092.81" x2="0" y2="-2322.51" xlink:href="#b" gradientTransform="matrix(1.1 0 0 1.1 -298.186 275.494)"/><linearGradient id="U" gradientUnits="userSpaceOnUse" y1="-2090.07" x2="0" y2="-2325.15" xlink:href="#c" gradientTransform="matrix(1.1 0 0 1.1 -298.186 275.494)"/><linearGradient id="V" gradientUnits="userSpaceOnUse" y1="-2091.44" x2="0" y2="-2323.79" xlink:href="#d" gradientTransform="matrix(1.1 0 0 1.1 -298.186 275.494)"/><linearGradient id="X" gradientUnits="userSpaceOnUse" y1="-2094.18" x2="0" y2="-2321.29" xlink:href="#e" gradientTransform="matrix(1.1 0 0 1.1 -298.186 275.494)"/><linearGradient id="ac" gradientUnits="userSpaceOnUse" y1="-2101.03" x2="0" y2="-2316.28" xlink:href="#f" gradientTransform="matrix(1.1 0 0 1.1 -298.186 275.494)"/><linearGradient id="Y" gradientUnits="userSpaceOnUse" y1="-2095.55" x2="0" y2="-2320.14" xlink:href="#g" gradientTransform="matrix(1.1 0 0 1.1 -298.186 275.494)"/><linearGradient id="ab" gradientUnits="userSpaceOnUse" y1="-2099.66" x2="0" y2="-2317.14" xlink:href="#h" gradientTransform="matrix(1.1 0 0 1.1 -298.186 275.494)"/><linearGradient id="Z" gradientUnits="userSpaceOnUse" y1="-2096.92" x2="0" y2="-2319.06" xlink:href="#i" gradientTransform="matrix(1.1 0 0 1.1 -298.186 275.494)"/><linearGradient id="aa" gradientUnits="userSpaceOnUse" y1="-2098.29" x2="0" y2="-2318.06" xlink:href="#j" gradientTransform="matrix(1.1 0 0 1.1 -298.186 275.494)"/><linearGradient id="z" gradientUnits="userSpaceOnUse" x1="3195.42" x2="3353.94" gradientTransform="matrix(.59444 .12089 -.14113 .69388 245.808 -176.122)"><stop stop-color="#8fd0ff"/><stop offset="1" stop-color="#57bdff"/></linearGradient><linearGradient id="l" gradientUnits="userSpaceOnUse" y1="-2568.01" x2="0" y2="-2597.72"><stop stop-color="#edef77"/><stop offset="1" stop-color="#f0f2ac"/></linearGradient><linearGradient id="m" gradientUnits="userSpaceOnUse" y1="-2556.9" x2="0" y2="-2607"><stop stop-color="#feffba"/><stop offset="1" stop-color="#f0f2ac"/></linearGradient><linearGradient id="n" gradientUnits="userSpaceOnUse" y1="-2562.45" x2="0" y2="-2602.36"><stop stop-color="#f5f798"/><stop offset="1" stop-color="#f0f2ac"/></linearGradient><linearGradient id="o" gradientUnits="userSpaceOnUse" y1="-2573.56" x2="0" y2="-2593.08"><stop stop-color="#e4e655"/><stop offset="1" stop-color="#f0f2ac"/></linearGradient><linearGradient id="k" gradientUnits="userSpaceOnUse" y1="-2579.12" x2="0" y2="-2588.44"><stop stop-color="#dbde33"/><stop offset="1" stop-color="#f0f2ac"/></linearGradient><linearGradient xlink:href="#c" id="K" gradientUnits="userSpaceOnUse" y1="-2268.26" x2="0" y2="-2439.85" gradientTransform="matrix(1.1 0 0 1.1 -298.186 275.494)"/><linearGradient xlink:href="#d" id="L" gradientUnits="userSpaceOnUse" y1="-2269.26" x2="0" y2="-2438.86" gradientTransform="matrix(1.1 0 0 1.1 -298.186 275.494)"/><linearGradient xlink:href="#b" id="M" gradientUnits="userSpaceOnUse" y1="-2270.25" x2="0" y2="-2437.92" gradientTransform="matrix(1.1 0 0 1.1 -298.186 275.494)"/><linearGradient xlink:href="#e" id="N" gradientUnits="userSpaceOnUse" y1="-2271.24" x2="0" y2="-2437.03" gradientTransform="matrix(1.1 0 0 1.1 -298.186 275.494)"/><linearGradient xlink:href="#g" id="O" gradientUnits="userSpaceOnUse" y1="-2272.24" x2="0" y2="-2436.19" gradientTransform="matrix(1.1 0 0 1.1 -298.186 275.494)"/><linearGradient xlink:href="#i" id="P" gradientUnits="userSpaceOnUse" y1="-2273.23" x2="0" y2="-2435.4" gradientTransform="matrix(1.1 0 0 1.1 -298.186 275.494)"/><linearGradient xlink:href="#j" id="Q" gradientUnits="userSpaceOnUse" y1="-2274.22" x2="0" y2="-2434.67" gradientTransform="matrix(1.1 0 0 1.1 -298.186 275.494)"/><linearGradient xlink:href="#h" id="R" gradientUnits="userSpaceOnUse" y1="-2275.22" x2="0" y2="-2434" gradientTransform="matrix(1.1 0 0 1.1 -298.186 275.494)"/><linearGradient xlink:href="#f" id="S" gradientUnits="userSpaceOnUse" y1="-2276.21" x2="0" y2="-2433.38" gradientTransform="matrix(1.1 0 0 1.1 -298.186 275.494)"/><linearGradient xlink:href="#a" id="T" gradientUnits="userSpaceOnUse" y1="-2277.2" x2="0" y2="-2432.81" gradientTransform="matrix(1.1 0 0 1.1 -298.186 275.494)"/></defs><path d="M2554.114-2613.216c-41.58-7.48-82.39-5.83-120.89 3.19 63.8 15.4 115.83 59.07 148.17 117.92 32.56 58.85 45.65 133.1 31.68 209.66-11.33 62.59-38.94 117.26-76.34 158.95-37.51 41.69-84.81 70.51-136.18 81.51 15.4 5.5 31.13 10.23 47.52 13.31 40.26 7.26 80.3 6.05 117.92-2.31 37.62-8.47 73.04-24.2 104.17-45.76 62.37-43.34 108.35-110.33 123.09-191.07 14.63-80.63-4.73-159.61-48.07-222.09-43.45-62.48-110.44-108.68-191.07-123.31" fill="#9cb1bf"/><path d="M2546.414-2622.016c-41.58-7.48-82.39-5.83-120.89 3.19 63.8 15.4 115.83 59.07 148.17 117.92 32.56 58.85 45.65 133.1 31.68 209.66-11.33 62.59-38.94 117.26-76.34 158.95-37.51 41.69-84.81 70.51-136.18 81.51 15.4 5.5 31.13 10.23 47.52 13.31 40.26 7.26 80.3 6.05 117.92-2.31 37.62-8.47 73.04-24.2 104.17-45.76 62.37-43.34 108.35-110.33 123.09-191.07 14.63-80.63-4.73-159.61-48.07-222.09-43.45-62.48-110.44-108.68-191.07-123.31" fill="url(#p)"/><path d="M2433.884-2617.616c11-2.2 22.11-3.74 33.44-4.62 29.7-2.31 59.95-.22 90.09 6.82 75.02 15.29 137.39 59.07 178.2 117.81 43.01 61.93 62.26 140.36 47.74 220.44-14.41 79.2-59.07 145.09-120.01 188.1-30.36 21.45-64.9 37.18-101.64 45.98-36.63 8.58-75.57 10.34-114.95 3.96l-5.61-.99c-14.08-2.64-27.61-6.6-40.92-11 50.16-12.1 96.25-41.25 132.77-82.72 36.52-41.58 63.36-95.48 74.47-156.97 13.75-75.46 1.32-148.61-30.03-207.13-31.24-58.63-81.51-102.63-143.55-119.68" fill="url(#q)"/><path d="M2442.244-2616.296c11.44-1.87 22.88-3.08 34.43-3.52 30.69-1.21 61.49 2.42 91.63 11.11 69.41 15.84 127.27 57.31 165.44 112.42 42.68 61.49 61.82 139.37 47.41 218.79-14.08 77.55-57.53 142.34-116.93 185.02-29.59 21.34-63.25 37.07-99.22 46.09-35.64 8.8-73.48 11.11-111.98 5.61-1.87-.22-3.63-.55-5.5-.88-13.64-2.31-27.06-5.83-40.15-9.9 48.95-13.2 93.83-42.68 129.36-83.82 35.64-41.47 61.71-94.6 72.6-155.1 13.53-74.25 1.76-146.41-28.38-204.6-29.92-58.19-78.54-102.52-138.71-121.22" fill="url(#r)"/><path d="M2450.604-2615.086c11.77-1.54 23.65-2.31 35.53-2.42 31.68 0 63.03 5.17 93.06 15.29 63.8 16.39 117.04 55.55 152.68 106.92 42.35 61.16 61.38 138.38 47.08 217.25-13.75 75.9-55.99 139.59-113.74 181.94-28.82 21.12-61.6 36.96-96.69 46.31-34.65 9.02-71.5 11.99-109.01 7.26-1.76-.22-3.63-.44-5.39-.77-13.31-1.98-26.4-5.06-39.27-8.8 47.85-14.3 91.52-44.11 125.95-85.03 34.65-41.25 60.06-93.83 70.73-153.12 13.31-73.15 2.2-144.21-26.73-202.07-28.82-57.75-75.79-102.41-134.2-122.76" fill="url(#s)"/><path d="M2459.074-2613.766c12.21-1.21 24.42-1.65 36.63-1.32 32.67 1.1 64.57 7.81 94.6 19.58 58.19 16.94 106.81 53.79 139.92 101.53 42.02 60.72 60.94 137.39 46.75 215.6-13.53 74.25-54.45 136.84-110.66 178.86-28.05 21.01-60.06 36.96-94.27 46.53-33.55 9.24-69.41 12.76-106.04 8.91l-5.28-.66c-12.98-1.65-25.85-4.4-38.5-7.7 46.64-15.4 89.1-45.54 122.54-86.24 33.77-41.14 58.3-92.95 68.86-151.14 13.09-71.94 2.64-142.01-25.08-199.54-27.72-57.42-72.93-102.41-129.47-124.41" fill="url(#t)"/><path d="M2467.434-2612.556c12.54-.88 25.19-.99 37.62-.22 33.66 2.31 66.11 10.45 96.14 23.87 52.58 17.49 96.69 52.03 127.16 96.14 41.69 60.28 60.5 136.29 46.42 213.95-13.2 72.6-52.91 134.09-107.58 175.78-27.28 20.9-58.41 36.85-91.74 46.64-32.56 9.46-67.32 13.53-102.96 10.67-1.65-.11-3.41-.33-5.06-.44-12.65-1.32-25.19-3.63-37.62-6.6 45.54-16.5 86.68-46.97 119.13-87.34 32.78-40.92 56.65-92.07 66.99-149.27 12.87-70.84 3.19-139.81-23.54-197.01-26.62-57.2-70.18-102.52-124.96-126.17" fill="url(#u)"/><path d="M2475.794-2611.236c12.98-.55 25.85-.33 38.72.88 34.65 3.41 67.54 13.09 97.68 28.05 46.86 18.04 86.46 50.38 114.4 90.64 41.47 59.84 60.06 135.3 46.09 212.41-12.87 71.06-51.37 131.34-104.5 172.7a278.927 278.927 0 0 1-89.32 46.86c-31.57 9.79-65.34 14.3-99.99 12.32l-4.95-.33c-12.32-.99-24.64-2.86-36.85-5.5 44.44-17.6 84.26-48.4 115.72-88.55 31.9-40.81 55-91.19 65.12-147.29 12.65-69.74 3.63-137.61-21.89-194.48-25.41-56.76-67.21-102.52-120.23-127.71" fill="url(#v)"/><path d="M2484.154-2610.026c13.31-.33 26.62.44 39.82 1.98 35.64 4.62 69.08 15.73 99.11 32.34 41.25 18.7 76.23 48.62 101.64 85.25 41.14 59.4 59.62 134.31 45.76 210.76-12.65 69.41-49.83 128.59-101.42 169.62-25.74 20.57-55.22 36.63-86.79 47.08-30.58 10.01-63.25 15.18-97.02 13.97-1.65-.11-3.19-.11-4.84-.22-11.99-.66-23.98-2.2-35.97-4.4 43.23-18.7 81.95-49.83 112.31-89.76 30.91-40.7 53.24-90.42 63.25-145.31 12.43-68.53 4.07-135.41-20.24-191.95-24.31-56.43-64.46-102.41-115.61-129.36" fill="url(#w)"/><path d="M2492.624-2608.816c13.75 0 27.39 1.1 40.81 3.08 36.63 5.72 70.62 18.37 100.65 36.63 35.64 19.25 66.11 46.86 88.99 79.86 40.81 58.96 59.18 133.21 45.43 209.11-12.32 67.76-48.18 125.84-98.34 166.54a275.62 275.62 0 0 1-84.37 47.19c-29.48 10.23-61.16 15.95-94.05 15.62-1.54 0-3.19 0-4.73-.11-11.66-.33-23.43-1.43-35.09-3.19 42.13-19.8 79.53-51.26 108.9-90.97 29.92-40.48 51.59-89.54 61.38-143.44 12.21-67.43 4.51-133.21-18.59-189.42-23.21-55.88-61.71-102.3-110.99-130.9" fill="url(#x)"/><path d="M2493.504-2052.216c-11.33 0-22.77-.66-34.32-2.09 82.94-42.24 146.08-129.25 165-233.53 11.99-66.33 4.95-131.01-16.94-186.89-21.89-55.88-58.74-102.52-106.26-132.77 14.19.33 28.16 1.76 41.91 4.29 37.62 6.93 72.16 21.01 102.19 40.81a280.7 280.7 0 0 1 76.23 74.47c40.48 58.52 58.74 132.22 45.1 207.57-11.99 66.11-46.64 123.09-95.26 163.57-24.2 20.35-52.03 36.41-81.84 47.41-29.81 11-62.15 17.16-95.81 17.16" fill="url(#y)"/><path d="M2693.924-1892.056c-11.11 54.67-38.83 69.41-68.09 63.47-29.26-5.94-49.06-30.36-37.95-85.03s78.21-112.97 78.21-112.97 39.05 79.86 27.83 134.53" fill="#9cb1bf"/><path d="M2681.164-1911.636c-11.11 54.67-38.83 69.41-68.09 63.47-29.26-5.94-49.06-30.36-37.84-85.03 11.11-54.67 78.21-112.97 78.21-112.97s38.83 79.86 27.72 134.53" fill="#78b5db"/><path d="M2614.504-1855.316c-31.68-6.38-42.68-31.46-33.55-76.34 7.48-36.63 45.1-79.2 70.07-103.29 13.64 31.9 31.68 85.8 24.2 122.43-9.02 44.99-28.93 63.69-60.72 57.2" fill="url(#z)"/><path d="M2615.494-1863.456c-29.7-6.05-39.93-29.48-31.46-71.5 6.93-34.32 42.24-74.25 65.67-96.8 12.76 29.81 29.59 80.41 22.66 114.73-8.47 42.02-27.17 59.62-56.87 53.57" fill="url(#A)"/><path d="M2616.374-1871.596c-27.72-5.61-37.29-27.5-29.37-66.77 6.49-32.01 39.49-69.19 61.27-90.31 11.88 27.83 27.61 75.02 21.12 107.03-7.81 39.27-25.19 55.66-53.02 50.05" fill="url(#B)"/><path d="M2617.364-1879.736c-25.74-5.17-34.65-25.52-27.17-61.93 6.05-29.7 36.63-64.24 56.87-83.71 11 25.85 25.63 69.63 19.58 99.33-7.37 36.3-23.54 51.48-49.28 46.31" fill="url(#C)"/><path d="M2618.244-1887.986c-23.76-4.84-31.9-23.54-25.08-57.09 5.61-27.39 33.77-59.29 52.47-77.22 10.12 23.87 23.65 64.24 18.04 91.63-6.82 33.55-21.67 47.52-45.43 42.68" fill="url(#D)"/><path d="M2619.234-1896.126c-21.78-4.4-29.26-21.56-22.99-52.36 5.06-25.08 30.91-54.34 48.07-70.73 9.35 21.78 21.67 58.85 16.5 83.93-6.27 30.8-19.8 43.56-41.58 39.16" fill="url(#E)"/><path d="M2620.114-1904.266c-19.69-4.07-26.62-19.58-20.9-47.52 4.62-22.77 28.05-49.28 43.67-64.24 8.47 19.8 19.69 53.35 15.07 76.23-5.72 27.83-18.04 39.49-37.84 35.53" fill="url(#F)"/><path d="M2621.104-1912.406c-17.71-3.63-23.87-17.6-18.81-42.68 4.18-20.46 25.19-44.33 39.27-57.75 7.59 17.82 17.71 47.96 13.53 68.53-5.17 24.97-16.28 35.42-33.99 31.9" fill="url(#G)"/><path d="M2621.984-1920.656c-15.73-3.19-21.23-15.62-16.61-37.95 3.74-18.15 22.44-39.38 34.87-51.26 6.71 15.84 15.62 42.57 11.99 60.83-4.62 22.33-14.41 31.57-30.25 28.38" fill="url(#H)"/><path d="M2622.974-1928.796c-13.75-2.86-18.48-13.64-14.52-33.11 3.19-15.95 19.58-34.43 30.47-44.77 5.83 13.86 13.64 37.18 10.45 53.13-4.07 19.47-12.65 27.5-26.4 24.75" fill="url(#I)"/><path d="M2623.854-1936.936c-11.77-2.42-15.84-11.66-12.43-28.27 2.75-13.64 16.72-29.37 26.07-38.28 4.95 11.77 11.66 31.79 8.91 45.43-3.41 16.5-10.78 23.54-22.55 21.12" fill="url(#J)"/><path d="M2624.844-1945.076c-9.79-1.98-13.2-9.68-10.34-23.54 2.31-11.33 13.86-24.42 21.67-31.79 4.07 9.79 9.68 26.4 7.37 37.62-2.86 13.86-8.91 19.69-18.7 17.71" fill="#fff"/><path d="M2956.384-2309.726c-3.52 0-6.93.44-10.23 1.1-1.98-21.89-20.13-39.16-42.57-39.16-4.84 0-9.46.99-13.75 2.42-9.13-40.7-45.21-71.06-88.66-71.06-36.19 0-67.32 21.34-81.95 52.14-8.25-7.26-18.92-11.77-30.8-11.77-25.19 0-45.54 19.91-46.64 44.77-9.79-5.5-20.9-8.91-32.89-8.91-37.29 0-67.54 30.25-67.54 67.54 0 37.29 30.25 67.54 67.54 67.54h347.38c28.93 0 52.25-23.43 52.25-52.25.22-28.93-23.21-52.36-52.14-52.36" fill="#9cb1bf"/><path d="M2948.024-2324.136c-3.52 0-6.82.33-10.23 1.1-1.98-22-20.13-39.16-42.57-39.16-4.95 0-9.46.99-13.75 2.42-9.13-40.7-45.21-71.06-88.66-71.06-36.19 0-67.32 21.45-81.84 52.14-8.25-7.26-18.92-11.88-30.8-11.88-25.19 0-45.54 19.91-46.64 44.88-9.79-5.5-20.9-8.91-32.89-8.91-37.29 0-67.54 30.25-67.54 67.54 0 37.29 30.25 67.43 67.54 67.43h347.38c28.82 0 52.36-23.43 52.36-52.25s-23.43-52.25-52.36-52.25" fill="url(#K)"/><path d="M2680.394-2389.476c11.77 0 22.11 4.62 30.03 11.55 1.76-3.63 4.84-6.27 7.04-9.57 2.31-3.41 5.39-7.92 8.14-10.89 15.84-18.59 39.05-30.47 65.01-31.13 7.48-.22 14.74.55 21.78 2.09 33.11 7.37 59.4 33.22 67.43 66.44 4.07-.88 8.25-1.21 12.76-.77 2.31 0 4.84 1.43 7.04 1.76 2.09.33 5.39.55 7.37 1.32 2.42.55 4.62 1.43 6.82 2.42 10.12 4.73 17.93 13.75 21.12 24.75.66 2.09 1.32 5.39 1.54 7.59.11.77.55 1.43.55 2.09 1.43-.33 3.74-.66 5.28-.88 1.87-.22 3.63-.33 5.61-.33 15.4 0 29.04 7.37 37.51 18.37 8.36 11 11.55 24.75 9.02 37.51 0 25.63-26.62 46.42-52.25 46.42h-333.3c-33.11 0-67.54-26.84-67.54-59.95-3.41-16.61.44-34.43 11.33-48.84 10.89-14.41 28.71-23.98 48.73-23.98 9.13 0 17.82 1.98 25.85 5.61 2.2.99 5.28 2.53 7.37 3.74.11-1.76.88-3.19 1.21-4.95.77-4.4 2.31-10.34 4.29-14.19 6.71-15.4 22.22-26.18 40.26-26.18" fill="url(#L)"/><path d="M2680.614-2388.376c11.66 0 21.78 4.73 29.26 11.33 1.54-3.19 5.39-4.4 7.37-7.26 1.98-2.97 5.39-8.36 7.81-11 15.18-19.03 37.84-31.46 63.36-32.78 7.26-.33 14.52.11 21.45 1.54 33 6.38 59.62 31.68 68.09 64.35 3.74-.22 7.59 0 11.66.99 1.98 0 4.51 2.53 6.49 2.86 1.87.33 5.94 0 7.7.66 2.53.33 4.95.99 7.26 1.87 10.89 4.18 19.47 13.64 22.44 25.41.55 1.76 1.21 6.05 1.54 7.92.11.66.77 1.1.88 1.76 1.32-.22 4.29-.77 5.61-.99 1.98-.22 3.85-.44 5.83-.44 16.28 0 30.69 8.8 38.06 21.34 7.37 12.54 7.81 26.95 2.64 38.17 0 22.44-29.81 40.59-52.25 40.59h-319.33c-29.04 0-67.43-23.43-67.43-52.47-6.93-14.52-6.71-33.33 2.86-49.94 9.46-16.61 28.27-28.16 49.72-28.16 9.13 0 17.93 2.09 26.07 5.83 1.98.77 5.61 2.75 7.48 3.85.11-1.54 1.43-2.42 1.76-3.96.66-3.85 2.09-11.11 3.85-14.41 6.05-15.73 21.56-27.06 39.82-27.06" fill="url(#M)"/><path d="M2680.834-2387.276c11.55 0 21.34 4.73 28.49 11 1.32-2.75 6.05-2.53 7.7-5.06 1.65-2.53 5.39-8.8 7.48-11.11 14.52-19.47 36.63-32.34 61.71-34.32 7.15-.55 14.3-.22 21.23.99 32.89 5.5 59.84 30.03 68.86 62.37 3.41.44 6.93 1.21 10.56 2.75 1.76 0 4.18 3.74 5.83 4.07 1.65.33 6.6-.44 8.03 0 2.75.11 5.28.55 7.7 1.32 11.77 3.52 21.12 13.53 23.87 26.07.55 1.54 1.21 6.71 1.43 8.36.11.55 1.1.88 1.1 1.43 1.1-.22 4.73-.88 5.83-.99 1.98-.33 4.07-.44 6.16-.44 17.27 0 32.23 10.23 38.5 24.42 6.27 14.08 3.96 29.15-3.63 38.72 0 19.25-33 34.76-52.25 34.76h-305.25c-24.86 0-67.43-20.13-67.43-44.99-10.34-12.43-13.75-32.34-5.61-51.04 8.14-18.7 27.83-32.45 50.71-32.45 9.24 0 18.04 2.2 26.18 6.05 1.65.66 6.05 3.08 7.59 3.96.11-1.32 2.09-1.65 2.31-2.97.55-3.3 1.87-11.77 3.41-14.63 5.5-16.28 21.12-28.27 39.49-28.27" fill="url(#N)"/><path d="M2681.054-2386.176c11.55 0 21.01 4.84 27.72 10.78 1.1-2.31 6.6-.66 8.03-2.75 1.43-2.09 5.39-9.35 7.15-11.22 13.86-20.02 35.42-33.33 60.06-35.97a83.88 83.88 0 0 1 21.01.33c32.78 4.62 60.06 28.49 69.63 60.39 3.19.99 6.27 2.42 9.46 4.4 1.43 0 3.96 4.95 5.28 5.17 1.32.22 7.15-.99 8.36-.55 2.86-.11 5.5.11 8.14.77 12.54 2.97 22.66 13.42 25.19 26.84.44 1.32 1.1 7.48 1.32 8.8.11.44 1.32.66 1.43 1.1.88-.22 5.28-.99 6.16-1.1 2.09-.33 4.29-.55 6.49-.55 18.26 0 33.77 11.77 39.05 27.39 5.28 15.62.22 31.35-10.01 39.38 0 16.06-36.19 29.04-52.14 29.04h-291.17c-20.68 0-67.43-16.72-67.43-37.51-13.86-10.34-20.9-31.24-14.08-52.14 6.82-20.9 27.39-36.63 51.59-36.63 9.24 0 18.15 2.2 26.4 6.38 1.43.55 6.38 3.3 7.7 4.07 0-1.1 2.64-.88 2.86-1.87.44-2.75 1.65-12.54 2.97-14.85 4.62-17.16 20.24-29.7 38.83-29.7" fill="url(#O)"/><path d="M2681.274-2385.076c11.44 0 20.57 4.84 26.95 10.45.88-1.87 7.26 1.21 8.36-.55 1.1-1.65 5.5-9.79 6.82-11.33 13.09-20.46 34.1-34.32 58.41-37.51 6.93-.88 13.86-.99 20.79-.22 32.67 3.63 60.28 26.84 70.29 58.41 2.86 1.65 5.61 3.63 8.36 6.16 1.1 0 3.63 6.05 4.73 6.27 1.1.22 7.7-1.54 8.8-1.21 3.08-.33 5.83-.22 8.58.22 13.42 2.42 24.2 13.31 26.62 27.5.33.99 1.1 8.14 1.21 9.24 0 .33 1.65.44 1.65.77.77-.11 5.72-1.1 6.49-1.21 2.2-.33 4.51-.55 6.82-.55 19.14 0 35.31 13.2 39.6 30.36 4.18 17.16-3.52 33.55-16.28 39.93 0 12.76-39.38 23.21-52.14 23.21h-277.09c-16.61 0-67.32-13.42-67.32-30.03-17.27-8.25-28.05-30.14-22.66-53.24 5.39-23.1 27.06-40.81 52.58-40.81 9.24 0 18.26 2.31 26.62 6.6 1.1.44 6.71 3.63 7.81 4.18 0-.88 3.19 0 3.41-.88.33-2.2 1.43-13.2 2.42-15.18 3.74-17.38 19.47-30.58 38.17-30.58" fill="url(#P)"/><path d="M2681.494-2383.976c11.33 0 20.13 4.95 26.18 10.23.66-1.32 7.81 2.97 8.69 1.76.88-1.21 5.5-10.34 6.49-11.44 12.43-20.9 32.89-35.2 56.65-39.16 6.82-1.1 13.64-1.43 20.57-.77 32.56 2.75 60.5 25.3 71.06 56.43 2.53 2.31 4.95 4.84 7.26 7.92.88 0 3.3 7.26 4.18 7.37.77.11 8.36-2.09 9.13-1.76 3.19-.55 6.16-.66 9.02-.33 14.3 1.87 25.85 13.2 28.05 28.16.22.77 1.1 8.8 1.21 9.68 0 .22 1.98.11 1.98.44.55-.11 6.27-1.21 6.82-1.32 2.31-.33 4.73-.66 7.15-.66 20.13 0 36.96 14.63 40.04 33.44 3.19 18.7-7.37 35.75-22.66 40.59 0 9.57-42.46 17.38-52.14 17.38h-263.12c-12.43 0-67.32-10.01-67.32-22.44-20.79-6.27-35.2-29.04-31.13-54.34 4.07-25.3 26.62-44.99 53.57-44.99 9.24 0 18.37 2.42 26.84 6.93.88.33 7.15 3.85 7.92 4.29 0-.66 3.85.77 3.96.11.33-1.65 1.21-13.97 1.98-15.4 2.97-18.37 18.81-32.12 37.62-32.12" fill="url(#Q)"/><path d="M2681.714-2382.876c11.22 0 19.8 4.95 25.41 9.9.44-.88 8.36 4.84 9.02 4.07.55-.88 5.5-10.78 6.16-11.55 11.77-21.34 31.68-36.19 55-40.81 6.6-1.32 13.42-1.76 20.35-1.43 32.45 1.87 60.72 23.76 71.83 54.34 2.31 2.97 4.29 6.05 6.16 9.57.55 0 2.97 8.36 3.52 8.47.55.11 8.91-2.53 9.46-2.42 3.41-.77 6.49-1.1 9.46-.88 15.18 1.21 27.39 13.09 29.37 28.82.22.55.99 9.57 1.1 10.12 0 .22 2.2-.11 2.31.11.33-.11 6.71-1.32 7.04-1.43 2.42-.44 4.95-.66 7.48-.66 21.01 0 38.5 16.17 40.59 36.41 2.09 20.24-11.11 37.95-28.93 41.14 0 6.38-45.65 11.55-52.14 11.55h-249.04c-8.25 0-67.32-6.71-67.32-14.96-24.2-4.18-42.24-28.05-39.6-55.44 2.75-27.39 26.18-49.28 54.56-49.28 9.35 0 18.37 2.42 27.06 7.15.55.22 7.48 4.18 8.03 4.4 0-.44 4.4 1.54 4.51 1.1.22-1.1 1.1-14.63 1.54-15.62 2.2-18.37 18.04-32.67 37.07-32.67" fill="url(#R)"/><path d="M2681.934-2381.776c11.11 0 19.36 5.06 24.64 9.68.22-.44 9.02 6.71 9.24 6.27.33-.44 5.5-11.33 5.83-11.66 11.11-21.89 30.47-37.18 53.35-42.35 6.49-1.43 13.2-2.2 20.13-1.98 32.34.88 61.05 22.11 72.49 52.36 1.98 3.52 3.74 7.37 5.06 11.33.33 0 2.75 9.57 2.97 9.68.22 0 9.57-3.08 9.79-2.97 3.52-.99 6.82-1.54 9.9-1.32 15.95.66 29.04 13.09 30.8 29.48.11.22.99 10.23.99 10.45 0 .11 2.53-.33 2.53-.22.22 0 7.15-1.43 7.37-1.43 2.53-.44 5.06-.77 7.81-.77 22 0 40.04 17.6 41.14 39.38 1.1 21.78-14.85 40.15-35.31 41.8 0 3.19-48.84 5.83-52.03 5.83h-234.96c-4.18 0-67.32-3.3-67.32-7.48-27.72-2.09-49.39-26.95-48.07-56.54 1.32-29.59 25.74-53.46 55.55-53.46 9.35 0 18.48 2.53 27.28 7.37.33.11 7.81 4.4 8.14 4.62 0-.22 4.95 2.42 5.06 2.2.11-.55.88-15.4 1.1-15.84 1.54-19.47 17.38-34.43 36.52-34.43" fill="url(#S)"/><path d="M2944.614-2229.426h-340.23c-31.13 0-56.54-25.85-56.54-57.64s25.41-57.64 56.54-57.64c9.35 0 18.59 2.64 27.39 7.7l13.75 7.92.66-16.17c.77-19.8 16.61-35.42 35.97-35.42 11 0 19.03 5.06 23.87 9.46l9.57 8.58 5.5-11.77c13.31-28.71 40.7-46.53 71.5-46.53 36.74 0 69.3 26.73 77.33 63.47l2.42 10.78 10.12-3.63c3.74-1.21 7.04-1.87 10.34-1.87 16.83 0 30.58 12.98 32.23 30.14l.88 10.89 10.56-2.09c2.64-.44 5.28-.88 8.14-.88 22.99 0 41.58 19.03 41.58 42.46 0 23.21-18.7 42.24-41.58 42.24" fill="url(#T)"/><path d="M2891.484-2152.536c-4.73 0-9.46.55-13.97 1.43-2.75-30.03-27.61-53.57-58.41-53.57-6.71 0-12.87 1.32-18.81 3.3-12.43-55.66-61.93-97.35-121.33-97.35-49.72 0-92.18 29.26-112.2 71.39-11.33-9.9-25.96-16.17-42.13-16.17-34.43 0-62.37 27.28-63.91 61.38-13.42-7.48-28.6-12.1-44.99-12.1-51.04 0-92.4 41.36-92.4 92.51 0 51.04 41.47 92.4 92.4 92.4h475.86c39.6 0 71.61-32.12 71.61-71.61-.11-39.49-32.23-71.61-71.72-71.61" fill="#9cb1bf"/><path d="M2881.144-2166.836c-4.73 0-9.46.55-13.97 1.43-2.75-29.92-27.61-53.57-58.41-53.57-6.6 0-12.87 1.32-18.81 3.3-12.43-55.66-61.93-97.35-121.33-97.35-49.61 0-92.18 29.26-112.2 71.39-11.33-9.9-25.96-16.17-42.24-16.17-34.43 0-62.37 27.28-63.91 61.49-13.31-7.59-28.6-12.21-44.99-12.21-51.04 0-92.51 41.47-92.51 92.51 0 51.04 41.36 92.51 92.51 92.51h475.86c39.49 0 71.61-32.12 71.61-71.61 0-39.6-32.12-71.72-71.61-71.72" fill="url(#U)"/><path d="M2514.514-2256.266c16.06 0 30.36 6.27 41.14 15.84 2.42-5.06 6.6-8.58 9.68-13.09 3.08-4.62 7.37-10.78 11.11-14.85 21.78-25.41 53.46-41.69 89.1-42.57 10.12-.22 20.02.77 29.59 2.86 45.43 10.01 81.51 45.54 92.4 90.97 5.5-1.21 11.33-1.65 17.38-.99 3.19 0 6.6 1.87 9.57 2.42 2.97.55 7.37.77 10.12 1.76 3.3.77 6.38 1.87 9.35 3.3 13.75 6.38 24.53 18.81 28.93 33.88.88 2.75 1.76 7.37 2.2 10.34.11.99.66 1.87.77 2.86 1.98-.44 5.17-.88 7.15-1.1 2.53-.33 5.06-.44 7.7-.44 21.01 0 39.82 10.01 51.37 25.08 11.55 15.07 15.84 33.88 12.32 51.48 0 35.09-38.39 63.69-73.59 63.69h-464.86c-50.16 0-90.86-40.7-90.86-90.97 0-50.27 40.7-90.97 90.86-90.97 12.54 0 24.42 2.75 35.42 7.7 2.97 1.32 7.15 3.41 10.01 5.06.11-2.53 1.21-4.51 1.65-6.93.99-5.94 3.08-14.08 5.83-19.36 9.57-21.34 30.91-35.97 55.66-35.97" fill="url(#V)"/><path d="M2514.734-2254.836c15.95 0 29.81 6.38 40.04 15.4 2.09-4.4 7.48-6.05 10.12-10.01 2.75-4.07 7.37-11.44 10.67-15.07 20.79-26.07 51.81-43.01 86.79-44.77 10.01-.55 19.8.22 29.26 2.09 45.21 8.8 81.73 43.34 93.39 88.22 5.17-.33 10.45 0 15.84 1.32 2.75 0 6.16 3.52 8.8 3.96 2.53.44 8.14.11 10.56.88 3.52.44 6.82 1.32 9.9 2.53 14.96 5.61 26.73 18.7 30.8 34.87.77 2.42 1.65 8.25 2.09 10.89.11.88 1.1 1.54 1.21 2.42 1.76-.33 5.83-1.1 7.59-1.21 2.64-.33 5.39-.55 8.03-.55 22.33 0 41.91 11.99 52.03 29.26 10.12 17.16 10.67 36.85 3.63 52.25 0 30.69-44.77 55.66-75.57 55.66h-453.86c-49.17 0-89.1-40.04-89.1-89.43 0-49.39 39.93-89.43 89.1-89.43 12.65 0 24.64 2.86 35.64 8.03 2.64 1.1 7.7 3.85 10.23 5.17.11-2.2 2.09-3.41 2.42-5.5.88-5.28 2.86-15.07 5.28-19.69 8.8-21.78 30.14-37.29 55.11-37.29" fill="url(#W)"/><path d="M2515.064-2253.296c15.84 0 29.26 6.49 39.05 15.07 1.76-3.74 8.25-3.52 10.56-6.93 2.31-3.41 7.37-12.1 10.23-15.18 19.91-26.73 50.16-44.33 84.59-46.97 9.79-.77 19.47-.33 28.93 1.32 45.1 7.48 82.06 41.14 94.49 85.47 4.73.55 9.57 1.65 14.41 3.74 2.31 0 5.72 5.06 8.03 5.5 2.2.44 9.02-.66 11 .11 3.74.11 7.15.77 10.56 1.76 16.06 4.84 28.93 18.59 32.67 35.75.66 2.09 1.65 9.24 1.98 11.44.11.77 1.54 1.21 1.54 1.98 1.43-.33 6.49-1.21 8.03-1.43 2.75-.44 5.61-.66 8.47-.66 23.65 0 44.11 14.08 52.69 33.33 8.69 19.36 5.5 39.93-4.95 53.13 0 26.4-51.15 47.74-77.44 47.74h-442.86c-48.29 0-87.45-39.38-87.45-88 0-48.51 39.16-88 87.45-88 12.65 0 24.75 2.97 35.97 8.36 2.31.99 8.14 4.18 10.34 5.39.11-1.87 2.86-2.31 3.19-4.07.77-4.51 2.53-16.06 4.62-20.02 7.37-22.55 28.71-38.83 53.9-38.83" fill="url(#X)"/><path d="M2515.394-2251.756c15.73 0 28.71 6.6 37.95 14.74 1.54-3.19 9.02-.88 11-3.74 1.98-2.86 7.48-12.76 9.79-15.4 18.92-27.39 48.51-45.65 82.28-49.17 9.57-.99 19.25-.88 28.71.44 44.99 6.27 82.39 39.05 95.48 82.72 4.29 1.43 8.58 3.3 12.87 6.05 1.98 0 5.28 6.71 7.15 7.04 1.87.33 9.79-1.32 11.55-.77 3.96-.22 7.59.22 11.22.99 17.27 4.07 31.02 18.48 34.54 36.74.55 1.76 1.54 10.12 1.87 11.99.11.66 1.87.88 1.98 1.54 1.21-.22 7.15-1.32 8.47-1.54 2.97-.44 5.94-.66 8.91-.66 24.97 0 46.2 16.06 53.46 37.51 7.15 21.45.33 42.9-13.64 53.9 0 22-57.53 39.82-79.42 39.82h-431.86c-47.3 0-85.8-38.72-85.8-86.46 0-47.74 38.5-86.46 85.8-86.46 12.65 0 24.86 3.08 36.19 8.69 1.87.77 8.69 4.51 10.45 5.5.11-1.54 3.63-1.21 3.96-2.64.66-3.74 2.31-17.05 3.96-20.35 6.27-23.32 27.72-40.48 53.13-40.48" fill="url(#Y)"/><path d="M2515.724-2250.326c15.62 0 28.16 6.6 36.85 14.3 1.21-2.53 9.9 1.65 11.44-.66 1.54-2.31 7.48-13.53 9.35-15.51 18.04-28.05 46.86-46.97 79.97-51.37 9.46-1.21 18.92-1.32 28.38-.33 44.77 5.06 82.72 36.85 96.47 79.97 3.96 2.31 7.7 4.95 11.44 8.36 1.54 0 4.95 8.25 6.38 8.58 1.43.22 10.67-2.09 11.99-1.54 4.18-.55 8.03-.33 11.77.33 18.37 3.3 33.22 18.26 36.41 37.62.44 1.43 1.54 11.11 1.76 12.65.11.44 2.31.55 2.31 1.1.99-.22 7.92-1.54 8.91-1.65 3.08-.55 6.16-.77 9.35-.77 26.29 0 48.4 18.04 54.12 41.58 5.72 23.54-4.84 45.98-22.33 54.78 0 17.6-63.8 31.79-81.4 31.79h-420.86c-46.42 0-84.15-38.06-84.15-84.92s37.73-85.03 84.15-85.03c12.76 0 24.97 3.19 36.52 9.13 1.54.66 9.13 4.84 10.56 5.72 0-1.21 4.51-.11 4.73-1.32.55-2.97 1.98-18.04 3.41-20.68 5.28-24.09 26.73-42.13 52.47-42.13" fill="url(#Z)"/><path d="M2515.944-2248.786c15.51 0 27.72 6.71 35.86 13.97.88-1.87 10.67 4.18 11.88 2.42 1.21-1.76 7.48-14.19 8.91-15.73 17.05-28.71 45.21-48.29 77.77-53.57 9.24-1.54 18.59-1.87 28.05-1.1 44.66 3.74 83.05 34.65 97.46 77.22 3.52 3.08 6.82 6.6 9.9 10.78 1.21 0 4.51 9.9 5.61 10.12 1.1.22 11.44-2.75 12.54-2.42 4.4-.77 8.47-.99 12.43-.44 19.58 2.53 35.42 18.15 38.39 38.61.33.99 1.43 12.1 1.65 13.2 0 .33 2.64.22 2.75.55.77-.11 8.58-1.65 9.35-1.76 3.19-.55 6.49-.88 9.79-.88 27.5 0 50.49 20.02 54.78 45.76 4.29 25.63-10.01 48.95-30.91 55.55 0 13.2-70.18 23.87-83.38 23.87h-409.86c-45.43 0-82.39-37.4-82.39-83.49 0-46.09 36.96-83.49 82.39-83.49 12.76 0 25.19 3.3 36.74 9.46 1.1.44 9.68 5.28 10.78 5.83 0-.99 5.28 1.1 5.5.11.44-2.2 1.76-19.03 2.75-21.01 3.85-24.75 25.41-43.56 51.26-43.56" fill="url(#aa)"/><path d="M2516.274-2247.246c15.4 0 27.17 6.82 34.76 13.64.55-1.21 11.55 6.71 12.32 5.5.77-1.1 7.48-14.85 8.36-15.84 16.17-29.26 43.45-49.61 75.46-55.77 9.02-1.76 18.37-2.42 27.72-1.87 44.55 2.53 83.38 32.45 98.45 74.58 3.08 3.96 5.94 8.36 8.47 13.09.77 0 4.07 11.44 4.84 11.66.77.11 12.32-3.41 12.98-3.19 4.62-1.1 8.91-1.54 12.98-1.21 20.68 1.65 37.51 18.04 40.26 39.49.22.66 1.43 12.98 1.54 13.75 0 .22 3.08-.11 3.08.11.44-.11 9.24-1.87 9.68-1.87 3.3-.55 6.82-.99 10.23-.99 28.82 0 52.69 22.11 55.55 49.83 2.86 27.72-15.18 52.03-39.6 56.43 0 8.8-76.56 15.95-85.36 15.95h-398.86c-44.55 0-80.74-36.74-80.74-81.95s36.19-81.95 80.74-81.95c12.76 0 25.3 3.3 37.07 9.79.77.33 10.12 5.61 10.89 6.05 0-.66 6.16 2.2 6.27 1.54.22-1.54 1.43-20.02 2.09-21.34 3.19-25.85 24.75-45.43 50.82-45.43" fill="url(#ab)"/><path d="M2516.604-2245.706c15.18 0 26.62 6.82 33.66 13.2.33-.66 12.32 9.24 12.76 8.69.44-.55 7.48-15.51 7.92-16.06 15.18-29.92 41.8-50.93 73.15-57.97 8.91-1.98 18.04-2.97 27.39-2.64 44.33 1.21 83.71 30.36 99.44 71.83 2.75 4.84 5.06 10.01 6.93 15.4.44 0 3.63 13.09 4.07 13.2.33.11 13.09-4.18 13.42-4.07 4.84-1.43 9.24-2.09 13.64-1.98 21.89.88 39.71 17.93 42.13 40.37.11.33 1.32 13.97 1.43 14.3 0 .11 3.52-.44 3.52-.33.22 0 9.9-1.98 10.12-1.98 3.41-.66 7.04-1.1 10.67-1.1 30.14 0 54.78 24.09 56.21 54.01 1.43 29.92-20.35 55-48.29 57.2 0 4.4-82.94 7.92-87.34 7.92h-387.86c-43.56 0-79.09-36.08-79.09-80.41s35.53-80.52 79.09-80.52c12.87 0 25.41 3.41 37.29 10.12.33.11 10.67 5.94 11 6.16 0-.33 6.93 3.3 6.93 2.97.11-.77 1.21-21.01 1.54-21.67 2.31-26.29 23.87-46.64 50.27-46.64" fill="url(#ac)"/><path d="M2876.304-2037.146h-466.18c-42.68 0-77.44-35.42-77.44-78.87 0-43.56 34.76-78.98 77.44-78.98 12.87 0 25.52 3.52 37.62 10.56l18.92 10.67.88-22c1.1-27.17 22.77-48.4 49.28-48.4 15.07 0 26.07 6.93 32.67 12.87l13.2 11.77 7.48-16.17c18.26-39.27 55.77-63.69 97.9-63.69 50.38 0 94.93 36.52 105.93 86.9l3.19 14.63 13.97-4.84c5.06-1.76 9.68-2.64 14.19-2.64 22.99 0 41.91 17.82 44 41.36l1.32 14.96 14.41-2.86c3.63-.66 7.37-1.1 11.11-1.1 31.46 0 56.98 26.07 56.98 58.08.11 31.68-25.41 57.75-56.87 57.75" fill="url(#ad)"/></svg>