<svg xmlns="http://www.w3.org/2000/svg" xmlns:xlink="http://www.w3.org/1999/xlink" viewBox="1095.9 -1171 841.9 841.90004" width="841.9" height="841.9"><defs><linearGradient id="z" gradientUnits="userSpaceOnUse" y1="-662.3" x2="0" y2="-1092.45" gradientTransform="matrix(1.21 0 0 1.21 -395.374 266.022)"><stop stop-color="#cdd929"/><stop offset="1" stop-color="#feff9c"/></linearGradient><linearGradient id="V" gradientUnits="userSpaceOnUse" x1="1702.66" x2="1731.46" gradientTransform="matrix(1.15942 .01209 -.01654 1.18132 -350.675 268.545)" xlink:href="#a"/><linearGradient id="T" gradientUnits="userSpaceOnUse" x1="1747.59" x2="1789.33" gradientTransform="matrix(1.05839 .03626 -.04961 1.12385 -261.282 273.59)" xlink:href="#b"/><linearGradient id="U" gradientUnits="userSpaceOnUse" x1="1724.68" x2="1759.68" gradientTransform="matrix(1.10884 .02418 -.03307 1.15253 -305.977 271.068)" xlink:href="#c"/><linearGradient id="W" gradientUnits="userSpaceOnUse" x1="1528.91" x2="1634.52" gradientTransform="matrix(.65388 .13298 -.18186 .89407 96.31 293.774)" xlink:href="#d"/><linearGradient id="ab" gradientUnits="userSpaceOnUse" x1="1493.53" x2="1547.42" gradientTransform="matrix(.90665 .07254 -.0992 1.0377 -127.177 281.16)" xlink:href="#e"/><linearGradient id="X" gradientUnits="userSpaceOnUse" x1="1526" x2="1618.48" gradientTransform="matrix(.70446 .1209 -.1654 .92275 51.612 291.25)" xlink:href="#f"/><linearGradient id="aa" gradientUnits="userSpaceOnUse" x1="1503.59" x2="1565.52" gradientTransform="matrix(.85608 .08463 -.11575 1.0089 -82.48 283.682)" xlink:href="#g"/><linearGradient id="Y" gradientUnits="userSpaceOnUse" x1="1520.33" x2="1601.34" gradientTransform="matrix(.75504 .1088 -.14883 .95154 6.915 288.728)" xlink:href="#h"/><linearGradient id="Z" gradientUnits="userSpaceOnUse" x1="1512.67" x2="1583.57" gradientTransform="matrix(.8055 .09672 -.13225 .98022 -37.782 286.205)" xlink:href="#i"/><linearGradient id="S" gradientUnits="userSpaceOnUse" x1="1771.38" x2="1820.47" gradientTransform="matrix(1.0078 .04835 -.06614 1.09517 -216.584 276.114)" xlink:href="#j"/><linearGradient id="a" gradientUnits="userSpaceOnUse" x1="1548.56" x2="1583.83" gradientTransform="matrix(.9582 .00999 -.01367 .9763 36.941 2.085)"><stop stop-color="#f5fbff"/><stop offset="1" stop-color="#f0f9ff"/></linearGradient><linearGradient id="R" gradientUnits="userSpaceOnUse" x1="1796.05" x2="1853.19" gradientTransform="matrix(.95723 .06045 -.08268 1.06637 -171.875 278.637)" xlink:href="#k"/><linearGradient id="c" gradientUnits="userSpaceOnUse" x1="1564.41" x2="1607.28" gradientTransform="matrix(.9164 .01998 -.02733 .9525 73.882 4.17)"><stop stop-color="#ebf6ff"/><stop offset="1" stop-color="#e0f3ff"/></linearGradient><linearGradient id="j" gradientUnits="userSpaceOnUse" x1="1597.49" x2="1657.61" gradientTransform="matrix(.8329 .03996 -.05466 .9051 147.76 8.34)"><stop stop-color="#d6eeff"/><stop offset="1" stop-color="#c2e7ff"/></linearGradient><linearGradient id="b" gradientUnits="userSpaceOnUse" x1="1580.73" x2="1631.86" gradientTransform="matrix(.8747 .02997 -.041 .9288 110.82 6.255)"><stop stop-color="#e0f2ff"/><stop offset="1" stop-color="#d1edff"/></linearGradient><linearGradient id="L" gradientUnits="userSpaceOnUse" x1="1955.9" x2="2085.3" gradientTransform="matrix(.65388 .13298 -.18186 .89407 96.31 293.774)" xlink:href="#d"/><linearGradient id="Q" gradientUnits="userSpaceOnUse" x1="1821.55" x2="1887.56" gradientTransform="matrix(.90665 .07254 -.0992 1.0377 -127.177 281.16)" xlink:href="#e"/><linearGradient id="M" gradientUnits="userSpaceOnUse" x1="1929.07" x2="2042.37" gradientTransform="matrix(.70446 .1209 -.1654 .92275 51.612 291.25)" xlink:href="#f"/><linearGradient id="P" gradientUnits="userSpaceOnUse" x1="1847.78" x2="1923.64" gradientTransform="matrix(.85608 .08463 -.11575 1.0089 -82.48 283.682)" xlink:href="#g"/><linearGradient id="N" gradientUnits="userSpaceOnUse" x1="1901.81" x2="2001.05" gradientTransform="matrix(.75504 .1088 -.14883 .95154 6.915 288.728)" xlink:href="#h"/><linearGradient id="O" gradientUnits="userSpaceOnUse" x1="1874.6" x2="1961.46" gradientTransform="matrix(.8055 .09672 -.13225 .98022 -37.782 286.205)" xlink:href="#i"/><linearGradient id="ac" gradientUnits="userSpaceOnUse" x1="1482.81" x2="1529.45" gradientTransform="matrix(.95723 .06045 -.08268 1.06637 -171.875 278.637)" xlink:href="#k"/><linearGradient id="s" gradientUnits="userSpaceOnUse" x1="1455.37" y1="-640" x2="1518.04" y2="-1085.91" gradientTransform="matrix(1.21 0 0 1.21 -395.374 266.022)"><stop stop-color="#99a309"/><stop offset="1" stop-color="#e3e54a"/></linearGradient><linearGradient id="ad" gradientUnits="userSpaceOnUse" x1="1471.68" x2="1511.75" gradientTransform="matrix(1.0078 .04835 -.06614 1.09517 -216.584 276.114)" xlink:href="#j"/><linearGradient id="r" gradientUnits="userSpaceOnUse" x1="1444.53" y1="-637.67" x2="1516.78" y2="-1086.74" gradientTransform="matrix(1.21 0 0 1.21 -395.374 266.022)"><stop stop-color="#919c05"/><stop offset="1" stop-color="#dfe23f"/></linearGradient><linearGradient id="aD" gradientUnits="userSpaceOnUse" y1="-809.2" x2="0" y2="-964.81" gradientTransform="matrix(1.21 0 0 1.21 -395.374 266.022)"><stop stop-color="#a7c2d4"/><stop offset="1" stop-color="#eaf7ff"/></linearGradient><linearGradient id="q" gradientUnits="userSpaceOnUse" x1="1433.66" y1="-635.57" x2="1515.74" y2="-1088.32" gradientTransform="matrix(1.21 0 0 1.21 -395.374 266.022)"><stop stop-color="#8a9400"/><stop offset="1" stop-color="#dbde33"/></linearGradient><linearGradient id="t" gradientUnits="userSpaceOnUse" x1="1465.82" y1="-642.51" x2="1519.07" y2="-1085.63" gradientTransform="matrix(1.21 0 0 1.21 -395.374 266.022)"><stop stop-color="#a0ab0e"/><stop offset="1" stop-color="#e7e956"/></linearGradient><linearGradient id="y" gradientUnits="userSpaceOnUse" x1="1504.53" y1="-658.77" x2="1513.12" y2="-1091" gradientTransform="matrix(1.21 0 0 1.21 -395.374 266.022)"><stop stop-color="#c6d124"/><stop offset="1" stop-color="#fafb90"/></linearGradient><linearGradient id="u" gradientUnits="userSpaceOnUse" x1="1476.54" y1="-645.3" x2="1520.61" y2="-1085.98" gradientTransform="matrix(1.21 0 0 1.21 -395.374 266.022)"><stop stop-color="#a8b312"/><stop offset="1" stop-color="#ebed62"/></linearGradient><linearGradient id="x" gradientUnits="userSpaceOnUse" x1="1499.83" y1="-655.18" x2="1517.1" y2="-1089.44" gradientTransform="matrix(1.21 0 0 1.21 -395.374 266.022)"><stop stop-color="#beca20"/><stop offset="1" stop-color="#f6f885"/></linearGradient><linearGradient id="v" gradientUnits="userSpaceOnUse" x1="1487.12" y1="-648.35" x2="1522.13" y2="-1086.81" gradientTransform="matrix(1.21 0 0 1.21 -395.374 266.022)"><stop stop-color="#afba17"/><stop offset="1" stop-color="#eef06d"/></linearGradient><linearGradient id="w" gradientUnits="userSpaceOnUse" x1="1495.17" y1="-651.75" x2="1521.26" y2="-1088.1" gradientTransform="matrix(1.21 0 0 1.21 -395.374 266.022)"><stop stop-color="#b7c21b"/><stop offset="1" stop-color="#f2f479"/></linearGradient><linearGradient id="aC" gradientUnits="userSpaceOnUse" y1="-808.21" x2="0" y2="-965.38" gradientTransform="matrix(1.21 0 0 1.21 -395.374 266.022)"><stop stop-color="#a5c1d3"/><stop offset="1" stop-color="#e7f4fc"/></linearGradient><linearGradient id="au" gradientUnits="userSpaceOnUse" y1="-800.26" x2="0" y2="-971.85" gradientTransform="matrix(1.21 0 0 1.21 -395.374 266.022)"><stop stop-color="#95b9cc"/><stop offset="1" stop-color="#cddee8"/></linearGradient><linearGradient id="aB" gradientUnits="userSpaceOnUse" y1="-807.22" x2="0" y2="-966" gradientTransform="matrix(1.21 0 0 1.21 -395.374 266.022)"><stop stop-color="#a3c0d2"/><stop offset="1" stop-color="#e4f1fa"/></linearGradient><linearGradient id="ag" gradientUnits="userSpaceOnUse" x1="1437.45" x2="1460.95" gradientTransform="matrix(1.15942 .01209 -.01654 1.18132 -350.675 268.545)" xlink:href="#a"/><linearGradient id="ae" gradientUnits="userSpaceOnUse" x1="1460.32" x2="1494.39" gradientTransform="matrix(1.05839 .03626 -.04961 1.12385 -261.282 273.59)" xlink:href="#b"/><linearGradient id="af" gradientUnits="userSpaceOnUse" x1="1448.87" x2="1477.45" gradientTransform="matrix(1.10884 .02418 -.03307 1.15253 -305.977 271.068)" xlink:href="#c"/><linearGradient id="av" gradientUnits="userSpaceOnUse" y1="-801.26" x2="0" y2="-970.86" gradientTransform="matrix(1.21 0 0 1.21 -395.374 266.022)"><stop stop-color="#97bacd"/><stop offset="1" stop-color="#d0e1eb"/></linearGradient><linearGradient id="aA" gradientUnits="userSpaceOnUse" y1="-806.22" x2="0" y2="-966.67" gradientTransform="matrix(1.21 0 0 1.21 -395.374 266.022)"><stop stop-color="#a1bfd1"/><stop offset="1" stop-color="#e0eff7"/></linearGradient><linearGradient id="aw" gradientUnits="userSpaceOnUse" y1="-802.25" x2="0" y2="-969.92" gradientTransform="matrix(1.21 0 0 1.21 -395.374 266.022)"><stop stop-color="#99bbce"/><stop offset="1" stop-color="#d3e4ed"/></linearGradient><linearGradient id="az" gradientUnits="userSpaceOnUse" y1="-805.23" x2="0" y2="-967.4" gradientTransform="matrix(1.21 0 0 1.21 -395.374 266.022)"><stop stop-color="#9fbed0"/><stop offset="1" stop-color="#ddecf5"/></linearGradient><linearGradient id="ax" gradientUnits="userSpaceOnUse" y1="-803.24" x2="0" y2="-969.03" gradientTransform="matrix(1.21 0 0 1.21 -395.374 266.022)"><stop stop-color="#9bbccf"/><stop offset="1" stop-color="#d7e6f0"/></linearGradient><linearGradient id="ay" gradientUnits="userSpaceOnUse" y1="-804.24" x2="0" y2="-968.19" gradientTransform="matrix(1.21 0 0 1.21 -395.374 266.022)"><stop stop-color="#9dbdd0"/><stop offset="1" stop-color="#dae9f2"/></linearGradient><linearGradient id="k" gradientUnits="userSpaceOnUse" x1="1614.62" x2="1684.61" gradientTransform="matrix(.7911 .04996 -.06833 .8813 184.71 10.425)"><stop stop-color="#cceaff"/><stop offset="1" stop-color="#b3e1ff"/></linearGradient><linearGradient id="e" gradientUnits="userSpaceOnUse" x1="1632.01" x2="1712.87" gradientTransform="matrix(.7493 .05995 -.08199 .8576 221.65 12.51)"><stop stop-color="#c2e5ff"/><stop offset="1" stop-color="#a3dbff"/></linearGradient><linearGradient id="n" gradientUnits="userSpaceOnUse" y1="-1101.85" x2="0" y2="-1121.36"><stop stop-color="#e4e655"/><stop offset="1" stop-color="#f0f2ac"/></linearGradient><linearGradient id="m" gradientUnits="userSpaceOnUse" y1="-1096.29" x2="0" y2="-1126.01"><stop stop-color="#edef77"/><stop offset="1" stop-color="#f0f2ac"/></linearGradient><linearGradient id="o" gradientUnits="userSpaceOnUse" y1="-1085.18" x2="0" y2="-1135.29"><stop stop-color="#feffba"/><stop offset="1" stop-color="#f0f2ac"/></linearGradient><linearGradient id="p" gradientUnits="userSpaceOnUse" y1="-1090.74" x2="0" y2="-1130.65"><stop stop-color="#f5f798"/><stop offset="1" stop-color="#f0f2ac"/></linearGradient><linearGradient id="l" gradientUnits="userSpaceOnUse" y1="-1107.4" x2="0" y2="-1116.72"><stop stop-color="#dbde33"/><stop offset="1" stop-color="#f0f2ac"/></linearGradient><linearGradient id="g" gradientUnits="userSpaceOnUse" x1="1649.53" x2="1742.45" gradientTransform="matrix(.7075 .06994 -.09566 .8338 258.59 14.595)"><stop stop-color="#b8e1ff"/><stop offset="1" stop-color="#94d5ff"/></linearGradient><linearGradient id="d" gradientUnits="userSpaceOnUse" x1="1715.07" x2="1873.59" gradientTransform="matrix(.5404 .1099 -.1503 .7389 406.35 22.935)"><stop stop-color="#8fd0ff"/><stop offset="1" stop-color="#57bdff"/></linearGradient><linearGradient id="i" gradientUnits="userSpaceOnUse" x1="1666.95" x2="1773.36" gradientTransform="matrix(.6657 .07993 -.1093 .8101 295.53 16.68)"><stop stop-color="#aeddff"/><stop offset="1" stop-color="#85cfff"/></linearGradient><linearGradient id="f" gradientUnits="userSpaceOnUse" x1="1700.23" x2="1839.02" gradientTransform="matrix(.5822 .09991 -.1367 .7626 369.41 20.85)"><stop stop-color="#99d4ff"/><stop offset="1" stop-color="#66c3ff"/></linearGradient><linearGradient id="h" gradientUnits="userSpaceOnUse" x1="1683.99" x2="1805.57" gradientTransform="matrix(.624 .08992 -.123 .7864 332.47 18.765)"><stop stop-color="#a3d9ff"/><stop offset="1" stop-color="#76c9ff"/></linearGradient><linearGradient xlink:href="#d" id="A" gradientUnits="userSpaceOnUse" gradientTransform="matrix(.65388 .13298 -.18186 .89407 96.31 293.774)" x1="1715.07" x2="1873.59"/><linearGradient xlink:href="#f" id="B" gradientUnits="userSpaceOnUse" gradientTransform="matrix(.70446 .1209 -.1654 .92275 51.612 291.25)" x1="1700.23" x2="1839.02"/><linearGradient xlink:href="#h" id="C" gradientUnits="userSpaceOnUse" gradientTransform="matrix(.75504 .1088 -.14883 .95154 6.915 288.728)" x1="1683.99" x2="1805.57"/><linearGradient xlink:href="#i" id="D" gradientUnits="userSpaceOnUse" gradientTransform="matrix(.8055 .09672 -.13225 .98022 -37.782 286.205)" x1="1666.95" x2="1773.36"/><linearGradient xlink:href="#g" id="E" gradientUnits="userSpaceOnUse" gradientTransform="matrix(.85608 .08463 -.11575 1.0089 -82.48 283.682)" x1="1649.53" x2="1742.45"/><linearGradient xlink:href="#e" id="F" gradientUnits="userSpaceOnUse" gradientTransform="matrix(.90665 .07254 -.0992 1.0377 -127.177 281.16)" x1="1632.01" x2="1712.87"/><linearGradient xlink:href="#k" id="G" gradientUnits="userSpaceOnUse" gradientTransform="matrix(.95723 .06045 -.08268 1.06637 -171.875 278.637)" x1="1614.62" x2="1684.61"/><linearGradient xlink:href="#j" id="H" gradientUnits="userSpaceOnUse" gradientTransform="matrix(1.0078 .04835 -.06614 1.09517 -216.584 276.114)" x1="1597.49" x2="1657.61"/><linearGradient xlink:href="#b" id="I" gradientUnits="userSpaceOnUse" gradientTransform="matrix(1.05839 .03626 -.04961 1.12385 -261.282 273.59)" x1="1580.73" x2="1631.86"/><linearGradient xlink:href="#c" id="J" gradientUnits="userSpaceOnUse" gradientTransform="matrix(1.10884 .02418 -.03307 1.15253 -305.977 271.068)" x1="1564.41" x2="1607.28"/><linearGradient xlink:href="#a" id="K" gradientUnits="userSpaceOnUse" gradientTransform="matrix(1.15942 .01209 -.01654 1.18132 -350.675 268.545)" x1="1548.56" x2="1583.83"/></defs><path d="M1363.724-1130.802c-45.738-8.228-90.629-6.413-132.979 3.51 70.18 16.94 127.413 64.976 162.987 129.711 35.816 64.735 50.215 146.41 34.848 230.626-12.463 68.85-42.834 128.986-83.974 174.845-41.26 45.86-93.29 77.561-149.798 89.661 16.94 6.05 34.243 11.253 52.272 14.641 44.286 7.986 88.33 6.655 129.712-2.54 41.382-9.318 80.344-26.62 114.587-50.337 68.607-47.674 119.185-121.363 135.4-210.177 16.092-88.693-5.204-175.57-52.878-244.299-47.795-68.728-121.484-119.427-210.177-135.64" fill="#9cb1bf"/><path d="M1355.254-1140.482c-45.738-8.228-90.629-6.413-132.979 3.51 70.18 16.94 127.413 64.976 162.987 129.711 35.816 64.735 50.215 146.41 34.848 230.626-12.463 68.85-42.834 128.986-83.974 174.845-41.26 45.86-93.29 77.561-149.798 89.661 16.94 6.05 34.243 11.253 52.272 14.641 44.286 7.986 88.33 6.655 129.712-2.54 41.382-9.318 80.344-26.62 114.587-50.337 68.607-47.674 119.185-121.363 135.4-210.177 16.092-88.693-5.204-175.57-52.878-244.299-47.795-68.728-121.484-119.427-210.177-135.64" fill="url(#q)"/><path d="M1231.471-1135.52a309.163 309.163 0 0 1 36.784-5.083c32.67-2.54 65.945-.242 99.1 7.502 82.521 16.82 151.128 64.977 196.02 129.591 47.31 68.123 68.485 154.396 52.513 242.484-15.85 87.12-64.977 159.6-132.01 206.91-33.397 23.595-71.39 40.898-111.805 50.578-40.293 9.438-83.127 11.374-126.445 4.356l-6.17-1.089c-15.489-2.904-30.372-7.26-45.013-12.1 55.176-13.31 105.875-45.375 146.047-90.992 40.172-45.738 69.696-105.028 81.917-172.667 15.125-83.006 1.452-163.47-33.033-227.843-34.364-64.614-89.782-113.014-157.905-131.648" fill="url(#r)"/><path d="M1240.667-1134.19c12.584-2.057 25.168-3.388 37.873-3.872a317.753 317.753 0 0 1 100.793 12.221c76.351 17.424 139.997 63.041 181.984 123.662 46.948 67.64 68.002 153.307 52.151 240.67-15.488 85.304-63.283 156.573-128.623 203.521-32.549 23.474-69.575 40.777-109.142 50.7-39.204 9.68-80.828 12.22-123.178 6.17-2.057-.242-3.993-.605-6.05-.968-15.004-2.54-29.766-6.413-44.165-10.89 53.845-14.52 103.213-46.948 142.296-92.202 39.204-45.617 67.881-104.06 79.86-170.61 14.883-81.675 1.936-161.05-31.218-225.06-32.912-64.009-86.394-112.772-152.58-133.342" fill="url(#s)"/><path d="M1249.863-1132.859c12.947-1.694 26.015-2.54 39.083-2.662 34.848 0 69.333 5.687 102.366 16.82 70.18 18.028 128.744 61.104 167.948 117.611 46.585 67.276 67.518 152.218 51.788 238.975-15.125 83.49-61.589 153.55-125.114 200.134-31.702 23.232-67.76 40.656-106.359 50.941-38.115 9.922-78.65 13.19-119.91 7.986-1.937-.242-3.994-.484-5.93-.847-14.64-2.178-29.04-5.566-43.197-9.68 52.635-15.73 100.672-48.52 138.545-93.533 38.115-45.375 66.066-103.213 77.803-168.432 14.641-80.465 2.42-158.63-29.403-222.277-31.702-63.525-83.369-112.65-147.62-135.036" fill="url(#t)"/><path d="M1259.06-1131.407a320.405 320.405 0 0 1 40.292-1.452c35.937 1.21 71.027 8.591 104.06 21.538 64.01 18.634 117.491 59.17 153.912 111.683 46.222 66.792 67.034 151.13 51.425 237.16-14.883 81.675-59.895 150.524-121.726 196.746-30.855 23.111-66.066 40.656-103.697 51.183-36.905 10.164-76.35 14.036-116.644 9.801l-5.808-.726c-14.278-1.815-28.435-4.84-42.35-8.47 51.304-16.94 98.01-50.094 134.794-94.864 37.147-45.254 64.13-102.245 75.746-166.254 14.4-79.134 2.904-156.21-27.588-219.494-30.37-63.162-80.102-112.65-142.417-136.85" fill="url(#u)"/><path d="M1268.376-1130.076c13.794-.968 27.71-1.089 41.382-.242 37.026 2.541 72.721 11.495 105.754 26.257 57.838 19.24 106.36 57.233 139.876 105.754 45.86 66.308 66.55 149.92 51.062 235.345-14.52 79.86-58.2 147.5-118.338 193.358-30.008 22.99-64.25 40.535-100.914 51.304-35.816 10.406-74.052 14.883-113.256 11.737-1.815-.12-3.75-.363-5.566-.484-13.915-1.452-27.709-3.993-41.382-7.26 50.094-18.15 95.348-51.667 131.043-96.074 36.058-45.012 62.315-101.277 73.69-164.197 14.156-77.924 3.508-153.79-25.895-216.71-29.403-62.92-77.198-112.773-137.456-138.788" fill="url(#v)"/><path d="M1277.572-1128.624c14.278-.605 28.435-.363 42.592.968 38.115 3.751 74.294 14.4 107.448 30.855 51.546 19.844 95.106 55.418 125.84 99.704 45.617 65.824 66.066 148.83 50.7 233.651-14.158 78.166-56.508 144.474-114.95 189.97a306.821 306.821 0 0 1-98.253 51.546c-34.727 10.77-71.874 15.73-109.989 13.552l-5.445-.363c-13.552-1.089-27.104-3.146-40.535-6.05 48.884-19.36 92.686-53.24 127.292-97.405 35.09-44.89 60.5-100.309 71.632-162.019 13.915-76.714 3.993-151.37-24.079-213.928-27.95-62.436-73.93-112.65-132.253-140.48" fill="url(#w)"/><path d="M1286.768-1127.293c14.641-.363 29.282.484 43.802 2.178 39.204 5.082 75.988 17.303 109.021 35.574 45.375 20.57 83.853 53.482 111.804 93.775 45.254 65.34 65.582 147.741 50.336 231.836-13.915 76.351-54.813 141.45-111.562 186.582-28.314 22.627-60.742 40.293-95.469 51.788-33.638 11.011-69.575 16.698-106.722 15.367-1.815-.12-3.509-.12-5.324-.242-13.189-.726-26.378-2.42-39.567-4.84 47.553-20.57 90.145-54.813 123.541-98.736 34.001-44.77 58.564-99.462 69.575-159.84 13.673-75.384 4.477-148.952-22.264-211.146-26.74-62.073-70.906-112.65-127.17-142.296" fill="url(#x)"/><path d="M1295.964-1125.84c15.125 0 30.13 1.21 44.891 3.387 40.293 6.292 77.682 20.207 110.715 40.293 39.204 21.175 72.721 51.546 97.89 87.846 44.89 64.856 65.097 146.531 49.972 230.021-13.552 74.536-52.998 138.424-108.174 183.194a303.182 303.182 0 0 1-92.807 51.91c-32.428 11.252-67.276 17.544-103.455 17.181-1.694 0-3.509 0-5.203-.12-12.826-.364-25.773-1.574-38.599-3.51 46.343-21.78 87.483-56.386 119.79-100.067 32.912-44.528 56.75-98.494 67.518-157.784 13.431-74.173 4.961-146.53-20.449-208.362-25.41-61.589-67.76-112.65-122.089-143.99" fill="url(#y)"/><path d="M1297.053-513.702c-12.463 0-25.047-.726-37.752-2.299 91.234-46.464 160.688-142.175 181.5-256.883 13.19-72.963 5.445-144.11-18.634-205.579-24.079-61.468-64.614-112.772-116.886-146.047 15.61.363 30.976 1.936 46.101 4.72 41.382 7.622 79.376 23.11 112.41 44.89a308.77 308.77 0 0 1 83.852 81.917c44.528 64.372 64.614 145.442 49.61 228.327-13.189 72.721-51.304 135.4-104.786 179.927-26.62 22.385-57.233 40.051-90.024 52.151-33.033 11.858-68.365 18.876-105.39 18.876" fill="url(#z)"/><path d="M1546.434-439.408c-14.278 70.422-45.496 90.266-77.803 83.853-32.186-6.655-53.24-37.026-38.84-107.569 14.277-70.422 90.75-147.62 90.75-147.62s40.171 100.914 25.893 171.336" fill="#9cb1bf"/><path d="M1532.882-463.97c-14.278 70.421-45.496 90.386-77.803 83.852-32.186-6.534-53.119-37.026-38.84-107.448 14.277-70.422 90.75-147.62 90.75-147.62s40.292 100.672 25.893 171.215" id="ah" fill="#78b5db"/><path d="M1457.136-389.314c-34.848-7.018-46.1-38.72-34.364-96.558 9.56-47.19 52.877-103.092 81.433-134.794 13.915 40.293 31.823 108.658 22.264 155.97-11.737 57.716-34.485 82.521-69.333 75.382" id="ai" fill="url(#A)"/><path d="M1458.467-399.84c-32.67-6.656-43.197-36.3-32.186-90.509 8.954-44.286 49.61-96.679 76.23-126.324 13.068 37.752 29.887 101.882 20.812 146.168-10.89 54.208-32.186 77.32-64.856 70.664" id="aj" fill="url(#B)"/><path d="M1459.798-410.368c-30.492-6.17-40.293-33.88-30.008-84.337 8.35-41.26 46.222-90.145 71.148-117.854 12.1 35.211 27.83 94.985 19.481 136.246-10.285 50.578-30.129 72.237-60.62 65.945" id="ak" fill="url(#C)"/><path d="M1461.13-420.774c-28.315-5.687-37.39-31.339-27.83-78.287 7.743-38.357 42.954-83.61 66.065-109.384 11.253 32.67 25.894 88.21 18.03 126.445-9.56 46.827-27.952 66.913-56.266 61.226" id="al" fill="url(#D)"/><path d="M1462.46-431.3c-26.136-5.325-34.485-28.92-25.652-72.238 7.14-35.332 39.567-77.198 60.984-100.914 10.406 30.13 23.837 81.312 16.698 116.644-8.954 43.318-25.894 61.831-52.03 56.507" id="am" fill="url(#E)"/><path d="M1463.791-441.828c-23.958-4.84-31.58-26.499-23.595-66.187 6.534-32.307 36.3-70.664 55.781-92.444 9.56 27.588 21.78 74.536 15.246 106.843-7.986 39.688-23.474 56.628-47.432 51.788" id="an" fill="url(#F)"/><path d="M1465.122-452.355c-21.659-4.477-28.677-24.079-21.417-60.137 5.93-29.403 32.912-64.25 50.7-83.974 8.59 25.047 19.843 67.64 13.793 97.042-7.26 36.18-21.296 51.546-43.076 47.07" id="ao" fill="url(#G)"/><path d="M1466.453-462.76c-19.48-3.994-25.773-21.66-19.239-53.967 5.324-26.378 29.524-57.717 45.617-75.504 7.744 22.506 17.787 60.863 12.463 87.241-6.655 32.307-19.36 46.101-38.84 42.23" id="ap" fill="url(#H)"/><path d="M1467.784-473.288c-17.303-3.509-22.869-19.239-17.06-47.916 4.718-23.474 26.256-51.304 40.413-67.034 6.897 19.965 15.73 53.966 11.011 77.44-5.808 28.677-17.06 41.02-34.364 37.51" id="aq" fill="url(#I)"/><path d="M1469.115-483.815c-15.125-3.146-19.965-16.819-14.883-41.866 4.235-20.449 22.87-44.77 35.332-58.564 5.93 17.424 13.794 47.19 9.68 67.64-5.082 25.167-15.004 35.936-30.129 32.79" id="ar" fill="url(#J)"/><path d="M1470.446-494.342c-12.947-2.662-17.182-14.399-12.705-35.816 3.63-17.545 19.602-38.236 30.25-49.973 5.082 14.883 11.737 40.293 8.228 57.838-4.356 21.417-12.826 30.613-25.773 27.951" id="as" fill="url(#K)"/><path d="M1471.777-504.748c-10.769-2.178-14.278-11.979-10.527-29.766 3.025-14.52 16.214-31.823 25.168-41.503 4.235 12.463 9.801 33.517 6.776 48.037-3.63 17.787-10.648 25.41-21.417 23.232" id="at" fill="#fff"/><path d="M1710.026-557.383c-11.737 57.475-37.268 73.69-63.525 68.365-26.257-5.324-43.439-30.25-31.702-87.725 11.616-57.475 74.052-120.516 74.052-120.516s32.791 82.28 21.175 139.876" fill="#9cb1bf"/><path d="M1699.015-577.59c-11.737 57.596-37.268 73.81-63.525 68.365-26.257-5.324-43.439-30.25-31.702-87.725 11.616-57.475 74.052-120.395 74.052-120.395s32.791 82.28 21.175 139.755" fill="#78b5db"/><path d="M1637.063-516.606c-28.435-5.808-37.63-31.58-28.072-78.77 7.865-38.6 43.197-84.217 66.43-110.11 11.373 32.911 26.014 88.813 18.15 127.291-9.439 47.311-28.073 67.397-56.508 61.59" fill="url(#L)"/><path d="M1638.152-525.197c-26.74-5.445-35.21-29.645-26.257-73.81 7.381-36.179 40.414-78.892 62.194-103.092 10.648 30.855 24.442 83.127 17.061 119.306-8.954 44.165-26.257 63.041-52.998 57.596" fill="url(#M)"/><path d="M1639.241-533.788c-24.926-5.082-32.912-27.588-24.563-68.849 6.897-33.759 37.752-73.568 58.08-96.195 9.922 28.798 22.748 77.561 15.851 111.32-8.228 41.261-24.442 58.806-49.368 53.724" fill="url(#N)"/><path d="M1640.33-542.258c-23.11-4.719-30.492-25.652-22.748-63.888 6.413-31.218 34.97-68.244 53.845-89.298 9.196 26.741 21.175 71.995 14.762 103.213-7.623 38.236-22.748 54.571-45.859 49.973" fill="url(#O)"/><path d="M1641.42-550.849c-21.297-4.356-28.194-23.595-21.055-58.927 5.808-28.798 32.307-63.04 49.731-82.4 8.47 24.562 19.481 66.428 13.552 95.226-7.018 35.332-20.933 50.457-42.229 46.101" fill="url(#P)"/><path d="M1642.508-559.44c-19.48-3.993-25.773-21.659-19.239-53.966 5.324-26.378 29.645-57.717 45.496-75.383 7.744 22.506 17.787 60.863 12.463 87.241-6.413 32.307-19.239 46.101-38.72 42.108" fill="url(#Q)"/><path d="M1643.597-568.03c-17.787-3.63-23.474-19.603-17.424-49.006 4.84-23.958 26.862-52.393 41.382-68.486 7.018 20.45 16.214 55.297 11.374 79.255-6.05 29.282-17.545 41.866-35.332 38.236" fill="url(#R)"/><path d="M1644.686-576.622c-15.972-3.267-21.054-17.666-15.73-44.044 4.356-21.538 24.2-47.069 37.147-61.589 6.292 18.392 14.52 49.61 10.164 71.27-5.203 26.377-15.609 37.63-31.58 34.363" fill="url(#S)"/><path d="M1645.775-585.092c-14.157-2.904-18.755-15.73-13.915-39.083 3.872-19.118 21.417-41.745 33.033-54.692 5.566 16.335 12.947 44.044 9.075 63.162-4.84 23.474-14.036 33.396-28.193 30.613" fill="url(#T)"/><path d="M1646.864-593.683c-12.342-2.54-16.335-13.673-12.22-34.122 3.387-16.698 18.754-36.542 28.797-47.795 4.961 14.278 11.253 38.478 7.865 55.176-3.993 20.45-12.1 29.282-24.442 26.741" fill="url(#U)"/><path d="M1647.953-602.274c-10.648-2.178-14.036-11.737-10.406-29.16 2.904-14.279 15.972-31.219 24.684-40.778 4.235 12.221 9.68 32.912 6.776 47.19-3.63 17.424-10.527 24.926-21.054 22.748" fill="url(#V)"/><path d="M1649.042-610.865c-8.833-1.815-11.616-9.68-8.712-24.2 2.42-11.858 13.31-25.894 20.45-33.88 3.508 10.043 7.985 27.346 5.565 39.204-2.783 14.52-8.47 20.691-17.303 18.876" fill="#fff"/><path d="M1387.924-501.723c-9.559 46.948-30.37 60.137-51.909 55.781-21.417-4.356-35.453-24.684-25.894-71.632 9.56-46.948 60.5-98.373 60.5-98.373s26.862 67.276 17.303 114.224" fill="#9cb1bf"/><path d="M1378.97-518.179c-9.559 46.948-30.37 60.258-51.909 55.781-21.417-4.356-35.453-24.684-25.894-71.632 9.56-46.948 60.5-98.373 60.5-98.373s26.862 67.276 17.303 114.224" fill="#78b5db"/><path d="M1328.392-468.327c-23.232-4.719-30.734-25.773-22.869-64.372 6.413-31.46 35.211-68.728 54.208-89.903 9.317 26.862 21.296 72.48 14.883 103.94-7.865 38.598-22.99 54.933-46.222 50.335" fill="url(#W)"/><path d="M1329.36-475.345c-21.78-4.477-28.798-24.2-21.417-60.258 6.05-29.524 33.033-64.372 50.82-84.216 8.712 25.168 19.844 67.881 13.915 97.405-7.38 36.058-21.538 51.425-43.318 47.07" fill="url(#X)"/><path d="M1330.207-482.363c-20.328-4.114-26.862-22.506-19.965-56.265 5.566-27.467 30.855-60.016 47.432-78.529 8.107 23.474 18.513 63.283 12.947 90.871-6.897 33.638-20.086 48.037-40.414 43.923" fill="url(#Y)"/><path d="M1331.054-489.38c-18.876-3.873-24.926-20.934-18.634-52.152 5.203-25.53 28.556-55.78 44.044-72.842 7.502 21.78 17.182 58.806 11.98 84.337-6.172 31.218-18.514 44.528-37.39 40.656" fill="url(#Z)"/><path d="M1332.022-496.399c-17.424-3.509-22.99-19.36-17.182-48.158 4.84-23.595 26.378-51.425 40.535-67.276 6.897 20.086 15.851 54.208 11.132 77.803-5.808 28.92-17.182 41.14-34.485 37.631" fill="url(#aa)"/><path d="M1332.87-503.417c-15.973-3.267-21.055-17.666-15.73-44.044 4.355-21.538 24.2-47.069 37.146-61.589 6.292 18.392 14.52 49.61 10.164 71.27-5.324 26.377-15.609 37.63-31.58 34.363" fill="url(#ab)"/><path d="M1333.716-510.314c-14.52-2.904-19.118-16.093-14.278-40.05 3.993-19.603 21.901-42.835 33.76-55.903 5.807 16.698 13.188 45.133 9.195 64.614-4.719 23.958-14.157 34.243-28.677 31.34" fill="url(#ac)"/><path d="M1334.684-517.332c-13.068-2.662-17.182-14.399-12.826-35.937 3.51-17.666 19.723-38.478 30.371-50.336 5.203 15.004 11.858 40.535 8.35 58.08-4.478 21.66-12.948 30.855-25.895 28.193" fill="url(#ad)"/><path d="M1335.531-524.35c-11.616-2.299-15.246-12.826-11.374-31.944 3.146-15.609 17.545-34.122 26.983-44.649 4.598 13.31 10.527 35.937 7.381 51.546-3.872 19.24-11.374 27.346-22.99 25.047" fill="url(#ae)"/><path d="M1336.5-531.368c-10.165-2.057-13.432-11.132-9.923-27.83 2.783-13.673 15.246-29.766 23.474-38.962 3.993 11.616 9.196 31.46 6.413 45.012-3.388 16.698-9.922 23.837-19.965 21.78" fill="url(#af)"/><path d="M1337.346-538.386c-8.59-1.694-11.374-9.559-8.47-23.837 2.42-11.616 13.068-25.53 20.086-33.275 3.388 9.922 7.865 26.862 5.566 38.478-3.025 14.4-8.59 20.45-17.182 18.634" fill="url(#ag)"/><path d="M1338.193-545.404c-7.139-1.452-9.559-7.986-7.018-19.723 1.936-9.68 10.89-21.175 16.698-27.709 2.783 8.228 6.534 22.264 4.598 31.944-2.42 11.98-7.139 17.061-14.278 15.488" fill="#fff"/><use xlink:href="#ah" width="100%" height="100%"/><use xlink:href="#ai" width="100%" height="100%"/><use xlink:href="#aj" width="100%" height="100%"/><use xlink:href="#ak" width="100%" height="100%"/><use xlink:href="#al" width="100%" height="100%"/><use xlink:href="#am" width="100%" height="100%"/><use xlink:href="#an" width="100%" height="100%"/><use xlink:href="#ao" width="100%" height="100%"/><use xlink:href="#ap" width="100%" height="100%"/><use xlink:href="#aq" width="100%" height="100%"/><use xlink:href="#ar" width="100%" height="100%"/><use xlink:href="#as" width="100%" height="100%"/><use xlink:href="#at" width="100%" height="100%"/><path d="M1790.007-801.44c-3.872 0-7.623.484-11.253 1.21-2.178-24.079-22.143-43.076-46.827-43.076-5.324 0-10.406 1.09-15.125 2.662-10.043-44.77-49.73-78.166-97.526-78.166-39.809 0-74.052 23.474-90.145 57.354-9.075-7.986-20.812-12.947-33.88-12.947-27.709 0-50.094 21.901-51.304 49.247-10.769-6.05-22.99-9.8-36.179-9.8-41.019 0-74.294 33.274-74.294 74.293 0 41.02 33.275 74.294 74.294 74.294h382.118c31.823 0 57.475-25.773 57.475-57.475.121-31.823-25.652-57.596-57.354-57.596" fill="#9cb1bf"/><path d="M1780.811-817.29c-3.872 0-7.502.362-11.253 1.21-2.178-24.2-22.143-43.077-46.827-43.077-5.445 0-10.406 1.09-15.125 2.662-10.043-44.77-49.73-78.166-97.526-78.166-39.809 0-74.052 23.595-90.024 57.354-9.075-7.986-20.812-13.068-33.88-13.068-27.709 0-50.094 21.901-51.304 49.368-10.769-6.05-22.99-9.8-36.179-9.8-41.019 0-74.294 33.274-74.294 74.293 0 41.02 33.275 74.173 74.294 74.173h382.118c31.702 0 57.596-25.773 57.596-57.475-.12-31.702-25.894-57.475-57.596-57.475" fill="url(#au)"/><path d="M1486.418-889.165c12.947 0 24.321 5.082 33.033 12.705 1.936-3.993 5.324-6.897 7.744-10.527 2.541-3.75 5.93-8.712 8.954-11.979 17.424-20.449 42.955-33.517 71.511-34.243 8.228-.242 16.214.605 23.958 2.3 36.421 8.106 65.34 36.541 74.173 73.083 4.477-.968 9.075-1.33 14.036-.847 2.541 0 5.324 1.573 7.744 1.936 2.3.363 5.93.605 8.107 1.452 2.662.605 5.082 1.573 7.502 2.662 11.132 5.203 19.723 15.125 23.232 27.225.726 2.3 1.452 5.93 1.694 8.35.121.846.605 1.572.605 2.298 1.573-.363 4.114-.726 5.808-.968a51.258 51.258 0 0 1 6.171-.363c16.94 0 31.944 8.107 41.261 20.207 9.196 12.1 12.705 27.225 9.922 41.261 0 28.193-29.282 51.062-57.475 51.062h-366.63c-36.42 0-74.294-29.524-74.294-65.945-3.75-18.27.484-37.873 12.463-53.724 11.98-15.85 31.581-26.378 53.603-26.378 10.043 0 19.602 2.178 28.435 6.171 2.42 1.09 5.808 2.783 8.107 4.114.121-1.936.968-3.509 1.331-5.445.847-4.84 2.541-11.374 4.72-15.609 7.26-16.94 24.32-28.798 44.285-28.798" fill="url(#av)"/><path d="M1486.54-887.955c12.825 0 23.957 5.203 32.185 12.463 1.694-3.509 5.93-4.84 8.107-7.986 2.178-3.267 5.93-9.196 8.591-12.1 16.698-20.933 41.624-34.606 69.696-36.058 7.986-.363 15.972.121 23.595 1.694 36.3 7.018 65.582 34.848 74.9 70.785 4.113-.242 8.348 0 12.825 1.09 2.178 0 4.961 2.782 7.14 3.145 2.056.363 6.533 0 8.47.726 2.782.363 5.444 1.09 7.985 2.057 11.98 4.598 21.417 15.004 24.684 27.951.605 1.936 1.331 6.655 1.694 8.712.121.726.847 1.21.968 1.936 1.452-.242 4.72-.847 6.171-1.089 2.178-.242 4.235-.484 6.413-.484 17.908 0 33.76 9.68 41.866 23.474 8.107 13.794 8.591 29.645 2.904 41.987 0 24.684-32.79 44.65-57.475 44.65h-351.263c-31.944 0-74.173-25.774-74.173-57.718-7.623-15.972-7.38-36.663 3.146-54.934 10.406-18.27 31.097-30.976 54.692-30.976 10.043 0 19.723 2.3 28.677 6.413 2.178.847 6.171 3.025 8.228 4.235.121-1.694 1.573-2.662 1.936-4.356.726-4.235 2.3-12.22 4.235-15.85 6.655-17.304 23.837-29.767 43.802-29.767" fill="url(#aw)"/><path d="M1486.781-886.745c12.705 0 23.474 5.203 31.34 12.1 1.451-3.025 6.654-2.783 8.47-5.566 1.814-2.783 5.928-9.68 8.227-12.22 15.972-21.418 40.293-35.575 67.881-37.753 7.865-.605 15.73-.242 23.353 1.09 36.18 6.05 65.824 33.032 75.746 68.606 3.751.484 7.623 1.331 11.616 3.025 1.936 0 4.598 4.114 6.413 4.477 1.815.363 7.26-.484 8.833 0 3.025.121 5.808.605 8.47 1.452 12.947 3.872 23.232 14.883 26.257 28.677.605 1.694 1.331 7.381 1.573 9.196.121.605 1.21.968 1.21 1.573 1.21-.242 5.203-.968 6.413-1.089 2.178-.363 4.477-.484 6.776-.484 18.997 0 35.453 11.253 42.35 26.862 6.897 15.488 4.356 32.065-3.993 42.592 0 21.175-36.3 38.236-57.475 38.236h-335.775c-27.346 0-74.173-22.143-74.173-49.489-11.374-13.673-15.125-35.574-6.17-56.144 8.953-20.57 30.612-35.695 55.78-35.695 10.164 0 19.844 2.42 28.798 6.655 1.815.726 6.655 3.388 8.35 4.356.12-1.452 2.298-1.815 2.54-3.267.605-3.63 2.057-12.947 3.751-16.093 6.05-17.908 23.232-31.097 43.44-31.097" fill="url(#ax)"/><path d="M1487.023-885.535c12.705 0 23.111 5.324 30.492 11.858 1.21-2.54 7.26-.726 8.833-3.025 1.573-2.299 5.93-10.285 7.865-12.342 15.246-22.022 38.962-36.663 66.066-39.567a92.269 92.269 0 0 1 23.111.363c36.058 5.082 66.066 31.34 76.593 66.43 3.51 1.088 6.897 2.661 10.406 4.84 1.573 0 4.356 5.444 5.808 5.686s7.865-1.089 9.196-.605c3.146-.12 6.05.121 8.954.847 13.794 3.267 24.926 14.762 27.71 29.524.483 1.452 1.21 8.228 1.451 9.68.121.484 1.452.726 1.573 1.21.968-.242 5.808-1.089 6.776-1.21 2.3-.363 4.72-.605 7.14-.605 20.085 0 37.146 12.947 42.954 30.13 5.808 17.181.242 34.484-11.01 43.317 0 17.666-39.81 31.944-57.355 31.944H1433.3c-22.748 0-74.173-18.392-74.173-41.26-15.246-11.375-22.99-34.365-15.488-57.355 7.502-22.99 30.13-40.293 56.75-40.293 10.163 0 19.964 2.42 29.04 7.018 1.572.605 7.017 3.63 8.47 4.477 0-1.21 2.903-.968 3.145-2.057.484-3.025 1.815-13.794 3.267-16.335 5.082-18.876 22.385-32.67 42.713-32.67" fill="url(#ay)"/><path d="M1487.265-884.325c12.584 0 22.627 5.324 29.645 11.495.968-2.057 7.986 1.331 9.196-.605 1.21-1.815 6.05-10.769 7.502-12.463 14.4-22.506 37.51-37.752 64.251-41.26 7.623-.969 15.246-1.09 22.87-.243 35.936 3.993 66.307 29.524 77.318 64.251 3.146 1.815 6.171 3.993 9.196 6.776 1.21 0 3.993 6.655 5.203 6.897 1.21.242 8.47-1.694 9.68-1.33a34.844 34.844 0 0 1 9.438.241c14.762 2.662 26.62 14.641 29.282 30.25.363 1.09 1.21 8.954 1.331 10.164 0 .363 1.815.484 1.815.847.847-.12 6.292-1.21 7.14-1.33 2.42-.364 4.96-.606 7.501-.606 21.054 0 38.841 14.52 43.56 33.396 4.598 18.876-3.872 36.905-17.908 43.923 0 14.036-43.318 25.531-57.354 25.531h-304.799c-18.27 0-74.052-14.762-74.052-33.033-18.997-9.075-30.855-33.154-24.926-58.564 5.93-25.41 29.766-44.89 57.838-44.89 10.164 0 20.086 2.54 29.282 7.26 1.21.483 7.381 3.992 8.591 4.597 0-.968 3.51 0 3.751-.968.363-2.42 1.573-14.52 2.662-16.698 4.235-19.118 21.417-33.638 41.987-33.638" fill="url(#az)"/><path d="M1487.507-883.115c12.463 0 22.143 5.445 28.798 11.253.726-1.452 8.591 3.267 9.56 1.936.967-1.33 6.05-11.374 7.138-12.584 13.673-22.99 36.18-38.72 62.315-43.076 7.502-1.21 15.004-1.573 22.627-.847 35.816 3.025 66.55 27.83 78.166 62.073 2.783 2.541 5.445 5.324 7.986 8.712.968 0 3.63 7.986 4.598 8.107.847.121 9.196-2.299 10.043-1.936 3.51-.605 6.776-.726 9.922-.363 15.73 2.057 28.435 14.52 30.855 30.976.242.847 1.21 9.68 1.331 10.648 0 .242 2.178.121 2.178.484.605-.12 6.897-1.33 7.502-1.452 2.541-.363 5.203-.726 7.865-.726 22.143 0 40.656 16.093 44.044 36.784 3.51 20.57-8.107 39.325-24.926 44.65 0 10.526-46.706 19.117-57.354 19.117h-289.432c-13.673 0-74.052-11.01-74.052-24.684-22.869-6.897-38.72-31.944-34.243-59.774 4.477-27.83 29.282-49.489 58.927-49.489 10.164 0 20.207 2.662 29.524 7.623.968.363 7.865 4.235 8.712 4.72 0-.727 4.235.846 4.356.12.363-1.815 1.331-15.367 2.178-16.94 3.388-20.207 20.691-35.332 41.382-35.332" fill="url(#aA)"/><path d="M1487.75-881.905c12.341 0 21.78 5.445 27.95 10.89.484-.968 9.196 5.324 9.922 4.477.605-.968 6.05-11.858 6.776-12.705 12.947-23.474 34.848-39.809 60.5-44.89 7.26-1.453 14.762-1.937 22.385-1.574 35.695 2.057 66.792 26.136 79.013 59.774 2.541 3.267 4.72 6.655 6.776 10.527.605 0 3.267 9.196 3.872 9.317.605.121 9.801-2.783 10.406-2.662 3.751-.847 7.14-1.21 10.406-.968 16.698 1.331 30.13 14.4 32.307 31.702.242.605 1.09 10.527 1.21 11.132 0 .242 2.42-.12 2.541.121.363-.12 7.381-1.452 7.744-1.573a46.243 46.243 0 0 1 8.228-.726c23.111 0 42.35 17.787 44.65 40.051 2.298 22.264-12.222 41.745-31.824 45.254 0 7.018-50.215 12.705-57.354 12.705h-273.944c-9.075 0-74.052-7.38-74.052-16.456-26.62-4.598-46.464-30.855-43.56-60.984 3.025-30.129 28.798-54.208 60.016-54.208 10.285 0 20.207 2.662 29.766 7.865.605.242 8.228 4.598 8.833 4.84 0-.484 4.84 1.694 4.961 1.21.242-1.21 1.21-16.093 1.694-17.182 2.541-20.207 19.844-35.937 40.777-35.937" fill="url(#aB)"/><path d="M1487.991-880.695c12.221 0 21.296 5.566 27.104 10.648.242-.484 9.922 7.381 10.164 6.897.363-.484 6.05-12.463 6.413-12.826 12.221-24.079 33.517-40.898 58.685-46.585 7.14-1.573 14.52-2.42 22.143-2.178 35.574.968 67.155 24.321 79.74 57.596 2.177 3.872 4.113 8.107 5.565 12.463.363 0 3.025 10.527 3.267 10.648.242 0 10.527-3.388 10.77-3.267 3.871-1.089 7.501-1.694 10.89-1.452 17.544.726 31.943 14.4 33.88 32.428.12.242 1.088 11.253 1.088 11.495 0 .121 2.783-.363 2.783-.242.242 0 7.865-1.573 8.107-1.573 2.783-.484 5.566-.847 8.591-.847 24.2 0 44.044 19.36 45.254 43.318 1.21 23.958-16.335 44.165-38.84 45.98 0 3.51-53.725 6.413-57.234 6.413h-258.456c-4.598 0-74.052-3.63-74.052-8.228-30.492-2.299-54.329-29.645-52.877-62.194 1.452-32.549 28.314-58.806 61.105-58.806 10.285 0 20.328 2.783 30.008 8.107.363.121 8.591 4.84 8.954 5.082 0-.242 5.445 2.662 5.566 2.42.121-.605.968-16.94 1.21-17.424 1.694-21.417 19.118-37.873 40.172-37.873" fill="url(#aC)"/><path d="M1776.94-713.11h-374.254c-34.243 0-62.194-28.435-62.194-63.404 0-34.969 27.951-63.404 62.194-63.404 10.285 0 20.45 2.904 30.13 8.47l15.124 8.712.726-17.787c.847-21.78 18.271-38.962 39.567-38.962 12.1 0 20.933 5.566 26.257 10.406l10.527 9.438 6.05-12.947c14.641-31.58 44.77-51.183 78.65-51.183 40.414 0 76.23 29.403 85.063 69.817l2.662 11.858 11.132-3.993c4.114-1.33 7.744-2.057 11.374-2.057 18.513 0 33.638 14.278 35.453 33.154l.968 11.98 11.616-2.3c2.904-.484 5.808-.968 8.954-.968 25.29 0 45.738 20.933 45.738 46.706 0 25.531-20.57 46.464-45.738 46.464" fill="url(#aD)"/></svg>