<svg xmlns="http://www.w3.org/2000/svg" xmlns:xlink="http://www.w3.org/1999/xlink" viewBox="3264.2 -1171 841.9 841.90004" width="841.9" height="841.9"><defs><linearGradient id="aS" gradientUnits="userSpaceOnUse" y1="-760.07" x2="0" y2="-1005.5" xlink:href="#a" gradientTransform="translate(-370.617 180.22) scale(1.1025)"/><linearGradient id="aa" gradientUnits="userSpaceOnUse" x1="3883.18" x2="3911.98" gradientTransform="matrix(1.05642 .01101 -.01507 1.07637 -329.89 182.518)" xlink:href="#b"/><linearGradient id="Y" gradientUnits="userSpaceOnUse" x1="4133.08" x2="4174.81" gradientTransform="matrix(.96436 .03304 -.0452 1.024 -248.438 187.115)" xlink:href="#c"/><linearGradient id="Z" gradientUnits="userSpaceOnUse" x1="4003.47" x2="4038.48" gradientTransform="matrix(1.01033 .02203 -.03013 1.05013 -289.162 184.817)" xlink:href="#d"/><linearGradient id="ab" gradientUnits="userSpaceOnUse" x1="5241.35" x2="5346.97" gradientTransform="matrix(.5958 .12116 -.1657 .81464 77.384 205.505)" xlink:href="#e"/><linearGradient id="ag" gradientUnits="userSpaceOnUse" x1="4260.93" x2="4314.81" gradientTransform="matrix(.8261 .0661 -.0904 .9455 -126.248 194.011)" xlink:href="#f"/><linearGradient id="ac" gradientUnits="userSpaceOnUse" x1="5007.64" x2="5100.11" gradientTransform="matrix(.64188 .11015 -.15071 .84077 36.658 203.206)" xlink:href="#g"/><linearGradient id="af" gradientUnits="userSpaceOnUse" x1="4423.65" x2="4485.57" gradientTransform="matrix(.78002 .0771 -.10547 .91926 -85.521 196.31)" xlink:href="#h"/><linearGradient id="ad" gradientUnits="userSpaceOnUse" x1="4795.02" x2="4876.02" gradientTransform="matrix(.68796 .09914 -.1356 .867 -4.069 200.908)" xlink:href="#i"/><linearGradient id="ae" gradientUnits="userSpaceOnUse" x1="4601.06" x2="4671.96" gradientTransform="matrix(.73393 .08812 -.1205 .89314 -44.795 198.609)" xlink:href="#j"/><linearGradient id="X" gradientUnits="userSpaceOnUse" x1="4273.03" x2="4322.11" gradientTransform="matrix(.91827 .04406 -.06026 .99787 -207.712 189.414)" xlink:href="#k"/><linearGradient id="b" gradientUnits="userSpaceOnUse" x1="3729.08" x2="3764.34" gradientTransform="matrix(.9582 .00999 -.01367 .9763 36.941 2.085)"><stop stop-color="#f5fbff"/><stop offset="1" stop-color="#f0f9ff"/></linearGradient><linearGradient id="W" gradientUnits="userSpaceOnUse" x1="4424.53" x2="4481.67" gradientTransform="matrix(.87219 .05508 -.07533 .97163 -166.974 191.713)" xlink:href="#l"/><linearGradient id="d" gradientUnits="userSpaceOnUse" x1="3843.2" x2="3886.07" gradientTransform="matrix(.9164 .01998 -.02733 .9525 73.882 4.17)"><stop stop-color="#ebf6ff"/><stop offset="1" stop-color="#e0f3ff"/></linearGradient><linearGradient id="k" gradientUnits="userSpaceOnUse" x1="4099.14" x2="4159.26" gradientTransform="matrix(.8329 .03996 -.05466 .9051 147.76 8.34)"><stop stop-color="#d6eeff"/><stop offset="1" stop-color="#c2e7ff"/></linearGradient><linearGradient id="c" gradientUnits="userSpaceOnUse" x1="3966.22" x2="4017.35" gradientTransform="matrix(.8747 .02997 -.041 .9288 110.82 6.255)"><stop stop-color="#e0f2ff"/><stop offset="1" stop-color="#d1edff"/></linearGradient><linearGradient id="Q" gradientUnits="userSpaceOnUse" x1="5668.35" x2="5797.75" gradientTransform="matrix(.5958 .12116 -.1657 .81464 77.384 205.505)" xlink:href="#e"/><linearGradient id="V" gradientUnits="userSpaceOnUse" x1="4588.94" x2="4654.95" gradientTransform="matrix(.8261 .0661 -.0904 .9455 -126.248 194.011)" xlink:href="#f"/><linearGradient id="R" gradientUnits="userSpaceOnUse" x1="5410.71" x2="5524" gradientTransform="matrix(.64188 .11015 -.15071 .84077 36.658 203.206)" xlink:href="#g"/><linearGradient id="U" gradientUnits="userSpaceOnUse" x1="4767.83" x2="4843.69" gradientTransform="matrix(.78002 .0771 -.10547 .91926 -85.521 196.31)" xlink:href="#h"/><linearGradient id="S" gradientUnits="userSpaceOnUse" x1="5176.5" x2="5275.74" gradientTransform="matrix(.68796 .09914 -.1356 .867 -4.069 200.908)" xlink:href="#i"/><linearGradient id="T" gradientUnits="userSpaceOnUse" x1="4962.99" x2="5049.85" gradientTransform="matrix(.73393 .08812 -.1205 .89314 -44.795 198.609)" xlink:href="#j"/><linearGradient id="ah" gradientUnits="userSpaceOnUse" x1="4111.29" x2="4157.93" gradientTransform="matrix(.87219 .05508 -.07533 .97163 -166.974 191.713)" xlink:href="#l"/><linearGradient id="aL" gradientUnits="userSpaceOnUse" y1="-749.02" x2="0" y2="-1013.57" xlink:href="#m" gradientTransform="translate(-370.617 180.22) scale(1.1025)"/><linearGradient id="ai" gradientUnits="userSpaceOnUse" x1="3973.33" x2="4013.4" gradientTransform="matrix(.91827 .04406 -.06026 .99787 -207.712 189.414)" xlink:href="#k"/><linearGradient id="aK" gradientUnits="userSpaceOnUse" y1="-747.44" x2="0" y2="-1015.05" xlink:href="#n" gradientTransform="translate(-370.617 180.22) scale(1.1025)"/><linearGradient id="a" gradientUnits="userSpaceOnUse" y1="-961.39" x2="0" y2="-1140.61"><stop stop-color="#a7c2d4"/><stop offset="1" stop-color="#eaf7ff"/></linearGradient><linearGradient id="aJ" gradientUnits="userSpaceOnUse" y1="-745.86" x2="0" y2="-1016.61" xlink:href="#o" gradientTransform="translate(-370.617 180.22) scale(1.1025)"/><linearGradient id="aM" gradientUnits="userSpaceOnUse" y1="-750.6" x2="0" y2="-1012.18" xlink:href="#p" gradientTransform="translate(-370.617 180.22) scale(1.1025)"/><linearGradient id="aR" gradientUnits="userSpaceOnUse" y1="-758.49" x2="0" y2="-1006.42" xlink:href="#q" gradientTransform="translate(-370.617 180.22) scale(1.1025)"/><linearGradient id="aN" gradientUnits="userSpaceOnUse" y1="-752.18" x2="0" y2="-1010.86" xlink:href="#r" gradientTransform="translate(-370.617 180.22) scale(1.1025)"/><linearGradient id="aQ" gradientUnits="userSpaceOnUse" y1="-756.92" x2="0" y2="-1007.41" xlink:href="#s" gradientTransform="translate(-370.617 180.22) scale(1.1025)"/><linearGradient id="aO" gradientUnits="userSpaceOnUse" y1="-753.76" x2="0" y2="-1009.63" xlink:href="#t" gradientTransform="translate(-370.617 180.22) scale(1.1025)"/><linearGradient id="aP" gradientUnits="userSpaceOnUse" y1="-755.34" x2="0" y2="-1008.48" xlink:href="#u" gradientTransform="translate(-370.617 180.22) scale(1.1025)"/><linearGradient id="q" gradientUnits="userSpaceOnUse" y1="-960.25" x2="0" y2="-1141.26"><stop stop-color="#a5c1d3"/><stop offset="1" stop-color="#e7f4fc"/></linearGradient><linearGradient id="o" gradientUnits="userSpaceOnUse" y1="-951.09" x2="0" y2="-1148.71"><stop stop-color="#95b9cc"/><stop offset="1" stop-color="#cddee8"/></linearGradient><linearGradient id="s" gradientUnits="userSpaceOnUse" y1="-959.1" x2="0" y2="-1141.97"><stop stop-color="#a3c0d2"/><stop offset="1" stop-color="#e4f1fa"/></linearGradient><linearGradient id="al" gradientUnits="userSpaceOnUse" x1="3617.97" x2="3641.47" gradientTransform="matrix(1.05642 .01101 -.01507 1.07637 -329.89 182.518)" xlink:href="#b"/><linearGradient id="aj" gradientUnits="userSpaceOnUse" x1="3845.81" x2="3879.88" gradientTransform="matrix(.96436 .03304 -.0452 1.024 -248.438 187.115)" xlink:href="#c"/><linearGradient id="ak" gradientUnits="userSpaceOnUse" x1="3727.67" x2="3756.24" gradientTransform="matrix(1.01033 .02203 -.03013 1.05013 -289.162 184.817)" xlink:href="#d"/><linearGradient id="n" gradientUnits="userSpaceOnUse" y1="-952.24" x2="0" y2="-1147.57"><stop stop-color="#97bacd"/><stop offset="1" stop-color="#d0e1eb"/></linearGradient><linearGradient id="u" gradientUnits="userSpaceOnUse" y1="-957.96" x2="0" y2="-1142.75"><stop stop-color="#a1bfd1"/><stop offset="1" stop-color="#e0eff7"/></linearGradient><linearGradient id="m" gradientUnits="userSpaceOnUse" y1="-953.38" x2="0" y2="-1146.49"><stop stop-color="#99bbce"/><stop offset="1" stop-color="#d3e4ed"/></linearGradient><linearGradient id="t" gradientUnits="userSpaceOnUse" y1="-956.81" x2="0" y2="-1143.59"><stop stop-color="#9fbed0"/><stop offset="1" stop-color="#ddecf5"/></linearGradient><linearGradient id="p" gradientUnits="userSpaceOnUse" y1="-954.53" x2="0" y2="-1145.46"><stop stop-color="#9bbccf"/><stop offset="1" stop-color="#d7e6f0"/></linearGradient><linearGradient id="r" gradientUnits="userSpaceOnUse" y1="-955.67" x2="0" y2="-1144.5"><stop stop-color="#9dbdd0"/><stop offset="1" stop-color="#dae9f2"/></linearGradient><linearGradient id="l" gradientUnits="userSpaceOnUse" x1="4243.1" x2="4313.08" gradientTransform="matrix(.7911 .04996 -.06833 .8813 184.71 10.425)"><stop stop-color="#cceaff"/><stop offset="1" stop-color="#b3e1ff"/></linearGradient><linearGradient id="f" gradientUnits="userSpaceOnUse" x1="4399.41" x2="4480.27" gradientTransform="matrix(.7493 .05995 -.08199 .8576 221.65 12.51)"><stop stop-color="#c2e5ff"/><stop offset="1" stop-color="#a3dbff"/></linearGradient><linearGradient id="x" gradientUnits="userSpaceOnUse" y1="-1101.85" x2="0" y2="-1121.36"><stop stop-color="#e4e655"/><stop offset="1" stop-color="#f0f2ac"/></linearGradient><linearGradient id="w" gradientUnits="userSpaceOnUse" y1="-1096.29" x2="0" y2="-1126.01"><stop stop-color="#edef77"/><stop offset="1" stop-color="#f0f2ac"/></linearGradient><linearGradient id="y" gradientUnits="userSpaceOnUse" y1="-1085.18" x2="0" y2="-1135.29"><stop stop-color="#feffba"/><stop offset="1" stop-color="#f0f2ac"/></linearGradient><linearGradient id="z" gradientUnits="userSpaceOnUse" y1="-1090.74" x2="0" y2="-1130.65"><stop stop-color="#f5f798"/><stop offset="1" stop-color="#f0f2ac"/></linearGradient><linearGradient id="v" gradientUnits="userSpaceOnUse" y1="-1107.4" x2="0" y2="-1116.72"><stop stop-color="#dbde33"/><stop offset="1" stop-color="#f0f2ac"/></linearGradient><linearGradient id="D" gradientUnits="userSpaceOnUse" y1="-589.88" x2="0" y2="-609.4" xlink:href="#x" gradientTransform="translate(-370.617 180.22) scale(1.1025)"/><linearGradient id="C" gradientUnits="userSpaceOnUse" y1="-584.32" x2="0" y2="-614.04" xlink:href="#w" gradientTransform="translate(-370.617 180.22) scale(1.1025)"/><linearGradient id="A" gradientUnits="userSpaceOnUse" y1="-573.19" x2="0" y2="-623.32" xlink:href="#y" gradientTransform="translate(-370.617 180.22) scale(1.1025)"/><linearGradient id="B" gradientUnits="userSpaceOnUse" y1="-578.75" x2="0" y2="-618.68" xlink:href="#z" gradientTransform="translate(-370.617 180.22) scale(1.1025)"/><linearGradient id="E" gradientUnits="userSpaceOnUse" y1="-595.44" x2="0" y2="-604.76" xlink:href="#v" gradientTransform="translate(-370.617 180.22) scale(1.1025)"/><linearGradient id="h" gradientUnits="userSpaceOnUse" x1="4569.58" x2="4662.51" gradientTransform="matrix(.7075 .06994 -.09566 .8338 258.59 14.595)"><stop stop-color="#b8e1ff"/><stop offset="1" stop-color="#94d5ff"/></linearGradient><linearGradient id="e" gradientUnits="userSpaceOnUse" x1="5427.52" x2="5586.03" gradientTransform="matrix(.5404 .1099 -.1503 .7389 406.35 22.935)"><stop stop-color="#8fd0ff"/><stop offset="1" stop-color="#57bdff"/></linearGradient><linearGradient id="j" gradientUnits="userSpaceOnUse" x1="4755.34" x2="4861.74" gradientTransform="matrix(.6657 .07993 -.1093 .8101 295.53 16.68)"><stop stop-color="#aeddff"/><stop offset="1" stop-color="#85cfff"/></linearGradient><linearGradient id="g" gradientUnits="userSpaceOnUse" x1="5181.86" x2="5320.65" gradientTransform="matrix(.5822 .09991 -.1367 .7626 369.41 20.85)"><stop stop-color="#99d4ff"/><stop offset="1" stop-color="#66c3ff"/></linearGradient><linearGradient id="i" gradientUnits="userSpaceOnUse" x1="4958.68" x2="5080.25" gradientTransform="matrix(.624 .08992 -.123 .7864 332.47 18.765)"><stop stop-color="#a3d9ff"/><stop offset="1" stop-color="#76c9ff"/></linearGradient><linearGradient xlink:href="#o" id="az" gradientUnits="userSpaceOnUse" y1="-951.09" x2="0" y2="-1148.71" gradientTransform="translate(-370.617 180.22) scale(1.1025)"/><linearGradient xlink:href="#n" id="aA" gradientUnits="userSpaceOnUse" y1="-952.24" x2="0" y2="-1147.57" gradientTransform="translate(-370.617 180.22) scale(1.1025)"/><linearGradient xlink:href="#m" id="aB" gradientUnits="userSpaceOnUse" y1="-953.38" x2="0" y2="-1146.49" gradientTransform="translate(-370.617 180.22) scale(1.1025)"/><linearGradient xlink:href="#p" id="aC" gradientUnits="userSpaceOnUse" y1="-954.53" x2="0" y2="-1145.46" gradientTransform="translate(-370.617 180.22) scale(1.1025)"/><linearGradient xlink:href="#r" id="aD" gradientUnits="userSpaceOnUse" y1="-955.67" x2="0" y2="-1144.5" gradientTransform="translate(-370.617 180.22) scale(1.1025)"/><linearGradient xlink:href="#t" id="aE" gradientUnits="userSpaceOnUse" y1="-956.81" x2="0" y2="-1143.59" gradientTransform="translate(-370.617 180.22) scale(1.1025)"/><linearGradient xlink:href="#u" id="aF" gradientUnits="userSpaceOnUse" y1="-957.96" x2="0" y2="-1142.75" gradientTransform="translate(-370.617 180.22) scale(1.1025)"/><linearGradient xlink:href="#s" id="aG" gradientUnits="userSpaceOnUse" y1="-959.1" x2="0" y2="-1141.97" gradientTransform="translate(-370.617 180.22) scale(1.1025)"/><linearGradient xlink:href="#q" id="aH" gradientUnits="userSpaceOnUse" y1="-960.25" x2="0" y2="-1141.26" gradientTransform="translate(-370.617 180.22) scale(1.1025)"/><linearGradient xlink:href="#a" id="aI" gradientUnits="userSpaceOnUse" y1="-961.39" x2="0" y2="-1140.61" gradientTransform="translate(-370.617 180.22) scale(1.1025)"/><linearGradient xlink:href="#e" id="F" gradientUnits="userSpaceOnUse" gradientTransform="matrix(.5958 .12116 -.1657 .81464 77.384 205.505)" x1="5427.52" x2="5586.03"/><linearGradient xlink:href="#g" id="G" gradientUnits="userSpaceOnUse" gradientTransform="matrix(.64188 .11015 -.15071 .84077 36.658 203.206)" x1="5181.86" x2="5320.65"/><linearGradient xlink:href="#i" id="H" gradientUnits="userSpaceOnUse" gradientTransform="matrix(.68796 .09914 -.1356 .867 -4.069 200.908)" x1="4958.68" x2="5080.25"/><linearGradient xlink:href="#j" id="I" gradientUnits="userSpaceOnUse" gradientTransform="matrix(.73393 .08812 -.1205 .89314 -44.795 198.609)" x1="4755.34" x2="4861.74"/><linearGradient xlink:href="#h" id="J" gradientUnits="userSpaceOnUse" gradientTransform="matrix(.78002 .0771 -.10547 .91926 -85.521 196.31)" x1="4569.58" x2="4662.51"/><linearGradient xlink:href="#f" id="K" gradientUnits="userSpaceOnUse" gradientTransform="matrix(.8261 .0661 -.0904 .9455 -126.248 194.011)" x1="4399.41" x2="4480.27"/><linearGradient xlink:href="#l" id="L" gradientUnits="userSpaceOnUse" gradientTransform="matrix(.87219 .05508 -.07533 .97163 -166.974 191.713)" x1="4243.1" x2="4313.08"/><linearGradient xlink:href="#k" id="M" gradientUnits="userSpaceOnUse" gradientTransform="matrix(.91827 .04406 -.06026 .99787 -207.712 189.414)" x1="4099.14" x2="4159.26"/><linearGradient xlink:href="#c" id="N" gradientUnits="userSpaceOnUse" gradientTransform="matrix(.96436 .03304 -.0452 1.024 -248.438 187.115)" x1="3966.22" x2="4017.35"/><linearGradient xlink:href="#d" id="O" gradientUnits="userSpaceOnUse" gradientTransform="matrix(1.01033 .02203 -.03013 1.05013 -289.162 184.817)" x1="3843.2" x2="3886.07"/><linearGradient xlink:href="#b" id="P" gradientUnits="userSpaceOnUse" gradientTransform="matrix(1.05642 .01101 -.01507 1.07637 -329.89 182.518)" x1="3729.08" x2="3764.34"/></defs><path d="M3715.468-481.832c0 17.86-14.552 32.413-32.413 32.413-17.86 0-32.413-14.553-32.413-32.413 0-17.86 14.552-32.414 32.413-32.414 18.081 0 32.413 14.553 32.413 32.414" fill="none"/><path d="M3708.854-481.832c0 14.222-11.466 25.909-25.91 25.909-14.442 0-25.908-11.466-25.908-25.91 0-14.221 11.466-25.908 25.909-25.908s25.909 11.576 25.909 25.909" opacity=".25" fill="url(#B)"/><path d="M3702.349-481.832c0 10.584-8.71 19.183-19.184 19.183-10.584 0-19.293-8.71-19.293-19.183 0-10.584 8.489-19.294 19.293-19.294 10.474 0 19.184 8.71 19.184 19.294" opacity=".5" fill="url(#C)"/><path d="M3695.734-481.832c0 6.946-5.623 12.568-12.569 12.568-7.056 0-12.568-5.622-12.568-12.568s5.623-12.569 12.568-12.569c6.946 0 12.569 5.513 12.569 12.569" opacity=".75" fill="url(#D)"/><path d="M3689.008-481.832c0 3.418-2.645 6.064-6.063 6.064-3.418 0-6.064-2.646-6.064-6.064s2.646-6.064 6.064-6.064a6.046 6.046 0 0 1 6.063 6.064" fill="url(#E)"/><path d="M3702.57-465.405c-13.01 64.166-41.455 82.247-70.892 76.403-29.326-6.063-48.51-33.736-35.39-98.012 13.01-64.165 82.688-134.505 82.688-134.505s36.713 91.949 23.593 156.114" fill="#9cb1bf"/><path d="M3690.331-487.896c-13.009 64.166-41.454 82.357-70.89 76.403-29.327-5.953-48.4-33.736-35.39-97.902 13.009-64.165 82.687-134.505 82.687-134.505s36.603 91.839 23.593 156.004" id="am" fill="#78b5db"/><path d="M3621.205-419.872c-31.752-6.394-42.005-35.28-31.311-87.98 8.71-42.997 48.179-93.932 74.198-122.818 12.679 36.714 28.996 99.005 20.286 142.113-10.694 52.589-31.311 75.19-63.173 68.685" id="an" fill="url(#F)"/><path d="M3622.418-429.463c-29.768-6.064-39.36-33.075-29.327-82.467 8.159-40.352 45.203-88.09 69.457-115.101 11.908 34.398 27.232 92.83 18.964 133.182-9.923 49.392-29.217 70.45-59.095 64.386" id="ao" fill="url(#G)"/><path d="M3623.63-438.945c-27.783-5.623-36.713-30.87-27.342-76.844 7.607-37.595 42.116-82.136 64.827-107.384 11.025 32.083 25.358 86.547 17.75 124.142-9.26 45.974-27.342 65.709-55.235 60.086" id="ap" fill="url(#H)"/><path d="M3624.843-448.537c-25.799-5.181-34.067-28.554-25.358-71.331 7.056-34.95 39.14-76.183 60.197-99.666 10.253 29.767 23.593 80.372 16.427 115.21-8.6 42.778-25.357 61.08-51.266 55.787" id="aq" fill="url(#I)"/><path d="M3626.056-458.128c-23.814-4.851-31.421-26.35-23.373-65.82 6.505-32.193 36.052-70.34 55.566-91.948 9.481 27.452 21.719 74.088 15.214 106.28-8.048 39.47-23.593 56.339-47.407 51.488" id="ar" fill="url(#J)"/><path d="M3627.269-467.72c-21.83-4.41-28.776-24.145-21.5-60.307 5.954-29.437 33.076-64.386 50.826-84.23 8.71 25.136 19.845 67.913 13.892 97.35-7.167 36.272-21.389 51.707-43.218 47.187" id="as" fill="url(#K)"/><path d="M3628.481-477.202c-19.735-4.079-26.129-21.94-19.514-54.794 5.402-26.79 29.988-58.543 46.195-76.513 7.828 22.821 18.08 61.63 12.568 88.42-6.504 32.855-19.404 46.856-39.249 42.887" id="at" fill="url(#L)"/><path d="M3629.694-486.793c-17.75-3.639-23.483-19.735-17.53-49.172 4.851-24.034 26.901-52.59 41.564-68.796 7.056 20.507 16.207 55.456 11.356 79.49-5.953 29.437-17.53 42.116-35.39 38.478" id="au" fill="url(#M)"/><path d="M3631.017-496.385c-15.766-3.197-20.837-17.53-15.545-43.66 4.3-21.388 23.924-46.745 36.823-61.078 6.284 18.192 14.333 49.172 10.033 70.56-5.292 26.24-15.545 37.375-31.311 34.178" id="av" fill="url(#N)"/><path d="M3632.23-505.977c-13.781-2.866-18.191-15.325-13.561-38.146 3.859-18.633 20.837-40.793 32.193-53.361 5.402 15.876 12.569 42.997 8.82 61.63-4.74 22.931-13.671 32.744-27.452 29.877" id="aw" fill="url(#O)"/><path d="M3633.443-515.458c-11.797-2.426-15.656-13.12-11.577-32.634 3.308-15.987 17.86-34.84 27.563-45.534 4.63 13.561 10.694 36.714 7.497 52.7-4.08 19.514-11.687 27.783-23.483 25.468" id="ax" fill="url(#P)"/><path d="M3634.655-525.05c-9.812-1.985-13.01-10.915-9.592-27.122 2.757-13.23 14.774-28.995 22.932-37.815 3.86 11.355 8.93 30.539 6.174 43.769-3.417 16.207-9.812 23.152-19.514 21.168" id="ay" fill="#fff"/><path d="M3851.627-573.009c-10.694 52.369-33.957 67.142-57.881 62.291-23.924-4.85-39.58-27.562-28.886-79.93 10.585-52.37 67.474-109.81 67.474-109.81s29.988 75.08 19.293 127.45" fill="#9cb1bf"/><path d="M3841.595-591.31c-10.695 52.479-33.957 67.252-57.882 62.29-23.924-4.85-39.58-27.562-28.885-79.93 10.584-52.37 67.473-109.7 67.473-109.7s29.988 74.86 19.294 127.34" fill="#78b5db"/><path d="M3785.257-535.855c-25.909-5.292-34.288-28.775-25.578-71.772 7.166-35.17 39.359-76.734 60.527-100.328 10.364 29.988 23.704 80.924 16.538 115.983-8.71 43.108-25.579 61.41-51.487 56.117" fill="url(#Q)"/><path d="M3786.249-543.572c-24.365-4.961-32.083-27.011-23.924-67.253 6.725-32.964 36.823-71.883 56.668-93.933 9.702 28.114 22.27 75.742 15.546 108.707-8.159 40.241-24.035 57.33-48.29 52.479" fill="url(#R)"/><path d="M3787.241-551.4c-22.711-4.63-29.988-25.137-22.38-62.732 6.284-30.76 34.398-67.032 52.92-87.649 9.04 26.24 20.727 70.67 14.442 101.43-7.607 37.485-22.38 53.582-44.982 48.951" fill="url(#S)"/><path d="M3788.233-559.228c-21.057-4.3-27.783-23.373-20.727-58.212 5.844-28.444 31.863-62.18 49.062-81.364 8.379 24.365 19.293 65.599 13.45 94.043-7.056 34.95-20.727 49.833-41.785 45.533" fill="url(#T)"/><path d="M3789.226-567.055c-19.404-3.97-25.688-21.5-19.184-53.692 5.292-26.24 29.437-57.44 45.313-75.08 7.718 22.38 17.75 60.527 12.348 86.766-6.394 32.193-19.073 45.975-38.477 42.006" fill="url(#U)"/><path d="M3790.218-574.883c-17.75-3.638-23.483-19.735-17.53-49.172 4.851-24.034 27.011-52.589 41.454-68.685 7.056 20.506 16.207 55.455 11.356 79.49-5.954 29.437-17.53 42.005-35.28 38.367" fill="url(#V)"/><path d="M3791.21-582.6c-16.206-3.308-21.388-17.861-15.876-44.652 4.41-21.83 24.476-47.738 37.706-62.401 6.394 18.632 14.773 50.384 10.363 72.213-5.512 26.68-16.096 38.037-32.193 34.84" fill="url(#W)"/><path d="M3792.202-590.428c-14.553-2.977-19.183-16.097-14.332-40.131 3.969-19.625 22.05-42.888 33.847-56.118 5.733 16.758 13.23 45.203 9.26 64.938-4.85 23.924-14.332 34.287-28.775 31.31" fill="url(#X)"/><path d="M3793.195-598.256c-12.9-2.646-17.089-14.333-12.679-35.61 3.528-17.42 19.514-38.037 30.098-49.834 5.072 14.884 11.797 40.131 8.269 57.55-4.41 21.39-12.789 30.54-25.688 27.894" fill="url(#Y)"/><path d="M3794.187-606.084c-11.245-2.315-14.884-12.458-11.135-31.09 3.087-15.215 17.088-33.296 26.24-43.55 4.52 13.01 10.252 35.06 7.165 50.275-3.748 18.742-11.024 26.68-22.27 24.365" fill="url(#Z)"/><path d="M3795.18-613.912c-9.703-1.984-12.79-10.694-9.482-26.57 2.646-13.01 14.553-28.444 22.49-37.154 3.86 11.135 8.82 29.988 6.175 42.997-3.308 15.876-9.592 22.712-19.184 20.727" fill="url(#aa)"/><path d="M3796.171-621.74c-8.048-1.653-10.583-8.82-7.937-22.05 2.204-10.804 12.127-23.593 18.632-30.87 3.197 9.151 7.276 24.917 5.071 35.722-2.535 13.23-7.827 18.852-15.765 17.199" fill="#fff"/><path d="M3558.252-522.294c-8.71 42.777-27.673 54.794-47.297 50.825-19.514-3.969-32.303-22.49-23.594-65.268 8.71-42.777 55.125-89.633 55.125-89.633s24.366 61.3 15.766 104.076" fill="#9cb1bf"/><path d="M3549.983-537.178c-8.71 42.777-27.673 54.905-47.297 50.826-19.514-3.97-32.303-22.491-23.594-65.268 8.71-42.777 55.125-89.634 55.125-89.634s24.476 61.3 15.766 104.076" fill="#78b5db"/><path d="M3504.009-491.865c-21.168-4.3-28.003-23.483-20.837-58.653 5.843-28.665 32.083-62.622 49.392-81.916 8.489 24.476 19.404 66.04 13.56 94.705-7.166 35.17-20.947 50.164-42.115 45.864" fill="url(#ab)"/><path d="M3504.78-498.26c-19.844-4.079-26.239-22.05-19.514-54.904 5.513-26.9 30.099-58.653 46.306-76.734 7.937 22.932 18.08 61.85 12.678 88.751-6.725 32.855-19.624 46.967-39.47 42.888" fill="url(#ac)"/><path d="M3505.663-504.654c-18.522-3.748-24.476-20.506-18.191-51.266 5.071-25.027 28.113-54.684 43.217-71.552 7.387 21.388 16.869 57.66 11.797 82.797-6.284 30.76-18.411 43.77-36.823 40.021" fill="url(#ad)"/><path d="M3506.434-511.048c-17.199-3.528-22.711-19.074-16.978-47.518 4.74-23.263 26.019-50.825 40.131-66.37 6.835 19.844 15.655 53.58 10.915 76.844-5.733 28.444-16.869 40.572-34.068 37.044" fill="url(#ae)"/><path d="M3507.206-517.333c-15.876-3.197-20.947-17.64-15.655-43.88 4.41-21.498 24.034-46.855 36.934-61.298 6.284 18.301 14.442 49.392 10.142 70.89-5.181 26.24-15.545 37.486-31.42 34.288" fill="url(#af)"/><path d="M3508.088-523.727c-14.553-2.977-19.183-16.097-14.332-40.131 3.969-19.625 22.05-42.887 33.847-56.117 5.732 16.758 13.23 45.202 9.26 64.937-4.85 23.924-14.332 34.288-28.775 31.31" fill="url(#ag)"/><path d="M3508.86-530.122c-13.23-2.646-17.42-14.663-13.01-36.492 3.639-17.86 19.956-39.029 30.76-50.936 5.292 15.215 12.017 41.123 8.38 58.874-4.41 21.94-12.9 31.2-26.13 28.554" fill="url(#ah)"/><path d="M3509.632-536.516c-11.907-2.426-15.656-13.12-11.687-32.744 3.198-16.097 17.971-35.06 27.673-45.864 4.74 13.67 10.805 36.933 7.607 52.92-3.969 19.734-11.686 28.113-23.593 25.688" fill="url(#ai)"/><path d="M3510.514-542.91c-10.584-2.095-13.892-11.687-10.364-29.107 2.867-14.222 15.987-31.09 24.586-40.682 4.19 12.128 9.592 32.744 6.725 46.967-3.638 17.53-10.473 25.026-20.947 22.821" fill="url(#aj)"/><path d="M3511.285-549.305c-9.26-1.874-12.237-10.143-9.04-25.358 2.536-12.458 13.892-27.121 21.389-35.5 3.638 10.584 8.378 28.665 5.843 41.013-2.977 15.325-9.04 21.83-18.191 19.845" fill="url(#ak)"/><path d="M3512.057-555.59c-7.827-1.543-10.363-8.71-7.717-21.719 2.205-10.584 11.907-23.262 18.301-30.318 3.087 9.04 7.166 24.475 5.072 35.06-2.646 13.009-7.718 18.521-15.656 16.978" fill="url(#al)"/><path d="M3512.94-561.984c-6.506-1.323-8.71-7.276-6.395-17.97 1.764-8.82 9.922-19.294 15.214-25.248 2.536 7.497 5.954 20.286 4.19 29.106-2.315 10.805-6.505 15.435-13.01 14.112" fill="#fff"/><use xlink:href="#am" width="100%" height="100%"/><use xlink:href="#an" width="100%" height="100%"/><use xlink:href="#ao" width="100%" height="100%"/><use xlink:href="#ap" width="100%" height="100%"/><use xlink:href="#aq" width="100%" height="100%"/><use xlink:href="#ar" width="100%" height="100%"/><use xlink:href="#as" width="100%" height="100%"/><use xlink:href="#at" width="100%" height="100%"/><use xlink:href="#au" width="100%" height="100%"/><use xlink:href="#av" width="100%" height="100%"/><use xlink:href="#aw" width="100%" height="100%"/><use xlink:href="#ax" width="100%" height="100%"/><use xlink:href="#ay" width="100%" height="100%"/><path d="M4025.381-976.744c-4.079 0-7.938.44-11.796 1.212-2.206-25.357-23.263-45.202-49.172-45.202-5.623 0-10.915 1.102-15.876 2.866-10.474-46.966-52.148-82.026-102.312-82.026-41.785 0-77.726 24.696-94.594 60.087-9.482-8.38-21.83-13.671-35.501-13.671-29.106 0-52.59 23.042-53.802 51.707-11.246-6.284-24.035-10.253-37.926-10.253-42.998 0-77.947 34.949-77.947 77.946 0 42.998 34.95 77.947 77.947 77.947h400.98c33.295 0 60.306-27.011 60.306-60.307.11-33.295-26.901-60.306-60.307-60.306" fill="#9cb1bf"/><path d="M4017.994-988.982c-3.969 0-7.938.44-11.796 1.213-2.205-25.358-23.263-45.203-49.172-45.203-5.622 0-10.914 1.103-15.876 2.867-10.474-46.967-52.148-82.026-102.312-82.026-41.785 0-77.616 24.696-94.484 60.196-9.482-8.379-21.83-13.67-35.5-13.67-28.996 0-52.59 23.041-53.803 51.706-11.245-6.284-24.144-10.253-37.926-10.253-42.997 0-77.946 34.84-77.946 77.947 0 43.108 34.949 77.836 77.946 77.836h400.98c33.295 0 60.417-27.01 60.417-60.306-.22-33.296-27.232-60.307-60.528-60.307" fill="url(#az)"/><path d="M3708.964-1064.393c13.56 0 25.578 5.402 34.618 13.34 1.985-4.19 5.513-7.166 8.159-11.025 2.646-3.859 6.174-9.04 9.371-12.568 18.302-21.5 45.092-35.17 75.08-35.942 8.6-.22 16.979.662 25.137 2.426 38.257 8.489 68.576 38.367 77.837 76.623 4.63-.992 9.481-1.433 14.663-.882 2.646 0 5.623 1.654 8.048 2.095 2.426.441 6.174.662 8.49 1.433 2.756.662 5.291 1.544 7.827 2.757 11.577 5.402 20.727 15.765 24.366 28.554.771 2.316 1.433 6.174 1.874 8.71.11.882.551 1.544.661 2.426 1.654-.331 4.41-.772 6.064-.993 2.095-.22 4.3-.44 6.395-.44 17.75 0 33.626 8.489 43.328 21.167 9.702 12.68 13.34 28.555 10.363 43.329 0 29.547-30.76 53.581-60.306 53.581h-384.773c-38.257 0-77.947-30.98-77.947-69.237-3.969-19.183.552-39.8 13.01-56.338 12.568-16.647 33.075-27.672 56.227-27.672 10.584 0 20.617 2.315 29.768 6.394 2.536 1.103 6.064 2.867 8.489 4.3.11-2.095.992-3.749 1.323-5.733.882-5.072 2.646-11.907 4.961-16.317 8.159-17.64 26.13-29.988 46.967-29.988" fill="url(#aA)"/><path d="M3709.294-1063.18c13.451 0 25.138 5.402 33.737 13.01 1.764-3.75 6.284-5.072 8.49-8.38 2.314-3.418 6.283-9.702 9.04-12.679 17.53-22.05 43.659-36.272 73.096-37.815 8.489-.441 16.757.22 24.806 1.764 38.146 7.386 68.796 36.492 78.608 74.308 4.3-.22 8.82 0 13.45 1.103 2.316 0 5.182 2.976 7.387 3.307 2.205.441 6.836 0 8.93.772 2.977.44 5.734 1.102 8.38 2.095 12.568 4.74 22.49 15.765 25.908 29.326.662 2.095 1.434 7.056 1.764 9.15.11.773.882 1.324.993 2.096 1.433-.331 4.96-.882 6.394-1.103 2.205-.33 4.52-.44 6.836-.44 18.852 0 35.39 10.142 43.879 24.695 8.49 14.443 8.93 31.09 3.087 44.1 0 25.909-34.398 46.856-60.307 46.856h-368.565c-33.516 0-77.837-27.121-77.837-60.527-7.938-16.758-7.717-38.477 3.308-57.66 11.025-19.074 32.634-32.524 57.33-32.524 10.584 0 20.727 2.425 30.098 6.725 2.205.992 6.505 3.197 8.6 4.41.11-1.874 1.653-2.867 1.984-4.63.772-4.41 2.425-12.79 4.41-16.648 7.166-18.192 25.137-31.311 46.195-31.311" fill="url(#aB)"/><path d="M3709.515-1061.857c13.34 0 24.696 5.512 32.855 12.678 1.543-3.197 6.945-2.866 8.93-5.843 1.984-2.866 6.284-10.253 8.6-12.789 16.757-22.49 42.225-37.375 71.22-39.69 8.27-.661 16.538-.22 24.586 1.103 37.926 6.394 69.127 34.728 79.49 71.993a45.656 45.656 0 0 1 12.128 3.087c1.985 0 4.851 4.3 6.725 4.63 1.875.331 7.608-.55 9.261.11 3.087.11 6.064.662 8.82 1.544 13.561 4.08 24.366 15.656 27.563 30.098.551 1.764 1.323 7.828 1.654 9.702.11.662 1.212.993 1.323 1.654 1.212-.22 5.512-1.102 6.725-1.213 2.315-.33 4.74-.55 7.166-.55 19.955 0 37.154 11.796 44.431 28.113 7.276 16.317 4.63 33.626-4.19 44.761 0 22.16-38.036 40.131-60.306 40.131h-352.36c-28.664 0-77.836-23.262-77.836-51.927-12.017-14.333-15.876-37.265-6.505-58.874 9.372-21.609 32.193-37.375 58.433-37.375 10.584 0 20.837 2.536 30.319 7.056 1.874.772 6.945 3.528 8.71 4.52.11-1.543 2.425-1.874 2.645-3.417.662-3.749 2.205-13.56 3.86-16.868 6.504-18.963 24.475-32.634 45.753-32.634" fill="url(#aC)"/><path d="M3709.735-1060.645c13.23 0 24.255 5.513 31.973 12.459 1.213-2.646 7.607-.772 9.261-3.198 1.654-2.425 6.284-10.804 8.269-12.899 15.986-23.042 40.792-38.477 69.237-41.454 8.158-.882 16.317-.661 24.255.441 37.815 5.292 69.347 32.855 80.372 69.678a49.004 49.004 0 0 1 10.915 5.182c1.653 0 4.52 5.622 6.063 5.953 1.544.331 8.27-1.212 9.702-.661 3.308-.11 6.395.22 9.372.882 14.553 3.418 26.129 15.545 29.106 30.87.44 1.433 1.323 8.6 1.543 10.143.11.551 1.544.772 1.654 1.323 1.103-.22 6.064-1.213 7.166-1.323 2.426-.33 4.961-.662 7.497-.662 21.058 0 39.029 13.561 45.092 31.642 6.064 18.081.221 36.162-11.466 45.423 0 18.522-41.784 33.516-60.196 33.516h-336.152c-23.925 0-77.837-19.294-77.837-43.218-15.986-11.907-24.145-36.052-16.317-60.196 7.828-24.145 31.642-42.226 59.645-42.226 10.695 0 20.948 2.536 30.54 7.387 1.653.661 7.386 3.858 8.82 4.74.11-1.323 3.087-.992 3.307-2.205.551-3.197 1.874-14.443 3.418-17.199 5.292-19.955 23.373-34.398 44.761-34.398" fill="url(#aD)"/><path d="M3709.956-1059.322c13.23 0 23.704 5.623 31.09 12.128.993-2.095 8.27 1.323 9.592-.551 1.323-1.985 6.285-11.356 7.828-13.12 15.104-23.594 39.47-39.58 67.363-43.328 7.938-1.103 15.986-1.103 24.034-.22 37.706 4.189 69.568 31.09 81.144 67.362 3.308 1.874 6.505 4.19 9.702 7.166 1.323 0 4.19 7.056 5.403 7.277 1.212.22 8.93-1.764 10.143-1.323 3.528-.441 6.725-.331 9.922.33 15.545 2.757 28.004 15.435 30.76 31.642.33 1.213 1.323 9.371 1.433 10.694.11.441 1.874.441 1.985.882.882-.22 6.615-1.323 7.497-1.433a46.273 46.273 0 0 1 7.938-.661c22.16 0 40.792 15.214 45.643 35.06 4.851 19.844-4.08 38.697-18.853 46.084 0 14.773-45.423 26.79-60.196 26.79h-319.946c-19.073 0-77.726-15.435-77.726-34.618-19.955-9.592-32.413-34.84-26.13-61.41 6.285-26.68 31.202-47.187 60.749-47.187 10.694 0 21.057 2.646 30.76 7.608 1.322.551 7.827 4.19 8.93 4.85 0-.991 3.748 0 3.858-.991.441-2.536 1.654-15.325 2.867-17.42 4.52-20.506 22.711-35.61 44.21-35.61" fill="url(#aE)"/><path d="M3710.287-1058.109c13.12 0 23.263 5.733 30.208 11.797.772-1.544 9.04 3.528 10.033 1.984.992-1.433 6.284-11.907 7.497-13.23 14.332-24.144 38.036-40.682 65.378-45.202 7.828-1.323 15.766-1.654 23.704-.882 37.595 3.197 69.898 29.216 82.026 65.047 2.977 2.646 5.733 5.623 8.379 9.151.992 0 3.859 8.379 4.74 8.49.883.22 9.592-2.316 10.474-2.096 3.749-.661 7.167-.771 10.364-.33 16.537 2.094 29.878 15.325 32.303 32.524.331.882 1.213 10.253 1.323 11.135 0 .33 2.205.22 2.315.551.662-.11 7.167-1.433 7.828-1.543 2.646-.441 5.402-.772 8.269-.772 23.263 0 42.556 16.978 46.195 38.587 3.638 21.61-8.49 41.234-26.13 46.857 0 11.135-49.06 20.065-60.196 20.065h-303.739c-14.332 0-77.726-11.576-77.726-25.909-23.924-7.166-40.572-33.516-35.831-62.732 4.74-29.216 30.76-52.038 61.85-52.038 10.694 0 21.168 2.756 30.98 7.938.993.441 8.159 4.52 9.151 4.961 0-.771 4.41.882 4.52.11.331-1.874 1.434-16.096 2.316-17.75 3.748-20.837 21.94-36.713 43.769-36.713" fill="url(#aF)"/><path d="M3710.507-1056.786c13.01 0 22.822 5.733 29.327 11.466.551-1.102 9.702 5.623 10.363 4.63.662-.992 6.285-12.458 7.056-13.34 13.561-24.696 36.603-41.784 63.504-47.076a87.81 87.81 0 0 1 23.484-1.544c37.485 2.095 70.119 27.342 82.908 62.732 2.646 3.418 4.96 7.056 7.166 11.136.661 0 3.528 9.701 4.079 9.812.662.11 10.364-2.977 10.915-2.757 3.859-.882 7.497-1.212 10.915-.992 17.419 1.433 31.641 15.215 33.956 33.296.221.551 1.213 11.025 1.213 11.576 0 .22 2.646-.11 2.646.11.441-.11 7.718-1.543 8.159-1.543 2.756-.441 5.623-.772 8.6-.772 24.254 0 44.43 18.632 46.855 42.005 2.426 23.373-12.788 43.88-33.405 47.518 0 7.387-52.7 13.34-60.197 13.34H3680.52c-9.591 0-77.726-7.717-77.726-17.309-28.003-4.74-48.84-32.303-45.644-64.055 3.088-31.642 30.209-56.89 62.953-56.89 10.805 0 21.279 2.867 31.201 8.27.661.22 8.6 4.74 9.261 5.181 0-.55 5.072 1.875 5.182 1.323.22-1.212 1.212-16.978 1.764-18.08 2.756-21.5 21.057-38.037 42.997-38.037" fill="url(#aG)"/><path d="M3710.728-1055.573c12.899 0 22.38 5.843 28.444 11.135.22-.551 10.364 7.718 10.695 7.277.33-.441 6.284-13.01 6.725-13.45 12.789-25.248 35.17-42.888 61.63-48.952 7.496-1.764 15.324-2.536 23.152-2.315 37.375 1.102 70.45 25.578 83.68 60.417a74.16 74.16 0 0 1 5.843 13.12c.33 0 3.087 11.024 3.418 11.135.33.11 11.025-3.528 11.356-3.418 4.079-1.213 7.827-1.764 11.466-1.544 18.411.662 33.515 15.105 35.5 34.068.11.33 1.103 11.797 1.213 12.127 0 .11 2.977-.33 2.977-.22.22 0 8.268-1.654 8.489-1.654 2.866-.551 5.953-.882 8.93-.882 25.358 0 46.195 20.286 47.407 45.533 1.213 25.137-17.198 46.416-40.682 48.18 0 3.748-56.448 6.725-60.086 6.725H3689.67c-4.74 0-77.726-3.859-77.726-8.6-31.973-2.425-57-31.09-55.456-65.268 1.543-34.177 29.767-61.74 64.165-61.74 10.805 0 21.389 2.867 31.422 8.6.33.11 9.04 5.071 9.371 5.292 0-.22 5.733 2.756 5.843 2.536.11-.662.992-17.75 1.323-18.302 1.764-22.49 19.955-39.8 42.116-39.8" fill="url(#aH)"/><path d="M4013.915-879.724h-392.82c-35.942 0-65.268-29.878-65.268-66.591 0-36.714 29.326-66.591 65.267-66.591 10.805 0 21.5 2.976 31.642 8.82l15.876 9.15.772-18.632c.882-22.822 19.183-40.792 41.564-40.792 12.79 0 21.94 5.843 27.453 10.914l11.135 9.923 6.394-13.56c15.325-33.076 46.967-53.693 82.578-53.693 42.446 0 79.93 30.76 89.192 73.206l2.756 12.458 11.687-4.189c4.3-1.433 8.158-2.205 11.906-2.205 19.405 0 35.28 14.994 37.155 34.84l1.102 12.568 12.128-2.426c3.087-.551 6.174-.992 9.371-.992 26.46 0 48.069 22.05 48.069 48.95 0 26.902-21.499 48.842-47.959 48.842" fill="url(#aI)"/><path d="M3952.837-792.296c-5.513 0-10.915.551-16.097 1.654-3.087-34.73-31.972-61.85-67.362-61.85-7.718 0-14.884 1.543-21.72 3.858-14.332-64.276-71.552-112.345-140.127-112.345-57.33 0-106.392 33.847-129.544 82.357-13.01-11.466-29.988-18.742-48.73-18.742-39.801 0-71.994 31.531-73.758 70.89-15.435-8.6-33.075-14.001-52.038-14.001-58.874 0-106.722 47.738-106.722 106.832 0 58.984 47.848 106.722 106.722 106.722h549.265c45.644 0 82.688-37.044 82.688-82.577 0-45.754-36.934-82.798-82.577-82.798" fill="#9cb1bf"/><path d="M3940.71-807.4c-5.513 0-10.916.55-16.097 1.653-3.087-34.618-31.973-61.85-67.363-61.85-7.607 0-14.884 1.544-21.72 3.859-14.332-64.276-71.552-112.345-140.127-112.345-57.33 0-106.391 33.847-129.544 82.357-13.01-11.466-29.988-18.632-48.73-18.632-39.8 0-71.994 31.531-73.758 70.89-15.435-8.71-32.964-14.112-52.038-14.112-58.983 0-106.722 47.849-106.722 106.722 0 58.984 47.739 106.722 106.722 106.722H3940.6c45.643 0 82.687-37.044 82.687-82.687.11-45.644-36.933-82.577-82.577-82.577" fill="url(#aJ)"/><path d="M3517.46-910.705c18.632 0 35.059 7.277 47.517 18.302 2.757-5.843 7.608-9.812 11.136-15.104 3.638-5.292 8.489-12.459 12.789-17.2 25.137-29.326 61.74-48.179 102.863-49.17 11.356-.332 22.49.77 33.185 3.086 52.92 11.246 94.925 52.48 107.714 105.289 6.395-1.323 13.01-1.985 19.956-1.213 3.638 0 7.607 2.205 11.025 2.867 3.417.55 8.489.882 11.686 1.984 3.748.882 7.387 2.205 10.805 3.749 15.986 7.386 28.334 21.719 33.405 39.138 1.103 3.198 1.985 8.49 2.536 11.907.22 1.103.992 2.095 1.103 3.308 2.094-.441 5.512-.992 7.717-1.213 3.087-.33 6.174-.551 9.261-.551 24.255 0 45.974 11.576 59.204 28.996 13.34 17.42 18.302 39.138 14.223 59.424 0 40.572-44.321 73.427-84.893 73.427h-536.587c-57.881 0-104.847-46.967-104.847-105.068 0-57.992 46.966-105.069 104.847-105.069 14.553 0 28.224 3.198 40.903 8.82 3.528 1.434 8.269 3.97 11.576 5.844.11-2.867 1.434-5.182 1.875-7.938 1.212-6.946 3.638-16.317 6.725-22.27 11.135-24.476 35.72-41.345 64.276-41.345" fill="url(#aK)"/><path d="M3517.79-908.94c18.412 0 34.398 7.386 46.195 17.86 2.425-5.072 8.6-6.946 11.687-11.576 3.086-4.63 8.489-13.23 12.347-17.42 24.035-30.098 59.756-49.612 100.218-51.707 11.135-.551 22.27.22 32.964 2.205 52.7 9.922 95.256 49.943 108.707 102.091 5.953-.33 12.017 0 18.301 1.544 3.198 0 7.167 4.08 10.143 4.63 2.977.552 9.372.11 12.238 1.103 4.08.551 7.828 1.543 11.466 2.866 17.2 6.505 30.87 21.61 35.5 40.242.883 2.866 1.985 9.591 2.426 12.568.11.992 1.544 1.764 1.654 2.756 1.874-.33 6.174-1.102 8.048-1.323a70.525 70.525 0 0 1 9.702-.661c25.799 0 48.4 13.891 60.086 33.736 11.687 19.845 12.348 42.557 4.19 60.307 0 35.5-51.707 64.276-87.208 64.276h-523.908c-56.779 0-102.863-46.195-102.863-103.304 0-57 46.084-103.305 102.863-103.305 14.553 0 28.445 3.308 41.234 9.261 3.087 1.323 8.93 4.41 11.796 6.064.11-2.536 2.316-3.859 2.757-6.394 1.102-6.064 3.307-17.42 6.063-22.712 9.923-25.247 34.509-43.108 63.394-43.108" fill="url(#aL)"/><path d="M3518.121-907.287c18.302 0 33.736 7.497 44.982 17.42 2.095-4.3 9.482-3.97 12.238-7.938 2.646-3.97 8.6-14.002 11.797-17.53 22.931-30.87 57.88-51.156 97.57-54.243 11.026-.882 21.94-.441 32.745 1.323 52.479 8.49 95.477 47.518 109.809 98.894 5.402.662 11.025 1.874 16.538 4.19 2.756 0 6.614 5.843 9.26 6.394 2.536.441 10.364-.772 12.79.11 4.3.11 8.268.882 12.237 2.095 18.633 5.623 33.406 21.389 37.706 41.344.772 2.425 1.874 10.694 2.205 13.23.11.882 2.205 1.323 2.315 2.205 1.544-.33 6.835-1.323 8.379-1.433 3.308-.441 6.725-.772 10.143-.772 27.342 0 50.935 16.207 60.858 38.477 9.922 22.27 6.284 46.085-5.733 61.3 0 30.428-58.984 55.124-89.413 55.124h-511.229c-55.676 0-100.989-45.423-100.989-101.54 0-56.007 45.203-101.54 100.989-101.54 14.553 0 28.555 3.417 41.564 9.702 2.646 1.102 9.482 4.85 11.907 6.174.11-2.205 3.308-2.646 3.639-4.741.882-5.182 2.976-18.522 5.292-23.042 8.599-26.35 33.295-45.203 62.401-45.203" fill="url(#aM)"/><path d="M3518.452-905.523c18.191 0 33.185 7.607 43.769 16.979 1.764-3.639 10.474-1.103 12.679-4.41 2.205-3.308 8.6-14.774 11.245-17.75 21.83-31.642 56.007-52.7 94.926-56.78 10.804-1.212 21.719-.992 32.413.442 52.259 7.056 95.697 44.982 110.801 95.697 4.962 1.653 9.923 3.748 14.884 6.945 2.315 0 6.174 7.718 8.269 8.159 2.095.33 11.356-1.544 13.34-.882 4.52-.22 8.82.22 12.9 1.213 19.955 4.74 35.83 21.278 39.91 42.336.661 1.984 1.764 11.796 2.095 13.891.11.662 2.866.882 2.866 1.654 1.323-.22 7.387-1.433 8.82-1.544 3.418-.55 7.056-.882 10.584-.882 28.775 0 53.361 18.522 61.63 43.218 8.269 24.696.33 49.613-15.766 62.292 0 25.357-66.37 45.864-91.728 45.864h-498.55c-54.684 0-99.005-44.652-99.005-99.777s44.43-99.776 99.005-99.776c14.663 0 28.665 3.528 41.784 10.033 2.205.882 10.033 5.182 12.128 6.394.11-1.764 4.19-1.323 4.52-3.087.772-4.3 2.646-19.734 4.63-23.483 7.828-26.9 32.524-46.746 61.85-46.746" fill="url(#aN)"/><path d="M3518.782-903.759c17.971 0 32.524 7.607 42.557 16.538 1.323-2.867 11.466 1.874 13.23-.772 1.764-2.646 8.6-15.545 10.805-17.97 20.727-32.304 54.022-54.244 92.389-59.315 10.694-1.434 21.499-1.654 32.193-.441 52.038 5.622 96.028 42.556 111.904 92.5 4.52 2.645 8.93 5.732 13.12 9.591 1.764 0 5.622 9.592 7.386 9.923 1.654.33 12.238-2.316 13.892-1.764 4.85-.552 9.26-.441 13.56.33 21.279 3.86 38.368 21.168 42.116 43.439.551 1.654 1.764 12.789 1.985 14.553.11.551 3.528.44 3.528 1.102 1.102-.22 8.048-1.543 9.15-1.653 3.639-.552 7.277-.993 11.025-.993 30.319 0 55.787 20.838 62.512 48.07 6.615 27.12-5.623 53.03-25.798 63.173 0 20.286-73.647 36.713-93.933 36.713H3394.53c-53.582 0-97.13-43.88-97.13-98.012 0-54.133 43.548-98.123 97.13-98.123 14.663 0 28.885 3.638 42.115 10.474 1.764.772 10.584 5.623 12.238 6.615.11-1.433 5.182-.11 5.402-1.433.552-3.418 2.316-20.838 3.859-23.814 6.284-28.004 31.09-48.73 60.638-48.73" fill="url(#aO)"/><path d="M3519.224-901.995c17.86 0 31.972 7.718 41.343 16.097.993-2.205 12.348 4.74 13.671 2.756 1.323-1.985 8.6-16.317 10.254-18.081 19.734-33.075 52.148-55.676 89.743-61.85 10.474-1.764 21.278-2.205 31.973-1.323 51.817 4.19 96.248 40.02 112.895 89.412 4.08 3.528 7.828 7.608 11.467 12.348 1.322 0 5.181 11.466 6.504 11.687 1.323.22 13.23-3.197 14.443-2.756 5.072-.993 9.812-1.103 14.333-.552 22.6 2.867 40.902 20.948 44.21 44.541.44 1.213 1.654 13.892 1.874 15.215.11.44 4.08.11 4.19.44.771-.11 8.71-1.653 9.591-1.763a66.165 66.165 0 0 1 11.466-.992c31.752 0 58.323 23.152 63.284 52.81 4.961 29.657-11.576 56.558-35.721 64.165 0 15.214-81.034 27.562-96.248 27.562h-473.193c-52.48 0-95.146-43.107-95.146-96.358 0-53.14 42.667-96.359 95.146-96.359 14.773 0 28.995 3.749 42.446 10.915 1.323.551 11.135 6.064 12.348 6.725 0-1.102 6.064 1.213 6.284.11.441-2.645 1.985-21.94 3.197-24.254 4.851-28.886 29.768-50.495 59.646-50.495" fill="url(#aP)"/><path d="M3519.554-900.341c17.75 0 31.311 7.828 40.131 15.655.662-1.433 13.34 7.718 14.222 6.395.882-1.323 8.6-17.089 9.702-18.302 18.633-33.846 50.164-57.22 87.098-64.386 10.364-2.094 20.948-2.756 31.752-2.205 51.487 2.867 96.469 37.485 113.888 86.216a102.936 102.936 0 0 1 9.702 14.994c.882 0 4.741 13.23 5.623 13.45.882.11 14.222-3.969 14.994-3.638 5.402-1.323 10.253-1.764 14.994-1.433 23.924 1.984 43.328 20.837 46.415 45.533.22.772 1.654 14.994 1.764 15.876 0 .33 4.741-.33 4.741-.11.551-.11 9.371-1.874 9.923-1.874 3.858-.662 7.938-1.103 11.907-1.103 33.295 0 60.747 25.468 64.055 57.55 3.307 32.083-17.53 59.977-45.754 65.048 0 10.143-88.31 18.412-98.453 18.412h-460.404c-51.377 0-93.272-42.336-93.272-94.595 0-52.148 41.785-94.594 93.272-94.594 14.773 0 29.216 3.859 42.777 11.356.882.33 11.797 6.504 12.568 6.945 0-.771 7.056 2.536 7.167 1.764.33-1.764 1.653-23.152 2.425-24.585 3.749-29.658 28.665-52.37 58.763-52.37" fill="url(#aQ)"/><path d="M3519.885-898.577c17.64 0 30.76 7.938 38.918 15.325.331-.772 14.223 10.584 14.664 9.922.44-.661 8.599-17.86 9.15-18.522 17.53-34.618 48.29-58.763 84.452-66.922 10.143-2.315 20.727-3.417 31.421-3.087 51.266 1.434 96.8 35.06 114.99 83.019 3.088 5.512 5.734 11.466 8.049 17.75.441 0 4.19 15.104 4.63 15.214.442.11 15.105-4.74 15.546-4.63 5.623-1.654 10.694-2.426 15.655-2.205 25.248.992 45.864 20.727 48.62 46.636.11.44 1.544 16.096 1.654 16.537 0 .11 5.403-.772 5.403-.661.22 0 10.032-1.985 10.363-1.985 3.969-.772 8.159-1.213 12.348-1.213 34.839 0 63.283 27.783 64.937 62.292 1.654 34.508-23.483 63.504-55.676 66.04 0 5.07-95.697 9.15-100.769 9.15h-447.725c-50.274 0-91.287-41.564-91.287-92.83 0-51.267 41.013-92.941 91.287-92.941 14.774 0 29.327 3.969 43.108 11.686.441.22 12.348 6.836 12.679 7.056 0-.33 8.048 3.749 8.048 3.418.11-.882 1.323-24.255 1.764-25.027 2.426-30.429 27.342-54.022 57.771-54.022" fill="url(#aR)"/><path d="M3935.197-657.791h-538.02c-49.282 0-89.413-40.793-89.413-91.067 0-50.274 40.131-91.176 89.413-91.176 14.884 0 29.437 4.079 43.438 12.127l21.83 12.348.992-25.357c1.213-31.311 26.24-55.897 56.889-55.897 17.42 0 30.098 8.048 37.706 14.884l15.214 13.56 8.71-18.632c21.168-45.313 64.386-73.537 113.006-73.537 58.102 0 109.589 42.226 122.267 100.218l3.749 16.978 16.096-5.623c5.844-2.094 11.246-3.087 16.428-3.087 26.57 0 48.4 20.617 50.825 47.739l1.433 17.199 16.648-3.308c4.19-.772 8.489-1.323 12.789-1.323 36.272 0 65.709 30.098 65.709 67.032s-29.437 66.922-65.71 66.922" fill="url(#aS)"/></svg>