<svg xmlns="http://www.w3.org/2000/svg" xmlns:xlink="http://www.w3.org/1999/xlink" viewBox="1095.9 294.1 841.9 841.90004" width="841.9" height="841.9"><defs><linearGradient id="p" gradientUnits="userSpaceOnUse" y1="809.39" x2="0" y2="379.24" gradientTransform="translate(-490.985 -62.028) scale(1.2705)"><stop stop-color="#cdd929"/><stop offset="1" stop-color="#feff9c"/></linearGradient><linearGradient id="v" gradientUnits="userSpaceOnUse" y1="675.49" x2="0" y2="503.91" gradientTransform="translate(-490.985 -62.028) scale(1.2705)"><stop stop-color="#95b9cc"/><stop offset="1" stop-color="#cddee8"/></linearGradient><linearGradient id="w" gradientUnits="userSpaceOnUse" y1="674.5" x2="0" y2="504.9" gradientTransform="translate(-490.985 -62.028) scale(1.2705)"><stop stop-color="#97bacd"/><stop offset="1" stop-color="#d0e1eb"/></linearGradient><linearGradient id="x" gradientUnits="userSpaceOnUse" y1="673.51" x2="0" y2="505.84" gradientTransform="translate(-490.985 -62.028) scale(1.2705)"><stop stop-color="#99bbce"/><stop offset="1" stop-color="#d3e4ed"/></linearGradient><linearGradient id="j" gradientUnits="userSpaceOnUse" x1="1465.86" y1="829.12" x2="1519.12" y2="386" gradientTransform="translate(-490.985 -62.028) scale(1.2705)"><stop stop-color="#a0ab0e"/><stop offset="1" stop-color="#e7e956"/></linearGradient><linearGradient id="k" gradientUnits="userSpaceOnUse" x1="1476.54" y1="826.37" x2="1520.61" y2="385.69" gradientTransform="translate(-490.985 -62.028) scale(1.2705)"><stop stop-color="#a8b312"/><stop offset="1" stop-color="#ebed62"/></linearGradient><linearGradient id="y" gradientUnits="userSpaceOnUse" y1="672.51" x2="0" y2="506.73" gradientTransform="translate(-490.985 -62.028) scale(1.2705)"><stop stop-color="#9bbccf"/><stop offset="1" stop-color="#d7e6f0"/></linearGradient><linearGradient id="l" gradientUnits="userSpaceOnUse" x1="1487.12" y1="823.35" x2="1522.13" y2="384.88" gradientTransform="translate(-490.985 -62.028) scale(1.2705)"><stop stop-color="#afba17"/><stop offset="1" stop-color="#eef06d"/></linearGradient><linearGradient id="n" gradientUnits="userSpaceOnUse" x1="1499.82" y1="816.43" x2="1517.1" y2="382.18" gradientTransform="translate(-490.985 -62.028) scale(1.2705)"><stop stop-color="#beca20"/><stop offset="1" stop-color="#f6f885"/></linearGradient><linearGradient id="o" gradientUnits="userSpaceOnUse" x1="1504.53" y1="812.88" x2="1513.12" y2="380.65" gradientTransform="translate(-490.985 -62.028) scale(1.2705)"><stop stop-color="#c6d124"/><stop offset="1" stop-color="#fafb90"/></linearGradient><linearGradient id="m" gradientUnits="userSpaceOnUse" x1="1495.17" y1="819.98" x2="1521.26" y2="383.63" gradientTransform="translate(-490.985 -62.028) scale(1.2705)"><stop stop-color="#b7c21b"/><stop offset="1" stop-color="#f2f479"/></linearGradient><linearGradient id="i" gradientUnits="userSpaceOnUse" x1="1455.31" y1="831.75" x2="1517.98" y2="385.85" gradientTransform="translate(-490.985 -62.028) scale(1.2705)"><stop stop-color="#99a309"/><stop offset="1" stop-color="#e3e54a"/></linearGradient><linearGradient id="z" gradientUnits="userSpaceOnUse" y1="671.52" x2="0" y2="507.57" gradientTransform="translate(-490.985 -62.028) scale(1.2705)"><stop stop-color="#9dbdd0"/><stop offset="1" stop-color="#dae9f2"/></linearGradient><linearGradient id="A" gradientUnits="userSpaceOnUse" y1="670.53" x2="0" y2="508.35" gradientTransform="translate(-490.985 -62.028) scale(1.2705)"><stop stop-color="#9fbed0"/><stop offset="1" stop-color="#ddecf5"/></linearGradient><linearGradient id="h" gradientUnits="userSpaceOnUse" x1="1444.51" y1="834.05" x2="1516.75" y2="384.98" gradientTransform="translate(-490.985 -62.028) scale(1.2705)"><stop stop-color="#919c05"/><stop offset="1" stop-color="#dfe23f"/></linearGradient><linearGradient id="B" gradientUnits="userSpaceOnUse" y1="669.53" x2="0" y2="509.08" gradientTransform="translate(-490.985 -62.028) scale(1.2705)"><stop stop-color="#a1bfd1"/><stop offset="1" stop-color="#e0eff7"/></linearGradient><linearGradient id="C" gradientUnits="userSpaceOnUse" y1="668.54" x2="0" y2="509.76" gradientTransform="translate(-490.985 -62.028) scale(1.2705)"><stop stop-color="#a3c0d2"/><stop offset="1" stop-color="#e4f1fa"/></linearGradient><linearGradient id="g" gradientUnits="userSpaceOnUse" x1="1433.66" y1="836.11" x2="1515.74" y2="383.36" gradientTransform="translate(-490.985 -62.028) scale(1.2705)"><stop stop-color="#8a9400"/><stop offset="1" stop-color="#dbde33"/></linearGradient><linearGradient id="D" gradientUnits="userSpaceOnUse" y1="667.55" x2="0" y2="510.38" gradientTransform="translate(-490.985 -62.028) scale(1.2705)"><stop stop-color="#a5c1d3"/><stop offset="1" stop-color="#e7f4fc"/></linearGradient><linearGradient id="E" gradientUnits="userSpaceOnUse" y1="666.55" x2="0" y2="510.94" gradientTransform="translate(-490.985 -62.028) scale(1.2705)"><stop stop-color="#a7c2d4"/><stop offset="1" stop-color="#eaf7ff"/></linearGradient><linearGradient id="c" gradientUnits="userSpaceOnUse" y1="369.84" x2="0" y2="350.32"><stop stop-color="#e4e655"/><stop offset="1" stop-color="#f0f2ac"/></linearGradient><linearGradient id="d" gradientUnits="userSpaceOnUse" y1="364.28" x2="0" y2="354.96"><stop stop-color="#dbde33"/><stop offset="1" stop-color="#f0f2ac"/></linearGradient><linearGradient id="b" gradientUnits="userSpaceOnUse" y1="375.39" x2="0" y2="345.68"><stop stop-color="#edef77"/><stop offset="1" stop-color="#f0f2ac"/></linearGradient><linearGradient id="f" gradientUnits="userSpaceOnUse" x1="1603.04" x2="1709.33"><stop offset=".291" stop-color="#fff"/><stop offset="1" stop-color="#def1ff"/></linearGradient><linearGradient id="r" gradientUnits="userSpaceOnUse" x1="1598.75" x2="1686.29" xlink:href="#f" gradientTransform="translate(-490.985 -62.028) scale(1.2705)"/><linearGradient id="a" gradientUnits="userSpaceOnUse" y1="380.95" x2="0" y2="341.04"><stop stop-color="#f5f798"/><stop offset="1" stop-color="#f0f2ac"/></linearGradient><linearGradient id="s" gradientUnits="userSpaceOnUse" x1="1468.62" x2="1556.15" xlink:href="#f" gradientTransform="translate(-490.985 -62.028) scale(1.2705)"/><linearGradient id="u" gradientUnits="userSpaceOnUse" x1="1493.89" x2="1581.42" xlink:href="#f" gradientTransform="translate(-490.985 -62.028) scale(1.2705)"/><linearGradient id="e" gradientUnits="userSpaceOnUse" y1="386.5" x2="0" y2="336.4"><stop stop-color="#feffba"/><stop offset="1" stop-color="#f0f2ac"/></linearGradient><linearGradient id="t" gradientUnits="userSpaceOnUse" x1="1535.1" y1="881.73" x2="1593.46" y2="879.65" xlink:href="#f" gradientTransform="translate(-490.985 -62.028) scale(1.2705)"/><linearGradient xlink:href="#f" id="q" gradientUnits="userSpaceOnUse" x1="1603.04" x2="1709.33" gradientTransform="translate(-490.985 -62.028) scale(1.2705)"/></defs><path d="M1356.068 341.101c-48.025-8.639-95.16-6.733-139.628 3.685 73.69 17.787 133.784 68.226 171.136 136.197 37.607 67.972 52.726 153.731 36.59 242.158-13.085 72.291-44.975 135.435-88.172 183.587-43.324 48.152-97.955 81.44-157.288 94.144 17.787 6.353 35.956 11.816 54.886 15.373 46.5 8.385 92.746 6.988 136.198-2.668 43.45-9.783 84.36-27.95 120.316-52.853 72.037-50.057 125.144-127.43 142.169-220.686 16.898-93.127-5.463-184.35-55.521-256.514-50.185-72.164-127.558-125.525-220.686-142.423" fill="#9cb1bf"/><path d="M1347.175 330.937c-48.025-8.639-95.16-6.733-139.628 3.685 73.689 17.787 133.783 68.226 171.136 136.197 37.607 67.972 52.726 153.731 36.59 242.158-13.086 72.291-44.975 135.435-88.172 183.587-43.324 48.152-97.956 81.44-157.288 94.144 17.787 6.353 35.955 11.816 54.885 15.373 46.5 8.385 92.747 6.988 136.198-2.668 43.451-9.783 84.361-27.95 120.316-52.853 72.038-50.057 125.145-127.43 142.17-220.686 16.897-93.127-5.464-184.35-55.522-256.514-50.184-72.164-127.558-125.525-220.685-142.423" fill="url(#g)"/><path d="M1217.203 336.02a324.62 324.62 0 0 1 38.623-5.337c34.303-2.668 69.242-.254 104.054 7.877 86.648 17.66 158.685 68.226 205.82 136.071 49.677 71.53 71.91 162.116 55.14 254.608-16.643 91.476-68.225 167.58-138.611 217.256-35.066 24.774-74.96 42.943-117.394 53.107-42.308 9.91-87.284 11.942-132.768 4.573l-6.48-1.143c-16.262-3.05-31.889-7.623-47.262-12.705 57.935-13.976 111.169-47.644 153.35-95.542 42.18-48.025 73.18-110.28 86.012-181.3 15.882-87.156 1.525-171.645-34.684-239.235-36.082-67.718-94.271-118.538-165.8-138.23" fill="url(#h)"/><path d="M1226.858 337.544c13.214-2.16 26.427-3.557 39.767-4.066a333.64 333.64 0 0 1 105.833 12.832c80.168 18.296 146.996 66.194 191.083 129.846 49.295 71.02 71.402 160.972 54.758 252.702-16.262 89.57-66.447 164.403-135.054 213.698-34.176 24.648-73.054 42.816-114.599 53.234-41.164 10.164-84.87 12.832-129.337 6.48-2.16-.254-4.193-.636-6.352-1.017-15.755-2.668-31.255-6.733-46.374-11.434 56.538-15.246 108.374-49.296 149.411-96.812 41.164-47.898 71.275-109.263 83.853-179.14 15.627-85.76 2.033-169.104-32.779-236.314-34.557-67.21-90.713-118.41-160.21-140.009" fill="url(#i)"/><path d="M1236.514 338.942c13.594-1.78 27.316-2.668 41.037-2.796 36.59 0 72.8 5.972 107.485 17.66 73.689 18.93 135.18 64.16 176.345 123.493 48.914 70.64 70.894 159.829 54.377 250.924-15.88 87.664-64.668 161.226-131.37 210.14-33.286 24.394-71.147 42.69-111.676 53.489-40.021 10.418-82.583 13.848-125.907 8.385-2.033-.254-4.192-.508-6.225-.89-15.373-2.286-30.492-5.844-45.357-10.164 55.267-16.516 105.705-50.947 145.472-98.21 40.02-47.643 69.37-108.373 81.693-176.853 15.373-84.488 2.541-166.562-30.873-233.39-33.287-66.702-87.537-118.284-155-141.788" fill="url(#j)"/><path d="M1246.17 340.466a336.425 336.425 0 0 1 42.308-1.524c37.733 1.27 74.578 9.02 109.263 22.614 67.209 19.566 123.365 62.128 161.607 117.268 48.533 70.131 70.386 158.685 53.996 249.018-15.627 85.758-62.89 158.05-127.812 206.583-32.398 24.266-69.37 42.689-108.882 53.742-38.75 10.672-80.168 14.738-122.476 10.291l-6.098-.762c-14.992-1.906-29.857-5.082-44.468-8.894 53.87-17.787 102.91-52.598 141.534-99.607 39.004-47.517 67.336-107.357 79.533-174.567 15.12-83.09 3.05-164.021-28.967-230.468-31.89-66.32-84.107-118.284-149.538-143.694" fill="url(#k)"/><path d="M1255.953 341.864c14.483-1.017 29.094-1.144 43.45-.254 38.878 2.668 76.358 12.07 111.043 27.57 60.73 20.2 111.677 60.094 146.87 111.041 48.151 69.624 69.877 157.415 53.614 247.112-15.246 83.853-61.11 154.874-124.255 203.026-31.508 24.14-67.463 42.562-105.96 53.87-37.606 10.926-77.754 15.627-118.918 12.323-1.906-.127-3.938-.38-5.844-.508-14.611-1.524-29.095-4.192-43.451-7.623 52.598-19.057 100.115-54.25 137.595-100.878 37.86-47.262 65.43-106.34 77.373-172.406 14.865-81.82 3.685-161.48-27.189-227.547-30.873-66.066-81.057-118.41-144.328-145.726" fill="url(#l)"/><path d="M1265.609 343.388c14.991-.635 29.856-.38 44.721 1.017 40.02 3.938 78.009 15.119 112.82 32.397 54.124 20.837 99.862 58.19 132.133 104.69 47.897 69.115 69.369 156.271 53.234 245.333-14.865 82.075-59.333 151.698-120.698 199.469a322.161 322.161 0 0 1-103.165 54.123c-36.463 11.307-75.467 16.517-115.488 14.23l-5.717-.382c-14.23-1.143-28.46-3.303-42.562-6.352 51.328-20.328 97.32-55.902 133.657-102.275 36.844-47.136 63.525-105.325 75.213-170.12 14.61-80.55 4.193-158.94-25.283-224.625-29.348-65.557-77.627-118.41-138.865-147.505" fill="url(#m)"/><path d="M1275.264 344.786c15.373-.381 30.746.508 45.992 2.287 41.165 5.336 79.788 18.168 114.472 37.352 47.644 21.599 88.046 56.157 117.395 98.464 47.516 68.607 68.86 155.128 52.852 243.428-14.61 80.169-57.553 148.521-117.14 195.911-29.73 23.758-63.779 42.308-100.242 54.378-35.32 11.561-73.054 17.532-112.058 16.135-1.906-.127-3.685-.127-5.59-.254-13.849-.763-27.697-2.541-41.546-5.082 49.93-21.599 94.652-57.554 129.718-103.673 35.701-47.009 61.492-104.435 73.054-167.833 14.357-79.152 4.7-156.399-23.377-221.702-28.078-65.177-74.451-118.284-133.53-149.411" fill="url(#n)"/><path d="M1284.92 346.183c15.881 0 31.636 1.27 47.136 3.558 42.307 6.606 81.566 21.217 116.25 42.307 41.165 22.234 76.358 54.124 102.784 92.239 47.135 68.099 68.353 153.857 52.472 241.522-14.23 78.263-55.648 145.345-113.583 192.48a318.34 318.34 0 0 1-97.447 54.505c-34.05 11.816-70.64 18.422-108.628 18.041-1.779 0-3.685 0-5.463-.127-13.468-.381-27.062-1.652-40.53-3.684 48.66-22.87 91.858-59.206 125.78-105.07 34.558-46.755 59.587-103.42 70.894-165.674 14.103-77.882 5.21-153.857-21.471-218.78-26.68-64.668-71.148-118.284-128.194-151.317" fill="url(#o)"/><path d="M1286.064 989.056c-13.087 0-26.3-.762-39.64-2.414 95.796-48.787 168.722-149.283 190.575-269.727 13.848-76.61 5.717-151.316-19.566-215.858-25.283-64.541-67.844-118.41-122.73-153.349 16.39.381 32.525 2.033 48.406 4.955 43.451 8.004 83.345 24.267 118.03 47.136a324.208 324.208 0 0 1 88.045 86.012c46.754 67.591 67.845 152.714 52.09 239.744-13.848 76.357-53.869 142.169-110.025 188.923-27.95 23.504-60.094 42.054-94.525 54.759-34.685 12.45-71.783 19.82-110.66 19.82" fill="url(#p)"/><g fill="#9cb1bf"><path d="M1563.668 1090.188c-3.812 0-7.623-.89-10.927-2.668-9.02-5.082-11.561-15.373-5.59-22.869 123.62-146.234 132.895-146.234 135.817-146.234h1.397l1.525.762c4.574 2.54 10.672 5.971-105.96 163.64-3.557 4.701-9.656 7.37-16.262 7.37M1555.664 997.569c-3.177 0-6.226-.763-9.021-2.287-7.496-4.193-9.529-12.578-4.574-18.804C1643.963 856.035 1651.46 856.035 1654 856.035h1.144l1.27.635c3.685 2.033 8.894 4.828-87.283 134.8-3.05 3.812-8.131 6.099-13.467 6.099M1390.244 1007.352c-3.176 0-6.225-.763-8.893-2.287-7.496-4.193-9.529-12.578-4.574-18.804 101.894-120.443 109.39-120.443 111.931-120.443h1.144l1.27.635c3.685 2.033 8.894 4.828-87.283 134.8-3.05 3.812-8.131 6.099-13.595 6.099M1478.163 1104.418c-2.922-.381-5.844-1.27-8.64-2.541-7.75-3.685-11.688-9.529-8.639-13.086 63.78-68.353 70.64-67.464 72.927-67.083l1.016.127 1.27.636c3.94 1.778 9.148 4.32-47.135 79.66-1.905 2.033-5.844 2.922-10.799 2.287M1422.388 1071.004c-3.176 0-6.225-.763-8.893-2.287-7.496-4.193-9.53-12.578-4.574-18.804 101.894-120.443 109.39-120.443 111.93-120.443h1.144l1.27.635c3.685 2.033 8.894 4.828-87.155 134.8-3.304 3.939-8.259 6.099-13.722 6.099"/></g><path d="M1560.619 1083.836c-3.812 0-7.623-.89-10.927-2.668-9.02-5.082-11.561-15.373-5.59-22.87 123.62-146.234 132.894-146.234 135.817-146.234h1.397l1.525.762c4.573 2.541 10.672 5.972-105.96 163.64-3.557 4.575-9.656 7.37-16.262 7.37" fill="#78b5db"/><path d="M1552.36 1077.737c-6.86-3.811-8.766-11.561-4.192-17.406 0 0 125.398-148.14 132.259-144.328 6.86 3.811-107.357 158.304-107.357 158.304-2.923 3.684-7.623 5.59-12.451 5.59-2.795 0-5.718-.762-8.259-2.16" fill="url(#q)"/><path d="M1552.614 991.216c-3.176 0-6.225-.762-9.02-2.287-7.496-4.192-9.529-12.578-4.574-18.803 101.894-120.443 109.39-120.443 111.931-120.443h1.144l1.27.635c3.685 2.033 8.894 4.828-87.283 134.8-3.05 3.811-8.131 6.098-13.468 6.098" fill="#78b5db"/><path d="M1545.754 986.134c-5.717-3.176-7.242-9.528-3.43-14.356 0 0 103.291-122.095 108.881-118.92 5.718 3.177-88.426 130.354-88.426 130.354-2.414 3.05-6.226 4.574-10.292 4.574-2.286.127-4.573-.381-6.733-1.652" fill="url(#r)"/><path d="M1387.195 1000.872c-3.176 0-6.225-.762-8.893-2.287-7.496-4.192-9.529-12.578-4.574-18.803 101.894-120.444 109.39-120.444 111.931-120.444h1.144l1.27.636c3.685 2.032 8.894 4.828-87.283 134.8-3.176 3.938-8.131 6.098-13.595 6.098" fill="#78b5db"/><path d="M1380.462 995.917c-5.717-3.176-7.242-9.529-3.43-14.23 0 0 103.164-122.095 108.881-118.918 5.717 3.176-88.427 130.353-88.427 130.353-2.414 3.05-6.225 4.574-10.29 4.574-2.287 0-4.701-.635-6.734-1.779" fill="url(#s)"/><path d="M1475.114 1097.938c-2.922-.38-5.844-1.27-8.64-2.54-7.75-3.685-11.688-9.53-8.639-13.087 63.78-68.353 70.64-67.463 72.927-67.082l1.016.127 1.27.635c3.94 1.779 9.148 4.32-47.135 79.66-1.906 2.033-5.844 2.923-10.799 2.287" fill="#78b5db"/><path d="M1467.745 1093.746c-5.971-2.796-8.893-7.242-6.606-10.037 0 0 64.668-69.243 70.64-66.448 5.844 2.796-49.17 76.485-49.17 76.485-1.397 1.778-4.573 2.414-8.257 1.905-2.16-.127-4.447-.889-6.607-1.905" fill="url(#t)"/><path d="M1419.339 1064.651c-3.176 0-6.225-.762-8.893-2.287-7.496-4.192-9.53-12.578-4.574-18.803 101.894-120.444 109.39-120.444 111.93-120.444h1.144l1.27.636c3.685 2.033 8.894 4.828-87.156 134.8-3.303 3.811-8.258 6.098-13.721 6.098" fill="#78b5db"/><path d="M1412.478 1059.696c-5.717-3.176-7.242-9.528-3.43-14.356 0 0 103.165-122.095 108.882-118.92 5.717 3.177-88.427 130.354-88.427 130.354-2.414 3.05-6.225 4.574-10.291 4.574-2.287 0-4.574-.508-6.734-1.652" fill="url(#u)"/><path d="M1803.665 692.14c-4.065 0-8.004.509-11.815 1.271-2.287-25.283-23.25-45.23-49.169-45.23-5.59 0-10.926 1.144-15.881 2.795-10.545-47.008-52.218-82.074-102.402-82.074-41.8 0-77.755 24.648-94.653 60.222-9.528-8.386-21.852-13.595-35.574-13.595-29.094 0-52.598 22.996-53.869 51.71-11.307-6.353-24.14-10.291-37.988-10.291-43.07 0-78.008 34.938-78.008 78.008 0 43.07 34.938 78.01 78.008 78.01h401.224c33.414 0 60.349-27.063 60.349-60.35.127-33.414-26.935-60.475-60.222-60.475" fill="#9cb1bf"/><path d="M1794.01 675.497c-4.066 0-7.878.381-11.816 1.27-2.287-25.41-23.25-45.23-49.169-45.23-5.717 0-10.926 1.144-15.88 2.796-10.546-47.009-52.218-82.074-102.403-82.074-41.8 0-77.755 24.774-94.525 60.221-9.529-8.385-21.853-13.721-35.574-13.721-29.095 0-52.599 22.996-53.87 51.836-11.307-6.352-24.139-10.29-37.987-10.29-43.07 0-78.01 34.938-78.01 78.008 0 43.07 34.94 77.882 78.01 77.882h401.223c33.288 0 60.476-27.062 60.476-60.35-.127-33.286-27.188-60.348-60.476-60.348" fill="url(#v)"/><path d="M1484.897 600.03c13.594 0 25.537 5.335 34.685 13.34 2.032-4.193 5.59-7.242 8.13-11.054 2.669-3.938 6.226-9.147 9.402-12.578 18.296-21.471 45.103-35.193 75.087-35.955 8.64-.254 17.025.635 25.156 2.414 38.242 8.512 68.607 38.37 77.881 76.738 4.701-1.016 9.53-1.397 14.738-.89 2.668 0 5.59 1.653 8.131 2.034 2.414.38 6.226.635 8.513 1.524 2.795.636 5.336 1.652 7.877 2.795 11.688 5.464 20.71 15.882 24.393 28.587.763 2.414 1.525 6.225 1.78 8.766.126.89.634 1.652.634 2.414 1.652-.381 4.32-.762 6.099-1.016a53.819 53.819 0 0 1 6.48-.381c17.786 0 33.54 8.512 43.323 21.217 9.656 12.705 13.34 28.586 10.419 43.324 0 29.603-30.746 53.615-60.35 53.615h-384.96c-38.243 0-78.01-31-78.01-69.242-3.938-19.185.509-39.767 13.087-56.41 12.578-16.644 33.16-27.697 56.283-27.697 10.545 0 20.582 2.287 29.857 6.48 2.54 1.143 6.098 2.921 8.512 4.319.127-2.033 1.016-3.685 1.398-5.717.889-5.082 2.668-11.943 4.955-16.39 7.623-17.914 25.537-30.238 46.5-30.238" fill="url(#w)"/><path d="M1485.024 601.3c13.467 0 25.156 5.463 33.795 13.086 1.779-3.684 6.226-5.082 8.512-8.385 2.287-3.43 6.226-9.656 9.021-12.705 17.533-21.98 43.705-36.337 73.18-37.861 8.386-.381 16.772.127 24.776 1.778 38.115 7.37 68.86 36.59 78.644 74.325 4.32-.254 8.766 0 13.467 1.143 2.287 0 5.209 2.922 7.496 3.303 2.16.382 6.86 0 8.893.763 2.922.38 5.718 1.143 8.386 2.16 12.578 4.828 22.487 15.754 25.918 29.348.635 2.033 1.397 6.988 1.778 9.148.128.762.89 1.27 1.017 2.033 1.525-.255 4.955-.89 6.48-1.144 2.286-.254 4.446-.508 6.733-.508 18.803 0 35.447 10.164 43.96 24.648 8.512 14.483 9.02 31.127 3.049 44.086 0 25.918-34.43 46.881-60.35 46.881h-368.825c-33.542 0-77.882-27.061-77.882-60.602-8.004-16.771-7.75-38.497 3.303-57.681 10.927-19.185 32.652-32.525 57.427-32.525 10.545 0 20.71 2.414 30.11 6.734 2.288.89 6.48 3.176 8.64 4.446.127-1.778 1.652-2.795 2.033-4.573.762-4.447 2.414-12.832 4.447-16.644 6.987-18.168 25.029-31.254 45.992-31.254" fill="url(#x)"/><path d="M1485.278 602.57c13.34 0 24.648 5.463 32.906 12.705 1.525-3.176 6.988-2.922 8.893-5.844 1.906-2.922 6.226-10.164 8.64-12.832 16.77-22.488 42.307-37.353 71.275-39.64 8.258-.635 16.516-.254 24.52 1.144 37.989 6.352 69.116 34.684 79.534 72.037 3.938.508 8.004 1.398 12.197 3.176 2.032 0 4.828 4.32 6.733 4.701 1.906.381 7.623-.508 9.275 0 3.176.127 6.098.636 8.893 1.525 13.595 4.065 24.394 15.627 27.57 30.11.635 1.78 1.398 7.75 1.652 9.657.127.635 1.27 1.016 1.27 1.651 1.27-.254 5.464-1.016 6.734-1.143 2.287-.381 4.7-.508 7.115-.508 19.947 0 37.226 11.815 44.467 28.205 7.242 16.262 4.574 33.668-4.192 44.721 0 22.234-38.115 40.148-60.349 40.148h-352.564c-28.713 0-77.881-23.25-77.881-51.963-11.943-14.357-15.882-37.353-6.48-58.952 9.402-21.598 32.144-37.48 58.57-37.48 10.672 0 20.836 2.542 30.238 6.988 1.906.763 6.988 3.558 8.766 4.574.127-1.524 2.414-1.906 2.668-3.43.636-3.812 2.16-13.595 3.939-16.898 6.353-18.93 24.394-32.652 45.611-32.652" fill="url(#y)"/><path d="M1485.532 603.84c13.34 0 24.267 5.591 32.017 12.452 1.27-2.668 7.623-.763 9.274-3.177 1.652-2.413 6.226-10.799 8.259-12.959 16.008-23.123 40.91-38.496 69.369-41.545a96.882 96.882 0 0 1 24.266.381c37.861 5.336 69.37 32.906 80.423 69.75 3.684 1.144 7.242 2.796 10.926 5.083 1.652 0 4.574 5.717 6.099 5.971 1.524.254 8.258-1.143 9.656-.635 3.303-.127 6.352.127 9.401.89 14.484 3.43 26.173 15.5 29.095 31 .508 1.524 1.27 8.639 1.524 10.163.127.508 1.525.763 1.652 1.27 1.016-.253 6.098-1.143 7.115-1.27 2.414-.38 4.955-.635 7.496-.635 21.09 0 39.004 13.594 45.102 31.635 6.099 18.042.255 36.21-11.561 45.484 0 18.55-41.8 33.542-60.222 33.542h-336.301c-23.886 0-77.882-19.312-77.882-43.324-16.008-11.943-24.14-36.083-16.262-60.222 7.877-24.14 31.635-42.308 59.586-42.308 10.672 0 20.963 2.541 30.492 7.37 1.652.634 7.37 3.81 8.894 4.7 0-1.27 3.049-1.016 3.303-2.16.508-3.176 1.906-14.484 3.43-17.152 5.336-19.82 23.505-34.303 44.85-34.303" fill="url(#z)"/><path d="M1485.786 605.111c13.213 0 23.758 5.59 31.127 12.07 1.017-2.16 8.386 1.398 9.656-.635 1.27-1.906 6.353-11.308 7.877-13.086 15.12-23.632 39.386-39.64 67.464-43.324 8.004-1.017 16.008-1.144 24.012-.254 37.734 4.192 69.624 31 81.185 67.463 3.304 1.906 6.48 4.193 9.656 7.115 1.27 0 4.193 6.988 5.463 7.242 1.27.254 8.894-1.779 10.164-1.398a36.586 36.586 0 0 1 9.91.254c15.5 2.795 27.951 15.373 30.746 31.763.381 1.143 1.27 9.401 1.398 10.672 0 .381 1.906.508 1.906.89.889-.128 6.606-1.271 7.496-1.398 2.54-.381 5.209-.635 7.877-.635 22.106 0 40.783 15.246 45.738 35.065 4.828 19.82-4.066 38.75-18.804 46.12 0 14.737-45.484 26.807-60.221 26.807h-320.04c-19.184 0-77.754-15.5-77.754-34.685-19.947-9.528-32.398-34.811-26.172-61.492 6.225-26.68 31.254-47.135 60.73-47.135 10.672 0 21.09 2.668 30.746 7.623 1.27.508 7.75 4.192 9.02 4.828 0-1.017 3.685 0 3.939-1.017.38-2.54 1.651-15.246 2.795-17.533 4.447-20.2 22.488-35.32 44.086-35.32" fill="url(#A)"/><path d="M1486.04 606.382c13.086 0 23.25 5.717 30.238 11.815.762-1.524 9.02 3.43 10.037 2.033 1.016-1.397 6.353-11.942 7.496-13.213 14.357-24.14 37.988-40.656 65.43-45.23 7.878-1.27 15.755-1.651 23.76-.89 37.606 3.177 69.877 29.222 82.074 65.178 2.922 2.668 5.717 5.59 8.385 9.147 1.016 0 3.811 8.385 4.828 8.513.889.127 9.656-2.414 10.545-2.033 3.684-.636 7.115-.763 10.418-.381 16.516 2.16 29.857 15.246 32.398 32.524.254.89 1.27 10.164 1.397 11.18 0 .255 2.287.128 2.287.509.635-.127 7.242-1.398 7.877-1.525 2.668-.38 5.463-.762 8.259-.762 23.25 0 42.688 16.898 46.246 38.623 3.684 21.599-8.513 41.292-26.173 46.882 0 11.053-49.04 20.074-60.221 20.074h-303.904c-14.357 0-77.754-11.562-77.754-25.919-24.013-7.241-40.656-33.54-35.956-62.762 4.701-29.222 30.746-51.964 61.874-51.964 10.672 0 21.217 2.795 31 8.004 1.016.382 8.258 4.447 9.148 4.955 0-.762 4.446.89 4.573.127.381-1.905 1.398-16.135 2.287-17.787 3.558-21.217 21.726-37.098 43.451-37.098" fill="url(#B)"/><path d="M1486.294 607.652c12.96 0 22.87 5.718 29.349 11.435.508-1.017 9.656 5.59 10.418 4.7.635-1.016 6.353-12.45 7.115-13.34 13.594-24.647 36.59-41.799 63.525-47.135 7.623-1.525 15.5-2.033 23.504-1.652 37.48 2.16 70.132 27.443 82.964 62.763 2.668 3.43 4.955 6.988 7.115 11.053.635 0 3.43 9.656 4.065 9.783.635.127 10.291-2.922 10.926-2.795 3.939-.89 7.496-1.27 10.927-1.016 17.533 1.397 31.635 15.119 33.922 33.287.254.635 1.144 11.053 1.27 11.688 0 .254 2.542-.127 2.669.127.38-.127 7.75-1.524 8.13-1.651a48.555 48.555 0 0 1 8.64-.763c24.267 0 44.468 18.677 46.882 42.054 2.414 23.377-12.832 43.832-33.414 47.517 0 7.369-52.726 13.34-60.222 13.34h-287.641c-9.53 0-77.755-7.75-77.755-17.279-27.951-4.828-48.787-32.398-45.738-64.033 3.176-31.636 30.238-56.918 63.017-56.918 10.8 0 21.217 2.795 31.254 8.258.635.254 8.64 4.828 9.275 5.082 0-.508 5.082 1.778 5.209 1.27.254-1.27 1.27-16.897 1.779-18.04 2.668-21.218 20.836-37.735 42.815-37.735" fill="url(#C)"/><path d="M1486.549 608.923c12.832 0 22.36 5.844 28.459 11.18.254-.508 10.418 7.75 10.672 7.242.381-.508 6.352-13.086 6.734-13.467 12.832-25.283 35.192-42.943 61.619-48.914 7.496-1.652 15.246-2.541 23.25-2.287 37.353 1.016 70.513 25.537 83.726 60.475 2.287 4.066 4.32 8.513 5.844 13.087.381 0 3.176 11.053 3.43 11.18.255 0 11.054-3.557 11.308-3.43 4.066-1.144 7.877-1.78 11.435-1.525 18.422.762 33.54 15.119 35.574 34.05.127.254 1.143 11.815 1.143 12.07 0 .126 2.922-.382 2.922-.255.254 0 8.258-1.652 8.512-1.652 2.923-.508 5.845-.889 9.021-.889 25.41 0 46.246 20.328 47.517 45.484 1.27 25.156-17.152 46.373-40.783 48.279 0 3.684-56.41 6.734-60.095 6.734h-271.379c-4.828 0-77.754-3.812-77.754-8.64-32.017-2.414-57.046-31.127-55.521-65.303 1.524-34.177 29.73-61.747 64.16-61.747 10.8 0 21.344 2.922 31.508 8.513.382.127 9.02 5.082 9.402 5.336 0-.254 5.717 2.795 5.844 2.54.127-.635 1.017-17.786 1.27-18.295 1.78-22.614 20.075-39.766 42.182-39.766" fill="url(#D)"/><path d="M1789.944 784.887h-392.966c-35.955 0-65.304-29.857-65.304-66.574 0-36.718 29.35-66.574 65.304-66.574 10.8 0 21.472 3.049 31.636 8.893l15.88 9.148.763-18.677c.89-22.869 19.185-40.91 41.546-40.91 12.705 0 21.98 5.845 27.57 10.927l11.053 9.91 6.352-13.595c15.373-33.16 47.009-53.742 82.583-53.742 42.435 0 80.041 30.873 89.316 73.308l2.795 12.45 11.689-4.192c4.32-1.397 8.13-2.16 11.942-2.16 19.439 0 35.32 14.992 37.226 34.812l1.016 12.578 12.197-2.414c3.05-.508 6.099-1.016 9.402-1.016 26.553 0 48.025 21.98 48.025 49.04 0 26.681-21.599 48.788-48.025 48.788" fill="url(#E)"/></svg>