<svg xmlns="http://www.w3.org/2000/svg" xmlns:xlink="http://www.w3.org/1999/xlink" viewBox="2239.7 294.1 841.9 841.90004" width="841.9" height="841.9"><defs><linearGradient id="j" gradientUnits="userSpaceOnUse" y1="672.51" x2="0" y2="506.73"><stop stop-color="#9bbccf"/><stop offset="1" stop-color="#d7e6f0"/></linearGradient><linearGradient id="h" gradientUnits="userSpaceOnUse" y1="671.52" x2="0" y2="507.57"><stop stop-color="#9dbdd0"/><stop offset="1" stop-color="#dae9f2"/></linearGradient><linearGradient id="z" gradientUnits="userSpaceOnUse" y1="809.39" x2="0" y2="379.24" gradientTransform="matrix(1.05 0 0 1.05 -163.693 12.147)"><stop stop-color="#cdd929"/><stop offset="1" stop-color="#feff9c"/></linearGradient><linearGradient id="k" gradientUnits="userSpaceOnUse" y1="670.53" x2="0" y2="508.35"><stop stop-color="#9fbed0"/><stop offset="1" stop-color="#ddecf5"/></linearGradient><linearGradient id="l" gradientUnits="userSpaceOnUse" y1="669.53" x2="0" y2="509.08"><stop stop-color="#a1bfd1"/><stop offset="1" stop-color="#e0eff7"/></linearGradient><linearGradient id="m" gradientUnits="userSpaceOnUse" y1="666.55" x2="0" y2="510.94"><stop stop-color="#a7c2d4"/><stop offset="1" stop-color="#eaf7ff"/></linearGradient><linearGradient id="n" gradientUnits="userSpaceOnUse" y1="668.54" x2="0" y2="509.76"><stop stop-color="#a3c0d2"/><stop offset="1" stop-color="#e4f1fa"/></linearGradient><linearGradient id="o" gradientUnits="userSpaceOnUse" y1="667.55" x2="0" y2="510.38"><stop stop-color="#a5c1d3"/><stop offset="1" stop-color="#e7f4fc"/></linearGradient><linearGradient id="i" gradientUnits="userSpaceOnUse" y1="673.51" x2="0" y2="505.84"><stop stop-color="#99bbce"/><stop offset="1" stop-color="#d3e4ed"/></linearGradient><linearGradient id="g" gradientUnits="userSpaceOnUse" y1="674.5" x2="0" y2="504.9"><stop stop-color="#97bacd"/><stop offset="1" stop-color="#d0e1eb"/></linearGradient><linearGradient id="f" gradientUnits="userSpaceOnUse" y1="675.49" x2="0" y2="503.91"><stop stop-color="#95b9cc"/><stop offset="1" stop-color="#cddee8"/></linearGradient><linearGradient id="P" gradientUnits="userSpaceOnUse" y1="853.69" x2="0" y2="618.61" xlink:href="#f" gradientTransform="matrix(1.05 0 0 1.05 -163.693 12.147)"/><linearGradient id="s" gradientUnits="userSpaceOnUse" x1="2594.58" y1="831.79" x2="2657.25" y2="385.89" gradientTransform="matrix(1.05 0 0 1.05 -163.693 12.147)"><stop stop-color="#99a309"/><stop offset="1" stop-color="#e3e54a"/></linearGradient><linearGradient id="t" gradientUnits="userSpaceOnUse" x1="2605.03" y1="829.08" x2="2658.29" y2="385.97" gradientTransform="matrix(1.05 0 0 1.05 -163.693 12.147)"><stop stop-color="#a0ab0e"/><stop offset="1" stop-color="#e7e956"/></linearGradient><linearGradient id="Q" gradientUnits="userSpaceOnUse" y1="852.32" x2="0" y2="619.96" xlink:href="#g" gradientTransform="matrix(1.05 0 0 1.05 -163.693 12.147)"/><linearGradient id="u" gradientUnits="userSpaceOnUse" x1="2615.74" y1="826.37" x2="2659.81" y2="385.69" gradientTransform="matrix(1.05 0 0 1.05 -163.693 12.147)"><stop stop-color="#a8b312"/><stop offset="1" stop-color="#ebed62"/></linearGradient><linearGradient id="v" gradientUnits="userSpaceOnUse" x1="2626.34" y1="823.35" x2="2661.36" y2="384.88" gradientTransform="matrix(1.05 0 0 1.05 -163.693 12.147)"><stop stop-color="#afba17"/><stop offset="1" stop-color="#eef06d"/></linearGradient><linearGradient id="y" gradientUnits="userSpaceOnUse" x1="2643.72" y1="812.88" x2="2652.3" y2="380.65" gradientTransform="matrix(1.05 0 0 1.05 -163.693 12.147)"><stop stop-color="#c6d124"/><stop offset="1" stop-color="#fafb90"/></linearGradient><linearGradient id="w" gradientUnits="userSpaceOnUse" x1="2634.42" y1="819.98" x2="2660.51" y2="383.62" gradientTransform="matrix(1.05 0 0 1.05 -163.693 12.147)"><stop stop-color="#b7c21b"/><stop offset="1" stop-color="#f2f479"/></linearGradient><linearGradient id="x" gradientUnits="userSpaceOnUse" x1="2638.98" y1="816.44" x2="2656.26" y2="382.18" gradientTransform="matrix(1.05 0 0 1.05 -163.693 12.147)"><stop stop-color="#beca20"/><stop offset="1" stop-color="#f6f885"/></linearGradient><linearGradient id="r" gradientUnits="userSpaceOnUse" x1="2583.75" y1="834.07" x2="2655.99" y2="385.01" gradientTransform="matrix(1.05 0 0 1.05 -163.693 12.147)"><stop stop-color="#919c05"/><stop offset="1" stop-color="#dfe23f"/></linearGradient><linearGradient id="q" gradientUnits="userSpaceOnUse" x1="2572.87" y1="836.11" x2="2654.95" y2="383.36" gradientTransform="matrix(1.05 0 0 1.05 -163.693 12.147)"><stop stop-color="#8a9400"/><stop offset="1" stop-color="#dbde33"/></linearGradient><linearGradient id="T" gradientUnits="userSpaceOnUse" y1="848.21" x2="0" y2="623.62" xlink:href="#h" gradientTransform="matrix(1.05 0 0 1.05 -163.693 12.147)"/><linearGradient id="R" gradientUnits="userSpaceOnUse" y1="850.95" x2="0" y2="621.25" xlink:href="#i" gradientTransform="matrix(1.05 0 0 1.05 -163.693 12.147)"/><linearGradient id="S" gradientUnits="userSpaceOnUse" y1="849.58" x2="0" y2="622.47" xlink:href="#j" gradientTransform="matrix(1.05 0 0 1.05 -163.693 12.147)"/><linearGradient id="U" gradientUnits="userSpaceOnUse" y1="846.83" x2="0" y2="624.69" xlink:href="#k" gradientTransform="matrix(1.05 0 0 1.05 -163.693 12.147)"/><linearGradient id="V" gradientUnits="userSpaceOnUse" y1="845.46" x2="0" y2="625.69" xlink:href="#l" gradientTransform="matrix(1.05 0 0 1.05 -163.693 12.147)"/><linearGradient id="Y" gradientUnits="userSpaceOnUse" y1="841.35" x2="0" y2="628.25" xlink:href="#m" gradientTransform="matrix(1.05 0 0 1.05 -163.693 12.147)"/><linearGradient id="W" gradientUnits="userSpaceOnUse" y1="844.09" x2="0" y2="626.62" xlink:href="#n" gradientTransform="matrix(1.05 0 0 1.05 -163.693 12.147)"/><linearGradient id="X" gradientUnits="userSpaceOnUse" y1="842.72" x2="0" y2="627.47" xlink:href="#o" gradientTransform="matrix(1.05 0 0 1.05 -163.693 12.147)"/><linearGradient id="c" gradientUnits="userSpaceOnUse" y1="364.28" x2="0" y2="354.96"><stop stop-color="#dbde33"/><stop offset="1" stop-color="#f0f2ac"/></linearGradient><linearGradient id="b" gradientUnits="userSpaceOnUse" y1="369.84" x2="0" y2="350.32"><stop stop-color="#e4e655"/><stop offset="1" stop-color="#f0f2ac"/></linearGradient><linearGradient id="C" gradientUnits="userSpaceOnUse" x1="2519.9" x2="2607.43" xlink:href="#p" gradientTransform="matrix(1.05 0 0 1.05 -163.693 12.147)"/><linearGradient id="p" gradientUnits="userSpaceOnUse" x1="2654.32" x2="2760.61"><stop offset=".291" stop-color="#fff"/><stop offset="1" stop-color="#def1ff"/></linearGradient><linearGradient id="B" gradientUnits="userSpaceOnUse" x1="2650.03" x2="2737.57" xlink:href="#p" gradientTransform="matrix(1.05 0 0 1.05 -163.693 12.147)"/><linearGradient id="D" gradientUnits="userSpaceOnUse" x1="2586.38" y1="997.37" x2="2644.74" y2="995.28" xlink:href="#p" gradientTransform="matrix(1.05 0 0 1.05 -163.693 12.147)"/><linearGradient id="E" gradientUnits="userSpaceOnUse" x1="2545.17" x2="2632.7" xlink:href="#p" gradientTransform="matrix(1.05 0 0 1.05 -163.693 12.147)"/><linearGradient id="e" gradientUnits="userSpaceOnUse" y1="375.39" x2="0" y2="345.68"><stop stop-color="#edef77"/><stop offset="1" stop-color="#f0f2ac"/></linearGradient><linearGradient id="a" gradientUnits="userSpaceOnUse" y1="386.5" x2="0" y2="336.4"><stop stop-color="#feffba"/><stop offset="1" stop-color="#f0f2ac"/></linearGradient><linearGradient id="d" gradientUnits="userSpaceOnUse" y1="380.95" x2="0" y2="341.04"><stop stop-color="#f5f798"/><stop offset="1" stop-color="#f0f2ac"/></linearGradient><linearGradient xlink:href="#p" id="A" gradientUnits="userSpaceOnUse" x1="2654.32" x2="2760.61" gradientTransform="matrix(1.05 0 0 1.05 -163.693 12.147)"/><linearGradient xlink:href="#f" id="F" gradientUnits="userSpaceOnUse" y1="675.49" x2="0" y2="503.91" gradientTransform="matrix(1.05 0 0 1.05 -163.693 12.147)"/><linearGradient xlink:href="#g" id="G" gradientUnits="userSpaceOnUse" y1="674.5" x2="0" y2="504.9" gradientTransform="matrix(1.05 0 0 1.05 -163.693 12.147)"/><linearGradient xlink:href="#i" id="H" gradientUnits="userSpaceOnUse" y1="673.51" x2="0" y2="505.84" gradientTransform="matrix(1.05 0 0 1.05 -163.693 12.147)"/><linearGradient xlink:href="#j" id="I" gradientUnits="userSpaceOnUse" y1="672.51" x2="0" y2="506.73" gradientTransform="matrix(1.05 0 0 1.05 -163.693 12.147)"/><linearGradient xlink:href="#h" id="J" gradientUnits="userSpaceOnUse" y1="671.52" x2="0" y2="507.57" gradientTransform="matrix(1.05 0 0 1.05 -163.693 12.147)"/><linearGradient xlink:href="#k" id="K" gradientUnits="userSpaceOnUse" y1="670.53" x2="0" y2="508.35" gradientTransform="matrix(1.05 0 0 1.05 -163.693 12.147)"/><linearGradient xlink:href="#l" id="L" gradientUnits="userSpaceOnUse" y1="669.53" x2="0" y2="509.08" gradientTransform="matrix(1.05 0 0 1.05 -163.693 12.147)"/><linearGradient xlink:href="#n" id="M" gradientUnits="userSpaceOnUse" y1="668.54" x2="0" y2="509.76" gradientTransform="matrix(1.05 0 0 1.05 -163.693 12.147)"/><linearGradient xlink:href="#o" id="N" gradientUnits="userSpaceOnUse" y1="667.55" x2="0" y2="510.38" gradientTransform="matrix(1.05 0 0 1.05 -163.693 12.147)"/><linearGradient xlink:href="#m" id="O" gradientUnits="userSpaceOnUse" y1="666.55" x2="0" y2="510.94" gradientTransform="matrix(1.05 0 0 1.05 -163.693 12.147)"/></defs><path d="M2558.957 345.312c-39.69-7.14-78.645-5.565-115.395 3.045 60.9 14.7 110.565 56.385 141.435 112.56 31.08 56.175 43.575 127.05 30.24 200.13-10.815 59.745-37.17 111.93-72.87 151.725-35.805 39.795-80.955 67.305-129.99 77.805 14.7 5.25 29.715 9.765 45.36 12.705 38.43 6.93 76.65 5.775 112.56-2.205 35.91-8.085 69.72-23.1 99.435-43.68 59.535-41.37 103.425-105.315 117.495-182.385 13.965-76.965-4.515-152.355-45.885-211.995-41.37-59.64-105.42-103.74-182.385-117.705" fill="#9cb1bf"/><path d="M2551.607 336.912c-39.69-7.14-78.645-5.565-115.395 3.045 60.9 14.7 110.565 56.385 141.435 112.56 31.08 56.175 43.575 127.05 30.24 200.13-10.815 59.745-37.17 111.93-72.87 151.725-35.805 39.795-80.955 67.305-129.99 77.805 14.7 5.25 29.715 9.765 45.36 12.705 38.43 6.93 76.65 5.775 112.56-2.205 35.91-8.085 69.72-23.1 99.435-43.68 59.535-41.37 103.425-105.315 117.495-182.385 13.965-76.965-4.515-152.355-45.885-211.995-41.37-59.64-105.42-103.74-182.385-117.705" fill="url(#q)"/><path d="M2444.192 341.112c10.5-2.1 21.105-3.57 31.92-4.41 28.35-2.205 57.225-.21 85.995 6.51 71.61 14.595 131.145 56.385 170.1 112.455 41.055 59.115 59.43 133.98 45.57 210.42-13.755 75.6-56.385 138.495-114.555 179.55-28.98 20.475-61.95 35.49-97.02 43.89-34.965 8.19-72.135 9.87-109.725 3.78l-5.355-.945c-13.44-2.52-26.355-6.3-39.06-10.5 47.88-11.55 91.875-39.375 126.735-78.96 34.86-39.69 60.48-91.14 71.085-149.835 13.125-72.03 1.26-141.855-28.665-197.715-29.82-55.965-77.805-97.965-137.025-114.24" fill="url(#r)"/><path d="M2452.172 342.372c10.92-1.785 21.84-2.94 32.865-3.36a275.736 275.736 0 0 1 87.465 10.605c66.255 15.12 121.485 54.705 157.92 107.31 40.74 58.695 59.01 133.035 45.255 208.845-13.44 74.025-54.915 135.87-111.615 176.61-28.245 20.37-60.375 35.385-94.71 43.995a279.81 279.81 0 0 1-106.89 5.355c-1.785-.21-3.465-.525-5.25-.84-13.02-2.205-25.83-5.565-38.325-9.45 46.725-12.6 89.565-40.74 123.48-80.01 34.02-39.585 58.905-90.3 69.3-148.05 12.915-70.875 1.68-139.755-27.09-195.3-28.56-55.545-74.97-97.86-132.405-115.71" fill="url(#s)"/><path d="M2460.152 343.527c11.235-1.47 22.575-2.205 33.915-2.31 30.24 0 60.165 4.935 88.83 14.595 60.9 15.645 111.72 53.025 145.74 102.06 40.425 58.38 58.59 132.09 44.94 207.375-13.125 72.45-53.445 133.245-108.57 173.67-27.51 20.16-58.8 35.28-92.295 44.205-33.075 8.61-68.25 11.445-104.055 6.93-1.68-.21-3.465-.42-5.145-.735-12.705-1.89-25.2-4.83-37.485-8.4 45.675-13.65 87.36-42.105 120.225-81.165 33.075-39.375 57.33-89.565 67.515-146.16 12.705-69.825 2.1-137.655-25.515-192.885-27.51-55.125-72.345-97.755-128.1-117.18" fill="url(#t)"/><path d="M2468.237 344.787a278.038 278.038 0 0 1 34.965-1.26c31.185 1.05 61.635 7.455 90.3 18.69 55.545 16.17 101.955 51.345 133.56 96.915 40.11 57.96 58.17 131.145 44.625 205.8-12.915 70.875-51.975 130.62-105.63 170.73-26.775 20.055-57.33 35.28-89.985 44.415-32.025 8.82-66.255 12.18-101.22 8.505l-5.04-.63c-12.39-1.575-24.675-4.2-36.75-7.35 44.52-14.7 85.05-43.47 116.97-82.32 32.235-39.27 55.65-88.725 65.73-144.27 12.495-68.67 2.52-135.555-23.94-190.47-26.46-54.81-69.615-97.755-123.585-118.755" fill="url(#u)"/><path d="M2476.217 345.942c11.97-.84 24.045-.945 35.91-.21 32.13 2.205 63.105 9.975 91.77 22.785 50.19 16.695 92.295 49.665 121.38 91.77 39.795 57.54 57.75 130.095 44.31 204.225-12.6 69.3-50.505 127.995-102.69 167.79-26.04 19.95-55.755 35.175-87.57 44.52-31.08 9.03-64.26 12.915-98.28 10.185-1.575-.105-3.255-.315-4.83-.42-12.075-1.26-24.045-3.465-35.91-6.3 43.47-15.75 82.74-44.835 113.715-83.37 31.29-39.06 54.075-87.885 63.945-142.485 12.285-67.62 3.045-133.455-22.47-188.055-25.41-54.6-66.99-97.86-119.28-120.435" fill="url(#v)"/><path d="M2484.197 347.202c12.39-.525 24.675-.315 36.96.84 33.075 3.255 64.47 12.495 93.24 26.775 44.73 17.22 82.53 48.09 109.2 86.52 39.585 57.12 57.33 129.15 43.995 202.755-12.285 67.83-49.035 125.37-99.75 164.85a266.249 266.249 0 0 1-85.26 44.73c-30.135 9.345-62.37 13.65-95.445 11.76l-4.725-.315c-11.76-.945-23.52-2.73-35.175-5.25 42.42-16.8 80.43-46.2 110.46-84.525 30.45-38.955 52.5-87.045 62.16-140.595 12.075-66.57 3.465-131.355-20.895-185.64-24.255-54.18-64.155-97.86-114.765-121.905" fill="url(#w)"/><path d="M2492.177 348.357c12.705-.315 25.41.42 38.01 1.89 34.02 4.41 65.94 15.015 94.605 30.87 39.375 17.85 72.765 46.41 97.02 81.375 39.27 56.7 56.91 128.205 43.68 201.18-12.075 66.255-47.565 122.745-96.81 161.91-24.57 19.635-52.71 34.965-82.845 44.94-29.19 9.555-60.375 14.49-92.61 13.335-1.575-.105-3.045-.105-4.62-.21-11.445-.63-22.89-2.1-34.335-4.2 41.265-17.85 78.225-47.565 107.205-85.68 29.505-38.85 50.82-86.31 60.375-138.705 11.865-65.415 3.885-129.255-19.32-183.225-23.205-53.865-61.53-97.755-110.355-123.48" fill="url(#x)"/><path d="M2500.262 349.512c13.125 0 26.145 1.05 38.955 2.94 34.965 5.46 67.41 17.535 96.075 34.965 34.02 18.375 63.105 44.73 84.945 76.23 38.955 56.28 56.49 127.155 43.365 199.605-11.76 64.68-45.99 120.12-93.87 159.075a263.092 263.092 0 0 1-80.535 45.045c-28.14 9.765-58.38 15.225-89.775 14.91-1.47 0-3.045 0-4.515-.105-11.13-.315-22.365-1.365-33.495-3.045 40.215-18.9 75.915-48.93 103.95-86.835 28.56-38.64 49.245-85.47 58.59-136.92 11.655-64.365 4.305-127.155-17.745-180.81-22.155-53.445-58.905-97.755-105.945-125.055" fill="url(#y)"/><path d="M2501.102 880.812c-10.815 0-21.735-.63-32.76-1.995 79.17-40.32 139.44-123.375 157.5-222.915 11.445-63.315 4.725-125.055-16.17-178.395-20.895-53.34-56.07-97.86-101.43-126.735 13.545.315 26.88 1.68 40.005 4.095 35.91 6.615 68.88 20.055 97.545 38.955a267.94 267.94 0 0 1 72.765 71.085c38.64 55.86 56.07 126.21 43.05 198.135-11.445 63.105-44.52 117.495-90.93 156.135-23.1 19.425-49.665 34.755-78.12 45.255-28.455 10.5-59.325 16.38-91.455 16.38" fill="url(#z)"/><g fill="#9cb1bf"><path d="M2638.232 1085.877c-3.15 0-6.3-.735-9.03-2.205-7.455-4.2-9.555-12.705-4.62-18.9 102.165-120.855 109.83-120.855 112.245-120.855h1.155l1.26.63c3.78 2.1 8.82 4.935-87.57 135.24-2.94 3.78-7.98 6.09-13.44 6.09M2631.617 1009.332c-2.625 0-5.145-.63-7.455-1.89-6.195-3.465-7.875-10.395-3.78-15.54 84.21-99.54 90.405-99.54 92.505-99.54h.945l1.05.525c3.045 1.68 7.35 3.99-72.135 111.405-2.52 3.15-6.72 5.04-11.13 5.04M2494.907 1017.312c-2.625 0-5.145-.63-7.35-1.89-6.195-3.465-7.875-10.395-3.78-15.54 84.21-99.54 90.405-99.54 92.505-99.54h.945l1.05.525c3.045 1.68 7.35 3.99-72.135 111.405-2.625 3.255-6.72 5.04-11.235 5.04M2567.567 1097.532c-2.415-.315-4.83-1.05-7.14-2.1-6.405-3.045-9.66-7.875-7.14-10.815 52.71-56.49 58.38-55.755 60.27-55.44l.84.105 1.05.525c3.255 1.47 7.56 3.57-38.955 65.835-1.575 1.68-4.83 2.415-8.925 1.89M2521.472 1070.022c-2.625 0-5.145-.63-7.35-1.89-6.195-3.465-7.875-10.395-3.78-15.54 84.21-99.54 90.405-99.54 92.505-99.54h.945l1.05.525c3.045 1.68 7.35 3.99-72.03 111.405-2.73 3.15-6.825 5.04-11.34 5.04"/></g><path d="M2635.712 1080.522c-3.15 0-6.3-.735-9.03-2.205-7.455-4.2-9.555-12.705-4.62-18.9 102.165-120.855 109.83-120.855 112.245-120.855h1.155l1.26.63c3.78 2.1 8.82 4.935-87.57 135.24-2.94 3.885-7.98 6.09-13.44 6.09" fill="#78b5db"/><path d="M2628.887 1075.482c-5.67-3.15-7.245-9.555-3.465-14.385 0 0 103.635-122.43 109.305-119.28 5.67 3.15-88.725 130.83-88.725 130.83-2.415 3.045-6.3 4.62-10.29 4.62-2.31 0-4.725-.525-6.825-1.785" fill="url(#A)"/><path d="M2629.097 1003.977c-2.625 0-5.145-.63-7.455-1.89-6.195-3.465-7.875-10.395-3.78-15.54 84.21-99.54 90.405-99.54 92.505-99.54h.945l1.05.525c3.045 1.68 7.35 3.99-72.135 111.405-2.52 3.15-6.72 5.04-11.13 5.04" fill="#78b5db"/><path d="M2623.427 999.882c-4.725-2.625-5.985-7.875-2.835-11.865 0 0 85.365-100.905 89.985-98.28 4.725 2.625-73.08 107.73-73.08 107.73-1.995 2.52-5.145 3.78-8.505 3.78-1.89 0-3.885-.42-5.565-1.365" fill="url(#B)"/><path d="M2492.387 1012.062c-2.625 0-5.145-.63-7.35-1.89-6.195-3.465-7.875-10.395-3.78-15.54 84.21-99.54 90.405-99.54 92.505-99.54h.945l1.05.525c3.045 1.68 7.35 3.99-72.135 111.405-2.625 3.15-6.72 5.04-11.235 5.04" fill="#78b5db"/><path d="M2486.717 1007.862c-4.725-2.625-5.985-7.875-2.835-11.76 0 0 85.26-100.905 89.985-98.28 4.725 2.625-73.08 107.73-73.08 107.73-1.995 2.52-5.145 3.78-8.505 3.78-1.785 0-3.78-.42-5.565-1.47" fill="url(#C)"/><path d="M2565.047 1092.177c-2.415-.315-4.83-1.05-7.14-2.1-6.405-3.045-9.66-7.875-7.14-10.815 52.71-56.49 58.38-55.755 60.27-55.44l.84.105 1.05.525c3.255 1.47 7.56 3.57-38.955 65.835-1.575 1.68-4.83 2.52-8.925 1.89" fill="#78b5db"/><path d="M2558.957 1088.817c-4.935-2.31-7.35-5.985-5.46-8.295 0 0 53.445-57.225 58.38-54.915 4.83 2.31-40.635 63.21-40.635 63.21-1.155 1.47-3.78 1.995-6.825 1.575a17.887 17.887 0 0 1-5.46-1.575" fill="url(#D)"/><path d="M2518.952 1064.667c-2.625 0-5.145-.63-7.35-1.89-6.195-3.465-7.875-10.395-3.78-15.54 84.21-99.54 90.405-99.54 92.505-99.54h.945l1.05.525c3.045 1.68 7.35 3.99-72.03 111.405-2.73 3.15-6.93 5.04-11.34 5.04" fill="#78b5db"/><path d="M2513.282 1060.572c-4.725-2.625-5.985-7.875-2.835-11.865 0 0 85.26-100.905 89.985-98.28 4.725 2.625-73.08 107.73-73.08 107.73-1.995 2.52-5.145 3.78-8.505 3.78-1.89.105-3.78-.42-5.565-1.365" fill="url(#E)"/><path d="M2942.942 635.427c-3.36 0-6.615.42-9.765 1.05-1.89-20.895-19.215-37.38-40.635-37.38-4.62 0-9.03.945-13.125 2.31-8.715-38.85-43.155-67.83-84.63-67.83-34.545 0-64.26 20.37-78.225 49.77-7.875-6.93-18.06-11.235-29.4-11.235-24.045 0-43.47 19.005-44.52 42.735-9.345-5.25-19.95-8.505-31.395-8.505-35.595 0-64.47 28.875-64.47 64.47s28.875 64.47 64.47 64.47h331.59c27.615 0 49.875-22.365 49.875-49.875.21-27.615-22.155-49.98-49.77-49.98" fill="#9cb1bf"/><path d="M2934.962 621.672c-3.36 0-6.51.315-9.765 1.05-1.89-21-19.215-37.38-40.635-37.38-4.725 0-9.03.945-13.125 2.31-8.715-38.85-43.155-67.83-84.63-67.83-34.545 0-64.26 20.475-78.12 49.77-7.875-6.93-18.06-11.34-29.4-11.34-24.045 0-43.47 19.005-44.52 42.84-9.345-5.25-19.95-8.505-31.395-8.505-35.595 0-64.47 28.875-64.47 64.47s28.875 64.365 64.47 64.365h331.59c27.51 0 49.98-22.365 49.98-49.875s-22.365-49.875-49.98-49.875" fill="url(#F)"/><path d="M2679.497 559.302c11.235 0 21.105 4.41 28.665 11.025 1.68-3.465 4.62-5.985 6.72-9.135 2.205-3.255 5.145-7.56 7.77-10.395 15.12-17.745 37.275-29.085 62.055-29.715 7.14-.21 14.07.525 20.79 1.995 31.605 7.035 56.7 31.71 64.365 63.42 3.885-.84 7.875-1.155 12.18-.735 2.205 0 4.62 1.365 6.72 1.68 1.995.315 5.145.525 7.035 1.26 2.31.525 4.41 1.365 6.51 2.31 9.66 4.515 17.115 13.125 20.16 23.625.63 1.995 1.26 5.145 1.47 7.245.105.735.525 1.365.525 1.995 1.365-.315 3.57-.63 5.04-.84a44.48 44.48 0 0 1 5.355-.315c14.7 0 27.72 7.035 35.805 17.535 7.98 10.5 11.025 23.625 8.61 35.805 0 24.465-25.41 44.31-49.875 44.31h-318.15c-31.605 0-64.47-25.62-64.47-57.225-3.255-15.855.42-32.865 10.815-46.62 10.395-13.755 27.405-22.89 46.515-22.89 8.715 0 17.01 1.89 24.675 5.355 2.1.945 5.04 2.415 7.035 3.57.105-1.68.84-3.045 1.155-4.725.735-4.2 2.205-9.87 4.095-13.545 6.405-14.805 21.21-24.99 38.43-24.99" fill="url(#G)"/><path d="M2679.707 560.352c11.13 0 20.79 4.515 27.93 10.815 1.47-3.045 5.145-4.2 7.035-6.93 1.89-2.835 5.145-7.98 7.455-10.5 14.49-18.165 36.12-30.03 60.48-31.29 6.93-.315 13.86.105 20.475 1.47 31.5 6.09 56.91 30.24 64.995 61.425 3.57-.21 7.245 0 11.13.945 1.89 0 4.305 2.415 6.195 2.73 1.785.315 5.67 0 7.35.63 2.415.315 4.725.945 6.93 1.785 10.395 3.99 18.585 13.02 21.42 24.255.525 1.68 1.155 5.775 1.47 7.56.105.63.735 1.05.84 1.68 1.26-.21 4.095-.735 5.355-.945 1.89-.21 3.675-.42 5.565-.42 15.54 0 29.295 8.4 36.33 20.37 7.035 11.97 7.455 25.725 2.52 36.435 0 21.42-28.455 38.745-49.875 38.745h-304.815c-27.72 0-64.365-22.365-64.365-50.085-6.615-13.86-6.405-31.815 2.73-47.67 9.03-15.855 26.985-26.88 47.46-26.88 8.715 0 17.115 1.995 24.885 5.565 1.89.735 5.355 2.625 7.14 3.675.105-1.47 1.365-2.31 1.68-3.78.63-3.675 1.995-10.605 3.675-13.755 5.775-15.015 20.58-25.83 38.01-25.83" fill="url(#H)"/><path d="M2679.917 561.402c11.025 0 20.37 4.515 27.195 10.5 1.26-2.625 5.775-2.415 7.35-4.83 1.575-2.415 5.145-8.4 7.14-10.605 13.86-18.585 34.965-30.87 58.905-32.76 6.825-.525 13.65-.21 20.265.945 31.395 5.25 57.12 28.665 65.73 59.535 3.255.42 6.615 1.155 10.08 2.625 1.68 0 3.99 3.57 5.565 3.885 1.575.315 6.3-.42 7.665 0 2.625.105 5.04.525 7.35 1.26 11.235 3.36 20.16 12.915 22.785 24.885.525 1.47 1.155 6.405 1.365 7.98.105.525 1.05.84 1.05 1.365 1.05-.21 4.515-.84 5.565-.945 1.89-.315 3.885-.42 5.88-.42 16.485 0 30.765 9.765 36.75 23.31 5.985 13.44 3.78 27.825-3.465 36.96 0 18.375-31.5 33.18-49.875 33.18h-291.375c-23.73 0-64.365-19.215-64.365-42.945-9.87-11.865-13.125-30.87-5.355-48.72 7.77-17.85 26.565-30.975 48.405-30.975 8.82 0 17.22 2.1 24.99 5.775 1.575.63 5.775 2.94 7.245 3.78.105-1.26 1.995-1.575 2.205-2.835.525-3.15 1.785-11.235 3.255-13.965 5.25-15.645 20.16-26.985 37.695-26.985" fill="url(#I)"/><path d="M2680.127 562.452c11.025 0 20.055 4.62 26.46 10.29 1.05-2.205 6.3-.63 7.665-2.625 1.365-1.995 5.145-8.925 6.825-10.71 13.23-19.11 33.81-31.815 57.33-34.335 6.72-.735 13.44-.63 20.055.315 31.29 4.41 57.33 27.195 66.465 57.645 3.045.945 5.985 2.31 9.03 4.2 1.365 0 3.78 4.725 5.04 4.935 1.26.21 6.825-.945 7.98-.525 2.73-.105 5.25.105 7.77.735 11.97 2.835 21.63 12.81 24.045 25.62.42 1.26 1.05 7.14 1.26 8.4.105.42 1.26.63 1.365 1.05.84-.21 5.04-.945 5.88-1.05 1.995-.315 4.095-.525 6.195-.525 17.43 0 32.235 11.235 37.275 26.145 5.04 14.91.21 29.925-9.555 37.59 0 15.33-34.545 27.72-49.77 27.72h-277.935c-19.74 0-64.365-15.96-64.365-35.805-13.23-9.87-19.95-29.82-13.44-49.77 6.51-19.95 26.145-34.965 49.245-34.965 8.82 0 17.325 2.1 25.2 6.09 1.365.525 6.09 3.15 7.35 3.885 0-1.05 2.52-.84 2.73-1.785.42-2.625 1.575-11.97 2.835-14.175 4.41-16.38 19.32-28.35 37.065-28.35" fill="url(#J)"/><path d="M2680.337 563.502c10.92 0 19.635 4.62 25.725 9.975.84-1.785 6.93 1.155 7.98-.525 1.05-1.575 5.25-9.345 6.51-10.815 12.495-19.53 32.55-32.76 55.755-35.805 6.615-.84 13.23-.945 19.845-.21 31.185 3.465 57.54 25.62 67.095 55.755a44.442 44.442 0 0 1 7.98 5.88c1.05 0 3.465 5.775 4.515 5.985 1.05.21 7.35-1.47 8.4-1.155 2.94-.315 5.565-.21 8.19.21 12.81 2.31 23.1 12.705 25.41 26.25.315.945 1.05 7.77 1.155 8.82 0 .315 1.575.42 1.575.735.735-.105 5.46-1.05 6.195-1.155 2.1-.315 4.305-.525 6.51-.525 18.27 0 33.705 12.6 37.8 28.98 3.99 16.38-3.36 32.025-15.54 38.115 0 12.18-37.59 22.155-49.77 22.155h-264.495c-15.855 0-64.26-12.81-64.26-28.665-16.485-7.875-26.775-28.77-21.63-50.82s25.83-38.955 50.19-38.955c8.82 0 17.43 2.205 25.41 6.3 1.05.42 6.405 3.465 7.455 3.99 0-.84 3.045 0 3.255-.84.315-2.1 1.365-12.6 2.31-14.49 3.57-16.695 18.585-29.19 36.435-29.19" fill="url(#K)"/><path d="M2680.547 564.552c10.815 0 19.215 4.725 24.99 9.765.63-1.26 7.455 2.835 8.295 1.68.84-1.155 5.25-9.87 6.195-10.92 11.865-19.95 31.395-33.6 54.075-37.38 6.51-1.05 13.02-1.365 19.635-.735 31.08 2.625 57.75 24.15 67.83 53.865 2.415 2.205 4.725 4.62 6.93 7.56.84 0 3.15 6.93 3.99 7.035.735.105 7.98-1.995 8.715-1.68 3.045-.525 5.88-.63 8.61-.315 13.65 1.785 24.675 12.6 26.775 26.88.21.735 1.05 8.4 1.155 9.24 0 .21 1.89.105 1.89.42.525-.105 5.985-1.155 6.51-1.26 2.205-.315 4.515-.63 6.825-.63 19.215 0 35.28 13.965 38.22 31.92 3.045 17.85-7.035 34.125-21.63 38.745 0 9.135-40.53 16.59-49.77 16.59h-251.16c-11.865 0-64.26-9.555-64.26-21.42-19.845-5.985-33.6-27.72-29.715-51.87 3.885-24.15 25.41-42.945 51.135-42.945 8.82 0 17.535 2.31 25.62 6.615.84.315 6.825 3.675 7.56 4.095 0-.63 3.675.735 3.78.105.315-1.575 1.155-13.335 1.89-14.7 2.835-17.535 17.955-30.66 35.91-30.66" fill="url(#L)"/><path d="M2680.757 565.602c10.71 0 18.9 4.725 24.255 9.45.42-.84 7.98 4.62 8.61 3.885.525-.84 5.25-10.29 5.88-11.025 11.235-20.37 30.24-34.545 52.5-38.955 6.3-1.26 12.81-1.68 19.425-1.365 30.975 1.785 57.96 22.68 68.565 51.87 2.205 2.835 4.095 5.775 5.88 9.135.525 0 2.835 7.98 3.36 8.085.525.105 8.505-2.415 9.03-2.31 3.255-.735 6.195-1.05 9.03-.84 14.49 1.155 26.145 12.495 28.035 27.51.21.525.945 9.135 1.05 9.66 0 .21 2.1-.105 2.205.105.315-.105 6.405-1.26 6.72-1.365 2.31-.42 4.725-.63 7.14-.63 20.055 0 36.75 15.435 38.745 34.755 1.995 19.32-10.605 36.225-27.615 39.27 0 6.09-43.575 11.025-49.77 11.025h-237.72c-7.875 0-64.26-6.405-64.26-14.28-23.1-3.99-40.32-26.775-37.8-52.92 2.625-26.145 24.99-47.04 52.08-47.04 8.925 0 17.535 2.31 25.83 6.825.525.21 7.14 3.99 7.665 4.2 0-.42 4.2 1.47 4.305 1.05.21-1.05 1.05-13.965 1.47-14.91 2.1-17.535 17.22-31.185 35.385-31.185" fill="url(#M)"/><path d="M2680.967 566.652c10.605 0 18.48 4.83 23.52 9.24.21-.42 8.61 6.405 8.82 5.985.315-.42 5.25-10.815 5.565-11.13 10.605-20.895 29.085-35.49 50.925-40.425 6.195-1.365 12.6-2.1 19.215-1.89 30.87.84 58.275 21.105 69.195 49.98 1.89 3.36 3.57 7.035 4.83 10.815.315 0 2.625 9.135 2.835 9.24.21 0 9.135-2.94 9.345-2.835 3.36-.945 6.51-1.47 9.45-1.26 15.225.63 27.72 12.495 29.4 28.14.105.21.945 9.765.945 9.975 0 .105 2.415-.315 2.415-.21.21 0 6.825-1.365 7.035-1.365 2.415-.42 4.83-.735 7.455-.735 21 0 38.22 16.8 39.27 37.59 1.05 20.79-14.175 38.325-33.705 39.9 0 3.045-46.62 5.565-49.665 5.565h-224.28c-3.99 0-64.26-3.15-64.26-7.14-26.46-1.995-47.145-25.725-45.885-53.97 1.26-28.245 24.57-51.03 53.025-51.03 8.925 0 17.64 2.415 26.04 7.035.315.105 7.455 4.2 7.77 4.41 0-.21 4.725 2.31 4.83 2.1.105-.525.84-14.7 1.05-15.12 1.47-18.69 16.59-32.865 34.86-32.865" fill="url(#N)"/><path d="M2931.707 712.077h-324.765c-29.715 0-53.97-24.675-53.97-55.02 0-30.345 24.255-55.02 53.97-55.02 8.925 0 17.745 2.52 26.145 7.35l13.125 7.56.63-15.435c.735-18.9 15.855-33.81 34.335-33.81 10.5 0 18.165 4.83 22.785 9.03l9.135 8.19 5.25-11.235c12.705-27.405 38.85-44.415 68.25-44.415 35.07 0 66.15 25.515 73.815 60.585l2.31 10.29 9.66-3.465c3.57-1.155 6.72-1.785 9.87-1.785 16.065 0 29.19 12.39 30.765 28.77l.84 10.395 10.08-1.995c2.52-.42 5.04-.84 7.77-.84 21.945 0 39.69 18.165 39.69 40.53 0 22.05-17.85 40.32-39.69 40.32" fill="url(#O)"/><path d="M2880.992 785.472c-4.515 0-9.03.525-13.335 1.365-2.625-28.665-26.355-51.135-55.755-51.135-6.405 0-12.285 1.26-17.955 3.15-11.865-53.13-59.115-92.925-115.815-92.925-47.46 0-87.99 27.93-107.1 68.145-10.815-9.45-24.78-15.435-40.215-15.435-32.865 0-59.535 26.04-61.005 58.59-12.81-7.14-27.3-11.55-42.945-11.55-48.72 0-88.2 39.48-88.2 88.305 0 48.72 39.585 88.2 88.2 88.2h454.23c37.8 0 68.355-30.66 68.355-68.355-.105-37.8-30.765-68.355-68.46-68.355" fill="#9cb1bf"/><path d="M2871.122 771.822c-4.515 0-9.03.525-13.335 1.365-2.625-28.56-26.355-51.135-55.755-51.135-6.3 0-12.285 1.26-17.955 3.15-11.865-53.13-59.115-92.925-115.815-92.925-47.355 0-87.99 27.93-107.1 68.145-10.815-9.45-24.78-15.435-40.32-15.435-32.865 0-59.535 26.04-61.005 58.695-12.705-7.245-27.3-11.655-42.945-11.655-48.72 0-88.305 39.585-88.305 88.305 0 48.72 39.48 88.305 88.305 88.305h454.23c37.695 0 68.355-30.66 68.355-68.355 0-37.905-30.66-68.46-68.355-68.46" fill="url(#P)"/><path d="M2521.157 686.352c15.33 0 28.98 5.985 39.27 15.12 2.31-4.83 6.3-8.19 9.24-12.495 2.94-4.41 7.035-10.29 10.605-14.175 20.79-24.255 51.03-39.795 85.05-40.635 9.66-.21 19.11.735 28.245 2.73 43.365 9.555 77.805 43.47 88.2 86.835 5.25-1.155 10.815-1.575 16.59-.945 3.045 0 6.3 1.785 9.135 2.31 2.835.525 7.035.735 9.66 1.68 3.15.735 6.09 1.785 8.925 3.15 13.125 6.09 23.415 17.955 27.615 32.34.84 2.625 1.68 7.035 2.1 9.87.105.945.63 1.785.735 2.73 1.89-.42 4.935-.84 6.825-1.05 2.415-.315 4.83-.42 7.35-.42 20.055 0 38.01 9.555 49.035 23.94 11.025 14.385 15.12 32.34 11.76 49.14 0 33.495-36.645 60.795-70.245 60.795h-443.73c-47.88 0-86.73-38.85-86.73-86.835 0-47.985 38.85-86.835 86.73-86.835 11.97 0 23.31 2.625 33.81 7.35 2.835 1.26 6.825 3.255 9.555 4.83.105-2.415 1.155-4.305 1.575-6.615.945-5.67 2.94-13.44 5.565-18.48 9.135-20.265 29.505-34.335 53.13-34.335" fill="url(#Q)"/><path d="M2521.367 687.822c15.225 0 28.455 6.09 38.22 14.7 1.995-4.2 7.14-5.775 9.66-9.555 2.625-3.885 7.035-10.92 10.185-14.385 19.845-24.885 49.455-41.055 82.845-42.735 9.555-.525 18.9.21 27.93 1.995 43.155 8.4 78.015 41.37 89.145 84.21 4.935-.315 9.975 0 15.12 1.26 2.625 0 5.88 3.36 8.4 3.78 2.415.42 7.77.105 10.08.84 3.36.42 6.51 1.26 9.45 2.415 14.28 5.355 25.515 17.85 29.4 33.285.735 2.31 1.575 7.875 1.995 10.395.105.84 1.05 1.47 1.155 2.31 1.68-.315 5.565-1.05 7.245-1.155 2.52-.315 5.145-.525 7.665-.525 21.315 0 40.005 11.445 49.665 27.93 9.66 16.38 10.185 35.175 3.465 49.875 0 29.295-42.735 53.13-72.135 53.13h-433.23c-46.935 0-85.05-38.22-85.05-85.365 0-47.145 38.115-85.365 85.05-85.365 12.075 0 23.52 2.73 34.02 7.665 2.52 1.05 7.35 3.675 9.765 4.935.105-2.1 1.995-3.255 2.31-5.25.84-5.04 2.73-14.385 5.04-18.795 8.4-20.79 28.77-35.595 52.605-35.595" fill="url(#R)"/><path d="M2521.682 689.292c15.12 0 27.93 6.195 37.275 14.385 1.68-3.57 7.875-3.36 10.08-6.615 2.205-3.255 7.035-11.55 9.765-14.49 19.005-25.515 47.88-42.315 80.745-44.835 9.345-.735 18.585-.315 27.615 1.26 43.05 7.14 78.33 39.27 90.195 81.585 4.515.525 9.135 1.575 13.755 3.57 2.205 0 5.46 4.83 7.665 5.25 2.1.42 8.61-.63 10.5.105 3.57.105 6.825.735 10.08 1.68 15.33 4.62 27.615 17.745 31.185 34.125.63 1.995 1.575 8.82 1.89 10.92.105.735 1.47 1.155 1.47 1.89 1.365-.315 6.195-1.155 7.665-1.365a51.43 51.43 0 0 1 8.085-.63c22.575 0 42.105 13.44 50.295 31.815 8.295 18.48 5.25 38.115-4.725 50.715 0 25.2-48.825 45.57-73.92 45.57h-422.73c-46.095 0-83.475-37.59-83.475-84 0-46.305 37.38-84 83.475-84 12.075 0 23.625 2.835 34.335 7.98 2.205.945 7.77 3.99 9.87 5.145.105-1.785 2.73-2.205 3.045-3.885.735-4.305 2.415-15.33 4.41-19.11 7.035-21.525 27.405-37.065 51.45-37.065" fill="url(#S)"/><path d="M2521.997 690.657c15.015 0 27.405 6.3 36.225 14.07 1.47-3.045 8.61-.84 10.5-3.57 1.89-2.73 7.14-12.18 9.345-14.7 18.06-26.145 46.305-43.575 78.54-46.935 9.135-.945 18.375-.84 27.405.42 42.945 5.985 78.645 37.275 91.14 78.96 4.095 1.365 8.19 3.15 12.285 5.775 1.89 0 5.04 6.405 6.825 6.72 1.785.315 9.345-1.26 11.025-.735 3.78-.21 7.245.21 10.71.945 16.485 3.885 29.61 17.64 32.97 35.07.525 1.68 1.47 9.66 1.785 11.445.105.63 1.785.84 1.89 1.47 1.155-.21 6.825-1.26 8.085-1.47a57.96 57.96 0 0 1 8.505-.63c23.835 0 44.1 15.33 51.03 35.805 6.825 20.475.315 40.95-13.02 51.45 0 21-54.915 38.01-75.81 38.01h-412.23c-45.15 0-81.9-36.96-81.9-82.53s36.75-82.53 81.9-82.53c12.075 0 23.73 2.94 34.545 8.295 1.785.735 8.295 4.305 9.975 5.25.105-1.47 3.465-1.155 3.78-2.52.63-3.57 2.205-16.275 3.78-19.425 5.985-22.26 26.46-38.64 50.715-38.64" fill="url(#T)"/><path d="M2522.312 692.127c14.91 0 26.88 6.3 35.175 13.65 1.155-2.415 9.45 1.575 10.92-.63 1.47-2.205 7.14-12.915 8.925-14.805 17.22-26.775 44.73-44.835 76.335-49.035 9.03-1.155 18.06-1.26 27.09-.315 42.735 4.83 78.96 35.175 92.085 76.335 3.78 2.205 7.35 4.725 10.92 7.98 1.47 0 4.725 7.875 6.09 8.19 1.365.21 10.185-1.995 11.445-1.47 3.99-.525 7.665-.315 11.235.315 17.535 3.15 31.71 17.43 34.755 35.91.42 1.365 1.47 10.605 1.68 12.075.105.42 2.205.525 2.205 1.05.945-.21 7.56-1.47 8.505-1.575 2.94-.525 5.88-.735 8.925-.735 25.095 0 46.2 17.22 51.66 39.69 5.46 22.47-4.62 43.89-21.315 52.29 0 16.8-60.9 30.345-77.7 30.345h-401.73c-44.31 0-80.325-36.33-80.325-81.06 0-44.73 36.015-81.165 80.325-81.165 12.18 0 23.835 3.045 34.86 8.715 1.47.63 8.715 4.62 10.08 5.46 0-1.155 4.305-.105 4.515-1.26.525-2.835 1.89-17.22 3.255-19.74 5.04-23.1 25.515-40.215 50.085-40.215" fill="url(#U)"/><path d="M2522.522 693.597c14.805 0 26.46 6.405 34.23 13.335.84-1.785 10.185 3.99 11.34 2.31 1.155-1.68 7.14-13.545 8.505-15.015 16.275-27.405 43.155-46.095 74.235-51.135 8.82-1.47 17.745-1.785 26.775-1.05 42.63 3.57 79.275 33.075 93.03 73.71a63.96 63.96 0 0 1 9.45 10.29c1.155 0 4.305 9.45 5.355 9.66 1.05.21 10.92-2.625 11.97-2.31 4.2-.735 8.085-.945 11.865-.42 18.69 2.415 33.81 17.325 36.645 36.855.315.945 1.365 11.55 1.575 12.6 0 .315 2.52.21 2.625.525.735-.105 8.19-1.575 8.925-1.68 3.045-.525 6.195-.84 9.345-.84 26.25 0 48.195 19.11 52.29 43.68 4.095 24.465-9.555 46.725-29.505 53.025 0 12.6-66.99 22.785-79.59 22.785h-391.23c-43.365 0-78.645-35.7-78.645-79.695 0-43.995 35.28-79.695 78.645-79.695 12.18 0 24.045 3.15 35.07 9.03 1.05.42 9.24 5.04 10.29 5.565 0-.945 5.04 1.05 5.25.105.42-2.1 1.68-18.165 2.625-20.055 3.675-23.625 24.255-41.58 48.93-41.58" fill="url(#V)"/><path d="M2522.837 694.962c14.7 0 25.935 6.51 33.18 13.02.525-1.155 11.025 6.405 11.76 5.25.735-1.05 7.14-14.175 7.98-15.12 15.435-27.93 41.475-47.355 72.03-53.235a105.96 105.96 0 0 1 26.46-1.785c42.525 2.415 79.59 30.975 93.975 71.19 2.94 3.78 5.67 7.98 8.085 12.495.735 0 3.885 10.92 4.62 11.13.735.105 11.76-3.255 12.39-3.045 4.41-1.05 8.505-1.47 12.39-1.155 19.74 1.575 35.805 17.22 38.43 37.695.21.63 1.365 12.39 1.47 13.125 0 .21 2.94-.105 2.94.105.42-.105 8.82-1.785 9.24-1.785 3.15-.525 6.51-.945 9.765-.945 27.51 0 50.295 21.105 53.025 47.565 2.73 26.46-14.49 49.665-37.8 53.865 0 8.4-73.08 15.225-81.48 15.225h-380.73c-42.525 0-77.07-35.07-77.07-78.225 0-43.155 34.545-78.225 77.07-78.225 12.18 0 24.15 3.15 35.385 9.345.735.315 9.66 5.355 10.395 5.775 0-.63 5.88 2.1 5.985 1.47.21-1.47 1.365-19.11 1.995-20.37 3.045-24.57 23.625-43.365 48.51-43.365" fill="url(#W)"/><path d="M2523.152 696.432c14.49 0 25.41 6.51 32.13 12.6.315-.63 11.76 8.82 12.18 8.295.42-.525 7.14-14.805 7.56-15.33 14.49-28.56 39.9-48.615 69.825-55.335 8.505-1.89 17.22-2.835 26.145-2.52 42.315 1.155 79.905 28.98 94.92 68.565 2.625 4.62 4.83 9.555 6.615 14.7.42 0 3.465 12.495 3.885 12.6.315.105 12.495-3.99 12.81-3.885 4.62-1.365 8.82-1.995 13.02-1.89 20.895.84 37.905 17.115 40.215 38.535.105.315 1.26 13.335 1.365 13.65 0 .105 3.36-.42 3.36-.315.21 0 9.45-1.89 9.66-1.89 3.255-.63 6.72-1.05 10.185-1.05 28.77 0 52.29 22.995 53.655 51.555 1.365 28.56-19.425 52.5-46.095 54.6 0 4.2-79.17 7.56-83.37 7.56h-370.23c-41.58 0-75.495-34.44-75.495-76.755s33.915-76.86 75.495-76.86c12.285 0 24.255 3.255 35.595 9.66.315.105 10.185 5.67 10.5 5.88 0-.315 6.615 3.15 6.615 2.835.105-.735 1.155-20.055 1.47-20.685 2.205-24.99 22.785-44.52 47.985-44.52" fill="url(#X)"/><path d="M2866.502 895.617h-444.99c-40.74 0-73.92-33.81-73.92-75.285 0-41.58 33.18-75.39 73.92-75.39 12.285 0 24.36 3.36 35.91 10.08l18.06 10.185.84-21c1.05-25.935 21.735-46.2 47.04-46.2 14.385 0 24.885 6.615 31.185 12.285l12.6 11.235 7.14-15.435c17.43-37.485 53.235-60.795 93.45-60.795 48.09 0 90.615 34.86 101.115 82.95l3.045 13.965 13.335-4.62c4.83-1.68 9.24-2.52 13.545-2.52 21.945 0 40.005 17.01 42 39.48l1.26 14.28 13.755-2.73c3.465-.63 7.035-1.05 10.605-1.05 30.03 0 54.39 24.885 54.39 55.44.105 30.24-24.255 55.125-54.285 55.125" fill="url(#Y)"/></svg>