<svg xmlns="http://www.w3.org/2000/svg" xmlns:xlink="http://www.w3.org/1999/xlink" viewBox="3264.2 294.1 841.9 841.90004" width="841.9" height="841.9"><defs><linearGradient id="O" gradientUnits="userSpaceOnUse" y1="715.68" x2="0" y2="470.25" xlink:href="#c" gradientTransform="translate(-370.617 39.13) scale(1.1025)"/><linearGradient id="o" gradientUnits="userSpaceOnUse" y1="524.66" x2="0" y2="327.05"><stop stop-color="#95b9cc"/><stop offset="1" stop-color="#cddee8"/></linearGradient><linearGradient id="n" gradientUnits="userSpaceOnUse" y1="523.52" x2="0" y2="328.19"><stop stop-color="#97bacd"/><stop offset="1" stop-color="#d0e1eb"/></linearGradient><linearGradient id="m" gradientUnits="userSpaceOnUse" y1="522.37" x2="0" y2="329.27"><stop stop-color="#99bbce"/><stop offset="1" stop-color="#d3e4ed"/></linearGradient><linearGradient id="I" gradientUnits="userSpaceOnUse" y1="725.16" x2="0" y2="463.58" xlink:href="#g" gradientTransform="translate(-370.617 39.13) scale(1.1025)"/><linearGradient id="J" gradientUnits="userSpaceOnUse" y1="723.58" x2="0" y2="464.89" xlink:href="#h" gradientTransform="translate(-370.617 39.13) scale(1.1025)"/><linearGradient id="g" gradientUnits="userSpaceOnUse" y1="521.23" x2="0" y2="330.29"><stop stop-color="#9bbccf"/><stop offset="1" stop-color="#d7e6f0"/></linearGradient><linearGradient id="K" gradientUnits="userSpaceOnUse" y1="722" x2="0" y2="466.12" xlink:href="#i" gradientTransform="translate(-370.617 39.13) scale(1.1025)"/><linearGradient id="M" gradientUnits="userSpaceOnUse" y1="718.84" x2="0" y2="468.34" xlink:href="#j" gradientTransform="translate(-370.617 39.13) scale(1.1025)"/><linearGradient id="N" gradientUnits="userSpaceOnUse" y1="717.26" x2="0" y2="469.34" xlink:href="#k" gradientTransform="translate(-370.617 39.13) scale(1.1025)"/><linearGradient id="L" gradientUnits="userSpaceOnUse" y1="720.42" x2="0" y2="467.27" xlink:href="#l" gradientTransform="translate(-370.617 39.13) scale(1.1025)"/><linearGradient id="H" gradientUnits="userSpaceOnUse" y1="726.73" x2="0" y2="462.18" xlink:href="#m" gradientTransform="translate(-370.617 39.13) scale(1.1025)"/><linearGradient id="h" gradientUnits="userSpaceOnUse" y1="520.09" x2="0" y2="331.26"><stop stop-color="#9dbdd0"/><stop offset="1" stop-color="#dae9f2"/></linearGradient><linearGradient id="i" gradientUnits="userSpaceOnUse" y1="518.94" x2="0" y2="332.16"><stop stop-color="#9fbed0"/><stop offset="1" stop-color="#ddecf5"/></linearGradient><linearGradient id="G" gradientUnits="userSpaceOnUse" y1="728.31" x2="0" y2="460.7" xlink:href="#n" gradientTransform="translate(-370.617 39.13) scale(1.1025)"/><linearGradient id="l" gradientUnits="userSpaceOnUse" y1="517.8" x2="0" y2="333"><stop stop-color="#a1bfd1"/><stop offset="1" stop-color="#e0eff7"/></linearGradient><linearGradient id="j" gradientUnits="userSpaceOnUse" y1="516.65" x2="0" y2="333.78"><stop stop-color="#a3c0d2"/><stop offset="1" stop-color="#e4f1fa"/></linearGradient><linearGradient id="F" gradientUnits="userSpaceOnUse" y1="729.89" x2="0" y2="459.15" xlink:href="#o" gradientTransform="translate(-370.617 39.13) scale(1.1025)"/><linearGradient id="k" gradientUnits="userSpaceOnUse" y1="515.51" x2="0" y2="334.5"><stop stop-color="#a5c1d3"/><stop offset="1" stop-color="#e7f4fc"/></linearGradient><linearGradient id="c" gradientUnits="userSpaceOnUse" y1="514.37" x2="0" y2="335.15"><stop stop-color="#a7c2d4"/><stop offset="1" stop-color="#eaf7ff"/></linearGradient><linearGradient id="d" gradientUnits="userSpaceOnUse" y1="369.84" x2="0" y2="350.32"><stop stop-color="#e4e655"/><stop offset="1" stop-color="#f0f2ac"/></linearGradient><linearGradient id="e" gradientUnits="userSpaceOnUse" y1="364.28" x2="0" y2="354.96"><stop stop-color="#dbde33"/><stop offset="1" stop-color="#f0f2ac"/></linearGradient><linearGradient id="b" gradientUnits="userSpaceOnUse" y1="375.39" x2="0" y2="345.68"><stop stop-color="#edef77"/><stop offset="1" stop-color="#f0f2ac"/></linearGradient><linearGradient id="p" gradientUnits="userSpaceOnUse" x1="3663.54" x2="3769.83"><stop offset=".291" stop-color="#fff"/><stop offset="1" stop-color="#def1ff"/></linearGradient><linearGradient id="r" gradientUnits="userSpaceOnUse" x1="3659.25" x2="3746.79" xlink:href="#p" gradientTransform="translate(-370.617 39.13) scale(1.1025)"/><linearGradient id="a" gradientUnits="userSpaceOnUse" y1="380.95" x2="0" y2="341.04"><stop stop-color="#f5f798"/><stop offset="1" stop-color="#f0f2ac"/></linearGradient><linearGradient id="s" gradientUnits="userSpaceOnUse" x1="3529.12" x2="3616.64" xlink:href="#p" gradientTransform="translate(-370.617 39.13) scale(1.1025)"/><linearGradient id="u" gradientUnits="userSpaceOnUse" x1="3554.39" x2="3641.92" xlink:href="#p" gradientTransform="translate(-370.617 39.13) scale(1.1025)"/><linearGradient id="f" gradientUnits="userSpaceOnUse" y1="386.5" x2="0" y2="336.4"><stop stop-color="#feffba"/><stop offset="1" stop-color="#f0f2ac"/></linearGradient><linearGradient id="t" gradientUnits="userSpaceOnUse" x1="3595.6" y1="886.15" x2="3653.96" y2="884.07" xlink:href="#p" gradientTransform="translate(-370.617 39.13) scale(1.1025)"/><linearGradient xlink:href="#p" id="q" gradientUnits="userSpaceOnUse" x1="3663.54" x2="3769.83" gradientTransform="translate(-370.617 39.13) scale(1.1025)"/><linearGradient xlink:href="#o" id="v" gradientUnits="userSpaceOnUse" y1="524.66" x2="0" y2="327.05" gradientTransform="translate(-370.617 39.13) scale(1.1025)"/><linearGradient xlink:href="#n" id="w" gradientUnits="userSpaceOnUse" y1="523.52" x2="0" y2="328.19" gradientTransform="translate(-370.617 39.13) scale(1.1025)"/><linearGradient xlink:href="#m" id="x" gradientUnits="userSpaceOnUse" y1="522.37" x2="0" y2="329.27" gradientTransform="translate(-370.617 39.13) scale(1.1025)"/><linearGradient xlink:href="#g" id="y" gradientUnits="userSpaceOnUse" y1="521.23" x2="0" y2="330.29" gradientTransform="translate(-370.617 39.13) scale(1.1025)"/><linearGradient xlink:href="#h" id="z" gradientUnits="userSpaceOnUse" y1="520.09" x2="0" y2="331.26" gradientTransform="translate(-370.617 39.13) scale(1.1025)"/><linearGradient xlink:href="#i" id="A" gradientUnits="userSpaceOnUse" y1="518.94" x2="0" y2="332.16" gradientTransform="translate(-370.617 39.13) scale(1.1025)"/><linearGradient xlink:href="#l" id="B" gradientUnits="userSpaceOnUse" y1="517.8" x2="0" y2="333" gradientTransform="translate(-370.617 39.13) scale(1.1025)"/><linearGradient xlink:href="#j" id="C" gradientUnits="userSpaceOnUse" y1="516.65" x2="0" y2="333.78" gradientTransform="translate(-370.617 39.13) scale(1.1025)"/><linearGradient xlink:href="#k" id="D" gradientUnits="userSpaceOnUse" y1="515.51" x2="0" y2="334.5" gradientTransform="translate(-370.617 39.13) scale(1.1025)"/><linearGradient xlink:href="#c" id="E" gradientUnits="userSpaceOnUse" y1="514.37" x2="0" y2="335.15" gradientTransform="translate(-370.617 39.13) scale(1.1025)"/></defs><g fill="#9cb1bf"><path d="M3684.047 1043.838c-3.307 0-6.615-.772-9.481-2.315-7.828-4.41-10.033-13.34-4.851-19.845 107.273-126.898 115.321-126.898 117.857-126.898h1.213l1.323.662c3.969 2.205 9.26 5.181-91.949 142.002-3.087 4.079-8.379 6.394-14.112 6.394M3677.102 963.466c-2.757 0-5.403-.662-7.828-1.985-6.505-3.638-8.269-10.914-3.97-16.317 88.421-104.517 94.926-104.517 97.131-104.517h.992l1.103.552c3.197 1.764 7.717 4.19-75.742 116.975-2.646 3.418-7.056 5.292-11.686 5.292M3533.556 971.955c-2.756 0-5.402-.661-7.717-1.984-6.505-3.639-8.27-10.915-3.97-16.317 88.421-104.517 94.926-104.517 97.13-104.517h.993l1.103.55c3.197 1.765 7.717 4.19-75.742 116.976-2.646 3.418-7.056 5.292-11.797 5.292M3609.849 1056.186c-2.536-.33-5.071-1.102-7.497-2.205-6.725-3.197-10.143-8.269-7.497-11.356 55.346-59.314 61.299-58.542 63.284-58.212l.882.11 1.102.552c3.418 1.543 7.938 3.748-40.903 69.127-1.653 1.764-5.071 2.535-9.371 1.984M3561.45 1027.3c-2.757 0-5.403-.66-7.718-1.984-6.505-3.638-8.269-10.915-3.97-16.317 88.421-104.517 94.926-104.517 97.131-104.517h.992l1.103.551c3.197 1.764 7.717 4.19-75.632 116.976-2.866 3.307-7.166 5.292-11.907 5.292"/></g><path d="M3681.401 1038.326c-3.307 0-6.615-.772-9.481-2.316-7.828-4.41-10.033-13.34-4.851-19.845 107.383-127.008 115.432-127.008 117.967-127.008h1.213l1.323.662c3.969 2.205 9.261 5.182-91.948 142.002-3.198 4.08-8.49 6.505-14.223 6.505" fill="#78b5db"/><path d="M3674.235 1033.034c-5.954-3.308-7.607-10.033-3.638-15.105 0 0 108.817-128.551 114.77-125.244 5.954 3.308-93.161 137.372-93.161 137.372-2.536 3.197-6.615 4.85-10.805 4.85-2.425 0-4.961-.55-7.166-1.873" fill="url(#q)"/><path d="M3674.456 957.953c-2.757 0-5.403-.661-7.828-1.984-6.505-3.638-8.269-10.915-3.97-16.317 88.421-104.517 94.926-104.517 97.131-104.517h.992l1.103.551c3.197 1.764 7.717 4.19-75.742 116.975-2.646 3.308-7.056 5.292-11.686 5.292" fill="#78b5db"/><path d="M3668.502 953.654c-4.961-2.757-6.284-8.27-2.977-12.459 0 0 89.633-105.95 94.484-103.194 4.962 2.757-76.734 113.117-76.734 113.117-2.094 2.646-5.402 3.969-8.93 3.969-1.984 0-3.969-.441-5.843-1.433" fill="url(#r)"/><path d="M3530.91 966.332c-2.756 0-5.402-.661-7.718-1.984-6.504-3.638-8.268-10.915-3.969-16.317 88.421-104.517 94.926-104.517 97.13-104.517h.993l1.102.551c3.198 1.764 7.718 4.19-75.741 116.975-2.757 3.418-7.056 5.292-11.797 5.292" fill="#78b5db"/><path d="M3525.067 962.033c-4.961-2.757-6.284-8.27-2.977-12.348 0 0 89.523-105.95 94.484-103.194 4.962 2.756-76.734 113.116-76.734 113.116-2.094 2.646-5.402 3.97-8.93 3.97-1.984 0-4.08-.442-5.843-1.544" fill="url(#s)"/><path d="M3607.203 1050.563c-2.536-.33-5.072-1.102-7.497-2.205-6.725-3.197-10.143-8.268-7.497-11.355 55.346-59.315 61.299-58.543 63.284-58.212l.882.11 1.102.551c3.418 1.544 7.938 3.749-40.903 69.127-1.653 1.764-5.071 2.536-9.371 1.984" fill="#78b5db"/><path d="M3600.809 1047.035c-5.182-2.425-7.718-6.284-5.734-8.71 0 0 56.118-60.086 61.3-57.66 5.071 2.425-42.667 66.37-42.667 66.37-1.213 1.544-3.97 2.095-7.167 1.654a18.782 18.782 0 0 1-5.733-1.654" fill="url(#t)"/><path d="M3558.803 1021.678c-2.756 0-5.402-.662-7.717-1.985-6.505-3.638-8.269-10.914-3.97-16.317 88.421-104.517 94.926-104.517 97.131-104.517h.992l1.103.552c3.197 1.764 7.717 4.19-75.632 116.975-2.866 3.307-7.166 5.292-11.907 5.292" fill="#78b5db"/><path d="M3552.85 1017.378c-4.961-2.756-6.284-8.269-2.977-12.458 0 0 89.523-105.95 94.484-103.194 4.962 2.756-76.734 113.116-76.734 113.116-2.094 2.646-5.402 3.97-8.93 3.97-1.984 0-3.969-.442-5.843-1.434" fill="url(#u)"/><path d="M4025.381 509.126c-4.079 0-7.938.44-11.796 1.212-2.206-25.357-23.263-45.202-49.172-45.202-5.623 0-10.915 1.102-15.876 2.866-10.474-46.966-52.148-82.026-102.312-82.026-41.785 0-77.726 24.696-94.594 60.087-9.482-8.38-21.83-13.671-35.501-13.671-29.106 0-52.59 23.042-53.802 51.707-11.246-6.284-24.035-10.253-37.926-10.253-42.998 0-77.947 34.949-77.947 77.946 0 42.998 34.95 77.947 77.947 77.947h400.98c33.295 0 60.306-27.011 60.306-60.307.11-33.185-26.901-60.306-60.307-60.306" fill="#9cb1bf"/><path d="M4017.994 496.888c-3.969 0-7.938.44-11.796 1.213-2.205-25.358-23.263-45.203-49.172-45.203-5.622 0-10.914 1.103-15.876 2.867-10.474-46.967-52.148-82.026-102.312-82.026-41.785 0-77.616 24.696-94.484 60.196-9.482-8.379-21.83-13.67-35.5-13.67-28.996 0-52.59 23.041-53.803 51.706-11.245-6.284-24.144-10.253-37.926-10.253-42.997 0-77.946 34.84-77.946 77.947 0 43.108 34.949 77.836 77.946 77.836h400.98c33.295 0 60.417-27.01 60.417-60.306-.22-33.186-27.232-60.307-60.528-60.307" fill="url(#v)"/><path d="M3708.964 421.477c13.56 0 25.578 5.402 34.618 13.34 1.985-4.19 5.513-7.166 8.159-11.025 2.646-3.859 6.174-9.04 9.371-12.568 18.302-21.5 45.092-35.17 75.08-35.942 8.6-.22 16.979.662 25.137 2.426 38.257 8.489 68.576 38.367 77.837 76.623 4.63-.992 9.481-1.433 14.663-.882 2.646 0 5.623 1.654 8.048 2.095 2.426.441 6.174.662 8.49 1.433 2.756.662 5.291 1.544 7.827 2.757 11.577 5.402 20.727 15.765 24.366 28.554.771 2.316 1.433 6.174 1.874 8.71.11.882.551 1.544.661 2.426 1.654-.331 4.41-.772 6.064-.993 2.095-.22 4.3-.44 6.395-.44 17.75 0 33.626 8.489 43.328 21.167 9.702 12.68 13.34 28.555 10.363 43.329 0 29.547-30.76 53.581-60.306 53.581h-384.773c-38.257 0-77.947-30.98-77.947-69.237-3.969-19.183.552-39.8 13.01-56.338 12.568-16.647 33.075-27.672 56.227-27.672 10.584 0 20.617 2.315 29.768 6.394 2.536 1.103 6.064 2.867 8.489 4.3.11-2.095.992-3.749 1.323-5.733.882-5.072 2.646-11.907 4.961-16.317 8.159-17.64 26.13-29.988 46.967-29.988" fill="url(#w)"/><path d="M3709.294 422.8c13.451 0 25.138 5.402 33.737 13.01 1.764-3.75 6.284-5.072 8.49-8.38 2.314-3.417 6.283-9.702 9.04-12.678 17.53-22.05 43.659-36.273 73.096-37.816 8.489-.441 16.757.22 24.806 1.764 38.146 7.387 68.796 36.493 78.608 74.308 4.3-.22 8.82 0 13.45 1.103 2.316 0 5.182 2.977 7.387 3.307 2.205.441 6.836 0 8.93.772 2.977.441 5.734 1.103 8.38 2.095 12.568 4.74 22.49 15.766 25.908 29.326.662 2.095 1.434 7.056 1.764 9.151.11.772.882 1.323.993 2.095 1.433-.33 4.96-.882 6.394-1.103 2.205-.33 4.52-.44 6.836-.44 18.852 0 35.39 10.142 43.879 24.695 8.49 14.443 8.93 31.09 3.087 44.1 0 25.91-34.398 46.857-60.307 46.857h-368.565c-33.516 0-77.837-27.122-77.837-60.528-7.938-16.758-7.717-38.477 3.308-57.66 11.025-19.074 32.634-32.524 57.33-32.524 10.584 0 20.727 2.425 30.098 6.725 2.205.992 6.505 3.197 8.6 4.41.11-1.874 1.653-2.866 1.984-4.63.772-4.41 2.425-12.79 4.41-16.648 7.166-18.302 25.137-31.311 46.195-31.311" fill="url(#x)"/><path d="M3709.515 424.013c13.34 0 24.696 5.512 32.855 12.678 1.543-3.197 6.945-2.866 8.93-5.843 1.984-2.866 6.284-10.253 8.6-12.789 16.757-22.49 42.225-37.375 71.22-39.69 8.27-.661 16.538-.22 24.586 1.103 37.926 6.394 69.127 34.728 79.49 71.993a42.112 42.112 0 0 1 12.128 3.197c1.985 0 4.851 4.3 6.725 4.63 1.875.331 7.608-.55 9.261.11 3.087.111 6.064.662 8.82 1.544 13.561 4.08 24.366 15.656 27.563 30.099.551 1.764 1.323 7.827 1.654 9.702.11.661 1.212.992 1.323 1.653 1.212-.22 5.512-1.102 6.725-1.212 2.315-.331 4.74-.552 7.166-.552 19.955 0 37.154 11.797 44.431 28.114 7.276 16.317 4.63 33.626-4.19 44.762 0 22.16-38.036 40.13-60.306 40.13h-352.36c-28.664 0-77.836-23.262-77.836-51.927-12.017-14.333-15.876-37.265-6.505-58.874 9.372-21.609 32.193-37.374 58.433-37.374 10.584 0 20.837 2.535 30.319 7.056 1.874.771 6.945 3.528 8.71 4.52.11-1.544 2.425-1.874 2.645-3.418.662-3.748 2.205-13.56 3.86-16.868 6.504-18.963 24.475-32.744 45.753-32.744" fill="url(#y)"/><path d="M3709.735 425.336c13.23 0 24.255 5.512 31.973 12.458 1.213-2.646 7.607-.772 9.261-3.197 1.654-2.426 6.284-10.805 8.269-12.9 15.986-23.042 40.792-38.477 69.237-41.454 8.158-.882 16.317-.661 24.255.441 37.815 5.292 69.347 32.855 80.372 69.678a49.003 49.003 0 0 1 10.915 5.182c1.653 0 4.52 5.623 6.063 5.954 1.544.33 8.27-1.213 9.702-.662 3.308-.11 6.395.22 9.372.882 14.553 3.418 26.129 15.545 29.106 30.87.44 1.433 1.323 8.6 1.543 10.143.11.551 1.544.772 1.654 1.323 1.103-.22 6.064-1.213 7.166-1.323 2.426-.33 4.961-.661 7.497-.661 21.058 0 39.029 13.56 45.092 31.641 6.064 18.081.221 36.162-11.466 45.423 0 18.522-41.784 33.516-60.196 33.516h-336.152c-23.925 0-77.837-19.293-77.837-43.218-15.986-11.907-24.145-36.051-16.317-60.196 7.828-24.145 31.642-42.226 59.645-42.226 10.695 0 20.948 2.536 30.54 7.387 1.653.661 7.386 3.859 8.82 4.74.11-1.322 3.087-.992 3.307-2.204.551-3.198 1.874-14.443 3.418-17.2 5.292-19.955 23.373-34.397 44.761-34.397" fill="url(#z)"/><path d="M3709.956 426.548c13.23 0 23.704 5.623 31.09 12.128.993-2.095 8.27 1.323 9.592-.551 1.323-1.985 6.285-11.356 7.828-13.12 15.104-23.594 39.47-39.58 67.363-43.328 7.938-1.103 15.986-1.103 24.034-.22 37.706 4.189 69.568 31.09 81.144 67.362 3.308 1.874 6.505 4.19 9.702 7.166 1.323 0 4.19 7.056 5.403 7.277 1.212.22 8.93-1.764 10.143-1.323 3.528-.441 6.725-.331 9.922.33 15.545 2.757 28.004 15.435 30.76 31.642.33 1.213 1.323 9.371 1.433 10.694.11.441 1.874.441 1.985.882.882-.22 6.615-1.323 7.497-1.433a46.273 46.273 0 0 1 7.938-.661c22.16 0 40.792 15.214 45.643 35.06 4.851 19.844-4.08 38.697-18.853 46.084 0 14.773-45.423 26.79-60.196 26.79h-319.946c-19.073 0-77.726-15.435-77.726-34.618-19.955-9.592-32.413-34.84-26.13-61.41 6.285-26.68 31.202-47.186 60.749-47.186 10.694 0 21.057 2.646 30.76 7.607 1.322.551 7.827 4.19 8.93 4.85 0-.991 3.748 0 3.858-.991.441-2.536 1.654-15.325 2.867-17.42 4.52-20.396 22.711-35.61 44.21-35.61" fill="url(#A)"/><path d="M3710.287 427.871c13.12 0 23.263 5.733 30.208 11.797.772-1.543 9.04 3.528 10.033 1.985.992-1.434 6.284-11.907 7.497-13.23 14.332-24.145 38.036-40.683 65.378-45.203 7.828-1.323 15.766-1.654 23.704-.882 37.595 3.197 69.898 29.216 82.026 65.048 2.977 2.646 5.733 5.622 8.379 9.15.992 0 3.859 8.38 4.74 8.49.883.22 9.592-2.316 10.474-2.095 3.749-.662 7.167-.772 10.364-.33 16.537 2.094 29.878 15.324 32.303 32.523.331.882 1.213 10.253 1.323 11.135 0 .33 2.205.22 2.315.551.662-.11 7.167-1.433 7.828-1.543 2.646-.441 5.402-.772 8.269-.772 23.263 0 42.556 16.979 46.195 38.588 3.638 21.609-8.49 41.233-26.13 46.856 0 11.135-49.06 20.065-60.196 20.065h-303.739c-14.332 0-77.726-11.576-77.726-25.908-23.924-7.167-40.572-33.516-35.831-62.733 4.74-29.216 30.76-52.038 61.85-52.038 10.694 0 21.168 2.757 30.98 7.938.993.441 8.159 4.52 9.151 4.962 0-.772 4.41.882 4.52.11.331-1.874 1.434-16.097 2.316-17.75 3.748-20.948 21.94-36.714 43.769-36.714" fill="url(#B)"/><path d="M3710.507 429.084c13.01 0 22.822 5.733 29.327 11.466.551-1.102 9.702 5.623 10.363 4.63.662-.992 6.285-12.458 7.056-13.34 13.561-24.696 36.603-41.784 63.504-47.076a87.807 87.807 0 0 1 23.484-1.544c37.485 2.095 70.119 27.342 82.908 62.732 2.646 3.418 4.96 7.056 7.166 11.136.661 0 3.528 9.702 4.079 9.812.662.11 10.364-2.977 10.915-2.756 3.859-.882 7.497-1.213 10.915-.993 17.419 1.434 31.641 15.215 33.956 33.296.221.551 1.213 11.025 1.213 11.576 0 .22 2.646-.11 2.646.11.441-.11 7.718-1.543 8.159-1.543 2.756-.441 5.623-.772 8.6-.772 24.254 0 44.43 18.632 46.855 42.005 2.426 23.373-12.788 43.88-33.405 47.518 0 7.387-52.7 13.34-60.197 13.34H3680.52c-9.591 0-77.726-7.717-77.726-17.309-28.003-4.74-48.84-32.303-45.644-64.055 3.088-31.642 30.209-56.89 62.953-56.89 10.805 0 21.279 2.867 31.201 8.27.661.22 8.6 4.74 9.261 5.181 0-.55 5.072 1.875 5.182 1.323.22-1.212 1.212-16.978 1.764-18.08 2.756-21.5 21.057-38.037 42.997-38.037" fill="url(#C)"/><path d="M3710.728 430.407c12.899 0 22.38 5.843 28.444 11.135.22-.55 10.364 7.718 10.695 7.277.33-.441 6.284-13.01 6.725-13.45 12.789-25.248 35.17-42.888 61.63-48.952 7.496-1.764 15.324-2.535 23.152-2.315 37.375 1.103 70.45 25.578 83.68 60.417 2.315 4.08 4.3 8.49 5.843 13.12.33 0 3.087 11.025 3.418 11.135.33.11 11.025-3.528 11.356-3.418 4.079-1.212 7.827-1.764 11.466-1.543 18.411.661 33.515 15.104 35.5 34.067.11.33 1.103 11.797 1.213 12.128 0 .11 2.977-.331 2.977-.22.22 0 8.268-1.655 8.489-1.655 2.866-.55 5.953-.882 8.93-.882 25.358 0 46.195 20.286 47.407 45.534 1.213 25.137-17.198 46.415-40.682 48.179 0 3.748-56.448 6.725-60.086 6.725H3689.67c-4.74 0-77.726-3.859-77.726-8.6-31.973-2.425-57-31.09-55.456-65.267 1.543-34.178 29.767-61.74 64.165-61.74 10.805 0 21.389 2.866 31.422 8.6.33.11 9.04 5.07 9.371 5.291 0-.22 5.733 2.756 5.843 2.536.11-.662.992-17.75 1.323-18.302 1.764-22.6 19.955-39.8 42.116-39.8" fill="url(#D)"/><path d="M4013.915 606.256h-392.82c-35.942 0-65.268-29.878-65.268-66.591 0-36.713 29.326-66.591 65.267-66.591 10.805 0 21.5 2.977 31.642 8.82l15.876 9.15.772-18.632c.882-22.821 19.183-40.792 41.564-40.792 12.79 0 21.94 5.843 27.453 10.915l11.135 9.922 6.394-13.56c15.325-33.076 46.967-53.692 82.578-53.692 42.446 0 79.93 30.76 89.192 73.206l2.756 12.458 11.687-4.19c4.3-1.433 8.158-2.205 11.906-2.205 19.405 0 35.28 14.994 37.155 34.84l1.102 12.568 12.128-2.426c3.087-.55 6.174-.992 9.371-.992 26.46 0 48.069 22.05 48.069 48.951 0 26.79-21.499 48.84-47.959 48.84" fill="url(#E)"/><path d="M3952.837 693.574c-5.513 0-10.915.551-16.097 1.654-3.087-34.73-31.972-61.85-67.362-61.85-7.718 0-14.884 1.543-21.72 3.858-14.332-64.276-71.552-112.345-140.127-112.345-57.33 0-106.392 33.847-129.544 82.357-13.01-11.466-29.988-18.742-48.73-18.742-39.801 0-71.994 31.531-73.758 70.89-15.435-8.6-33.075-14.001-52.038-14.001-58.874 0-106.722 47.738-106.722 106.832 0 58.984 47.848 106.722 106.722 106.722h549.265c45.644 0 82.688-37.044 82.688-82.577 0-45.754-36.934-82.798-82.577-82.798" fill="#9cb1bf"/><path d="M3940.71 678.47c-5.513 0-10.916.55-16.097 1.653-3.087-34.618-31.973-61.85-67.363-61.85-7.607 0-14.884 1.544-21.72 3.859-14.332-64.276-71.552-112.345-140.127-112.345-57.33 0-106.391 33.847-129.544 82.357-13.01-11.466-29.988-18.632-48.73-18.632-39.8 0-71.994 31.531-73.758 70.89-15.435-8.71-32.964-14.112-52.038-14.112-58.983 0-106.722 47.849-106.722 106.722 0 58.984 47.739 106.722 106.722 106.722H3940.6c45.643 0 82.687-37.044 82.687-82.687.11-45.533-36.933-82.577-82.577-82.577" fill="url(#F)"/><path d="M3517.46 575.165c18.632 0 35.059 7.277 47.517 18.302 2.757-5.843 7.608-9.812 11.136-15.104 3.638-5.292 8.489-12.459 12.789-17.2 25.137-29.326 61.74-48.179 102.863-49.17 11.356-.332 22.49.77 33.185 3.086 52.92 11.246 94.925 52.48 107.714 105.289 6.395-1.323 13.01-1.985 19.956-1.213 3.638 0 7.607 2.205 11.025 2.867 3.417.55 8.489.882 11.686 1.984 3.748.882 7.387 2.205 10.805 3.749 15.986 7.386 28.334 21.719 33.405 39.138 1.103 3.198 1.985 8.49 2.536 11.907.22 1.103.992 2.095 1.103 3.308 2.094-.441 5.512-.992 7.717-1.213 3.087-.33 6.174-.551 9.261-.551 24.255 0 45.974 11.576 59.204 28.996 13.34 17.42 18.302 39.138 14.223 59.424 0 40.572-44.321 73.427-84.893 73.427h-536.587c-57.881 0-104.847-46.967-104.847-105.068 0-57.992 46.966-105.069 104.847-105.069 14.553 0 28.224 3.198 40.903 8.82 3.528 1.434 8.269 3.97 11.576 5.844.11-2.867 1.434-5.182 1.875-7.938 1.212-6.946 3.638-16.317 6.725-22.27 11.135-24.366 35.72-41.345 64.276-41.345" fill="url(#G)"/><path d="M3517.79 576.93c18.412 0 34.398 7.386 46.195 17.86 2.425-5.072 8.6-6.946 11.687-11.576 3.086-4.63 8.489-13.23 12.347-17.42 24.035-30.098 59.756-49.612 100.218-51.707 11.135-.551 22.27.22 32.964 2.205 52.7 9.922 95.256 49.943 108.707 102.091 5.953-.33 12.017 0 18.301 1.544 3.198 0 7.167 4.08 10.143 4.63 2.977.552 9.372.11 12.238 1.103 4.08.551 7.828 1.543 11.466 2.866 17.2 6.505 30.87 21.61 35.5 40.242.883 2.866 1.985 9.591 2.426 12.568.11.992 1.544 1.764 1.654 2.756 1.874-.33 6.174-1.102 8.048-1.323a70.525 70.525 0 0 1 9.702-.661c25.799 0 48.4 13.891 60.086 33.736 11.687 19.845 12.348 42.557 4.19 60.307 0 35.5-51.707 64.276-87.208 64.276h-523.908c-56.779 0-102.863-46.195-102.863-103.304 0-57 46.084-103.305 102.863-103.305 14.553 0 28.445 3.308 41.234 9.261 3.087 1.323 8.93 4.41 11.796 6.064.11-2.536 2.316-3.859 2.757-6.394 1.102-6.064 3.307-17.42 6.063-22.712 9.923-25.247 34.509-43.108 63.394-43.108" fill="url(#H)"/><path d="M3518.121 578.693c18.302 0 33.736 7.497 44.982 17.42 2.095-4.3 9.482-3.97 12.238-7.938 2.646-3.97 8.6-14.002 11.797-17.53 22.931-30.87 57.88-51.156 97.57-54.243 11.026-.882 21.94-.44 32.745 1.323 52.479 8.49 95.477 47.518 109.809 98.894 5.402.662 11.025 1.875 16.538 4.19 2.756 0 6.614 5.843 9.26 6.394 2.536.441 10.364-.771 12.79.11 4.3.11 8.268.883 12.237 2.095 18.633 5.623 33.406 21.389 37.706 41.344.772 2.426 1.874 10.694 2.205 13.23.11.882 2.205 1.323 2.315 2.205 1.544-.33 6.835-1.323 8.379-1.433 3.308-.441 6.725-.772 10.143-.772 27.342 0 50.935 16.207 60.858 38.477 9.922 22.27 6.284 46.085-5.733 61.3 0 30.428-58.984 55.124-89.413 55.124h-511.229c-55.676 0-100.989-45.423-100.989-101.54 0-56.007 45.203-101.54 100.989-101.54 14.553 0 28.555 3.418 41.564 9.702 2.646 1.102 9.482 4.85 11.907 6.174.11-2.205 3.308-2.646 3.639-4.74.882-5.183 2.976-18.523 5.292-23.043 8.599-26.35 33.295-45.203 62.401-45.203" fill="url(#I)"/><path d="M3518.452 580.457c18.191 0 33.185 7.608 43.769 16.979 1.764-3.638 10.474-1.103 12.679-4.41 2.205-3.308 8.6-14.774 11.245-17.75 21.83-31.642 56.007-52.7 94.926-56.78 10.804-1.212 21.719-.991 32.413.442 52.259 7.056 95.697 44.982 110.801 95.697 4.962 1.654 9.923 3.748 14.884 6.946 2.315 0 6.174 7.717 8.269 8.158 2.095.33 11.356-1.543 13.34-.882 4.52-.22 8.82.22 12.9 1.213 19.955 4.74 35.83 21.278 39.91 42.336.661 1.984 1.764 11.797 2.095 13.891.11.662 2.866.882 2.866 1.654 1.323-.22 7.387-1.433 8.82-1.543 3.418-.552 7.056-.882 10.584-.882 28.775 0 53.361 18.522 61.63 43.218 8.269 24.696.33 49.612-15.766 62.29 0 25.358-66.37 45.865-91.728 45.865h-498.55c-54.684 0-99.005-44.651-99.005-99.776 0-55.125 44.43-99.777 99.005-99.777 14.663 0 28.665 3.528 41.784 10.033 2.205.882 10.033 5.182 12.128 6.395.11-1.764 4.19-1.323 4.52-3.087.772-4.3 2.646-19.735 4.63-23.484 7.828-27.01 32.524-46.746 61.85-46.746" fill="url(#J)"/><path d="M3518.782 582.111c17.971 0 32.524 7.607 42.557 16.538 1.323-2.867 11.466 1.874 13.23-.772 1.764-2.646 8.6-15.545 10.805-17.97 20.727-32.304 54.022-54.244 92.389-59.315 10.694-1.434 21.499-1.654 32.193-.441 52.038 5.622 96.028 42.556 111.904 92.5 4.52 2.645 8.93 5.732 13.12 9.591 1.764 0 5.622 9.592 7.386 9.923 1.654.33 12.238-2.316 13.892-1.764 4.85-.552 9.26-.441 13.56.33 21.279 3.86 38.368 21.168 42.116 43.439.551 1.654 1.764 12.789 1.985 14.553.11.551 3.528.44 3.528 1.102 1.102-.22 8.048-1.543 9.15-1.653 3.639-.552 7.277-.993 11.025-.993 30.319 0 55.787 20.838 62.512 48.07 6.615 27.12-5.623 53.03-25.798 63.173 0 20.286-73.647 36.713-93.933 36.713H3394.53c-53.582 0-97.13-43.88-97.13-98.012 0-54.133 43.548-98.123 97.13-98.123 14.663 0 28.885 3.638 42.115 10.474 1.764.772 10.584 5.623 12.238 6.615.11-1.433 5.182-.11 5.402-1.433.552-3.418 2.316-20.838 3.859-23.814 6.284-27.894 31.09-48.73 60.638-48.73" fill="url(#K)"/><path d="M3519.224 583.875c17.86 0 31.972 7.718 41.343 16.097.993-2.205 12.348 4.74 13.671 2.756 1.323-1.985 8.6-16.317 10.254-18.081 19.734-33.075 52.148-55.676 89.743-61.85 10.474-1.764 21.278-2.205 31.973-1.323 51.817 4.19 96.248 40.02 112.895 89.412 4.08 3.528 7.828 7.608 11.467 12.348 1.322 0 5.181 11.466 6.504 11.687 1.323.22 13.23-3.197 14.443-2.756 5.072-.993 9.812-1.103 14.333-.552 22.6 2.867 40.902 20.948 44.21 44.541.44 1.213 1.654 13.892 1.874 15.215.11.44 4.08.11 4.19.44.771-.11 8.71-1.653 9.591-1.763a66.165 66.165 0 0 1 11.466-.992c31.752 0 58.323 23.152 63.284 52.81 4.961 29.657-11.576 56.558-35.721 64.165 0 15.214-81.034 27.562-96.248 27.562h-473.193c-52.48 0-95.146-43.107-95.146-96.358 0-53.14 42.667-96.359 95.146-96.359 14.773 0 28.995 3.749 42.446 10.915 1.323.551 11.135 6.064 12.348 6.725 0-1.102 6.064 1.213 6.284.11.441-2.645 1.985-21.94 3.197-24.254 4.851-28.776 29.768-50.495 59.646-50.495" fill="url(#L)"/><path d="M3519.554 585.64c17.75 0 31.311 7.827 40.131 15.655.662-1.434 13.34 7.717 14.222 6.394.882-1.323 8.6-17.089 9.702-18.301 18.633-33.847 50.164-57.22 87.098-64.386 10.364-2.095 20.948-2.757 31.752-2.205 51.487 2.866 96.469 37.485 113.888 86.215a102.936 102.936 0 0 1 9.702 14.994c.882 0 4.741 13.23 5.623 13.45.882.11 14.222-3.968 14.994-3.638 5.402-1.323 10.253-1.764 14.994-1.433 23.924 1.985 43.328 20.837 46.415 45.533.22.772 1.654 14.994 1.764 15.876 0 .331 4.741-.33 4.741-.11.551-.11 9.371-1.874 9.923-1.874 3.858-.662 7.938-1.103 11.907-1.103 33.295 0 60.747 25.468 64.055 57.55 3.307 32.084-17.53 59.977-45.754 65.048 0 10.143-88.31 18.412-98.453 18.412h-460.404c-51.377 0-93.272-42.336-93.272-94.594 0-52.149 41.785-94.595 93.272-94.595 14.773 0 29.216 3.859 42.777 11.356.882.33 11.797 6.505 12.568 6.946 0-.772 7.056 2.535 7.167 1.764.33-1.764 1.653-23.153 2.425-24.586 3.749-29.768 28.665-52.369 58.763-52.369" fill="url(#M)"/><path d="M3519.885 587.403c17.64 0 30.76 7.938 38.918 15.325.331-.772 14.223 10.584 14.664 9.922.44-.661 8.599-17.86 9.15-18.522 17.53-34.618 48.29-58.763 84.452-66.921 10.143-2.316 20.727-3.418 31.421-3.087 51.266 1.433 96.8 35.06 114.99 83.018 3.088 5.512 5.734 11.466 8.049 17.75.441 0 4.19 15.104 4.63 15.215.442.11 15.105-4.741 15.546-4.63 5.623-1.655 10.694-2.426 15.655-2.206 25.248.992 45.864 20.727 48.62 46.636.11.44 1.544 16.096 1.654 16.537 0 .11 5.403-.771 5.403-.661.22 0 10.032-1.985 10.363-1.985 3.969-.771 8.159-1.212 12.348-1.212 34.839 0 63.283 27.783 64.937 62.29 1.654 34.51-23.483 63.505-55.676 66.04 0 5.072-95.697 9.151-100.769 9.151h-447.725c-50.274 0-91.287-41.564-91.287-92.83s41.013-92.94 91.287-92.94c14.774 0 29.327 3.968 43.108 11.686.441.22 12.348 6.835 12.679 7.056 0-.331 8.048 3.748 8.048 3.417.11-.882 1.323-24.255 1.764-25.026 2.426-30.43 27.342-54.023 57.771-54.023" fill="url(#N)"/><path d="M3935.197 828.19h-538.02c-49.282 0-89.413-40.793-89.413-91.067 0-50.274 40.131-91.177 89.413-91.177 14.884 0 29.437 4.08 43.438 12.127l21.83 12.348.992-25.357c1.213-31.311 26.24-55.897 56.889-55.897 17.42 0 30.098 8.048 37.706 14.884l15.214 13.56 8.71-18.632c21.168-45.312 64.386-73.536 113.006-73.536 58.102 0 109.589 42.225 122.267 100.217l3.749 16.978 16.096-5.622c5.844-2.095 11.246-3.087 16.428-3.087 26.57 0 48.4 20.616 50.825 47.738l1.433 17.199 16.648-3.308c4.19-.771 8.489-1.323 12.789-1.323 36.272 0 65.709 30.099 65.709 67.032 0 36.824-29.437 66.922-65.71 66.922" fill="url(#O)"/></svg>