<svg xmlns="http://www.w3.org/2000/svg" xmlns:xlink="http://www.w3.org/1999/xlink" viewBox="2239.7 1821.7 841.9 841.90004" width="841.9" height="841.9"><defs><linearGradient id="z" gradientUnits="userSpaceOnUse" y1="2335.66" x2="0" y2="1905.51" gradientTransform="translate(-29.2 29.698)"><stop stop-color="#cdd929"/><stop offset="1" stop-color="#feff9c"/></linearGradient><linearGradient id="h" gradientUnits="userSpaceOnUse" y1="2195.08" x2="0" y2="2029.29"><stop stop-color="#9bbccf"/><stop offset="1" stop-color="#d7e6f0"/></linearGradient><linearGradient id="i" gradientUnits="userSpaceOnUse" y1="2197.07" x2="0" y2="2027.46"><stop stop-color="#97bacd"/><stop offset="1" stop-color="#d0e1eb"/></linearGradient><linearGradient id="j" gradientUnits="userSpaceOnUse" y1="2196.07" x2="0" y2="2028.4"><stop stop-color="#99bbce"/><stop offset="1" stop-color="#d3e4ed"/></linearGradient><linearGradient id="k" gradientUnits="userSpaceOnUse" y1="2194.09" x2="0" y2="2030.13"><stop stop-color="#9dbdd0"/><stop offset="1" stop-color="#dae9f2"/></linearGradient><linearGradient id="l" gradientUnits="userSpaceOnUse" y1="2193.09" x2="0" y2="2030.92"><stop stop-color="#9fbed0"/><stop offset="1" stop-color="#ddecf5"/></linearGradient><linearGradient id="m" gradientUnits="userSpaceOnUse" y1="2190.11" x2="0" y2="2032.94"><stop stop-color="#a5c1d3"/><stop offset="1" stop-color="#e7f4fc"/></linearGradient><linearGradient id="n" gradientUnits="userSpaceOnUse" y1="2192.1" x2="0" y2="2031.65"><stop stop-color="#a1bfd1"/><stop offset="1" stop-color="#e0eff7"/></linearGradient><linearGradient id="o" gradientUnits="userSpaceOnUse" y1="2191.11" x2="0" y2="2032.32"><stop stop-color="#a3c0d2"/><stop offset="1" stop-color="#e4f1fa"/></linearGradient><linearGradient id="f" gradientUnits="userSpaceOnUse" y1="2198.06" x2="0" y2="2026.48"><stop stop-color="#95b9cc"/><stop offset="1" stop-color="#cddee8"/></linearGradient><linearGradient id="g" gradientUnits="userSpaceOnUse" y1="2189.12" x2="0" y2="2033.51"><stop stop-color="#a7c2d4"/><stop offset="1" stop-color="#eaf7ff"/></linearGradient><linearGradient id="T" gradientUnits="userSpaceOnUse" y1="2376.26" x2="0" y2="2141.18" xlink:href="#f" gradientTransform="translate(-29.2 29.698)"/><linearGradient id="t" gradientUnits="userSpaceOnUse" x1="2605.08" y1="2355.3" x2="2658.33" y2="1912.19" gradientTransform="translate(-29.2 29.698)"><stop stop-color="#a0ab0e"/><stop offset="1" stop-color="#e7e956"/></linearGradient><linearGradient id="r" gradientUnits="userSpaceOnUse" x1="2583.72" y1="2360.39" x2="2655.97" y2="1911.32" gradientTransform="translate(-29.2 29.698)"><stop stop-color="#919c05"/><stop offset="1" stop-color="#dfe23f"/></linearGradient><linearGradient id="s" gradientUnits="userSpaceOnUse" x1="2594.52" y1="2358.15" x2="2657.19" y2="1912.24" gradientTransform="translate(-29.2 29.698)"><stop stop-color="#99a309"/><stop offset="1" stop-color="#e3e54a"/></linearGradient><linearGradient id="u" gradientUnits="userSpaceOnUse" x1="2615.74" y1="2352.63" x2="2659.81" y2="1911.95" gradientTransform="translate(-29.2 29.698)"><stop stop-color="#a8b312"/><stop offset="1" stop-color="#ebed62"/></linearGradient><linearGradient id="v" gradientUnits="userSpaceOnUse" x1="2626.34" y1="2349.64" x2="2661.36" y2="1911.18" gradientTransform="translate(-29.2 29.698)"><stop stop-color="#afba17"/><stop offset="1" stop-color="#eef06d"/></linearGradient><linearGradient id="y" gradientUnits="userSpaceOnUse" x1="2643.72" y1="2339.12" x2="2652.3" y2="1906.89" gradientTransform="translate(-29.2 29.698)"><stop stop-color="#c6d124"/><stop offset="1" stop-color="#fafb90"/></linearGradient><linearGradient id="w" gradientUnits="userSpaceOnUse" x1="2634.42" y1="2346.31" x2="2660.51" y2="1909.95" gradientTransform="translate(-29.2 29.698)"><stop stop-color="#b7c21b"/><stop offset="1" stop-color="#f2f479"/></linearGradient><linearGradient id="x" gradientUnits="userSpaceOnUse" x1="2638.98" y1="2342.64" x2="2656.26" y2="1908.39" gradientTransform="translate(-29.2 29.698)"><stop stop-color="#beca20"/><stop offset="1" stop-color="#f6f885"/></linearGradient><linearGradient id="q" gradientUnits="userSpaceOnUse" x1="2572.87" y1="2362.39" x2="2654.95" y2="1909.64" gradientTransform="translate(-29.2 29.698)"><stop stop-color="#8a9400"/><stop offset="1" stop-color="#dbde33"/></linearGradient><linearGradient id="ac" gradientUnits="userSpaceOnUse" y1="2363.92" x2="0" y2="2150.82" xlink:href="#g" gradientTransform="translate(-29.2 29.698)"/><linearGradient id="W" gradientUnits="userSpaceOnUse" y1="2372.14" x2="0" y2="2145.03" xlink:href="#h" gradientTransform="translate(-29.2 29.698)"/><linearGradient id="U" gradientUnits="userSpaceOnUse" y1="2374.88" x2="0" y2="2142.53" xlink:href="#i" gradientTransform="translate(-29.2 29.698)"/><linearGradient id="V" gradientUnits="userSpaceOnUse" y1="2373.51" x2="0" y2="2143.82" xlink:href="#j" gradientTransform="translate(-29.2 29.698)"/><linearGradient id="X" gradientUnits="userSpaceOnUse" y1="2370.77" x2="0" y2="2146.18" xlink:href="#k" gradientTransform="translate(-29.2 29.698)"/><linearGradient id="Y" gradientUnits="userSpaceOnUse" y1="2369.4" x2="0" y2="2147.26" xlink:href="#l" gradientTransform="translate(-29.2 29.698)"/><linearGradient id="ab" gradientUnits="userSpaceOnUse" y1="2365.29" x2="0" y2="2150.04" xlink:href="#m" gradientTransform="translate(-29.2 29.698)"/><linearGradient id="Z" gradientUnits="userSpaceOnUse" y1="2368.03" x2="0" y2="2148.26" xlink:href="#n" gradientTransform="translate(-29.2 29.698)"/><linearGradient id="aa" gradientUnits="userSpaceOnUse" y1="2366.66" x2="0" y2="2149.19" xlink:href="#o" gradientTransform="translate(-29.2 29.698)"/><linearGradient id="b" gradientUnits="userSpaceOnUse" y1="1896.11" x2="0" y2="1876.59"><stop stop-color="#e4e655"/><stop offset="1" stop-color="#f0f2ac"/></linearGradient><linearGradient id="c" gradientUnits="userSpaceOnUse" y1="1907.22" x2="0" y2="1867.31"><stop stop-color="#f5f798"/><stop offset="1" stop-color="#f0f2ac"/></linearGradient><linearGradient id="d" gradientUnits="userSpaceOnUse" y1="1901.67" x2="0" y2="1871.95"><stop stop-color="#edef77"/><stop offset="1" stop-color="#f0f2ac"/></linearGradient><linearGradient id="a" gradientUnits="userSpaceOnUse" y1="1890.56" x2="0" y2="1881.24"><stop stop-color="#dbde33"/><stop offset="1" stop-color="#f0f2ac"/></linearGradient><linearGradient id="e" gradientUnits="userSpaceOnUse" y1="1912.78" x2="0" y2="1862.67"><stop stop-color="#feffba"/><stop offset="1" stop-color="#f0f2ac"/></linearGradient><linearGradient id="I" gradientUnits="userSpaceOnUse" x1="2465.14" x2="2552.68" xlink:href="#p" gradientTransform="translate(-29.2 29.698)"/><linearGradient id="C" gradientUnits="userSpaceOnUse" x1="2439.87" x2="2527.4" xlink:href="#p" gradientTransform="translate(-29.2 29.698)"/><linearGradient id="p" gradientUnits="userSpaceOnUse" x1="2574.3" x2="2680.59"><stop offset=".291" stop-color="#fff"/><stop offset="1" stop-color="#def1ff"/></linearGradient><linearGradient id="B" gradientUnits="userSpaceOnUse" x1="2570.01" x2="2657.54" xlink:href="#p" gradientTransform="translate(-29.2 29.698)"/><linearGradient id="D" gradientUnits="userSpaceOnUse" x1="2793.36" x2="2880.89" xlink:href="#p" gradientTransform="translate(-29.2 29.698)"/><linearGradient id="E" gradientUnits="userSpaceOnUse" x1="2704.26" x2="2810.55" xlink:href="#p" gradientTransform="translate(-29.2 29.698)"/><linearGradient id="H" gradientUnits="userSpaceOnUse" x1="2636.32" y1="2521.83" x2="2694.68" y2="2519.74" xlink:href="#p" gradientTransform="translate(-29.2 29.698)"/><linearGradient id="F" gradientUnits="userSpaceOnUse" x1="2699.97" x2="2787.5" xlink:href="#p" gradientTransform="translate(-29.2 29.698)"/><linearGradient id="G" gradientUnits="userSpaceOnUse" x1="2474.53" x2="2562.07" xlink:href="#p" gradientTransform="translate(-29.2 29.698)"/><linearGradient xlink:href="#p" id="A" gradientUnits="userSpaceOnUse" x1="2574.3" x2="2680.59" gradientTransform="translate(-29.2 29.698)"/><linearGradient xlink:href="#f" id="J" gradientUnits="userSpaceOnUse" y1="2198.06" x2="0" y2="2026.48" gradientTransform="translate(-29.2 29.698)"/><linearGradient xlink:href="#i" id="K" gradientUnits="userSpaceOnUse" y1="2197.07" x2="0" y2="2027.46" gradientTransform="translate(-29.2 29.698)"/><linearGradient xlink:href="#j" id="L" gradientUnits="userSpaceOnUse" y1="2196.07" x2="0" y2="2028.4" gradientTransform="translate(-29.2 29.698)"/><linearGradient xlink:href="#h" id="M" gradientUnits="userSpaceOnUse" y1="2195.08" x2="0" y2="2029.29" gradientTransform="translate(-29.2 29.698)"/><linearGradient xlink:href="#k" id="N" gradientUnits="userSpaceOnUse" y1="2194.09" x2="0" y2="2030.13" gradientTransform="translate(-29.2 29.698)"/><linearGradient xlink:href="#l" id="O" gradientUnits="userSpaceOnUse" y1="2193.09" x2="0" y2="2030.92" gradientTransform="translate(-29.2 29.698)"/><linearGradient xlink:href="#n" id="P" gradientUnits="userSpaceOnUse" y1="2192.1" x2="0" y2="2031.65" gradientTransform="translate(-29.2 29.698)"/><linearGradient xlink:href="#o" id="Q" gradientUnits="userSpaceOnUse" y1="2191.11" x2="0" y2="2032.32" gradientTransform="translate(-29.2 29.698)"/><linearGradient xlink:href="#m" id="R" gradientUnits="userSpaceOnUse" y1="2190.11" x2="0" y2="2032.94" gradientTransform="translate(-29.2 29.698)"/><linearGradient xlink:href="#g" id="S" gradientUnits="userSpaceOnUse" y1="2189.12" x2="0" y2="2033.51" gradientTransform="translate(-29.2 29.698)"/></defs><path d="M2563.8 1873.298c-37.8-6.8-74.9-5.3-109.9 2.9 58 14 105.3 53.7 134.7 107.2 29.6 53.5 41.5 121 28.8 190.6-10.3 56.9-35.4 106.6-69.4 144.5-34.1 37.9-77.1 64.1-123.8 74.1 14 5 28.3 9.3 43.2 12.1 36.6 6.6 73 5.5 107.2-2.1 34.2-7.7 66.4-22 94.7-41.6 56.7-39.4 98.5-100.3 111.9-173.7 13.3-73.3-4.3-145.1-43.7-201.9-39.5-56.8-100.4-98.8-173.7-112.1" fill="#9cb1bf"/><path d="M2556.8 1865.298c-37.8-6.8-74.9-5.3-109.9 2.9 58 14 105.3 53.7 134.7 107.2 29.6 53.5 41.5 121 28.8 190.6-10.3 56.9-35.4 106.6-69.4 144.5-34.1 37.9-77.1 64.1-123.8 74.1 14 5 28.3 9.3 43.2 12.1 36.6 6.6 73 5.5 107.2-2.1 34.2-7.7 66.4-22 94.7-41.6 56.7-39.4 98.5-100.3 111.9-173.7 13.3-73.3-4.3-145.1-43.7-201.9-39.5-56.8-100.4-98.8-173.7-112.1" fill="url(#q)"/><path d="M2454.5 1869.298c10-2 20.1-3.4 30.4-4.2 27-2.1 54.5-.2 81.9 6.2 68.2 13.9 124.9 53.7 162 107.1 39.1 56.3 56.6 127.6 43.4 200.4-13.1 72-53.7 131.9-109.1 171-27.6 19.5-59 33.8-92.4 41.8-33.3 7.8-68.7 9.4-104.5 3.6l-5.1-.9c-12.8-2.4-25.1-6-37.2-10 45.6-11 87.5-37.5 120.7-75.2 33.2-37.8 57.6-86.8 67.7-142.7 12.5-68.6 1.2-135.1-27.3-188.3-28.4-53.3-74.1-93.3-130.5-108.8" fill="url(#r)"/><path d="M2462.1 1870.498c10.4-1.7 20.8-2.8 31.3-3.2 27.9-1.1 55.9 2.2 83.3 10.1 63.1 14.4 115.7 52.1 150.4 102.2 38.8 55.9 56.2 126.7 43.1 198.9-12.8 70.5-52.3 129.4-106.3 168.2-26.9 19.4-57.5 33.7-90.2 41.9-32.4 8-66.8 10.1-101.8 5.1-1.7-.2-3.3-.5-5-.8-12.4-2.1-24.6-5.3-36.5-9 44.5-12 85.3-38.8 117.6-76.2 32.4-37.7 56.1-86 66-141 12.3-67.5 1.6-133.1-25.8-186-27.2-52.9-71.4-93.3-126.1-110.2" fill="url(#s)"/><path d="M2469.7 1871.598c10.7-1.4 21.5-2.1 32.3-2.2 28.8 0 57.3 4.7 84.6 13.9 58 14.9 106.4 50.5 138.8 97.2 38.5 55.6 55.8 125.8 42.8 197.5-12.5 69-50.9 126.9-103.4 165.4-26.2 19.2-56 33.6-87.9 42.1-31.5 8.2-65 10.9-99.1 6.6-1.6-.2-3.3-.4-4.9-.7-12.1-1.8-24-4.6-35.7-8 43.5-13 83.2-40.1 114.5-77.3 31.5-37.5 54.6-85.3 64.3-139.2 12.1-66.5 2-131.1-24.3-183.7-26.2-52.5-68.9-93.1-122-111.6" fill="url(#t)"/><path d="M2477.4 1872.698c11.1-1.1 22.2-1.5 33.3-1.2 29.7 1 58.7 7.1 86 17.8 52.9 15.4 97.1 48.9 127.2 92.3 38.2 55.2 55.4 124.9 42.5 196-12.3 67.5-49.5 124.4-100.6 162.6-25.5 19.1-54.6 33.6-85.7 42.3-30.5 8.4-63.1 11.6-96.4 8.1l-4.8-.6c-11.8-1.5-23.5-4-35-7 42.4-14 81-41.4 111.4-78.4 30.7-37.4 53-84.5 62.6-137.4 11.9-65.4 2.4-129.1-22.8-181.4-25.2-52.2-66.3-93.1-117.7-113.1" fill="url(#u)"/><path d="M2485 1873.898c11.4-.8 22.9-.9 34.2-.2 30.6 2.1 60.1 9.5 87.4 21.7 47.8 15.9 87.9 47.3 115.6 87.4 37.9 54.8 55 123.9 42.2 194.5-12 66-48.1 121.9-97.8 159.8-24.8 19-53.1 33.5-83.4 42.4-29.6 8.6-61.2 12.3-93.6 9.7-1.5-.1-3.1-.3-4.6-.4-11.5-1.2-22.9-3.3-34.2-6 41.4-15 78.8-42.7 108.3-79.4 29.8-37.2 51.5-83.7 60.9-135.7 11.7-64.4 2.9-127.1-21.4-179.1-24.2-52-63.8-93.2-113.6-114.7" fill="url(#v)"/><path d="M2492.6 1874.998c11.8-.5 23.5-.3 35.2.8 31.5 3.1 61.4 11.9 88.8 25.5 42.6 16.4 78.6 45.8 104 82.4 37.7 54.4 54.6 123 41.9 193.1-11.7 64.6-46.7 119.4-95 157a253.57 253.57 0 0 1-81.2 42.6c-28.7 8.9-59.4 13-90.9 11.2l-4.5-.3c-11.2-.9-22.4-2.6-33.5-5 40.4-16 76.6-44 105.2-80.5 29-37.1 50-82.9 59.2-133.9 11.5-63.4 3.3-125.1-19.9-176.8-23.1-51.6-61.1-93.1-109.3-116.1" fill="url(#w)"/><path d="M2500.2 1876.198c12.1-.3 24.2.4 36.2 1.8 32.4 4.2 62.8 14.3 90.1 29.4 37.5 17 69.3 44.2 92.4 77.5 37.4 54 54.2 122.1 41.6 191.6-11.5 63.1-45.3 116.9-92.2 154.2-23.4 18.7-50.2 33.3-78.9 42.8-27.8 9.1-57.5 13.8-88.2 12.7-1.5-.1-2.9-.1-4.4-.2-10.9-.6-21.8-2-32.7-4 39.3-17 74.5-45.3 102.1-81.6 28.1-37 48.4-82.2 57.5-132.1 11.3-62.3 3.7-123.1-18.4-174.5-22.1-51.3-58.6-93.1-105.1-117.6" fill="url(#x)"/><path d="M2507.9 1877.298c12.5 0 24.9 1 37.1 2.8 33.3 5.2 64.2 16.7 91.5 33.3 32.4 17.5 60.1 42.6 80.9 72.6 37.1 53.6 53.8 121.1 41.3 190.1-11.2 61.6-43.8 114.4-89.4 151.4-22.7 18.6-48.7 33.2-76.7 42.9-26.8 9.3-55.6 14.5-85.5 14.2-1.4 0-2.9 0-4.3-.1-10.6-.3-21.3-1.3-31.9-2.9 38.3-18 72.3-46.6 99-82.7 27.2-36.8 46.9-81.4 55.8-130.4 11.1-61.3 4.1-121.1-16.9-172.2-21.1-50.9-56.1-93-100.9-119" fill="url(#y)"/><path d="M2508.7 2383.298c-10.3 0-20.7-.6-31.2-1.9 75.4-38.4 132.8-117.5 150-212.3 10.9-60.3 4.5-119.1-15.4-169.9-19.9-50.8-53.4-93.2-96.6-120.7 12.9.3 25.6 1.6 38.1 3.9 34.2 6.3 65.6 19.1 92.9 37.1 27.3 18 50.8 41 69.3 67.7 36.8 53.2 53.4 120.2 41 188.7-10.9 60.1-42.4 111.9-86.6 148.7-22 18.5-47.3 33.1-74.4 43.1-27.1 10-56.5 15.6-87.1 15.6" fill="url(#z)"/><g fill="#9cb1bf"><path d="M2559.3 2569.998c-3 0-6-.7-8.6-2.1-7.1-4-9.1-12.1-4.4-18 97.3-115.1 104.6-115.1 106.9-115.1h1.1l1.2.6c3.6 2 8.4 4.7-83.4 128.8-2.8 3.7-7.6 5.8-12.8 5.8M2552.9 2497.098c-2.5 0-4.9-.6-7.1-1.8-5.9-3.3-7.5-9.9-3.6-14.8 80.2-94.8 86.1-94.8 88.1-94.8h.9l1 .5c2.9 1.6 7 3.8-68.7 106.1-2.3 3.1-6.3 4.8-10.6 4.8M2422.8 2504.798c-2.5 0-4.9-.6-7-1.8-5.9-3.3-7.5-9.9-3.6-14.8 80.2-94.8 86.1-94.8 88.1-94.8h.9l1 .5c2.9 1.6 7 3.8-68.7 106.1-2.5 3.1-6.5 4.8-10.7 4.8M2448.1 2554.998c-2.5 0-4.9-.6-7-1.8-5.9-3.3-7.5-9.9-3.6-14.8 80.2-94.8 86.1-94.8 88.1-94.8h.9l1 .5c2.9 1.6 7 3.8-68.6 106.1-2.6 3-6.6 4.8-10.8 4.8"/></g><path d="M2556.9 2564.998c-3 0-6-.7-8.6-2.1-7.1-4-9.1-12.1-4.4-18 97.3-115.1 104.6-115.1 106.9-115.1h1.1l1.2.6c3.6 2 8.4 4.7-83.4 128.8-2.8 3.6-7.6 5.8-12.8 5.8" fill="#78b5db"/><path d="M2550.4 2560.198c-5.4-3-6.9-9.1-3.3-13.7 0 0 98.7-116.6 104.1-113.6 5.4 3-84.5 124.6-84.5 124.6-2.3 2.9-6 4.4-9.8 4.4-2.3 0-4.5-.5-6.5-1.7" fill="url(#A)"/><path d="M2550.5 2492.098c-2.5 0-4.9-.6-7.1-1.8-5.9-3.3-7.5-9.9-3.6-14.8 80.2-94.8 86.1-94.8 88.1-94.8h.9l1 .5c2.9 1.6 7 3.8-68.7 106.1-2.4 3-6.3 4.8-10.6 4.8" fill="#78b5db"/><path d="M2545.1 2488.198c-4.5-2.5-5.7-7.5-2.7-11.3 0 0 81.3-96.1 85.7-93.6 4.5 2.5-69.6 102.6-69.6 102.6-1.9 2.4-4.9 3.6-8.1 3.6-1.7 0-3.6-.4-5.3-1.3" fill="url(#B)"/><path d="M2420.4 2499.698c-2.5 0-4.9-.6-7-1.8-5.9-3.3-7.5-9.9-3.6-14.8 80.2-94.8 86.1-94.8 88.1-94.8h.9l1 .5c2.9 1.6 7 3.8-68.7 106.1-2.5 3.1-6.5 4.8-10.7 4.8" fill="#78b5db"/><path d="M2415 2495.798c-4.5-2.5-5.7-7.5-2.7-11.2 0 0 81.2-96.1 85.7-93.6s-69.6 102.6-69.6 102.6c-1.9 2.4-4.9 3.6-8.1 3.6-1.8 0-3.6-.4-5.3-1.4" fill="url(#C)"/><path d="M2776.3 2546.398c-2.5 0-4.9-.6-7-1.8-5.9-3.3-7.5-9.9-3.6-14.8 80.2-94.8 86.1-94.8 88.1-94.8h.9l1 .5c2.9 1.6 7 3.8-68.7 106.1-2.5 3.1-6.5 4.8-10.7 4.8" fill="#9cb1bf"/><path d="M2773.9 2541.398c-2.5 0-4.9-.6-7-1.8-5.9-3.3-7.5-9.9-3.6-14.8 80.2-94.8 86.1-94.8 88.1-94.8h.9l1 .5c2.9 1.6 7 3.8-68.7 106.1-2.5 3-6.5 4.8-10.7 4.8" fill="#78b5db"/><path d="M2768.5 2537.498c-4.5-2.5-5.7-7.5-2.7-11.2 0 0 81.2-96.1 85.7-93.6s-69.6 102.6-69.6 102.6c-1.9 2.4-4.9 3.6-8.1 3.6-1.8-.1-3.7-.5-5.3-1.4" fill="url(#D)"/><g fill="#9cb1bf"><path d="M2689.2 2576.698c-3 0-6-.7-8.6-2.1-7.1-4-9.1-12.1-4.4-18 97.3-115.1 104.6-115.1 106.9-115.1h1.1l1.2.6c3.6 2 8.4 4.7-83.4 128.8-2.8 3.7-7.6 5.8-12.8 5.8M2682.9 2503.798c-2.5 0-4.9-.6-7.1-1.8-5.9-3.3-7.5-9.9-3.6-14.8 80.2-94.8 86.1-94.8 88.1-94.8h.9l1 .5c2.9 1.6 7 3.8-68.7 106.1-2.4 3-6.3 4.8-10.6 4.8M2621.9 2587.898c-2.3-.3-4.6-1-6.8-2-6.1-2.9-9.2-7.5-6.8-10.3 50.2-53.8 55.6-53.1 57.4-52.8l.8.1 1 .5c3.1 1.4 7.2 3.4-37.1 62.7-1.4 1.6-4.6 2.3-8.5 1.8"/></g><path d="M2686.8 2571.698c-3 0-6-.7-8.6-2.1-7.1-4-9.1-12.1-4.4-18 97.3-115.1 104.6-115.1 106.9-115.1h1.1l1.2.6c3.6 2 8.4 4.7-83.4 128.8-2.8 3.6-7.6 5.8-12.8 5.8" fill="#78b5db"/><path d="M2680.3 2566.898c-5.4-3-6.9-9.1-3.3-13.7 0 0 98.7-116.6 104.1-113.6 5.4 3-84.5 124.6-84.5 124.6-2.3 2.9-6 4.4-9.8 4.4-2.2 0-4.5-.6-6.5-1.7" fill="url(#E)"/><path d="M2680.5 2498.698c-2.5 0-4.9-.6-7.1-1.8-5.9-3.3-7.5-9.9-3.6-14.8 80.2-94.8 86.1-94.8 88.1-94.8h.9l1 .5c2.9 1.6 7 3.8-68.7 106.1-2.4 3.1-6.4 4.8-10.6 4.8" fill="#78b5db"/><path d="M2675.1 2494.798c-4.5-2.5-5.7-7.5-2.7-11.3 0 0 81.3-96.1 85.7-93.6 4.5 2.5-69.6 102.6-69.6 102.6-1.9 2.4-4.9 3.6-8.1 3.6-1.8.1-3.6-.3-5.3-1.3" fill="url(#F)"/><path d="M2457.5 2624.298c-2.5 0-4.9-.6-7.1-1.8-5.9-3.3-7.5-9.9-3.6-14.8 80.2-94.8 86.1-94.8 88.1-94.8h.9l1 .5c2.9 1.6 7 3.8-68.7 106.1-2.4 3-6.4 4.8-10.6 4.8" fill="#9cb1bf"/><path d="M2455 2619.198c-2.5 0-4.9-.6-7.1-1.8-5.9-3.3-7.5-9.9-3.6-14.8 80.2-94.8 86.1-94.8 88.1-94.8h.9l1 .5c2.9 1.6 7 3.8-68.7 106.1-2.3 3.1-6.3 4.8-10.6 4.8" fill="#78b5db"/><path d="M2449.7 2615.298c-4.5-2.5-5.7-7.5-2.7-11.3 0 0 81.3-96.1 85.7-93.6 4.5 2.5-69.6 102.6-69.6 102.6-1.9 2.4-4.9 3.6-8.1 3.6-1.8.1-3.7-.4-5.3-1.3" fill="url(#G)"/><path d="M2619.5 2582.798c-2.3-.3-4.6-1-6.8-2-6.1-2.9-9.2-7.5-6.8-10.3 50.2-53.8 55.6-53.1 57.4-52.8l.8.1 1 .5c3.1 1.4 7.2 3.4-37.1 62.7-1.4 1.6-4.6 2.3-8.5 1.8" fill="#78b5db"/><path d="M2613.7 2579.498c-4.7-2.2-7-5.7-5.2-7.9 0 0 50.9-54.5 55.6-52.3 4.6 2.2-38.7 60.2-38.7 60.2-1.1 1.4-3.6 1.9-6.5 1.5-1.7-.1-3.5-.7-5.2-1.5" fill="url(#H)"/><path d="M2445.6 2549.898c-2.5 0-4.9-.6-7-1.8-5.9-3.3-7.5-9.9-3.6-14.8 80.2-94.8 86.1-94.8 88.1-94.8h.9l1 .5c2.9 1.6 7 3.8-68.6 106.1-2.5 3-6.5 4.8-10.8 4.8" fill="#78b5db"/><path d="M2440.3 2545.998c-4.5-2.5-5.7-7.5-2.7-11.3 0 0 81.2-96.1 85.7-93.6s-69.6 102.6-69.6 102.6c-1.9 2.4-4.9 3.6-8.1 3.6-1.8 0-3.7-.4-5.3-1.3" fill="url(#I)"/><path d="M2929.5 2145.898c-3.2 0-6.3.4-9.3 1-1.8-19.9-18.3-35.6-38.7-35.6-4.4 0-8.6.9-12.5 2.2-8.3-37-41.1-64.6-80.6-64.6-32.9 0-61.2 19.4-74.5 47.4-7.5-6.6-17.2-10.7-28-10.7-22.9 0-41.4 18.1-42.4 40.7-8.9-5-19-8.1-29.9-8.1-33.9 0-61.4 27.5-61.4 61.4s27.5 61.4 61.4 61.4h315.8c26.3 0 47.5-21.3 47.5-47.5.2-26.3-21.1-47.6-47.4-47.6" fill="#9cb1bf"/><path d="M2921.9 2132.798c-3.2 0-6.2.3-9.3 1-1.8-20-18.3-35.6-38.7-35.6-4.5 0-8.6.9-12.5 2.2-8.3-37-41.1-64.6-80.6-64.6-32.9 0-61.2 19.5-74.4 47.4-7.5-6.6-17.2-10.8-28-10.8-22.9 0-41.4 18.1-42.4 40.8-8.9-5-19-8.1-29.9-8.1-33.9 0-61.4 27.5-61.4 61.4s27.5 61.3 61.4 61.3h315.8c26.2 0 47.6-21.3 47.6-47.5 0-26.3-21.3-47.5-47.6-47.5" fill="url(#J)"/><path d="M2678.6 2073.298c10.7 0 20.1 4.2 27.3 10.5 1.6-3.3 4.4-5.7 6.4-8.7 2.1-3.1 4.9-7.2 7.4-9.9 14.4-16.9 35.5-27.7 59.1-28.3 6.8-.2 13.4.5 19.8 1.9 30.1 6.7 54 30.2 61.3 60.4 3.7-.8 7.5-1.1 11.6-.7 2.1 0 4.4 1.3 6.4 1.6 1.9.3 4.9.5 6.7 1.2 2.2.5 4.2 1.3 6.2 2.2 9.2 4.3 16.3 12.5 19.2 22.5.6 1.9 1.2 4.9 1.4 6.9.1.7.5 1.3.5 1.9 1.3-.3 3.4-.6 4.8-.8 1.7-.2 3.3-.3 5.1-.3 14 0 26.4 6.7 34.1 16.7 7.6 10 10.5 22.5 8.2 34.1 0 23.3-24.2 42.2-47.5 42.2h-303c-30.1 0-61.4-24.4-61.4-54.5-3.1-15.1.4-31.3 10.3-44.4 9.9-13.1 26.1-21.8 44.3-21.8 8.3 0 16.2 1.8 23.5 5.1 2 .9 4.8 2.3 6.7 3.4.1-1.6.8-2.9 1.1-4.5.7-4 2.1-9.4 3.9-12.9 6.1-14 20.2-23.8 36.6-23.8" fill="url(#K)"/><path d="M2678.8 2074.298c10.6 0 19.8 4.3 26.6 10.3 1.4-2.9 4.9-4 6.7-6.6 1.8-2.7 4.9-7.6 7.1-10 13.8-17.3 34.4-28.6 57.6-29.8 6.6-.3 13.2.1 19.5 1.4 30 5.8 54.2 28.8 61.9 58.5 3.4-.2 6.9 0 10.6.9 1.8 0 4.1 2.3 5.9 2.6 1.7.3 5.4 0 7 .6 2.3.3 4.5.9 6.6 1.7 9.9 3.8 17.7 12.4 20.4 23.1.5 1.6 1.1 5.5 1.4 7.2.1.6.7 1 .8 1.6 1.2-.2 3.9-.7 5.1-.9 1.8-.2 3.5-.4 5.3-.4 14.8 0 27.9 8 34.6 19.4 6.7 11.4 7.1 24.5 2.4 34.7 0 20.4-27.1 36.9-47.5 36.9h-290.3c-26.4 0-61.3-21.3-61.3-47.7-6.3-13.2-6.1-30.3 2.6-45.4 8.6-15.1 25.7-25.6 45.2-25.6 8.3 0 16.3 1.9 23.7 5.3 1.8.7 5.1 2.5 6.8 3.5.1-1.4 1.3-2.2 1.6-3.6.6-3.5 1.9-10.1 3.5-13.1 5.5-14.3 19.6-24.6 36.2-24.6" fill="url(#L)"/><path d="M2679 2075.298c10.5 0 19.4 4.3 25.9 10 1.2-2.5 5.5-2.3 7-4.6s4.9-8 6.8-10.1c13.2-17.7 33.3-29.4 56.1-31.2 6.5-.5 13-.2 19.3.9 29.9 5 54.4 27.3 62.6 56.7 3.1.4 6.3 1.1 9.6 2.5 1.6 0 3.8 3.4 5.3 3.7 1.5.3 6-.4 7.3 0 2.5.1 4.8.5 7 1.2 10.7 3.2 19.2 12.3 21.7 23.7.5 1.4 1.1 6.1 1.3 7.6.1.5 1 .8 1 1.3 1-.2 4.3-.8 5.3-.9 1.8-.3 3.7-.4 5.6-.4 15.7 0 29.3 9.3 35 22.2 5.7 12.8 3.6 26.5-3.3 35.2 0 17.5-30 31.6-47.5 31.6h-277.5c-22.6 0-61.3-18.3-61.3-40.9-9.4-11.3-12.5-29.4-5.1-46.4s25.3-29.5 46.1-29.5c8.4 0 16.4 2 23.8 5.5 1.5.6 5.5 2.8 6.9 3.6.1-1.2 1.9-1.5 2.1-2.7.5-3 1.7-10.7 3.1-13.3 5-14.8 19.2-25.7 35.9-25.7" fill="url(#M)"/><path d="M2679.2 2076.298c10.5 0 19.1 4.4 25.2 9.8 1-2.1 6-.6 7.3-2.5 1.3-1.9 4.9-8.5 6.5-10.2 12.6-18.2 32.2-30.3 54.6-32.7 6.4-.7 12.8-.6 19.1.3 29.8 4.2 54.6 25.9 63.3 54.9 2.9.9 5.7 2.2 8.6 4 1.3 0 3.6 4.5 4.8 4.7 1.2.2 6.5-.9 7.6-.5 2.6-.1 5 .1 7.4.7 11.4 2.7 20.6 12.2 22.9 24.4.4 1.2 1 6.8 1.2 8 .1.4 1.2.6 1.3 1 .8-.2 4.8-.9 5.6-1 1.9-.3 3.9-.5 5.9-.5 16.6 0 30.7 10.7 35.5 24.9 4.8 14.2.2 28.5-9.1 35.8 0 14.6-32.9 26.4-47.4 26.4h-264.7c-18.8 0-61.3-15.2-61.3-34.1-12.6-9.4-19-28.4-12.8-47.4 6.2-19 24.9-33.3 46.9-33.3 8.4 0 16.5 2 24 5.8 1.3.5 5.8 3 7 3.7 0-1 2.4-.8 2.6-1.7.4-2.5 1.5-11.4 2.7-13.5 4.2-15.6 18.4-27 35.3-27" fill="url(#N)"/><path d="M2679.4 2077.298c10.4 0 18.7 4.4 24.5 9.5.8-1.7 6.6 1.1 7.6-.5 1-1.5 5-8.9 6.2-10.3 11.9-18.6 31-31.2 53.1-34.1 6.3-.8 12.6-.9 18.9-.2 29.7 3.3 54.8 24.4 63.9 53.1 2.6 1.5 5.1 3.3 7.6 5.6 1 0 3.3 5.5 4.3 5.7 1 .2 7-1.4 8-1.1 2.8-.3 5.3-.2 7.8.2 12.2 2.2 22 12.1 24.2 25 .3.9 1 7.4 1.1 8.4 0 .3 1.5.4 1.5.7.7-.1 5.2-1 5.9-1.1 2-.3 4.1-.5 6.2-.5 17.4 0 32.1 12 36 27.6 3.8 15.6-3.2 30.5-14.8 36.3 0 11.6-35.8 21.1-47.4 21.1h-251.9c-15.1 0-61.2-12.2-61.2-27.3-15.7-7.5-25.5-27.4-20.6-48.4 4.9-21 24.6-37.1 47.8-37.1 8.4 0 16.6 2.1 24.2 6 1 .4 6.1 3.3 7.1 3.8 0-.8 2.9 0 3.1-.8.3-2 1.3-12 2.2-13.8 3.4-15.8 17.7-27.8 34.7-27.8" fill="url(#O)"/><path d="M2679.6 2078.298c10.3 0 18.3 4.5 23.8 9.3.6-1.2 7.1 2.7 7.9 1.6.8-1.1 5-9.4 5.9-10.4 11.3-19 29.9-32 51.5-35.6 6.2-1 12.4-1.3 18.7-.7 29.6 2.5 55 23 64.6 51.3 2.3 2.1 4.5 4.4 6.6 7.2.8 0 3 6.6 3.8 6.7.7.1 7.6-1.9 8.3-1.6 2.9-.5 5.6-.6 8.2-.3 13 1.7 23.5 12 25.5 25.6.2.7 1 8 1.1 8.8 0 .2 1.8.1 1.8.4.5-.1 5.7-1.1 6.2-1.2 2.1-.3 4.3-.6 6.5-.6 18.3 0 33.6 13.3 36.4 30.4 2.9 17-6.7 32.5-20.6 36.9 0 8.7-38.6 15.8-47.4 15.8h-239.2c-11.3 0-61.2-9.1-61.2-20.4-18.9-5.7-32-26.4-28.3-49.4 3.7-23 24.2-40.9 48.7-40.9 8.4 0 16.7 2.2 24.4 6.3.8.3 6.5 3.5 7.2 3.9 0-.6 3.5.7 3.6.1.3-1.5 1.1-12.7 1.8-14 2.7-16.7 17.1-29.2 34.2-29.2" fill="url(#P)"/><path d="M2679.8 2079.298c10.2 0 18 4.5 23.1 9 .4-.8 7.6 4.4 8.2 3.7.5-.8 5-9.8 5.6-10.5 10.7-19.4 28.8-32.9 50-37.1 6-1.2 12.2-1.6 18.5-1.3 29.5 1.7 55.2 21.6 65.3 49.4 2.1 2.7 3.9 5.5 5.6 8.7.5 0 2.7 7.6 3.2 7.7.5.1 8.1-2.3 8.6-2.2 3.1-.7 5.9-1 8.6-.8 13.8 1.1 24.9 11.9 26.7 26.2.2.5.9 8.7 1 9.2 0 .2 2-.1 2.1.1.3-.1 6.1-1.2 6.4-1.3 2.2-.4 4.5-.6 6.8-.6 19.1 0 35 14.7 36.9 33.1 1.9 18.4-10.1 34.5-26.3 37.4 0 5.8-41.5 10.5-47.4 10.5h-226.4c-7.5 0-61.2-6.1-61.2-13.6-22-3.8-38.4-25.5-36-50.4 2.5-24.9 23.8-44.8 49.6-44.8 8.5 0 16.7 2.2 24.6 6.5.5.2 6.8 3.8 7.3 4 0-.4 4 1.4 4.1 1 .2-1 1-13.3 1.4-14.2 2-16.6 16.4-29.7 33.7-29.7" fill="url(#Q)"/><path d="M2680 2080.298c10.1 0 17.6 4.6 22.4 8.8.2-.4 8.2 6.1 8.4 5.7.3-.4 5-10.3 5.3-10.6 10.1-19.9 27.7-33.8 48.5-38.5 5.9-1.3 12-2 18.3-1.8 29.4.8 55.5 20.1 65.9 47.6 1.8 3.2 3.4 6.7 4.6 10.3.3 0 2.5 8.7 2.7 8.8.2 0 8.7-2.8 8.9-2.7 3.2-.9 6.2-1.4 9-1.2 14.5.6 26.4 11.9 28 26.8.1.2.9 9.3.9 9.5 0 .1 2.3-.3 2.3-.2.2 0 6.5-1.3 6.7-1.3 2.3-.4 4.6-.7 7.1-.7 20 0 36.4 16 37.4 35.8 1 19.8-13.5 36.5-32.1 38 0 2.9-44.4 5.3-47.3 5.3h-213.6c-3.8 0-61.2-3-61.2-6.8-25.2-1.9-44.9-24.5-43.7-51.4 1.2-26.9 23.4-48.6 50.5-48.6 8.5 0 16.8 2.3 24.8 6.7.3.1 7.1 4 7.4 4.2 0-.2 4.5 2.2 4.6 2 .1-.5.8-14 1-14.4 1.4-17.7 15.8-31.3 33.2-31.3" fill="url(#R)"/><path d="M2918.8 2218.798h-309.3c-28.3 0-51.4-23.5-51.4-52.4s23.1-52.4 51.4-52.4c8.5 0 16.9 2.4 24.9 7l12.5 7.2.6-14.7c.7-18 15.1-32.2 32.7-32.2 10 0 17.3 4.6 21.7 8.6l8.7 7.8 5-10.7c12.1-26.1 37-42.3 65-42.3 33.4 0 63 24.3 70.3 57.7l2.2 9.8 9.2-3.3c3.4-1.1 6.4-1.7 9.4-1.7 15.3 0 27.8 11.8 29.3 27.4l.8 9.9 9.6-1.9c2.4-.4 4.8-.8 7.4-.8 20.9 0 37.8 17.3 37.8 38.6 0 21.1-17 38.4-37.8 38.4" fill="url(#S)"/><path d="M2870.5 2288.698c-4.3 0-8.6.5-12.7 1.3-2.5-27.3-25.1-48.7-53.1-48.7-6.1 0-11.7 1.2-17.1 3-11.3-50.6-56.3-88.5-110.3-88.5-45.2 0-83.8 26.6-102 64.9-10.3-9-23.6-14.7-38.3-14.7-31.3 0-56.7 24.8-58.1 55.8-12.2-6.8-26-11-40.9-11-46.4 0-84 37.6-84 84.1 0 46.4 37.7 84 84 84h432.6c36 0 65.1-29.2 65.1-65.1-.1-35.9-29.3-65.1-65.2-65.1" fill="#9cb1bf"/><path d="M2861.1 2275.798c-4.3 0-8.6.5-12.7 1.3-2.5-27.2-25.1-48.7-53.1-48.7-6 0-11.7 1.2-17.1 3-11.3-50.6-56.3-88.5-110.3-88.5-45.1 0-83.8 26.6-102 64.9-10.3-9-23.6-14.7-38.4-14.7-31.3 0-56.7 24.8-58.1 55.9-12.1-6.9-26-11.1-40.9-11.1-46.4 0-84.1 37.7-84.1 84.1 0 46.4 37.6 84.1 84.1 84.1h432.6c35.9 0 65.1-29.2 65.1-65.1 0-36.1-29.2-65.2-65.1-65.2" fill="url(#T)"/><path d="M2527.8 2194.398c14.6 0 27.6 5.7 37.4 14.4 2.2-4.6 6-7.8 8.8-11.9 2.8-4.2 6.7-9.8 10.1-13.5 19.8-23.1 48.6-37.9 81-38.7 9.2-.2 18.2.7 26.9 2.6 41.3 9.1 74.1 41.4 84 82.7 5-1.1 10.3-1.5 15.8-.9 2.9 0 6 1.7 8.7 2.2 2.7.5 6.7.7 9.2 1.6 3 .7 5.8 1.7 8.5 3 12.5 5.8 22.3 17.1 26.3 30.8.8 2.5 1.6 6.7 2 9.4.1.9.6 1.7.7 2.6 1.8-.4 4.7-.8 6.5-1 2.3-.3 4.6-.4 7-.4 19.1 0 36.2 9.1 46.7 22.8 10.5 13.7 14.4 30.8 11.2 46.8 0 31.9-34.9 57.9-66.9 57.9h-422.6c-45.6 0-82.6-37-82.6-82.7s37-82.7 82.6-82.7c11.4 0 22.2 2.5 32.2 7 2.7 1.2 6.5 3.1 9.1 4.6.1-2.3 1.1-4.1 1.5-6.3.9-5.4 2.8-12.8 5.3-17.6 8.7-19.4 28.1-32.7 50.6-32.7" fill="url(#U)"/><path d="M2528 2195.798c14.5 0 27.1 5.8 36.4 14 1.9-4 6.8-5.5 9.2-9.1 2.5-3.7 6.7-10.4 9.7-13.7 18.9-23.7 47.1-39.1 78.9-40.7 9.1-.5 18 .2 26.6 1.9 41.1 8 74.3 39.4 84.9 80.2 4.7-.3 9.5 0 14.4 1.2 2.5 0 5.6 3.2 8 3.6 2.3.4 7.4.1 9.6.8 3.2.4 6.2 1.2 9 2.3 13.6 5.1 24.3 17 28 31.7.7 2.2 1.5 7.5 1.9 9.9.1.8 1 1.4 1.1 2.2 1.6-.3 5.3-1 6.9-1.1 2.4-.3 4.9-.5 7.3-.5 20.3 0 38.1 10.9 47.3 26.6 9.2 15.6 9.7 33.5 3.3 47.5 0 27.9-40.7 50.6-68.7 50.6h-412.6c-44.7 0-81-36.4-81-81.3s36.3-81.3 81-81.3c11.5 0 22.4 2.6 32.4 7.3 2.4 1 7 3.5 9.3 4.7.1-2 1.9-3.1 2.2-5 .8-4.8 2.6-13.7 4.8-17.9 8-19.9 27.4-33.9 50.1-33.9" fill="url(#V)"/><path d="M2528.3 2197.098c14.4 0 26.6 5.9 35.5 13.7 1.6-3.4 7.5-3.2 9.6-6.3 2.1-3.1 6.7-11 9.3-13.8 18.1-24.3 45.6-40.3 76.9-42.7 8.9-.7 17.7-.3 26.3 1.2 41 6.8 74.6 37.4 85.9 77.7 4.3.5 8.7 1.5 13.1 3.4 2.1 0 5.2 4.6 7.3 5 2 .4 8.2-.6 10 .1 3.4.1 6.5.7 9.6 1.6 14.6 4.4 26.3 16.9 29.7 32.5.6 1.9 1.5 8.4 1.8 10.4.1.7 1.4 1.1 1.4 1.8 1.3-.3 5.9-1.1 7.3-1.3 2.5-.4 5.1-.6 7.7-.6 21.5 0 40.1 12.8 47.9 30.3 7.9 17.6 5 36.3-4.5 48.3 0 24-46.5 43.4-70.4 43.4h-402.6c-43.9 0-79.5-35.8-79.5-80 0-44.1 35.6-80 79.5-80 11.5 0 22.5 2.7 32.7 7.6 2.1.9 7.4 3.8 9.4 4.9.1-1.7 2.6-2.1 2.9-3.7.7-4.1 2.3-14.6 4.2-18.2 6.7-20.4 26.1-35.3 49-35.3" fill="url(#W)"/><path d="M2528.6 2198.498c14.3 0 26.1 6 34.5 13.4 1.4-2.9 8.2-.8 10-3.4 1.8-2.6 6.8-11.6 8.9-14 17.2-24.9 44.1-41.5 74.8-44.7 8.7-.9 17.5-.8 26.1.4 40.9 5.7 74.9 35.5 86.8 75.2 3.9 1.3 7.8 3 11.7 5.5 1.8 0 4.8 6.1 6.5 6.4 1.7.3 8.9-1.2 10.5-.7 3.6-.2 6.9.2 10.2.9 15.7 3.7 28.2 16.8 31.4 33.4.5 1.6 1.4 9.2 1.7 10.9.1.6 1.7.8 1.8 1.4 1.1-.2 6.5-1.2 7.7-1.4 2.7-.4 5.4-.6 8.1-.6 22.7 0 42 14.6 48.6 34.1 6.5 19.5.3 39-12.4 49 0 20-52.3 36.2-72.2 36.2h-392.6c-43 0-78-35.2-78-78.6 0-43.4 35-78.6 78-78.6 11.5 0 22.6 2.8 32.9 7.9 1.7.7 7.9 4.1 9.5 5 .1-1.4 3.3-1.1 3.6-2.4.6-3.4 2.1-15.5 3.6-18.5 5.7-21.2 25.2-36.8 48.3-36.8" fill="url(#X)"/><path d="M2528.9 2199.898c14.2 0 25.6 6 33.5 13 1.1-2.3 9 1.5 10.4-.6 1.4-2.1 6.8-12.3 8.5-14.1 16.4-25.5 42.6-42.7 72.7-46.7 8.6-1.1 17.2-1.2 25.8-.3 40.7 4.6 75.2 33.5 87.7 72.7 3.6 2.1 7 4.5 10.4 7.6 1.4 0 4.5 7.5 5.8 7.8 1.3.2 9.7-1.9 10.9-1.4 3.8-.5 7.3-.3 10.7.3 16.7 3 30.2 16.6 33.1 34.2.4 1.3 1.4 10.1 1.6 11.5.1.4 2.1.5 2.1 1 .9-.2 7.2-1.4 8.1-1.5 2.8-.5 5.6-.7 8.5-.7 23.9 0 44 16.4 49.2 37.8 5.2 21.4-4.4 41.8-20.3 49.8 0 16-58 28.9-74 28.9H2431c-42.2 0-76.5-34.6-76.5-77.2s34.3-77.3 76.5-77.3c11.6 0 22.7 2.9 33.2 8.3 1.4.6 8.3 4.4 9.6 5.2 0-1.1 4.1-.1 4.3-1.2.5-2.7 1.8-16.4 3.1-18.8 4.8-22 24.3-38.3 47.7-38.3" fill="url(#Y)"/><path d="M2529.1 2201.198c14.1 0 25.2 6.1 32.6 12.7.8-1.7 9.7 3.8 10.8 2.2 1.1-1.6 6.8-12.9 8.1-14.3 15.5-26.1 41.1-43.9 70.7-48.7 8.4-1.4 16.9-1.7 25.5-1 40.6 3.4 75.5 31.5 88.6 70.2 3.2 2.8 6.2 6 9 9.8 1.1 0 4.1 9 5.1 9.2 1 .2 10.4-2.5 11.4-2.2 4-.7 7.7-.9 11.3-.4 17.8 2.3 32.2 16.5 34.9 35.1.3.9 1.3 11 1.5 12 0 .3 2.4.2 2.5.5.7-.1 7.8-1.5 8.5-1.6 2.9-.5 5.9-.8 8.9-.8 25 0 45.9 18.2 49.8 41.6 3.9 23.3-9.1 44.5-28.1 50.5 0 12-63.8 21.7-75.8 21.7h-372.6c-41.3 0-74.9-34-74.9-75.9 0-41.9 33.6-75.9 74.9-75.9 11.6 0 22.9 3 33.4 8.6 1 .4 8.8 4.8 9.8 5.3 0-.9 4.8 1 5 .1.4-2 1.6-17.3 2.5-19.1 3.5-22.5 23.1-39.6 46.6-39.6" fill="url(#Z)"/><path d="M2529.4 2202.598c14 0 24.7 6.2 31.6 12.4.5-1.1 10.5 6.1 11.2 5 .7-1.1 6.8-13.5 7.6-14.4 14.7-26.6 39.5-45.1 68.6-50.7 8.2-1.6 16.7-2.2 25.2-1.7 40.5 2.3 75.8 29.5 89.5 67.8 2.8 3.6 5.4 7.6 7.7 11.9.7 0 3.7 10.4 4.4 10.6.7.1 11.2-3.1 11.8-2.9 4.2-1 8.1-1.4 11.8-1.1 18.8 1.5 34.1 16.4 36.6 35.9.2.6 1.3 11.8 1.4 12.5 0 .2 2.8-.1 2.8.1.4-.1 8.4-1.7 8.8-1.7 3-.5 6.2-.9 9.3-.9 26.2 0 47.9 20.1 50.5 45.3 2.6 25.2-13.8 47.3-36 51.3 0 8-69.6 14.5-77.6 14.5H2432c-40.5 0-73.4-33.4-73.4-74.5s32.9-74.5 73.4-74.5c11.6 0 23 3 33.7 8.9.7.3 9.2 5.1 9.9 5.5 0-.6 5.6 2 5.7 1.4.2-1.4 1.3-18.2 1.9-19.4 2.9-23.5 22.5-41.3 46.2-41.3" fill="url(#aa)"/><path d="M2529.7 2203.998c13.8 0 24.2 6.2 30.6 12 .3-.6 11.2 8.4 11.6 7.9.4-.5 6.8-14.1 7.2-14.6 13.8-27.2 38-46.3 66.5-52.7 8.1-1.8 16.4-2.7 24.9-2.4 40.3 1.1 76.1 27.6 90.4 65.3 2.5 4.4 4.6 9.1 6.3 14 .4 0 3.3 11.9 3.7 12 .3.1 11.9-3.8 12.2-3.7 4.4-1.3 8.4-1.9 12.4-1.8 19.9.8 36.1 16.3 38.3 36.7.1.3 1.2 12.7 1.3 13 0 .1 3.2-.4 3.2-.3.2 0 9-1.8 9.2-1.8 3.1-.6 6.4-1 9.7-1 27.4 0 49.8 21.9 51.1 49.1 1.3 27.2-18.5 50-43.9 52 0 4-75.4 7.2-79.4 7.2h-352.6c-39.6 0-71.9-32.8-71.9-73.1s32.3-73.2 71.9-73.2c11.7 0 23.1 3.1 33.9 9.2.3.1 9.7 5.4 10 5.6 0-.3 6.3 3 6.3 2.7.1-.7 1.1-19.1 1.4-19.7 2.1-23.8 21.7-42.4 45.7-42.4" fill="url(#ab)"/><path d="M2856.7 2393.598h-423.8c-38.8 0-70.4-32.2-70.4-71.7 0-39.6 31.6-71.8 70.4-71.8 11.7 0 23.2 3.2 34.2 9.6l17.2 9.7.8-20c1-24.7 20.7-44 44.8-44 13.7 0 23.7 6.3 29.7 11.7l12 10.7 6.8-14.7c16.6-35.7 50.7-57.9 89-57.9 45.8 0 86.3 33.2 96.3 79l2.9 13.3 12.7-4.4c4.6-1.6 8.8-2.4 12.9-2.4 20.9 0 38.1 16.2 40 37.6l1.2 13.6 13.1-2.6c3.3-.6 6.7-1 10.1-1 28.6 0 51.8 23.7 51.8 52.8 0 29.1-23.1 52.5-51.7 52.5" fill="url(#ac)"/></svg>