<svg xmlns="http://www.w3.org/2000/svg" xmlns:xlink="http://www.w3.org/1999/xlink" viewBox="3264.2 1821.7 841.9 841.90004" width="841.9" height="841.9"><defs><linearGradient id="ac" gradientUnits="userSpaceOnUse" y1="2238.25" x2="0" y2="1992.82" xlink:href="#c" gradientTransform="translate(-370.617 -149.554) scale(1.1025)"/><linearGradient id="o" gradientUnits="userSpaceOnUse" y1="2047.23" x2="0" y2="1849.61"><stop stop-color="#95b9cc"/><stop offset="1" stop-color="#cddee8"/></linearGradient><linearGradient id="z" gradientUnits="userSpaceOnUse" y1="2242.94" x2="0" y2="2233.62" xlink:href="#e" gradientTransform="translate(-370.617 -149.554) scale(1.1025)"/><linearGradient id="y" gradientUnits="userSpaceOnUse" y1="2248.5" x2="0" y2="2228.98" xlink:href="#f" gradientTransform="translate(-370.617 -149.554) scale(1.1025)"/><linearGradient id="x" gradientUnits="userSpaceOnUse" y1="2254.06" x2="0" y2="2224.34" xlink:href="#d" gradientTransform="translate(-370.617 -149.554) scale(1.1025)"/><linearGradient id="v" gradientUnits="userSpaceOnUse" y1="2265.18" x2="0" y2="2215.07" xlink:href="#a" gradientTransform="translate(-370.617 -149.554) scale(1.1025)"/><linearGradient id="w" gradientUnits="userSpaceOnUse" y1="2259.62" x2="0" y2="2219.7" xlink:href="#b" gradientTransform="translate(-370.617 -149.554) scale(1.1025)"/><linearGradient id="n" gradientUnits="userSpaceOnUse" y1="2046.08" x2="0" y2="1850.75"><stop stop-color="#97bacd"/><stop offset="1" stop-color="#d0e1eb"/></linearGradient><linearGradient id="V" gradientUnits="userSpaceOnUse" y1="2249.3" x2="0" y2="1984.75" xlink:href="#g" gradientTransform="translate(-370.617 -149.554) scale(1.1025)"/><linearGradient id="W" gradientUnits="userSpaceOnUse" y1="2247.72" x2="0" y2="1986.14" xlink:href="#h" gradientTransform="translate(-370.617 -149.554) scale(1.1025)"/><linearGradient id="g" gradientUnits="userSpaceOnUse" y1="2044.94" x2="0" y2="1851.83"><stop stop-color="#99bbce"/><stop offset="1" stop-color="#d3e4ed"/></linearGradient><linearGradient id="X" gradientUnits="userSpaceOnUse" y1="2246.14" x2="0" y2="1987.46" xlink:href="#i" gradientTransform="translate(-370.617 -149.554) scale(1.1025)"/><linearGradient id="Y" gradientUnits="userSpaceOnUse" y1="2244.56" x2="0" y2="1988.69" xlink:href="#j" gradientTransform="translate(-370.617 -149.554) scale(1.1025)"/><linearGradient id="ab" gradientUnits="userSpaceOnUse" y1="2239.83" x2="0" y2="1991.9" xlink:href="#k" gradientTransform="translate(-370.617 -149.554) scale(1.1025)"/><linearGradient id="Z" gradientUnits="userSpaceOnUse" y1="2242.99" x2="0" y2="1989.84" xlink:href="#l" gradientTransform="translate(-370.617 -149.554) scale(1.1025)"/><linearGradient id="aa" gradientUnits="userSpaceOnUse" y1="2241.41" x2="0" y2="1990.91" xlink:href="#m" gradientTransform="translate(-370.617 -149.554) scale(1.1025)"/><linearGradient id="U" gradientUnits="userSpaceOnUse" y1="2250.88" x2="0" y2="1983.27" xlink:href="#n" gradientTransform="translate(-370.617 -149.554) scale(1.1025)"/><linearGradient id="h" gradientUnits="userSpaceOnUse" y1="2043.8" x2="0" y2="1852.86"><stop stop-color="#9bbccf"/><stop offset="1" stop-color="#d7e6f0"/></linearGradient><linearGradient id="i" gradientUnits="userSpaceOnUse" y1="2042.65" x2="0" y2="1853.83"><stop stop-color="#9dbdd0"/><stop offset="1" stop-color="#dae9f2"/></linearGradient><linearGradient id="T" gradientUnits="userSpaceOnUse" y1="2252.46" x2="0" y2="1981.72" xlink:href="#o" gradientTransform="translate(-370.617 -149.554) scale(1.1025)"/><linearGradient id="j" gradientUnits="userSpaceOnUse" y1="2041.51" x2="0" y2="1854.73"><stop stop-color="#9fbed0"/><stop offset="1" stop-color="#ddecf5"/></linearGradient><linearGradient id="l" gradientUnits="userSpaceOnUse" y1="2040.36" x2="0" y2="1855.57"><stop stop-color="#a1bfd1"/><stop offset="1" stop-color="#e0eff7"/></linearGradient><linearGradient id="c" gradientUnits="userSpaceOnUse" y1="2036.93" x2="0" y2="1857.72"><stop stop-color="#a7c2d4"/><stop offset="1" stop-color="#eaf7ff"/></linearGradient><linearGradient id="m" gradientUnits="userSpaceOnUse" y1="2039.22" x2="0" y2="1856.35"><stop stop-color="#a3c0d2"/><stop offset="1" stop-color="#e4f1fa"/></linearGradient><linearGradient id="k" gradientUnits="userSpaceOnUse" y1="2038.08" x2="0" y2="1857.06"><stop stop-color="#a5c1d3"/><stop offset="1" stop-color="#e7f4fc"/></linearGradient><linearGradient id="a" gradientUnits="userSpaceOnUse" y1="1912.78" x2="0" y2="1862.67"><stop stop-color="#feffba"/><stop offset="1" stop-color="#f0f2ac"/></linearGradient><linearGradient id="b" gradientUnits="userSpaceOnUse" y1="1907.22" x2="0" y2="1867.31"><stop stop-color="#f5f798"/><stop offset="1" stop-color="#f0f2ac"/></linearGradient><linearGradient id="d" gradientUnits="userSpaceOnUse" y1="1901.67" x2="0" y2="1871.95"><stop stop-color="#edef77"/><stop offset="1" stop-color="#f0f2ac"/></linearGradient><linearGradient id="e" gradientUnits="userSpaceOnUse" y1="1890.56" x2="0" y2="1881.24"><stop stop-color="#dbde33"/><stop offset="1" stop-color="#f0f2ac"/></linearGradient><linearGradient id="q" gradientUnits="userSpaceOnUse" y1="2265.19" x2="0" y2="2215.07" xlink:href="#a" gradientTransform="translate(-370.617 -149.554) scale(1.1025)"/><linearGradient id="f" gradientUnits="userSpaceOnUse" y1="1896.11" x2="0" y2="1876.59"><stop stop-color="#e4e655"/><stop offset="1" stop-color="#f0f2ac"/></linearGradient><linearGradient id="I" gradientUnits="userSpaceOnUse" x1="3412.78" x2="3519.02" xlink:href="#p" gradientTransform="translate(-370.617 -149.554) scale(1.1025)"/><linearGradient id="p" gradientUnits="userSpaceOnUse" x1="3545.26" x2="3674.27"><stop offset=".291" stop-color="#fff"/><stop offset="1" stop-color="#def1ff"/></linearGradient><linearGradient id="B" gradientUnits="userSpaceOnUse" x1="3540.05" x2="3646.3" xlink:href="#p" gradientTransform="translate(-370.617 -149.554) scale(1.1025)"/><linearGradient id="H" gradientUnits="userSpaceOnUse" x1="3620.54" y1="2425.18" x2="3691.37" y2="2422.65" xlink:href="#p" gradientTransform="translate(-370.617 -149.554) scale(1.1025)"/><linearGradient id="C" gradientUnits="userSpaceOnUse" x1="3382.11" x2="3488.34" xlink:href="#p" gradientTransform="translate(-370.617 -149.554) scale(1.1025)"/><linearGradient id="D" gradientUnits="userSpaceOnUse" x1="3811.14" x2="3917.37" xlink:href="#p" gradientTransform="translate(-370.617 -149.554) scale(1.1025)"/><linearGradient id="G" gradientUnits="userSpaceOnUse" x1="3424.17" x2="3530.42" xlink:href="#p" gradientTransform="translate(-370.617 -149.554) scale(1.1025)"/><linearGradient id="E" gradientUnits="userSpaceOnUse" x1="3702.99" x2="3832" xlink:href="#p" gradientTransform="translate(-370.617 -149.554) scale(1.1025)"/><linearGradient id="F" gradientUnits="userSpaceOnUse" x1="3697.79" x2="3804.03" xlink:href="#p" gradientTransform="translate(-370.617 -149.554) scale(1.1025)"/><linearGradient id="r" gradientUnits="userSpaceOnUse" y1="2259.63" x2="0" y2="2219.72" xlink:href="#b" gradientTransform="translate(-370.617 -149.554) scale(1.1025)"/><linearGradient id="s" gradientUnits="userSpaceOnUse" y1="2254.08" x2="0" y2="2224.36" xlink:href="#d" gradientTransform="translate(-370.617 -149.554) scale(1.1025)"/><linearGradient id="t" gradientUnits="userSpaceOnUse" y1="2248.53" x2="0" y2="2229.01" xlink:href="#f" gradientTransform="translate(-370.617 -149.554) scale(1.1025)"/><linearGradient id="u" gradientUnits="userSpaceOnUse" y1="2242.97" x2="0" y2="2233.65" xlink:href="#e" gradientTransform="translate(-370.617 -149.554) scale(1.1025)"/><linearGradient xlink:href="#p" id="A" gradientUnits="userSpaceOnUse" x1="3545.26" x2="3674.27" gradientTransform="translate(-370.617 -149.554) scale(1.1025)"/><linearGradient xlink:href="#o" id="J" gradientUnits="userSpaceOnUse" y1="2047.23" x2="0" y2="1849.61" gradientTransform="translate(-370.617 -149.554) scale(1.1025)"/><linearGradient xlink:href="#n" id="K" gradientUnits="userSpaceOnUse" y1="2046.08" x2="0" y2="1850.75" gradientTransform="translate(-370.617 -149.554) scale(1.1025)"/><linearGradient xlink:href="#g" id="L" gradientUnits="userSpaceOnUse" y1="2044.94" x2="0" y2="1851.83" gradientTransform="translate(-370.617 -149.554) scale(1.1025)"/><linearGradient xlink:href="#h" id="M" gradientUnits="userSpaceOnUse" y1="2043.8" x2="0" y2="1852.86" gradientTransform="translate(-370.617 -149.554) scale(1.1025)"/><linearGradient xlink:href="#i" id="N" gradientUnits="userSpaceOnUse" y1="2042.65" x2="0" y2="1853.83" gradientTransform="translate(-370.617 -149.554) scale(1.1025)"/><linearGradient xlink:href="#j" id="O" gradientUnits="userSpaceOnUse" y1="2041.51" x2="0" y2="1854.73" gradientTransform="translate(-370.617 -149.554) scale(1.1025)"/><linearGradient xlink:href="#l" id="P" gradientUnits="userSpaceOnUse" y1="2040.36" x2="0" y2="1855.57" gradientTransform="translate(-370.617 -149.554) scale(1.1025)"/><linearGradient xlink:href="#m" id="Q" gradientUnits="userSpaceOnUse" y1="2039.22" x2="0" y2="1856.35" gradientTransform="translate(-370.617 -149.554) scale(1.1025)"/><linearGradient xlink:href="#k" id="R" gradientUnits="userSpaceOnUse" y1="2038.08" x2="0" y2="1857.06" gradientTransform="translate(-370.617 -149.554) scale(1.1025)"/><linearGradient xlink:href="#c" id="S" gradientUnits="userSpaceOnUse" y1="2036.93" x2="0" y2="1857.72" gradientTransform="translate(-370.617 -149.554) scale(1.1025)"/></defs><path d="M3400.815 2317.73c0 17.86-14.553 32.414-32.413 32.414-17.861 0-32.414-14.553-32.414-32.414 0-17.86 14.553-32.413 32.413-32.413 17.861 0 32.414 14.443 32.414 32.413" fill="none"/><path d="M3394.2 2317.73c0 14.223-11.466 25.909-25.909 25.909-14.332 0-25.909-11.466-25.909-25.909 0-14.222 11.466-25.908 25.91-25.908 14.442 0 25.908 11.686 25.908 25.908" opacity=".25" fill="url(#r)"/><path d="M3387.695 2317.73a19.127 19.127 0 0 1-19.183 19.184c-10.695 0-19.294-8.71-19.294-19.184 0-10.584 8.49-19.183 19.294-19.183 10.473 0 19.183 8.489 19.183 19.183" opacity=".5" fill="url(#s)"/><path d="M3380.97 2317.73c0 6.946-5.623 12.569-12.569 12.569-7.055 0-12.568-5.623-12.568-12.569 0-6.945 5.623-12.568 12.569-12.568 7.055 0 12.568 5.623 12.568 12.568" opacity=".75" fill="url(#t)"/><path d="M3374.355 2317.73c0 3.418-2.646 6.064-6.064 6.064s-6.064-2.646-6.064-6.064c0-3.417 2.647-6.063 6.064-6.063 3.418 0 6.064 2.646 6.064 6.063" fill="url(#u)"/><path d="M3990.653 2317.73c0 17.86-14.553 32.414-32.414 32.414-17.86 0-32.413-14.553-32.413-32.414 0-17.86 14.552-32.413 32.413-32.413 17.86 0 32.413 14.443 32.413 32.413" fill="none"/><path d="M3984.037 2317.73c0 14.223-11.465 25.909-25.908 25.909-14.443 0-25.909-11.466-25.909-25.909 0-14.222 11.466-25.908 25.909-25.908s25.909 11.686 25.909 25.908" opacity=".25" fill="url(#w)"/><path d="M3977.312 2317.73a19.127 19.127 0 0 1-19.183 19.184c-10.694 0-19.294-8.71-19.294-19.184 0-10.584 8.49-19.183 19.294-19.183 10.694-.11 19.183 8.489 19.183 19.183" opacity=".5" fill="url(#x)"/><path d="M3970.807 2317.73c0 6.946-5.622 12.569-12.568 12.569-7.056 0-12.569-5.623-12.569-12.569 0-6.945 5.623-12.568 12.569-12.568 6.946 0 12.569 5.623 12.569 12.568" opacity=".75" fill="url(#y)"/><path d="M3964.193 2317.73c0 3.418-2.647 6.064-6.064 6.064-3.418 0-6.064-2.646-6.064-6.064 0-3.417 2.646-6.063 6.064-6.063s6.064 2.646 6.064 6.063" fill="url(#z)"/><g fill="#9cb1bf"><path d="M3557.04 2549.035c-4.08 0-8.049-.993-11.467-2.867-9.481-5.292-12.127-16.096-5.843-24.034 130.316-154.02 139.907-154.02 143.105-154.02h1.433l1.543.772c4.741 2.646 11.246 6.284-111.573 172.431-3.858 4.851-10.253 7.718-17.199 7.718M3548.55 2451.463c-3.307 0-6.615-.771-9.481-2.425-7.828-4.41-10.033-13.23-4.851-19.845 107.273-126.898 115.21-126.898 117.857-126.898h1.213l1.323.662c3.969 2.205 9.26 5.182-91.839 142.002-3.307 4.079-8.6 6.505-14.222 6.505M3374.355 2461.717c-3.307 0-6.615-.772-9.371-2.316-7.828-4.41-10.033-13.23-4.851-19.844 107.273-126.898 115.211-126.898 117.857-126.898h1.213l1.323.661c3.969 2.205 9.26 5.182-91.838 142.002-3.308 3.97-8.6 6.395-14.333 6.395M3408.202 2528.749c-3.308 0-6.615-.772-9.482-2.315-7.827-4.41-10.032-13.23-4.85-19.846 107.273-126.897 115.21-126.897 117.857-126.897h1.212l1.323.661c3.97 2.205 9.372 5.182-91.838 142.002-3.197 4.08-8.49 6.395-14.222 6.395"/></g><path d="M3553.842 2542.2c-4.08 0-8.048-.993-11.466-2.867-9.482-5.292-12.127-16.097-5.843-24.035 130.315-154.019 139.907-154.019 143.104-154.019h1.434l1.543.772c4.74 2.646 11.246 6.284-111.573 172.43-3.859 4.852-10.253 7.718-17.199 7.718" fill="#78b5db"/><path d="M3545.132 2535.805c-7.276-3.97-9.26-12.238-4.41-18.302 0 0 131.97-156.114 139.246-152.035 7.277 4.08-113.006 166.699-113.006 166.699-3.087 3.858-8.048 5.953-13.12 5.953-3.087-.11-6.064-.772-8.71-2.315" fill="url(#A)"/><path d="M3545.242 2444.628c-3.307 0-6.615-.772-9.481-2.425-7.828-4.41-10.033-13.23-4.851-19.845 107.273-126.898 115.211-126.898 117.857-126.898h1.213l1.323.661c3.969 2.205 9.261 5.182-91.838 142.002-3.198 4.19-8.49 6.505-14.223 6.505" fill="#78b5db"/><path d="M3538.076 2439.446c-5.953-3.307-7.607-10.032-3.638-15.104 0 0 108.707-128.552 114.66-125.244 5.954 3.308-93.051 137.261-93.051 137.261-2.536 3.197-6.615 4.851-10.805 4.851-2.425 0-4.96-.551-7.166-1.764" fill="url(#B)"/><path d="M3371.158 2454.881c-3.308 0-6.615-.771-9.371-2.315-7.828-4.41-10.033-13.23-4.851-19.845 107.273-126.898 115.21-126.898 117.857-126.898h1.213l1.323.662c3.968 2.205 9.26 5.182-91.839 142.002-3.307 4.079-8.6 6.394-14.332 6.394" fill="#78b5db"/><path d="M3363.992 2449.7c-5.954-3.308-7.608-10.033-3.639-14.994 0 0 108.707-128.552 114.66-125.245 5.954 3.308-93.05 137.262-93.05 137.262-2.537 3.197-6.616 4.85-10.805 4.85-2.536-.11-4.961-.66-7.166-1.873" fill="url(#C)"/><path d="M3847.327 2517.393c-3.307 0-6.615-.772-9.37-2.315-7.829-4.41-10.034-13.23-4.852-19.845 107.273-126.898 115.211-126.898 117.857-126.898h1.213l1.323.661c3.97 2.206 9.261 5.182-91.838 142.003-3.308 4.079-8.6 6.394-14.333 6.394" fill="#9cb1bf"/><path d="M3844.13 2510.668c-3.307 0-6.615-.772-9.371-2.315-7.828-4.41-10.033-13.23-4.851-19.846 107.273-126.897 115.211-126.897 117.857-126.897h1.213l1.323.661c3.969 2.205 9.261 5.182-91.838 142.002-3.308 3.97-8.6 6.395-14.333 6.395" fill="#78b5db"/><path d="M3836.964 2505.376c-5.954-3.308-7.607-10.033-3.638-14.994 0 0 108.706-128.552 114.66-125.244 5.953 3.307-93.051 137.261-93.051 137.261-2.536 3.197-6.615 4.851-10.805 4.851-2.425 0-4.961-.661-7.166-1.874" fill="url(#D)"/><g fill="#9cb1bf"><path d="M3730.904 2557.965c-4.08 0-8.049-.992-11.466-2.867-9.482-5.291-12.128-16.096-5.844-24.034 130.316-154.02 139.908-154.02 143.105-154.02h1.433l1.544.773c4.74 2.645 11.245 6.284-111.573 172.43-3.86 4.852-10.254 7.718-17.2 7.718M3722.414 2460.394c-3.307 0-6.615-.772-9.481-2.426-7.828-4.41-10.033-13.23-4.851-19.845 107.273-126.897 115.211-126.897 117.857-126.897h1.213l1.323.661c3.969 2.205 9.26 5.182-91.838 142.002-3.198 4.08-8.49 6.505-14.223 6.505M3640.83 2572.849c-3.088-.441-6.175-1.323-9.151-2.757-8.159-3.858-12.238-10.032-9.151-13.78 67.252-71.994 74.419-71.002 76.844-70.671l1.103.11 1.323.552c4.079 1.874 9.702 4.52-49.613 83.9-1.874 2.425-6.174 3.307-11.356 2.646"/></g><path d="M3727.706 2551.13c-4.079 0-8.048-.993-11.466-2.867-9.481-5.292-12.127-16.096-5.843-24.035 130.315-154.019 139.907-154.019 143.105-154.019h1.433l1.543.772c4.741 2.646 11.246 6.284-111.573 172.431-3.858 4.851-10.253 7.717-17.199 7.717" fill="#78b5db"/><path d="M3718.997 2544.735c-7.277-3.969-9.261-12.238-4.41-18.302 0 0 131.969-156.113 139.245-152.034 7.277 4.079-113.006 166.698-113.006 166.698-3.087 3.859-8.048 5.953-13.12 5.953-2.976 0-6.063-.771-8.71-2.315" fill="url(#E)"/><path d="M3719.217 2453.558c-3.308 0-6.615-.772-9.482-2.425-7.827-4.41-10.032-13.23-4.85-19.845 107.273-126.898 115.21-126.898 117.857-126.898h1.212l1.323.661c3.97 2.206 9.261 5.182-91.838 142.003-3.197 4.189-8.489 6.504-14.222 6.504" fill="#78b5db"/><path d="M3712.05 2448.376c-5.953-3.307-7.607-10.032-3.638-15.104 0 0 108.707-128.551 114.66-125.244 5.954 3.308-93.05 137.261-93.05 137.261-2.536 3.198-6.616 4.851-10.805 4.851-2.536 0-4.961-.55-7.166-1.763" fill="url(#F)"/><path d="M3420.77 2621.58c-3.307 0-6.615-.772-9.481-2.426-7.828-4.41-10.033-13.23-4.851-19.845 107.273-126.898 115.211-126.898 117.857-126.898h1.213l1.323.661c3.969 2.206 9.26 5.182-91.839 142.003-3.197 4.079-8.489 6.504-14.222 6.504" fill="#9cb1bf"/><path d="M3417.573 2614.744c-3.308 0-6.615-.772-9.482-2.426-7.827-4.41-10.032-13.23-4.85-19.845 107.273-126.897 115.21-126.897 117.857-126.897h1.213l1.322.661c3.97 2.205 9.262 5.182-91.838 142.002-3.307 4.19-8.6 6.505-14.222 6.505" fill="#78b5db"/><path d="M3410.296 2609.562c-5.953-3.308-7.607-10.033-3.638-15.104 0 0 108.707-128.552 114.66-125.244 5.954 3.307-93.05 137.261-93.05 137.261-2.537 3.197-6.616 4.851-10.805 4.851-2.426.11-4.851-.551-7.167-1.764" fill="url(#G)"/><path d="M3637.632 2566.013c-3.087-.44-6.174-1.323-9.15-2.756-8.16-3.859-12.239-10.033-9.152-13.781 67.253-71.994 74.42-71.001 76.845-70.67l1.102.11 1.323.551c4.08 1.874 9.702 4.52-49.612 83.9-1.985 2.426-6.174 3.418-11.356 2.646" fill="#78b5db"/><path d="M3629.804 2561.713c-6.284-2.866-9.371-7.717-6.946-10.584 0 0 68.135-72.875 74.42-70.008 6.173 2.976-51.818 80.592-51.818 80.592-1.544 1.875-4.851 2.536-8.71 1.985-2.205-.22-4.63-.992-6.946-1.984" fill="url(#H)"/><path d="M3405.005 2522.023c-3.308 0-6.616-.771-9.482-2.315-7.828-4.41-10.033-13.23-4.851-19.845 107.383-126.898 115.322-126.898 117.857-126.898h1.213l1.323.662c3.969 2.205 9.371 5.182-91.838 142.002-3.308 3.969-8.6 6.394-14.222 6.394" fill="#78b5db"/><path d="M3397.838 2516.731c-5.953-3.307-7.607-10.032-3.638-15.104 0 0 108.707-128.551 114.66-125.244 5.953 3.308-93.051 137.261-93.051 137.261-2.536 3.198-6.615 4.852-10.805 4.852-2.535.11-5.071-.442-7.166-1.765" fill="url(#I)"/><path d="M4025.381 1999.108c-4.079 0-7.938.44-11.796 1.213-2.206-25.358-23.263-45.203-49.172-45.203-5.623 0-10.915 1.103-15.876 2.866-10.474-46.966-52.148-82.025-102.312-82.025-41.785 0-77.726 24.695-94.594 60.086-9.482-8.38-21.83-13.671-35.501-13.671-29.106 0-52.59 23.042-53.802 51.707-11.246-6.284-24.035-10.253-37.926-10.253-42.998 0-77.947 34.949-77.947 77.946 0 42.998 34.95 77.947 77.947 77.947h400.98c33.295 0 60.306-27.011 60.306-60.307.11-33.295-26.901-60.306-60.307-60.306" fill="#9cb1bf"/><path d="M4017.994 1986.87c-3.969 0-7.938.441-11.796 1.213-2.205-25.358-23.263-45.203-49.172-45.203-5.622 0-10.914 1.103-15.876 2.867-10.474-46.967-52.148-82.026-102.312-82.026-41.785 0-77.616 24.696-94.484 60.196-9.482-8.379-21.83-13.67-35.5-13.67-28.996 0-52.59 23.041-53.803 51.706-11.245-6.284-24.144-10.253-37.926-10.253-42.997 0-77.946 34.84-77.946 77.947 0 43.108 34.949 77.837 77.946 77.837h400.98c33.295 0 60.417-27.012 60.417-60.307-.22-33.296-27.232-60.307-60.528-60.307" fill="url(#J)"/><path d="M3708.964 1911.459c13.56 0 25.578 5.402 34.618 13.34 1.985-4.19 5.513-7.166 8.159-11.025 2.646-3.858 6.174-9.04 9.371-12.568 18.302-21.499 45.092-35.17 75.08-35.942 8.6-.22 16.979.662 25.137 2.426 38.257 8.489 68.576 38.367 77.837 76.624 4.63-.993 9.481-1.434 14.663-.882 2.646 0 5.623 1.653 8.048 2.094 2.426.441 6.174.662 8.49 1.434 2.756.661 5.291 1.543 7.827 2.756 11.577 5.402 20.727 15.766 24.366 28.555.771 2.315 1.433 6.174 1.874 8.71.11.881.551 1.543.661 2.425 1.654-.331 4.41-.772 6.064-.992 2.095-.221 4.3-.441 6.395-.441 17.75 0 33.626 8.489 43.328 21.168 9.702 12.678 13.34 28.554 10.363 43.328 0 29.547-30.76 53.581-60.306 53.581h-384.773c-38.257 0-77.947-30.98-77.947-69.237-3.969-19.183.552-39.8 13.01-56.337 12.568-16.648 33.075-27.673 56.227-27.673 10.584 0 20.617 2.315 29.768 6.394 2.536 1.103 6.064 2.867 8.489 4.3.11-2.095.992-3.748 1.323-5.733.882-5.071 2.646-11.907 4.961-16.317 8.159-17.64 26.13-29.988 46.967-29.988" fill="url(#K)"/><path d="M3709.294 1912.672c13.451 0 25.138 5.402 33.737 13.01 1.764-3.75 6.284-5.072 8.49-8.38 2.314-3.417 6.283-9.702 9.04-12.678 17.53-22.05 43.659-36.273 73.096-37.816 8.489-.441 16.757.22 24.806 1.764 38.146 7.387 68.796 36.493 78.608 74.308 4.3-.22 8.82 0 13.45 1.103 2.316 0 5.182 2.977 7.387 3.307 2.205.441 6.836 0 8.93.772 2.977.441 5.734 1.103 8.38 2.095 12.568 4.74 22.49 15.766 25.908 29.326.662 2.095 1.434 7.056 1.764 9.151.11.772.882 1.323.993 2.095 1.433-.331 4.96-.882 6.394-1.103 2.205-.33 4.52-.44 6.836-.44 18.852 0 35.39 10.142 43.879 24.695 8.49 14.443 8.93 31.09 3.087 44.1 0 25.909-34.398 46.856-60.307 46.856h-368.565c-33.516 0-77.837-27.121-77.837-60.527-7.938-16.758-7.717-38.477 3.308-57.66 11.025-19.074 32.634-32.524 57.33-32.524 10.584 0 20.727 2.425 30.098 6.725 2.205.992 6.505 3.197 8.6 4.41.11-1.874 1.653-2.866 1.984-4.63.772-4.41 2.425-12.79 4.41-16.648 7.166-18.191 25.137-31.311 46.195-31.311" fill="url(#L)"/><path d="M3709.515 1913.995c13.34 0 24.696 5.512 32.855 12.679 1.543-3.198 6.945-2.867 8.93-5.844 1.984-2.866 6.284-10.253 8.6-12.789 16.757-22.49 42.225-37.375 71.22-39.69 8.27-.661 16.538-.22 24.586 1.103 37.926 6.394 69.127 34.728 79.49 71.993a45.66 45.66 0 0 1 12.128 3.087c1.985 0 4.851 4.3 6.725 4.63 1.875.331 7.608-.55 9.261.11 3.087.111 6.064.662 8.82 1.544 13.561 4.08 24.366 15.656 27.563 30.098.551 1.764 1.323 7.828 1.654 9.702.11.662 1.212.993 1.323 1.654 1.212-.22 5.512-1.102 6.725-1.213 2.315-.33 4.74-.55 7.166-.55 19.955 0 37.154 11.796 44.431 28.113 7.276 16.317 4.63 33.626-4.19 44.761 0 22.16-38.036 40.131-60.306 40.131h-352.36c-28.664 0-77.836-23.262-77.836-51.927-12.017-14.333-15.876-37.265-6.505-58.874 9.372-21.609 32.193-37.375 58.433-37.375 10.584 0 20.837 2.536 30.319 7.056 1.874.772 6.945 3.528 8.71 4.52.11-1.543 2.425-1.874 2.645-3.417.662-3.749 2.205-13.56 3.86-16.868 6.504-18.853 24.475-32.634 45.753-32.634" fill="url(#M)"/><path d="M3709.735 1915.207c13.23 0 24.255 5.513 31.973 12.459 1.213-2.646 7.607-.772 9.261-3.197 1.654-2.426 6.284-10.805 8.269-12.9 15.986-23.042 40.792-38.477 69.237-41.454 8.158-.882 16.317-.661 24.255.441 37.815 5.292 69.347 32.855 80.372 69.678a49.004 49.004 0 0 1 10.915 5.182c1.653 0 4.52 5.623 6.063 5.954 1.544.33 8.27-1.213 9.702-.662 3.308-.11 6.395.22 9.372.882 14.553 3.418 26.129 15.545 29.106 30.87.44 1.433 1.323 8.6 1.543 10.143.11.551 1.544.772 1.654 1.323 1.103-.22 6.064-1.213 7.166-1.323 2.426-.33 4.961-.661 7.497-.661 21.058 0 39.029 13.56 45.092 31.641 6.064 18.081.221 36.162-11.466 45.423 0 18.522-41.784 33.516-60.196 33.516h-336.152c-23.925 0-77.837-19.294-77.837-43.218-15.986-11.907-24.145-36.052-16.317-60.196 7.828-24.145 31.642-42.226 59.645-42.226 10.695 0 20.948 2.536 30.54 7.387 1.653.661 7.386 3.859 8.82 4.74.11-1.322 3.087-.992 3.307-2.204.551-3.198 1.874-14.443 3.418-17.2 5.292-19.955 23.373-34.397 44.761-34.397" fill="url(#N)"/><path d="M3709.956 1916.53c13.23 0 23.704 5.623 31.09 12.128.993-2.095 8.27 1.323 9.592-.551 1.323-1.985 6.285-11.356 7.828-13.12 15.104-23.593 39.47-39.58 67.363-43.328 7.938-1.103 15.986-1.103 24.034-.22 37.706 4.189 69.568 31.09 81.144 67.362 3.308 1.874 6.505 4.19 9.702 7.166 1.323 0 4.19 7.056 5.403 7.277 1.212.22 8.93-1.764 10.143-1.323 3.528-.441 6.725-.331 9.922.33 15.545 2.757 28.004 15.436 30.76 31.642.33 1.213 1.323 9.371 1.433 10.694.11.442 1.874.442 1.985.883.882-.221 6.615-1.323 7.497-1.434a46.273 46.273 0 0 1 7.938-.661c22.16 0 40.792 15.214 45.643 35.06 4.851 19.844-4.08 38.697-18.853 46.084 0 14.773-45.423 26.79-60.196 26.79h-319.946c-19.073 0-77.726-15.434-77.726-34.618-19.955-9.592-32.413-34.839-26.13-61.41 6.285-26.68 31.202-47.186 60.749-47.186 10.694 0 21.057 2.646 30.76 7.607 1.322.551 7.827 4.19 8.93 4.851 0-.992 3.748 0 3.858-.992.441-2.536 1.654-15.325 2.867-17.42 4.52-20.506 22.711-35.61 44.21-35.61" fill="url(#O)"/><path d="M3710.287 1917.743c13.12 0 23.263 5.733 30.208 11.797.772-1.544 9.04 3.528 10.033 1.984.992-1.433 6.284-11.906 7.497-13.23 14.332-24.144 38.036-40.682 65.378-45.202 7.828-1.323 15.766-1.654 23.704-.882 37.595 3.197 69.898 29.216 82.026 65.047 2.977 2.646 5.733 5.623 8.379 9.151.992 0 3.859 8.38 4.74 8.49.883.22 9.592-2.316 10.474-2.095 3.749-.662 7.167-.772 10.364-.331 16.537 2.095 29.878 15.325 32.303 32.524.331.882 1.213 10.253 1.323 11.135 0 .33 2.205.22 2.315.551.662-.11 7.167-1.433 7.828-1.543 2.646-.441 5.402-.772 8.269-.772 23.263 0 42.556 16.978 46.195 38.587 3.638 21.61-8.49 41.234-26.13 46.857 0 11.135-49.06 20.065-60.196 20.065h-303.739c-14.332 0-77.726-11.576-77.726-25.909-23.924-7.166-40.572-33.516-35.831-62.732 4.74-29.216 30.76-52.038 61.85-52.038 10.694 0 21.168 2.756 30.98 7.938.993.441 8.159 4.52 9.151 4.961 0-.771 4.41.882 4.52.11.331-1.873 1.434-16.096 2.316-17.75 3.748-20.837 21.94-36.713 43.769-36.713" fill="url(#P)"/><path d="M3710.507 1919.066c13.01 0 22.822 5.733 29.327 11.466.551-1.102 9.702 5.623 10.363 4.63.662-.991 6.285-12.457 7.056-13.34 13.561-24.695 36.603-41.784 63.504-47.076a87.805 87.805 0 0 1 23.484-1.544c37.485 2.095 70.119 27.342 82.908 62.732 2.646 3.418 4.96 7.056 7.166 11.136.661 0 3.528 9.702 4.079 9.812.662.11 10.364-2.977 10.915-2.756 3.859-.882 7.497-1.213 10.915-.993 17.419 1.434 31.641 15.215 33.956 33.296.221.551 1.213 11.025 1.213 11.576 0 .22 2.646-.11 2.646.11.441-.11 7.718-1.543 8.159-1.543 2.756-.441 5.623-.772 8.6-.772 24.254 0 44.43 18.632 46.855 42.005 2.426 23.373-12.788 43.88-33.405 47.518 0 7.387-52.7 13.34-60.197 13.34H3680.52c-9.591 0-77.726-7.717-77.726-17.309-28.003-4.74-48.84-32.303-45.644-64.055 3.088-31.642 30.209-56.889 62.953-56.889 10.805 0 21.279 2.866 31.201 8.269.661.22 8.6 4.74 9.261 5.182 0-.552 5.072 1.874 5.182 1.323.22-1.213 1.212-16.979 1.764-18.081 2.756-21.5 21.057-38.037 42.997-38.037" fill="url(#Q)"/><path d="M3710.728 1920.279c12.899 0 22.38 5.843 28.444 11.135.22-.551 10.364 7.718 10.695 7.277.33-.441 6.284-13.01 6.725-13.45 12.789-25.248 35.17-42.888 61.63-48.952 7.496-1.764 15.324-2.536 23.152-2.315 37.375 1.103 70.45 25.578 83.68 60.417 2.315 4.08 4.3 8.49 5.843 13.12.33 0 3.087 11.025 3.418 11.135.33.11 11.025-3.528 11.356-3.418 4.079-1.213 7.827-1.764 11.466-1.543 18.411.661 33.515 15.104 35.5 34.067.11.33 1.103 11.797 1.213 12.127 0 .11 2.977-.33 2.977-.22.22 0 8.268-1.654 8.489-1.654 2.866-.551 5.953-.882 8.93-.882 25.358 0 46.195 20.286 47.407 45.533 1.213 25.137-17.198 46.416-40.682 48.18 0 3.748-56.448 6.725-60.086 6.725H3689.67c-4.74 0-77.726-3.859-77.726-8.6-31.973-2.425-57-31.09-55.456-65.267 1.543-34.178 29.767-61.74 64.165-61.74 10.805 0 21.389 2.866 31.422 8.599.33.11 9.04 5.071 9.371 5.292 0-.22 5.733 2.756 5.843 2.536.11-.662.992-17.75 1.323-18.302 1.764-22.49 19.955-39.8 42.116-39.8" fill="url(#R)"/><path d="M4013.915 2096.128h-392.82c-35.942 0-65.268-29.878-65.268-66.591 0-36.713 29.326-66.591 65.267-66.591 10.805 0 21.5 2.977 31.642 8.82l15.876 9.15.772-18.632c.882-22.822 19.183-40.792 41.564-40.792 12.79 0 21.94 5.843 27.453 10.915l11.135 9.922 6.394-13.56c15.325-33.076 46.967-53.693 82.578-53.693 42.446 0 79.93 30.76 89.192 73.206l2.756 12.459 11.687-4.19c4.3-1.433 8.158-2.205 11.906-2.205 19.405 0 35.28 14.994 37.155 34.84l1.102 12.568 12.128-2.426c3.087-.551 6.174-.992 9.371-.992 26.46 0 48.069 22.05 48.069 48.951s-21.499 48.84-47.959 48.84" fill="url(#S)"/><path d="M3952.837 2183.556c-5.513 0-10.915.551-16.097 1.654-3.087-34.729-31.972-61.85-67.362-61.85-7.718 0-14.884 1.543-21.72 3.858-14.332-64.275-71.552-112.344-140.127-112.344-57.33 0-106.392 33.846-129.544 82.356-13.01-11.466-29.988-18.742-48.73-18.742-39.801 0-71.994 31.531-73.758 70.89-15.435-8.599-33.075-14.001-52.038-14.001-58.874 0-106.722 47.738-106.722 106.832 0 58.984 47.848 106.722 106.722 106.722h549.265c45.644 0 82.688-37.044 82.688-82.577 0-45.754-36.934-82.798-82.577-82.798" fill="#9cb1bf"/><path d="M3940.71 2168.452c-5.513 0-10.916.551-16.097 1.653-3.087-34.618-31.973-61.85-67.363-61.85-7.607 0-14.884 1.544-21.72 3.859-14.332-64.276-71.552-112.345-140.127-112.345-57.33 0-106.391 33.847-129.544 82.357-13.01-11.466-29.988-18.632-48.73-18.632-39.8 0-71.994 31.531-73.758 70.89-15.435-8.71-32.964-14.112-52.038-14.112-58.983 0-106.722 47.849-106.722 106.722 0 58.984 47.739 106.722 106.722 106.722H3940.6c45.643 0 82.687-37.044 82.687-82.687.11-45.533-36.933-82.577-82.577-82.577" fill="url(#T)"/><path d="M3517.46 2065.148c18.632 0 35.059 7.276 47.517 18.301 2.757-5.843 7.608-9.812 11.136-15.104 3.638-5.292 8.489-12.458 12.789-17.2 25.137-29.326 61.74-48.178 102.863-49.17 11.356-.331 22.49.771 33.185 3.086 52.92 11.246 94.925 52.48 107.714 105.289 6.395-1.323 13.01-1.984 19.956-1.213 3.638 0 7.607 2.205 11.025 2.867 3.417.551 8.489.882 11.686 1.984 3.748.882 7.387 2.205 10.805 3.749 15.986 7.387 28.334 21.719 33.405 39.139 1.103 3.197 1.985 8.489 2.536 11.907.22 1.102.992 2.094 1.103 3.307 2.094-.441 5.512-.992 7.717-1.213 3.087-.33 6.174-.551 9.261-.551 24.255 0 45.974 11.576 59.204 28.996 13.34 17.42 18.302 39.139 14.223 59.425 0 40.572-44.321 73.426-84.893 73.426h-536.587c-57.881 0-104.847-46.966-104.847-105.068 0-57.992 46.966-105.068 104.847-105.068 14.553 0 28.224 3.197 40.903 8.82 3.528 1.433 8.269 3.969 11.576 5.843.11-2.867 1.434-5.182 1.875-7.938 1.212-6.946 3.638-16.317 6.725-22.27 11.135-24.366 35.72-41.344 64.276-41.344" fill="url(#U)"/><path d="M3517.79 2066.912c18.412 0 34.398 7.386 46.195 17.86 2.425-5.072 8.6-6.946 11.687-11.576 3.086-4.63 8.489-13.23 12.347-17.42 24.035-30.098 59.756-49.612 100.218-51.707a142.63 142.63 0 0 1 32.964 2.205c52.7 9.922 95.256 49.943 108.707 102.091 5.953-.33 12.017 0 18.301 1.544 3.198 0 7.167 4.08 10.143 4.63 2.977.552 9.372.11 12.238 1.103 4.08.551 7.828 1.544 11.466 2.867 17.2 6.504 30.87 21.609 35.5 40.24.883 2.867 1.985 9.593 2.426 12.57.11.992 1.544 1.763 1.654 2.756 1.874-.331 6.174-1.103 8.048-1.323a70.525 70.525 0 0 1 9.702-.662c25.799 0 48.4 13.892 60.086 33.737 11.687 19.845 12.348 42.556 4.19 60.306 0 35.5-51.707 64.276-87.208 64.276h-523.908c-56.779 0-102.863-46.195-102.863-103.304 0-57 46.084-103.304 102.863-103.304 14.553 0 28.445 3.307 41.234 9.26 3.087 1.324 8.93 4.41 11.796 6.064.11-2.535 2.316-3.858 2.757-6.394 1.102-6.064 3.307-17.42 6.063-22.712 9.923-25.247 34.509-43.107 63.394-43.107" fill="url(#V)"/><path d="M3518.121 2068.565c18.302 0 33.736 7.497 44.982 17.42 2.095-4.3 9.482-3.97 12.238-7.938 2.646-3.97 8.6-14.002 11.797-17.53 22.931-30.87 57.88-51.156 97.57-54.243 11.026-.882 21.94-.441 32.745 1.323 52.479 8.49 95.477 47.518 109.809 98.894 5.402.662 11.025 1.875 16.538 4.19 2.756 0 6.614 5.843 9.26 6.394 2.536.441 10.364-.771 12.79.11 4.3.11 8.268.883 12.237 2.095 18.633 5.623 33.406 21.389 37.706 41.344.772 2.426 1.874 10.694 2.205 13.23.11.882 2.205 1.323 2.315 2.205 1.544-.33 6.835-1.323 8.379-1.433 3.308-.441 6.725-.772 10.143-.772 27.342 0 50.935 16.207 60.858 38.477 9.922 22.27 6.284 46.085-5.733 61.3 0 30.428-58.984 55.124-89.413 55.124h-511.229c-55.676 0-100.989-45.423-100.989-101.54 0-56.007 45.203-101.54 100.989-101.54 14.553 0 28.555 3.418 41.564 9.702 2.646 1.102 9.482 4.85 11.907 6.174.11-2.205 3.308-2.646 3.639-4.741.882-5.182 2.976-18.522 5.292-23.042 8.599-26.35 33.295-45.203 62.401-45.203" fill="url(#W)"/><path d="M3518.452 2070.33c18.191 0 33.185 7.607 43.769 16.978 1.764-3.638 10.474-1.103 12.679-4.41 2.205-3.308 8.6-14.774 11.245-17.75 21.83-31.642 56.007-52.7 94.926-56.78 10.804-1.212 21.719-.991 32.413.442 52.259 7.056 95.697 44.982 110.801 95.697 4.962 1.654 9.923 3.748 14.884 6.946 2.315 0 6.174 7.717 8.269 8.158 2.095.33 11.356-1.543 13.34-.882 4.52-.22 8.82.22 12.9 1.213 19.955 4.74 35.83 21.278 39.91 42.336.661 1.984 1.764 11.797 2.095 13.891.11.662 2.866.882 2.866 1.654 1.323-.22 7.387-1.433 8.82-1.544 3.418-.55 7.056-.882 10.584-.882 28.775 0 53.361 18.522 61.63 43.218 8.269 24.696.33 49.613-15.766 62.292 0 25.357-66.37 45.864-91.728 45.864h-498.55c-54.684 0-99.005-44.652-99.005-99.777s44.43-99.776 99.005-99.776c14.663 0 28.665 3.528 41.784 10.033 2.205.882 10.033 5.182 12.128 6.394.11-1.764 4.19-1.323 4.52-3.087.772-4.3 2.646-19.734 4.63-23.483 7.828-26.9 32.524-46.746 61.85-46.746" fill="url(#X)"/><path d="M3518.782 2072.093c17.971 0 32.524 7.607 42.557 16.538 1.323-2.867 11.466 1.874 13.23-.772 1.764-2.646 8.6-15.545 10.805-17.97 20.727-32.304 54.022-54.244 92.389-59.315 10.694-1.433 21.499-1.654 32.193-.441 52.038 5.623 96.028 42.556 111.904 92.5 4.52 2.646 8.93 5.733 13.12 9.591 1.764 0 5.622 9.592 7.386 9.923 1.654.33 12.238-2.315 13.892-1.764 4.85-.551 9.26-.441 13.56.33 21.279 3.86 38.368 21.169 42.116 43.439.551 1.654 1.764 12.789 1.985 14.553.11.551 3.528.441 3.528 1.103 1.102-.221 8.048-1.544 9.15-1.654 3.639-.551 7.277-.992 11.025-.992 30.319 0 55.787 20.837 62.512 48.069 6.615 27.121-5.623 53.03-25.798 63.173 0 20.286-73.647 36.713-93.933 36.713H3394.53c-53.582 0-97.13-43.88-97.13-98.012 0-54.133 43.548-98.123 97.13-98.123 14.663 0 28.885 3.639 42.115 10.474 1.764.772 10.584 5.623 12.238 6.615.11-1.433 5.182-.11 5.402-1.433.552-3.418 2.316-20.837 3.859-23.814 6.284-28.004 31.09-48.73 60.638-48.73" fill="url(#Y)"/><path d="M3519.224 2073.857c17.86 0 31.972 7.718 41.343 16.097.993-2.205 12.348 4.74 13.671 2.756 1.323-1.984 8.6-16.317 10.254-18.081 19.734-33.075 52.148-55.676 89.743-61.85 10.474-1.764 21.278-2.205 31.973-1.323 51.817 4.19 96.248 40.02 112.895 89.412 4.08 3.528 7.828 7.608 11.467 12.348 1.322 0 5.181 11.466 6.504 11.687 1.323.22 13.23-3.197 14.443-2.756 5.072-.993 9.812-1.103 14.333-.552 22.6 2.867 40.902 20.948 44.21 44.541.44 1.213 1.654 13.892 1.874 15.215.11.441 4.08.11 4.19.441.771-.11 8.71-1.654 9.591-1.764a66.165 66.165 0 0 1 11.466-.992c31.752 0 58.323 23.152 63.284 52.81 4.961 29.657-11.576 56.558-35.721 64.165 0 15.214-81.034 27.562-96.248 27.562h-473.193c-52.48 0-95.146-43.107-95.146-96.358 0-53.14 42.667-96.359 95.146-96.359 14.773 0 28.995 3.749 42.446 10.915 1.323.551 11.135 6.064 12.348 6.725 0-1.102 6.064 1.213 6.284.11.441-2.645 1.985-21.939 3.197-24.254 4.851-28.776 29.768-50.495 59.646-50.495" fill="url(#Z)"/><path d="M3519.554 2075.621c17.75 0 31.311 7.828 40.131 15.656.662-1.434 13.34 7.717 14.222 6.394.882-1.323 8.6-17.089 9.702-18.301 18.633-33.847 50.164-57.22 87.098-64.386 10.364-2.095 20.948-2.757 31.752-2.205 51.487 2.866 96.469 37.485 113.888 86.215a102.93 102.93 0 0 1 9.702 14.994c.882 0 4.741 13.23 5.623 13.45.882.111 14.222-3.968 14.994-3.638 5.402-1.323 10.253-1.764 14.994-1.433 23.924 1.985 43.328 20.837 46.415 45.533.22.772 1.654 14.994 1.764 15.876 0 .331 4.741-.33 4.741-.11.551-.11 9.371-1.874 9.923-1.874 3.858-.661 7.938-1.103 11.907-1.103 33.295 0 60.747 25.468 64.055 57.551 3.307 32.083-17.53 59.976-45.754 65.047 0 10.144-88.31 18.412-98.453 18.412h-460.404c-51.377 0-93.272-42.336-93.272-94.594 0-52.149 41.785-94.595 93.272-94.595 14.773 0 29.216 3.859 42.777 11.356.882.33 11.797 6.505 12.568 6.946 0-.772 7.056 2.535 7.167 1.764.33-1.764 1.653-23.153 2.425-24.586 3.749-29.767 28.665-52.369 58.763-52.369" fill="url(#aa)"/><path d="M3519.885 2077.275c17.64 0 30.76 7.938 38.918 15.325.331-.772 14.223 10.584 14.664 9.922.44-.661 8.599-17.86 9.15-18.522 17.53-34.618 48.29-58.763 84.452-66.921 10.143-2.316 20.727-3.418 31.421-3.087 51.266 1.433 96.8 35.059 114.99 83.018 3.088 5.512 5.734 11.466 8.049 17.75.441 0 4.19 15.104 4.63 15.215.442.11 15.105-4.741 15.546-4.631 5.623-1.654 10.694-2.425 15.655-2.205 25.248.992 45.864 20.727 48.62 46.636.11.44 1.544 16.096 1.654 16.537 0 .11 5.403-.771 5.403-.661.22 0 10.032-1.985 10.363-1.985 3.969-.771 8.159-1.212 12.348-1.212 34.839 0 63.283 27.783 64.937 62.29 1.654 34.509-23.483 63.505-55.676 66.04 0 5.072-95.697 9.151-100.769 9.151h-447.725c-50.274 0-91.287-41.564-91.287-92.83s41.013-92.941 91.287-92.941c14.774 0 29.327 3.969 43.108 11.687.441.22 12.348 6.835 12.679 7.056 0-.331 8.048 3.748 8.048 3.417.11-.882 1.323-24.255 1.764-25.026 2.426-30.43 27.342-54.023 57.771-54.023" fill="url(#ab)"/><path d="M3935.197 2318.061h-538.02c-49.282 0-89.413-40.792-89.413-91.067 0-50.273 40.131-91.176 89.413-91.176 14.884 0 29.437 4.079 43.438 12.127l21.83 12.348.992-25.357c1.213-31.311 26.24-55.897 56.889-55.897 17.42 0 30.098 8.048 37.706 14.884l15.214 13.56 8.71-18.632c21.168-45.312 64.386-73.536 113.006-73.536 58.102 0 109.589 42.225 122.267 100.217l3.749 16.978 16.096-5.622c5.844-2.095 11.246-3.087 16.428-3.087 26.57 0 48.4 20.616 50.825 47.738l1.433 17.199 16.648-3.308c4.19-.771 8.489-1.323 12.789-1.323 36.272 0 65.709 30.099 65.709 67.032 0 36.934-29.437 66.922-65.71 66.922" fill="url(#ac)"/></svg>