<svg xmlns="http://www.w3.org/2000/svg" viewBox="1095.9 6076.3 841.9 841.90004" width="841.9" height="841.9"><defs><linearGradient id="o" gradientUnits="userSpaceOnUse" y1="6588.59" x2="0" y2="6158.44" gradientTransform="matrix(1.05 0 0 1.05 -142.518 -266.013)"><stop stop-color="#cdd929"/><stop offset="1" stop-color="#feff9c"/></linearGradient><linearGradient id="v" gradientUnits="userSpaceOnUse" y1="6444.94" x2="0" y2="6273.35" gradientTransform="matrix(1.05 0 0 1.05 -142.518 -266.013)"><stop stop-color="#95b9cc"/><stop offset="1" stop-color="#cddee8"/></linearGradient><linearGradient id="w" gradientUnits="userSpaceOnUse" y1="6443.94" x2="0" y2="6274.34" gradientTransform="matrix(1.05 0 0 1.05 -142.518 -266.013)"><stop stop-color="#97bacd"/><stop offset="1" stop-color="#d0e1eb"/></linearGradient><linearGradient id="x" gradientUnits="userSpaceOnUse" y1="6442.95" x2="0" y2="6275.28" gradientTransform="matrix(1.05 0 0 1.05 -142.518 -266.013)"><stop stop-color="#99bbce"/><stop offset="1" stop-color="#d3e4ed"/></linearGradient><linearGradient id="i" gradientUnits="userSpaceOnUse" x1="1466.03" y1="6608.1" x2="1519.29" y2="6164.99" gradientTransform="matrix(1.05 0 0 1.05 -142.518 -266.013)"><stop stop-color="#a0ab0e"/><stop offset="1" stop-color="#e7e956"/></linearGradient><linearGradient id="j" gradientUnits="userSpaceOnUse" x1="1476.54" y1="6605.51" x2="1520.6" y2="6164.83" gradientTransform="matrix(1.05 0 0 1.05 -142.518 -266.013)"><stop stop-color="#a8b312"/><stop offset="1" stop-color="#ebed62"/></linearGradient><linearGradient id="y" gradientUnits="userSpaceOnUse" y1="6441.96" x2="0" y2="6276.17" gradientTransform="matrix(1.05 0 0 1.05 -142.518 -266.013)"><stop stop-color="#9bbccf"/><stop offset="1" stop-color="#d7e6f0"/></linearGradient><linearGradient id="k" gradientUnits="userSpaceOnUse" x1="1487.12" y1="6602.62" x2="1522.14" y2="6164.15" gradientTransform="matrix(1.05 0 0 1.05 -142.518 -266.013)"><stop stop-color="#afba17"/><stop offset="1" stop-color="#eef06d"/></linearGradient><linearGradient id="m" gradientUnits="userSpaceOnUse" x1="1499.81" y1="6595.38" x2="1517.09" y2="6161.12" gradientTransform="matrix(1.05 0 0 1.05 -142.518 -266.013)"><stop stop-color="#beca20"/><stop offset="1" stop-color="#f6f885"/></linearGradient><linearGradient id="n" gradientUnits="userSpaceOnUse" x1="1504.53" y1="6591.96" x2="1513.11" y2="6159.72" gradientTransform="matrix(1.05 0 0 1.05 -142.518 -266.013)"><stop stop-color="#c6d124"/><stop offset="1" stop-color="#fafb90"/></linearGradient><linearGradient id="l" gradientUnits="userSpaceOnUse" x1="1495.18" y1="6599.38" x2="1521.27" y2="6163.02" gradientTransform="matrix(1.05 0 0 1.05 -142.518 -266.013)"><stop stop-color="#b7c21b"/><stop offset="1" stop-color="#f2f479"/></linearGradient><linearGradient id="h" gradientUnits="userSpaceOnUse" x1="1455.09" y1="6611.25" x2="1517.76" y2="6165.34" gradientTransform="matrix(1.05 0 0 1.05 -142.518 -266.013)"><stop stop-color="#99a309"/><stop offset="1" stop-color="#e3e54a"/></linearGradient><linearGradient id="z" gradientUnits="userSpaceOnUse" y1="6440.96" x2="0" y2="6277.01" gradientTransform="matrix(1.05 0 0 1.05 -142.518 -266.013)"><stop stop-color="#9dbdd0"/><stop offset="1" stop-color="#dae9f2"/></linearGradient><linearGradient id="A" gradientUnits="userSpaceOnUse" y1="6439.97" x2="0" y2="6277.79" gradientTransform="matrix(1.05 0 0 1.05 -142.518 -266.013)"><stop stop-color="#9fbed0"/><stop offset="1" stop-color="#ddecf5"/></linearGradient><linearGradient id="g" gradientUnits="userSpaceOnUse" x1="1444.4" y1="6613.4" x2="1516.65" y2="6164.34" gradientTransform="matrix(1.05 0 0 1.05 -142.518 -266.013)"><stop stop-color="#919c05"/><stop offset="1" stop-color="#dfe23f"/></linearGradient><linearGradient id="B" gradientUnits="userSpaceOnUse" y1="6438.98" x2="0" y2="6278.52" gradientTransform="matrix(1.05 0 0 1.05 -142.518 -266.013)"><stop stop-color="#a1bfd1"/><stop offset="1" stop-color="#e0eff7"/></linearGradient><linearGradient id="C" gradientUnits="userSpaceOnUse" y1="6437.98" x2="0" y2="6279.2" gradientTransform="matrix(1.05 0 0 1.05 -142.518 -266.013)"><stop stop-color="#a3c0d2"/><stop offset="1" stop-color="#e4f1fa"/></linearGradient><linearGradient id="f" gradientUnits="userSpaceOnUse" x1="1433.66" y1="6615.31" x2="1515.74" y2="6162.56" gradientTransform="matrix(1.05 0 0 1.05 -142.518 -266.013)"><stop stop-color="#8a9400"/><stop offset="1" stop-color="#dbde33"/></linearGradient><linearGradient id="D" gradientUnits="userSpaceOnUse" y1="6436.99" x2="0" y2="6279.82" gradientTransform="matrix(1.05 0 0 1.05 -142.518 -266.013)"><stop stop-color="#a5c1d3"/><stop offset="1" stop-color="#e7f4fc"/></linearGradient><linearGradient id="E" gradientUnits="userSpaceOnUse" y1="6436" x2="0" y2="6280.39" gradientTransform="matrix(1.05 0 0 1.05 -142.518 -266.013)"><stop stop-color="#a7c2d4"/><stop offset="1" stop-color="#eaf7ff"/></linearGradient><linearGradient id="c" gradientUnits="userSpaceOnUse" y1="6149.04" x2="0" y2="6129.52"><stop stop-color="#e4e655"/><stop offset="1" stop-color="#f0f2ac"/></linearGradient><linearGradient id="d" gradientUnits="userSpaceOnUse" y1="6143.49" x2="0" y2="6134.16"><stop stop-color="#dbde33"/><stop offset="1" stop-color="#f0f2ac"/></linearGradient><linearGradient id="b" gradientUnits="userSpaceOnUse" y1="6154.6" x2="0" y2="6124.88"><stop stop-color="#edef77"/><stop offset="1" stop-color="#f0f2ac"/></linearGradient><linearGradient id="p" gradientUnits="userSpaceOnUse" x1="1441.24" y1="6579.5" x2="1600.59" y2="6738.84" gradientTransform="matrix(1.05 0 0 1.05 -142.518 -266.013)"><stop stop-color="#e6fcff"/><stop offset="1" stop-color="#85cfff"/></linearGradient><linearGradient id="q" gradientUnits="userSpaceOnUse" x1="1447.03" y1="6586.7" x2="1594.36" y2="6734.04" gradientTransform="matrix(1.05 0 0 1.05 -142.518 -266.013)"><stop stop-color="#eafdff"/><stop offset="1" stop-color="#99d7ff"/></linearGradient><linearGradient id="a" gradientUnits="userSpaceOnUse" y1="6160.15" x2="0" y2="6120.24"><stop stop-color="#f5f798"/><stop offset="1" stop-color="#f0f2ac"/></linearGradient><linearGradient id="r" gradientUnits="userSpaceOnUse" x1="1452.81" y1="6593.91" x2="1588.13" y2="6729.23" gradientTransform="matrix(1.05 0 0 1.05 -142.518 -266.013)"><stop stop-color="#eefdff"/><stop offset="1" stop-color="#aedfff"/></linearGradient><linearGradient id="s" gradientUnits="userSpaceOnUse" x1="1458.59" y1="6601.11" x2="1581.91" y2="6724.42" gradientTransform="matrix(1.05 0 0 1.05 -142.518 -266.013)"><stop stop-color="#f3feff"/><stop offset="1" stop-color="#c2e7ff"/></linearGradient><linearGradient id="e" gradientUnits="userSpaceOnUse" y1="6165.7" x2="0" y2="6115.6"><stop stop-color="#feffba"/><stop offset="1" stop-color="#f0f2ac"/></linearGradient><linearGradient id="t" gradientUnits="userSpaceOnUse" x1="1464.38" y1="6608.32" x2="1575.68" y2="6719.62" gradientTransform="matrix(1.05 0 0 1.05 -142.518 -266.013)"><stop stop-color="#f7feff"/><stop offset="1" stop-color="#d6efff"/></linearGradient><linearGradient id="u" gradientUnits="userSpaceOnUse" x1="1470.16" y1="6615.52" x2="1569.45" y2="6714.81" gradientTransform="matrix(1.05 0 0 1.05 -142.518 -266.013)"><stop stop-color="#fbfeff"/><stop offset="1" stop-color="#ebf7ff"/></linearGradient></defs><path d="M1383.972 6135.312c-39.69-7.14-78.645-5.565-115.395 3.045 60.9 14.7 110.565 56.385 141.435 112.56 31.08 56.175 43.575 127.05 30.24 200.13-10.815 59.745-37.17 111.93-72.87 151.725-35.805 39.795-80.955 67.305-129.99 77.805 14.7 5.25 29.715 9.765 45.36 12.705 38.43 6.93 76.65 5.775 112.56-2.205 35.91-8.085 69.72-23.1 99.435-43.68 59.535-41.37 103.425-105.315 117.495-182.385 13.965-76.965-4.515-152.355-45.885-211.995-41.475-59.64-105.42-103.635-182.385-117.705" fill="#9cb1bf"/><path d="M1376.622 6126.912c-39.69-7.14-78.645-5.565-115.395 3.045 60.9 14.7 110.565 56.385 141.435 112.56 31.08 56.175 43.575 127.05 30.24 200.13-10.815 59.745-37.17 111.93-72.87 151.725-35.805 39.795-80.955 67.305-129.99 77.805 14.7 5.25 29.715 9.765 45.36 12.705 38.43 6.93 76.65 5.775 112.56-2.205 35.91-8.085 69.72-23.1 99.435-43.68 59.535-41.37 103.425-105.315 117.495-182.385 13.965-76.965-4.515-152.355-45.885-211.995-41.475-59.64-105.42-103.635-182.385-117.705" fill="url(#f)"/><path d="M1269.207 6131.112c10.5-2.1 21.105-3.57 31.92-4.41 28.35-2.205 57.225-.21 85.995 6.51 71.61 14.595 131.145 56.385 170.1 112.455 41.055 59.115 59.43 133.98 45.57 210.42-13.755 75.6-56.385 138.495-114.555 179.55-28.98 20.475-61.95 35.49-97.02 43.89-34.965 8.19-72.135 9.87-109.725 3.78l-5.355-.945c-13.44-2.52-26.355-6.3-39.06-10.5 47.88-11.55 91.875-39.375 126.735-78.96 34.86-39.69 60.48-91.14 71.085-149.835 13.125-72.03 1.26-141.855-28.665-197.715-29.82-55.965-77.91-97.965-137.025-114.24" fill="url(#g)"/><path d="M1277.187 6132.372c10.92-1.785 21.84-2.94 32.865-3.36a275.736 275.736 0 0 1 87.465 10.605c66.255 15.12 121.485 54.705 157.92 107.31 40.74 58.695 59.01 133.035 45.255 208.845-13.44 74.025-54.915 135.87-111.615 176.61-28.245 20.37-60.375 35.385-94.71 43.995a279.81 279.81 0 0 1-106.89 5.355c-1.785-.21-3.465-.525-5.25-.84-13.02-2.205-25.83-5.565-38.325-9.45 46.725-12.6 89.565-40.74 123.48-80.01 34.02-39.585 58.905-90.3 69.3-148.05 12.915-70.875 1.68-139.755-27.09-195.3-28.56-55.545-74.97-97.86-132.405-115.71" fill="url(#h)"/><path d="M1285.167 6133.527c11.235-1.47 22.575-2.205 33.915-2.31 30.24 0 60.165 4.935 88.83 14.595 60.9 15.645 111.72 53.025 145.74 102.06 40.425 58.38 58.59 132.09 44.94 207.375-13.125 72.45-53.445 133.245-108.57 173.67-27.51 20.16-58.8 35.28-92.295 44.205-33.075 8.61-68.25 11.445-104.055 6.93-1.68-.21-3.465-.42-5.145-.735-12.705-1.89-25.2-4.83-37.485-8.4 45.675-13.65 87.36-42.105 120.225-81.165 33.075-39.375 57.33-89.565 67.515-146.16 12.705-69.825 2.1-137.655-25.515-192.885-27.51-55.125-72.345-97.755-128.1-117.18" fill="url(#i)"/><path d="M1293.147 6134.787a278.038 278.038 0 0 1 34.965-1.26c31.185 1.05 61.635 7.455 90.3 18.69 55.545 16.17 101.955 51.345 133.56 96.915 40.11 57.96 58.17 131.145 44.625 205.8-12.915 70.875-51.975 130.62-105.63 170.73-26.775 20.055-57.33 35.28-89.985 44.415-32.025 8.82-66.255 12.18-101.22 8.505l-5.04-.63c-12.39-1.575-24.675-4.2-36.75-7.35 44.52-14.7 85.05-43.47 116.97-82.32 32.235-39.27 55.65-88.725 65.73-144.27 12.495-68.67 2.52-135.555-23.94-190.47-26.355-54.81-69.51-97.755-123.585-118.755" fill="url(#j)"/><path d="M1301.232 6135.942c11.97-.84 24.045-.945 35.91-.21 32.13 2.205 63.105 9.975 91.77 22.785 50.19 16.695 92.295 49.665 121.38 91.77 39.795 57.54 57.75 130.095 44.31 204.225-12.6 69.3-50.505 127.995-102.69 167.79-26.04 19.95-55.755 35.175-87.57 44.52-31.08 9.03-64.26 12.915-98.28 10.185-1.575-.105-3.255-.315-4.83-.42-12.075-1.26-24.045-3.465-35.91-6.3 43.47-15.75 82.74-44.835 113.715-83.37 31.29-39.06 54.075-87.885 63.945-142.485 12.285-67.62 3.045-133.455-22.47-188.055-25.515-54.6-66.99-97.86-119.28-120.435" fill="url(#k)"/><path d="M1309.212 6137.202c12.39-.525 24.675-.315 36.96.84 33.075 3.255 64.47 12.495 93.24 26.775 44.73 17.22 82.53 48.09 109.2 86.52 39.585 57.12 57.33 129.15 43.995 202.755-12.285 67.83-49.035 125.37-99.75 164.85a266.249 266.249 0 0 1-85.26 44.73c-30.135 9.345-62.37 13.65-95.445 11.76l-4.725-.315c-11.76-.945-23.52-2.73-35.175-5.25 42.42-16.8 80.43-46.2 110.46-84.525 30.45-38.955 52.5-87.045 62.16-140.595 12.075-66.57 3.465-131.355-20.895-185.64-24.255-54.18-64.155-97.86-114.765-121.905" fill="url(#l)"/><path d="M1317.192 6138.357c12.705-.315 25.41.42 38.01 1.89 34.02 4.41 65.94 15.015 94.605 30.87 39.375 17.85 72.765 46.41 97.02 81.375 39.27 56.7 56.91 128.205 43.68 201.18-12.075 66.255-47.565 122.745-96.81 161.91-24.57 19.635-52.71 34.965-82.845 44.94-29.19 9.555-60.375 14.49-92.61 13.335-1.575-.105-3.045-.105-4.62-.21-11.445-.63-22.89-2.1-34.335-4.2 41.265-17.85 78.225-47.565 107.205-85.68 29.505-38.85 50.82-86.31 60.375-138.705 11.865-65.415 3.885-129.255-19.32-183.225-23.205-53.865-61.53-97.755-110.355-123.48" fill="url(#m)"/><path d="M1325.172 6139.512c13.125 0 26.145 1.05 38.955 3.045 34.965 5.46 67.41 17.535 96.075 34.965 34.02 18.375 63.105 44.73 84.945 76.23 38.955 56.28 56.49 127.155 43.365 199.605-11.76 64.68-45.99 120.12-93.87 158.97a263.092 263.092 0 0 1-80.535 45.045c-28.14 9.765-58.38 15.225-89.775 14.91-1.47 0-3.045 0-4.515-.105-11.13-.315-22.365-1.365-33.495-3.045 40.215-18.9 75.915-48.93 103.95-86.835 28.56-38.64 49.245-85.47 58.59-136.92 11.655-64.365 4.305-127.155-17.745-180.81-22.05-53.445-58.8-97.755-105.945-125.055" fill="url(#n)"/><path d="M1326.117 6670.812c-10.815 0-21.735-.63-32.76-1.995 79.17-40.32 139.44-123.375 157.5-222.915 11.445-63.315 4.725-125.055-16.17-178.395-20.895-53.34-56.07-97.86-101.43-126.735 13.545.315 26.88 1.68 40.005 4.095 35.91 6.615 68.88 20.055 97.545 38.955a267.94 267.94 0 0 1 72.765 71.085c38.64 55.86 56.07 126.21 43.05 198.135-11.445 63.105-44.52 117.495-90.93 156.135-23.1 19.425-49.665 34.755-78.12 45.255-28.665 10.29-59.325 16.38-91.455 16.38" fill="url(#o)"/><path d="M1514.382 6872.097h-61.32V6810.882l-47.145 27.195-5.88 3.465-3.36-5.88-23.94-41.37-3.36-5.985 5.88-3.36 47.04-27.09-47.04-27.195-5.88-3.465 3.36-5.88 23.94-41.37 3.36-5.88 5.88 3.36 47.145 27.195v-61.11h61.32v61.11l47.145-27.195 5.88-3.36 3.36 5.88 23.835 41.37 3.465 5.88-5.88 3.465-47.04 27.195 47.04 27.09 5.88 3.36-3.465 5.985-23.835 41.37-3.36 5.88-5.88-3.465-47.145-27.195V6872.097" fill="#9cb1bf"/><path d="M1503.042 6858.447h-61.32v-61.32l-47.145 27.3-5.88 3.36-3.36-5.88-23.94-41.37-3.36-5.985 5.775-3.36 47.145-27.09-47.145-27.3-5.775-3.36 3.36-5.88 23.94-41.37 3.36-5.88 5.88 3.36 47.145 27.3V6629.757h61.32V6690.972l47.145-27.3 5.88-3.36 3.36 5.88 23.94 41.37 3.36 5.88-5.88 3.36-47.04 27.3 47.04 27.09 5.88 3.36-3.36 5.985-23.94 41.37-3.36 5.88-5.88-3.36-47.145-27.3v61.32" fill="#78b5db"/><path d="M1577.487 6711.027l-23.94-41.475-57.225 33.075v-66.15h-47.88v66.15l-57.225-33.075-23.94 41.475 57.225 32.97-57.225 33.18 23.94 41.37 57.225-33.075v66.15h47.88v-66.15l57.225 33.075 23.94-41.37-57.33-33.18z" fill="url(#p)"/><path d="M1567.932 6713.337l-22.05-38.325-53.025 30.66v-61.215h-44.205v61.215l-52.92-30.66-22.05 38.325 52.92 30.66-52.92 30.555 22.05 38.325 52.92-30.555v61.11h44.205v-61.11l53.025 30.555 22.05-38.325-52.92-30.555z" fill="url(#q)"/><path d="M1558.377 6715.752l-20.265-35.175-48.615 28.035v-56.175h-40.53v56.175l-48.615-28.035-20.265 35.175 48.51 28.14-48.51 28.14 20.265 35.175 48.615-28.14v56.28h40.53v-56.28l48.615 28.14 20.265-35.175-48.615-28.14z" fill="url(#r)"/><path d="M1548.822 6718.167l-18.48-32.13-44.205 25.62v-51.24h-36.96v51.24l-44.31-25.62-18.48 32.13 44.31 25.62-44.31 25.62 18.48 32.13 44.31-25.62v51.24h36.96v-51.24l44.205 25.62 18.48-32.13-44.31-25.62z" fill="url(#s)"/><path d="M1539.267 6720.477l-16.59-28.98-40.005 23.205v-46.305h-33.285v46.305l-39.9-23.205-16.695 28.98 39.9 23.205-39.9 23.205 16.695 28.98 39.9-23.205v46.305h33.285v-46.305l40.005 23.205 16.59-28.98-39.9-23.205z" fill="url(#t)"/><path d="M1529.712 6722.892l-14.805-25.83-35.595 20.58v-41.265h-29.715v41.265l-35.595-20.58-14.805 25.83 35.49 20.685-35.49 20.685 14.805 25.935 35.595-20.685v41.37h29.715v-41.37l35.595 20.685 14.805-25.935-35.595-20.685z" fill="url(#u)"/><path d="M1520.157 6725.307l-13.02-22.785-31.185 18.165v-36.435h-26.145v36.435l-31.185-18.165-13.02 22.785 31.185 18.165-31.185 18.27 13.02 22.785 31.185-18.27v36.435h26.145v-36.435l31.185 18.27 13.02-22.785-31.185-18.27z" fill="#fff"/><path d="M1753.887 6415.137c-3.36 0-6.615.42-9.765 1.05-1.89-20.895-19.215-37.38-40.635-37.38-4.62 0-9.03.945-13.125 2.31-8.715-38.85-43.155-67.83-84.63-67.83-34.545 0-64.26 20.37-78.225 49.77-7.875-6.93-18.06-11.235-29.4-11.235-24.045 0-43.47 19.005-44.52 42.735-9.345-5.25-19.95-8.505-31.395-8.505-35.595 0-64.47 28.875-64.47 64.47s28.875 64.47 64.47 64.47h331.59c27.615 0 49.875-22.365 49.875-49.875.105-27.615-22.26-49.98-49.77-49.98" fill="#9cb1bf"/><path d="M1745.907 6401.382c-3.36 0-6.51.315-9.765 1.05-1.89-21-19.215-37.38-40.635-37.38-4.725 0-9.03.945-13.125 2.31-8.715-38.85-43.155-67.83-84.63-67.83-34.545 0-64.26 20.475-78.12 49.77-7.875-6.93-18.06-11.34-29.4-11.34-24.045 0-43.47 19.005-44.52 42.84-9.345-5.25-19.95-8.505-31.395-8.505-35.595 0-64.47 28.875-64.47 64.47s28.875 64.365 64.47 64.365h331.59c27.51 0 49.98-22.365 49.98-49.875-.105-27.51-22.47-49.875-49.98-49.875" fill="url(#v)"/><path d="M1490.442 6339.012c11.235 0 21.105 4.41 28.665 11.025 1.68-3.465 4.62-5.985 6.72-9.135 2.205-3.255 5.145-7.56 7.77-10.395 15.12-17.745 37.275-29.085 62.055-29.715 7.14-.21 14.07.525 20.79 1.995 31.605 7.035 56.7 31.71 64.365 63.42 3.885-.84 7.875-1.155 12.18-.735 2.205 0 4.62 1.365 6.72 1.68 1.995.315 5.145.525 7.035 1.26 2.31.525 4.41 1.365 6.51 2.31 9.66 4.515 17.115 13.125 20.16 23.625.63 1.995 1.26 5.145 1.47 7.245.105.735.525 1.365.525 1.995 1.365-.315 3.57-.63 5.04-.84a44.48 44.48 0 0 1 5.355-.315c14.7 0 27.72 7.035 35.805 17.535 7.98 10.5 11.025 23.625 8.61 35.805 0 24.465-25.41 44.31-49.875 44.31h-318.15c-31.605 0-64.47-25.62-64.47-57.225-3.255-15.855.42-32.865 10.815-46.62 10.395-13.755 27.405-22.89 46.515-22.89 8.715 0 17.01 1.89 24.675 5.355 2.1.945 5.04 2.415 7.035 3.57.105-1.68.84-3.045 1.155-4.725.735-4.2 2.205-9.87 4.095-13.545 6.3-14.7 21.105-24.99 38.43-24.99" fill="url(#w)"/><path d="M1490.547 6340.062c11.13 0 20.79 4.515 27.93 10.815 1.47-3.045 5.145-4.2 7.035-6.93 1.89-2.835 5.145-7.98 7.455-10.5 14.49-18.165 36.12-30.03 60.48-31.29 6.93-.315 13.86.105 20.475 1.47 31.5 6.09 56.91 30.24 64.995 61.425 3.57-.21 7.245 0 11.13.945 1.89 0 4.305 2.415 6.195 2.73 1.785.315 5.67 0 7.35.63 2.415.315 4.725.945 6.93 1.785 10.395 3.99 18.585 13.02 21.42 24.255.525 1.68 1.155 5.775 1.47 7.56.105.63.735 1.05.84 1.68 1.26-.21 4.095-.735 5.355-.945 1.89-.21 3.675-.42 5.565-.42 15.54 0 29.295 8.4 36.33 20.37 7.035 11.97 7.455 25.725 2.52 36.435 0 21.42-28.455 38.745-49.875 38.745h-304.815c-27.72 0-64.365-22.365-64.365-50.085-6.615-13.86-6.405-31.815 2.73-47.67 9.03-15.855 26.985-26.88 47.46-26.88 8.715 0 17.115 1.995 24.885 5.565 1.89.735 5.355 2.625 7.14 3.675.105-1.47 1.365-2.31 1.68-3.78.63-3.675 1.995-10.605 3.675-13.755 5.775-15.015 20.685-25.83 38.01-25.83" fill="url(#x)"/><path d="M1490.757 6341.112c11.025 0 20.37 4.515 27.195 10.5 1.26-2.625 5.775-2.415 7.35-4.83 1.575-2.415 5.145-8.4 7.14-10.605 13.86-18.585 34.965-30.87 58.905-32.76 6.825-.525 13.65-.21 20.265.945 31.395 5.25 57.12 28.665 65.73 59.535 3.255.42 6.615 1.155 10.08 2.625 1.68 0 3.99 3.57 5.565 3.885 1.575.315 6.3-.42 7.665 0 2.625.105 5.04.525 7.35 1.26 11.235 3.36 20.16 12.915 22.785 24.885.525 1.47 1.155 6.405 1.365 7.98.105.525 1.05.84 1.05 1.365 1.05-.21 4.515-.84 5.565-.945 1.89-.315 3.885-.42 5.88-.42 16.485 0 30.765 9.765 36.75 23.31 5.985 13.44 3.78 27.825-3.465 36.96 0 18.375-31.5 33.18-49.875 33.18h-291.375c-23.73 0-64.365-19.215-64.365-42.945-9.87-11.865-13.125-30.87-5.355-48.72 7.77-17.85 26.565-30.975 48.405-30.975 8.82 0 17.22 2.1 24.99 5.775 1.575.63 5.775 2.94 7.245 3.78.105-1.26 1.995-1.575 2.205-2.835.525-3.15 1.785-11.235 3.255-13.965 5.25-15.54 20.16-26.985 37.695-26.985" fill="url(#y)"/><path d="M1490.967 6342.162c11.025 0 20.055 4.62 26.46 10.29 1.05-2.205 6.3-.63 7.665-2.625 1.365-1.995 5.145-8.925 6.825-10.71 13.23-19.11 33.81-31.815 57.33-34.335 6.72-.735 13.44-.63 20.055.315 31.29 4.41 57.33 27.195 66.465 57.645 3.045.945 5.985 2.31 9.03 4.2 1.365 0 3.78 4.725 5.04 4.935 1.26.21 6.825-.945 7.98-.525 2.73-.105 5.25.105 7.77.735 11.97 2.835 21.63 12.81 24.045 25.62.42 1.26 1.05 7.14 1.26 8.4.105.42 1.26.63 1.365 1.05.84-.21 5.04-.945 5.88-1.05 1.995-.315 4.095-.525 6.195-.525 17.43 0 32.235 11.235 37.275 26.145 5.04 14.91.21 29.925-9.555 37.59 0 15.33-34.545 27.72-49.77 27.72h-277.935c-19.74 0-64.365-15.96-64.365-35.805-13.23-9.87-19.95-29.82-13.44-49.77 6.51-19.95 26.145-34.965 49.245-34.965 8.82 0 17.325 2.1 25.2 6.09 1.365.525 6.09 3.15 7.35 3.885 0-1.05 2.52-.84 2.73-1.785.42-2.625 1.575-11.97 2.835-14.175 4.41-16.38 19.425-28.35 37.065-28.35" fill="url(#z)"/><path d="M1491.177 6343.212c10.92 0 19.635 4.62 25.725 9.975.84-1.785 6.93 1.155 7.98-.525 1.05-1.575 5.25-9.345 6.51-10.815 12.495-19.53 32.55-32.76 55.755-35.805 6.615-.84 13.23-.945 19.845-.21 31.185 3.465 57.54 25.62 67.095 55.755a44.442 44.442 0 0 1 7.98 5.88c1.05 0 3.465 5.775 4.515 5.985 1.05.21 7.35-1.47 8.4-1.155 2.94-.315 5.565-.21 8.19.21 12.81 2.31 23.1 12.705 25.41 26.25.315.945 1.05 7.77 1.155 8.82 0 .315 1.575.42 1.575.735.735-.105 5.46-1.05 6.195-1.155 2.1-.315 4.305-.525 6.51-.525 18.27 0 33.705 12.6 37.8 28.98 3.99 16.38-3.36 32.025-15.54 38.115 0 12.18-37.59 22.155-49.77 22.155h-264.495c-15.855 0-64.26-12.81-64.26-28.665-16.485-7.875-26.775-28.77-21.63-50.82s25.83-38.955 50.19-38.955c8.82 0 17.43 2.205 25.41 6.3 1.05.42 6.405 3.465 7.455 3.99 0-.84 3.045 0 3.255-.84.315-2.1 1.365-12.6 2.31-14.49 3.675-16.695 18.585-29.19 36.435-29.19" fill="url(#A)"/><path d="M1491.387 6344.262c10.815 0 19.215 4.725 24.99 9.765.63-1.26 7.455 2.835 8.295 1.68.84-1.155 5.25-9.87 6.195-10.92 11.865-19.95 31.395-33.6 54.075-37.38 6.51-1.05 13.02-1.365 19.635-.735 31.08 2.625 57.75 24.15 67.83 53.865 2.415 2.205 4.725 4.62 6.93 7.56.84 0 3.15 6.93 3.99 7.035.735.105 7.98-1.995 8.715-1.68 3.045-.525 5.88-.63 8.61-.315 13.65 1.785 24.675 12.6 26.775 26.88.21.735 1.05 8.4 1.155 9.24 0 .21 1.89.105 1.89.42.525-.105 5.985-1.155 6.51-1.26 2.205-.315 4.515-.63 6.825-.63 19.215 0 35.28 13.965 38.22 31.92 3.045 17.85-7.035 34.125-21.63 38.745 0 9.135-40.53 16.59-49.77 16.59h-251.16c-11.865 0-64.26-9.555-64.26-21.42-19.845-5.985-33.6-27.72-29.715-51.87 3.885-24.15 25.41-42.945 51.135-42.945 8.82 0 17.535 2.31 25.62 6.615.84.315 6.825 3.675 7.56 4.095 0-.63 3.675.735 3.78.105.315-1.575 1.155-13.335 1.89-14.7 2.94-17.535 17.955-30.66 35.91-30.66" fill="url(#B)"/><path d="M1491.597 6345.312c10.71 0 18.9 4.725 24.255 9.45.42-.84 7.98 4.62 8.61 3.885.525-.84 5.25-10.29 5.88-11.025 11.235-20.37 30.24-34.545 52.5-38.955 6.3-1.26 12.81-1.68 19.425-1.365 30.975 1.785 57.96 22.68 68.565 51.87 2.205 2.835 4.095 5.775 5.88 9.135.525 0 2.835 7.98 3.36 8.085.525.105 8.505-2.415 9.03-2.31 3.255-.735 6.195-1.05 9.03-.84 14.49 1.155 26.145 12.495 28.035 27.51.21.525.945 9.135 1.05 9.66 0 .21 2.1-.105 2.205.105.315-.105 6.405-1.26 6.72-1.365 2.31-.42 4.725-.63 7.14-.63 20.055 0 36.75 15.435 38.745 34.755 1.995 19.32-10.605 36.225-27.615 39.27 0 6.09-43.575 11.025-49.77 11.025h-237.72c-7.875 0-64.26-6.405-64.26-14.28-23.1-3.99-40.32-26.775-37.8-52.92 2.625-26.145 24.99-47.04 52.08-47.04 8.925 0 17.535 2.31 25.83 6.825.525.21 7.14 3.99 7.665 4.2 0-.42 4.2 1.47 4.305 1.05.21-1.05 1.05-13.965 1.47-14.91 2.205-17.535 17.22-31.185 35.385-31.185" fill="url(#C)"/><path d="M1491.807 6346.362c10.605 0 18.48 4.83 23.52 9.24.21-.42 8.61 6.405 8.82 5.985.315-.42 5.25-10.815 5.565-11.13 10.605-20.895 29.085-35.49 50.925-40.425 6.195-1.365 12.6-2.1 19.215-1.89 30.87.84 58.275 21.105 69.195 49.98 1.89 3.36 3.57 7.035 4.83 10.815.315 0 2.625 9.135 2.835 9.24.21 0 9.135-2.94 9.345-2.835 3.36-.945 6.51-1.47 9.45-1.26 15.225.63 27.72 12.495 29.4 28.14.105.21.945 9.765.945 9.975 0 .105 2.415-.315 2.415-.21.21 0 6.825-1.365 7.035-1.365 2.415-.42 4.83-.735 7.455-.735 21 0 38.22 16.8 39.27 37.59 1.05 20.79-14.175 38.325-33.705 39.9 0 3.045-46.62 5.565-49.665 5.565h-224.28c-3.99 0-64.26-3.15-64.26-7.14-26.46-1.995-47.145-25.725-45.885-53.97 1.26-28.245 24.57-51.03 53.025-51.03 8.925 0 17.64 2.415 26.04 7.035.315.105 7.455 4.2 7.77 4.41 0-.21 4.725 2.31 4.83 2.1.105-.525.84-14.7 1.05-15.12 1.47-18.585 16.59-32.865 34.86-32.865" fill="url(#D)"/><path d="M1742.547 6491.787h-324.765c-29.715 0-53.97-24.675-53.97-55.02 0-30.345 24.255-55.02 53.97-55.02 8.925 0 17.745 2.52 26.145 7.35l13.125 7.56.63-15.435c.735-18.9 15.855-33.81 34.335-33.81 10.5 0 18.165 4.83 22.785 9.03l9.135 8.19 5.25-11.235c12.705-27.405 38.85-44.415 68.25-44.415 35.07 0 66.15 25.515 73.815 60.585l2.31 10.29 9.66-3.465c3.57-1.155 6.72-1.785 9.87-1.785 16.065 0 29.19 12.39 30.765 28.77l.84 10.395 10.08-1.995c2.52-.42 5.04-.84 7.77-.84 21.945 0 39.69 18.165 39.69 40.53 0 22.155-17.85 40.32-39.69 40.32" fill="url(#E)"/></svg>