<svg xmlns="http://www.w3.org/2000/svg" xmlns:xlink="http://www.w3.org/1999/xlink" viewBox="3264.2 6076.3 841.9 841.90004" width="841.9" height="841.9"><defs><linearGradient id="Y" gradientUnits="userSpaceOnUse" y1="6490.51" x2="0" y2="6245.08" xlink:href="#c" gradientTransform="translate(-370.617 -576.115) scale(1.1025)"/><linearGradient id="o" gradientUnits="userSpaceOnUse" y1="6299.49" x2="0" y2="6101.87"><stop stop-color="#95b9cc"/><stop offset="1" stop-color="#cddee8"/></linearGradient><linearGradient id="n" gradientUnits="userSpaceOnUse" y1="6298.34" x2="0" y2="6103.01"><stop stop-color="#97bacd"/><stop offset="1" stop-color="#d0e1eb"/></linearGradient><linearGradient id="y" gradientUnits="userSpaceOnUse" y1="6495.87" x2="0" y2="6486.55" xlink:href="#e" gradientTransform="translate(-370.617 -576.115) scale(1.1025)"/><linearGradient id="u" gradientUnits="userSpaceOnUse" y1="6518.11" x2="0" y2="6467.99" xlink:href="#f" gradientTransform="translate(-370.617 -576.115) scale(1.1025)"/><linearGradient id="w" gradientUnits="userSpaceOnUse" y1="6506.99" x2="0" y2="6477.27" xlink:href="#b" gradientTransform="translate(-370.617 -576.115) scale(1.1025)"/><linearGradient id="x" gradientUnits="userSpaceOnUse" y1="6501.43" x2="0" y2="6481.91" xlink:href="#d" gradientTransform="translate(-370.617 -576.115) scale(1.1025)"/><linearGradient id="v" gradientUnits="userSpaceOnUse" y1="6512.55" x2="0" y2="6472.63" xlink:href="#a" gradientTransform="translate(-370.617 -576.115) scale(1.1025)"/><linearGradient id="m" gradientUnits="userSpaceOnUse" y1="6297.2" x2="0" y2="6104.09"><stop stop-color="#99bbce"/><stop offset="1" stop-color="#d3e4ed"/></linearGradient><linearGradient id="S" gradientUnits="userSpaceOnUse" y1="6499.98" x2="0" y2="6238.4" xlink:href="#g" gradientTransform="translate(-370.617 -576.115) scale(1.1025)"/><linearGradient id="T" gradientUnits="userSpaceOnUse" y1="6498.4" x2="0" y2="6239.72" xlink:href="#h" gradientTransform="translate(-370.617 -576.115) scale(1.1025)"/><linearGradient id="g" gradientUnits="userSpaceOnUse" y1="6296.06" x2="0" y2="6105.12"><stop stop-color="#9bbccf"/><stop offset="1" stop-color="#d7e6f0"/></linearGradient><linearGradient id="U" gradientUnits="userSpaceOnUse" y1="6496.82" x2="0" y2="6240.95" xlink:href="#i" gradientTransform="translate(-370.617 -576.115) scale(1.1025)"/><linearGradient id="W" gradientUnits="userSpaceOnUse" y1="6493.67" x2="0" y2="6243.17" xlink:href="#j" gradientTransform="translate(-370.617 -576.115) scale(1.1025)"/><linearGradient id="X" gradientUnits="userSpaceOnUse" y1="6492.09" x2="0" y2="6244.16" xlink:href="#k" gradientTransform="translate(-370.617 -576.115) scale(1.1025)"/><linearGradient id="V" gradientUnits="userSpaceOnUse" y1="6495.24" x2="0" y2="6242.1" xlink:href="#l" gradientTransform="translate(-370.617 -576.115) scale(1.1025)"/><linearGradient id="R" gradientUnits="userSpaceOnUse" y1="6501.56" x2="0" y2="6237.01" xlink:href="#m" gradientTransform="translate(-370.617 -576.115) scale(1.1025)"/><linearGradient id="h" gradientUnits="userSpaceOnUse" y1="6294.91" x2="0" y2="6106.08"><stop stop-color="#9dbdd0"/><stop offset="1" stop-color="#dae9f2"/></linearGradient><linearGradient id="i" gradientUnits="userSpaceOnUse" y1="6293.77" x2="0" y2="6106.99"><stop stop-color="#9fbed0"/><stop offset="1" stop-color="#ddecf5"/></linearGradient><linearGradient id="Q" gradientUnits="userSpaceOnUse" y1="6503.14" x2="0" y2="6235.53" xlink:href="#n" gradientTransform="translate(-370.617 -576.115) scale(1.1025)"/><linearGradient id="l" gradientUnits="userSpaceOnUse" y1="6292.62" x2="0" y2="6107.83"><stop stop-color="#a1bfd1"/><stop offset="1" stop-color="#e0eff7"/></linearGradient><linearGradient id="j" gradientUnits="userSpaceOnUse" y1="6291.48" x2="0" y2="6108.61"><stop stop-color="#a3c0d2"/><stop offset="1" stop-color="#e4f1fa"/></linearGradient><linearGradient id="P" gradientUnits="userSpaceOnUse" y1="6504.72" x2="0" y2="6233.98" xlink:href="#o" gradientTransform="translate(-370.617 -576.115) scale(1.1025)"/><linearGradient id="k" gradientUnits="userSpaceOnUse" y1="6290.34" x2="0" y2="6109.32"><stop stop-color="#a5c1d3"/><stop offset="1" stop-color="#e7f4fc"/></linearGradient><linearGradient id="c" gradientUnits="userSpaceOnUse" y1="6289.19" x2="0" y2="6109.97"><stop stop-color="#a7c2d4"/><stop offset="1" stop-color="#eaf7ff"/></linearGradient><linearGradient id="d" gradientUnits="userSpaceOnUse" y1="6149.04" x2="0" y2="6129.52"><stop stop-color="#e4e655"/><stop offset="1" stop-color="#f0f2ac"/></linearGradient><linearGradient id="e" gradientUnits="userSpaceOnUse" y1="6143.49" x2="0" y2="6134.16"><stop stop-color="#dbde33"/><stop offset="1" stop-color="#f0f2ac"/></linearGradient><linearGradient id="p" gradientUnits="userSpaceOnUse" y1="6518.11" x2="0" y2="6468" xlink:href="#f" gradientTransform="translate(-370.617 -576.115) scale(1.1025)"/><linearGradient id="r" gradientUnits="userSpaceOnUse" y1="6507.01" x2="0" y2="6477.29" xlink:href="#b" gradientTransform="translate(-370.617 -576.115) scale(1.1025)"/><linearGradient id="s" gradientUnits="userSpaceOnUse" y1="6501.45" x2="0" y2="6481.94" xlink:href="#d" gradientTransform="translate(-370.617 -576.115) scale(1.1025)"/><linearGradient id="q" gradientUnits="userSpaceOnUse" y1="6512.56" x2="0" y2="6472.65" xlink:href="#a" gradientTransform="translate(-370.617 -576.115) scale(1.1025)"/><linearGradient id="b" gradientUnits="userSpaceOnUse" y1="6154.6" x2="0" y2="6124.88"><stop stop-color="#edef77"/><stop offset="1" stop-color="#f0f2ac"/></linearGradient><linearGradient id="z" gradientUnits="userSpaceOnUse" x1="3542.73" y1="6539.78" x2="3702.08" y2="6699.13" gradientTransform="translate(-370.617 -576.115) scale(1.1025)"><stop stop-color="#e6fcff"/><stop offset="1" stop-color="#85cfff"/></linearGradient><linearGradient id="A" gradientUnits="userSpaceOnUse" x1="3548.51" y1="6546.99" x2="3695.85" y2="6694.32" gradientTransform="translate(-370.617 -576.115) scale(1.1025)"><stop stop-color="#eafdff"/><stop offset="1" stop-color="#99d7ff"/></linearGradient><linearGradient id="a" gradientUnits="userSpaceOnUse" y1="6160.15" x2="0" y2="6120.24"><stop stop-color="#f5f798"/><stop offset="1" stop-color="#f0f2ac"/></linearGradient><linearGradient id="B" gradientUnits="userSpaceOnUse" x1="3554.3" y1="6554.19" x2="3689.62" y2="6689.51" gradientTransform="translate(-370.617 -576.115) scale(1.1025)"><stop stop-color="#eefdff"/><stop offset="1" stop-color="#aedfff"/></linearGradient><linearGradient id="C" gradientUnits="userSpaceOnUse" x1="3560.08" y1="6561.4" x2="3683.39" y2="6684.71" gradientTransform="translate(-370.617 -576.115) scale(1.1025)"><stop stop-color="#f3feff"/><stop offset="1" stop-color="#c2e7ff"/></linearGradient><linearGradient id="f" gradientUnits="userSpaceOnUse" y1="6165.7" x2="0" y2="6115.6"><stop stop-color="#feffba"/><stop offset="1" stop-color="#f0f2ac"/></linearGradient><linearGradient id="D" gradientUnits="userSpaceOnUse" x1="3565.87" y1="6568.6" x2="3677.17" y2="6679.9" gradientTransform="translate(-370.617 -576.115) scale(1.1025)"><stop stop-color="#f7feff"/><stop offset="1" stop-color="#d6efff"/></linearGradient><linearGradient id="E" gradientUnits="userSpaceOnUse" x1="3571.65" y1="6575.8" x2="3670.94" y2="6675.09" gradientTransform="translate(-370.617 -576.115) scale(1.1025)"><stop stop-color="#fbfeff"/><stop offset="1" stop-color="#ebf7ff"/></linearGradient><linearGradient id="t" gradientUnits="userSpaceOnUse" y1="6495.9" x2="0" y2="6486.58" xlink:href="#e" gradientTransform="translate(-370.617 -576.115) scale(1.1025)"/><linearGradient xlink:href="#o" id="F" gradientUnits="userSpaceOnUse" y1="6299.49" x2="0" y2="6101.87" gradientTransform="translate(-370.617 -576.115) scale(1.1025)"/><linearGradient xlink:href="#n" id="G" gradientUnits="userSpaceOnUse" y1="6298.34" x2="0" y2="6103.01" gradientTransform="translate(-370.617 -576.115) scale(1.1025)"/><linearGradient xlink:href="#m" id="H" gradientUnits="userSpaceOnUse" y1="6297.2" x2="0" y2="6104.09" gradientTransform="translate(-370.617 -576.115) scale(1.1025)"/><linearGradient xlink:href="#g" id="I" gradientUnits="userSpaceOnUse" y1="6296.06" x2="0" y2="6105.12" gradientTransform="translate(-370.617 -576.115) scale(1.1025)"/><linearGradient xlink:href="#h" id="J" gradientUnits="userSpaceOnUse" y1="6294.91" x2="0" y2="6106.08" gradientTransform="translate(-370.617 -576.115) scale(1.1025)"/><linearGradient xlink:href="#i" id="K" gradientUnits="userSpaceOnUse" y1="6293.77" x2="0" y2="6106.99" gradientTransform="translate(-370.617 -576.115) scale(1.1025)"/><linearGradient xlink:href="#l" id="L" gradientUnits="userSpaceOnUse" y1="6292.62" x2="0" y2="6107.83" gradientTransform="translate(-370.617 -576.115) scale(1.1025)"/><linearGradient xlink:href="#j" id="M" gradientUnits="userSpaceOnUse" y1="6291.48" x2="0" y2="6108.61" gradientTransform="translate(-370.617 -576.115) scale(1.1025)"/><linearGradient xlink:href="#k" id="N" gradientUnits="userSpaceOnUse" y1="6290.34" x2="0" y2="6109.32" gradientTransform="translate(-370.617 -576.115) scale(1.1025)"/><linearGradient xlink:href="#c" id="O" gradientUnits="userSpaceOnUse" y1="6289.19" x2="0" y2="6109.97" gradientTransform="translate(-370.617 -576.115) scale(1.1025)"/></defs><path d="M3400.815 6579.992c0 17.86-14.553 32.414-32.413 32.414-17.861 0-32.414-14.553-32.414-32.414 0-17.86 14.553-32.413 32.413-32.413 17.861 0 32.414 14.553 32.414 32.413" fill="none"/><path d="M3394.2 6579.992c0 14.223-11.466 25.91-25.909 25.91-14.332 0-25.909-11.467-25.909-25.91 0-14.222 11.466-25.908 25.91-25.908 14.442 0 25.908 11.686 25.908 25.908" opacity=".25" fill="url(#q)"/><path d="M3387.695 6579.992a19.127 19.127 0 0 1-19.183 19.184c-10.695 0-19.294-8.71-19.294-19.184 0-10.584 8.49-19.183 19.294-19.183 10.473 0 19.183 8.6 19.183 19.183" opacity=".5" fill="url(#r)"/><path d="M3380.97 6579.992c0 6.946-5.623 12.569-12.569 12.569-7.055 0-12.568-5.623-12.568-12.569 0-6.945 5.623-12.568 12.569-12.568 7.055 0 12.568 5.623 12.568 12.568" opacity=".75" fill="url(#s)"/><path d="M3374.355 6579.992c0 3.418-2.646 6.064-6.064 6.064s-6.064-2.646-6.064-6.064c0-3.417 2.647-6.063 6.064-6.063 3.418 0 6.064 2.646 6.064 6.063" fill="url(#t)"/><path d="M3990.653 6579.992c0 17.86-14.553 32.414-32.414 32.414-17.86 0-32.413-14.553-32.413-32.414 0-17.86 14.552-32.413 32.413-32.413 17.86 0 32.413 14.553 32.413 32.413" fill="none"/><path d="M3984.037 6579.992c0 14.223-11.465 25.91-25.908 25.91-14.443 0-25.909-11.467-25.909-25.91 0-14.222 11.466-25.908 25.909-25.908s25.909 11.686 25.909 25.908" opacity=".25" fill="url(#v)"/><path d="M3977.312 6579.992a19.127 19.127 0 0 1-19.183 19.184c-10.694 0-19.294-8.71-19.294-19.184 0-10.584 8.49-19.183 19.294-19.183 10.694-.11 19.183 8.6 19.183 19.183" opacity=".5" fill="url(#w)"/><path d="M3970.807 6579.992c0 6.946-5.622 12.569-12.568 12.569-7.056 0-12.569-5.623-12.569-12.569 0-6.945 5.623-12.568 12.569-12.568 6.946 0 12.569 5.623 12.569 12.568" opacity=".75" fill="url(#x)"/><path d="M3964.193 6579.992c0 3.418-2.647 6.064-6.064 6.064-3.418 0-6.064-2.646-6.064-6.064 0-3.417 2.646-6.063 6.064-6.063s6.064 2.646 6.064 6.063" fill="url(#y)"/><path d="M3686.032 6869.178h-64.386v-64.276l-49.502 28.555-6.174 3.638-3.639-6.174-25.026-43.438-3.528-6.284 6.063-3.528 49.503-28.445-49.503-28.555-6.063-3.638 3.528-6.174 25.026-43.438 3.639-6.174 6.174 3.528 49.502 28.554V6629.164h64.386v64.166l49.502-28.555 6.174-3.528 3.528 6.174 25.027 43.438 3.528 6.174-6.064 3.638-49.392 28.555 49.392 28.445 6.064 3.528-3.528 6.284-25.027 43.438-3.528 6.174-6.174-3.638-49.502-28.555v64.276" fill="#9cb1bf"/><path d="M3674.125 6854.846h-64.386v-64.387l-49.502 28.666-6.175 3.528-3.527-6.174-25.137-43.439-3.639-6.284 6.174-3.528 49.503-28.445-49.503-28.665-6.174-3.528 3.639-6.174 25.136-43.438 3.529-6.174 6.173 3.528 49.503 28.665v-64.276h64.386v64.276l49.502-28.665 6.174-3.528 3.528 6.174 25.137 43.438 3.528 6.174-6.174 3.528-49.392 28.665 49.392 28.445 6.174 3.528-3.528 6.284-25.137 43.439-3.528 6.174-6.174-3.528-49.502-28.665v64.386" fill="#78b5db"/><path d="M3752.292 6705.898l-25.137-43.439-60.197 34.73v-69.458h-50.163v69.457l-60.197-34.729-25.027 43.439 60.087 34.729-60.087 34.728 25.027 43.55 60.197-34.73v69.458h50.163v-69.458l60.197 34.73 25.137-43.55-60.197-34.728z" fill="url(#z)"/><path d="M3742.26 6708.434l-23.264-40.242-55.565 32.193v-64.275h-46.416v64.275l-55.566-32.193-23.152 40.242 55.566 32.082-55.566 32.193 23.152 40.242 55.566-32.193v64.275h46.416v-64.275l55.566 32.193 23.262-40.242-55.566-32.193z" fill="url(#A)"/><path d="M3732.227 6710.97l-21.279-36.934-51.045 29.436v-58.983h-42.557v58.983l-51.156-29.436-21.168 36.933 50.935 29.547-50.935 29.437 21.168 37.044 51.156-29.547v58.984h42.556v-58.984l51.046 29.547 21.279-37.044-51.046-29.437z" fill="url(#B)"/><path d="M3722.194 6713.395l-19.404-33.626-46.526 26.9v-53.801h-38.698v53.802l-46.525-26.901-19.404 33.626 46.525 27.011-46.525 26.901 19.404 33.626 46.525-26.79v53.802h38.698v-53.802l46.526 26.79 19.404-33.626-46.526-26.9z" fill="url(#C)"/><path d="M3712.161 6715.93l-17.53-30.428-41.895 24.365v-48.62h-34.949v48.62l-41.895-24.365-17.53 30.429 41.895 24.365-41.895 24.365 17.53 30.319 41.895-24.255v48.62h34.95v-48.62l41.894 24.255 17.53-30.319-41.895-24.365z" fill="url(#D)"/><path d="M3702.128 6718.466l-15.545-27.231-37.375 21.719v-43.439h-31.2v43.439l-37.375-21.72-15.545 27.232 37.264 21.72-37.264 21.719 15.545 27.121 37.375-21.609v43.329h31.2v-43.329l37.375 21.61 15.545-27.122-37.375-21.72z" fill="url(#E)"/><path d="M3692.095 6721.002l-13.67-23.924-32.855 19.073v-38.257h-27.342v38.257l-32.744-19.073-13.671 23.924 32.744 19.073-32.744 19.184 13.67 23.814 32.745-19.073v38.256h27.342V6764l32.855 19.073 13.67-23.814-32.854-19.184z" fill="#fff"/><path d="M4025.381 6260.708c-4.079 0-7.938.441-11.796 1.213-2.206-25.357-23.263-45.202-49.172-45.202-5.623 0-10.915 1.102-15.876 2.866-10.474-46.966-52.148-82.026-102.312-82.026-41.785 0-77.726 24.696-94.594 60.086-9.482-8.379-21.83-13.67-35.501-13.67-29.106 0-52.59 23.042-53.802 51.707-11.246-6.285-24.035-10.254-37.926-10.254-42.998 0-77.947 34.95-77.947 77.947 0 42.998 34.95 77.947 77.947 77.947h400.98c33.295 0 60.306-27.011 60.306-60.307.11-33.295-26.901-60.307-60.307-60.307" fill="#9cb1bf"/><path d="M4017.994 6248.47c-3.969 0-7.938.442-11.796 1.213-2.205-25.357-23.263-45.202-49.172-45.202-5.622 0-10.914 1.102-15.876 2.866-10.474-46.966-52.148-82.026-102.312-82.026-41.785 0-77.616 24.696-94.484 60.197-9.482-8.38-21.83-13.671-35.5-13.671-28.996 0-52.59 23.042-53.803 51.707-11.245-6.284-24.144-10.253-37.926-10.253-42.997 0-77.946 34.839-77.946 77.947 0 43.107 34.949 77.836 77.946 77.836h400.98c33.295 0 60.417-27.011 60.417-60.307-.22-33.295-27.232-60.306-60.528-60.306" fill="url(#F)"/><path d="M3708.964 6172.95c13.56 0 25.578 5.402 34.618 13.34 1.985-4.19 5.513-7.167 8.159-11.025 2.646-3.86 6.174-9.04 9.371-12.569 18.302-21.499 45.092-35.17 75.08-35.941 8.6-.22 16.979.661 25.137 2.425 38.257 8.49 68.576 38.367 77.837 76.624 4.63-.992 9.481-1.433 14.663-.882 2.646 0 5.623 1.654 8.048 2.095 2.426.44 6.174.661 8.49 1.433 2.756.661 5.291 1.543 7.827 2.756 11.577 5.402 20.727 15.766 24.366 28.555.771 2.315 1.433 6.174 1.874 8.71.11.882.551 1.543.661 2.425 1.654-.33 4.41-.772 6.064-.992 2.095-.22 4.3-.441 6.395-.441 17.75 0 33.626 8.49 43.328 21.168 9.702 12.679 13.34 28.555 10.363 43.328 0 29.547-30.76 53.582-60.306 53.582h-384.773c-38.257 0-77.947-30.98-77.947-69.237-3.969-19.184.552-39.8 13.01-56.338 12.568-16.648 33.075-27.673 56.227-27.673 10.584 0 20.617 2.315 29.768 6.395 2.536 1.102 6.064 2.866 8.489 4.3.11-2.095.992-3.75 1.323-5.734.882-5.071 2.646-11.907 4.961-16.317 8.159-17.53 26.13-29.988 46.967-29.988" fill="url(#G)"/><path d="M3709.294 6174.272c13.451 0 25.138 5.403 33.737 13.01 1.764-3.749 6.284-5.072 8.49-8.38 2.314-3.417 6.283-9.701 9.04-12.678 17.53-22.05 43.659-36.272 73.096-37.816 8.489-.44 16.757.22 24.806 1.764 38.146 7.387 68.796 36.493 78.608 74.309 4.3-.22 8.82 0 13.45 1.102 2.316 0 5.182 2.977 7.387 3.308 2.205.44 6.836 0 8.93.772 2.977.44 5.734 1.102 8.38 2.094 12.568 4.741 22.49 15.766 25.908 29.327.662 2.095 1.434 7.056 1.764 9.15.11.772.882 1.324.993 2.095 1.433-.33 4.96-.882 6.394-1.102 2.205-.33 4.52-.441 6.836-.441 18.852 0 35.39 10.143 43.879 24.696 8.49 14.443 8.93 31.09 3.087 44.1 0 25.909-34.398 46.856-60.307 46.856h-368.565c-33.516 0-77.837-27.121-77.837-60.527-7.938-16.758-7.717-38.477 3.308-57.66 11.025-19.074 32.634-32.525 57.33-32.525 10.584 0 20.727 2.426 30.098 6.726 2.205.992 6.505 3.197 8.6 4.41.11-1.875 1.653-2.867 1.984-4.63.772-4.41 2.425-12.79 4.41-16.649 7.166-18.301 25.137-31.31 46.195-31.31" fill="url(#H)"/><path d="M3709.515 6175.485c13.34 0 24.696 5.513 32.855 12.679 1.543-3.197 6.945-2.867 8.93-5.843 1.984-2.867 6.284-10.254 8.6-12.79 16.757-22.49 42.225-37.374 71.22-39.69 8.27-.66 16.538-.22 24.586 1.103 37.926 6.395 69.127 34.729 79.49 71.993a42.113 42.113 0 0 1 12.128 3.198c1.985 0 4.851 4.3 6.725 4.63 1.875.33 7.608-.551 9.261.11 3.087.11 6.064.662 8.82 1.544 13.561 4.08 24.366 15.655 27.563 30.098.551 1.764 1.323 7.828 1.654 9.702.11.662 1.212.992 1.323 1.654 1.212-.22 5.512-1.103 6.725-1.213 2.315-.33 4.74-.551 7.166-.551 19.955 0 37.154 11.797 44.431 28.114 7.276 16.317 4.63 33.626-4.19 44.761 0 22.16-38.036 40.131-60.306 40.131h-352.36c-28.664 0-77.836-23.263-77.836-51.928-12.017-14.332-15.876-37.264-6.505-58.873 9.372-21.61 32.193-37.375 58.433-37.375 10.584 0 20.837 2.536 30.319 7.056 1.874.772 6.945 3.528 8.71 4.52.11-1.543 2.425-1.874 2.645-3.417.662-3.749 2.205-13.561 3.86-16.869 6.504-18.963 24.475-32.744 45.753-32.744" fill="url(#I)"/><path d="M3709.735 6176.808c13.23 0 24.255 5.513 31.973 12.458 1.213-2.646 7.607-.771 9.261-3.197 1.654-2.425 6.284-10.804 8.269-12.9 15.986-23.041 40.792-38.476 69.237-41.453 8.158-.882 16.317-.662 24.255.44 37.815 5.293 69.347 32.855 80.372 69.679a49.004 49.004 0 0 1 10.915 5.182c1.653 0 4.52 5.622 6.063 5.953 1.544.33 8.27-1.213 9.702-.661 3.308-.11 6.395.22 9.372.882 14.553 3.417 26.129 15.545 29.106 30.87.44 1.433 1.323 8.6 1.543 10.143.11.55 1.544.771 1.654 1.323 1.103-.22 6.064-1.213 7.166-1.323 2.426-.331 4.961-.662 7.497-.662 21.058 0 39.029 13.56 45.092 31.642 6.064 18.08.221 36.162-11.466 45.423 0 18.522-41.784 33.516-60.196 33.516h-336.152c-23.925 0-77.837-19.294-77.837-43.218-15.986-12.017-24.145-36.052-16.317-60.197 7.828-24.144 31.642-42.225 59.645-42.225 10.695 0 20.948 2.535 30.54 7.386 1.653.662 7.386 3.86 8.82 4.741.11-1.323 3.087-.992 3.307-2.205.551-3.197 1.874-14.443 3.418-17.199 5.292-19.955 23.373-34.398 44.761-34.398" fill="url(#J)"/><path d="M3709.956 6178.02c13.23 0 23.704 5.624 31.09 12.128.993-2.094 8.27 1.323 9.592-.55 1.323-1.985 6.285-11.357 7.828-13.12 15.104-23.594 39.47-39.58 67.363-43.329 7.938-1.102 15.986-1.102 24.034-.22 37.706 4.19 69.568 31.09 81.144 67.362 3.308 1.875 6.505 4.19 9.702 7.167 1.323 0 4.19 7.056 5.403 7.276 1.212.22 8.93-1.764 10.143-1.323 3.528-.44 6.725-.33 9.922.33 15.545 2.757 28.004 15.436 30.76 31.643.33 1.212 1.323 9.37 1.433 10.694.11.44 1.874.44 1.985.882.882-.22 6.615-1.323 7.497-1.433a46.273 46.273 0 0 1 7.938-.662c22.16 0 40.792 15.215 45.643 35.06 4.851 19.845-4.08 38.697-18.853 46.194 0 14.774-45.423 26.791-60.196 26.791h-319.946c-19.073 0-77.726-15.435-77.726-34.618-19.955-9.592-32.413-34.84-26.13-61.41 6.285-26.68 31.202-47.187 60.749-47.187 10.694 0 21.057 2.646 30.76 7.608 1.322.55 7.827 4.19 8.93 4.85 0-.992 3.748 0 3.858-.992.441-2.535 1.654-15.324 2.867-17.42 4.52-20.506 22.711-35.72 44.21-35.72" fill="url(#K)"/><path d="M3710.287 6179.344c13.12 0 23.263 5.733 30.208 11.797.772-1.544 9.04 3.528 10.033 1.984.992-1.433 6.284-11.907 7.497-13.23 14.332-24.145 38.036-40.682 65.378-45.202 7.828-1.323 15.766-1.654 23.704-.882 37.595 3.197 69.898 29.216 82.026 65.047 2.977 2.646 5.733 5.623 8.379 9.15.992 0 3.859 8.38 4.74 8.49.883.22 9.592-2.315 10.474-2.095 3.749-.661 7.167-.771 10.364-.33 16.537 2.094 29.878 15.324 32.303 32.523.331.882 1.213 10.254 1.323 11.136 0 .33 2.205.22 2.315.55.662-.11 7.167-1.432 7.828-1.543 2.646-.44 5.402-.771 8.269-.771 23.263 0 42.556 16.978 46.195 38.587 3.638 21.61-8.49 41.234-26.13 46.856 0 11.136-49.06 20.066-60.196 20.066h-303.739c-14.332 0-77.726-11.576-77.726-25.909-23.924-7.166-40.572-33.516-35.831-62.732 4.74-29.216 30.76-52.038 61.85-52.038 10.694 0 21.168 2.756 30.98 7.938.993.44 8.159 4.52 9.151 4.961 0-.772 4.41.882 4.52.11.331-1.874 1.434-16.096 2.316-17.75 3.748-20.837 21.94-36.713 43.769-36.713" fill="url(#L)"/><path d="M3710.507 6180.557c13.01 0 22.822 5.733 29.327 11.466.551-1.103 9.702 5.622 10.363 4.63.662-.992 6.285-12.458 7.056-13.34 13.561-24.696 36.603-41.785 63.504-47.077a87.805 87.805 0 0 1 23.484-1.543c37.485 2.094 70.119 27.342 82.908 62.732 2.646 3.418 4.96 7.056 7.166 11.135.661 0 3.528 9.702 4.079 9.812.662.11 10.364-2.976 10.915-2.756 3.859-.882 7.497-1.213 10.915-.992 17.419 1.433 31.641 15.214 33.956 33.295.221.552 1.213 11.025 1.213 11.577 0 .22 2.646-.11 2.646.11.441-.11 7.718-1.544 8.159-1.544 2.756-.44 5.623-.771 8.6-.771 24.254 0 44.43 18.632 46.855 42.005 2.426 23.373-12.788 43.88-33.405 47.518 0 7.386-52.7 13.34-60.197 13.34H3680.52c-9.591 0-77.726-7.718-77.726-17.31-28.003-4.74-48.84-32.303-45.644-63.944 3.088-31.642 30.209-56.89 62.953-56.89 10.805 0 21.279 2.867 31.201 8.27.661.22 8.6 4.74 9.261 5.181 0-.551 5.072 1.874 5.182 1.323.22-1.213 1.212-16.978 1.764-18.08 2.756-21.5 21.057-38.147 42.997-38.147" fill="url(#M)"/><path d="M3710.728 6181.88c12.899 0 22.38 5.843 28.444 11.135.22-.551 10.364 7.717 10.695 7.276.33-.44 6.284-13.01 6.725-13.45 12.789-25.247 35.17-42.887 61.63-48.951 7.496-1.764 15.324-2.536 23.152-2.315 37.375 1.102 70.45 25.578 83.68 60.417a74.16 74.16 0 0 1 5.843 13.12c.33 0 3.087 11.024 3.418 11.135.33.11 11.025-3.528 11.356-3.418 4.079-1.213 7.827-1.764 11.466-1.544 18.411.662 33.515 15.105 35.5 34.068.11.33 1.103 11.796 1.213 12.127 0 .11 2.977-.33 2.977-.22.22 0 8.268-1.654 8.489-1.654 2.866-.551 5.953-.882 8.93-.882 25.358 0 46.195 20.286 47.407 45.533 1.213 25.137-17.198 46.415-40.682 48.18 0 3.748-56.448 6.725-60.086 6.725H3689.67c-4.74 0-77.726-3.86-77.726-8.71-31.973-2.426-57-31.09-55.456-65.268 1.543-34.178 29.767-61.74 64.165-61.74 10.805 0 21.389 2.866 31.422 8.6.33.11 9.04 5.07 9.371 5.291 0-.22 5.733 2.757 5.843 2.536.11-.661.992-17.75 1.323-18.301 1.764-22.491 19.955-39.69 42.116-39.69" fill="url(#N)"/><path d="M4013.915 6357.728h-392.82c-35.942 0-65.268-29.877-65.268-66.59 0-36.714 29.326-66.592 65.267-66.592 10.805 0 21.5 2.977 31.642 8.82l15.876 9.151.772-18.632c.882-22.822 19.183-40.793 41.564-40.793 12.79 0 21.94 5.844 27.453 10.915l11.135 9.923 6.394-13.561c15.325-33.075 46.967-53.692 82.578-53.692 42.446 0 79.93 30.76 89.192 73.206l2.756 12.458 11.687-4.19c4.3-1.432 8.158-2.204 11.906-2.204 19.405 0 35.28 14.994 37.155 34.839l1.102 12.568 12.128-2.425c3.087-.551 6.174-.992 9.371-.992 26.46 0 48.069 22.05 48.069 48.95 0 26.902-21.499 48.841-47.959 48.841" fill="url(#O)"/><path d="M3952.837 6445.157c-5.513 0-10.915.55-16.097 1.653-3.087-34.728-31.972-61.85-67.362-61.85-7.718 0-14.884 1.544-21.72 3.859-14.332-64.276-71.552-112.345-140.127-112.345-57.33 0-106.392 33.847-129.544 82.357-13.01-11.466-29.988-18.743-48.73-18.743-39.801 0-71.994 31.532-73.758 70.891-15.435-8.6-33.075-14.002-52.038-14.002-58.874 0-106.722 47.739-106.722 106.833 0 58.983 47.848 106.722 106.722 106.722h549.265c45.644 0 82.688-37.044 82.688-82.578 0-45.864-36.934-82.797-82.577-82.797" fill="#9cb1bf"/><path d="M3940.71 6430.052c-5.513 0-10.916.552-16.097 1.654-3.087-34.618-31.973-61.85-67.363-61.85-7.607 0-14.884 1.543-21.72 3.859-14.332-64.276-71.552-112.345-140.127-112.345-57.33 0-106.391 33.847-129.544 82.357-13.01-11.466-29.988-18.633-48.73-18.633-39.8 0-71.994 31.532-73.758 70.891-15.435-8.71-32.964-14.112-52.038-14.112-58.983 0-106.722 47.849-106.722 106.722 0 58.984 47.739 106.722 106.722 106.722H3940.6c45.643 0 82.687-37.044 82.687-82.687.11-45.644-36.933-82.578-82.577-82.578" fill="url(#P)"/><path d="M3517.46 6326.748c18.632 0 35.059 7.277 47.517 18.302 2.757-5.844 7.608-9.813 11.136-15.105 3.638-5.292 8.489-12.458 12.789-17.199 25.137-29.326 61.74-48.179 102.863-49.171 11.356-.33 22.49.772 33.185 3.087 52.92 11.245 94.925 52.479 107.714 105.289 6.395-1.323 13.01-1.985 19.956-1.213 3.638 0 7.607 2.205 11.025 2.866 3.417.552 8.489.882 11.686 1.985 3.748.882 7.387 2.205 10.805 3.748 15.986 7.387 28.334 21.72 33.405 39.14 1.103 3.196 1.985 8.488 2.536 11.906.22 1.103.992 2.095 1.103 3.308 2.094-.441 5.512-.993 7.717-1.213 3.087-.33 6.174-.551 9.261-.551 24.255 0 45.974 11.576 59.204 28.995 13.34 17.42 18.302 39.14 14.223 59.425 0 40.572-44.321 73.427-84.893 73.427h-536.587c-57.881 0-104.847-46.967-104.847-105.069 0-57.991 46.966-105.068 104.847-105.068 14.553 0 28.224 3.197 40.903 8.82 3.528 1.433 8.269 3.97 11.576 5.843.11-2.866 1.434-5.181 1.875-7.938 1.212-6.945 3.638-16.317 6.725-22.27 11.135-24.476 35.72-41.344 64.276-41.344" fill="url(#Q)"/><path d="M3517.79 6328.402c18.412 0 34.398 7.387 46.195 17.86 2.425-5.071 8.6-6.945 11.687-11.576 3.086-4.63 8.489-13.23 12.347-17.42 24.035-30.098 59.756-49.612 100.218-51.707a142.63 142.63 0 0 1 32.964 2.205c52.7 9.923 95.256 49.944 108.707 102.092 5.953-.33 12.017 0 18.301 1.543 3.198 0 7.167 4.08 10.143 4.63 2.977.552 9.372.111 12.238 1.103 4.08.552 7.828 1.544 11.466 2.867 17.2 6.505 30.87 21.609 35.5 40.241.883 2.867 1.985 9.592 2.426 12.569.11.992 1.544 1.764 1.654 2.756 1.874-.33 6.174-1.103 8.048-1.323a70.525 70.525 0 0 1 9.702-.662c25.799 0 48.4 13.892 60.086 33.737 11.687 19.845 12.348 42.556 4.19 60.307 0 35.5-51.707 64.275-87.208 64.275h-523.908c-56.779 0-102.863-46.194-102.863-103.304 0-57 46.084-103.304 102.863-103.304 14.553 0 28.445 3.307 41.234 9.26 3.087 1.324 8.93 4.41 11.796 6.065.11-2.536 2.316-3.86 2.757-6.395 1.102-6.064 3.307-17.42 6.063-22.711 9.923-25.137 34.509-43.108 63.394-43.108" fill="url(#R)"/><path d="M3518.121 6330.166c18.302 0 33.736 7.497 44.982 17.42 2.095-4.3 9.482-3.97 12.238-7.939 2.646-3.969 8.6-14.001 11.797-17.53 22.931-30.87 57.88-51.155 97.57-54.242 11.026-.882 21.94-.441 32.745 1.323 52.479 8.489 95.477 47.517 109.809 98.894 5.402.661 11.025 1.874 16.538 4.19 2.756 0 6.614 5.843 9.26 6.394 2.536.44 10.364-.772 12.79.11 4.3.11 8.268.882 12.237 2.095 18.633 5.623 33.406 21.388 37.706 41.344.772 2.425 1.874 10.694 2.205 13.23.11.882 2.205 1.323 2.315 2.205 1.544-.331 6.835-1.323 8.379-1.434 3.308-.44 6.725-.771 10.143-.771 27.342 0 50.935 16.206 60.858 38.477 9.922 22.27 6.284 46.084-5.733 61.299 0 30.429-58.984 55.125-89.413 55.125h-511.229c-55.676 0-100.989-45.423-100.989-101.54 0-56.007 45.203-101.54 100.989-101.54 14.553 0 28.555 3.417 41.564 9.701 2.646 1.103 9.482 4.851 11.907 6.174.11-2.205 3.308-2.646 3.639-4.74.882-5.182 2.976-18.522 5.292-23.043 8.599-26.35 33.295-45.202 62.401-45.202" fill="url(#S)"/><path d="M3518.452 6331.93c18.191 0 33.185 7.607 43.769 16.978 1.764-3.638 10.474-1.102 12.679-4.41 2.205-3.307 8.6-14.773 11.245-17.75 21.83-31.642 56.007-52.7 94.926-56.779 10.804-1.212 21.719-.992 32.413.441 52.259 7.056 95.697 44.982 110.801 95.697 4.962 1.654 9.923 3.749 14.884 6.946 2.315 0 6.174 7.718 8.269 8.159 2.095.33 11.356-1.544 13.34-.882 4.52-.22 8.82.22 12.9 1.212 19.955 4.741 35.83 21.279 39.91 42.336.661 1.985 1.764 11.797 2.095 13.892.11.661 2.866.882 2.866 1.654 1.323-.22 7.387-1.434 8.82-1.544 3.418-.551 7.056-.882 10.584-.882 28.775 0 53.361 18.522 61.63 43.218 8.269 24.696.33 49.613-15.766 62.291 0 25.358-66.37 45.864-91.728 45.864h-498.55c-54.684 0-99.005-44.65-99.005-99.776 0-55.125 44.43-99.776 99.005-99.776 14.663 0 28.665 3.528 41.784 10.033 2.205.882 10.033 5.181 12.128 6.394.11-1.764 4.19-1.323 4.52-3.087.772-4.3 2.646-19.735 4.63-23.483 7.828-27.011 32.524-46.746 61.85-46.746" fill="url(#T)"/><path d="M3518.782 6333.694c17.971 0 32.524 7.607 42.557 16.537 1.323-2.866 11.466 1.875 13.23-.771 1.764-2.646 8.6-15.546 10.805-17.971 20.727-32.303 54.022-54.243 92.389-59.315 10.694-1.433 21.499-1.653 32.193-.44 52.038 5.622 96.028 42.556 111.904 92.5 4.52 2.645 8.93 5.732 13.12 9.59 1.764 0 5.622 9.593 7.386 9.923 1.654.331 12.238-2.315 13.892-1.764 4.85-.55 9.26-.44 13.56.331 21.279 3.859 38.368 21.168 42.116 43.439.551 1.653 1.764 12.789 1.985 14.553.11.55 3.528.44 3.528 1.102 1.102-.22 8.048-1.543 9.15-1.654 3.639-.55 7.277-.992 11.025-.992 30.319 0 55.787 20.837 62.512 48.07 6.615 27.12-5.623 53.03-25.798 63.172 0 20.286-73.647 36.714-93.933 36.714H3394.53c-53.582 0-97.13-43.88-97.13-98.013 0-54.132 43.548-98.122 97.13-98.122 14.663 0 28.885 3.638 42.115 10.474 1.764.771 10.584 5.622 12.238 6.615.11-1.434 5.182-.11 5.402-1.434.552-3.417 2.316-20.837 3.859-23.814 6.284-28.003 31.09-48.73 60.638-48.73" fill="url(#U)"/><path d="M3519.224 6335.348c17.86 0 31.972 7.717 41.343 16.096.993-2.205 12.348 4.74 13.671 2.756 1.323-1.984 8.6-16.317 10.254-18.08 19.734-33.076 52.148-55.677 89.743-61.85 10.474-1.765 21.278-2.206 31.973-1.324 51.817 4.19 96.248 40.02 112.895 89.413 4.08 3.528 7.828 7.607 11.467 12.348 1.322 0 5.181 11.466 6.504 11.686 1.323.22 13.23-3.197 14.443-2.756 5.072-.992 9.812-1.102 14.333-.551 22.6 2.866 40.902 20.947 44.21 44.54.44 1.214 1.654 13.892 1.874 15.215.11.441 4.08.11 4.19.441.771-.11 8.71-1.653 9.591-1.764a66.165 66.165 0 0 1 11.466-.992c31.752 0 58.323 23.153 63.284 52.81 4.961 29.657-11.576 56.558-35.721 64.165 0 15.215-81.034 27.563-96.248 27.563h-473.193c-52.48 0-95.146-43.108-95.146-96.359 0-53.14 42.667-96.358 95.146-96.358 14.773 0 28.995 3.748 42.446 10.915 1.323.55 11.135 6.063 12.348 6.725 0-1.103 6.064 1.213 6.284.11.441-2.646 1.985-21.94 3.197-24.255 4.851-28.775 29.768-50.494 59.646-50.494" fill="url(#V)"/><path d="M3519.554 6337.112c17.75 0 31.311 7.827 40.131 15.655.662-1.433 13.34 7.718 14.222 6.395.882-1.323 8.6-17.09 9.702-18.302 18.633-33.847 50.164-57.22 87.098-64.386 10.364-2.095 20.948-2.756 31.752-2.205 51.487 2.867 96.469 37.485 113.888 86.216a102.93 102.93 0 0 1 9.702 14.994c.882 0 4.741 13.23 5.623 13.45.882.11 14.222-3.969 14.994-3.638 5.402-1.323 10.253-1.764 14.994-1.433 23.924 1.984 43.328 20.837 46.415 45.533.22.772 1.654 14.994 1.764 15.876 0 .33 4.741-.33 4.741-.11.551-.11 9.371-1.875 9.923-1.875 3.858-.661 7.938-1.102 11.907-1.102 33.295 0 60.747 25.468 64.055 57.55 3.307 32.083-17.53 59.976-45.754 65.048 0 10.143-88.31 18.412-98.453 18.412h-460.404c-51.377 0-93.272-42.336-93.272-94.595 0-52.148 41.785-94.594 93.272-94.594 14.773 0 29.216 3.858 42.777 11.355.882.331 11.797 6.505 12.568 6.946 0-.772 7.056 2.536 7.167 1.764.33-1.764 1.653-23.152 2.425-24.586 3.749-29.657 28.665-52.368 58.763-52.368" fill="url(#W)"/><path d="M3519.885 6338.876c17.64 0 30.76 7.938 38.918 15.324.331-.771 14.223 10.584 14.664 9.923.44-.662 8.599-17.86 9.15-18.522 17.53-34.619 48.29-58.763 84.452-66.922 10.143-2.315 20.727-3.418 31.421-3.087 51.266 1.433 96.8 35.06 114.99 83.018 3.088 5.513 5.734 11.466 8.049 17.75.441 0 4.19 15.105 4.63 15.215.442.11 15.105-4.74 15.546-4.63 5.623-1.654 10.694-2.426 15.655-2.205 25.248.992 45.864 20.727 48.62 46.635.11.441 1.544 16.097 1.654 16.538 0 .11 5.403-.772 5.403-.662.22 0 10.032-1.984 10.363-1.984 3.969-.772 8.159-1.213 12.348-1.213 34.839 0 63.283 27.783 64.937 62.291 1.654 34.509-23.483 63.504-55.676 66.04 0 5.072-95.697 9.15-100.769 9.15h-447.725c-50.274 0-91.287-41.563-91.287-92.83 0-51.266 41.013-92.94 91.287-92.94 14.774 0 29.327 3.969 43.108 11.686.441.22 12.348 6.836 12.679 7.056 0-.33 8.048 3.749 8.048 3.418.11-.882 1.323-24.255 1.764-25.027 2.426-30.429 27.342-54.022 57.771-54.022" fill="url(#X)"/><path d="M3935.197 6579.662h-538.02c-49.282 0-89.413-40.793-89.413-91.067 0-50.274 40.131-91.177 89.413-91.177 14.884 0 29.437 4.08 43.438 12.128l21.83 12.348.992-25.358c1.213-31.31 26.24-55.896 56.889-55.896 17.42 0 30.098 8.048 37.706 14.883l15.214 13.561 8.71-18.632c21.168-45.313 64.386-73.537 113.006-73.537 58.102 0 109.589 42.226 122.267 100.217l3.749 16.979 16.096-5.623c5.844-2.095 11.246-3.087 16.428-3.087 26.57 0 48.4 20.617 50.825 47.738l1.433 17.2 16.648-3.308c4.19-.772 8.489-1.323 12.789-1.323 36.272 0 65.709 30.098 65.709 67.032s-29.437 66.922-65.71 66.922" fill="url(#Y)"/></svg>