<svg xmlns="http://www.w3.org/2000/svg" xmlns:xlink="http://www.w3.org/1999/xlink" viewBox="3264.2 7452.3 841.9 841.90004" width="841.9" height="841.9"><defs><linearGradient id="C" gradientUnits="userSpaceOnUse" y1="7882.99" x2="0" y2="7853.27" xlink:href="#a" gradientTransform="translate(-370.617 -712.138) scale(1.1025)"/><linearGradient id="D" gradientUnits="userSpaceOnUse" y1="7877.43" x2="0" y2="7857.91" xlink:href="#b" gradientTransform="translate(-370.617 -712.138) scale(1.1025)"/><linearGradient id="aq" gradientUnits="userSpaceOnUse" y1="7864.51" x2="0" y2="7619.08" xlink:href="#c" gradientTransform="translate(-370.617 -712.138) scale(1.1025)"/><linearGradient id="E" gradientUnits="userSpaceOnUse" y1="7871.87" x2="0" y2="7862.55" xlink:href="#d" gradientTransform="translate(-370.617 -712.138) scale(1.1025)"/><linearGradient id="B" gradientUnits="userSpaceOnUse" y1="7888.55" x2="0" y2="7848.63" xlink:href="#f" gradientTransform="translate(-370.617 -712.138) scale(1.1025)"/><linearGradient id="A" gradientUnits="userSpaceOnUse" y1="7894.11" x2="0" y2="7843.99" xlink:href="#e" gradientTransform="translate(-370.617 -712.138) scale(1.1025)"/><linearGradient id="o" gradientUnits="userSpaceOnUse" y1="7673.49" x2="0" y2="7475.87"><stop stop-color="#95b9cc"/><stop offset="1" stop-color="#cddee8"/></linearGradient><linearGradient id="ak" gradientUnits="userSpaceOnUse" y1="7873.98" x2="0" y2="7612.4" xlink:href="#g" gradientTransform="translate(-370.617 -712.138) scale(1.1025)"/><linearGradient id="ai" gradientUnits="userSpaceOnUse" y1="7877.14" x2="0" y2="7609.53" xlink:href="#h" gradientTransform="translate(-370.617 -712.138) scale(1.1025)"/><linearGradient id="aj" gradientUnits="userSpaceOnUse" y1="7875.56" x2="0" y2="7611.01" xlink:href="#i" gradientTransform="translate(-370.617 -712.138) scale(1.1025)"/><linearGradient id="al" gradientUnits="userSpaceOnUse" y1="7872.4" x2="0" y2="7613.72" xlink:href="#j" gradientTransform="translate(-370.617 -712.138) scale(1.1025)"/><linearGradient id="am" gradientUnits="userSpaceOnUse" y1="7870.82" x2="0" y2="7614.95" xlink:href="#k" gradientTransform="translate(-370.617 -712.138) scale(1.1025)"/><linearGradient id="ap" gradientUnits="userSpaceOnUse" y1="7866.09" x2="0" y2="7618.16" xlink:href="#l" gradientTransform="translate(-370.617 -712.138) scale(1.1025)"/><linearGradient id="an" gradientUnits="userSpaceOnUse" y1="7869.24" x2="0" y2="7616.1" xlink:href="#m" gradientTransform="translate(-370.617 -712.138) scale(1.1025)"/><linearGradient id="ao" gradientUnits="userSpaceOnUse" y1="7867.67" x2="0" y2="7617.17" xlink:href="#n" gradientTransform="translate(-370.617 -712.138) scale(1.1025)"/><linearGradient id="ah" gradientUnits="userSpaceOnUse" y1="7878.72" x2="0" y2="7607.98" xlink:href="#o" gradientTransform="translate(-370.617 -712.138) scale(1.1025)"/><linearGradient id="c" gradientUnits="userSpaceOnUse" y1="7663.19" x2="0" y2="7483.97"><stop stop-color="#a7c2d4"/><stop offset="1" stop-color="#eaf7ff"/></linearGradient><linearGradient id="g" gradientUnits="userSpaceOnUse" y1="7670.06" x2="0" y2="7479.12"><stop stop-color="#9bbccf"/><stop offset="1" stop-color="#d7e6f0"/></linearGradient><linearGradient id="h" gradientUnits="userSpaceOnUse" y1="7672.34" x2="0" y2="7477.01"><stop stop-color="#97bacd"/><stop offset="1" stop-color="#d0e1eb"/></linearGradient><linearGradient id="i" gradientUnits="userSpaceOnUse" y1="7671.2" x2="0" y2="7478.09"><stop stop-color="#99bbce"/><stop offset="1" stop-color="#d3e4ed"/></linearGradient><linearGradient id="j" gradientUnits="userSpaceOnUse" y1="7668.91" x2="0" y2="7480.08"><stop stop-color="#9dbdd0"/><stop offset="1" stop-color="#dae9f2"/></linearGradient><linearGradient id="k" gradientUnits="userSpaceOnUse" y1="7667.77" x2="0" y2="7480.99"><stop stop-color="#9fbed0"/><stop offset="1" stop-color="#ddecf5"/></linearGradient><linearGradient id="l" gradientUnits="userSpaceOnUse" y1="7664.34" x2="0" y2="7483.32"><stop stop-color="#a5c1d3"/><stop offset="1" stop-color="#e7f4fc"/></linearGradient><linearGradient id="m" gradientUnits="userSpaceOnUse" y1="7666.62" x2="0" y2="7481.83"><stop stop-color="#a1bfd1"/><stop offset="1" stop-color="#e0eff7"/></linearGradient><linearGradient id="n" gradientUnits="userSpaceOnUse" y1="7665.48" x2="0" y2="7482.61"><stop stop-color="#a3c0d2"/><stop offset="1" stop-color="#e4f1fa"/></linearGradient><linearGradient id="R" gradientUnits="userSpaceOnUse" x1="3782.67" y1="7853.93" x2="3904.02" y2="7975.28" xlink:href="#p" gradientTransform="translate(-370.617 -712.138) scale(1.1025)"/><linearGradient id="P" gradientUnits="userSpaceOnUse" x1="3397.24" y1="7893" x2="3463.23" y2="7958.99" xlink:href="#q" gradientTransform="translate(-370.617 -712.138) scale(1.1025)"/><linearGradient id="Q" gradientUnits="userSpaceOnUse" x1="3400.66" y1="7897.26" x2="3459.54" y2="7956.14" xlink:href="#r" gradientTransform="translate(-370.617 -712.138) scale(1.1025)"/><linearGradient id="S" gradientUnits="userSpaceOnUse" x1="3787.07" y1="7859.41" x2="3899.28" y2="7971.62" xlink:href="#s" gradientTransform="translate(-370.617 -712.138) scale(1.1025)"/><linearGradient id="T" gradientUnits="userSpaceOnUse" x1="3791.48" y1="7864.9" x2="3894.54" y2="7967.96" xlink:href="#t" gradientTransform="translate(-370.617 -712.138) scale(1.1025)"/><linearGradient id="W" gradientUnits="userSpaceOnUse" x1="3804.68" y1="7881.35" x2="3880.31" y2="7956.98" xlink:href="#r" gradientTransform="translate(-370.617 -712.138) scale(1.1025)"/><linearGradient id="U" gradientUnits="userSpaceOnUse" x1="3795.88" y1="7870.38" x2="3889.79" y2="7964.3" xlink:href="#u" gradientTransform="translate(-370.617 -712.138) scale(1.1025)"/><linearGradient id="V" gradientUnits="userSpaceOnUse" x1="3800.28" y1="7875.87" x2="3885.05" y2="7960.64" xlink:href="#q" gradientTransform="translate(-370.617 -712.138) scale(1.1025)"/><linearGradient id="O" gradientUnits="userSpaceOnUse" x1="3393.81" y1="7888.73" x2="3466.92" y2="7961.84" xlink:href="#u" gradientTransform="translate(-370.617 -712.138) scale(1.1025)"/><linearGradient id="N" gradientUnits="userSpaceOnUse" x1="3390.39" y1="7884.46" x2="3470.61" y2="7964.69" xlink:href="#t" gradientTransform="translate(-370.617 -712.138) scale(1.1025)"/><linearGradient id="t" gradientUnits="userSpaceOnUse" x1="3554.3" y1="7917.72" x2="3689.62" y2="8053.04"><stop stop-color="#eefdff"/><stop offset="1" stop-color="#aedfff"/></linearGradient><linearGradient id="p" gradientUnits="userSpaceOnUse" x1="3542.73" y1="7903.31" x2="3702.08" y2="8062.66"><stop stop-color="#e6fcff"/><stop offset="1" stop-color="#85cfff"/></linearGradient><linearGradient id="s" gradientUnits="userSpaceOnUse" x1="3548.51" y1="7910.52" x2="3695.85" y2="8057.85"><stop stop-color="#eafdff"/><stop offset="1" stop-color="#99d7ff"/></linearGradient><linearGradient id="u" gradientUnits="userSpaceOnUse" x1="3560.08" y1="7924.92" x2="3683.39" y2="8048.24"><stop stop-color="#f3feff"/><stop offset="1" stop-color="#c2e7ff"/></linearGradient><linearGradient id="q" gradientUnits="userSpaceOnUse" x1="3565.87" y1="7932.13" x2="3677.17" y2="8043.43"><stop stop-color="#f7feff"/><stop offset="1" stop-color="#d6efff"/></linearGradient><linearGradient id="M" gradientUnits="userSpaceOnUse" x1="3386.96" y1="7880.19" x2="3474.3" y2="7967.54" xlink:href="#s" gradientTransform="translate(-370.617 -712.138) scale(1.1025)"/><linearGradient id="r" gradientUnits="userSpaceOnUse" x1="3571.65" y1="7939.33" x2="3670.94" y2="8038.62"><stop stop-color="#fbfeff"/><stop offset="1" stop-color="#ebf7ff"/></linearGradient><linearGradient id="L" gradientUnits="userSpaceOnUse" x1="3383.53" y1="7875.93" x2="3478" y2="7970.39" xlink:href="#p" gradientTransform="translate(-370.617 -712.138) scale(1.1025)"/><linearGradient id="e" gradientUnits="userSpaceOnUse" y1="7541.7" x2="0" y2="7491.6"><stop stop-color="#feffba"/><stop offset="1" stop-color="#f0f2ac"/></linearGradient><linearGradient id="f" gradientUnits="userSpaceOnUse" y1="7536.15" x2="0" y2="7496.24"><stop stop-color="#f5f798"/><stop offset="1" stop-color="#f0f2ac"/></linearGradient><linearGradient id="d" gradientUnits="userSpaceOnUse" y1="7519.49" x2="0" y2="7510.16"><stop stop-color="#dbde33"/><stop offset="1" stop-color="#f0f2ac"/></linearGradient><linearGradient id="a" gradientUnits="userSpaceOnUse" y1="7530.6" x2="0" y2="7500.88"><stop stop-color="#edef77"/><stop offset="1" stop-color="#f0f2ac"/></linearGradient><linearGradient id="b" gradientUnits="userSpaceOnUse" y1="7525.04" x2="0" y2="7505.52"><stop stop-color="#e4e655"/><stop offset="1" stop-color="#f0f2ac"/></linearGradient><linearGradient id="v" gradientUnits="userSpaceOnUse" y1="7894.11" x2="0" y2="7844" xlink:href="#e" gradientTransform="translate(-370.617 -712.138) scale(1.1025)"/><linearGradient id="w" gradientUnits="userSpaceOnUse" y1="7888.56" x2="0" y2="7848.65" xlink:href="#f" gradientTransform="translate(-370.617 -712.138) scale(1.1025)"/><linearGradient id="z" gradientUnits="userSpaceOnUse" y1="7871.9" x2="0" y2="7862.58" xlink:href="#d" gradientTransform="translate(-370.617 -712.138) scale(1.1025)"/><linearGradient id="x" gradientUnits="userSpaceOnUse" y1="7883.01" x2="0" y2="7853.29" xlink:href="#a" gradientTransform="translate(-370.617 -712.138) scale(1.1025)"/><linearGradient id="y" gradientUnits="userSpaceOnUse" y1="7877.45" x2="0" y2="7857.94" xlink:href="#b" gradientTransform="translate(-370.617 -712.138) scale(1.1025)"/><linearGradient xlink:href="#p" id="F" gradientUnits="userSpaceOnUse" x1="3542.73" y1="7903.31" x2="3702.08" y2="8062.66" gradientTransform="translate(-370.617 -712.138) scale(1.1025)"/><linearGradient xlink:href="#s" id="G" gradientUnits="userSpaceOnUse" x1="3548.51" y1="7910.52" x2="3695.85" y2="8057.85" gradientTransform="translate(-370.617 -712.138) scale(1.1025)"/><linearGradient xlink:href="#t" id="H" gradientUnits="userSpaceOnUse" x1="3554.3" y1="7917.72" x2="3689.62" y2="8053.04" gradientTransform="translate(-370.617 -712.138) scale(1.1025)"/><linearGradient xlink:href="#u" id="I" gradientUnits="userSpaceOnUse" x1="3560.08" y1="7924.92" x2="3683.39" y2="8048.24" gradientTransform="translate(-370.617 -712.138) scale(1.1025)"/><linearGradient xlink:href="#q" id="J" gradientUnits="userSpaceOnUse" x1="3565.87" y1="7932.13" x2="3677.17" y2="8043.43" gradientTransform="translate(-370.617 -712.138) scale(1.1025)"/><linearGradient xlink:href="#r" id="K" gradientUnits="userSpaceOnUse" x1="3571.65" y1="7939.33" x2="3670.94" y2="8038.62" gradientTransform="translate(-370.617 -712.138) scale(1.1025)"/><linearGradient xlink:href="#o" id="X" gradientUnits="userSpaceOnUse" y1="7673.49" x2="0" y2="7475.87" gradientTransform="translate(-370.617 -712.138) scale(1.1025)"/><linearGradient xlink:href="#h" id="Y" gradientUnits="userSpaceOnUse" y1="7672.34" x2="0" y2="7477.01" gradientTransform="translate(-370.617 -712.138) scale(1.1025)"/><linearGradient xlink:href="#i" id="Z" gradientUnits="userSpaceOnUse" y1="7671.2" x2="0" y2="7478.09" gradientTransform="translate(-370.617 -712.138) scale(1.1025)"/><linearGradient xlink:href="#g" id="aa" gradientUnits="userSpaceOnUse" y1="7670.06" x2="0" y2="7479.12" gradientTransform="translate(-370.617 -712.138) scale(1.1025)"/><linearGradient xlink:href="#j" id="ab" gradientUnits="userSpaceOnUse" y1="7668.91" x2="0" y2="7480.08" gradientTransform="translate(-370.617 -712.138) scale(1.1025)"/><linearGradient xlink:href="#k" id="ac" gradientUnits="userSpaceOnUse" y1="7667.77" x2="0" y2="7480.99" gradientTransform="translate(-370.617 -712.138) scale(1.1025)"/><linearGradient xlink:href="#m" id="ad" gradientUnits="userSpaceOnUse" y1="7666.62" x2="0" y2="7481.83" gradientTransform="translate(-370.617 -712.138) scale(1.1025)"/><linearGradient xlink:href="#n" id="ae" gradientUnits="userSpaceOnUse" y1="7665.48" x2="0" y2="7482.61" gradientTransform="translate(-370.617 -712.138) scale(1.1025)"/><linearGradient xlink:href="#l" id="af" gradientUnits="userSpaceOnUse" y1="7664.34" x2="0" y2="7483.32" gradientTransform="translate(-370.617 -712.138) scale(1.1025)"/><linearGradient xlink:href="#c" id="ag" gradientUnits="userSpaceOnUse" y1="7663.19" x2="0" y2="7483.97" gradientTransform="translate(-370.617 -712.138) scale(1.1025)"/></defs><path d="M3400.815 7961.009c0 17.86-14.553 32.413-32.413 32.413-17.861 0-32.414-14.553-32.414-32.413 0-17.86 14.553-32.414 32.413-32.414 17.861 0 32.414 14.553 32.414 32.414" fill="none"/><path d="M3394.2 7961.009c0 14.222-11.466 25.908-25.909 25.908-14.332 0-25.909-11.465-25.909-25.908 0-14.223 11.466-25.909 25.91-25.909 14.442 0 25.908 11.686 25.908 25.909" opacity=".25" fill="url(#w)"/><path d="M3387.695 7961.009a19.127 19.127 0 0 1-19.183 19.183c-10.695 0-19.294-8.71-19.294-19.183 0-10.584 8.49-19.184 19.294-19.184 10.473 0 19.183 8.6 19.183 19.184" opacity=".5" fill="url(#x)"/><path d="M3380.97 7961.009c0 6.946-5.623 12.568-12.569 12.568-7.055 0-12.568-5.622-12.568-12.568s5.623-12.569 12.569-12.569c7.055 0 12.568 5.623 12.568 12.569" opacity=".75" fill="url(#y)"/><path d="M3374.355 7961.009c0 3.417-2.646 6.063-6.064 6.063s-6.064-2.646-6.064-6.063c0-3.418 2.647-6.064 6.064-6.064 3.418 0 6.064 2.646 6.064 6.064" fill="url(#z)"/><path d="M3990.653 7961.009c0 17.86-14.553 32.413-32.414 32.413-17.86 0-32.413-14.553-32.413-32.413 0-17.86 14.552-32.414 32.413-32.414 17.86 0 32.413 14.553 32.413 32.414" fill="none"/><path d="M3984.037 7961.009c0 14.222-11.465 25.908-25.908 25.908-14.443 0-25.909-11.465-25.909-25.908 0-14.223 11.466-25.909 25.909-25.909s25.909 11.686 25.909 25.909" opacity=".25" fill="url(#B)"/><path d="M3977.312 7961.009a19.127 19.127 0 0 1-19.183 19.183c-10.694 0-19.294-8.71-19.294-19.183 0-10.584 8.49-19.184 19.294-19.184 10.694-.11 19.183 8.6 19.183 19.184" opacity=".5" fill="url(#C)"/><path d="M3970.807 7961.009c0 6.946-5.622 12.568-12.568 12.568-7.056 0-12.569-5.622-12.569-12.568s5.623-12.569 12.569-12.569c6.946 0 12.569 5.623 12.569 12.569" opacity=".75" fill="url(#D)"/><path d="M3964.193 7961.009c0 3.417-2.647 6.063-6.064 6.063-3.418 0-6.064-2.646-6.064-6.063 0-3.418 2.646-6.064 6.064-6.064s6.064 2.646 6.064 6.064" fill="url(#E)"/><path d="M3686.032 8242.367h-64.386v-64.276l-49.502 28.555-6.174 3.638-3.639-6.174-25.026-43.438-3.528-6.174 6.063-3.639 49.503-28.444-49.503-28.555-6.063-3.638 3.528-6.174 25.026-43.439 3.639-6.174 6.174 3.528 49.502 28.555V8002.353h64.386v64.165l49.502-28.555 6.174-3.528 3.528 6.174 25.027 43.439 3.528 6.174-6.064 3.638-49.392 28.555 49.392 28.444 6.064 3.638-3.528 6.175-25.027 43.438-3.528 6.174-6.174-3.638-49.502-28.555v64.276" fill="#9cb1bf"/><path d="M3674.125 8228.034h-64.386v-64.276l-49.502 28.555-6.175 3.528-3.527-6.174-25.137-43.438-3.639-6.285 6.174-3.528 49.503-28.444-49.503-28.555-6.174-3.638 3.639-6.174 25.136-43.438 3.529-6.175 6.173 3.529 49.503 28.665v-64.276h64.386v64.276l49.502-28.665 6.174-3.528 3.528 6.173 25.137 43.439 3.528 6.174-6.174 3.638-49.392 28.555 49.392 28.445 6.174 3.527-3.528 6.285-25.137 43.438-3.528 6.174-6.174-3.528-49.502-28.555v64.276" fill="#78b5db"/><path d="M3752.292 8073.243l-25.137-43.549-60.197 34.73v-69.458h-50.163v69.457l-60.197-34.728-25.027 43.548 60.087 34.729-60.087 34.729 25.027 43.438 60.197-34.729v69.458h50.163v-69.457l60.197 34.728 25.137-43.438-60.197-34.729z" fill="url(#F)"/><path d="M3742.26 8075.669l-23.264-40.131-55.565 32.083v-64.276h-46.416v64.275l-55.566-32.082-23.152 40.13 55.566 32.194-55.566 32.083 23.152 40.24 55.566-32.082v64.165h46.416v-64.165l55.566 32.083 23.262-40.241-55.566-32.083z" fill="url(#G)"/><path d="M3732.227 8078.205l-21.279-36.934-51.045 29.547v-59.094h-42.557v59.094l-51.156-29.547-21.168 36.934 50.935 29.547-50.935 29.547 21.168 36.933 51.156-29.547v59.094h42.556v-59.094l51.046 29.547 21.279-36.933-51.046-29.547z" fill="url(#H)"/><path d="M3722.194 8080.74l-19.404-33.736-46.526 26.9v-53.801h-38.698v53.802l-46.525-26.901-19.404 33.736 46.525 26.901-46.525 26.901 19.404 33.737 46.525-26.901v53.802h38.698v-53.802l46.526 26.9 19.404-33.736-46.526-26.9z" fill="url(#I)"/><path d="M3712.161 8083.276l-17.53-30.54-41.895 24.366v-48.62h-34.949v48.62l-41.895-24.365-17.53 30.539 41.895 24.255-41.895 24.365 17.53 30.43 41.895-24.366v48.62h34.95v-48.62l41.894 24.365 17.53-30.429-41.895-24.365z" fill="url(#J)"/><path d="M3702.128 8085.702l-15.545-27.122-37.375 21.72v-43.44h-31.2v43.44l-37.375-21.72-15.545 27.122 37.264 21.719-37.264 21.719 15.545 27.232 37.375-21.72v43.439h31.2v-43.439l37.375 21.72 15.545-27.232-37.375-21.72z" fill="url(#K)"/><path d="M3692.095 8088.237l-13.67-23.924-32.855 19.073v-38.146h-27.342v38.146l-32.744-19.073-13.671 23.924 32.744 19.073-32.744 19.184 13.67 23.924 32.745-19.073v38.146h27.342v-38.146l32.855 19.073 13.67-23.924-32.854-19.183z" fill="#fff"/><path d="M3449.104 8114.036h-38.146v-38.147l-29.326 16.979-3.749 2.094-2.095-3.638-14.884-25.798-2.094-3.638 3.638-2.095 29.326-16.868-29.326-16.979-3.638-2.095 2.094-3.638 14.884-25.798 2.095-3.749 3.748 2.205 29.327 16.868V7971.703h38.147V8009.74l29.326-16.868 3.638-2.205 2.095 3.749 14.884 25.798 2.095 3.638-3.639 2.095-29.216 16.979 29.216 16.868 3.639 2.095-2.095 3.638-14.884 25.798-2.095 3.638-3.638-2.094-29.326-16.979v38.147" fill="#9cb1bf"/><path d="M3442.048 8105.436h-38.146V8067.4l-29.326 16.868-3.639 2.205-2.205-3.638-14.883-25.799-2.095-3.748 3.638-2.095 29.326-16.868-29.326-16.978-3.638-2.095 2.095-3.638 14.883-25.799 2.205-3.638 3.639 2.095 29.326 16.978v-38.147h38.147v38.147l29.326-16.978 3.638-2.095 2.205 3.638 14.774 25.799 2.205 3.638-3.749 2.095-29.216 16.978 29.216 16.868 3.749 2.095-2.205 3.749-14.774 25.798-2.205 3.638-3.638-2.205-29.326-16.868v38.037" fill="#78b5db"/><path d="M3488.354 8013.708l-14.884-25.798-35.611 20.617v-41.124h-29.767v41.124l-35.721-20.617-14.774 25.798 35.61 20.617-35.61 20.507 14.774 25.798 35.72-20.506v41.123h29.768v-41.124l35.61 20.507 14.885-25.799-35.611-20.506z" fill="url(#L)"/><path d="M3482.4 8015.252l-13.671-23.925-32.965 19.074v-38.036h-27.562v38.036l-32.965-19.073-13.671 23.924 32.855 18.963-32.855 19.073 13.671 23.814 32.965-18.963v38.036h27.562v-38.036l32.965 18.963 13.671-23.814-32.965-19.073z" fill="url(#M)"/><path d="M3476.447 8016.685l-12.569-21.94-30.209 17.53v-34.95h-25.357v34.95l-30.209-17.53-12.568 21.94 30.209 17.53-30.209 17.42 12.569 21.939 30.208-17.42v34.95h25.358v-34.95l30.208 17.42 12.569-21.94-30.209-17.42z" fill="url(#N)"/><path d="M3470.603 8018.229l-11.576-20.066-27.563 15.986v-31.862h-22.931v31.862l-27.563-15.986-11.466 20.066 27.452 15.875-27.452 15.987 11.466 19.955 27.563-15.876v31.862h22.932v-31.862l27.562 15.876 11.576-19.955-27.562-15.987z" fill="url(#O)"/><path d="M3464.65 8019.662l-10.364-18.081-24.916 14.442v-28.775h-20.727v28.775l-24.806-14.442-10.364 18.08 24.806 14.443-24.806 14.443 10.364 17.971 24.806-14.333v28.776h20.727v-28.776l24.916 14.333 10.364-17.97-24.917-14.444z" fill="url(#P)"/><path d="M3458.696 8021.095l-9.26-16.096-22.161 12.899v-25.688h-18.522v25.688l-22.16-12.9-9.151 16.097 22.05 12.9-22.05 12.899 9.15 16.096 22.161-12.789v25.688h18.522v-25.688l22.16 12.789 9.261-16.096-22.16-12.9z" fill="url(#Q)"/><path d="M3452.743 8022.639l-8.159-14.223-19.404 11.356v-22.601h-16.206v22.601l-19.515-11.356-8.048 14.222 19.404 11.356-19.404 11.356 8.048 14.112 19.515-11.245v22.6h16.206v-22.6l19.404 11.245 8.159-14.112-19.404-11.356z" fill="#fff"/><path d="M3914.58 8130.463h-49.061v-48.951l-37.706 21.83-4.74 2.645-2.647-4.74-19.183-33.075-2.646-4.63 4.63-2.757 37.706-21.72-37.706-21.719-4.63-2.756 2.646-4.74 19.183-33.076 2.646-4.74 4.741 2.756 37.706 21.72v-48.952h49.061v48.952l37.706-21.72 4.74-2.756 2.646 4.74 19.184 33.075 2.646 4.741-4.741 2.756-37.595 21.72 37.595 21.719 4.74 2.756-2.645 4.63-19.184 33.076-2.646 4.74-4.74-2.646-37.706-21.829v48.951" fill="#9cb1bf"/><path d="M3905.54 8119.438h-49.062v-48.951l-37.705 21.83-4.741 2.645-2.646-4.63-19.184-33.075-2.646-4.74 4.631-2.757 37.705-21.72-37.705-21.719-4.63-2.756 2.645-4.63 19.184-33.186 2.646-4.74 4.74 2.756 37.706 21.72v-48.842h49.061v48.842l37.706-21.72 4.74-2.756 2.647 4.74 19.073 33.186 2.756 4.63-4.74 2.756-37.596 21.72 37.595 21.719 4.741 2.756-2.756 4.741-19.073 33.075-2.646 4.63-4.741-2.646-37.706-21.829v48.951" fill="#78b5db"/><path d="M3965.075 8001.58l-19.184-33.074-45.754 26.46v-52.92h-38.257v52.92l-45.753-26.46-19.184 33.075 45.864 26.46-45.864 26.46 19.184 33.075 45.753-26.46v52.92h38.257v-52.92l45.754 26.46 19.183-33.075-45.863-26.46z" fill="url(#R)"/><path d="M3957.467 8003.455l-17.75-30.54-42.336 24.366v-48.84h-35.28v48.84l-42.336-24.365-17.75 30.539 42.336 24.476-42.336 24.475 17.75 30.65 42.336-24.476v48.951h35.28v-48.951l42.336 24.476 17.75-30.65-42.336-24.476z" fill="url(#S)"/><path d="M3949.75 8005.44l-16.207-28.224-38.808 22.49v-44.981h-32.524v44.981l-38.808-22.49-16.206 28.223 38.807 22.492-38.807 22.49 16.206 28.114 38.808-22.49v44.981h32.524v-44.982l38.808 22.491 16.207-28.113-38.808-22.491z" fill="url(#T)"/><path d="M3942.142 8007.314l-14.773-25.689-35.39 20.507v-41.013h-29.547v41.013l-35.39-20.506-14.774 25.688 35.39 20.506-35.39 20.507 14.774 25.688 35.39-20.506v41.012h29.547v-41.012l35.39 20.506 14.774-25.688-35.39-20.507z" fill="url(#U)"/><path d="M3934.535 8009.188l-13.34-23.152-31.973 18.521v-37.043h-26.57v37.043l-31.972-18.521-13.34 23.152 31.972 18.522-31.972 18.522 13.34 23.263 31.972-18.522v37.044h26.57v-37.044l31.973 18.522 13.34-23.263-31.972-18.522z" fill="url(#V)"/><path d="M3926.928 8011.062l-11.907-20.617-28.445 16.538v-33.075h-23.814v33.075l-28.444-16.538-11.797 20.617 28.445 16.648-28.445 16.538 11.797 20.727 28.444-16.538v33.075h23.814v-33.075l28.445 16.538 11.797-20.728-28.335-16.537z" fill="url(#W)"/><path d="M3919.21 8013.047l-10.363-18.191-25.027 14.442v-28.996h-20.837v28.996l-25.027-14.443-10.363 18.192 24.916 14.553-24.916 14.553 10.363 18.191 25.027-14.443v29.106h20.837v-29.106l25.027 14.443 10.364-18.191-24.917-14.553z" fill="#fff"/><path d="M4025.381 7639.52c-4.079 0-7.938.44-11.796 1.212-2.206-25.357-23.263-45.202-49.172-45.202-5.623 0-10.915 1.103-15.876 2.866-10.474-46.966-52.148-82.025-102.312-82.025-41.785 0-77.726 24.695-94.594 60.086-9.482-8.38-21.83-13.671-35.501-13.671-29.106 0-52.59 23.042-53.802 51.707-11.246-6.284-24.035-10.253-37.926-10.253-42.998 0-77.947 34.949-77.947 77.946 0 42.998 34.95 77.947 77.947 77.947h400.98c33.295 0 60.306-27.011 60.306-60.307.11-33.295-26.901-60.306-60.307-60.306" fill="#9cb1bf"/><path d="M4017.994 7627.282c-3.969 0-7.938.441-11.796 1.213-2.205-25.358-23.263-45.203-49.172-45.203-5.622 0-10.914 1.103-15.876 2.867-10.474-46.967-52.148-82.026-102.312-82.026-41.785 0-77.616 24.696-94.484 60.196-9.482-8.379-21.83-13.67-35.5-13.67-28.996 0-52.59 23.042-53.803 51.707-11.245-6.285-24.144-10.254-37.926-10.254-42.997 0-77.946 34.84-77.946 77.947 0 43.108 34.949 77.837 77.946 77.837h400.98c33.295 0 60.417-27.012 60.417-60.307-.22-33.296-27.232-60.307-60.528-60.307" fill="url(#X)"/><path d="M3708.964 7551.76c13.56 0 25.578 5.403 34.618 13.341 1.985-4.19 5.513-7.166 8.159-11.025 2.646-3.859 6.174-9.04 9.371-12.569 18.302-21.498 45.092-35.17 75.08-35.94 8.6-.222 16.979.66 25.137 2.425 38.257 8.489 68.576 38.367 77.837 76.623 4.63-.992 9.481-1.433 14.663-.882 2.646 0 5.623 1.654 8.048 2.095 2.426.441 6.174.662 8.49 1.433 2.756.662 5.291 1.544 7.827 2.757 11.577 5.402 20.727 15.765 24.366 28.554.771 2.316 1.433 6.174 1.874 8.71.11.882.551 1.544.661 2.426 1.654-.331 4.41-.772 6.064-.993 2.095-.22 4.3-.44 6.395-.44 17.75 0 33.626 8.489 43.328 21.167 9.702 12.68 13.34 28.555 10.363 43.329 0 29.547-30.76 53.581-60.306 53.581h-384.773c-38.257 0-77.947-30.98-77.947-69.237-3.969-19.183.552-39.8 13.01-56.338 12.568-16.647 33.075-27.672 56.227-27.672 10.584 0 20.617 2.315 29.768 6.394 2.536 1.103 6.064 2.867 8.489 4.3.11-2.095.992-3.749 1.323-5.733.882-5.072 2.646-11.907 4.961-16.317 8.159-17.53 26.13-29.988 46.967-29.988" fill="url(#Y)"/><path d="M3709.294 7553.084c13.451 0 25.138 5.402 33.737 13.01 1.764-3.75 6.284-5.072 8.49-8.38 2.314-3.417 6.283-9.702 9.04-12.678 17.53-22.05 43.659-36.273 73.096-37.816 8.489-.441 16.757.22 24.806 1.764 38.146 7.387 68.796 36.493 78.608 74.308 4.3-.22 8.82 0 13.45 1.103 2.316 0 5.182 2.977 7.387 3.307 2.205.441 6.836 0 8.93.772 2.977.441 5.734 1.103 8.38 2.095 12.568 4.74 22.49 15.766 25.908 29.326.662 2.095 1.434 7.056 1.764 9.151.11.772.882 1.323.993 2.095 1.433-.33 4.96-.882 6.394-1.103 2.205-.33 4.52-.44 6.836-.44 18.852 0 35.39 10.142 43.879 24.695 8.49 14.443 8.93 31.09 3.087 44.1 0 25.91-34.398 46.857-60.307 46.857h-368.565c-33.516 0-77.837-27.122-77.837-60.528-7.938-16.758-7.717-38.477 3.308-57.66 11.025-19.074 32.634-32.524 57.33-32.524 10.584 0 20.727 2.425 30.098 6.725 2.205.992 6.505 3.197 8.6 4.41.11-1.874 1.653-2.866 1.984-4.63.772-4.41 2.425-12.79 4.41-16.648 7.166-18.302 25.137-31.311 46.195-31.311" fill="url(#Z)"/><path d="M3709.515 7554.297c13.34 0 24.696 5.512 32.855 12.678 1.543-3.197 6.945-2.866 8.93-5.843 1.984-2.866 6.284-10.253 8.6-12.789 16.757-22.491 42.225-37.375 71.22-39.69 8.27-.661 16.538-.22 24.586 1.103 37.926 6.394 69.127 34.728 79.49 71.993a42.112 42.112 0 0 1 12.128 3.197c1.985 0 4.851 4.3 6.725 4.63 1.875.331 7.608-.55 9.261.11 3.087.111 6.064.662 8.82 1.544 13.561 4.08 24.366 15.656 27.563 30.099.551 1.764 1.323 7.827 1.654 9.702.11.661 1.212.992 1.323 1.653 1.212-.22 5.512-1.102 6.725-1.212 2.315-.331 4.74-.552 7.166-.552 19.955 0 37.154 11.797 44.431 28.114 7.276 16.317 4.63 33.626-4.19 44.762 0 22.16-38.036 40.13-60.306 40.13h-352.36c-28.664 0-77.836-23.262-77.836-51.927-12.017-14.333-15.876-37.265-6.505-58.874 9.372-21.609 32.193-37.374 58.433-37.374 10.584 0 20.837 2.535 30.319 7.056 1.874.771 6.945 3.528 8.71 4.52.11-1.544 2.425-1.874 2.645-3.418.662-3.748 2.205-13.56 3.86-16.868 6.504-18.963 24.475-32.744 45.753-32.744" fill="url(#aa)"/><path d="M3709.735 7555.62c13.23 0 24.255 5.512 31.973 12.458 1.213-2.646 7.607-.772 9.261-3.198 1.654-2.425 6.284-10.804 8.269-12.899 15.986-23.042 40.792-38.477 69.237-41.454 8.158-.882 16.317-.661 24.255.441 37.815 5.292 69.347 32.855 80.372 69.678a49 49 0 0 1 10.915 5.182c1.653 0 4.52 5.623 6.063 5.954 1.544.33 8.27-1.213 9.702-.662 3.308-.11 6.395.22 9.372.882 14.553 3.418 26.129 15.545 29.106 30.87.44 1.433 1.323 8.6 1.543 10.143.11.551 1.544.772 1.654 1.323 1.103-.22 6.064-1.213 7.166-1.323 2.426-.33 4.961-.662 7.497-.662 21.058 0 39.029 13.561 45.092 31.642 6.064 18.081.221 36.162-11.466 45.423 0 18.522-41.784 33.516-60.196 33.516h-336.152c-23.925 0-77.837-19.293-77.837-43.218-15.986-12.017-24.145-36.051-16.317-60.196 7.828-24.145 31.642-42.226 59.645-42.226 10.695 0 20.948 2.536 30.54 7.387 1.653.661 7.386 3.859 8.82 4.74.11-1.322 3.087-.992 3.307-2.205.551-3.197 1.874-14.442 3.418-17.198 5.292-19.956 23.373-34.399 44.761-34.399" fill="url(#ab)"/><path d="M3709.956 7556.832c13.23 0 23.704 5.623 31.09 12.128.993-2.095 8.27 1.323 9.592-.552 1.323-1.984 6.285-11.355 7.828-13.12 15.104-23.593 39.47-39.579 67.363-43.328 7.938-1.102 15.986-1.102 24.034-.22 37.706 4.19 69.568 31.09 81.144 67.363 3.308 1.874 6.505 4.19 9.702 7.166 1.323 0 4.19 7.056 5.403 7.276 1.212.221 8.93-1.764 10.143-1.323 3.528-.44 6.725-.33 9.922.331 15.545 2.756 28.004 15.435 30.76 31.642.33 1.213 1.323 9.371 1.433 10.694.11.441 1.874.441 1.985.882.882-.22 6.615-1.323 7.497-1.433a46.283 46.283 0 0 1 7.938-.662c22.16 0 40.792 15.215 45.643 35.06 4.851 19.845-4.08 38.698-18.853 46.195 0 14.773-45.423 26.79-60.196 26.79h-319.946c-19.073 0-77.726-15.434-77.726-34.618-19.955-9.592-32.413-34.839-26.13-61.41 6.285-26.68 31.202-47.186 60.749-47.186 10.694 0 21.057 2.646 30.76 7.607 1.322.551 7.827 4.19 8.93 4.851 0-.992 3.748 0 3.858-.992.441-2.536 1.654-15.325 2.867-17.42 4.52-20.506 22.711-35.72 44.21-35.72" fill="url(#ac)"/><path d="M3710.287 7558.155c13.12 0 23.263 5.733 30.208 11.797.772-1.544 9.04 3.528 10.033 1.984.992-1.433 6.284-11.906 7.497-13.23 14.332-24.144 38.036-40.682 65.378-45.202 7.828-1.323 15.766-1.654 23.704-.882 37.595 3.197 69.898 29.216 82.026 65.047 2.977 2.647 5.733 5.623 8.379 9.151.992 0 3.859 8.38 4.74 8.49.883.22 9.592-2.316 10.474-2.095 3.749-.662 7.167-.772 10.364-.331 16.537 2.095 29.878 15.325 32.303 32.524.331.882 1.213 10.253 1.323 11.135 0 .33 2.205.22 2.315.551.662-.11 7.167-1.433 7.828-1.543 2.646-.441 5.402-.772 8.269-.772 23.263 0 42.556 16.979 46.195 38.587 3.638 21.61-8.49 41.234-26.13 46.857 0 11.135-49.06 20.065-60.196 20.065h-303.739c-14.332 0-77.726-11.576-77.726-25.908-23.924-7.167-40.572-33.517-35.831-62.733 4.74-29.216 30.76-52.038 61.85-52.038 10.694 0 21.168 2.756 30.98 7.938.993.441 8.159 4.52 9.151 4.962 0-.772 4.41.881 4.52.11.331-1.874 1.434-16.097 2.316-17.75 3.748-20.838 21.94-36.714 43.769-36.714" fill="url(#ad)"/><path d="M3710.507 7559.368c13.01 0 22.822 5.733 29.327 11.466.551-1.102 9.702 5.623 10.363 4.63.662-.992 6.285-12.458 7.056-13.34 13.561-24.696 36.603-41.784 63.504-47.076a87.81 87.81 0 0 1 23.484-1.544c37.485 2.095 70.119 27.342 82.908 62.732 2.646 3.418 4.96 7.056 7.166 11.136.661 0 3.528 9.702 4.079 9.812.662.11 10.364-2.977 10.915-2.756 3.859-.882 7.497-1.213 10.915-.993 17.419 1.434 31.641 15.215 33.956 33.296.221.551 1.213 11.025 1.213 11.576 0 .22 2.646-.11 2.646.11.441-.11 7.718-1.543 8.159-1.543 2.756-.441 5.623-.772 8.6-.772 24.254 0 44.43 18.632 46.855 42.005 2.426 23.373-12.788 43.88-33.405 47.518 0 7.387-52.7 13.34-60.197 13.34H3680.52c-9.591 0-77.726-7.717-77.726-17.309-28.003-4.74-48.84-32.303-45.644-63.945 3.088-31.642 30.209-56.889 62.953-56.889 10.805 0 21.279 2.867 31.201 8.269.661.22 8.6 4.74 9.261 5.182 0-.552 5.072 1.874 5.182 1.323.22-1.213 1.212-16.979 1.764-18.081 2.756-21.5 21.057-38.147 42.997-38.147" fill="url(#ae)"/><path d="M3710.728 7560.691c12.899 0 22.38 5.843 28.444 11.135.22-.551 10.364 7.718 10.695 7.277.33-.441 6.284-13.01 6.725-13.45 12.789-25.248 35.17-42.888 61.63-48.952 7.496-1.764 15.324-2.536 23.152-2.315 37.375 1.102 70.45 25.578 83.68 60.417 2.315 4.08 4.3 8.49 5.843 13.12.33 0 3.087 11.025 3.418 11.135.33.11 11.025-3.528 11.356-3.418 4.079-1.213 7.827-1.764 11.466-1.543 18.411.661 33.515 15.104 35.5 34.067.11.33 1.103 11.797 1.213 12.128 0 .11 2.977-.331 2.977-.221.22 0 8.268-1.654 8.489-1.654 2.866-.551 5.953-.882 8.93-.882 25.358 0 46.195 20.286 47.407 45.534 1.213 25.136-17.198 46.415-40.682 48.179 0 3.748-56.448 6.725-60.086 6.725H3689.67c-4.74 0-77.726-3.859-77.726-8.71-31.973-2.425-57-31.09-55.456-65.268 1.543-34.177 29.767-61.74 64.165-61.74 10.805 0 21.389 2.867 31.422 8.6.33.11 9.04 5.071 9.371 5.292 0-.22 5.733 2.756 5.843 2.536.11-.662.992-17.75 1.323-18.302 1.764-22.491 19.955-39.69 42.116-39.69" fill="url(#af)"/><path d="M4013.915 7736.54h-392.82c-35.942 0-65.268-29.878-65.268-66.591 0-36.714 29.326-66.591 65.267-66.591 10.805 0 21.5 2.976 31.642 8.82l15.876 9.15.772-18.632c.882-22.822 19.183-40.792 41.564-40.792 12.79 0 21.94 5.843 27.453 10.914l11.135 9.923 6.394-13.56c15.325-33.076 46.967-53.693 82.578-53.693 42.446 0 79.93 30.76 89.192 73.206l2.756 12.459 11.687-4.19c4.3-1.433 8.158-2.205 11.906-2.205 19.405 0 35.28 14.994 37.155 34.84l1.102 12.568 12.128-2.426c3.087-.551 6.174-.992 9.371-.992 26.46 0 48.069 22.05 48.069 48.951s-21.499 48.84-47.959 48.84" fill="url(#ag)"/><path d="M3952.837 7823.968c-5.513 0-10.915.551-16.097 1.654-3.087-34.729-31.972-61.85-67.362-61.85-7.718 0-14.884 1.543-21.72 3.858-14.332-64.276-71.552-112.344-140.127-112.344-57.33 0-106.392 33.846-129.544 82.356-13.01-11.466-29.988-18.742-48.73-18.742-39.801 0-71.994 31.531-73.758 70.89-15.435-8.599-33.075-14.001-52.038-14.001-58.874 0-106.722 47.738-106.722 106.832 0 58.984 47.848 106.722 106.722 106.722h549.265c45.644 0 82.688-37.044 82.688-82.577 0-45.864-36.934-82.798-82.577-82.798" fill="#9cb1bf"/><path d="M3940.71 7808.864c-5.513 0-10.916.551-16.097 1.654-3.087-34.619-31.973-61.85-67.363-61.85-7.607 0-14.884 1.543-21.72 3.858-14.332-64.276-71.552-112.345-140.127-112.345-57.33 0-106.391 33.847-129.544 82.357-13.01-11.466-29.988-18.632-48.73-18.632-39.8 0-71.994 31.531-73.758 70.89-15.435-8.71-32.964-14.111-52.038-14.111-58.983 0-106.722 47.848-106.722 106.722 0 58.983 47.739 106.722 106.722 106.722H3940.6c45.643 0 82.687-37.044 82.687-82.688.11-45.643-36.933-82.577-82.577-82.577" fill="url(#ah)"/><path d="M3517.46 7705.56c18.632 0 35.059 7.276 47.517 18.301 2.757-5.843 7.608-9.812 11.136-15.104 3.638-5.292 8.489-12.458 12.789-17.2 25.137-29.326 61.74-48.178 102.863-49.17 11.356-.331 22.49.771 33.185 3.086 52.92 11.246 94.925 52.48 107.714 105.289 6.395-1.323 13.01-1.984 19.956-1.213 3.638 0 7.607 2.205 11.025 2.867 3.417.551 8.489.882 11.686 1.984 3.748.882 7.387 2.205 10.805 3.749 15.986 7.386 28.334 21.719 33.405 39.138 1.103 3.198 1.985 8.49 2.536 11.908.22 1.102.992 2.094 1.103 3.307 2.094-.441 5.512-.992 7.717-1.213 3.087-.33 6.174-.551 9.261-.551 24.255 0 45.974 11.576 59.204 28.996 13.34 17.42 18.302 39.138 14.223 59.424 0 40.572-44.321 73.427-84.893 73.427h-536.587c-57.881 0-104.847-46.967-104.847-105.068 0-57.992 46.966-105.069 104.847-105.069 14.553 0 28.224 3.198 40.903 8.82 3.528 1.434 8.269 3.97 11.576 5.844.11-2.867 1.434-5.182 1.875-7.938 1.212-6.946 3.638-16.317 6.725-22.27 11.135-24.476 35.72-41.345 64.276-41.345" fill="url(#ai)"/><path d="M3517.79 7707.213c18.412 0 34.398 7.387 46.195 17.86 2.425-5.07 8.6-6.945 11.687-11.575 3.086-4.63 8.489-13.23 12.347-17.42 24.035-30.098 59.756-49.612 100.218-51.707a142.63 142.63 0 0 1 32.964 2.205c52.7 9.922 95.256 49.943 108.707 102.091 5.953-.33 12.017 0 18.301 1.544 3.198 0 7.167 4.08 10.143 4.63 2.977.552 9.372.11 12.238 1.103 4.08.551 7.828 1.543 11.466 2.866 17.2 6.505 30.87 21.61 35.5 40.241.883 2.867 1.985 9.592 2.426 12.57.11.991 1.544 1.763 1.654 2.755 1.874-.33 6.174-1.102 8.048-1.323a70.525 70.525 0 0 1 9.702-.661c25.799 0 48.4 13.891 60.086 33.736 11.687 19.845 12.348 42.557 4.19 60.307 0 35.5-51.707 64.276-87.208 64.276h-523.908c-56.779 0-102.863-46.195-102.863-103.304 0-57 46.084-103.305 102.863-103.305 14.553 0 28.445 3.308 41.234 9.261 3.087 1.323 8.93 4.41 11.796 6.064.11-2.536 2.316-3.859 2.757-6.394 1.102-6.064 3.307-17.42 6.063-22.712 9.923-25.137 34.509-43.108 63.394-43.108" fill="url(#aj)"/><path d="M3518.121 7708.977c18.302 0 33.736 7.497 44.982 17.42 2.095-4.3 9.482-3.97 12.238-7.938 2.646-3.97 8.6-14.002 11.797-17.53 22.931-30.87 57.88-51.156 97.57-54.243 11.026-.882 21.94-.441 32.745 1.323 52.479 8.49 95.477 47.518 109.809 98.894 5.402.662 11.025 1.874 16.538 4.19 2.756 0 6.614 5.843 9.26 6.394 2.536.441 10.364-.771 12.79.11 4.3.11 8.268.883 12.237 2.095 18.633 5.623 33.406 21.389 37.706 41.344.772 2.425 1.874 10.694 2.205 13.23.11.882 2.205 1.323 2.315 2.205 1.544-.33 6.835-1.323 8.379-1.433 3.308-.441 6.725-.772 10.143-.772 27.342 0 50.935 16.207 60.858 38.477 9.922 22.27 6.284 46.085-5.733 61.3 0 30.428-58.984 55.124-89.413 55.124h-511.229c-55.676 0-100.989-45.423-100.989-101.54 0-56.007 45.203-101.54 100.989-101.54 14.553 0 28.555 3.418 41.564 9.702 2.646 1.102 9.482 4.85 11.907 6.174.11-2.205 3.308-2.646 3.639-4.74.882-5.183 2.976-18.523 5.292-23.043 8.599-26.35 33.295-45.203 62.401-45.203" fill="url(#ak)"/><path d="M3518.452 7710.741c18.191 0 33.185 7.607 43.769 16.979 1.764-3.639 10.474-1.103 12.679-4.41 2.205-3.308 8.6-14.774 11.245-17.75 21.83-31.642 56.007-52.7 94.926-56.78 10.804-1.212 21.719-.991 32.413.442 52.259 7.056 95.697 44.982 110.801 95.697 4.962 1.654 9.923 3.748 14.884 6.946 2.315 0 6.174 7.717 8.269 8.158 2.095.33 11.356-1.543 13.34-.882 4.52-.22 8.82.22 12.9 1.213 19.955 4.74 35.83 21.278 39.91 42.336.661 1.984 1.764 11.797 2.095 13.891.11.662 2.866.882 2.866 1.654 1.323-.22 7.387-1.433 8.82-1.543 3.418-.552 7.056-.882 10.584-.882 28.775 0 53.361 18.522 61.63 43.218 8.269 24.696.33 49.612-15.766 62.29 0 25.358-66.37 45.865-91.728 45.865h-498.55c-54.684 0-99.005-44.651-99.005-99.776 0-55.126 44.43-99.777 99.005-99.777 14.663 0 28.665 3.528 41.784 10.033 2.205.882 10.033 5.182 12.128 6.395.11-1.765 4.19-1.324 4.52-3.087.772-4.3 2.646-19.735 4.63-23.484 7.828-27.01 32.524-46.746 61.85-46.746" fill="url(#al)"/><path d="M3518.782 7712.505c17.971 0 32.524 7.607 42.557 16.538 1.323-2.867 11.466 1.874 13.23-.772 1.764-2.646 8.6-15.545 10.805-17.97 20.727-32.304 54.022-54.244 92.389-59.315 10.694-1.433 21.499-1.654 32.193-.441 52.038 5.622 96.028 42.556 111.904 92.5 4.52 2.646 8.93 5.733 13.12 9.591 1.764 0 5.622 9.592 7.386 9.923 1.654.33 12.238-2.315 13.892-1.764 4.85-.551 9.26-.441 13.56.33 21.279 3.86 38.368 21.168 42.116 43.439.551 1.654 1.764 12.79 1.985 14.553.11.551 3.528.441 3.528 1.102 1.102-.22 8.048-1.543 9.15-1.653 3.639-.551 7.277-.992 11.025-.992 30.319 0 55.787 20.837 62.512 48.069 6.615 27.121-5.623 53.03-25.798 63.173 0 20.286-73.647 36.713-93.933 36.713H3394.53c-53.582 0-97.13-43.88-97.13-98.012 0-54.133 43.548-98.123 97.13-98.123 14.663 0 28.885 3.639 42.115 10.474 1.764.772 10.584 5.623 12.238 6.615.11-1.433 5.182-.11 5.402-1.433.552-3.418 2.316-20.837 3.859-23.814 6.284-28.004 31.09-48.73 60.638-48.73" fill="url(#am)"/><path d="M3519.224 7714.159c17.86 0 31.972 7.718 41.343 16.096.993-2.205 12.348 4.741 13.671 2.757 1.323-1.985 8.6-16.317 10.254-18.081 19.734-33.075 52.148-55.677 89.743-61.85 10.474-1.765 21.278-2.206 31.973-1.324 51.817 4.19 96.248 40.021 112.895 89.413 4.08 3.528 7.828 7.607 11.467 12.348 1.322 0 5.181 11.466 6.504 11.687 1.323.22 13.23-3.198 14.443-2.757 5.072-.992 9.812-1.102 14.333-.55 22.6 2.866 40.902 20.947 44.21 44.54.44 1.213 1.654 13.892 1.874 15.215.11.44 4.08.11 4.19.44.771-.11 8.71-1.653 9.591-1.763a66.165 66.165 0 0 1 11.466-.993c31.752 0 58.323 23.153 63.284 52.81 4.961 29.657-11.576 56.558-35.721 64.166 0 15.214-81.034 27.562-96.248 27.562h-473.193c-52.48 0-95.146-43.108-95.146-96.358 0-53.14 42.667-96.359 95.146-96.359 14.773 0 28.995 3.749 42.446 10.915 1.323.551 11.135 6.064 12.348 6.725 0-1.102 6.064 1.213 6.284.11.441-2.646 1.985-21.94 3.197-24.255 4.851-28.775 29.768-50.494 59.646-50.494" fill="url(#an)"/><path d="M3519.554 7715.923c17.75 0 31.311 7.828 40.131 15.655.662-1.433 13.34 7.718 14.222 6.395.882-1.323 8.6-17.089 9.702-18.302 18.633-33.846 50.164-57.22 87.098-64.385 10.364-2.095 20.948-2.757 31.752-2.206 51.487 2.867 96.469 37.486 113.888 86.216a102.942 102.942 0 0 1 9.702 14.994c.882 0 4.741 13.23 5.623 13.45.882.11 14.222-3.968 14.994-3.638 5.402-1.323 10.253-1.764 14.994-1.433 23.924 1.984 43.328 20.837 46.415 45.533.22.772 1.654 14.994 1.764 15.876 0 .331 4.741-.33 4.741-.11.551-.11 9.371-1.874 9.923-1.874 3.858-.662 7.938-1.103 11.907-1.103 33.295 0 60.747 25.468 64.055 57.55 3.307 32.083-17.53 59.977-45.754 65.048 0 10.143-88.31 18.412-98.453 18.412h-460.404c-51.377 0-93.272-42.336-93.272-94.595 0-52.148 41.785-94.594 93.272-94.594 14.773 0 29.216 3.859 42.777 11.356.882.33 11.797 6.504 12.568 6.945 0-.771 7.056 2.536 7.167 1.764.33-1.764 1.653-23.152 2.425-24.585 3.749-29.658 28.665-52.369 58.763-52.369" fill="url(#ao)"/><path d="M3519.885 7717.687c17.64 0 30.76 7.938 38.918 15.325.331-.772 14.223 10.584 14.664 9.922.44-.661 8.599-17.86 9.15-18.522 17.53-34.618 48.29-58.763 84.452-66.922 10.143-2.315 20.727-3.417 31.421-3.086 51.266 1.433 96.8 35.059 114.99 83.018 3.088 5.512 5.734 11.466 8.049 17.75.441 0 4.19 15.104 4.63 15.214.442.11 15.105-4.74 15.546-4.63 5.623-1.654 10.694-2.426 15.655-2.205 25.248.992 45.864 20.727 48.62 46.636.11.44 1.544 16.096 1.654 16.537 0 .11 5.403-.772 5.403-.661.22 0 10.032-1.985 10.363-1.985 3.969-.772 8.159-1.213 12.348-1.213 34.839 0 63.283 27.784 64.937 62.292 1.654 34.508-23.483 63.504-55.676 66.04 0 5.071-95.697 9.15-100.769 9.15h-447.725c-50.274 0-91.287-41.564-91.287-92.83s41.013-92.941 91.287-92.941c14.774 0 29.327 3.969 43.108 11.687.441.22 12.348 6.835 12.679 7.055 0-.33 8.048 3.749 8.048 3.418.11-.882 1.323-24.255 1.764-25.027 2.426-30.428 27.342-54.022 57.771-54.022" fill="url(#ap)"/><path d="M3935.197 7958.473h-538.02c-49.282 0-89.413-40.792-89.413-91.067 0-50.273 40.131-91.176 89.413-91.176 14.884 0 29.437 4.079 43.438 12.127l21.83 12.348.992-25.357c1.213-31.311 26.24-55.897 56.889-55.897 17.42 0 30.098 8.048 37.706 14.884l15.214 13.56 8.71-18.632c21.168-45.312 64.386-73.536 113.006-73.536 58.102 0 109.589 42.225 122.267 100.217l3.749 16.978 16.096-5.622c5.844-2.095 11.246-3.087 16.428-3.087 26.57 0 48.4 20.616 50.825 47.738l1.433 17.199 16.648-3.308c4.19-.771 8.489-1.323 12.789-1.323 36.272 0 65.709 30.099 65.709 67.032 0 36.934-29.437 66.922-65.71 66.922" fill="url(#aq)"/></svg>