<svg xmlns="http://www.w3.org/2000/svg" xmlns:xlink="http://www.w3.org/1999/xlink" viewBox="4360.2 4735.8 915.09995 915.09999" width="915.1" height="915.1"><defs><linearGradient id="aa" gradientUnits="userSpaceOnUse" x1="4794.24" y1="5414.98" x2="4915.1" y2="4840.83" gradientTransform="translate(39.25 -11.9)"><stop stop-color="#beca20"/><stop offset="1" stop-color="#f6f884"/></linearGradient><linearGradient id="ab" gradientUnits="userSpaceOnUse" x1="4795.53" y1="5408.74" x2="4913.91" y2="4846.39" gradientTransform="translate(39.25 -11.9)"><stop stop-color="#bfcb21"/><stop offset="1" stop-color="#f7f887"/></linearGradient><linearGradient id="au" gradientUnits="userSpaceOnUse" x1="4844.19" y1="5234.06" x2="4854.44" y2="4989.82" gradientTransform="translate(39.25 -11.9)"><stop stop-color="#feff9c"/><stop offset="1" stop-color="#fbffc7"/></linearGradient><linearGradient id="ac" gradientUnits="userSpaceOnUse" x1="4796.82" y1="5402.5" x2="4912.71" y2="4851.95" gradientTransform="translate(39.25 -11.9)"><stop stop-color="#c1cd22"/><stop offset="1" stop-color="#f7f989"/></linearGradient><linearGradient id="ae" gradientUnits="userSpaceOnUse" x1="4799.4" y1="5390.03" x2="4910.32" y2="4863.08" gradientTransform="translate(39.25 -11.9)"><stop stop-color="#c4d024"/><stop offset="1" stop-color="#f9fb8e"/></linearGradient><linearGradient id="af" gradientUnits="userSpaceOnUse" x1="4800.69" y1="5383.79" x2="4909.13" y2="4868.64" gradientTransform="translate(39.25 -11.9)"><stop stop-color="#c5d124"/><stop offset="1" stop-color="#fafb90"/></linearGradient><linearGradient id="ad" gradientUnits="userSpaceOnUse" x1="4798.11" y1="5396.27" x2="4911.52" y2="4857.52" gradientTransform="translate(39.25 -11.9)"><stop stop-color="#c2ce23"/><stop offset="1" stop-color="#f8fa8b"/></linearGradient><linearGradient id="Z" gradientUnits="userSpaceOnUse" x1="4792.95" y1="5421.22" x2="4916.29" y2="4835.27" gradientTransform="translate(39.25 -11.9)"><stop stop-color="#bcc81f"/><stop offset="1" stop-color="#f5f782"/></linearGradient><linearGradient id="S" gradientUnits="userSpaceOnUse" y1="5340.67" x2="0" y2="5036.21" xlink:href="#a" gradientTransform="translate(39.25 -11.9)"/><linearGradient id="T" gradientUnits="userSpaceOnUse" y1="5338.85" x2="0" y2="5037.74" xlink:href="#b" gradientTransform="translate(39.25 -11.9)"/><linearGradient id="Y" gradientUnits="userSpaceOnUse" y1="5329.73" x2="0" y2="5043.97" xlink:href="#c" gradientTransform="translate(39.25 -11.9)"/><linearGradient id="U" gradientUnits="userSpaceOnUse" y1="5337.02" x2="0" y2="5039.17" xlink:href="#d" gradientTransform="translate(39.25 -11.9)"/><linearGradient id="W" gradientUnits="userSpaceOnUse" y1="5333.37" x2="0" y2="5041.75" xlink:href="#e" gradientTransform="translate(39.25 -11.9)"/><linearGradient id="X" gradientUnits="userSpaceOnUse" y1="5331.55" x2="0" y2="5042.91" xlink:href="#f" gradientTransform="translate(39.25 -11.9)"/><linearGradient id="V" gradientUnits="userSpaceOnUse" y1="5335.2" x2="0" y2="5040.51" xlink:href="#g" gradientTransform="translate(39.25 -11.9)"/><linearGradient id="ag" gradientUnits="userSpaceOnUse" x1="4801.98" y1="5377.55" x2="4907.93" y2="4874.2" gradientTransform="translate(39.25 -11.9)"><stop stop-color="#c7d325"/><stop offset="1" stop-color="#fbfc93"/></linearGradient><linearGradient id="ao" gradientUnits="userSpaceOnUse" x1="4823.76" y1="5297.36" x2="4871.59" y2="4937.72" gradientTransform="translate(39.25 -11.9)"><stop stop-color="#e3ea5d"/><stop offset="1" stop-color="#fdffb0"/></linearGradient><linearGradient id="ap" gradientUnits="userSpaceOnUse" x1="4828.05" y1="5286.95" x2="4868.09" y2="4946.7" gradientTransform="translate(39.25 -11.9)"><stop stop-color="#e8ee68"/><stop offset="1" stop-color="#fcffb3"/></linearGradient><linearGradient id="ah" gradientUnits="userSpaceOnUse" x1="4803.26" y1="5371.31" x2="4906.74" y2="4879.76" gradientTransform="translate(39.25 -11.9)"><stop stop-color="#c8d426"/><stop offset="1" stop-color="#fcfd95"/></linearGradient><linearGradient id="aq" gradientUnits="userSpaceOnUse" x1="4831.49" y1="5276.09" x2="4864.37" y2="4955.22" gradientTransform="translate(39.25 -11.9)"><stop stop-color="#ecf172"/><stop offset="1" stop-color="#fcffb7"/></linearGradient><linearGradient id="as" gradientUnits="userSpaceOnUse" x1="4838.79" y1="5255.12" x2="4859.13" y2="4972.77" gradientTransform="translate(39.25 -11.9)"><stop stop-color="#f5f887"/><stop offset="1" stop-color="#fcffbf"/></linearGradient><linearGradient id="at" gradientUnits="userSpaceOnUse" x1="4841.39" y1="5244.3" x2="4856.39" y2="4981.09" gradientTransform="translate(39.25 -11.9)"><stop stop-color="#fafc92"/><stop offset="1" stop-color="#fbffc3"/></linearGradient><linearGradient id="ar" gradientUnits="userSpaceOnUse" x1="4835.36" y1="5265.5" x2="4861.67" y2="4963.94" gradientTransform="translate(39.25 -11.9)"><stop stop-color="#f1f57d"/><stop offset="1" stop-color="#fcffbb"/></linearGradient><linearGradient id="an" gradientUnits="userSpaceOnUse" x1="4819.68" y1="5308.24" x2="4875.92" y2="4929.18" gradientTransform="translate(39.25 -11.9)"><stop stop-color="#dfe753"/><stop offset="1" stop-color="#fdffac"/></linearGradient><linearGradient id="ai" gradientUnits="userSpaceOnUse" x1="4804.55" y1="5365.07" x2="4905.54" y2="4885.33" gradientTransform="translate(39.25 -11.9)"><stop stop-color="#cad627"/><stop offset="1" stop-color="#fcfe97"/></linearGradient><linearGradient id="aj" gradientUnits="userSpaceOnUse" x1="4805.84" y1="5358.84" x2="4904.35" y2="4890.89" gradientTransform="translate(39.25 -11.9)"><stop stop-color="#cbd728"/><stop offset="1" stop-color="#fdfe9a"/></linearGradient><linearGradient id="am" gradientUnits="userSpaceOnUse" x1="4814.74" y1="5318.65" x2="4880" y2="4920.23" gradientTransform="translate(39.25 -11.9)"><stop stop-color="#dae348"/><stop offset="1" stop-color="#fdffa8"/></linearGradient><linearGradient id="h" gradientUnits="userSpaceOnUse" x1="4807.13" y1="5352.6" x2="4903.15" y2="4896.45"><stop stop-color="#cdd929"/><stop offset="1" stop-color="#feff9c"/></linearGradient><linearGradient id="ak" gradientUnits="userSpaceOnUse" x1="4804.01" y1="5340.4" x2="4889.18" y2="4903.4" gradientTransform="translate(39.25 -11.9)"><stop stop-color="#d1dc33"/><stop offset="1" stop-color="#feffa0"/></linearGradient><linearGradient id="al" gradientUnits="userSpaceOnUse" x1="4809.03" y1="5329.59" x2="4883.96" y2="4911.86" gradientTransform="translate(39.25 -11.9)"><stop stop-color="#d6e03e"/><stop offset="1" stop-color="#fdffa4"/></linearGradient><linearGradient id="R" gradientUnits="userSpaceOnUse" y1="5342.5" x2="0" y2="5034.59" xlink:href="#i" gradientTransform="translate(39.25 -11.9)"/><linearGradient id="u" gradientUnits="userSpaceOnUse" x1="4503.22" x2="4626.21" xlink:href="#j" gradientTransform="translate(39.25 -11.9)"/><linearGradient id="l" gradientUnits="userSpaceOnUse" y1="4968.77" x2="0" y2="4771.15"><stop stop-color="#95b9cc"/><stop offset="1" stop-color="#cddee8"/></linearGradient><linearGradient id="Q" gradientUnits="userSpaceOnUse" y1="5344.32" x2="0" y2="5032.87" xlink:href="#k" gradientTransform="translate(39.25 -11.9)"/><linearGradient id="k" gradientUnits="userSpaceOnUse" y1="4967.62" x2="0" y2="4772.29"><stop stop-color="#97bacd"/><stop offset="1" stop-color="#d0e1eb"/></linearGradient><linearGradient id="a" gradientUnits="userSpaceOnUse" y1="4965.34" x2="0" y2="4774.4"><stop stop-color="#9bbccf"/><stop offset="1" stop-color="#d7e6f0"/></linearGradient><linearGradient id="b" gradientUnits="userSpaceOnUse" y1="4964.19" x2="0" y2="4775.36"><stop stop-color="#9dbdd0"/><stop offset="1" stop-color="#dae9f2"/></linearGradient><linearGradient id="i" gradientUnits="userSpaceOnUse" y1="4966.48" x2="0" y2="4773.37"><stop stop-color="#99bbce"/><stop offset="1" stop-color="#d3e4ed"/></linearGradient><linearGradient id="t" gradientUnits="userSpaceOnUse" x1="4743.73" y1="5560.52" x2="4825.73" y2="5557.59" xlink:href="#j" gradientTransform="translate(39.25 -11.9)"/><linearGradient id="j" gradientUnits="userSpaceOnUse" x1="4656.59" x2="4805.93"><stop offset=".291" stop-color="#fff"/><stop offset="1" stop-color="#def1ff"/></linearGradient><linearGradient id="n" gradientUnits="userSpaceOnUse" x1="4650.56" x2="4773.56" xlink:href="#j" gradientTransform="translate(39.25 -11.9)"/><linearGradient id="s" gradientUnits="userSpaceOnUse" x1="4516.4" x2="4639.4" xlink:href="#j" gradientTransform="translate(39.25 -11.9)"/><linearGradient id="o" gradientUnits="userSpaceOnUse" x1="4467.71" x2="4590.69" xlink:href="#j" gradientTransform="translate(39.25 -11.9)"/><linearGradient id="q" gradientUnits="userSpaceOnUse" x1="4839.19" x2="4988.54" xlink:href="#j" gradientTransform="translate(39.25 -11.9)"/><linearGradient id="r" gradientUnits="userSpaceOnUse" x1="4833.16" x2="4956.16" xlink:href="#j" gradientTransform="translate(39.25 -11.9)"/><linearGradient id="p" gradientUnits="userSpaceOnUse" x1="4964.39" x2="5087.37" xlink:href="#j" gradientTransform="translate(39.25 -11.9)"/><linearGradient id="d" gradientUnits="userSpaceOnUse" y1="4963.05" x2="0" y2="4776.27"><stop stop-color="#9fbed0"/><stop offset="1" stop-color="#ddecf5"/></linearGradient><linearGradient id="K" gradientUnits="userSpaceOnUse" y1="5146.1" x2="0" y2="4890.23" gradientTransform="translate(39.25 -11.9)"><stop stop-color="#87aec3"/><stop offset="1" stop-color="#cddee8"/></linearGradient><linearGradient id="L" gradientUnits="userSpaceOnUse" y1="5144.52" x2="0" y2="4891.38" gradientTransform="translate(39.25 -11.9)"><stop stop-color="#8bb1c5"/><stop offset="1" stop-color="#cddee8"/></linearGradient><linearGradient id="g" gradientUnits="userSpaceOnUse" y1="4961.9" x2="0" y2="4777.11"><stop stop-color="#a1bfd1"/><stop offset="1" stop-color="#e0eff7"/></linearGradient><linearGradient id="M" gradientUnits="userSpaceOnUse" y1="5142.95" x2="0" y2="4892.45" gradientTransform="translate(39.25 -11.9)"><stop stop-color="#8eb3c8"/><stop offset="1" stop-color="#cddee8"/></linearGradient><linearGradient id="O" gradientUnits="userSpaceOnUse" y1="5139.79" x2="0" y2="4894.36" xlink:href="#l" gradientTransform="translate(39.25 -11.9)"/><linearGradient id="P" gradientUnits="userSpaceOnUse" y1="5346.14" x2="0" y2="5031.05" xlink:href="#l" gradientTransform="translate(39.25 -11.9)"/><linearGradient id="N" gradientUnits="userSpaceOnUse" y1="5141.37" x2="0" y2="4893.44" gradientTransform="translate(39.25 -11.9)"><stop stop-color="#92b6ca"/><stop offset="1" stop-color="#cddee8"/></linearGradient><linearGradient id="J" gradientUnits="userSpaceOnUse" y1="5147.68" x2="0" y2="4889" gradientTransform="translate(39.25 -11.9)"><stop stop-color="#84abc1"/><stop offset="1" stop-color="#cddee8"/></linearGradient><linearGradient id="e" gradientUnits="userSpaceOnUse" y1="4960.76" x2="0" y2="4777.89"><stop stop-color="#a3c0d2"/><stop offset="1" stop-color="#e4f1fa"/></linearGradient><linearGradient id="f" gradientUnits="userSpaceOnUse" y1="4959.61" x2="0" y2="4778.6"><stop stop-color="#a5c1d3"/><stop offset="1" stop-color="#e7f4fc"/></linearGradient><linearGradient id="I" gradientUnits="userSpaceOnUse" y1="5149.26" x2="0" y2="4887.68" gradientTransform="translate(39.25 -11.9)"><stop stop-color="#80a8bf"/><stop offset="1" stop-color="#cddee8"/></linearGradient><linearGradient id="c" gradientUnits="userSpaceOnUse" y1="4958.47" x2="0" y2="4779.25"><stop stop-color="#a7c2d4"/><stop offset="1" stop-color="#eaf7ff"/></linearGradient><linearGradient id="G" gradientUnits="userSpaceOnUse" y1="5152.42" x2="0" y2="4884.81" gradientTransform="translate(39.25 -11.9)"><stop stop-color="#79a3ba"/><stop offset="1" stop-color="#cddee8"/></linearGradient><linearGradient id="H" gradientUnits="userSpaceOnUse" y1="5150.84" x2="0" y2="4886.29" gradientTransform="translate(39.25 -11.9)"><stop stop-color="#7da6bc"/><stop offset="1" stop-color="#cddee8"/></linearGradient><linearGradient id="F" gradientUnits="userSpaceOnUse" y1="5154" x2="0" y2="4883.25" gradientTransform="translate(39.25 -11.9)"><stop stop-color="#76a0b8"/><stop offset="1" stop-color="#cddee8"/></linearGradient><linearGradient xlink:href="#j" id="m" gradientUnits="userSpaceOnUse" x1="4656.59" x2="4805.93" gradientTransform="translate(39.25 -11.9)"/><linearGradient xlink:href="#l" id="v" gradientUnits="userSpaceOnUse" y1="4968.77" x2="0" y2="4771.15" gradientTransform="translate(39.25 -11.9)"/><linearGradient xlink:href="#k" id="w" gradientUnits="userSpaceOnUse" y1="4967.62" x2="0" y2="4772.29" gradientTransform="translate(39.25 -11.9)"/><linearGradient xlink:href="#i" id="x" gradientUnits="userSpaceOnUse" y1="4966.48" x2="0" y2="4773.37" gradientTransform="translate(39.25 -11.9)"/><linearGradient xlink:href="#a" id="y" gradientUnits="userSpaceOnUse" y1="4965.34" x2="0" y2="4774.4" gradientTransform="translate(39.25 -11.9)"/><linearGradient xlink:href="#b" id="z" gradientUnits="userSpaceOnUse" y1="4964.19" x2="0" y2="4775.36" gradientTransform="translate(39.25 -11.9)"/><linearGradient xlink:href="#d" id="A" gradientUnits="userSpaceOnUse" y1="4963.05" x2="0" y2="4776.27" gradientTransform="translate(39.25 -11.9)"/><linearGradient xlink:href="#g" id="B" gradientUnits="userSpaceOnUse" y1="4961.9" x2="0" y2="4777.11" gradientTransform="translate(39.25 -11.9)"/><linearGradient xlink:href="#e" id="C" gradientUnits="userSpaceOnUse" y1="4960.76" x2="0" y2="4777.89" gradientTransform="translate(39.25 -11.9)"/><linearGradient xlink:href="#f" id="D" gradientUnits="userSpaceOnUse" y1="4959.61" x2="0" y2="4778.6" gradientTransform="translate(39.25 -11.9)"/><linearGradient xlink:href="#c" id="E" gradientUnits="userSpaceOnUse" y1="4958.47" x2="0" y2="4779.25" gradientTransform="translate(39.25 -11.9)"/></defs><g fill="#9cb1bf"><path d="M4715.75 5574.6c-4.3 0-8.4-1-12-3-10-5.6-12.8-16.9-6.1-25.3 136.8-161.8 146.9-161.8 150.2-161.8h1.6l1.7.8c5 2.8 11.9 6.6-117.1 181-4.2 5.3-11 8.3-18.3 8.3M4706.85 5472.2c-3.5 0-6.9-.9-9.9-2.5-8.3-4.6-10.5-13.9-5.1-20.8 112.7-133.2 121-133.2 123.7-133.2h1.3l1.4.7c4.1 2.3 9.8 5.4-96.5 149.1-3.4 4.2-8.9 6.7-14.9 6.7M4523.95 5483c-3.5 0-6.9-.9-9.9-2.5-8.3-4.6-10.5-13.9-5.1-20.8 112.7-133.2 121-133.2 123.7-133.2h1.3l1.4.7c4.1 2.3 9.8 5.4-96.5 149.1-3.3 4.2-8.9 6.7-14.9 6.7M4559.45 5553.4c-3.5 0-6.9-.8-9.9-2.5-8.3-4.6-10.5-14-5.1-20.8 112.7-133.2 121-133.2 123.7-133.2h1.3l1.4.7c4.1 2.3 9.8 5.4-96.5 149.1-3.3 4.3-8.9 6.7-14.9 6.7"/></g><path d="M4712.35 5567.5c-4.3 0-8.4-1-12-3-10-5.6-12.8-16.9-6.1-25.3 136.8-161.8 146.9-161.8 150.2-161.8h1.6l1.7.8c5 2.8 11.9 6.6-117.1 181-4.2 5.3-11 8.3-18.3 8.3" fill="#78b5db"/><path d="M4703.25 5560.8c-7.6-4.2-9.7-12.8-4.7-19.2 0 0 138.6-163.9 146.3-159.7 7.6 4.2-118.7 175-118.7 175-3.2 4-8.4 6.2-13.8 6.2-3.1.1-6.3-.7-9.1-2.3" fill="url(#m)"/><path d="M4703.45 5465.1c-3.5 0-6.9-.9-9.9-2.5-8.3-4.6-10.5-13.9-5.1-20.8 112.7-133.2 121-133.2 123.7-133.2h1.3l1.4.7c4.1 2.3 9.8 5.4-96.5 149.1-3.3 4.2-8.9 6.7-14.9 6.7" fill="#78b5db"/><path d="M4695.95 5459.6c-6.3-3.5-8-10.6-3.8-15.8 0 0 114.2-135 120.5-131.5 6.3 3.5-97.7 144.2-97.7 144.2-2.6 3.3-6.9 5.1-11.4 5.1-2.7-.1-5.3-.7-7.6-2" fill="url(#n)"/><path d="M4520.55 5475.9c-3.5 0-6.9-.9-9.9-2.5-8.3-4.6-10.5-13.9-5.1-20.8 112.7-133.2 121-133.2 123.7-133.2h1.3l1.4.7c4.1 2.3 9.8 5.4-96.5 149.1-3.3 4.2-8.9 6.7-14.9 6.7" fill="#78b5db"/><path d="M4513.05 5470.4c-6.3-3.5-8-10.6-3.8-15.8 0 0 114.2-135 120.4-131.5 6.3 3.5-97.7 144.2-97.7 144.2-2.6 3.3-6.9 5.1-11.3 5.1-2.7-.1-5.3-.7-7.6-2" fill="url(#o)"/><path d="M5020.65 5541.5c-3.5 0-6.9-.9-9.9-2.5-8.3-4.6-10.5-13.9-5.1-20.8 112.7-133.2 121-133.2 123.7-133.2h1.3l1.4.7c4.1 2.3 9.8 5.4-96.5 149.1-3.3 4.2-8.9 6.7-14.9 6.7" fill="#9cb1bf"/><path d="M5017.25 5534.4c-3.5 0-6.9-.9-9.9-2.5-8.3-4.6-10.5-13.9-5.1-20.8 112.7-133.2 121-133.2 123.7-133.2h1.3l1.4.7c4.1 2.3 9.8 5.4-96.5 149.1-3.3 4.2-8.9 6.7-14.9 6.7" fill="#78b5db"/><path d="M5009.75 5528.8c-6.3-3.5-8-10.6-3.8-15.8 0 0 114.2-135 120.4-131.5 6.3 3.5-97.7 144.2-97.7 144.2-2.6 3.3-6.9 5.1-11.3 5.1-2.7 0-5.3-.6-7.6-2" fill="url(#p)"/><g fill="#9cb1bf"><path d="M4898.35 5584c-4.3 0-8.4-1-12-3-10-5.6-12.8-16.9-6.1-25.3 136.8-161.8 146.9-161.8 150.2-161.8h1.6l1.7.8c5 2.8 11.9 6.6-117.1 181-4.2 5.3-11 8.3-18.3 8.3M4889.45 5481.6c-3.5 0-6.9-.9-9.9-2.5-8.3-4.6-10.5-13.9-5.1-20.8 112.7-133.2 121-133.2 123.7-133.2h1.3l1.4.7c4.1 2.3 9.8 5.4-96.5 149.1-3.3 4.2-8.9 6.7-14.9 6.7M4803.75 5599.7c-3.2-.5-6.5-1.4-9.6-2.9-8.6-4.1-12.9-10.6-9.6-14.5 70.6-75.6 78.2-74.5 80.7-74.2l1.2.1 1.4.6c4.3 2 10.2 4.8-52.1 88.1-2.1 2.5-6.5 3.5-12 2.8"/></g><path d="M4895.05 5576.9c-4.3 0-8.4-1-12-3-10-5.6-12.8-16.9-6.1-25.3 136.8-161.8 146.9-161.8 150.2-161.8h1.6l1.7.8c5 2.8 11.9 6.6-117.1 181-4.3 5.3-11.1 8.3-18.3 8.3" fill="#78b5db"/><path d="M4885.85 5570.2c-7.6-4.2-9.7-12.8-4.7-19.2 0 0 138.6-163.9 146.3-159.7 7.6 4.2-118.7 175-118.7 175-3.2 4-8.4 6.2-13.8 6.2-3.1.1-6.3-.7-9.1-2.3" fill="url(#q)"/><path d="M4886.05 5474.5c-3.5 0-6.9-.9-9.9-2.5-8.3-4.6-10.5-13.9-5.1-20.8 112.7-133.2 121-133.2 123.7-133.2h1.3l1.4.7c4.1 2.3 9.8 5.4-96.5 149.1-3.3 4.2-8.9 6.7-14.9 6.7" fill="#78b5db"/><path d="M4878.55 5469c-6.3-3.5-8-10.6-3.8-15.8 0 0 114.2-135 120.5-131.5 6.3 3.5-97.7 144.2-97.7 144.2-2.6 3.3-6.9 5.1-11.4 5.1-2.7-.1-5.3-.7-7.6-2" fill="url(#r)"/><path d="M4572.65 5650.9c-3.5 0-6.9-.9-9.9-2.5-8.3-4.6-10.5-13.9-5.1-20.8 112.7-133.2 121-133.2 123.7-133.2h1.3l1.4.7c4.1 2.3 9.8 5.4-96.5 149.1-3.3 4.2-8.9 6.7-14.9 6.7" fill="#9cb1bf"/><path d="M4569.35 5643.7c-3.5 0-6.9-.9-9.9-2.5-8.3-4.6-10.5-13.9-5.1-20.8 112.7-133.2 121-133.2 123.7-133.2h1.3l1.4.7c4.1 2.3 9.8 5.4-96.5 149.1-3.4 4.3-9 6.7-14.9 6.7" fill="#78b5db"/><path d="M4561.75 5638.2c-6.3-3.5-8-10.6-3.8-15.8 0 0 114.2-135 120.5-131.5 6.3 3.5-97.7 144.2-97.7 144.2-2.6 3.3-6.9 5.1-11.4 5.1-2.6 0-5.3-.7-7.6-2" fill="url(#s)"/><path d="M4800.35 5592.6c-3.2-.5-6.5-1.4-9.6-2.9-8.6-4.1-12.9-10.6-9.6-14.5 70.6-75.6 78.2-74.5 80.7-74.2l1.2.1 1.4.6c4.3 2 10.2 4.8-52.1 88.1-2 2.5-6.5 3.5-12 2.8" fill="#78b5db"/><path d="M4792.25 5588c-6.6-3.1-9.8-8.1-7.3-11.1 0 0 71.5-76.5 78.1-73.5 6.5 3.1-54.4 84.7-54.4 84.7-1.6 1.9-5.1 2.6-9.1 2.1-2.4-.3-4.9-1.1-7.3-2.2" fill="url(#t)"/><path d="M4556.15 5546.3c-3.5 0-6.9-.8-9.9-2.5-8.3-4.6-10.5-13.9-5.1-20.8 112.7-133.2 121-133.2 123.7-133.2h1.3l1.4.7c4.1 2.3 9.8 5.4-96.5 149.1-3.4 4.2-8.9 6.7-14.9 6.7" fill="#78b5db"/><path d="M4548.55 5540.8c-6.3-3.5-8-10.6-3.8-15.8 0 0 114.2-135 120.4-131.5 6.3 3.5-97.8 144.2-97.8 144.2-2.6 3.3-6.9 5.1-11.3 5.1-2.5-.1-5.2-.7-7.5-2" fill="url(#u)"/><path d="M4918.95 4862.6c-3.7 0-7.2.4-10.7 1.1-2-23-21.1-41-44.6-41-5.1 0-9.9 1-14.4 2.6-9.5-42.6-47.3-74.4-92.8-74.4-37.9 0-70.5 22.4-85.8 54.5-8.6-7.6-19.8-12.4-32.2-12.4-26.4 0-47.7 20.9-48.8 46.9-10.2-5.7-21.8-9.3-34.4-9.3-39 0-70.7 31.7-70.7 70.7s31.7 70.7 70.7 70.7h363.7c30.2 0 54.7-24.5 54.7-54.7 0-30.2-24.5-54.7-54.7-54.7" fill="#9cb1bf"/><path d="M4910.15 4847.5c-3.6 0-7.2.4-10.7 1.1-2-23-21.1-41-44.6-41-5.1 0-9.9 1-14.4 2.6-9.5-42.6-47.3-74.4-92.8-74.4-37.9 0-70.4 22.4-85.7 54.6-8.6-7.6-19.8-12.4-32.2-12.4-26.3 0-47.7 20.9-48.8 46.9-10.2-5.7-21.9-9.3-34.4-9.3-39 0-70.7 31.6-70.7 70.7s31.7 70.6 70.7 70.6h363.7c30.2 0 54.8-24.5 54.8-54.7-.1-30.2-24.7-54.7-54.9-54.7" fill="url(#v)"/><path d="M4629.95 4779c12.3 0 23.2 4.9 31.4 12.1 1.8-3.8 5-6.5 7.4-10 2.4-3.5 5.6-8.2 8.5-11.4 16.6-19.5 40.9-31.9 68.1-32.6 7.8-.2 15.4.6 22.8 2.2 34.7 7.7 62.2 34.8 70.6 69.5 4.2-.9 8.6-1.3 13.3-.8 2.4 0 5.1 1.5 7.3 1.9 2.2.4 5.6.6 7.7 1.3 2.5.6 4.8 1.4 7.1 2.5 10.5 4.9 18.8 14.3 22.1 25.9.7 2.1 1.3 5.6 1.7 7.9.1.8.5 1.4.6 2.2 1.5-.3 4-.7 5.5-.9 1.9-.2 3.9-.4 5.8-.4 16.1 0 30.5 7.7 39.3 19.2 8.8 11.5 12.1 25.9 9.4 39.3 0 26.8-27.9 48.6-54.7 48.6h-349c-34.7 0-70.7-28.1-70.7-62.8-3.6-17.4.5-36.1 11.8-51.1 11.4-15.1 30-25.1 51-25.1 9.6 0 18.7 2.1 27 5.8 2.3 1 5.5 2.6 7.7 3.9.1-1.9.9-3.4 1.2-5.2.8-4.6 2.4-10.8 4.5-14.8 7.4-16 23.6-27.2 42.6-27.2" fill="url(#w)"/><path d="M4630.15 4780.2c12.2 0 22.8 4.9 30.6 11.8 1.6-3.4 5.7-4.6 7.7-7.6 2.1-3.1 5.7-8.8 8.2-11.5 15.9-20 39.6-32.9 66.3-34.3 7.7-.4 15.2.2 22.5 1.6 34.6 6.7 62.4 33.1 71.3 67.4 3.9-.2 8 0 12.2 1 2.1 0 4.7 2.7 6.7 3 2 .4 6.2 0 8.1.7 2.7.4 5.2 1 7.6 1.9 11.4 4.3 20.4 14.3 23.5 26.6.6 1.9 1.3 6.4 1.6 8.3.1.7.8 1.2.9 1.9 1.3-.3 4.5-.8 5.8-1 2-.3 4.1-.4 6.2-.4 17.1 0 32.1 9.2 39.8 22.4 7.7 13.1 8.1 28.2 2.8 40 0 23.5-31.2 42.5-54.7 42.5h-334.3c-30.4 0-70.6-24.6-70.6-54.9-7.2-15.2-7-34.9 3-52.3 10-17.3 29.6-29.5 52-29.5 9.6 0 18.8 2.2 27.3 6.1 2 .9 5.9 2.9 7.8 4 .1-1.7 1.5-2.6 1.8-4.2.7-4 2.2-11.6 4-15.1 6.5-16.6 22.8-28.4 41.9-28.4" fill="url(#x)"/><path d="M4630.35 4781.3c12.1 0 22.4 5 29.8 11.5 1.4-2.9 6.3-2.6 8.1-5.3 1.8-2.6 5.7-9.3 7.8-11.6 15.2-20.4 38.3-33.9 64.6-36 7.5-.6 15-.2 22.3 1 34.4 5.8 62.7 31.5 72.1 65.3 3.6.4 7.3 1.3 11 2.9 1.8 0 4.4 3.9 6.1 4.2 1.7.3 6.9-.5 8.4.1 2.8.1 5.5.6 8 1.4 12.3 3.7 22.1 14.2 25 27.3.5 1.6 1.2 7.1 1.5 8.8.1.6 1.1.9 1.2 1.5 1.1-.2 5-1 6.1-1.1 2.1-.3 4.3-.5 6.5-.5 18.1 0 33.7 10.7 40.3 25.5 6.6 14.8 4.2 30.5-3.8 40.6 0 20.1-34.5 36.4-54.7 36.4h-319.6c-26 0-70.6-21.1-70.6-47.1-10.9-13-14.4-33.8-5.9-53.4s29.2-33.9 53-33.9c9.6 0 18.9 2.3 27.5 6.4 1.7.7 6.3 3.2 7.9 4.1.1-1.4 2.2-1.7 2.4-3.1.6-3.4 2-12.3 3.5-15.3 5.9-17.2 22.3-29.7 41.5-29.7" fill="url(#y)"/><path d="M4630.65 4782.5c12 0 22 5 29 11.3 1.1-2.4 6.9-.7 8.4-2.9s5.7-9.8 7.5-11.7c14.5-20.9 37-34.9 62.8-37.6 7.4-.8 14.8-.6 22 .4 34.3 4.8 62.9 29.8 72.9 63.2 3.3 1.1 6.6 2.6 9.9 4.7 1.5 0 4.1 5.1 5.5 5.4 1.4.3 7.5-1.1 8.8-.6 3-.1 5.8.2 8.5.8 13.2 3.1 23.7 14.1 26.4 28 .4 1.3 1.2 7.8 1.4 9.2.1.5 1.4.7 1.5 1.2 1-.2 5.5-1.1 6.5-1.2 2.2-.3 4.5-.6 6.8-.6 19.1 0 35.4 12.3 40.9 28.7s.2 32.8-10.4 41.2c0 16.8-37.9 30.4-54.6 30.4h-304.9c-21.7 0-70.6-17.5-70.6-39.2-14.5-10.8-21.9-32.7-14.8-54.6 7.1-21.9 28.7-38.3 54.1-38.3 9.7 0 19 2.3 27.7 6.7 1.5.6 6.7 3.5 8 4.3.1-1.2 2.8-.9 3-2 .5-2.9 1.7-13.1 3.1-15.6 4.7-18.1 21.1-31.2 40.6-31.2" fill="url(#z)"/><path d="M4630.85 4783.6c12 0 21.5 5.1 28.2 11 .9-1.9 7.5 1.2 8.7-.5 1.2-1.8 5.7-10.3 7.1-11.9 13.7-21.4 35.8-35.9 61.1-39.3 7.2-1 14.5-1 21.8-.2 34.2 3.8 63.1 28.2 73.6 61.1 3 1.7 5.9 3.8 8.8 6.5 1.2 0 3.8 6.4 4.9 6.6 1.1.2 8.1-1.6 9.2-1.2 3.2-.4 6.1-.3 9 .3 14.1 2.5 25.4 14 27.9 28.7.3 1.1 1.2 8.5 1.3 9.7.1.4 1.7.4 1.8.8.8-.2 6-1.2 6.8-1.3 2.3-.4 4.7-.6 7.2-.6 20.1 0 37 13.8 41.4 31.8 4.4 18-3.7 35.1-17.1 41.9 0 13.4-41.2 24.3-54.6 24.3h-290.2c-17.3 0-70.5-14-70.5-31.4-18.1-8.7-29.4-31.6-23.7-55.7 5.7-24.2 28.3-42.8 55.1-42.8 9.7 0 19.1 2.4 27.9 6.9 1.2.5 7.1 3.8 8.1 4.4 0-.9 3.4 0 3.5-.9.4-2.3 1.5-13.9 2.6-15.8 4-18.6 20.5-32.4 40.1-32.4" fill="url(#A)"/><path d="M4631.05 4784.8c11.9 0 21.1 5.2 27.4 10.7.7-1.4 8.2 3.2 9.1 1.8.9-1.3 5.7-10.8 6.8-12 13-21.9 34.5-36.9 59.4-41 7.1-1.2 14.3-1.5 21.5-.8 34.1 2.9 63.4 26.5 74.4 59 2.7 2.4 5.2 5.1 7.6 8.3.9 0 3.5 7.6 4.3 7.7.8.2 8.7-2.1 9.5-1.9 3.4-.6 6.5-.7 9.4-.3 15 1.9 27.1 13.9 29.3 29.5.3.8 1.1 9.3 1.2 10.1 0 .3 2 .2 2.1.5.6-.1 6.5-1.3 7.1-1.4 2.4-.4 4.9-.7 7.5-.7 21.1 0 38.6 15.4 41.9 35 3.3 19.6-7.7 37.4-23.7 42.5 0 10.1-44.5 18.2-54.6 18.2h-275.5c-13 0-70.5-10.5-70.5-23.5-21.7-6.5-36.8-30.4-32.5-56.9 4.3-26.5 27.9-47.2 56.1-47.2 9.7 0 19.2 2.5 28.1 7.2.9.4 7.4 4.1 8.3 4.5 0-.7 4 .8 4.1.1.3-1.7 1.3-14.6 2.1-16.1 3.4-18.9 19.8-33.3 39.6-33.3" fill="url(#B)"/><path d="M4631.25 4785.9c11.8 0 20.7 5.2 26.6 10.4.5-1 8.8 5.1 9.4 4.2.6-.9 5.7-11.3 6.4-12.1 12.3-22.4 33.2-37.9 57.6-42.7 6.9-1.4 14.1-1.9 21.3-1.4 34 1.9 63.6 24.8 75.2 56.9 2.4 3.1 4.5 6.4 6.5 10.1.6 0 3.2 8.8 3.7 8.9.6.1 9.4-2.7 9.9-2.5 3.5-.8 6.8-1.1 9.9-.9 15.8 1.3 28.7 13.8 30.8 30.2.2.5 1.1 10 1.1 10.5 0 .2 2.4-.1 2.4.1.4-.1 7-1.4 7.4-1.4 2.5-.4 5.1-.7 7.8-.7 22 0 40.3 16.9 42.5 38.1 2.2 21.2-11.6 39.8-30.3 43.1 0 6.7-47.8 12.1-54.6 12.1h-260.8c-8.7 0-70.5-7-70.5-15.7-25.4-4.3-44.3-29.3-41.4-58.1 2.8-28.7 27.4-51.6 57.1-51.6 9.8 0 19.3 2.6 28.3 7.5.6.2 7.8 4.3 8.4 4.7 0-.5 4.6 1.7 4.7 1.2.2-1.1 1.1-15.4 1.6-16.4 2.6-19.5 19.1-34.5 39-34.5" fill="url(#C)"/><path d="M4631.55 4787.1c11.7 0 20.3 5.3 25.8 10.1.2-.5 9.4 7 9.7 6.6.3-.4 5.8-11.8 6.1-12.2 11.6-22.9 31.9-38.9 55.9-44.4 6.8-1.6 13.9-2.3 21-2.1 33.9 1 63.9 23.2 75.9 54.8 2.1 3.7 3.9 7.7 5.3 11.9.3 0 2.8 10 3.1 10.1.3 0 10-3.2 10.3-3.1 3.7-1.1 7.1-1.6 10.4-1.4 16.7.6 30.4 13.7 32.2 30.9.1.3 1 10.7 1.1 11 0 .1 2.7-.3 2.7-.2.2 0 7.5-1.5 7.7-1.5 2.6-.5 5.4-.8 8.1-.8 23 0 41.9 18.4 43 41.3 1.1 22.8-15.6 42.1-36.9 43.7 0 3.4-51.2 6.1-54.5 6.1h-246c-4.3 0-70.5-3.5-70.5-7.9-29-2.2-51.7-28.2-50.3-59.2 1.4-31 27-56 58.2-56 9.8 0 19.4 2.6 28.5 7.8.3.1 8.2 4.6 8.5 4.8 0-.2 5.2 2.5 5.3 2.3.1-.6.9-16.1 1.2-16.6 1.5-20.4 18.1-36 38.2-36" fill="url(#D)"/><path d="M4906.45 4946.6h-356.2c-32.6 0-59.2-27.1-59.2-60.4s26.6-60.4 59.2-60.4c9.8 0 19.5 2.7 28.7 8l14.4 8.3.7-16.9c.8-20.7 17.4-37 37.7-37 11.6 0 19.9 5.3 24.9 9.9l10.1 9 5.8-12.3c13.9-30 42.6-48.7 74.9-48.7 38.5 0 72.5 27.9 80.9 66.4l2.5 11.3 10.6-3.8c3.9-1.3 7.4-2 10.8-2 17.6 0 32 13.6 33.7 31.6l1 11.4 11-2.2c2.8-.5 5.6-.9 8.5-.9 24 0 43.6 20 43.6 44.4 0 24.3-19.5 44.3-43.6 44.3" fill="url(#E)"/><path d="M5142.15 5007.8c-5 0-9.9.5-14.6 1.5-2.8-31.5-29-56.1-61.1-56.1-7 0-13.5 1.4-19.7 3.5-13-58.3-64.9-101.9-127.1-101.9-52 0-96.5 30.7-117.5 74.7-11.8-10.4-27.2-17-44.2-17-36.1 0-65.3 28.6-66.9 64.3-14-7.8-30-12.7-47.2-12.7-53.4 0-96.8 43.3-96.8 96.9 0 53.5 43.4 96.8 96.8 96.8h498.2c41.4 0 75-33.6 75-74.9.1-41.5-33.5-75.1-74.9-75.1" fill="#9cb1bf"/><path d="M5131.15 4992.1c-5 0-9.9.5-14.6 1.5-2.8-31.4-29-56.1-61.1-56.1-6.9 0-13.5 1.4-19.7 3.5-13-58.3-64.9-101.9-127.1-101.9-52 0-96.5 30.7-117.5 74.7-11.8-10.4-27.2-16.9-44.2-16.9-36.1 0-65.3 28.6-66.9 64.3-14-7.9-29.9-12.8-47.2-12.8-53.5 0-96.8 43.4-96.8 96.8 0 53.5 43.3 96.8 96.8 96.8h498.2c41.4 0 75-33.6 75-75 .1-41.3-33.5-74.9-74.9-74.9" fill="url(#F)"/><path d="M4747.25 4898.4c16.9 0 31.8 6.6 43.1 16.6 2.5-5.3 6.9-8.9 10.1-13.7 3.3-4.8 7.7-11.3 11.6-15.6 22.8-26.6 56-43.7 93.3-44.6 10.3-.3 20.4.7 30.1 2.8 48 10.2 86.1 47.6 97.7 95.5 5.8-1.2 11.8-1.8 18.1-1.1 3.3 0 6.9 2 10 2.6 3.1.5 7.7.8 10.6 1.8 3.4.8 6.7 2 9.8 3.4 14.5 6.7 25.7 19.7 30.3 35.5 1 2.9 1.8 7.7 2.3 10.8.2 1 .9 1.9 1 3 1.9-.4 5-.9 7-1.1 2.8-.3 5.6-.5 8.4-.5 22 0 41.7 10.5 53.7 26.3 12.1 15.8 16.6 35.5 12.9 53.9 0 36.8-40.2 66.6-77 66.6h-486.7c-52.5 0-95.1-42.6-95.1-95.3 0-52.6 42.6-95.3 95.1-95.3 13.2 0 25.6 2.9 37.1 8 3.2 1.3 7.5 3.6 10.5 5.3.1-2.6 1.3-4.7 1.7-7.2 1.1-6.3 3.3-14.8 6.1-20.2 10.1-22.1 32.4-37.5 58.3-37.5" fill="url(#G)"/><path d="M4747.55 4900c16.7 0 31.2 6.7 41.9 16.2 2.2-4.6 7.8-6.3 10.6-10.5s7.7-12 11.2-15.8c21.8-27.3 54.2-45 90.9-46.9 10.1-.5 20.2.2 29.9 2 47.8 9 86.4 45.3 98.6 92.6 5.4-.3 10.9 0 16.6 1.4 2.9 0 6.5 3.7 9.2 4.2 2.7.5 8.5.1 11.1 1 3.7.5 7.1 1.4 10.4 2.6 15.6 5.9 28 19.6 32.2 36.5.8 2.6 1.8 8.7 2.2 11.4.1.9 1.4 1.6 1.5 2.5 1.7-.3 5.6-1 7.3-1.2 2.9-.4 5.8-.6 8.8-.6 23.4 0 43.9 12.6 54.5 30.6 10.6 18 11.1 38.6 3.8 54.7 0 32.2-46.9 58.3-79.1 58.3h-475.2c-51.5 0-93.3-41.9-93.3-93.7 0-51.7 41.8-93.7 93.3-93.7 13.2 0 25.8 3 37.4 8.4 2.8 1.2 8.1 4 10.7 5.5.1-2.3 2.1-3.5 2.5-5.8 1-5.5 3-15.8 5.5-20.6 9-22.9 31.4-39.1 57.5-39.1" fill="url(#H)"/><path d="M4747.85 4901.6c16.6 0 30.6 6.8 40.8 15.8 1.9-3.9 8.6-3.6 11.1-7.2 2.4-3.6 7.8-12.7 10.7-15.9 20.8-28 52.5-46.4 88.5-49.2 10-.8 19.9-.4 29.7 1.2 47.6 7.7 86.6 43.1 99.6 89.7 4.9.6 10 1.7 15 3.8 2.5 0 6 5.3 8.4 5.8 2.3.4 9.4-.7 11.6.1 3.9.1 7.5.8 11.1 1.9 16.9 5.1 30.3 19.4 34.2 37.5.7 2.2 1.7 9.7 2 12 .1.8 2 1.2 2.1 2 1.4-.3 6.2-1.2 7.6-1.3 3-.4 6.1-.7 9.2-.7 24.8 0 46.2 14.7 55.2 34.9s5.7 41.8-5.2 55.6c0 27.6-53.5 50-81.1 50h-463.7c-50.5 0-91.6-41.2-91.6-92.1 0-50.8 41-92.1 91.6-92.1 13.2 0 25.9 3.1 37.7 8.8 2.4 1 8.6 4.4 10.8 5.6.1-2 3-2.4 3.3-4.3.8-4.7 2.7-16.8 4.8-20.9 7.9-23.9 30.2-41 56.6-41" fill="url(#I)"/><path d="M4748.25 4903.2c16.5 0 30.1 6.9 39.7 15.4 1.6-3.3 9.5-1 11.5-4s7.8-13.4 10.2-16.1c19.8-28.7 50.8-47.8 86.1-51.5 9.8-1.1 19.7-.9 29.4.4 47.4 6.4 86.8 40.8 100.5 86.8 4.5 1.5 9 3.4 13.5 6.3 2.1 0 5.6 7 7.5 7.4 1.9.3 10.3-1.4 12.1-.8 4.1-.2 8 .2 11.7 1.1 18.1 4.3 32.5 19.3 36.2 38.4.6 1.8 1.6 10.7 1.9 12.6.1.6 2.6.8 2.6 1.5 1.2-.2 6.7-1.3 8-1.4 3.1-.5 6.4-.8 9.6-.8 26.1 0 48.4 16.8 55.9 39.2 7.5 22.4.3 45-14.3 56.5 0 23-60.2 41.6-83.2 41.6h-452.2c-49.6 0-89.8-40.5-89.8-90.5s40.3-90.5 89.8-90.5c13.3 0 26 3.2 37.9 9.1 2 .8 9.1 4.7 11 5.8.1-1.6 3.8-1.2 4.1-2.8.7-3.9 2.4-17.9 4.2-21.3 7-24.5 29.4-42.4 56.1-42.4" fill="url(#J)"/><path d="M4748.55 4904.7c16.3 0 29.5 6.9 38.6 15 1.2-2.6 10.4 1.7 12-.7 1.6-2.4 7.8-14.1 9.8-16.3 18.8-29.3 49-49.2 83.8-53.8 9.7-1.3 19.5-1.5 29.2-.4 47.2 5.1 87.1 38.6 101.5 83.9 4.1 2.4 8.1 5.2 11.9 8.7 1.6 0 5.1 8.7 6.7 9 1.5.3 11.1-2.1 12.6-1.6 4.4-.5 8.4-.4 12.3.3 19.3 3.5 34.8 19.2 38.2 39.4.5 1.5 1.6 11.6 1.8 13.2.1.5 3.2.4 3.2 1 1-.2 7.3-1.4 8.3-1.5 3.3-.5 6.6-.9 10-.9 27.5 0 50.6 18.9 56.7 43.6 6 24.6-5.1 48.1-23.4 57.3 0 18.4-66.8 33.3-85.2 33.3h-440.7c-48.6 0-88.1-39.8-88.1-88.9 0-49.1 39.5-89 88.1-89 13.3 0 26.2 3.3 38.2 9.5 1.6.7 9.6 5.1 11.1 6 .1-1.3 4.7-.1 4.9-1.3.5-3.1 2.1-18.9 3.5-21.6 5.6-25.3 28.1-44.2 55-44.2" fill="url(#K)"/><path d="M4748.85 4906.3c16.2 0 29 7 37.5 14.6.9-2 11.2 4.3 12.4 2.5 1.2-1.8 7.8-14.8 9.3-16.4 17.9-30 47.3-50.5 81.4-56.1 9.5-1.6 19.3-2 29-1.2 47 3.8 87.3 36.3 102.4 81.1 3.7 3.2 7.1 6.9 10.4 11.2 1.2 0 4.7 10.4 5.9 10.6 1.2.2 12-2.9 13.1-2.5 4.6-.9 8.9-1 13-.5 20.5 2.6 37.1 19 40.1 40.4.4 1.1 1.5 12.6 1.7 13.8.1.4 3.7.1 3.8.4.7-.1 7.9-1.5 8.7-1.6 3.4-.6 6.9-.9 10.4-.9 28.8 0 52.9 21 57.4 47.9s-10.5 51.3-32.4 58.2c0 13.8-73.5 25-87.3 25h-429.2c-47.6 0-86.3-39.1-86.3-87.4 0-48.2 38.7-87.4 86.3-87.4 13.4 0 26.3 3.4 38.5 9.9 1.2.5 10.1 5.5 11.2 6.1 0-1 5.5 1.1 5.7.1.4-2.4 1.8-19.9 2.9-22 4.4-26.1 27-45.8 54.1-45.8" fill="url(#L)"/><path d="M4749.15 4907.9c16.1 0 28.4 7.1 36.4 14.2.6-1.3 12.1 7 12.9 5.8.8-1.2 7.8-15.5 8.8-16.6 16.9-30.7 45.5-51.9 79-58.4 9.4-1.9 19-2.5 28.8-2 46.7 2.6 87.5 34 103.3 78.2 3.2 4.1 6.2 8.7 8.8 13.6.8 0 4.3 12 5.1 12.2.8.1 12.9-3.6 13.6-3.3 4.9-1.2 9.3-1.6 13.6-1.3 21.7 1.8 39.3 18.9 42.1 41.3.2.7 1.5 13.6 1.6 14.4 0 .3 4.3-.3 4.3-.1.5-.1 8.5-1.7 9-1.7 3.5-.6 7.2-1 10.8-1 30.2 0 55.1 23.1 58.1 52.2s-15.9 54.4-41.5 59c0 9.2-80.1 16.7-89.3 16.7h-417.6c-46.6 0-84.6-38.4-84.6-85.8 0-47.3 37.9-85.8 84.6-85.8 13.4 0 26.5 3.5 38.8 10.3.8.3 10.7 5.9 11.4 6.3 0-.7 6.4 2.3 6.5 1.6.3-1.6 1.5-21 2.2-22.3 3.4-27 26-47.5 53.3-47.5" fill="url(#M)"/><path d="M4749.45 4909.5c16 0 27.9 7.2 35.3 13.9.3-.7 12.9 9.6 13.3 9 .4-.6 7.8-16.2 8.3-16.8 15.9-31.4 43.8-53.3 76.6-60.7 9.2-2.1 18.8-3.1 28.5-2.8 46.5 1.3 87.8 31.8 104.3 75.3 2.8 5 5.2 10.4 7.3 16.1.4 0 3.8 13.7 4.2 13.8.4.1 13.7-4.3 14.1-4.2 5.1-1.5 9.7-2.2 14.2-2 22.9.9 41.6 18.8 44.1 42.3.1.4 1.4 14.6 1.5 15 0 .1 4.9-.7 4.9-.6.2 0 9.1-1.8 9.4-1.8 3.6-.7 7.4-1.1 11.2-1.1 31.6 0 57.4 25.2 58.9 56.5s-21.3 57.6-50.5 59.9c0 4.6-86.8 8.3-91.4 8.3h-406.1c-45.6 0-82.8-37.7-82.8-84.2s37.2-84.3 82.8-84.3c13.4 0 26.6 3.6 39.1 10.6.4.2 11.2 6.2 11.5 6.4 0-.3 7.3 3.4 7.3 3.1.1-.8 1.2-22 1.6-22.7 2.2-27.6 24.9-49 52.4-49" fill="url(#N)"/><path d="M5126.15 5127.9h-488c-44.7 0-81.1-37-81.1-82.6 0-45.6 36.4-82.7 81.1-82.7 13.5 0 26.7 3.7 39.4 11l19.8 11.2.9-23c1.1-28.4 23.8-50.7 51.6-50.7 15.8 0 27.3 7.3 34.2 13.5l13.8 12.3 7.9-16.9c19.2-41.1 58.4-66.7 102.5-66.7 52.7 0 99.4 38.3 110.9 90.9l3.4 15.4 14.6-5.1c5.3-1.9 10.2-2.8 14.9-2.8 24.1 0 43.9 18.7 46.1 43.3l1.3 15.6 15.1-3c3.8-.7 7.7-1.2 11.6-1.2 32.9 0 59.6 27.3 59.6 60.8s-26.7 60.7-59.6 60.7" fill="url(#O)"/><path d="M5121.95 5176.9c-5.9 0-11.5.7-17 1.8-3.2-36.6-33.7-65.4-71.1-65.4-8.1 0-15.7 1.7-23 4.1-15.2-67.9-75.5-118.6-148-118.6-60.5 0-112.4 35.7-136.7 87-13.8-12.2-31.6-19.7-51.4-19.7-42.1 0-76.1 33.3-77.8 74.8-16.3-9.2-34.8-14.8-54.9-14.8-62.3 0-112.8 50.5-112.8 112.7s50.5 112.7 112.8 112.7h579.9c48.2 0 87.3-39.1 87.3-87.2 0-48.3-39-87.4-87.3-87.4" fill="#9cb1bf"/><path d="M5111.05 5159.8c-5.8 0-11.5.6-17 1.8-3.2-36.6-33.7-65.3-71.1-65.3-8.2 0-15.8 1.6-23 4.1-15.2-67.9-75.5-118.7-148-118.7-60.4 0-112.3 35.7-136.7 87-13.8-12.1-31.6-19.8-51.4-19.8-42 0-76 33.3-77.8 74.9-16.3-9.2-34.9-14.8-54.9-14.8-62.2 0-112.7 50.4-112.7 112.7 0 62.3 50.5 112.6 112.7 112.6h579.9c48.2 0 87.3-39 87.3-87.2s-39.1-87.3-87.3-87.3" fill="url(#P)"/><path d="M4664.15 5050.7c19.7 0 37 7.8 50.1 19.3 2.9-6.1 8-10.4 11.8-16 3.8-5.6 9-13.1 13.5-18.1 26.5-31 65.2-50.9 108.6-52 12-.3 23.8.8 35.2 3.2 55.8 11.9 100.1 55.4 113.6 111.1 6.8-1.4 13.8-2 21.2-1.2 3.8 0 8.1 2.3 11.7 3 3.6.6 8.9.9 12.3 2.1 4 1 7.7 2.3 11.3 4 16.8 7.8 29.9 22.9 35.2 41.4 1.1 3.4 2.1 9 2.6 12.6.2 1.2 1 2.3 1.1 3.5 2.3-.5 5.8-1.1 8.1-1.3 3.2-.4 6.5-.6 9.8-.6 25.7 0 48.6 12.2 62.6 30.6 14 18.4 19.3 41.3 15 62.7 0 42.8-44.4 77.5-87.3 77.5h-556.5c-55.3 0-112.7-44.8-112.7-100.1-5.8-27.7.7-57.5 18.9-81.5 18.1-24 47.9-40 81.3-40 15.3 0 29.8 3.4 43.1 9.3 3.7 1.6 8.8 4.2 12.3 6.2.1-3 1.5-5.4 2-8.3 1.3-7.3 3.8-17.3 7.1-23.6 12-25.9 38-43.8 68.1-43.8" fill="url(#Q)"/><path d="M4664.55 5052.5c19.5 0 36.3 7.9 48.8 18.9 2.5-5.4 9-7.3 12.3-12.2 3.3-4.9 9-14 13-18.3 25.3-31.8 63.1-52.5 105.8-54.7 11.9-.6 23.6.2 35 2.3 55.6 10.5 100.4 52.8 114.7 107.8 6.3-.4 12.7 0 19.4 1.6 3.4 0 7.6 4.3 10.8 4.9 3.1.6 9.9 0 12.9 1.1 4.2.6 8.2 1.6 12.1 3.1 18.2 6.9 32.6 22.7 37.5 42.5 1 3 2 10.1 2.5 13.3.2 1 1.7 1.8 1.8 2.9 2-.4 6.5-1.2 8.5-1.5 3.4-.4 6.8-.7 10.2-.7 27.3 0 51.2 14.7 63.5 35.6 12.3 20.9 13 45 4.5 63.7 0 37.4-49.7 67.8-87.2 67.8h-533c-48.4 0-112.6-39.2-112.6-87.6-11.6-24.2-11.2-55.7 4.7-83.4 15.9-27.7 47.2-47.1 83-47.1 15.3 0 29.9 3.5 43.5 9.7 3.2 1.4 9.4 4.7 12.5 6.4.1-2.6 2.5-4.1 2.9-6.6 1.1-6.4 3.5-18.5 6.4-24 10.1-26.6 36.1-45.5 66.5-45.5" fill="url(#R)"/><path d="M4664.95 5054.3c19.4 0 35.7 8 47.5 18.4 2.2-4.6 10-4.2 12.8-8.4 2.8-4.2 9-14.8 12.5-18.5 24.2-32.6 61.1-54.1 103-57.3 11.7-.9 23.3-.5 34.7 1.4 55.3 9 100.7 50.1 115.8 104.4 5.8.7 11.6 2 17.6 4.5 2.9 0 7.1 6.2 9.8 6.7 2.7.5 10.9-.8 13.4.1 4.5.2 8.8 1 12.8 2.2 19.6 6 35.2 22.6 39.8 43.6.8 2.6 2 11.3 2.4 14 .1.9 2.3 1.4 2.4 2.3 1.7-.3 7.2-1.4 8.9-1.6 3.5-.5 7.1-.8 10.7-.8 28.8 0 53.8 17.1 64.3 40.7 10.5 23.5 6.7 48.7-6.1 64.7 0 32.1-55.1 58.1-87.2 58.1h-509.6c-41.5 0-112.6-33.6-112.6-75.1-17.3-20.8-23-53.9-9.4-85.2 13.6-31.3 46.5-54.1 84.6-54.1 15.4 0 30.1 3.6 43.8 10.2 2.8 1.2 10 5.1 12.6 6.6.1-2.3 3.4-2.7 3.8-4.9.9-5.5 3.1-19.7 5.6-24.4 9.3-27.7 35.4-47.6 66.1-47.6" fill="url(#S)"/><path d="M4665.25 5056.2c19.2 0 35 8 46.2 18 1.8-3.8 11-1.1 13.4-4.6 2.4-3.5 9.1-15.6 11.9-18.7 23-33.4 59-55.7 100.2-60 11.5-1.2 23.1-1.1 34.4.4 55.1 7.5 101 47.5 116.9 101 5.3 1.7 10.5 4 15.8 7.4 2.4 0 6.6 8.2 8.8 8.6 2.2.4 11.9-1.7 14-.9 4.8-.2 9.3.3 13.6 1.3 21 5 37.8 22.4 42.1 44.7.7 2.1 1.9 12.4 2.2 14.7.1.7 3 .9 3.1 1.7 1.4-.3 7.8-1.5 9.3-1.7 3.7-.5 7.4-.9 11.2-.9 30.4 0 56.4 19.6 65.2 45.7 8.8 26.1.4 52.3-16.7 65.7 0 26.7-60.4 48.4-87.1 48.4h-486.1c-34.6 0-112.5-28-112.5-62.6-23.1-17.3-34.9-52.1-23.6-87.1 11.3-34.9 45.8-61.1 86.2-61.1 15.4 0 30.3 3.7 44.1 10.6 2.3 1 10.6 5.6 12.8 6.8.1-1.9 4.4-1.4 4.7-3.2.8-4.6 2.8-20.9 4.9-24.9 7.9-28.4 34.1-49.3 65-49.3" fill="url(#T)"/><path d="M4665.65 5058c19.1 0 34.3 8.1 44.9 17.5 1.5-3.1 12 1.9 13.9-.8 1.9-2.8 9.1-16.4 11.4-18.9 21.9-34.1 57-57.2 97.4-62.7 11.3-1.5 22.8-1.7 34.2-.5 54.8 6 101.2 44.9 118 97.7 4.8 2.8 9.4 6.1 13.9 10.2 1.9 0 6 10.1 7.9 10.5 1.8.3 12.9-2.6 14.6-1.9 5.1-.6 9.8-.4 14.3.4 22.4 4 40.5 22.3 44.5 45.8.6 1.7 1.8 13.6 2.1 15.4.1.6 3.7.5 3.7 1.1 1.1-.2 8.5-1.7 9.7-1.8 3.8-.6 7.7-1 11.6-1 32 0 59 22 66 50.7 7 28.7-5.9 56-27.2 66.7 0 21.4-65.7 38.7-87.1 38.7h-462.7c-27.7 0-112.5-22.4-112.5-50.1-28.9-13.8-46.8-50.3-37.7-88.9 9.1-38.5 45.1-68.2 87.8-68.2 15.5 0 30.4 3.9 44.5 11.1 1.9.8 11.2 6 13 7 .1-1.5 5.4 0 5.6-1.5.6-3.7 2.4-22.1 4.1-25.3 6.6-29.3 32.9-51.2 64.1-51.2" fill="url(#U)"/><path d="M4666.05 5059.8c18.9 0 33.7 8.2 43.6 17.1 1.1-2.3 13 5 14.4 2.9 1.4-2.1 9.1-17.2 10.8-19.1 20.8-34.9 55-58.8 94.6-65.4 11.2-1.9 22.5-2.4 33.9-1.4 54.6 4.5 101.5 42.2 119.1 94.3 4.3 3.8 8.3 8.1 12.1 13.1 1.4 0 5.5 12.1 6.9 12.3 1.3.2 13.9-3.4 15.2-3 5.3-1 10.3-1.1 15-.5 23.9 3 43.1 22.1 46.8 47 .4 1.3 1.8 14.8 2 16.1.1.4 4.3 0 4.4.5.8-.2 9.2-1.8 10.1-1.9 4-.6 8-1.1 12.1-1.1 33.6 0 61.6 24.5 66.9 55.8 5.3 31.2-12.2 59.7-37.8 67.7 0 16-71 29.1-87 29.1h-439.2c-20.7 0-112.4-16.8-112.4-37.5-34.7-10.4-58.7-48.5-51.9-90.7 6.8-42.2 44.4-75.2 89.5-75.2 15.5 0 30.6 4 44.8 11.5 1.4.6 11.9 6.5 13.2 7.2 0-1.1 6.4 1.3 6.6.2.5-2.7 2.1-23.3 3.4-25.7 5.1-30.3 31.3-53.3 62.9-53.3" fill="url(#V)"/><path d="M4666.35 5061.7c18.8 0 33 8.3 42.4 16.6.7-1.5 14 8.1 15 6.7.9-1.4 9.1-18 10.3-19.3 19.6-35.7 52.9-60.4 91.8-68.1 11-2.2 22.3-3 33.6-2.4 54.3 3 101.8 39.6 120.2 91 3.8 4.8 7.2 10.1 10.3 15.9 1 0 5 14 6 14.2.9.2 14.9-4.3 15.8-4 5.6-1.3 10.8-1.8 15.8-1.4 25.3 2 45.8 21.9 49.1 48.1.3.9 1.7 15.9 1.8 16.8 0 .3 5-.4 5-.1.6-.1 9.9-2 10.5-2 4.1-.7 8.3-1.2 12.6-1.2 35.1 0 64.2 26.9 67.7 60.8 3.5 33.8-18.5 63.4-48.3 68.7 0 10.7-76.3 19.4-87 19.4h-415.8c-13.8 0-112.4-11.2-112.4-25-40.5-6.9-70.6-46.8-66-92.6 4.5-45.8 43.7-82.2 91.1-82.2 15.6 0 30.8 4.1 45.1 11.9.9.4 12.5 6.9 13.3 7.4 0-.8 7.3 2.6 7.5 1.9.3-1.8 1.8-24.5 2.6-26.1 3.9-31.1 30.2-55 62-55" fill="url(#W)"/><path d="M4666.75 5063.5c18.6 0 32.4 8.4 41.1 16.2.4-.8 15 11.2 15.5 10.5.5-.7 9.2-18.8 9.7-19.5 18.5-36.5 50.9-62 89.1-70.7 10.8-2.5 22-3.6 33.4-3.3 54.1 1.5 102 37 121.3 87.6 3.3 5.9 6.1 12.1 8.5 18.8.5 0 4.5 16 5 16.1.4.1 16-5.1 16.4-5 5.9-1.7 11.3-2.5 16.5-2.3 26.7 1 48.4 21.8 51.4 49.2.1.4 1.6 17.1 1.7 17.5 0 .1 5.6-.8 5.7-.7.3-.1 10.6-2.1 10.9-2.2 4.2-.7 8.6-1.3 13.1-1.3 36.7 0 66.8 29.4 68.6 65.8 1.8 36.4-24.8 67.1-58.9 69.7 0 5.3-81.6 9.7-86.9 9.7h-392.3c-6.9 0-112.3-5.6-112.3-12.5-46.2-3.5-82.5-45-80.2-94.4 2.3-49.4 43-89.3 92.7-89.3 15.6 0 30.9 4.2 45.5 12.4.5.2 13.1 7.4 13.5 7.6 0-.4 8.3 4 8.4 3.6.2-.9 1.4-25.7 1.8-26.5 2.3-32 28.7-57 60.8-57" fill="url(#X)"/><path d="M5105.15 5317.8h-568c-52 0-94.4-43.2-94.4-96.2 0-53.1 42.3-96.3 94.4-96.3 15.7 0 31.1 4.3 45.8 12.8l23 13.2 1.1-26.9c1.3-33.1 27.8-59 60.1-59 18.5 0 31.7 8.5 39.8 15.7l16 14.3 9.2-19.7c22.2-47.8 67.9-77.7 119.4-77.7 61.3 0 115.7 44.5 129 105.9l4 17.9 17-6c6.2-2.1 11.8-3.2 17.3-3.2 28.1 0 51.1 21.6 53.7 50.3l1.6 18.2 17.6-3.6c4.4-.8 8.9-1.4 13.5-1.4 38.3 0 69.4 31.8 69.4 70.8 0 39.1-31.2 70.9-69.5 70.9" fill="url(#Y)"/><path d="M5006.75 4854.8l-218.7 286.2 97.8 17.5-112.7 261.8 242.5-303.6-97.8-17.5z" fill="#9cb1bf"/><path d="M5010.25 4834.9l-238.5 278.1 106.9 22-122.7 258.3 264.5-294.6-106.9-22z" fill="url(#Z)"/><path d="M5007.15 4840l-84.9 212.3-5.7 14.1-3.4 11.2 1.1.3 104.3 21.4-258.8 288.3 107.1-225.6 6.9-14.4 5.1-13.6-105.3-21.6z" fill="url(#aa)"/><path d="M5004.05 4845.2l-83.7 209.1-5.6 13.9-1.9 10.4 1.1.2 102.7 21.1-253.1 282 105.5-222.1 6.7-14.2 3.3-12.5-103.7-21.3z" fill="url(#ab)"/><path d="M5000.95 4850.4l-82.5 206-5.4 13.6-.6 9.5 1.2.2 101.2 20.8-247.5 275.6 103.9-218.6 6.6-14 1.4-11.4-102.1-20.9z" fill="url(#ac)"/><path d="M4997.75 4855.5l-81.2 203-5.3 13.3.9 8.6 1.2.3 99.6 20.5-241.8 269.2 102.2-215.2 6.6-13.7-.5-10.3-100.4-20.7z" fill="url(#ad)"/><path d="M4994.65 4860.7l-80 199.8-5.2 13.2 2.3 7.6 1.3.3 98 20.2-236.1 262.9 100.6-211.7 6.4-13.5-2.3-9.3-98.8-20.3z" fill="url(#ae)"/><path d="M4991.55 4865.8l-78.8 196.8-5.1 12.9 3.8 6.8 1.3.2 96.5 19.9-230.4 256.6 98.9-208.3 6.3-13.2-4.2-8.2-97.2-20z" fill="url(#af)"/><path d="M4988.35 4871l-77.5 193.6-5 12.7 5.2 5.9 1.4.3 94.9 19.5-224.7 250.3 97.2-204.8 6.2-13.1-6-7.1-95.6-19.6z" fill="url(#ag)"/><path d="M4985.25 4876.1l-76.2 190.6-5 12.4 6.7 5 1.4.3 93.3 19.2-219 244 95.6-201.4 6.1-12.8-7.9-6-93.9-19.3z" fill="url(#ah)"/><path d="M4982.15 4881.3l-75 187.4-4.9 12.3 8.1 4 1.5.3 91.8 18.9-213.4 237.7 93.9-197.9 6-12.6-9.7-5-92.3-19z" fill="url(#ai)"/><path d="M4979.05 4886.4l-73.8 184.4-4.8 12 9.6 3.2 1.5.3 90.2 18.5-207.7 231.4 92.3-194.5 5.9-12.4-11.6-3.8-90.7-18.7z" fill="url(#aj)"/><path d="M4799.05 5319.6l81.2-184.1 5.2-11.7-11.7-2.3-77.7-15.3 163.1-208.9-65.3 174.4-4.2 11.3 11 2.2 77.2 15.1-178.8 219.3" opacity=".091" fill="url(#ak)"/><path d="M4804.95 5309.8l76-176.4 4.9-11.2-11.2-2.1-74.2-13.9 154-200.8-61 167-3.9 10.8 10.5 2 73.8 13.7-168.9 210.9" opacity=".182" fill="url(#al)"/><path d="M4810.85 5299.9l70.9-168.6 4.5-10.8-10.7-1.8-70.8-12.5 144.9-192.6-56.6 159.5-3.6 10.3 10 1.8 70.5 12.4-159.1 202.3" opacity=".273" fill="url(#am)"/><path d="M4816.75 5290.1l65.7-160.9 4.2-10.3-10.1-1.6-67.5-11.1 135.8-184.5-52.1 152.1-3.5 9.9 9.6 1.5 67.1 11-149.2 193.9" opacity=".364" fill="url(#an)"/><path d="M4822.65 5280.2l60.5-153.1 4-9.8-9.7-1.4-64.1-9.6 126.7-176.5-47.7 144.7-3.2 9.4 9.1 1.3 63.7 9.6-139.3 185.4" opacity=".455" fill="url(#ao)"/><path d="M4828.65 5270.4l55.3-145.4 3.6-9.3-9.2-1.2-60.6-8.2 117.6-168.3-43.4 137.2-2.9 8.9 8.6 1.2 60.3 8.1-129.3 177" opacity=".545" fill="url(#ap)"/><path d="M4834.55 5260.5l50.1-137.7 3.3-8.7-8.7-1.1-57.2-6.7 108.5-160.2-39 129.8-2.6 8.4 8.1 1 57 6.7-119.5 168.5" opacity=".636" fill="url(#aq)"/><path d="M4840.45 5250.7l45-130 2.9-8.3-8.1-.8-53.9-5.3 99.4-152.1-34.6 122.4-2.3 7.9 7.6.8 53.6 5.3-109.6 160.1" opacity=".727" fill="url(#ar)"/><path d="M4846.35 5240.8l39.8-122.2 2.6-7.8-7.6-.6-50.5-3.9 90.3-143.9-30.2 114.9-2 7.5 7.2.5 50.1 3.9-99.7 151.6" opacity=".818" fill="url(#as)"/><path d="M4852.25 5231l34.6-114.5 2.3-7.3-7.1-.4-47-2.5 81.1-135.8-25.8 107.5-1.7 7 6.7.4 46.7 2.5-89.8 143.1" opacity=".909" fill="url(#at)"/><path d="M4858.25 5221.1l29.4-106.7 1.9-6.8-6.6-.2-43.6-1.1 72.1-127.6-21.5 100-1.5 6.5 6.3.2 43.4 1.1-79.9 134.6" fill="url(#au)"/></svg>